<?xml version="1.0" encoding="UTF-8" standalone="no"?>
<svg
   xmlns:dc="http://purl.org/dc/elements/1.1/"
   xmlns:cc="http://creativecommons.org/ns#"
   xmlns:rdf="http://www.w3.org/1999/02/22-rdf-syntax-ns#"
   xmlns:svg="http://www.w3.org/2000/svg"
   xmlns="http://www.w3.org/2000/svg"
   xmlns:sodipodi="http://sodipodi.sourceforge.net/DTD/sodipodi-0.dtd"
   xmlns:inkscape="http://www.inkscape.org/namespaces/inkscape"
   inkscape:version="1.0 (4035a4fb49, 2020-05-01)"
   sodipodi:docname="2.svg"
   viewBox="0 0 725.66931 725.66931"
   id="svg21"
   height=""
   width=""
   version="1.1">
  <metadata
     id="metadata27">
    <rdf:RDF>
      <cc:Work
         rdf:about="">
        <dc:format>image/svg+xml</dc:format>
        <dc:type
           rdf:resource="http://purl.org/dc/dcmitype/StillImage" />
        <dc:title></dc:title>
      </cc:Work>
    </rdf:RDF>
  </metadata>
  <defs
     id="defs25" />
  <sodipodi:namedview
     inkscape:current-layer="svg21"
     inkscape:window-maximized="1"
     inkscape:window-y="-8"
     inkscape:window-x="-8"
     inkscape:cy="451.07582"
     inkscape:cx="359.39661"
     inkscape:zoom="0.79650605"
     showgrid="false"
     id="namedview23"
     inkscape:window-height="746"
     inkscape:window-width="1304"
     inkscape:pageshadow="2"
     inkscape:pageopacity="0"
     guidetolerance="10"
     gridtolerance="10"
     objecttolerance="10"
     borderopacity="1"
     bordercolor="#666666"
     pagecolor="#ffffff" />
  <g
     transform="matrix(-1,0,0,1,725.5782,0)"
     id="Layer1000">
    <path
       id="path2"
       style="fill:#0f9c58;fill-rule:evenodd"
       d="m 432.3006,247.7063 c 0.623,0.8542 10.2319,6.9155 12.8427,8.8809 9.0415,6.8063 10.5442,8.6373 17.7914,14.9298 1.214,1.054 1.4889,1.5445 2.5818,2.7315 l 5.4955,5.5033 c 2.3503,2.5839 5.1931,6.8699 7.5533,9.0446 1.5748,0.0984 3.7022,-0.6297 5.2709,-0.965 5.0494,-1.0789 12.9187,-2.0455 18.4681,-1.1959 8.3717,1.2819 12.1738,5.1432 15.2061,11.8425 2.7124,5.9925 3.4922,14.5991 7.3479,19.3548 5.948,7.3367 13.1667,4.2076 20.4254,2.6879 0.4087,1.6815 4.3206,8.222 5.5935,10.2721 2.1399,3.4464 3.9687,6.4293 7.0116,9.2634 7.9729,7.4255 16.4321,0.4 22.5244,-3.4839 2.0371,1.4316 6.8603,6.9725 8.931,9.1641 2.8859,3.0542 6.7232,5.9003 10.3431,8.1611 7.2292,4.515 14.2103,2.8755 18.3927,-4.0655 0.9541,-1.5834 2.4962,-4.3841 2.9912,-6.3112 6.2023,0.2779 20.36,5.5142 31.4618,-0.8558 7.3946,-4.2427 13.2437,-13.4864 9.1748,-24.8023 -1.6099,-4.4774 -5.1933,-10.554 -8.2605,-14.3173 -1.2483,-1.5315 -2.8092,-3.8044 -3.3934,-5.8182 -0.961,-3.3129 6.1638,-9.043 0.7811,-17.7167 -1.91,-3.0778 -7.9833,-7.4583 -10.7695,-7.7535 0.2854,-12.6841 -1.2712,-17.2752 -14.0774,-20.9048 -5.7597,-1.6323 -11.945,-3.8915 -16.7357,-7.2564 -7.2982,-5.1263 -7.4761,-5.3313 -18.1268,-5.5796 l -34.7348,-1.5036 c -16.1001,-0.3629 -27.2887,1.5842 -42.3574,4.3447 -3.3161,0.6075 -17.8109,3.5288 -19.9276,3.4811 1.7341,-2.4677 22.445,-14.9864 25.1487,-16.5365 8.6349,-4.9508 17.6796,-10.4577 29.3858,-12.1043 23.4922,-3.3045 33.2992,8.9551 44.4681,3.3093 5.8376,-2.9508 6.4889,-7.5641 7.4881,-13.5887 0.2625,-1.582 0.3201,-3.6551 0.5115,-4.9112 0.2157,-1.4169 0.5394,-3.6827 0.5657,-4.8543 2.1644,-0.1311 13.3145,-3.1057 15.7481,-3.8592 7.079,-2.1915 14.7245,-4.6316 20.4845,-9.4339 9.5057,-7.9253 0.8181,-19.7367 0.4013,-21.7281 l 7.33,-5.4032 c 3.839,-2.9934 9.0814,-6.3667 12.9693,-9.6706 5.3402,-4.5378 12.2499,-10.5666 13.4463,-17.7755 l 0.0843,-3.7432 c -0.2243,-1.8237 -0.8489,-3.7124 -1.9745,-5.6618 -4.0392,-6.995 -9.4464,-8.1935 -15.0339,-11.3129 2.3988,-4.2967 6.8764,-12.6146 8.1996,-17.2015 2.5373,-8.7961 -0.1956,-16.7116 -7.5199,-21.9759 -12.259,-8.811 -26.7394,2.9261 -33.6124,4.3651 -0.1953,-0.9325 -1.5417,-3.3582 -2.0484,-4.2896 -2.1192,-3.8962 -4.752,-8.0717 -8.4104,-10.703 -9.0053,-6.4771 -21.7768,3.5981 -27.4853,9.7937 -2.9476,3.1992 -8.6767,9.206 -10.1266,12.2812 l -3.764,9.4965 c -9.3972,-6.6037 -21.375,-8.8488 -28.5877,3.4991 -2.6046,4.459 -8.2181,17.3635 -9.2809,22.9688 -0.5289,2.7888 -1.2013,6.4063 -1.2723,9.5615 -1.126,-0.1193 -2.9278,-0.7935 -3.9199,-1.112 -18.0111,-5.7827 -23.592,6.8226 -19.5537,22.511 0.6708,2.6061 1.4453,5.7274 1.8018,8.6904 1.524,12.6694 -0.7856,24.229 -6.0669,35.2949 -5.7858,12.1229 -13.2621,21.884 -20.819,32.6842 -0.9578,1.369 -3.5649,5.463 -4.5394,6.1439 l -1.3389,-1.1554 c 3.801,-15.1656 6.7871,-21.3311 9.8987,-38.9062 1.6885,-9.537 3.1732,-23.6955 3.3879,-33.4901 0.1769,-8.074 -0.2931,-15.6338 -0.548,-23.4259 -0.1381,-4.2206 -0.737,-17.3428 -3.9326,-19.8429 -2.1836,-1.7083 -4.3934,-2.4133 -5.8739,-6.1859 -1.6875,-4.3001 -1.8476,-12.6638 -5.1565,-18.673 -3.4299,-6.2291 -8.1055,-6.9344 -17.5758,-7.1475 -0.7833,-3.7413 -3.6843,-8.7747 -6.7821,-11.2183 -8.3144,-6.5585 -11.6279,6.2317 -27.1573,-5.9711 -7.5811,-5.9571 -16.8268,-10.9562 -26.4603,-6.416 -9.4654,4.4609 -12.8194,12.5469 -13.063,23.3717 -0.1513,6.7212 1.4759,13.3665 1.4006,16.7121 -27.2409,5.7034 -6.6412,26.3101 2.4549,37.5692 0.4517,0.5591 0.7256,0.7449 1.1778,1.3037 l 2.173,2.7819 c -5.2537,2.6303 -10.6507,8.6219 -7.9169,15.5517 1.1422,2.8953 5.1057,7.1674 7.5095,9.1345 l 14.5076,11.1218 c -3.9937,7.1534 -5.0809,14.5866 2.6663,20.0124 10.1959,7.1405 29.1045,4.493 29.2655,28.2523 0.0724,10.6776 -1.0384,17.7162 -4.4596,24.7547 z" />
    <path
       id="path4"
       style="fill:#ff6600;fill-rule:evenodd"
       d="M 53.4407,670.3801 C 216.5429,588.2811 357.6836,487.9313 480.4403,372.3035 543.6676,312.7408 405.6792,183.3099 350.7121,242.2328 230.6669,370.9311 135.1486,506.8721 53.4407,670.3801 Z" />
    <path
       id="path6"
       style="fill:none;stroke:#000000;stroke-width:4;stroke-linecap:butt;stroke-linejoin:miter;stroke-dasharray:none"
       d="m 144.7306,508.1128 c 8.8932,2.0688 16.1031,6.7902 21.9377,13.6798" />
    <path
       id="path8"
       style="fill:none;stroke:#000000;stroke-width:4;stroke-linecap:butt;stroke-linejoin:miter;stroke-dasharray:none"
       d="m 259.7054,498.446 c 10.4128,9.6062 18.0793,21.2136 23.4258,34.5123" />
    <path
       id="path10"
       style="fill:none;stroke:#000000;stroke-width:4;stroke-linecap:butt;stroke-linejoin:miter;stroke-dasharray:none"
       d="m 237.9119,374.6824 c 18.2878,4.333 31.2406,14.0156 39.9089,27.9945" />
    <path
       id="path12"
       style="fill:none;stroke:#000000;stroke-width:4;stroke-linecap:butt;stroke-linejoin:miter;stroke-dasharray:none"
       d="m 378.6511,390.7096 c 18.1694,12.0953 27.5314,27.1393 32.5696,43.6312" />
    <path
       id="path14"
       style="fill:none;stroke:#000000;stroke-width:4;stroke-linecap:butt;stroke-linejoin:miter;stroke-dasharray:none"
       d="m 339.9085,253.3612 c 18.3764,6.0826 32.9939,17.82 44.3791,34.4202" />
    <path
       id="path16"
       style="fill:none;stroke:#000000;stroke-width:4;stroke-linecap:butt;stroke-linejoin:miter;stroke-dasharray:none"
       d="m 130.1039,600.1466 c 8.2837,4.9618 12.8383,12.1673 14.5592,21.0784" />
  </g>
  <path
     id="path19"
     style="fill:#7ecc81;fill-rule:evenodd"
     d="m 260.8655,267.8017 12.8838,-12.2592 c -2.9316,-92.3483 2.8825,-127.5976 32.0763,-145.9455 -30.9042,14.7926 -38.431,44.7033 -37.8329,149.4998 -55.6209,-55.9647 -112.0499,-102.2139 -161.2922,-147.9999 45.5964,47.4638 100.7014,96.6101 156.9311,151.575 -83.0101,1.1681 -133.6725,20.3808 -163.6812,47.55 32.7826,-21.6513 89.0058,-43.395 160.9151,-42.4202 z" />
</svg>
