<?xml version="1.0" encoding="UTF-8" standalone="no"?>
<svg
   xmlns:dc="http://purl.org/dc/elements/1.1/"
   xmlns:cc="http://creativecommons.org/ns#"
   xmlns:rdf="http://www.w3.org/1999/02/22-rdf-syntax-ns#"
   xmlns:svg="http://www.w3.org/2000/svg"
   xmlns="http://www.w3.org/2000/svg"
   xmlns:sodipodi="http://sodipodi.sourceforge.net/DTD/sodipodi-0.dtd"
   xmlns:inkscape="http://www.inkscape.org/namespaces/inkscape"
   version="1.1"
   width=""
   height=""
   id="svg66"
   viewBox="0 0 725.66931 725.66931"
   sodipodi:docname="all_consuming_shield.svg"
   inkscape:version="1.0 (4035a4fb49, 2020-05-01)">
  <metadata
     id="metadata72">
    <rdf:RDF>
      <cc:Work
         rdf:about="">
        <dc:format>image/svg+xml</dc:format>
        <dc:type
           rdf:resource="http://purl.org/dc/dcmitype/StillImage" />
        <dc:title />
      </cc:Work>
    </rdf:RDF>
  </metadata>
  <defs
     id="defs70" />
  <sodipodi:namedview
     inkscape:document-rotation="0"
     pagecolor="#ffffff"
     bordercolor="#666666"
     borderopacity="1"
     objecttolerance="10"
     gridtolerance="10"
     guidetolerance="10"
     inkscape:pageopacity="0"
     inkscape:pageshadow="2"
     inkscape:window-width="1304"
     inkscape:window-height="746"
     id="namedview68"
     showgrid="false"
     inkscape:zoom="0.79650605"
     inkscape:cx="344.00241"
     inkscape:cy="505.593"
     inkscape:window-x="-8"
     inkscape:window-y="-8"
     inkscape:window-maximized="1"
     inkscape:current-layer="Layer1000" />
  <g
     id="Layer1000">
    <path
       d="M 366.0717,37.127344 A 88.803376,88.701982 0 0 1 454.87508,125.82933 88.803376,88.701982 0 1 1 366.0717,37.127344 Z"
       style="fill:#ff2e32;fill-rule:evenodd;stroke:#000000;stroke-width:5;stroke-linecap:butt;stroke-linejoin:miter;stroke-dasharray:none;stroke-miterlimit:4"
       id="path11" />
    <path
       d="m 161.84907,154.90084 a 88.803376,88.701982 0 0 1 88.80337,88.7018 88.803376,88.701982 0 1 1 -88.80337,-88.7018 z"
       style="fill:#a69d90;fill-rule:evenodd;stroke:#000000;stroke-width:5;stroke-linecap:butt;stroke-linejoin:miter;stroke-dasharray:none;stroke-miterlimit:4"
       id="path13" />
    <path
       d="m 570.29434,154.90048 a 88.803376,88.701982 0 0 1 88.80337,88.70197 88.803376,88.701982 0 1 1 -88.80337,-88.70197 z"
       style="fill:#e96a30;fill-rule:evenodd;stroke:#000000;stroke-width:5;stroke-linecap:butt;stroke-linejoin:miter;stroke-dasharray:none;stroke-miterlimit:4"
       id="path15" />
    <path
       d="m 161.84907,390.44764 a 88.803376,88.701982 0 0 1 88.80337,88.70199 88.803376,88.701982 0 1 1 -88.80337,-88.70199 z"
       style="fill:#f5a7de;fill-rule:evenodd;stroke:#000000;stroke-width:5;stroke-linecap:butt;stroke-linejoin:miter;stroke-dasharray:none;stroke-miterlimit:4"
       id="path17" />
    <path
       d="m 366.0717,508.22078 a 88.803376,88.701982 0 0 1 88.80338,88.70197 88.803376,88.701982 0 1 1 -88.80338,-88.70197 z"
       style="fill:#71c837;fill-rule:evenodd;stroke:#000000;stroke-width:5;stroke-linecap:butt;stroke-linejoin:miter;stroke-dasharray:none;stroke-miterlimit:4"
       id="path19" />
    <path
       d="m 570.29434,390.44746 a 88.803376,88.701982 0 0 1 88.80337,88.70199 88.803376,88.701982 0 1 1 -88.80337,-88.70199 z"
       style="fill:#55ddff;fill-rule:evenodd;stroke:#000000;stroke-width:5;stroke-linecap:butt;stroke-linejoin:miter;stroke-dasharray:none;stroke-miterlimit:4"
       id="path21" />
    <g
       id="Layer1002"
       transform="matrix(1.8303144,0,0,1.8282246,-314.93922,-299.29779)"
       style="stroke-width:2.73333198;stroke-miterlimit:4;stroke-dasharray:none">
      <path
         d="m 372.3821,272.8055 c -17.4262,-16.5745 -30.4079,-38.1001 -30.1998,-65.0505 4.1627,-0.0605 19.0869,-7.2423 30.0933,-15.4904 11.6748,8.0517 25.7527,14.7954 29.6907,15.1347 0.0527,27.1346 -12.1789,47.6084 -29.5837,65.407 z"
         style="fill:#cc00ff;fill-rule:evenodd;stroke:#000000;stroke-width:2.73333198;stroke-linecap:butt;stroke-linejoin:miter;stroke-dasharray:none;stroke-miterlimit:4"
         id="path23" />
      <path
         d="m 372.3737,196.6958 c 12.6368,7.3489 14.9586,10.147 27.4335,14.2003 -12.1961,-1.2725 -18.7724,-5.1101 -27.4335,-14.2003 z"
         style="fill:#ffffff;fill-opacity:0.78;fill-rule:evenodd;stroke-width:2.73333198;stroke-miterlimit:4;stroke-dasharray:none"
         id="path25" />
      <path
         d="m 342.4717,208.0947 c 4.8748,-1.249 21.3189,-9.6547 29.7326,-15.5374 -0.0698,14.1505 0.7699,53.7188 0.2738,80.6768 -27.0767,-28.4086 -30.0787,-51.2654 -30.0064,-65.1386 z"
         style="fill:#000000;fill-opacity:0.2;fill-rule:evenodd;stroke-width:2.73333198;stroke-miterlimit:4;stroke-dasharray:none"
         id="path27" />
    </g>
    <g
       id="Layer1003"
       transform="matrix(1.8303144,0,0,1.8282246,-314.93922,-299.29779)"
       style="stroke-width:2.73333198;stroke-miterlimit:4;stroke-dasharray:none">
      <path
         d="m 483.4902,336.865 c -17.4262,-16.5745 -30.4079,-38.1002 -30.1998,-65.0506 4.1627,-0.0605 19.0869,-7.2423 30.0933,-15.4904 11.6748,8.0517 25.7527,14.7954 29.6907,15.1347 0.0527,27.1346 -12.1789,47.6084 -29.5837,65.4071 z"
         style="fill:#cc00ff;fill-rule:evenodd;stroke:#000000;stroke-width:2.73333198;stroke-linecap:butt;stroke-linejoin:miter;stroke-dasharray:none;stroke-miterlimit:4"
         id="path30" />
      <path
         d="m 483.4818,260.7553 c 12.6368,7.3488 14.9586,10.1469 27.4335,14.2003 -12.1961,-1.2726 -18.7724,-5.1102 -27.4335,-14.2003 z"
         style="fill:#ffffff;fill-opacity:0.78;fill-rule:evenodd;stroke-width:2.73333198;stroke-miterlimit:4;stroke-dasharray:none"
         id="path32" />
      <path
         d="m 453.5798,272.1541 c 4.8748,-1.2489 21.3189,-9.6547 29.7326,-15.5373 -0.0698,14.1504 0.7699,53.7188 0.2738,80.6767 -27.0767,-28.4085 -30.0787,-51.2654 -30.0064,-65.1386 z"
         style="fill:#000000;fill-opacity:0.2;fill-rule:evenodd;stroke-width:2.73333198;stroke-miterlimit:4;stroke-dasharray:none"
         id="path34" />
    </g>
    <g
       id="Layer1004"
       transform="matrix(1.8303144,0,0,1.8282246,-314.93922,-299.29779)"
       style="stroke-width:2.73333198;stroke-miterlimit:4;stroke-dasharray:none">
      <path
         d="m 483.96,466.0641 c -17.4262,-16.5745 -30.4078,-38.1002 -30.1998,-65.0505 4.1628,-0.0605 19.087,-7.2423 30.0933,-15.4904 11.6749,8.0517 25.7527,14.7953 29.6908,15.1347 0.0526,27.1346 -12.1789,47.6084 -29.5838,65.407 z"
         style="fill:#cc00ff;fill-rule:evenodd;stroke:#000000;stroke-width:2.73333198;stroke-linecap:butt;stroke-linejoin:miter;stroke-dasharray:none;stroke-miterlimit:4"
         id="path37" />
      <path
         d="m 483.9516,389.9544 c 12.6369,7.3489 14.9586,10.147 27.4335,14.2003 -12.1961,-1.2726 -18.7724,-5.1102 -27.4335,-14.2003 z"
         style="fill:#ffffff;fill-opacity:0.78;fill-rule:evenodd;stroke-width:2.73333198;stroke-miterlimit:4;stroke-dasharray:none"
         id="path39" />
      <path
         d="m 454.0496,401.3533 c 4.8749,-1.249 21.3189,-9.6547 29.7326,-15.5374 -0.0697,14.1505 0.77,53.7188 0.2738,80.6768 -27.0767,-28.4086 -30.0786,-51.2654 -30.0064,-65.1386 z"
         style="fill:#000000;fill-opacity:0.2;fill-rule:evenodd;stroke-width:2.73333198;stroke-miterlimit:4;stroke-dasharray:none"
         id="path41" />
    </g>
    <g
       id="Layer1005"
       transform="matrix(1.8303144,0,0,1.8282246,-314.93922,-299.29779)"
       style="stroke-width:2.73333198;stroke-miterlimit:4;stroke-dasharray:none">
      <path
         d="m 372.3821,530.4836 c -17.4262,-16.5745 -30.4079,-38.1001 -30.1998,-65.0505 4.1627,-0.0605 19.0869,-7.2423 30.0933,-15.4904 11.6748,8.0517 25.7527,14.7954 29.6907,15.1347 0.0527,27.1346 -12.1789,47.6084 -29.5837,65.407 z"
         style="fill:#cc00ff;fill-rule:evenodd;stroke:#000000;stroke-width:2.73333198;stroke-linecap:butt;stroke-linejoin:miter;stroke-dasharray:none;stroke-miterlimit:4"
         id="path44" />
      <path
         d="m 372.3737,454.3739 c 12.6368,7.3489 14.9586,10.147 27.4335,14.2004 -12.1961,-1.2726 -18.7724,-5.1102 -27.4335,-14.2004 z"
         style="fill:#ffffff;fill-opacity:0.78;fill-rule:evenodd;stroke-width:2.73333198;stroke-miterlimit:4;stroke-dasharray:none"
         id="path46" />
      <path
         d="m 342.4717,465.7728 c 4.8748,-1.249 21.3189,-9.6547 29.7326,-15.5374 -0.0698,14.1505 0.7699,53.7189 0.2738,80.6768 -27.0767,-28.4085 -30.0787,-51.2654 -30.0064,-65.1386 z"
         style="fill:#000000;fill-opacity:0.2;fill-rule:evenodd;stroke-width:2.73333198;stroke-miterlimit:4;stroke-dasharray:none"
         id="path48" />
    </g>
    <g
       id="Layer1006"
       transform="matrix(1.8303144,0,0,1.8282246,-314.93922,-299.29779)"
       style="stroke-width:2.73333198;stroke-miterlimit:4;stroke-dasharray:none">
      <path
         d="m 260.8042,337.225 c -17.4262,-16.5744 -30.4079,-38.1001 -30.1998,-65.0505 4.1627,-0.0605 19.0869,-7.2423 30.0933,-15.4904 11.6748,8.0517 25.7527,14.7954 29.6907,15.1347 0.0527,27.1346 -12.1789,47.6084 -29.5838,65.4071 z"
         style="fill:#cc00ff;fill-rule:evenodd;stroke:#000000;stroke-width:2.73333198;stroke-linecap:butt;stroke-linejoin:miter;stroke-dasharray:none;stroke-miterlimit:4"
         id="path51" />
      <path
         d="m 260.7958,261.1154 c 12.6368,7.3488 14.9586,10.1469 27.4335,14.2003 -12.1962,-1.2726 -18.7724,-5.1102 -27.4335,-14.2003 z"
         style="fill:#ffffff;fill-opacity:0.78;fill-rule:evenodd;stroke-width:2.73333198;stroke-miterlimit:4;stroke-dasharray:none"
         id="path53" />
      <path
         d="m 230.8937,272.5142 c 4.8749,-1.249 21.3189,-9.6547 29.7327,-15.5373 -0.0698,14.1504 0.7699,53.7188 0.2738,80.6767 -27.0767,-28.4085 -30.0787,-51.2654 -30.0065,-65.1386 z"
         style="fill:#000000;fill-opacity:0.2;fill-rule:evenodd;stroke-width:2.73333198;stroke-miterlimit:4;stroke-dasharray:none"
         id="path55" />
    </g>
    <g
       id="Layer1007"
       transform="matrix(1.8303144,0,0,1.8282246,-314.93922,-299.29779)"
       style="stroke-width:2.73333198;stroke-miterlimit:4;stroke-dasharray:none">
      <path
         d="m 260.8042,466.0642 c -17.4262,-16.5745 -30.4079,-38.1001 -30.1998,-65.0505 4.1627,-0.0605 19.0869,-7.2423 30.0933,-15.4904 11.6748,8.0517 25.7527,14.7954 29.6907,15.1347 0.0527,27.1346 -12.1789,47.6084 -29.5838,65.407 z"
         style="fill:#cc00ff;fill-rule:evenodd;stroke:#000000;stroke-width:2.73333198;stroke-linecap:butt;stroke-linejoin:miter;stroke-dasharray:none;stroke-miterlimit:4"
         id="path58" />
      <path
         d="m 260.7958,389.9545 c 12.6368,7.3489 14.9586,10.147 27.4335,14.2003 -12.1962,-1.2725 -18.7724,-5.1101 -27.4335,-14.2003 z"
         style="fill:#ffffff;fill-opacity:0.78;fill-rule:evenodd;stroke-width:2.73333198;stroke-miterlimit:4;stroke-dasharray:none"
         id="path60" />
      <path
         d="m 230.8937,401.3534 c 4.8749,-1.249 21.3189,-9.6547 29.7327,-15.5374 -0.0698,14.1505 0.7699,53.7188 0.2738,80.6768 -27.0767,-28.4086 -30.0787,-51.2654 -30.0065,-65.1386 z"
         style="fill:#000000;fill-opacity:0.2;fill-rule:evenodd;stroke-width:2.73333198;stroke-miterlimit:4;stroke-dasharray:none"
         id="path62" />
    </g>
  </g>
</svg>
