<?xml version="1.0" encoding="UTF-8" standalone="no"?>
<svg
   xmlns:dc="http://purl.org/dc/elements/1.1/"
   xmlns:cc="http://creativecommons.org/ns#"
   xmlns:rdf="http://www.w3.org/1999/02/22-rdf-syntax-ns#"
   xmlns:svg="http://www.w3.org/2000/svg"
   xmlns="http://www.w3.org/2000/svg"
   xmlns:sodipodi="http://sodipodi.sourceforge.net/DTD/sodipodi-0.dtd"
   xmlns:inkscape="http://www.inkscape.org/namespaces/inkscape"
   version="1.1"
   width=""
   height=""
   id="svg38"
   viewBox="0 0 725.66931 725.66931"
   sodipodi:docname="Stealth Box Cat.svg"
   inkscape:version="1.0 (4035a4fb49, 2020-05-01)">
  <metadata
     id="metadata44">
    <rdf:RDF>
      <cc:Work
         rdf:about="">
        <dc:format>image/svg+xml</dc:format>
        <dc:type
           rdf:resource="http://purl.org/dc/dcmitype/StillImage" />
        <dc:title />
      </cc:Work>
    </rdf:RDF>
  </metadata>
  <defs
     id="defs42" />
  <sodipodi:namedview
     pagecolor="#ffffff"
     bordercolor="#666666"
     borderopacity="1"
     objecttolerance="10"
     gridtolerance="10"
     guidetolerance="10"
     inkscape:pageopacity="0"
     inkscape:pageshadow="2"
     inkscape:window-width="1299"
     inkscape:window-height="746"
     id="namedview40"
     showgrid="false"
     inkscape:zoom="0.8534161"
     inkscape:cx="427.08923"
     inkscape:cy="397.98582"
     inkscape:window-x="-8"
     inkscape:window-y="-8"
     inkscape:window-maximized="1"
     inkscape:current-layer="svg38"
     inkscape:document-rotation="0" />
  <path
     d="M 716.1497,427.4 587.5458,465.7925 412.3237,415.9968 540.9276,377.6044 Z"
     style="fill:#ff8080;fill-rule:evenodd;stroke:#1b1918;stroke-width:0.56690001;stroke-linecap:butt;stroke-linejoin:miter;stroke-dasharray:none;fill-opacity:1"
     id="path2"
     inkscape:connector-curvature="0" />
  <path
     d="m 52.9609,475.0574 275.9163,-82.7743 83.446,23.7137 -275.9158,82.7743 z"
     style="fill:#ff8080;fill-rule:evenodd;stroke:#1b1918;stroke-width:0.56690001;stroke-linecap:butt;stroke-linejoin:miter;stroke-dasharray:none;fill-opacity:1"
     id="path4"
     inkscape:connector-curvature="0" />
  <path
     d="m 136.4074,207.5093 175.2221,49.8669 275.9163,-82.7747 -175.2221,-49.8669 z m 275.9163,-82.7747 175.2221,49.8669"
     style="fill:#ff8080;fill-rule:evenodd;stroke:#1b1918;stroke-width:0.56690001;stroke-linecap:butt;stroke-linejoin:miter;stroke-dasharray:none;fill-opacity:1"
     id="path6"
     inkscape:connector-curvature="0" />
  <path
     d="M 311.6295,257.3762 V 548.5667 L 136.4074,498.7711 V 207.5093 Z"
     style="fill:#ff8080;fill-rule:evenodd;stroke:#1b1918;stroke-width:0.56690001;stroke-linecap:butt;stroke-linejoin:miter;stroke-dasharray:none;fill-opacity:1"
     id="path8"
     inkscape:connector-curvature="0" />
  <path
     d="M 311.6295,548.5667 183.0256,586.9592 7.8035,537.1635 136.4074,498.7711 Z"
     style="fill:#ff8080;fill-rule:evenodd;stroke:#1b1918;stroke-width:0.56690001;stroke-linecap:butt;stroke-linejoin:miter;stroke-dasharray:none;fill-opacity:1"
     id="path10"
     inkscape:connector-curvature="0" />
  <path
     d="m 311.6295,548.5667 275.9163,-82.7742 83.4461,23.7137 -275.9159,82.7742 z"
     style="fill:#ff8080;fill-rule:evenodd;stroke:#1b1918;stroke-width:0.56690001;stroke-linecap:butt;stroke-linejoin:miter;stroke-dasharray:none;fill-opacity:1"
     id="path12"
     inkscape:connector-curvature="0" />
  <path
     d="m 245.9214,290.9987 v 13.8812 L 202.116,292.4135 v -13.8813 z"
     style="fill:#1b1918;fill-rule:evenodd;stroke:#1b1918;stroke-width:0.56690001;stroke-linecap:butt;stroke-linejoin:miter;stroke-dasharray:none"
     id="path14"
     inkscape:connector-curvature="0" />
  <path
     d="m 526.9669,418.5776 v 17.745 c 136.5271,-9.6537 227.2343,-1.0324 125.6306,78.5189 -19.0486,14.1138 -2.5955,24.1686 19.7053,5.6839 105.1241,-95.5629 -7.0003,-111.3546 -145.3359,-101.9478 z"
     style="fill:#ffb380;fill-rule:evenodd;stroke:#000000;stroke-width:0.56690001;stroke-linecap:butt;stroke-linejoin:miter;stroke-dasharray:none;fill-opacity:1"
     id="path16"
     inkscape:connector-curvature="0" />
  <g
     id="Layer1000">
    <path
       d="m 278.0385,233.5954 33.591,9.5598 c -2.645,-73.5046 -8.1526,-73.1308 -33.591,-9.5598 z"
       style="fill:#ffb380;fill-rule:evenodd;stroke:#1b1918;stroke-width:0.5669;stroke-linecap:butt;stroke-linejoin:miter;stroke-dasharray:none;fill-opacity:1"
       id="path18"
       inkscape:connector-curvature="0" />
    <path
       d="m 320.2957,231.3785 c 2.2515,4.7523 -2.2076,8.4254 -8.6661,11.7766 -0.1383,-4.8303 -0.544,-9.6631 -0.7928,-14.4684 l -1.9911,-21.2859 c -0.3767,-4.0294 -1.311,-10.8391 -2.5353,-14.65 -0.6052,-1.8848 -1.7685,-1.9329 -2.302,-3.6179 l 1.9187,3.4209 1.099,4.4065 5.1259,13.2956 z"
       style="fill:#ffb380;fill-rule:evenodd;stroke:#1b1918;stroke-width:0.5669;stroke-linecap:butt;stroke-linejoin:miter;stroke-dasharray:none;fill-opacity:1"
       id="path20"
       inkscape:connector-curvature="0" />
    <path
       d="m 278.0385,233.5955 1.6183,0.4606 c 24.2441,-61.0727 27.8101,-60.9477 30.3437,8.6355 l 1.6291,0.4635 c -3.2304,-69.9084 -6.4837,-76.5831 -33.5911,-9.5596 z"
       style="fill:#ffb380;fill-rule:evenodd;stroke:#1b1918;stroke-width:0.5669;stroke-linecap:butt;stroke-linejoin:miter;stroke-dasharray:none;fill-opacity:1"
       id="path22"
       inkscape:connector-curvature="0" />
    <path
       d="m 310.0005,242.6916 -30.3437,-8.6355 c 13.5099,-2.5299 23.5939,-3.8262 29.8358,-3.9605 z"
       style="fill:#1b1918;fill-rule:evenodd;stroke:#1b1918;stroke-width:0.5669;stroke-linecap:butt;stroke-linejoin:miter;stroke-dasharray:none"
       id="path24"
       inkscape:connector-curvature="0" />
  </g>
  <g
     id="Layer1001">
    <path
       d="m 182.2652,206.3395 33.591,9.5597 c -2.645,-73.5045 -8.1526,-73.1308 -33.591,-9.5597 z"
       style="fill:#ffb380;fill-rule:evenodd;stroke:#1b1918;stroke-width:0.5669;stroke-linecap:butt;stroke-linejoin:miter;stroke-dasharray:none;fill-opacity:1"
       id="path27"
       inkscape:connector-curvature="0" />
    <path
       d="m 224.5224,204.1226 c 2.2515,4.7522 -2.2077,8.4254 -8.6661,11.7765 -0.1383,-4.8302 -0.544,-9.663 -0.7929,-14.4683 l -1.991,-21.2859 c -0.3767,-4.0295 -1.311,-10.8392 -2.5353,-14.6501 -0.6052,-1.8847 -1.7686,-1.9329 -2.302,-3.6178 l 1.9187,3.4208 1.099,4.4065 5.1259,13.2956 z"
       style="fill:#ffb380;fill-rule:evenodd;stroke:#1b1918;stroke-width:0.5669;stroke-linecap:butt;stroke-linejoin:miter;stroke-dasharray:none;fill-opacity:1"
       id="path29"
       inkscape:connector-curvature="0" />
    <path
       d="m 182.2652,206.3395 1.6183,0.4607 c 24.2441,-61.0728 27.8101,-60.9478 30.3437,8.6354 l 1.6291,0.4635 c -3.2304,-69.9083 -6.4837,-76.5831 -33.5911,-9.5596 z"
       style="fill:#ffb380;fill-rule:evenodd;stroke:#1b1918;stroke-width:0.5669;stroke-linecap:butt;stroke-linejoin:miter;stroke-dasharray:none;fill-opacity:1"
       id="path31"
       inkscape:connector-curvature="0" />
    <path
       d="m 214.2272,215.4356 -30.3437,-8.6354 c 13.5099,-2.53 23.5939,-3.8262 29.8357,-3.9606 z"
       style="fill:#1b1918;fill-rule:evenodd;stroke:#1b1918;stroke-width:0.5669;stroke-linecap:butt;stroke-linejoin:miter;stroke-dasharray:none"
       id="path33"
       inkscape:connector-curvature="0" />
  </g>
  <path
     d="M 587.5458,174.6015 311.6295,257.3762 V 548.5667 L 587.5458,465.792 Z"
     style="fill:#ff8080;fill-rule:evenodd;stroke:#1b1918;stroke-width:0.56690001;stroke-linecap:butt;stroke-linejoin:miter;stroke-dasharray:none;fill-opacity:1"
     id="path36"
     inkscape:connector-curvature="0" />
</svg>
