<?xml version="1.0" encoding="UTF-8" standalone="no"?>
<svg
   xmlns:dc="http://purl.org/dc/elements/1.1/"
   xmlns:cc="http://creativecommons.org/ns#"
   xmlns:rdf="http://www.w3.org/1999/02/22-rdf-syntax-ns#"
   xmlns:svg="http://www.w3.org/2000/svg"
   xmlns="http://www.w3.org/2000/svg"
   xmlns:sodipodi="http://sodipodi.sourceforge.net/DTD/sodipodi-0.dtd"
   xmlns:inkscape="http://www.inkscape.org/namespaces/inkscape"
   version="1.1"
   width=""
   height=""
   id="svg4"
   viewBox="0 0 725.66931 725.66931"
   sodipodi:docname="switcher_mute.svg"
   inkscape:version="1.0 (4035a4fb49, 2020-05-01)">
  <metadata
     id="metadata10">
    <rdf:RDF>
      <cc:Work
         rdf:about="">
        <dc:format>image/svg+xml</dc:format>
        <dc:type
           rdf:resource="http://purl.org/dc/dcmitype/StillImage" />
        <dc:title />
      </cc:Work>
    </rdf:RDF>
  </metadata>
  <defs
     id="defs8" />
  <sodipodi:namedview
     inkscape:document-rotation="0"
     pagecolor="#ffffff"
     bordercolor="#666666"
     borderopacity="1"
     objecttolerance="10"
     gridtolerance="10"
     guidetolerance="10"
     inkscape:pageopacity="0"
     inkscape:pageshadow="2"
     inkscape:window-width="820"
     inkscape:window-height="480"
     id="namedview6"
     showgrid="false"
     inkscape:zoom="0.79650605"
     inkscape:cx="362.83466"
     inkscape:cy="362.83466"
     inkscape:window-x="0"
     inkscape:window-y="0"
     inkscape:window-maximized="0"
     inkscape:current-layer="svg4" />
  <path
     d="m 500.9596,398.8355 c 32.2883,0 60.3028,20.1121 71.4707,44.0286 14.1628,30.3304 8.5368,61.1101 -12.2425,87.0655 -4.6709,5.834 -14.5746,12.9926 -21.5807,16.9195 -20.3457,11.4029 -52.3611,11.6849 -73.1759,0.4478 -17.6646,-9.5366 -29.1792,-22.1167 -36.5536,-40.4464 -12.0795,-30.0251 -4.8053,-62.4739 17.8603,-85.2372 14.021,-14.0817 32.6956,-22.7778 54.2217,-22.7778 z m -387.5653,-74.4333 25.8302,8.82 c 127.3827,42.4472 291.1909,44.28 420.5055,8.8838 l 54.1627,-17.7038 c -12.9271,19.3051 -40.2429,50.3005 -59.0332,62.8832 -15.446,-13.4257 -41.8283,-14.1165 -61.5997,-14.1165 -35.7761,0 -74.0432,29.6308 -87.6427,61.2233 -2.2671,5.2667 -3.8302,11.1702 -6.0403,15.7762 -52.6899,0 -57.0513,6.2512 -120.909,-9.9904 -32.8125,-8.3455 -68.5554,-25.3477 -95.2342,-44.6486 -5.1194,-3.7037 -8.5141,-5.9184 -13.2789,-9.8209 -23.5601,-19.2982 -33.4936,-29.5007 -51.4324,-53.8007 -2.0228,-2.7397 -3.4982,-4.7732 -5.328,-7.5056 z M 257.127,208.9026 c 28.8488,0 43.039,3.9991 64.0018,20.6983 7.1013,5.6577 13.2398,10.9179 20.3142,16.9027 28.1452,23.8113 20.2918,18.9624 54.0955,-8.2726 23.5205,-18.9499 36.6588,-29.3284 72.0547,-29.3284 18.6441,0 32.3825,6.0049 44.5167,13.2333 l 106.9161,70.1832 -50.5905,18.7093 c -18.2413,5.2078 -35.7594,10.3116 -55.3785,13.9215 -102.8098,18.9161 -195.0132,18.3007 -297.7404,0.1964 -20.0413,-3.5319 -61.8979,-14.7466 -81.4031,-22.5467 -4.377,-1.7502 -8.6063,-3.403 -12.9847,-4.9819 -5.0774,-1.8306 -7.6986,-4.1409 -12.6677,-5.2986 l 104.4555,-68.794 c 10.0316,-6.7785 28.3745,-14.6225 44.4104,-14.6225 z M 68.478,292.3191 c 0,16.1366 28.0354,52.9524 39.4143,68.3853 7.7938,10.5713 29.1943,32.1817 39.4047,40.1618 53.7381,42.0004 104.7362,66.8594 176.7912,74.7414 l 71.6385,1.5109 c 0,55.9871 49.2753,105.2328 97.5331,105.2328 21.4064,0 36.7835,-0.3093 56.0605,-10.6722 57.5844,-30.9563 74.9951,-102.4922 40.3861,-152.5076 -3.7744,-5.4544 -8.1581,-9.8433 -11.7468,-15.2027 2.8465,-4.2512 4.2505,-4.0992 8.0096,-7.3902 2.8338,-2.4806 4.9816,-4.9587 7.7111,-7.689 29.2107,-29.2193 33.08,-34.2253 54.6168,-69.8661 21.1626,-35.0218 10.6024,-32.631 -19.0043,-52.3709 -12.3648,-8.244 -24.3712,-16.2465 -36.9613,-24.6391 l -27.947,-18.2522 c -4.0238,-2.9515 -5.8748,-3.9073 -10.0534,-6.63 -20.4517,-13.3254 -36.7101,-27.2415 -61.1487,-32.5344 -36.0674,-7.8117 -68.2367,-2.148 -97.9942,18.6342 -3.3894,2.3672 -7.7908,5.8637 -10.6878,8.562 l -20.8567,17.6428 c -21.1955,-14.1933 -28.8587,-32.5437 -69.012,-43.9208 -67.8623,-19.228 -108.1466,25.1266 -161.2455,57.496 l -51.3076,33.3921 c -5.6656,3.78 -13.6006,7.3142 -13.6006,15.9159 z M 481.71,477.1185 c -8.3264,12.4342 -25.2218,18.9947 -20.0874,32.8093 2.6206,7.0518 7.1748,8.2571 13.6707,8.2571 6.8249,0 22.0133,-16.3611 25.6663,-21.8166 8.7497,5.8589 17.9861,21.8166 29.5166,21.8166 5.8303,0 12.8335,-6.0965 12.8335,-11.5501 0,-9.4201 -4.2766,-11.361 -9.3036,-16.3627 -4.4716,-4.449 -9.1369,-8.1119 -12.5129,-13.1536 2.9707,-4.4365 14.9694,-13.1973 19.0323,-19.4845 6.2218,-9.6279 -3.6632,-35.337 -27.0592,-11.6422 -4.0881,4.1406 -7.8749,10.2971 -13.79,11.8769 l -10.8657,-12.2343 c -5.6878,-5.2745 -17.5425,-17.3552 -26.5941,-2.0347 -7.9569,13.4682 12.8939,23.6636 19.4935,33.5188 z"
     style="fill:#ffffff;fill-rule:evenodd"
     id="path2" />
</svg>
