<svg xmlns="http://www.w3.org/2000/svg" cursor="default" viewBox="0 0 256 256">
    <path fill="#ff7f2a" stroke="#000" stroke-width=".161" d="M145.56 151.65c-4.275 8.757-5.176 23.977 5.747 33.147 9.224 7.744 30.298 13.405 42.354-.591 6.504-7.552 6.749-29.412-8.59-38.713-11.196-6.789-33.924-5.287-39.51 6.157z" transform="matrix(1.0486 0 0 1.1241 -21.425 -25.606)"/>
    <path fill="#f95" d="M140.447 144.605c-4.483 9.912-.882 22.238 6.027 30.15 3.146 3.604 20.11 14.56 31.757 4.396 8.127-7.092 10.49-30.988-5.595-41.515-11.74-7.683-26.33-5.984-32.188 6.969z"/>
    <path fill="#fca" d="M155.988 151.777c1.815 5.848 6.87 10.995 11.515 13.233 2.116 1.019 10.805 2.402 11.093-5.23.202-5.324-6.75-17.467-15.032-18.846-6.046-1.006-9.948 3.2-7.577 10.843z"/>
    <path stroke="#000" stroke-width=".174" d="M149.16 133.8c-7.938 1.165-15.094 4.775-17.957 11.061-4.483 9.843-5.428 26.952 6.025 37.26 9.672 8.704 31.771 15.069 44.412-.664 6.218-7.739 6.972-28.842-5.13-40.432-3.159 1.87-8.06 2.348-13.156 1.728-5.313-.645-10.834-2.477-13.022-5.634-.698-1.008-1.054-2.152-1.171-3.319z" opacity=".75" transform="matrix(1.00002 0 0 1.00004 0 .001)"/>
    <path fill="#fca" d="M167.795 135.736c-.401-.229-1.266-.635-2.506-1.036s-2.854-.797-4.286-1a19.459 19.459 0 0 0-3.427-.183c-.745.032-.984.104-.775.466.21.36.863 1.003 1.759 1.394.896.39 2.032.526 3.146.552 1.114.026 2.209-.057 3.266-.052 1.056.006 2.078.1 2.62.12.542.02.604-.032.203-.26z"/>
    <path fill="#fff" d="M162.699 134.387c-.542-.057-1.417-.172-1.933-.136-.515.036-.672.224-.394.428s.983.422 1.951.536c.968.115 2.199.125 2.464-.02.266-.146-.433-.448-.885-.6-.453-.15-.662-.15-1.203-.208z"/>
    <path fill="#ff8080" stroke="#000" stroke-width=".15" d="M229.97 236.48c-2.78 7.756 7.853 15.907 13.707 9.592 7.333-7.91-1.025-16.094-8.024-14.801z"/>
    <path fill="#ff2a2a" d="M235.99 231.91c-.115 0-.115 0-.281.41-.167.411-.501 1.235-1.475 1.756-.683.366-1.674.58-2.494.787l-1.772 1.625c-.01.031-.018.063-.029.094-.01.328-.01.65.03.89.051.313.168.503.199.59.03.088-.022.076-.11.118-.088.04-.214.137-.38.37-.047.066-.101.146-.153.223-.287 6.934 8.871 13.001 14.15 7.307 1.42-1.532 2.246-3.073 2.613-4.555-.078.116-.161.233-.236.344-.676.999-1.177 1.644-1.822 2.17-.646.526-1.438.933-2.475 1.006-1.036.073-2.317-.187-3.328-.885-1.01-.698-1.75-1.832-2.094-2.703-.344-.871-.292-1.474-.047-2.14.245-.668.682-1.397.994-2.09.313-.694.5-1.35.542-2.032.041-.682-.063-1.39-.297-1.941-.235-.552-.6-.95-.895-1.147a1.063 1.063 0 0 0-.64-.197z"/>
    <path stroke="#000" stroke-width=".15" d="M234.09 232.71l-4.049 3.71c.044.368.108.75.215 1.052.193.542.515.77.64.91.126.14.053.193-.052.224a1.64 1.64 0 0 1-.4.047c-.163.005-.348.006-.463.2-.115.193-.157.575-.147.966.01.392.073.786.156 1.203.067.335.139.678.061.948 2.003 5.367 9.186 8.898 13.625 4.11.1-.108.186-.216.28-.323-.65.434-1.311.764-1.997.959-1.927.547-4.053.058-5.568-1.291-1.516-1.35-2.421-3.557-1.873-5.365.548-1.808 2.545-3.212 2.67-4.979.038-.54-.11-1.113-.301-1.691-.709.411-1.553.357-2.287-.19a3.317 3.317 0 0 1-.51-.49z" opacity=".5"/>
    <path fill="#ff8080" stroke="#000" stroke-width=".15" d="M191.32 198.37l39.186 38.644c4.35 3.078 8.37-2.418 5.56-5.288l-40.408-44.068z"/>
    <path fill="#ff2a2a" d="M195.66 187.66l-4.338 10.713 39.186 38.645a3.967 3.967 0 0 0 6.493-3.13c-.247.499-.89.698-1.334.749-1.031.117-1.298.585-5.467-3.039-4.17-3.624-11.027-10.157-15.477-14.842-2.41-2.84-9.076-9.638-7.452-13.422.311-.66.69-1.268 1.075-1.84z"/>
    <path fill="#ffe680" d="M208.72 201.91c2.019 4.026-3.244 8.36-6.93 6.793l26.063 25.702c3.431 2.429 8.078-1.582 5.92-5.17z"/>
    <path fill="#ffb380" stroke="#000" stroke-width=".25" d="M170.67 145.32c7.141-1.885 14.51-1.218 22.958.575 8.448 1.794 14.492 10.44 15.729 17.898 2.45 2.81 3.985 6.24 4.194 11.79.018 3.123-1.567 17.144-7.72 23.736-3.046 3.264-6.276 4.991-9.49 4.882 0 0 .137 31.23-16.272 33.356-16.41 2.125-18.734-5.656-24.949-11.932-12.736-.504-20.256-8.46-20.068-20.746.098-6.423 6.629-14.092 11.942-14.997 3.2-.546 3.07-1.808 4.312-3.086-19.938-17.26-37.28-35.642-52.88-54.348-3.953-.112-5.668-1.46-7.713-2.823-1.18-.786-2.455-2.854-2.712-4.203-.232-1.216-.378-2.441.542-3.661l.95-1.22C69.487 98.675 49.626 74.091 29.288 58.573l-3.525-7.322 14.102-23.186 15.322-7.186 5.017 1.898c1.348 3.891 3.837 8.725 7.186 13.56 14.452 20.857 29.741 37.906 48.814 54.914.256-.618 1.002-.974 1.899-.949 1.145.032 2.391.2 3.493.701 1.595.726 2.845 1.954 3.693 3.502 1.406 2.57 1.95 5.504 1.763 8.678 12.99 15.973 27.284 31.948 43.618 42.137z"/>
    <path fill="#ffd42a" d="M207.69 207.1c-1.519 1.581-3.926 2.432-5.893 1.596l26.062 25.7c1.8 1.275 3.927.769 5.239-.511l-25.396-26.781-.012-.004z"/>
    <path stroke="#000" stroke-width=".15" d="M195.66 187.66l-4.338 10.713 39.186 38.645c2.756 1.95 5.375.456 6.213-1.629-.423.277-.897.379-1.342.43-1.03.118-1.885.028-6.054-3.596-4.17-3.624-11.652-10.782-16.102-15.467-4.45-4.685-5.862-6.892-6.393-8.75-.53-1.857-.178-3.36.441-4.672.311-.659.69-1.268 1.075-1.84l-12.687-13.834z" opacity=".5"/>
    <path fill="#ffb380" stroke="#000" stroke-width=".25" d="M170.67 145.32c7.141-1.885 14.51-1.218 22.958.575 8.448 1.794 14.492 10.44 15.729 17.898 2.45 2.81 3.985 6.24 4.194 11.79.018 3.123-1.567 17.144-7.72 23.736-3.046 3.264-6.276 4.991-9.49 4.882 0 0 .137 31.23-16.272 33.356-16.41 2.125-18.734-5.656-24.949-11.932-12.736-.504-20.256-8.46-20.068-20.746.098-6.423 6.629-14.092 11.942-14.997 3.2-.546 3.07-1.808 4.312-3.086-19.938-17.26-37.28-35.642-52.88-54.348-3.953-.112-5.668-1.46-7.713-2.823-1.18-.786-2.455-2.854-2.712-4.203-.232-1.216-.378-2.441.542-3.661l.95-1.22C69.487 98.675 49.626 74.091 29.288 58.573l-3.525-7.322 14.102-23.186 15.322-7.186 5.017 1.898c1.348 3.891 3.837 8.725 7.186 13.56 14.452 20.857 29.741 37.906 48.814 54.914.256-.618 1.002-.974 1.899-.949 1.145.032 2.391.2 3.493.701 1.595.726 2.845 1.954 3.693 3.502 1.406 2.57 1.95 5.504 1.763 8.678 12.99 15.973 27.284 31.948 43.618 42.137z"/>
    <path fill="#ff7f2a" d="M59.318 29.148c-.34.075-.841 2.142-1.818 2.924-1.303 1.042-1.416 2.811-3.416 3.51-2.001.698-3.854 1.417-6.25 2.074-1.068.292-2.137.67-3.094 1.119-.98-1.678-2.739-3.28-4.785-4.674-.866-.59-1.771-1.161-2.586-1.928l-11.605 19.08 3.525 7.323c20.338 15.518 40.2 40.102 60.203 61.967l-.95 1.22c-.92 1.22-.774 2.445-.542 3.66.257 1.35 1.532 3.418 2.71 4.204 2.046 1.363 3.762 2.71 7.716 2.822 15.6 18.707 32.94 37.089 52.879 54.35-.785.807-1.025 1.607-1.899 2.225-.008.006-.019.01-.027.015-.137.095-.29.186-.463.272-.07.034-.15.065-.227.097a6.453 6.453 0 0 1-.75.264 9.28 9.28 0 0 1-.945.213c-.017.003-.035.01-.053.014-5.304.946-11.793 8.58-11.89 14.982-.086 5.567 1.423 10.235 4.275 13.73l-.006.013c.05.061.104.118.154.178l.125.145c.308.359.63.708.967 1.04.358.354.734.691 1.125 1.014l.057.045c3.352 2.747 7.87 4.363 13.37 4.58.106.107.204.217.307.324l.02.022c1.79 1.863 3.276 3.834 4.908 5.63.322.356.652.703.99 1.042l.09.09c.266.264.544.518.824.77.117.105.23.215.35.318.29.248.595.482.904.714.1.076.195.155.297.229.304.218.628.42.953.621.137.085.267.176.408.258.327.187.68.355 1.031.523.159.076.306.16.47.23.083.037.172.07.257.106.447.186.91.36 1.4.512.227.07.46.134.698.197.058.016.114.034.174.049.224.057.456.108.689.158.092.02.181.042.275.06.232.047.474.087.715.126.098.016.192.034.291.049.192.028.392.05.59.074.176.02.349.045.53.062.147.015.303.023.454.035.21.017.418.037.635.05.197.01.403.012.606.019.206.007.408.017.62.02h.05c.8.007 1.643-.018 2.535-.075h.01c.906-.058 1.86-.15 2.869-.281a12.84 12.84 0 0 0 1.154-.207c.11-.025.216-.055.324-.082.264-.067.525-.139.78-.221a12.24 12.24 0 0 0 1.09-.412c.096-.042.192-.083.287-.127.298-.138.59-.288.875-.447.027-.016.056-.03.084-.045a13.362 13.362 0 0 0 1.904-1.328c1.509-1.254 2.775-2.847 3.853-4.63 1.292-2.133 2.306-4.538 3.094-7.02.021-.06.042-.117.06-.177l-.015.024c1.222-3.896 1.916-7.932 2.297-11.254-.009.003-.016.01-.025.014.499-4.306.51-7.444.51-7.444 3.214.11 6.443-1.617 9.49-4.88 2.37-2.54 4.058-6.183 5.242-9.88-.692.907-1.222 1.705-1.912 2.684-1.07 1.518-2.574 3.502-4.043 4.732-1.47 1.23-2.91 1.71-4.283 2.077-1.374.367-2.682.624-3.594-.383-.912-1.007-1.424-3.275-1.6-5.082-.176-1.807-.016-3.15-.16-3.197-.144-.048-.59 1.199-.766 3.308-.176 2.11-.081 5.083.159 7.447s.623 4.123.687 6.024c.053 1.576-.128 3.277-.55 5.361-.453.741-.783 1.878-1.128 2.996-.719 2.333-1.517 4.54-2.619 6.553-1.102 2.013-2.51 3.835-4.78 5.369-2.268 1.534-5.4 2.781-8.98 3.229-6.15.433-12.328-1.273-14.254-7.303-1.432-4.547-.959-7.584-.01-9.805 1.157-2.703 2.328-5.525 5.233-7.347 2.513-1.577 3.686-1.54 6.894-2.15s6.058-1.606 7.866-2.872c1.807-1.266 2.575-2.803 2.734-3.435.159-.633-.294-.362-1.313.181-1.019.544-2.595 1.355-5.06 1.672s-5.808.137-7.363-.086c-1.556-.223-1.32-.487-.583-.619.738-.132 1.99-.131 3.922-.371 1.933-.24 4.556-.721 6.825-1.584s4.187-2.11 5.976-3.451c1.608-1.206 3.11-2.497 4.315-4.438 1.785-1.866 3.434-4.065 4.648-6.603 1.762-3.683 2.62-8.069 3.186-10.961.565-2.893.836-4.294 1.695-5.4.859-1.107 2.305-1.921 1.719-2.553-.587-.633-3.21-1.086-5.11-2.578-1.899-1.493-3.072-4.022-4.699-6.079s-3.707-3.638-7.074-4.835c-3.367-1.198-8.021-2.012-10.395-3.934-.58-.47-1.02-1.005-1.258-1.566-.078.009-.154.025-.232.035-.207 6.684.202 11.809 1.422 16.268 1.191 4.355 3.154 8.108 5.156 11.96-4.568-.766-10.003-.966-14.818-1.304-5.913-.415-10.866-1.054-14.27-1.246s-5.946-20.976-5.881-24.262c.12-6.157-7.711 1.86-8.832 6.889-4.138 18.562-11.734.594-16.064-4.008s-3.904-5.602-9.74-12.125c-.73-.816.112-6.338 2.808-10.461s4.764-11.91 4.235-10.881c-2.127 4.127-4.6 8.146-13.426 12.857-6.43 3.432-15.793.388-2.938-5.965 2.146-1.06 7.946-7.135 11.236-12.096 1.645-2.48 5.441-9.724 4.543-17.012-.167-1.355-.998-2.323-2.394-1.84 5.438 6.764-5.29 20.184-10.943 23.48-10.381 6.047-14.341-.32-15.086-1.153-.84-.925-7.465-8.69-8.242-9.553-6.468-7.198-6.723-7.574-12.824-14.535-6.102-6.96-12.25-13.65-17.266-18.758-5.017-5.107-8.904-8.633-9.989-12.34-1.084-3.707.967-7.47 1.944-10.666 1.222-3.998 3.642-5.018 6.828-6.781 2.812-1.552 4.497-2.67 6.334-4.334 3.333-3.02 3.25-7.803 3.23-8.365-.005-.14-.758.875-.87.9zm87.843 178.78c2.24-.395 2.75.583 3.367 2.44.665 2.005.652 3.697.541 5.779-.064 1.22-.188 2.458-1.499 2.742-.795.172-2.088.042-3.126-.695-.992-.703-2.774-3.14-2.836-6.126-.036-1.747 2.075-3.88 3.553-4.14z"/>
    <path fill="none" stroke="#000" stroke-linecap="round" stroke-linejoin="round" stroke-width=".25" d="M170.67 145.32c7.141-1.885 14.51-1.218 22.958.575s14.492 10.44 15.729 17.898c2.45 2.81 3.985 6.24 4.194 11.79.018 3.123-1.567 17.144-7.72 23.736-3.046 3.264-6.276 4.991-9.49 4.882 0 0 .137 31.23-16.272 33.356s-18.734-5.656-24.949-11.932c-12.736-.504-20.256-8.46-20.068-20.746.098-6.423 6.629-14.092 11.942-14.997 3.2-.546 3.07-1.808 4.312-3.086-19.938-17.26-37.28-35.642-52.88-54.348-3.953-.112-5.668-1.46-7.713-2.823-1.18-.786-2.455-2.854-2.712-4.203-.232-1.216-.378-2.441.542-3.661l.95-1.22C69.487 98.675 49.626 74.091 29.288 58.573l-3.525-7.322 14.102-23.186 15.322-7.186 5.017 1.898c1.348 3.891 3.837 8.725 7.186 13.56 14.452 20.857 29.741 37.906 48.814 54.914.256-.618 1.002-.974 1.899-.949 1.145.032 2.391.2 3.493.701 1.595.726 2.845 1.954 3.693 3.502 1.406 2.57 1.95 5.504 1.763 8.678 12.99 15.973 27.284 31.948 43.618 42.137z"/>
    <path d="M40.762 43.648c-.044-.018-.136.04-.297.191-.643.61-2.385 2.758-4.883 5.143-2.338 2.233-5.327 4.67-7.527 7.031l1.234 2.563c20.338 15.518 40.2 40.102 60.203 61.967l-.949 1.22c-.92 1.22-.775 2.445-.543 3.66.258 1.35 1.532 3.418 2.711 4.204 2.046 1.363 3.761 2.71 7.715 2.822 11.085 13.293 23.056 26.42 36.207 39.1l.682.654c3.228 3.1 6.528 6.172 9.904 9.213l.574.516a412.751 412.751 0 0 0 5.121 4.523v.002c.056.206.141.369.252.502-.02.023-.031.044-.05.067-.107.124-.22.25-.311.373l.033-.004c-.781 1.057-1.15 2.03-3.844 2.49-2.44.416-5.13 2.264-7.342 4.756-.322.362-.632.739-.931 1.127l-.026.03c-.281.367-.55.742-.806 1.126l-.094.142a20.24 20.24 0 0 0-1.291 2.28c-.051.107-.105.213-.154.32-.14.308-.265.617-.385.928-.053.137-.11.273-.158.41-.102.287-.185.575-.268.863-.043.15-.093.298-.13.447a12.51 12.51 0 0 0-.176.874c-.025.14-.061.283-.08.423-.06.427-.096.851-.102 1.27-.002.146.01.283.01.428v.004c-.003 12.036 7.475 19.817 20.059 20.314 6.215 6.276 8.54 14.057 24.949 11.932 5.73-.742 9.439-5.036 11.844-10.307-.759.92-3.963 5.625-4.985 6.185-7.908 4.34-13.06 4.493-19.746 1.469-7.5-3.393-9.64-8.753-10.27-10.51-.285-.799-1.764-6.655-1.455-7.188 0 0-.802 3.635-1.888 4.786-.377.399-.856.734-1.383.996-.712-.016-1.762-.05-3.074-.43a12.197 12.197 0 0 1-6.438-4.598c-1.842-2.593-2.962-6.361-2.195-9.765.766-3.404 3.418-6.439 6.262-7.322 2.843-.884 5.878.384 7.556 2.46 1.345 2.117 1.898 5.122 1.857 7.748-.028 1.798-.379 3.239-.447 3.84-.068.602-.024.261.18-.496a26.69 26.69 0 0 1 1.143-3.31c.576-1.38 1.367-2.96 2.644-4.383 1.277-1.424 3.04-2.69 5.424-3.57 2.384-.882 5.39-1.379 5.875-1.672.485-.294-1.55-.385-2.883-.6s-1.964-.554-1.795-1.232c.17-.68 1.14-1.696 3.514-2.588 2.373-.893 6.145-1.66 9.129-2.465 2.983-.806 5.173-1.65 6.267-2.07s1.095-.422 1.684-.758 1.719-1.058 3.123-2.326c1.959-1.77 4.37-4.122 5.365-6.385.798-1.815 1.814-4.587 2.469-7.383s.974-5.61 1.246-7.447.497-2.7.273-3.674c-.223-.974-.897-2.062-2.207-3.588-.9-1.049-2.103-2.307-4.668-2.256-1.165.023-2.611.319-4.439 1.025-5.848 2.261-15.596 8.749-22.1 13.398-6.504 4.65-9.762 7.462-11.553 9.643-.038.046-.067.09-.103.135-.037-.085-.057-.171-.102-.256-1.016-1.92-4.046-3.682-6.51-8.97-2.463-5.29-4.36-14.105-6.394-16.116s-4.204 2.78-6.713 4.272c-2.51 1.492-5.355-.315-8.565-3.117-3.209-2.803-6.78-6.6-10.012-10.26s-6.123-7.187-7.027-10.328c-.904-3.142 2.681-8.774 4.393-12.314-3.56 2.792-9.9 6.413-14.238 5.634-3.3-.992-5.23-1.956-7.196-4.46-.994-1.267-1.175-2.85-.632-3.663s1.808-.857 2.923-1 2.082-.383 3.123-.71a23.023 23.023 0 0 0 3.28-1.294 24.992 24.992 0 0 0 3.11-1.847c.87-.607 1.493-1.135 1.302-1.111-.191.023-1.2.6-2.615 1.183-1.416.584-3.235 1.175-4.97 1.295-1.734.12-3.378-.23-5.009-.99-1.63-.76-3.245-1.925-4.514-2.957-1.269-1.032-2.193-1.93-3.469-3.463-1.275-1.534-2.902-3.703-4.732-6.02a232.149 232.149 0 0 0-5.48-6.668c-1.616-1.887-2.813-3.195-5.547-6.156-2.735-2.96-7.008-7.571-11.46-12.182-4.451-4.61-9.083-9.221-12.325-12.87-3.243-3.65-5.096-6.34-5.944-8.803-.847-2.464-.69-4.701-.328-6.52.362-1.819.927-3.22 1.22-4.508.294-1.287.316-2.463.554-3.513.178-.788.476-1.508.343-1.561z" opacity=".5"/>
    <path fill="#ff7f2a" d="M150.55 188.8c-.343.49-1.072 1.219-2.115 1.677-1.042.46-2.395.647-3.74 1.366-1.343.718-2.676 1.967-3.874 3.447-1.199 1.48-2.26 3.187-3.115 4.875s-1.5 3.354-1.833 3.739c-.334.385-.355-.51-.178-1.437.178-.927.553-1.886.99-2.823.438-.937.938-1.855 1.49-2.677a18.34 18.34 0 0 1 1.813-2.26 22.912 22.912 0 0 1 2.062-1.98 14.206 14.206 0 0 1 2.042-1.437c.656-.375 1.282-.646 2.03-.875s1.627-.416 2.303-.656 1.157-.532 1.521-.865c.364-.333.615-.709.76-.772.145-.062.187.188-.156.678z"/>
    <path fill="#ffb380" d="M16.713 34.632c-2.22 6.868-3.103 16.104 1.635 21.15 3.152 2.182 6.917 3.267 13.388 1.366 2.684-.984 5.369-5.94 8.054-10.067 5.706-8.907 17.492-5.976 22.436-23.107.394-4.492-1.041-12.182-9.57-12.846-.74-.058-1.459-.344-2.338-.916-4.881-3.18-8.897-2.296-10.75-1.623-2.34.849-4.416 1.94-6.65 3.386-2.777.836-5.24 2.539-7.326 4.296-2.122 1.787-4.392 4.446-6.051 7.379-1.48 2.615-2.36 4.813-2.828 10.983z"/>
    <path fill="#ff7f2a" d="M184.27 157.12l-8.545 23.764-22.373.137-7.11 6.771c10.668 4.855 26.005 6.043 35.659-5.166 4.24-4.922 5.856-15.82 2.369-25.506z"/>
    <path d="M184.27 157.12l-8.545 23.764-22.373.137-7.11 6.771c10.668 4.855 26.005 6.043 35.659-5.166 4.24-4.922 5.856-15.82 2.369-25.506z" opacity=".75"/>
    <path fill="#fff" d="M143.29 192.34c-.776.68-2.326 2.037-3.437 3.408s-1.776 2.75-2.115 3.162c-.34.411-.35-.146.161-1.149.511-1.002 1.542-2.45 2.657-3.541 1.115-1.091 2.313-1.825 2.911-2.192.599-.367.599-.367-.177.312z"/>
    <path fill="#ff7f2a" stroke="#000" stroke-width=".1739927" d="M141.33 148.324c-4.62 9.464-5.593 25.912 6.211 35.822 9.968 8.369 32.743 14.487 45.772-.64 7.03-8.16 7.294-31.785-9.284-41.836-12.098-7.336-36.66-5.713-42.698 6.654z"/>
    <path stroke="#000" stroke-width=".1739927" d="M141.33 148.324c-4.62 9.464-5.593 25.912 6.211 35.822 9.968 8.369 32.743 14.487 45.772-.64 7.03-8.16 7.294-31.785-9.284-41.836-12.098-7.336-36.66-5.713-42.698 6.654z" opacity=".5"/>
    <path fill="#ff7f2a" d="M142.357 147.935c-3.891 10.044-4.15 23.675 7.871 33.767 10.15 8.522 33.357 13.641 42.42 1.356 6.513-8.826 8.011-32.084-8.87-42.32-12.321-7.47-36.357-5.872-41.42 7.197z"/>
    <path fill="#ffb380" d="M150.852 148.324c-4.62 9.464-.91 21.234 6.21 28.789 3.243 3.44 20.727 13.901 32.73 4.196 8.376-6.771 10.81-29.587-5.767-39.639-12.098-7.336-27.135-5.713-33.173 6.655z"/>
    <path fill="#ffb380" d="M155.64 155.09c.212 8.917 6.907 17.14 14.425 20.978 3.424 1.748 19.02 4.75 23.74-6.599 3.294-7.92-3.138-26.779-17.97-29.731-10.827-2.155-20.475 3.697-20.197 15.351z"/>
    <path fill="#ffe6d5" d="M183.77 166.21c-2.188-.75-4.605-3.792-8.625-6.875s-9.646-6.208-11.125-9.188c-1.479-2.98 1.188-5.813 5.645-6s10.709 2.272 14.375 6c3.666 3.729 4.75 8.73 4.313 12-.437 3.271-2.395 4.813-4.583 4.063z"/>
    <path fill="#ffb380" d="M148.896 160.968c-.04-1.48-.118-4.44-.16-7.525-.041-3.084-.046-6.294-.231-8.333-.185-2.038-.55-2.907-1.497-2.731-.948.176-2.482 1.397-3.758 2.144-1.277.747-2.294 1.02-1.875-.357s2.27-4.394 5.29-5.864 7.212-1.39 8.916-1.28c1.704.108.921.247.472.664s-.565 1.117.264 1.332c.83.216 2.598-.052 4.279-.375 1.68-.322 3.27-.7 4.807-.592 1.538.107 3.04.707 1.913 2.279-1.128 1.572-4.88 4.122-7.391 8.908-2.512 4.786-3.782 11.805-5.022 15.456s-2.45 3.933-3.44 2.997c-.99-.937-1.76-3.09-2.144-4.166-.385-1.076-.385-1.076-.424-2.557z"/>
    <path fill="#ff7f2a" d="M132.058 174.974c1.202 2.051 3.118 4.486 5.285 6.436 2.166 1.95 4.58 3.415 6.564 4.43s3.537 1.584 3.77 1.436c.233-.149-.853-1.013-2.185-2.183-1.333-1.17-2.91-2.645-4.913-4.57-2.001-1.925-4.425-4.3-6.277-6.195-1.853-1.896-3.133-3.314-3.531-3.19-.399.122.086 1.785 1.287 3.836z"/>
    <path fill="#fff" d="M133.539 176.66c-.033.195.634 1.466 1.644 2.727 1.011 1.26 2.365 2.51 3.683 3.505 1.318.995 2.599 1.735 2.454 1.433-.145-.303-1.716-1.646-3-2.837s-2.285-2.227-3.15-3.185c-.866-.958-1.598-1.838-1.631-1.643zM186.126 156.213c-.175-.598-.524-1.795-1.655-3-1.13-1.205-3.045-2.42-4.684-2.789-1.638-.368-3 .11-2.688 1.542.312 1.432 2.297 3.813 4.102 5.355 1.804 1.542 3.427 2.244 4.246 2.02.82-.225.836-1.378.845-1.954.008-.575.008-.575-.166-1.174z"/>
    <g fill="#ffe6d5">
        <path d="M189.32 209.52c.885.325 1.605 1.944 1.128 4.655-.476 2.71-2.148 6.51-4.692 8.843-2.544 2.334-5.958 3.2-8.02 2.167-2.06-1.033-2.768-3.962-2.207-6.248.562-2.286 2.392-3.93 4.403-5.122 2.011-1.192 4.205-1.935 5.827-2.792 1.623-.857 2.676-1.828 3.561-1.503zM147.59 210.61c.328.343.516 1.555.995 2.87.48 1.316 1.25 2.734 1.258 3.54.008.808-.748 1.003-1.584.84-.837-.165-1.752-.688-2.317-1.554-.564-.865-.776-2.07-.653-2.959s.58-1.458 1.042-2.006.931-1.074 1.259-.731zM208.9 169.42c-1.07-.767-2.636-.767-3.771 1.04-1.135 1.806-1.838 5.415-1.758 8.74.08 3.324.942 6.36 2.125 6.742 1.183.383 2.685-1.885 3.676-4.441s1.47-5.402 1.422-7.59c-.048-2.19-.624-3.724-1.694-4.491z"/>
    </g>
    <path fill="#fff" d="M201.63 153.12c-.895-1.246-2.077-2.493-3.355-3.324-1.278-.83-2.653-1.246-3.148-1.054-.496.191-.113.99.719 1.806.831.815 2.109 1.646 3.132 2.636s1.79 2.141 2.54 2.78c.752.64 1.487.768 1.551.209.064-.56-.544-1.807-1.439-3.053z"/>
    <path fill="#f95" d="M45.313 55.755c.306 4.54 3.562 7.82 8.502 13.315 4.941 5.495 11.53 13.161 17.472 19.791 5.943 6.63 11.218 12.201 15.66 16.092s8.048 6.102 8.298 4.937-2.857-5.703-6.23-10.627C85.64 94.34 81.996 89.032 75.1 82.117c-6.897-6.915-17.047-15.436-21.722-22.785-4.675-7.35-3.873-13.522-4.796-13.714-.924-.192-3.574 5.598-3.269 10.137z"/>
    <path fill="none" stroke="#000" stroke-width=".15" d="M116.2 91.254c9.086 6.255-13.97 38.031-26.711 29.289"/>
    <g>
        <path fill="#fff" d="M123 93.102c-.4-.096-1.198-.288-1.614.16-.416.447-.448 1.533-.064 2.476.384.944 1.182 1.742 1.566 2.717.383.974.351 2.124.575 2.828.224.704.703.96 1.199.48.495-.48 1.007-1.695 1.007-2.94 0-1.246-.512-2.526-.976-3.468a14.168 14.168 0 0 0-1.086-1.854c-.208-.303-.208-.303-.607-.399zM124.04 105.34c-.094-.041-.28.094-.502.34-.481.533-1.216 1.72-2.223 3.283-.132.256-.247.5-.257.686-.02.343.327.483.77.062.33-.315.716-.944.993-1.19.223-.42.462-.862.621-1.195.65-1.357.754-1.917.598-1.986zm-9.252 13.09c-.334-.053-.896.034-1.426.258-.116.05-.216.116-.328.176l-.135.117c-1.135.886-1.364 1-2.658 2.135-1.294 1.133-2.123 2.475-2.107 3.068.015.593.878.433 2.588-.734.956-.653 2.188-1.662 3.515-2.95.194-.254.403-.516.56-.728.341-.457.444-.681.44-.889-.004-.208-.115-.4-.449-.453z"/>
        <path fill="#f95" d="M115.15 131.09c-.543.048.208 1.646 1.04 3.285.831 1.64 1.74 3.314 3.882 6.175 2.142 2.862 5.513 6.903 8.59 9.559 3.076 2.655 5.857 3.922 6.4 3.482.543-.44-1.152-2.585-2.941-4.433-1.79-1.848-3.676-3.398-5.354-5.092-1.678-1.694-3.148-3.532-4.346-5.226-1.199-1.694-2.126-3.244-3.508-4.77-1.382-1.525-3.22-3.028-3.763-2.98z"/>
        <path fill="#fca" d="M126.11 150.89c.101.678.756 2.011 1.74 2.824.984.814 2.186 1.082 2.694.89.508-.193.268-.858-.461-1.675-.73-.818-1.95-1.79-2.786-2.265-.836-.474-1.288-.452-1.187.226z"/>
        <path fill="#ffe6d5" d="M131.72 113.87c1.518 2.596 1.822 3.523 1.99 5.234.167 1.71.2 4.202-.552 5.209-.75 1.007-2.283.528-4.218.064-1.934-.463-4.265-.91-5.05-.127-.783.783-.016 2.795 1.967 4.324 1.983 1.528 5.179 2.57 7.192 4.854 2.013 2.285 2.843 5.813 4.185 6.85 1.343 1.037 3.196-.417 3.372-2.327.175-1.909-1.327-4.274-1.679-6.152-.35-1.878.448-3.268 1.886-3.58 1.439-.31 3.516.457 6.743 2.454 3.227 1.996 7.604 5.223 7.067 4.237-.536-.986-5.977-6.176-9.774-9.959-3.797-3.783-5.926-6.135-9.001-9.6-3.075-3.464-7.093-8.037-7.736-8.19-.642-.154 2.09 4.112 3.608 6.709z"/>
        <path fill="#fff" d="M144.39 125.76c-1.502-1.47-3.244-3.26-4.546-4.474-1.303-1.215-2.165-1.854-2.445-1.31-.28.542.024 2.268.871 3.467.848 1.199 2.237 1.87 3.508 2.469 1.27.6 2.42 1.127 3.507 1.718 1.086.59 2.11 1.246 1.99.999-.12-.248-1.383-1.399-2.885-2.869z"/>
        <path fill="#ffe6d5" d="M104.65 84.113c2.022 1.435 4.719 4.045 6.002 6.937 1.283 2.892 1.153 6.067-.457 8.372-1.609 2.306-4.696 3.74-6.763 3.436-2.067-.305-3.11-2.348-2.762-4.393.348-2.044 2.089-4.089 2.197-6.806.109-2.717-1.414-6.111-1.5-7.677-.087-1.565 1.261-1.304 3.283.13z"/>
    </g>
    <g>
        <path fill="#ff7f2a" d="M42.842 14.402a9.1 9.1 0 0 0-.797.06c-2.271.272-5.75 1.447-8.61 3.221-2.859 1.774-5.096 4.146-6.34 6.541-1.242 2.396-1.49 4.813-2.235 6.43-.746 1.617-1.99 2.43-2.961 3.412-.972.983-1.671 2.135-1.92 3.516-.178.982.143 2.029-.112 3.054-.177.715-.396 1.53-.55 1.63-1.006.644-1.44-.956-1.678-2.561-.237-1.606-.125-4.384.191-7.016.317-2.632.838-5.12 2.024-8.283.41-1.096.87-2.215 1.289-3.248a27.617 27.617 0 0 0-1.602 2.49c-1.479 2.615-2.36 4.815-2.828 10.984-2.22 6.868-3.103 16.103 1.635 21.148 3.153 2.183 6.918 3.267 13.389 1.365 2.685-.984 5.368-5.938 8.053-10.066 5.706-8.906 17.492-5.975 22.436-23.107.061-.7.07-1.484.023-2.302-.117-.467-.256-.898-.428-1.229-.364-.703-.812-1.044-1.232-.99a.798.798 0 0 0-.406.187c-.52.43-.927 1.581-1.063 2.723-.136 1.142 0 2.27-.611 4.033-.61 1.764-1.966 4.159-3.785 6.125-1.82 1.967-4.1 3.502-6.416 4.825a61.69 61.69 0 0 1-3.795 1.978c-.788.45-1.578.945-2.297 1.512-1.514 1.193-2.789 2.782-4.287 4.78-1.498 2-3.374 4.6-5.361 6.329-1.988 1.728-4.092 2.588-6.34 2.713-2.249.124-5.392-.518-6.682-1.332-1.29-.814-1.283-3.734-.932-4.14.175-.204.622 2.088 1.494 2.449.359.148.424-1.563 1.778-1.163 5.731 1.696 8.114.195 10.85-2.421.928-.902 1.722-2.04 2.359-3.258a20.514 20.514 0 0 0 1.322-3.19c.2-.658.112-.664-.156-.256-.267.409-.704 1.218-1.404 2.18-.7.962-1.658 2.064-2.819 3.037-1.16.973-2.522 1.812-3.879 2.36a13.538 13.538 0 0 1-3.677.894c-.32.03-.544.033-.79.043-.43-.124-.767-.236-.937-.406-.363-.365-.484-.606-.72-1.149-.156-.357-.441-1.447-.46-2.093.234-.402 1.715-.74 1.727-.743 1.086-.328 2.283-.677 4.069-2.203 1.785-1.525 3.75-3.516 4.834-5.945 1.084-2.43 1.288-5.299 3.683-8.857 2.395-3.559 6.984-7.808 9.108-10.09 2.123-2.282 1.786-2.6 1.085-3.075-.612-.415-1.503-.95-3.238-.896z"/>
        <path stroke="#000" stroke-width=".15" d="M27.809 28.076c-.321-.019-.72.444-1.023.844-.486.64-.74 1.139-.873 1.502s-.163.63-.325.998c-.161.368-.455.839-.578 1.511-.123.673-.074 1.548-.334 2.696-.26 1.148-.831 2.582-1.398 3.451-.567.87-1.14 1.195-1.514 1.6-.373.405-.55.892-.705 1.591-.155.7-.288 1.615-.611 2.387-.324.773-.847 1.414-1.283 1.533-.437.12-.8-.265-1.014-.554-.215-.29-.279-.479-.408-.918-.13-.44-.325-1.128-.49-1.866a26.823 26.823 0 0 1-.4-2.22c-.094-.7-.146-1.315-.177-2.024-.03-.708-.04-1.509-.023-2.261.014-.678.046-1.261.056-1.698-2.216 6.867-3.096 16.091 1.64 21.133 3.152 2.183 6.917 3.267 13.388 1.366.187-.069.374-.16.56-.266-1.806.243-5.45.49-6.48.344-1.239-.193-2.574-.236-4.197-.924-4.037-1.713-4.239-4.568-4.242-5.969-.003-1.093 1.622-2.82 1.982-2.363.36.456.262 1.995.469 2.195.207.2.59-1.255.842-1.498.25-.243.448.285 1.142.846.504.407 1.803.735 2.178.771.235.023.146-.16-.041-.437-.08.003-.178.01-.258.013-.43-.124-.768-.236-.937-.406-.363-.364-.485-.605-.721-1.148-.155-.358-.441-1.447-.46-2.094.234-.402 1.716-.739 1.727-.742.427-.13.884-.283 1.373-.489a5.44 5.44 0 0 0 .53-.675c1.058-1.612 1.997-4.598 2.564-7.766s.764-6.52.498-7.79c-.1-.478-.264-.662-.457-.673z" opacity=".5"/>
        <path fill="#ffb380" stroke="#000" stroke-linecap="round" stroke-linejoin="round" stroke-width=".15" d="M22.881 43.356c-1.027-.957-1.441-1.944-2.271-3.661-.037-.977.143-2.336.61-3.288.715-1.457.864-2.083 2.712-3.322 1.913.245 3.093 1.102 4.508 1.763l-.915 5.695z"/>
        <path fill="#ff7f2a" d="M26.115 33.711c-.098.156-.2.319-.27.492-.184.457-.22.883-.246 1.551-.025.668-.04 1.572-.203 2.35-.162.777-.47 1.424-.937 1.896-.468.472-1.094.766-1.621.711-.528-.055-.954-.46-1.223-.693-.269-.234-.38-.298-.174-.409.206-.11.726-.265 1.252-.755s1.057-1.312 1.36-2.12c.302-.807.373-1.598.347-2.078-.026-.479-.15-.647-.347-.652-.197-.005-.468.152-.604.23-.136.079-.137.079-.148.135-.011.057-.032.17.08.235.112.065.351.08.472.302.121.224.123.661.086 1.026-.037.365-.11.659-.394.972-.284.314-.777.644-1.143.721-.365.078-.6-.099-.724-.361-.126-.262-.14-.608-.159-.924-.01-.18-.027-.336-.08-.385-.072.151-.134.28-.219.451-.467.952-.648 2.312-.61 3.29.711 1.472 1.14 2.401 1.89 3.242.191.086.388.158.592.2.042.01.086.006.128.013l3.01-1.823c.416-.856.694-1.941.817-3.007.169-1.473.052-2.902-.055-3.819-.022-.19-.048-.269-.07-.416-.26-.132-.531-.256-.807-.375z"/>
        <path fill="#ffb380" d="M22.034 48.305c-.36-1.198-.956-2.477-.475-4.61.326-1.444.734-.967 1.542-1.537.809-.57 2.26-1.169 2.73-2.667 1.119-3.572-.48-2.36.474-9.186.533-3.816 3.017-7.168 6.373-10.169 8.546-7.644 14.64-6.48 18.305-3.864 6.29 4.486 3.787 10.658.068 14.915-4.359 4.988-7.658 3.19-13.153 8.881"/>
    </g>
    <g fill="none" stroke="#000" stroke-width=".15">
        <path stroke-linecap="round" stroke-linejoin="round" d="M22.881 43.356c-1.027-.957-1.441-1.944-2.271-3.661-.037-.977.143-2.336.61-3.288.715-1.457.864-2.083 2.712-3.322 1.913.245 3.093 1.102 4.508 1.763l-.915 5.695z"/>
        <path d="M16.713 34.632c-2.22 6.868-3.103 16.104 1.635 21.15 3.152 2.182 6.917 3.267 13.388 1.366 2.684-.984 5.369-5.94 8.054-10.067 5.706-8.907 17.492-5.976 22.436-23.107.394-4.492-1.041-12.182-9.57-12.846-.74-.058-1.459-.344-2.338-.916-4.881-3.18-8.897-2.296-10.75-1.623-2.34.849-4.416 1.94-6.65 3.386-2.777.836-5.24 2.539-7.326 4.296-2.122 1.787-4.392 4.446-6.051 7.379-1.48 2.615-2.36 4.813-2.828 10.983z"/>
        <path stroke-linecap="round" stroke-linejoin="round" d="M45.878 13.498c-1.286-.773-2.761-1.445-4.77-1.75-3.663-.555-6.185-.337-8.19.226M18.001 45.536c-.62-1.78-1.72-5.108-1.288-10.904"/>
    </g>
    <g>
        <path fill="#fca" d="M89.979 109.25c.813.125 2.604 1.25 4.021 1.938 1.417.687 2.459.938 3.875.958 1.416.021 3.21-.187 3.688.437s-.354 2.083-1.939 2.583c-1.584.5-3.915.043-5.728-.832-1.813-.876-3.105-2.167-3.834-3.25-.73-1.084-.896-1.96-.083-1.834z"/>
        <path fill="#ffe6d5" d="M90.311 67.772c-2.604-2.038-5.871-1.194-5.223.66.4 1.147 1.092 2.438-.89 3.417-2.194-.093-6.437-2.157-7.997-2.63-1.56-.474-3.156-.66-2.946-.127.21.533 1.388 2.13 2.685 3.529 1.611 1.296 2.72 2.737 3.904 3.788 1.118.995 3.465 5.044 3.898 5.21.641.248.87-5.768 1.323-6.562 1.146-.473 2.632-.245 4.163-.241 2.09.004 3.687.679 5.01.612 1.321-.066 2.365-.875 1.346-2.31-2.31-2.258-2.919-3.504-5.273-5.346z"/>
        <path fill="#fca" d="M79.442 53.873c-1.618-1.827-3.328-3.632-4.787-3.696-1.46-.064-2.669 1.612-3.044 3.13-.375 1.518.086 2.873 1.38 3.69 1.292.817 3.415 1.094 5.407 1.405 1.993.31 3.856.654 4.023-.1.167-.753-1.36-2.602-2.979-4.429z"/>
        <path fill="#fff" d="M107.14 89.836c-.339.273-.84.553-.965 1.69-.126 1.136.124 3.12.722 3.834s1.54.155 1.753-1.11c.213-1.266-.303-3.243-.649-4.097s-.522-.59-.861-.317zM92.881 72.27c-.412-.648-1.149-1.31-1.907-1.282-.758.03-1.54.751-1.126 1.4.414.65 2.017 1.223 2.775 1.193.759-.03.67-.663.258-1.311z"/>
        <path fill="#f95" d="M36.934 38.847c-3.034 3.86-3.771 5.542-4.521 6.496-.923 1.175-2.126 2.42-3.538 2.907-.946.327-2.578.151-3.563-.03-1.442-.361-2.09-.712-2.475-1.915-.319-.999-.063-2.112.704-2.775.767-.663 2.267-.957 3.328-1.518a4.225 4.225 0 0 0 2.02-2.254c.338-.87.398-1.784.324-3.375-.074-1.59-.28-3.856-.059-5.654.221-1.798.869-3.124 1.826-4.922s2.226-4.065 4.465-6.01c2.24-1.944 5.449-3.564 8.086-4.33 1.891-.549 4.06.441 4.707-.611-.347-.167-2.218-.665-3.463-.568-3.26.035-7.29 1.547-12.098 5.847-3.356 3.002-5.84 6.354-6.373 10.17-.953 6.826.645 5.615-.474 9.188-.47 1.498-1.92 2.096-2.729 2.666-.808.57-1.217.093-1.543 1.537-.481 2.133.084 3.42.475 4.61.137.416.352.808.72 1.148.386.356 1.44.818 2.355.857 1.155.05 2.72-.088 3.954-.592 1.595-.651 2.98-1.802 4.188-3.03 1.557-1.586 2.63-4.555 4.648-6.62a18.85 18.85 0 0 1 4.295-3.404 55.407 55.407 0 0 1 4.29-2.005c1.446-.587 2.757-1.659 4.027-2.882 1.589-1.714 2.957-3.598 3.78-5.905.635-1.993.65-3.429.356-4.588-.17 1.778-.36 3.496-1.017 4.596-1.348 2.258-2.919 4.19-4.486 5.282-2.725 1.898-5.117 3.287-7.667 4.397-2.268.987-3.546 2.02-4.542 3.287z"/>
    </g>
    <path fill="none" stroke="#000" stroke-linecap="round" stroke-linejoin="round" stroke-width=".15" d="M22.034 48.305c-.36-1.198-.956-2.477-.475-4.61.326-1.444.734-.967 1.542-1.537.809-.57 2.26-1.169 2.73-2.667 1.119-3.572-.48-2.36.474-9.186.533-3.816 3.017-7.168 6.373-10.169 8.546-7.644 14.64-6.48 18.305-3.864 6.29 4.486 3.787 10.658.068 14.915-4.359 4.988-7.658 3.19-13.153 8.881"/>
    <g fill="#ffe6d5">
        <path d="M50.882 20.246c-.56-1.554-1.768-2.467-3.94-2.585-2.173-.118-5.31.56-7.675 2.305-2.365 1.746-3.956 4.559-4.928 7.918-.973 3.36-1.326 7.262-.162 7.998 1.165.737 3.845-1.693 6.946-3.836 3.1-2.143 6.622-4 8.426-6.025 1.804-2.026 1.893-4.221 1.333-5.775zM36.594 13.138c-.206.544-1.208 1.428-2.962 2.57-1.754 1.143-4.256 2.541-5.98 4.45-1.724 1.907-2.667 4.322-3.595 5.177s-1.841.148-1.708-1.326c.132-1.474 1.31-3.712 2.283-5.215s1.739-2.268 2.857-3.093c1.12-.824 2.594-1.709 4.008-2.305 1.413-.596 2.77-.906 3.742-.958.971-.05 1.561.155 1.355.7zM29.616 41.48c.778-.386 1.598-.46 2.096-.166.497.294.674.959.387 1.74-.287.78-1.036 1.675-2.1 2.3-1.062.626-2.436.98-2.944.635s-.08-1.584.484-2.503c.564-.92 1.3-1.62 2.077-2.006z"/>
        <path d="M48.616 12.76c.594-.281 1.49-.677 2.504-.919s2.244-.338 3.452-.016c1.207.323 2.443 1.062 3.342 1.827.898.764 1.461 1.556 1.586 2.608s-.187 2.364-.635 3.792-1.03 2.968-1.5 4.448c-.469 1.48-.823 2.895-1.75 4.427s-2.426 3.176-3.708 4.333c-1.281 1.157-2.343 1.823-2.457 1.666-.115-.157.718-1.135 1.54-2.041.823-.906 1.636-1.74 2.365-2.687.729-.948 1.375-2.011 1.823-3.188s.697-2.47.729-4.02c.03-1.552-.157-3.366-.73-4.803a7.185 7.185 0 0 0-2.5-3.187c-.968-.687-1.947-1-2.822-1.208-.875-.208-1.646-.313-1.885-.448-.24-.136.052-.303.646-.584zM44.428 8.802c.844.136 2.115.386 3.051.76a6.136 6.136 0 0 1 1.917 1.22c.375.343.52.53.26.77s-.926.53-1.624.656c-.699.125-1.427.084-2.063-.271-.636-.355-1.177-1.02-1.791-1.458-.615-.437-1.302-.645-1.552-.917s-.063-.605.239-.76c.301-.156.72-.135 1.563 0z"/>
    </g>
    <g fill="#fff">
        <path d="M55.907 13.531c-.656-.177-1.469-.448-1.907-.386-.437.062-.5.458-.082 1.022.418.564 1.311 1.291 1.842 2.353.532 1.062.698 2.458.782 3.635.083 1.178.083 2.135.407 1.968.323-.168.968-1.458 1.385-2.707.416-1.25.604-2.46.437-3.375s-.688-1.541-1.198-1.895c-.51-.355-1.01-.438-1.666-.615zM47.47 19.552c-.906-.052-2.156.01-3.594.958-1.438.949-3.062 2.78-4.01 4.656-.949 1.875-1.22 3.791-.218 4.333 1 .542 3.27-.291 5.082-1.447 1.812-1.157 3.167-2.637 3.885-4.042.719-1.406.802-2.74.563-3.49-.239-.749-.802-.916-1.708-.968zM32.49 14.135c-.718.052-2.072.74-2.75 1.427-.678.688-.678 1.375.043 1.322.72-.052 2.156-.843 2.832-1.53.677-.687.593-1.271-.125-1.22zM47.272 10.229c-.375 0-.854-.02-.99.209-.136.229.072.707.552.874.48.167 1.23.021 1.5-.218.27-.24.062-.574-.177-.73-.239-.156-.51-.135-.885-.135z"/>
    </g>
    <path fill="#ffe6d5" d="M37.102 42.902c.45-.582.833-.758 1.126-.597.294.161.5.664.339 1.305-.162.64-.692 1.42-1.562 2.512-.87 1.09-2.076 2.488-3.358 3.608s-2.636 1.96-3.263 2.047-.523-.574.102-1.266 1.777-1.414 2.72-2.261c.942-.847 1.679-1.82 2.305-2.8.625-.978 1.141-1.966 1.591-2.548z"/>
    <path fill="#fff" d="M30.458 42.188c-.169.088-.508.265-.67.604-.163.34-.148.839.074 1.03.222.192.648.075.957-.198.309-.272.5-.7.45-.98-.052-.278-.347-.411-.495-.478-.147-.066-.147-.066-.316.022z"/>
    <path fill="none" stroke="#000" stroke-width=".15" d="M23.312 34.312c.272-.157.543-.313.74-.308.197.005.322.172.349.652.026.479-.047 1.27-.35 2.077s-.832 1.63-1.358 2.12c-.526.49-1.046.646-1.307.536s-.261-.484-.261-.858"/>
    <g>
        <path fill="#fff" d="M24.139 33.354c-.065.026-.195.078-.145.149.05.071.278.159.452.242.174.083.294.161.33.501.037.34-.01.946-.15 1.595-.141.649-.375 1.34-.703 1.911-.329.57-.75 1.018-.754 1.09-.005.073.405-.228.759-.694.353-.465.651-1.097.838-1.747s.266-1.324.297-1.816c.031-.492.015-.805-.088-.986s-.297-.234-.44-.258a1.213 1.213 0 0 0-.284-.015c-.047.002-.048.002-.112.028z"/>
        <path fill="#fca" d="M22.771 34.299c-.01.003-.03.008-.146.142-.115.134-.302.37-.458.657-.157.287-.271.609-.229.619.042.01.24-.291.434-.575.195-.283.389-.55.592-.76.202-.21.417-.368.389-.373-.028-.006-.3.141-.436.214-.136.074-.136.074-.146.076z"/>
        <path fill="#fff" d="M24.862 37.52c-.09.239-.273.718-.61 1.125-.336.407-.824.74-.973.977s.044.378.346.266c.303-.113.714-.478 1.005-.998.291-.52.464-1.199.547-1.68.083-.482.078-.769.026-.725-.052.044-.15.42-.2.608-.05.188-.05.188-.141.427zM237.91 231.66c-.28-.074-.5-.088-.523.067-.022.155.154.478.412.883s.596.891.803 1.473c.206.582.28 1.259.051 2.01-.228.752-.758 1.576-.684 1.605.075.03.751-.736 1.127-1.538a4.302 4.302 0 0 0 .36-2.342c-.088-.7-.339-1.26-.633-1.606s-.633-.478-.913-.552z"/>
        <path fill="#faa" d="M243.13 234.24c-.611-.339-1.51-.825-2.063-.332-.552.493-.758 1.966-1.178 3.285-.42 1.319-1.053 2.482-1.016 3.477.037.995.743 1.82 1.944 2.055 1.202.236 2.896-.118 3.772-1.01s.935-2.32.765-3.535c-.17-1.215-.567-2.217-.928-2.813-.36-.597-.685-.788-1.296-1.127z"/>
        <path fill="#fff" d="M242.9 236.06c-.508.198-1.053.7-1.142 1.326-.088.627.28 1.377.825 1.605.546.229 1.267-.066 1.591-.64.324-.574.25-1.43-.022-1.908s-.744-.581-1.252-.383zM235.54 231.53c-.25-.247-.503-.485-.677-.302-.174.182-.27.786.003 1.262.273.477.913.822 1.266.95s.42.04.399-.186a2.553 2.553 0 0 0-.313-.91c-.18-.311-.428-.567-.678-.814z"/>
    </g>
    <g fill="none" stroke="#000" stroke-width=".15">
        <path d="M208.72 201.91c2.019 4.026-3.244 8.36-6.93 6.793l26.063 25.702c3.431 2.429 8.078-1.582 5.92-5.17zM206.28 213.13c4.156 1.557 7.446-3.427 6.894-6.363M210.61 217.4c4.156 1.557 7.148-3.3 6.596-6.236M214.75 221.48c4.156 1.557 6.822-3.224 6.27-6.16M218.73 225.41c4.156 1.557 6.436-3.229 5.884-6.165M222.37 228.99c4.156 1.557 6.627-2.641 6.075-5.577M225.79 232.37c4.156 1.557 6.651-2.257 6.1-5.193"/>
    </g>
    <g>
        <path fill="#fea" d="M208.51 206.66c.18-.302.475-.847.662-1.347.188-.5.27-.959.284-1.345.014-.386-.037-.703-.037-.836 0-.132.051-.08.22.115.17.195.457.534.774.891.317.358.663.733.98 1.094a24.207 24.207 0 0 1 1.554 1.96c-.125.125-.249.248-.698-.015-.45-.263-1.21-.906-1.865-.97-.655-.063-1.2.46-1.546.704-.347.244-.494.207-.534.158-.04-.048.026-.107.206-.409z"/>
        <path fill="#fff" d="M209.73 203.79c-.011.14-.033.42-.11.74-.078.321-.21.68-.328.969-.118.287-.22.5-.161.47.06-.03.28-.301.441-.584.162-.283.265-.58.35-.737.085-.158.152-.18.267-.119.116.062.289.212.454.355.166.144.328.284.34.262.01-.022-.13-.207-.27-.383a25.727 25.727 0 0 0-.747-.895 2.595 2.595 0 0 0-.192-.188c-.033-.03-.033-.03-.044.11z"/>
        <path fill="#fea" d="M212.48 210.96c.183-.29.484-.815.679-1.3.195-.483.285-.928.309-1.304.023-.377-.02-.688-.016-.817.003-.129.052-.077.213.117.16.195.432.532.733.889s.63.73.93 1.09a23.796 23.796 0 0 1 1.47 1.95c-.126.12-.25.237-.681-.03-.432-.268-1.16-.914-1.797-.991-.638-.078-1.182.42-1.526.649s-.487.19-.525.142c-.038-.049.028-.104.21-.395z"/>
        <path fill="#fff" d="M213.74 208.19c-.014.136-.042.408-.126.72-.083.311-.22.659-.343.937-.122.278-.227.483-.168.455.059-.028.28-.287.444-.56.165-.272.273-.558.36-.71.087-.152.152-.172.264-.11.111.063.276.214.434.358s.313.285.324.263c.012-.021-.12-.204-.253-.38a25.15 25.15 0 0 0-.708-.891c-.087-.1-.15-.159-.182-.188-.032-.03-.032-.03-.046.106z"/>
        <path fill="#fea" d="M216.76 215.21c.155-.272.408-.763.566-1.212s.222-.858.228-1.202c.006-.344-.045-.626-.048-.744-.002-.118.045-.073.2.098.153.17.415.467.704.78.288.313.603.64.892.957s.55.619.783.903.434.549.636.814c-.109.114-.217.226-.621 0s-1.094-.786-1.679-.83c-.584-.045-1.06.43-1.365.654-.304.223-.436.193-.472.15-.037-.042.02-.096.176-.368z"/>
        <path fill="#fff" d="M217.78 212.61c-.008.136-.024.41-.093.725-.07.315-.191.668-.3.951-.11.283-.207.493-.149.462.058-.03.267-.299.42-.578.151-.28.247-.57.326-.726.08-.156.145-.18.259-.121.114.057.285.2.45.337.164.137.325.27.336.249.01-.022-.13-.2-.27-.369s-.28-.332-.409-.48a10.775 10.775 0 0 0-.338-.379c-.092-.095-.158-.151-.191-.18-.033-.027-.033-.027-.041.109z"/>
        <path fill="#fea" d="M220.73 219.05a9.25 9.25 0 0 0 .492-1.085 3.52 3.52 0 0 0 .208-1.1c.006-.314-.041-.572-.044-.68-.002-.108.041-.066.183.09.14.156.38.428.644.713.264.286.552.587.816.876.264.288.504.566.716.826.213.26.398.502.583.745-.1.104-.199.206-.57 0-.37-.207-1-.72-1.534-.76-.535-.04-.97.394-1.249.598s-.399.177-.432.138c-.034-.039.019-.088.045-.112.026-.024.026-.024.142-.249z"/>
        <path fill="#fff" d="M221.65 216.72c-.007.114-.02.342-.078.605s-.16.558-.25.794c-.092.236-.172.412-.124.386.048-.026.222-.25.35-.483.126-.233.206-.476.273-.606.066-.13.12-.15.215-.101.096.048.239.167.376.282s.272.225.28.207c.01-.018-.108-.166-.225-.308a20.476 20.476 0 0 0-.624-.716c-.076-.08-.131-.127-.159-.15-.027-.024-.027-.024-.034.09z"/>
        <path fill="#fea" d="M224.35 223.09a9.25 9.25 0 0 0 .492-1.085 3.52 3.52 0 0 0 .208-1.1c.006-.314-.041-.572-.044-.68-.002-.108.041-.066.183.09.14.156.38.428.644.713.264.286.552.587.816.876.264.288.504.566.716.826.213.26.398.502.583.745-.1.104-.199.206-.57 0-.37-.207-1-.72-1.534-.76-.535-.04-.97.394-1.249.598s-.399.177-.432.138c-.034-.039.019-.088.045-.112.026-.024.026-.024.142-.249z"/>
        <path fill="#fff" d="M225.28 220.76c-.007.114-.02.342-.078.605s-.16.558-.25.794c-.092.236-.172.412-.124.386.048-.026.222-.25.35-.483.126-.233.206-.476.273-.606.066-.13.12-.15.215-.101.096.048.239.167.376.282s.272.225.28.207c.01-.018-.108-.166-.225-.308a20.476 20.476 0 0 0-.624-.716c-.076-.08-.131-.127-.159-.15-.027-.024-.027-.024-.034.09z"/>
        <path fill="#fea" d="M228.24 226.97c.104-.201.31-.603.44-.971s.182-.703.187-.985c.005-.281-.037-.512-.04-.609-.001-.096.037-.06.164.08.126.14.34.383.577.64s.494.524.73.783a18.29 18.29 0 0 1 1.163 1.406c-.09.093-.178.185-.51 0-.331-.185-.895-.643-1.374-.68-.479-.036-.868.353-1.118.536s-.357.158-.387.123c-.03-.035.018-.078.041-.1.023-.022.023-.022.127-.223z"/>
        <path fill="#fff" d="M229.07 224.88c-.006.102-.018.306-.07.542s-.143.5-.224.71c-.082.212-.154.369-.11.346.042-.023.198-.224.312-.433.114-.208.185-.426.245-.542.06-.116.108-.134.193-.09.085.043.213.15.336.252.123.102.244.202.251.186.008-.017-.097-.15-.202-.276a18.722 18.722 0 0 0-.558-.642 1.893 1.893 0 0 0-.142-.134c-.025-.02-.025-.02-.03.081z"/>
        <path fill="#fea" d="M231.99 229.81c.06-.118.181-.352.257-.567.076-.215.106-.41.11-.575.002-.164-.023-.299-.024-.355 0-.057.021-.035.095.047s.2.223.337.372c.138.15.289.307.427.458.138.15.263.296.374.432.111.135.208.262.304.389-.052.054-.103.108-.297 0s-.523-.376-.802-.397c-.28-.021-.507.206-.653.313s-.208.092-.226.072c-.017-.02.01-.046.024-.059s.013-.012.074-.13z"/>
    </g>
    <g fill="#fff">
        <path d="M232.47 228.59a1.92 1.92 0 0 1-.04.316c-.03.138-.084.292-.132.415-.048.124-.09.215-.064.202.025-.013.116-.13.182-.253s.108-.248.143-.316c.035-.068.063-.078.113-.053s.125.087.196.147c.072.06.142.118.147.109a.802.802 0 0 0-.118-.161 11.172 11.172 0 0 0-.326-.375c-.04-.042-.069-.066-.083-.078s-.014-.013-.018.047zM181.84 217.91c-1.177.614-1.948 1.135-2.386 1.917s-.542 1.822.095 2.354c.636.532 2.01.553 3.238-.125s2.313-2.053 2.855-3.198c.54-1.146.54-2.063-.25-2.167-.79-.105-2.375.605-3.552 1.219zM208.58 172.31c-.5-.583-1.104-.666-1.51-.093-.407.573-.615 1.8-.49 3.124s.583 2.74 1.188 2.708c.604-.032 1.354-1.51 1.53-2.791.178-1.28-.219-2.365-.718-2.948z"/>
    </g>
    <g>
        <path fill="#ff2a2a" d="M119.03 117.82c-.298.286-.5.732-.512 1.137-.021.75.603 1.335 1.27 3.127.666 1.79 1.376 4.788 2.605 6.623 1.23 1.834 2.979 2.5 5.063 2.959 2.084.458 4.502.708 5.418 1.666s.33 2.625-.024 4.125c-.354 1.5-.479 2.833.46 3.543s2.936.791 5.187.75 4.752-.208 6.209.187c1.457.396 1.874 1.354 2.603 2.791.73 1.438 1.772 3.355 3.334 5.168 1.563 1.813 3.644 3.52 6.707 4.813 3.063 1.292 7.106 2.166 10.771 4.228s6.96 5.313 8.782 8.697c1.822 3.385 2.177 6.907 2.468 9.094.292 2.188.52 3.04.96 3.426a.98.98 0 0 0 .308.174c.16-.548.07-1.231-.05-1.992a58.475 58.475 0 0 0-.958-4.803c-.442-1.797-1.03-3.77-2.017-5.685-.987-1.915-2.374-3.772-3.891-5.348s-3.167-2.874-4.434-3.817c-1.266-.942-2.15-1.53-3.152-1.972-1.001-.442-2.122-.738-3.389-1.15a65.682 65.682 0 0 1-4.035-1.487c-1.355-.545-2.653-1.105-3.92-1.871a22.616 22.616 0 0 1-3.357-2.52c-.855-.78-1.326-1.369-1.871-2.533s-1.165-2.904-2.108-4.111c-.942-1.207-2.21-1.886-3.594-2.195s-2.888-.25-4.345-.176c-1.458.074-2.872.161-3.83-.045-.958-.206-1.459-.705-1.577-1.428s.146-1.665.235-2.652 0-2.02-.309-2.785c-.31-.766-.839-1.266-1.56-1.678-.722-.412-1.636-.737-2.77-1.076-1.134-.339-2.49-.693-3.713-1.135-1.222-.442-2.313-.972-3.168-2.062s-1.472-2.74-1.943-4.243c-.472-1.503-.797-2.857-1.18-4.021-.218-.663-.45-1.23-.674-1.723z"/>
        <path fill="#ff2a2a" d="M145.86 140.08c-.42.058-4.63.41-4.574.783.055.373 4.375.764 4.508 1.059.098.217.116.407.1.629.589.507.938 1.238 1.415 2.18.335.66.745 1.43 1.233 2.236.036-.102 2.358 3.115 2.39 2.78.055-.586-2.134-5.116-2.281-6.19-.147-1.075-.552-2.056-1.107-2.67-.556-.615-1.264-.865-1.684-.807z"/>
        <path fill="#ff8080" d="M164.62 154.1a4.625 4.625 0 0 0-1.218-1.885c-.656-.614-1.594-1.135-1.886-2.74s.063-4.292-.291-6.416c-.355-2.125-1.417-3.688-3.125-4.896-1.708-1.208-4.063-2.062-6.355-2.99-2.292-.927-4.52-1.926-5.864-2.937-1.344-1.011-1.803-2.032-2.302-2.542-.5-.51-1.041-.51-1.25-.197-.209.312-.084.936-.021 1.29.062.354.062.438.547.88.485.443 1.432 1.225 2.797 2.08 1.364.854 3.135 1.77 4.719 2.468s2.979 1.177 4.176 1.781c1.198.604 2.198 1.334 2.958 2.104s1.282 1.584 1.552 2.719c.271 1.135.292 2.593.261 3.75-.031 1.156-.114 2.01-.073 2.917.042.907.208 1.864.667 2.698.459.834 1.208 1.542 2.073 2.073s1.844.885 2.333.854c.49-.032.49-.449.302-1.011z"/>
        <path d="M161.91 153.67c.029-.405-.222-1.009-.56-1.598-.339-.589-.766-1.164-1.024-2.07-.258-.906-.346-2.144-.383-3.322-.037-1.178-.022-2.299-.14-3.417-.118-1.12-.368-2.24-.825-3.035-.456-.795-1.12-1.266-1.812-1.73-.692-.465-1.414-.921-2.32-1.304s-1.996-.693-2.777-.928c-.78-.236-1.252-.398-1.989-.737a45.652 45.652 0 0 1-2.585-1.318 25.079 25.079 0 0 1-2.298-1.4c-.76-.523-1.584-1.156-2.048-1.665-.464-.509-.567-.891-.64-1.164-.074-.272-.119-.435-.229-.23s-.287.782-.28 1.328c.007.546.199 1.06.885 1.71s1.863 1.428 3.122 2.142 2.6 1.363 3.934 1.952 2.659 1.12 3.756 1.62c1.097.502 1.967.973 2.607 1.525.64.552 1.053 1.186 1.392 1.945s.604 1.642.67 2.784c.067 1.142-.066 2.54-.11 3.675-.044 1.135 0 2.003.14 2.71.14.708.376 1.253.87 1.784.494.53 1.244 1.046 1.775 1.2.53.154.84-.052.869-.457z" opacity=".5"/>
        <path fill="#ff8080" d="M85.709 88.029c-.142-.009-.17.09-.021.336.395.656 2.042 2.365 3.084 4.447s1.478 4.54 2.416 6.52c.937 1.98 2.374 3.48 3.875 4.595 1.5 1.115 3.062 1.843 5.14 2.567 2.079.724 4.672 1.444 6.563 2.137 1.89.692 3.077 1.358 4.052 1.29.975-.067 1.734-.87 2.635-1.14.901-.27 1.943-.01 2.906.807.963.817 1.851 2.195 2.293 3.355.443 1.16.441 2.108.295 2.982-.145.875-.436 1.678-.494 2.272-.028.29.002.527.072.73l-.003.03c-.022.75.603 1.335 1.27 3.127.666 1.79 1.375 4.789 2.605 6.623 1.23 1.834 2.978 2.5 5.062 2.959 2.084.458 4.502.708 5.418 1.666s.33 2.625-.023 4.125c-.354 1.5-.48 2.834.459 3.543s2.937.791 5.187.75 4.752-.208 6.21.187c1.456.396 1.874 1.354 2.603 2.791.729 1.438 1.77 3.355 3.334 5.168 1.562 1.813 3.644 3.52 6.707 4.813 3.063 1.292 7.105 2.166 10.77 4.228s6.96 5.313 8.782 8.698c1.822 3.384 2.178 6.906 2.396 10.344.22 3.437.301 6.784.51 8.851s.54 2.837 1.01 1.17c.469-1.667 1.074-5.772 1.23-9.324.157-3.553-.136-6.551-1.074-9.176-.937-2.625-2.52-4.874-4.25-6.978-1.729-2.105-3.604-4.065-5.603-5.543-2-1.48-4.125-2.48-6.354-3.25-2.229-.771-4.564-1.312-6.355-2.02-1.792-.708-3.04-1.585-4.27-2.543-1.229-.958-2.438-1.999-3.334-3.353s-1.48-3.022-2.187-4.272-1.543-2.084-2.688-2.396-2.604-.104-4.375-.041c-1.77.062-3.85-.021-4.685-.71-.835-.688-.419-1.978-.377-3.29.041-1.313-.292-2.648-.791-3.522-.5-.874-1.168-1.291-2.96-1.791-1.79-.5-4.707-1.082-6.624-2.582-1.918-1.5-2.834-3.916-3.71-5.875-.687-1.539-1.349-2.785-1.964-3.394-.022-.166.008-.311.08-.64.093-.426.22-1.176.303-1.843.083-.667.125-1.25.03-2.094-.093-.844-.322-1.947-.843-2.957-.52-1.01-1.335-1.926-2.293-2.728-.958-.802-2.064-1.492-3-1.565-.936-.073-1.707.47-2.498.825s-1.605.52-2.45.384c-.843-.135-1.717-.573-3.103-1-1.385-.427-3.282-.843-5.209-1.384-1.926-.542-3.883-1.208-5.425-2.229a10.016 10.016 0 0 1-3.356-3.74c-.688-1.345-.937-2.657-1.29-3.928-.355-1.27-.814-2.499-1.563-3.582-.75-1.083-1.793-2.021-2.74-2.687-.593-.417-1.148-.728-1.385-.743z"/>
        <path d="M85.711 88.258c-.013.002-.015.024-.004.068.044.177.28.708.693 1.43s1 1.636 1.42 2.52c.42.883.672 1.738 1.026 2.74s.81 2.149 1.156 3.129c.346.98.58 1.79.912 2.556a9.28 9.28 0 0 0 1.326 2.188c.568.7 1.275 1.378 2.24 2.04s2.188 1.313 3.477 1.821 2.644.876 3.86 1.215c1.214.339 2.291.648 3.292.928 1.002.28 1.93.53 2.637.824s1.192.633 1.457.986c.265.353.31.722.37 1.076.058.354.13.693.353.7.222.006.59-.318.928-.678.338-.36.648-.76 1.127-1.031.478-.272 1.128-.42 1.775-.412s1.297.17 1.893.486 1.143.788 1.533 1.252c.39.464.625.92.816 1.48.192.56.34 1.222.377 1.856.037.633-.038 1.237-.185 1.937s-.369 1.495-.582 2.092-.42.995-.33 1.21c.086.208.45.246.816.56.121.713.469 1.368.941 2.517.555 1.349 1.262 3.382 2.36 4.989 1.098 1.606 2.584 2.783 4.367 3.46 1.783.678 3.86.856 5.09 1.46 1.23.603 1.612 1.634 1.51 2.753-.103 1.12-.69 2.325-.64 3.358.052 1.033.743 1.887 1.657 2.314s2.048.427 3.44.412 3.041-.044 4.109.03c1.067.073 1.555.25 2.137.398.582.147 1.259.266 1.796.59.538.324.936.854 1.422 1.531s1.06 1.503 1.553 2.232c.494.73.907 1.362 1.695 2.467.789 1.106 1.952 2.682 3.485 3.809 1.532 1.127 3.431 1.804 5.17 2.408 1.738.604 3.315 1.135 4.943 1.725 1.628.589 3.307 1.237 5.074 2.283 1.768 1.045 3.625 2.488 5.069 4.035.793.85 1.454 1.744 2.043 2.732.123-.098.248-.195.38-.287.296-.205.62-.392.952-.57-1.57-2.455-3.51-4.472-5.748-6.205-2.873-2.224-6.23-3.992-9.28-5.186s-5.788-1.81-7.918-3.439c-2.13-1.628-3.648-4.266-4.767-6.357-1.12-2.092-1.842-3.639-3.086-4.338-1.244-.7-3.01-.553-5.14-.4s-4.623.31-5.702-.198c-.055-.026-.09-.06-.139-.09.005-.019.002-.037.012-.056.097-.186.465-.37.668-.487.203-.117.218-.158-.031-.097-.25.06-.765.221-1.024.302a1.237 1.237 0 0 1-.175-.406.84.84 0 0 1 .425-.42c.196-.088.445-.13.688-.19.243-.06.48-.14.531-.16.051-.02-.08.017-.306.03a3.599 3.599 0 0 1-.807-.047 2.34 2.34 0 0 1-.549-.182c.04-.313.101-.635.16-.95.2-1.073.266-2.045.004-2.907-.262-.862-.851-1.614-2.422-2.5-1.57-.886-4.124-1.905-5.922-3.01s-2.837-2.296-3.843-4.07c-.767-1.352-1.456-2.901-2.026-4.149-.017-.103-.037-.213-.049-.32-.028-.27.01-.484.073-.65.063-.167.147-.278.185-.348.038-.07.028-.094-.082-.066-.074.018-.191.064-.299.103-.002-.246-.018-.485-.068-.646-.017-.055-.043-.088-.067-.127l-.007-.047c-.014-.073-.005-.122.056-.162s.17-.069.239-.096.087-.05-.01-.033c-.098.016-.312.068-.455.076-.05.003-.082-.001-.116-.004-.044-.024-.098-.045-.126-.08a.276.276 0 0 1-.055-.13c.01-.065.01-.142.037-.184.048-.077.115-.101.209-.12.094-.018.213-.028.205-.04-.008-.013-.142-.03-.21-.088-.07-.058-.07-.156-.063-.272 0-.014 0-.027.002-.041.123-.276.278-.591.353-1.148.088-.654.06-1.629-.338-2.733-.397-1.104-1.164-2.342-1.908-3.21a8.149 8.149 0 0 0-2.063-1.733c-.596-.361-1.068-.58-1.591-.691a3.945 3.945 0 0 0-1.635.007c-.538.118-1.038.353-1.451.5-.373.133-.664.187-.817.143-.034-.033-.06-.046-.093-.092-.078-.102-.143-.235-.168-.344s-.013-.191-.03-.193c-.016-.002-.063.08-.117.15a.682.682 0 0 1-.248.204c-.107.057-.244.124-.36.19-.144.044-.293.091-.423.104.002-.02-.008-.025.002-.052.032-.092.117-.222.068-.225-.048-.003-.232.121-.42.19-.016.006-.028.006-.045.011-.17-.115-.273-.307-.441-.38-.121-.054-.284-.045-.496-.03-.006-.023-.012-.046.002-.082.035-.094.148-.222.21-.316.063-.095.072-.15.008-.125-.063.023-.204.13-.398.224-.194.095-.439.175-.61.248-.031.014-.039.028-.064.041-.636-.064-1.49-.28-2.299-.52-.847-.25-1.628-.516-2.468-.796-.84-.28-1.739-.573-2.873-1.074-1.135-.501-2.504-1.208-3.573-1.96s-1.832-1.547-2.459-2.343a10.249 10.249 0 0 1-1.517-2.592c-.405-1.002-.73-2.21-1.143-3.344a23.617 23.617 0 0 0-1.348-3.006c-.434-.81-.802-1.37-1.28-1.93-.48-.559-1.07-1.12-1.438-1.488-.277-.276-.427-.445-.467-.437z" opacity=".5"/>
    </g>
    <g fill="#ffd5d5">
        <path d="M167.7 155.45c-.885-.365-1.76-.594-1.74-.302.021.292.937 1.104 2.354 2.031s3.334 1.969 3.76 1.927c.428-.041-.635-1.167-1.614-1.979a10.417 10.417 0 0 0-2.76-1.677zM179.69 168.25c-.27-.084-.541.02-.447.439.094.418.55 1.144.821 1.227.271.083.355-.48.261-.895-.093-.416-.365-.687-.635-.771zM147.08 140.38c-.333-.22-.333.072.116.856.45.784 1.342 2.05 1.675 2.27s.105-.616-.343-1.396c-.448-.781-1.115-1.51-1.448-1.73zM146.57 139.92c-.132.022-.397.066-.634-.015s-.442-.287-.383-.39c.06-.103.384-.103.667-.03.283.074.526.222.6.302.075.081-.021.096-.07.104l-.18.029zM137.1 139.03c-.29.11-.814.258-1.028.224-.213-.033-.118-.247.172-.356.29-.11.779-.118.992-.085.214.032.155.106-.136.217zM136.36 138.48c-.114-.007-.342-.022-.468.04s-.147.202-.032.209c.116.007.364-.117.489-.18.125-.062.125-.062.01-.069zM136.07 137.75c-.026.077-.077.231-.188.235-.112.004-.28-.142-.28-.677s.17-1.455.13-2.357c-.041-.901-.292-1.786-.616-2.368-.324-.581-.722-.861-.917-1.105-.195-.243-.188-.45-.015-.53.172-.08.513-.036.777.114.265.15.457.41.527.619.07.21.019.371.03.578s.084.456.198.888c.115.432.269 1.042.328 1.598s.022 1.056.015 1.536c-.007.479.014.935.025 1.163s.011.23-.014.306zM123.38 124.53c-.088.08-.015.567.362 1.076.376.51 1.052 1.039 1.14.957.09-.08-.412-.773-.787-1.281-.376-.508-.627-.833-.715-.752zM163.82 153.99c-.208-.104-.625-.312-1-.745s-.709-1.089-1-1.594c-.292-.505-.542-.86-.417-.812.125.047.625.495 1.063.875s.812.693 1.078 1.026.421.687.484.916c.063.229.032.333.016.385-.016.053-.016.053-.224-.05zM160.07 140.54c.135.224.406.672.599 1.25s.307 1.286.365 1.99c.057.703.057 1.4.005 1.853-.052.453-.156.661-.293.582s-.302-.441-.328-.998c-.025-.557.09-1.308.068-2.026a5.865 5.865 0 0 0-.37-1.896c-.192-.49-.422-.781-.458-.911-.036-.13.12-.099.198-.083.078.015.078.015.213.239zM143.41 130.21c-.057.052-.171.156.028.482.2.325.706.862 1.284 1.331a9.978 9.978 0 0 0 1.626 1.068c.4.203.557.213.288-.025-.269-.238-.971-.73-1.497-1.184s-.88-.87-1.13-1.15-.396-.428-.47-.5c-.072-.074-.072-.074-.129-.022zM152.27 135.72c-.312-.125-.667-.25-.787-.23-.12.022-.006.188.308.313.313.125.823.209.943.188s-.152-.146-.464-.271z"/>
    </g>
    <g>
        <path fill="#ff8080" d="M178.17 167.68c-.563-.01-1.333-.156-2.668.177-1.334.334-3.228 1.146-6.562 2.427-3.335 1.282-8.103 3.031-11.676 2.906-3.574-.125-5.949-2.124-7.688-4.74s-2.844-5.843-4.031-8.051c-1.188-2.208-2.459-3.396-3.292-3.73-.833-.334-1.229.187-1.48.333s-.354-.083-.28-.5c.072-.416.323-1.021 1.01-1.031.685-.01 1.813.574 2.77 1.324.959.75 1.75 1.666 2.417 2.78s1.208 2.428 1.896 3.897c.688 1.469 1.52 3.093 2.844 4.469s3.136 2.5 5.302 2.916 4.689.125 6.824-.385 3.885-1.24 5.635-1.98c1.75-.739 3.5-1.49 4.573-2.063 1.073-.573 1.469-.969 2.051-1.104.583-.135 1.355-.01 1.99.386.635.395 1.135 1.063 1.209 1.458.073.396-.28.521-.844.51z"/>
        <path fill="#f55" d="M141.5 155.47c-.686.01-.937.617-1.01 1.033-.073.417.03.644.281.498.251-.146.646-.666 1.479-.332s2.104 1.523 3.29 3.73c1.188 2.209 2.292 5.437 4.032 8.052.732 1.1 1.586 2.078 2.584 2.867-.083-.072-.171-.138-.25-.215-.615-.6-1.062-1.38-1.195-1.975-.133-.594.049-.996.226-1.252.08-.113.156-.188.225-.25-1.161-1.306-1.94-2.793-2.578-4.154-.688-1.47-1.23-2.782-1.897-3.897-.666-1.114-1.458-2.031-2.416-2.78-.958-.75-2.085-1.335-2.771-1.325z"/>
        <path d="M141.59 155.99a.67.67 0 0 0-.188.021c-.243.066-.463.288-.61.45-.148.162-.223.265-.245.414-.022.148.007.338.111.404.105.066.28.007.508-.066.228-.074.51-.162.899-.008.388.154.89.552 1.347 1.031a9.222 9.222 0 0 1 1.244 1.672c.376.633.714 1.341 1.09 2.203.376.862.79 1.878 1.283 2.969.494 1.09 1.067 2.254 1.811 3.36s1.658 2.15 2.432 2.923c.773.773 1.405 1.273 2.238 1.685a8.283 8.283 0 0 0 2.963.827c1.097.088 2.262-.06 3.601-.34 1.34-.28 2.858-.693 4.485-1.156 1.627-.464 3.368-.98 4.885-1.51s2.814-1.076 3.875-1.48 1.884-.672 2.472-.532c.322.076.573.272.797.455.014.034.03.063.043.098.884 2.21 1.621 4.979 1.857 6.654s.41 7.727.442 8.262c.033.535.269 4.8.781 5.054.513.255.175-.284.61-.318.434-.033 1.299-8.81.845-11.006s-1.537-6.496-3.271-9.986c-.219-.44-.46-.853-.7-1.266-.176-.206-.353-.182-.458-.236-.15 0-.332.013-.555.066-.406.096-.92.316-1.85.737-.93.42-2.265 1.037-4.02 1.789-1.753.751-3.917 1.635-5.655 2.254-1.74.618-3.05.971-4.295 1.185-1.246.214-2.423.289-3.573.053s-2.27-.781-3.212-1.393-1.708-1.29-2.364-2.078-1.201-1.686-1.724-2.6a40.88 40.88 0 0 1-1.532-2.915c-.508-1.076-1.024-2.3-1.517-3.243-.494-.942-.965-1.605-1.444-2.172s-.964-1.038-1.435-1.377a6.104 6.104 0 0 0-1.29-.693c-.27-.11-.487-.187-.68-.191z" opacity=".5"/>
    </g>
    <g fill="#ffd5d5">
        <path d="M178.53 166.87c.096-.1.288-.299.24-.555-.048-.257-.336-.575-.756-.745-.419-.169-.971-.191-1.413-.154-.443.036-.773.132-1.231.353s-1.038.567-1.631.899c-.594.331-1.197.647-1.152.688.045.04.736-.195 1.435-.453s1.408-.538 2.004-.63c.596-.091 1.083.005 1.41.155.327.151.497.358.637.457.14.1.251.092.306.089.055-.004.055-.004.151-.104zM155.37 170.78c.203.104.4.24.422.359.022.12-.135.223-.528.15-.393-.073-1.014-.321-1.697-.785-.682-.464-1.421-1.14-1.864-1.589-.443-.448-.589-.667-.297-.495s1.021.735 1.651 1.152c.63.416 1.162.687 1.532.859.37.172.578.245.78.349zM145.57 158.4c.055.129.328.527.64 1.101.314.575.667 1.326.874 1.62.206.294.265.132.196-.128-.07-.26-.27-.623-.531-1.046-.262-.424-.586-.91-.83-1.223s-.404-.453-.349-.324zM141.35 155.63c-.07.04-.21.121-.175.155.034.033.238.018.455.011.216-.007.446-.007.787.136.341.143.8.431.929.487.129.055-.07-.122-.332-.288a3.996 3.996 0 0 0-.861-.409c-.276-.088-.504-.11-.619-.121s-.115-.011-.184.029z"/>
    </g>
    <g>
        <path fill="#ff8080" d="M63.036 47.919c-.162-.236-.486-.707-.648-1.252-.162-.546-.162-1.165.177-1.893.338-.729 1.017-1.57 1.65-2.336.633-.765 1.223-1.458 1.606-2.364.382-.905.56-2.026.427-3.034a5.113 5.113 0 0 0-1.12-2.563c-.545-.655-1.193-1.068-1.849-1.827-.656-.76-1.319-1.864-1.665-2.615-.346-.752-.375-1.15-.427-1.136-.051.015-.125.443-.058.886.066.443.272.898.574 1.45.302.554.7 1.201 1.134 1.798.435.597.906 1.142 1.274 1.569.369.427.634.736.847 1.127s.376.861.442 1.377a4.814 4.814 0 0 1-.088 1.642 6.497 6.497 0 0 1-.633 1.672c-.288.531-.64 1.016-1.076 1.54-.435.523-.95 1.082-1.34 1.701-.39.62-.656 1.296-.766 1.812s-.067.869-.037 1.193c.03.325.044.619.332.863.289.244.847.434 1.126.53.28.096.28.096.118-.14z"/>
        <path d="M62.075 47.952c.136-.13.121-.439.04-.762-.08-.323-.228-.663-.295-1.017-.066-.354-.051-.722.045-1.094s.273-.748.527-1.13c.253-.383.586-.774.91-1.162.325-.388.645-.776.916-1.172s.493-.804.68-1.2c.188-.396.342-.781.45-1.176.11-.395.173-.8.205-1.216.031-.416.031-.844-.06-1.289s-.277-.91-.476-1.281c-.199-.372-.412-.652-.659-.943s-.527-.593-.866-1.017a32.58 32.58 0 0 1-1.05-1.41c-.312-.442-.54-.781-.714-1.109a5.43 5.43 0 0 1-.38-.928 4.196 4.196 0 0 1-.168-.726c-.022-.191-.008-.324-.026-.3-.018.026-.07.211-.085.444s.007.511.081.844c.074.332.199.714.409 1.145.21.432.504.91.814 1.396s.633.98 1.027 1.451c.395.472.858.92 1.168 1.403s.464.998.523 1.48c.059.483.022.931-.063 1.337a7.258 7.258 0 0 1-.331 1.071c-.114.306-.21.556-.361.877a5.58 5.58 0 0 1-.66 1.094c-.302.384-.698.758-1.023 1.123s-.574.718-.792 1.072a5.43 5.43 0 0 0-.515 1.038 3.91 3.91 0 0 0-.188 1.006c-.03.365-.045.784-.008 1.156.037.373.125.696.314.884s.475.24.61.11z" opacity=".5"/>
        <path fill="#ff8080" d="M73.678 63.386c-.99-.135-2.802-.323-3.813-1.168-1.01-.844-1.219-2.344-1.26-3.645-.042-1.302.083-2.407-.385-3.77-.469-1.364-1.532-2.99-3.084-4.146-1.552-1.156-3.593-1.844-5.375-3.428-1.782-1.584-3.303-4.062-4.032-5.636-.729-1.573-.666-2.24-.51-2.74.157-.5.407-.833.5-.699.094.135.031.741.177 1.398.146.658.5 1.365 1.125 2.302s1.52 2.104 2.406 3.094 1.76 1.802 2.907 2.48c1.146.677 2.563 1.218 3.52 1.687.959.469 1.459.865 1.959 1.635s1 1.916 1.291 2.927c.292 1.01.375 1.885.51 2.542s.323 1.093.355 1.812c.031.72-.094 1.718.115 2.365.209.646.75.938 1.416 1.167s1.46.396 2.063.531 1.021.24 1.385.333c.365.094.678.178.969.417s.562.635.594 1.104c.031.468-.177 1.01 0 1.521.178.512.74.99 1.375 1.438.635.448 1.344.864 1.979 1.27.635.407 1.198.803.938.792s-1.344-.427-2.355-.864c-1.01-.438-1.947-.896-2.448-1.397-.5-.5-.562-1.042-.656-1.552-.094-.51-.22-.99-.364-1.27-.146-.281-.313-.365-1.302-.5z"/>
        <path d="M80.386 68.776c-.396-.193-1.187-.578-1.943-.984-.755-.407-1.474-.834-1.948-1.303a2.894 2.894 0 0 1-.812-1.474c-.11-.495-.1-.974-.151-1.302-.052-.328-.167-.505-.396-.65-.228-.146-.572-.26-1.02-.355-.449-.094-1-.166-1.511-.27a11.03 11.03 0 0 1-1.443-.402c-.464-.161-.921-.348-1.292-.583s-.65-.516-.791-1.068c-.141-.553-.141-1.376-.162-2.094-.02-.718-.062-1.334-.083-1.839-.021-.505-.021-.901-.219-1.488-.197-.587-.594-1.37-.99-2.074-.395-.703-.791-1.328-1.359-1.91-.567-.584-1.307-1.126-2.083-1.647s-1.588-1.02-2.422-1.562c-.833-.542-1.687-1.125-2.537-1.97-.849-.843-1.692-1.947-2.328-2.895s-1.062-1.74-1.281-2.344c-.219-.604-.23-1.021-.193-1.36.037-.338.12-.6.167-.776.047-.177.057-.27-.01-.275-.068-.004-.219.083-.374.459a3.515 3.515 0 0 0-.214 1.74c.098.712.45 1.473.945 2.452.493.978 1.126 2.17 1.804 3.143.678.973 1.4 1.724 2.177 2.32.777.596 1.609 1.036 2.333 1.435.725.399 1.342.756 1.892 1.154s1.031.835 1.544 1.386c.512.552 1.053 1.216 1.448 2 .396.782.645 1.684.707 2.773.062 1.089-.064 2.363-.025 3.265s.24 1.427.555 1.9c.315.473.742.892 1.36 1.19s1.43.476 2.203.608c.773.133 1.51.221 1.996.475s.722.674.957 1.134c.236.46.472.961.844 1.37.372.41.88.726 1.44 1.01.56.283 1.171.534 1.775.71.604.177 1.201.28 1.506.316.305.036.317.006.324-.008.006-.014.006-.014-.39-.207z" opacity=".5"/>
    </g>
    <g fill="#ffd5d5">
        <path d="M67.307 50.443c-.214-.224-.464-.474-.786-.599s-.718-.125-.645.1c.073.224.613.671 1.035 1.056.422.386.724.709 1.016 1.172.291.463.572 1.068.671 1.13.1.062.016-.417-.135-.88-.15-.463-.37-.912-.568-1.234s-.375-.521-.588-.745zM69.646 57.198c-.094-.218-.198-.302-.255-.172-.057.13-.068.473-.01.792s.181.609.28.655c.1.047.173-.15.168-.426a2.579 2.579 0 0 0-.183-.849zM75.761 62.805l-.154-.055a3.433 3.433 0 0 0-.388-.112c-.156-.034-.327-.054-.254.032.074.087.39.278.577.47s.245.386.289.652c.044.266.075.603.143.81.068.206.172.279.256.18.083-.1.146-.371.156-.616.01-.244-.032-.463-.091-.645s-.139-.328-.227-.44a1.394 1.394 0 0 0-.237-.23c-.05-.038-.05-.038-.07-.046zM69.86 60.288c-.067-.003-.15.096-.164.167-.013.071.044.113.112.115.068.002.147-.034.16-.104.012-.07-.04-.175-.108-.178zM70.016 60.799c-.072-.018-.16.044-.134.128.026.085.165.188.326.284.162.096.344.185.347.151.003-.033-.175-.19-.292-.318-.117-.128-.175-.227-.247-.245zM76.274 65.37c-.054.026-.163.078-.142.144.021.066.17.143.248.135.078-.009.084-.103.063-.167s-.068-.101-.091-.12c-.024-.018-.024-.018-.078.008zM76.615 66.028c-.026.028-.078.085.137.298.215.212.68.565 1.123.838.443.274.855.461.732.336-.122-.124-.779-.562-1.185-.867-.406-.305-.563-.477-.65-.56-.089-.084-.11-.079-.12-.076-.011.003-.011.003-.037.031zM64.209 48.641c-.229-.125-.687-.375-.982-.57s-.424-.336-.547-.537a3.091 3.091 0 0 1-.312-.722 5.011 5.011 0 0 1-.141-.734c-.029-.213-.05-.38-.078-.36-.028.02-.065.229-.044.517.02.287.098.65.171.95.073.3.141.533.334.753s.51.422.833.594.652.312.818.346c.167.033.172-.04.174-.076.003-.036.003-.036-.226-.161zM58.328 43.809c0 .013 0 .039.181.26.181.222.517.608.895 1.02.377.41.783.832.812.924.029.09-.32-.149-.693-.5s-.768-.816-.971-1.12c-.203-.306-.214-.452-.219-.524-.005-.073-.005-.073-.005-.06zM65.776 35.687a.735.735 0 0 0-.129-.238c-.066-.087-.194-.246-.225-.194-.031.051.031.312.133.67.102.357.242.809.278 1.283.037.474-.03.968-.13 1.523-.099.556-.229 1.169-.356 1.562-.128.394-.252.565-.265.623-.012.057.086 0 .202-.14.116-.14.253-.366.388-.654a5.03 5.03 0 0 0 .37-1.107 7.018 7.018 0 0 0 .15-1.508 4.325 4.325 0 0 0-.182-1.145 7.2 7.2 0 0 0-.234-.675zM121.66 120.35c-.078-.216-.234-.649-.432-.86-.197-.21-.437-.2-.452-.006-.016.193.191.566.39.778a.91.91 0 0 0 .479.28c.093.024.093.024.015-.192zM120.39 118.14c-.036.044-.109.132-.093.238.016.105.119.223.228.289.11.065.225.075.303.033a.212.212 0 0 0 .104-.219c-.015-.082-.09-.156-.167-.218a1.167 1.167 0 0 0-.219-.14c-.057-.027-.088-.027-.104-.027s-.016 0-.052.044zM119.85 117.89c.081.003.243.008.354-.021a.274.274 0 0 0 .206-.177c.03-.085.03-.196-.007-.207-.038-.011-.117.078-.212.126-.094.047-.202.052-.299.06-.096.008-.179.018-.197.055-.019.037.027.099.05.13.024.031.024.031.105.034zM120.5 116.73c-.047.106-.14.32-.203.37-.063.049-.094-.065-.066-.304.029-.239.118-.606.175-1.2.057-.595.083-1.426-.02-2.144-.105-.719-.34-1.329-.55-1.8a10.17 10.17 0 0 0-.545-1.052c-.145-.247-.25-.409-.192-.442.057-.034.276.06.476.262s.383.516.555.959c.172.443.333 1.015.44 1.625s.159 1.254.156 1.765c-.003.51-.06.885-.098 1.172-.04.286-.06.484-.07.583-.011.1-.011.1-.058.206zM118.62 109.27l-.259-.352c-.235-.32-.697-.95-1.267-1.398s-1.252-.718-1.788-.82-.927-.034-.75.214c.178.248.921.674 1.621 1.1s1.357.855 1.759 1.066c.401.21.547.206.62.203.072-.003.072-.003.064-.013zM110.4 107.48c-.065.026-.195.078-.25.156-.055.079-.035.182.06.2.095.018.26-.049.357-.13.096-.08.122-.175.094-.219-.028-.043-.112-.038-.154-.035-.042.003-.042.003-.107.028zM108.71 107.12c-.013-.003-.039-.008-.161.019-.123.027-.33.082-.456.17s-.162.208-.12.292c.043.085.162.131.346.11.185-.02.436-.11.558-.214s.116-.224.07-.289c-.046-.064-.135-.075-.18-.08-.044-.005-.044-.005-.057-.008zM105.89 106.38c.276.096.672.242.836.369.164.127.096.236-.243.244-.339.008-.937-.084-1.779-.382-.842-.297-1.918-.796-3.09-1.215-1.172-.42-2.437-.758-3.24-1.058-.802-.3-1.14-.56-.942-.544.198.016.932.307 1.604.54.671.23 1.281.403 1.96.598a994.344 994.344 0 0 1 4.029 1.177c.433.128.59.175.865.271zM89.704 91.791c-.14-.01-.328.052-.28.293.047.24.326.655.633 1.28.308.625.64 1.458.954 2.323.312.865.604 1.76.692 1.848.089.088-.026-.63-.218-1.447a23.318 23.318 0 0 0-.72-2.438c-.254-.703-.494-1.193-.66-1.479-.167-.286-.261-.37-.401-.38z"/>
    </g>
</svg>
