<svg xmlns="http://www.w3.org/2000/svg" cursor="default" viewBox="0 0 256 256">
    <path fill="#ff7f2a" stroke="#000" stroke-width=".175" d="M113.99 127.647c-9.844 4.483-26.953 5.428-37.261-6.026-8.705-9.672-15.069-31.77.664-44.413 8.49-6.82 33.062-7.077 43.518 9.008 7.631 11.74 5.943 35.573-6.922 41.43z"/>
    <path fill="#f95" d="M114.248 118.41c-9.912 4.482-22.238.881-30.15-6.028-3.604-3.146-14.56-20.11-4.396-31.757 7.092-8.127 30.988-10.49 41.515 5.595 7.683 11.74 5.984 26.33-6.969 32.188z"/>
    <path fill="#fca" d="M107.076 102.868c-5.848-1.815-10.995-6.87-13.233-11.515-1.019-2.116-2.402-10.805 5.23-11.093 5.324-.202 17.467 6.75 18.846 15.032 1.006 6.046-3.2 9.948-10.843 7.577z"/>
    <path stroke="#000" stroke-width=".174" d="M125.047 109.693c-1.165 7.939-4.775 15.095-11.062 17.958-9.843 4.483-26.953 5.428-37.261-6.025-8.704-9.673-15.07-31.772.664-44.413 7.74-6.218 28.843-6.972 40.434 5.13-1.87 3.159-2.349 8.06-1.729 13.156.646 5.313 2.478 10.834 5.635 13.022 1.008.698 2.152 1.054 3.319 1.171z" opacity=".75"/>
    <path fill="#fca" d="M123.117 91.061c.23.401.635 1.266 1.036 2.506.401 1.24.797 2.854 1 4.286a19.459 19.459 0 0 1 .183 3.427c-.032.745-.104.984-.466.775-.36-.21-1.003-.863-1.394-1.759-.39-.896-.526-2.032-.552-3.146-.026-1.114.057-2.209.052-3.266-.006-1.056-.1-2.078-.12-2.62-.02-.542.032-.604.26-.203z"/>
    <path fill="#fff" d="M124.466 96.157c.057.542.172 1.417.136 1.933-.036.515-.224.672-.428.394s-.422-.983-.536-1.95c-.115-.969-.125-2.2.02-2.465.146-.266.448.433.6.885.15.453.15.662.208 1.203z"/>
    <path fill="#ff8080" stroke="#000" stroke-width=".15" d="M22.373 28.886c-7.756 2.78-15.907-7.853-9.592-13.707 7.91-7.333 16.094 1.025 14.801 8.024z"/>
    <path fill="#ff2a2a" d="M26.943 22.866c0 .115 0 .115-.41.281-.41.167-1.235.501-1.756 1.475-.366.683-.58 1.674-.787 2.494l-1.625 1.772c-.03.01-.063.018-.094.03-.328.01-.65.01-.89-.03-.313-.052-.503-.169-.59-.2-.088-.03-.076.022-.118.11-.04.088-.137.214-.37.38-.066.047-.146.101-.223.153-6.934.287-13-8.87-7.307-14.15 1.532-1.42 3.073-2.246 4.555-2.613-.116.078-.233.161-.344.236-.999.676-1.644 1.177-2.17 1.822-.526.646-.933 1.438-1.006 2.475-.073 1.036.187 2.317.885 3.328.698 1.01 1.832 1.75 2.703 2.094.871.344 1.474.292 2.14.047.668-.245 1.397-.682 2.09-.994.694-.313 1.35-.5 2.032-.542.682-.04 1.39.063 1.941.297.552.235.95.6 1.147.895a1.063 1.063 0 0 1 .197.64z"/>
    <path stroke="#000" stroke-width=".15" d="M26.143 24.766l-3.71 4.05c-.368-.045-.75-.109-1.052-.216-.542-.193-.77-.515-.91-.64-.14-.126-.193-.053-.224.052a1.64 1.64 0 0 0-.047.4c-.005.163-.006.348-.2.463-.193.115-.575.157-.966.147a7.1 7.1 0 0 1-1.203-.156c-.335-.067-.678-.139-.948-.06-5.367-2.004-8.898-9.187-4.11-13.626.108-.1.216-.186.323-.28-.434.65-.764 1.311-.959 1.997a5.977 5.977 0 0 0 1.291 5.568c1.35 1.516 3.557 2.421 5.365 1.873 1.808-.548 3.212-2.545 4.98-2.67.54-.038 1.112.11 1.69.301-.41.71-.357 1.553.19 2.287a3.317 3.317 0 0 0 .49.51z" opacity=".5"/>
    <path fill="#ff8080" stroke="#000" stroke-width=".15" d="M60.483 67.536L21.84 28.35c-3.078-4.35 2.418-8.37 5.288-5.56l44.068 40.408z"/>
    <path fill="#ff2a2a" d="M71.193 63.196L60.48 67.534 21.835 28.348a3.967 3.967 0 0 1 3.13-6.493c-.499.247-.698.89-.749 1.334-.117 1.031-.585 1.298 3.04 5.467 3.623 4.17 10.156 11.027 14.841 15.477 2.84 2.41 9.638 9.076 13.422 7.452.66-.31 1.268-.69 1.84-1.075z"/>
    <path fill="#ffe680" d="M56.943 50.136c-4.026-2.019-8.36 3.244-6.793 6.93L24.448 31.003c-2.429-3.43 1.582-8.078 5.17-5.92z"/>
    <path fill="#ffb380" stroke="#000" stroke-width=".25" d="M113.533 88.186c1.885-7.14 1.218-14.51-.575-22.958-1.794-8.448-10.44-14.492-17.898-15.729-2.81-2.45-6.24-3.985-11.79-4.194-3.123-.018-17.144 1.567-23.736 7.72-3.264 3.046-4.99 6.276-4.882 9.49 0 0-31.23-.137-33.356 16.272-2.125 16.41 5.656 18.734 11.932 24.95.504 12.735 8.46 20.255 20.746 20.067 6.423-.098 14.092-6.629 14.997-11.942.546-3.2 1.808-3.07 3.086-4.312 17.26 19.938 35.642 37.28 54.348 52.88.112 3.953 1.46 5.668 2.823 7.713.786 1.18 2.854 2.455 4.203 2.712 1.216.232 2.441.378 3.661-.542l1.22-.95c21.866 20.006 46.45 39.867 61.968 60.205l7.322 3.525 23.186-14.102 7.186-15.322-1.898-5.017c-3.89-1.348-8.725-3.837-13.56-7.186-20.857-14.452-37.906-29.74-54.914-48.814.618-.256.974-1.002.95-1.899-.033-1.145-.2-2.39-.702-3.493-.726-1.595-1.954-2.845-3.502-3.693-2.57-1.406-5.504-1.95-8.678-1.763-15.973-12.99-31.948-27.284-42.137-43.618z"/>
    <path fill="#ffd42a" d="M51.753 51.166c-1.58 1.52-2.432 3.926-1.596 5.893l-25.7-26.062c-1.275-1.8-.769-3.927.511-5.239L51.75 51.154z"/>
    <path stroke="#000" stroke-width=".15" d="M71.193 63.196L60.48 67.534 21.835 28.348c-1.95-2.756-.456-5.375 1.63-6.213-.278.423-.38.897-.43 1.342-.119 1.03-.029 1.885 3.595 6.054 3.624 4.17 10.782 11.652 15.467 16.102 4.685 4.45 6.892 5.862 8.75 6.393 1.857.53 3.36.178 4.672-.44.66-.312 1.268-.69 1.84-1.076l13.834 12.687z" opacity=".5"/>
    <path fill="#ffb380" stroke="#000" stroke-width=".25" d="M113.533 88.186c1.885-7.14 1.218-14.51-.575-22.958-1.794-8.448-10.44-14.492-17.898-15.729-2.81-2.45-6.24-3.985-11.79-4.194-3.123-.018-17.144 1.567-23.736 7.72-3.264 3.046-4.99 6.276-4.882 9.49 0 0-31.23-.137-33.356 16.272-2.125 16.41 5.656 18.734 11.932 24.95.504 12.735 8.46 20.255 20.746 20.067 6.423-.098 14.092-6.629 14.997-11.942.546-3.2 1.808-3.07 3.086-4.312 17.26 19.938 35.642 37.28 54.348 52.88.112 3.953 1.46 5.668 2.823 7.713.786 1.18 2.854 2.455 4.203 2.712 1.216.232 2.441.378 3.661-.542l1.22-.95c21.866 20.006 46.45 39.867 61.968 60.205l7.322 3.525 23.186-14.102 7.186-15.322-1.898-5.017c-3.89-1.348-8.725-3.837-13.56-7.186-20.857-14.452-37.906-29.74-54.914-48.814.618-.256.974-1.002.95-1.899-.033-1.145-.2-2.39-.702-3.493-.726-1.595-1.954-2.845-3.502-3.693-2.57-1.406-5.504-1.95-8.678-1.763-15.973-12.99-31.948-27.284-42.137-43.618z"/>
    <path fill="#ff7f2a" d="M229.705 199.538c-.075.34-2.142.841-2.924 1.818-1.042 1.303-2.81 1.416-3.51 3.416-.698 2.001-1.417 3.854-2.074 6.25a19.495 19.495 0 0 1-1.119 3.094c1.678.98 3.28 2.74 4.674 4.785.59.866 1.161 1.771 1.928 2.586l-19.08 11.605-7.323-3.525c-15.518-20.338-40.102-40.2-61.967-60.203l-1.22.95c-1.22.92-2.445.774-3.66.542-1.35-.257-3.418-1.532-4.204-2.71-1.363-2.046-2.71-3.762-2.822-7.716-18.707-15.6-37.089-32.94-54.35-52.879-.807.785-1.607 1.025-2.225 1.9-.006.007-.01.018-.015.026-.095.137-.186.29-.272.463-.034.07-.065.15-.097.227a6.453 6.453 0 0 0-.264.75 9.28 9.28 0 0 0-.213.945c-.003.017-.01.035-.014.053-.946 5.304-8.58 11.793-14.982 11.89-5.567.086-10.235-1.423-13.73-4.275l-.013.006c-.06-.05-.118-.104-.178-.154l-.145-.125a16.954 16.954 0 0 1-2.054-2.092l-.045-.057c-2.747-3.352-4.363-7.87-4.58-13.37-.107-.106-.217-.204-.324-.307l-.022-.02c-1.863-1.79-3.834-3.276-5.63-4.908a29.548 29.548 0 0 1-1.042-.99l-.09-.09a23.137 23.137 0 0 1-.77-.824c-.105-.117-.215-.23-.318-.35-.248-.29-.482-.595-.714-.904-.076-.1-.155-.195-.229-.297a16.78 16.78 0 0 1-.62-.953c-.086-.137-.177-.267-.259-.408-.187-.327-.355-.68-.523-1.03-.076-.16-.16-.307-.23-.47-.037-.084-.07-.173-.106-.258-.186-.447-.36-.91-.512-1.4a18.03 18.03 0 0 1-.197-.698c-.016-.058-.034-.114-.049-.174a18.854 18.854 0 0 1-.158-.689c-.02-.092-.042-.18-.06-.275a18.612 18.612 0 0 1-.126-.715c-.016-.098-.034-.192-.049-.29-.028-.193-.05-.393-.074-.59-.02-.177-.045-.35-.062-.53-.015-.148-.023-.304-.035-.455-.017-.21-.037-.418-.05-.635-.01-.197-.012-.403-.019-.606-.007-.206-.017-.408-.02-.62v-.05c-.007-.8.018-1.643.075-2.535v-.01c.058-.906.15-1.86.281-2.869a12.84 12.84 0 0 1 .207-1.154c.025-.11.055-.216.082-.324.067-.264.14-.525.221-.78a12.24 12.24 0 0 1 .412-1.09c.042-.096.083-.192.127-.287.138-.298.288-.59.447-.875.016-.027.03-.056.045-.084a13.362 13.362 0 0 1 1.328-1.904c1.254-1.509 2.847-2.775 4.63-3.853 2.133-1.292 4.538-2.306 7.02-3.094.06-.02.117-.042.177-.06l-.024.015c3.896-1.222 7.932-1.916 11.254-2.297-.003.01-.01.016-.014.025 4.306-.499 7.444-.51 7.444-.51-.11-3.214 1.617-6.443 4.88-9.49 2.54-2.37 6.183-4.058 9.88-5.242-.907.692-1.705 1.222-2.684 1.912-1.518 1.07-3.502 2.574-4.732 4.043-1.23 1.47-1.71 2.91-2.077 4.283-.367 1.374-.624 2.682.383 3.594 1.007.912 3.275 1.424 5.082 1.6 1.807.176 3.15.016 3.197.16.048.144-1.199.59-3.308.766-2.11.176-5.083.081-7.447-.159s-4.123-.623-6.024-.687c-1.576-.053-3.277.128-5.36.55-.742.453-1.879.783-2.997 1.128-2.333.72-4.54 1.517-6.553 2.62-2.013 1.101-3.835 2.51-5.369 4.78-1.534 2.267-2.78 5.4-3.229 8.98-.433 6.15 1.273 12.327 7.303 14.253 4.547 1.432 7.584.96 9.805.01 2.703-1.157 5.525-2.328 7.347-5.233 1.577-2.513 1.54-3.686 2.15-6.894.61-3.208 1.606-6.058 2.872-7.866 1.266-1.807 2.803-2.575 3.435-2.734.633-.159.362.294-.18 1.313-.545 1.02-1.356 2.595-1.673 5.06-.317 2.465-.137 5.808.086 7.363.223 1.556.487 1.32.62.583.131-.738.13-1.99.37-3.922.24-1.933.721-4.556 1.584-6.825.863-2.269 2.11-4.187 3.451-5.976 1.206-1.608 2.497-3.11 4.438-4.315 1.866-1.785 4.065-3.434 6.603-4.648 3.683-1.762 8.07-2.62 10.961-3.186 2.893-.565 4.294-.836 5.4-1.695 1.107-.859 1.921-2.305 2.553-1.719.633.587 1.086 3.21 2.578 5.11 1.493 1.9 4.022 3.072 6.08 4.7 2.056 1.626 3.637 3.706 4.834 7.073 1.198 3.367 2.012 8.021 3.934 10.395.47.58 1.005 1.02 1.566 1.258-.009.078-.025.154-.035.232-6.684.207-11.809-.202-16.268-1.422-4.355-1.19-8.108-3.154-11.96-5.156.766 4.568.966 10.003 1.304 14.818.415 5.913 1.054 10.866 1.246 14.27.192 3.404 20.976 5.946 24.262 5.881 6.157-.12-1.86 7.711-6.889 8.832-18.562 4.138-.594 11.734 4.008 16.064s5.602 3.904 12.125 9.74c.816.73 6.338-.112 10.461-2.808 4.123-2.696 11.91-4.764 10.881-4.235-4.127 2.127-8.146 4.6-12.857 13.426-3.432 6.43-.388 15.793 5.965 2.938 1.06-2.146 7.135-7.946 12.096-11.236 2.48-1.645 9.724-5.44 17.012-4.543 1.355.167 2.323.998 1.84 2.394-6.764-5.438-20.184 5.29-23.48 10.943-6.047 10.381.32 14.341 1.153 15.086.925.84 8.69 7.465 9.553 8.242 7.198 6.468 7.574 6.723 14.535 12.824 6.96 6.102 13.65 12.25 18.758 17.266 5.107 5.017 8.633 8.904 12.34 9.99 3.707 1.083 7.47-.968 10.666-1.945 3.998-1.222 5.018-3.642 6.781-6.828 1.552-2.812 2.67-4.497 4.334-6.334 3.02-3.333 7.803-3.25 8.365-3.23.14.005-.875.758-.9.87zm-178.78-87.843c.395-2.24-.583-2.75-2.44-3.367-2.005-.665-3.697-.652-5.779-.54-1.22.063-2.458.187-2.742 1.498-.172.795-.042 2.088.695 3.126.703.992 3.14 2.774 6.126 2.836 1.747.036 3.88-2.075 4.14-3.553z"/>
    <path fill="none" stroke="#000" stroke-linecap="round" stroke-linejoin="round" stroke-width=".25" d="M113.533 88.186c1.885-7.14 1.218-14.51-.575-22.958-1.793-8.448-10.44-14.492-17.898-15.729-2.81-2.45-6.24-3.985-11.79-4.194-3.123-.018-17.144 1.567-23.736 7.72-3.264 3.046-4.99 6.276-4.882 9.49 0 0-31.23-.137-33.356 16.272-2.126 16.41 5.656 18.734 11.932 24.95.504 12.735 8.46 20.255 20.746 20.067 6.423-.098 14.092-6.629 14.997-11.942.546-3.2 1.808-3.07 3.086-4.312 17.26 19.938 35.642 37.28 54.348 52.88.112 3.953 1.46 5.668 2.823 7.713.786 1.18 2.854 2.455 4.203 2.712 1.216.232 2.441.378 3.661-.542l1.22-.95c21.866 20.006 46.45 39.867 61.968 60.205l7.322 3.525 23.186-14.102 7.186-15.322-1.898-5.017c-3.89-1.348-8.725-3.837-13.56-7.186-20.857-14.452-37.906-29.74-54.914-48.814.618-.256.974-1.002.95-1.899-.033-1.145-.2-2.39-.702-3.493-.726-1.595-1.954-2.845-3.502-3.693-2.57-1.406-5.504-1.95-8.678-1.763-15.973-12.99-31.948-27.284-42.137-43.618z"/>
    <path d="M215.205 218.094c.018.044-.04.136-.19.297-.61.643-2.759 2.385-5.144 4.883-2.233 2.338-4.67 5.327-7.03 7.527l-2.564-1.234c-15.518-20.338-40.102-40.2-61.967-60.203l-1.22.95c-1.22.92-2.445.774-3.66.542-1.35-.258-3.418-1.532-4.204-2.71-1.363-2.047-2.71-3.762-2.822-7.716-13.293-11.085-26.42-23.056-39.1-36.207l-.654-.682a423.553 423.553 0 0 1-9.213-9.904l-.516-.574a412.751 412.751 0 0 1-4.523-5.12h-.002a1.296 1.296 0 0 1-.502-.253c-.023.02-.044.031-.067.05-.124.107-.25.22-.373.311l.004-.033c-1.057.781-2.03 1.15-2.49 3.844-.416 2.44-2.264 5.13-4.756 7.342-.362.322-.739.632-1.127.931l-.03.026c-.367.281-.742.55-1.126.806l-.142.094a20.24 20.24 0 0 1-2.28 1.291c-.107.051-.213.105-.32.154-.308.14-.617.265-.928.385-.137.053-.273.11-.41.158-.287.102-.575.185-.863.268-.15.043-.298.093-.447.13a12.51 12.51 0 0 1-.874.176c-.14.025-.283.061-.423.08-.427.06-.85.096-1.27.102-.146.002-.283-.01-.428-.01h-.004c-12.036.003-19.817-7.475-20.314-20.059-6.276-6.215-14.057-8.54-11.932-24.949.742-5.73 5.036-9.439 10.307-11.844-.92.76-5.625 3.963-6.185 4.985-4.34 7.908-4.493 13.06-1.469 19.746 3.393 7.5 8.753 9.64 10.51 10.27.8.285 6.655 1.764 7.188 1.455 0 0-3.635.802-4.786 1.888a4.905 4.905 0 0 0-.996 1.383c.016.712.05 1.762.43 3.074a12.197 12.197 0 0 0 4.598 6.438c2.593 1.842 6.361 2.962 9.765 2.195 3.404-.766 6.44-3.418 7.322-6.262.884-2.843-.384-5.878-2.46-7.556-2.117-1.345-5.122-1.898-7.748-1.857-1.798.028-3.239.38-3.84.447-.602.068-.26.024.496-.18a26.69 26.69 0 0 0 3.31-1.143c1.38-.576 2.96-1.367 4.383-2.644 1.424-1.277 2.69-3.04 3.57-5.424.882-2.384 1.38-5.39 1.672-5.875.294-.485.385 1.55.6 2.883.215 1.333.554 1.964 1.232 1.795.68-.17 1.696-1.14 2.588-3.514.893-2.373 1.66-6.145 2.465-9.129.806-2.983 1.65-5.173 2.07-6.267.42-1.094.422-1.095.758-1.684s1.058-1.719 2.326-3.123c1.77-1.959 4.122-4.37 6.385-5.365 1.815-.798 4.587-1.814 7.383-2.469 2.796-.655 5.61-.974 7.447-1.246 1.837-.272 2.7-.497 3.674-.273.974.223 2.062.897 3.588 2.207 1.05.9 2.307 2.103 2.256 4.668-.023 1.165-.319 2.611-1.025 4.44-2.26 5.847-8.749 15.595-13.398 22.1-4.65 6.503-7.462 9.761-9.643 11.552-.046.038-.09.067-.135.103.085.037.171.057.256.102 1.92 1.016 3.682 4.046 8.97 6.51 5.29 2.463 14.105 4.36 16.116 6.394 2.011 2.034-2.78 4.204-4.272 6.713-1.492 2.51.315 5.355 3.117 8.565 2.803 3.21 6.6 6.78 10.26 10.012s7.187 6.123 10.328 7.027c3.142.904 8.774-2.68 12.314-4.393-2.792 3.56-6.413 9.9-5.634 14.238.992 3.3 1.956 5.23 4.46 7.196 1.267.994 2.85 1.175 3.663.632.813-.543.857-1.808 1-2.923.143-1.115.383-2.082.71-3.123a23.023 23.023 0 0 1 1.294-3.28 24.992 24.992 0 0 1 1.847-3.11c.607-.87 1.135-1.493 1.111-1.302-.023.191-.6 1.2-1.183 2.615-.584 1.416-1.175 3.235-1.295 4.97-.12 1.734.23 3.378.99 5.01.76 1.63 1.925 3.244 2.957 4.513 1.032 1.27 1.93 2.193 3.463 3.47 1.534 1.274 3.703 2.901 6.02 4.731a232.149 232.149 0 0 1 6.668 5.48c1.887 1.616 3.195 2.813 6.156 5.547 2.96 2.735 7.571 7.008 12.182 11.46 4.61 4.451 9.221 9.083 12.87 12.325 3.65 3.243 6.34 5.096 8.803 5.944 2.464.847 4.701.69 6.52.328 1.82-.362 3.22-.927 4.508-1.22 1.287-.294 2.463-.316 3.513-.554.788-.178 1.508-.476 1.561-.343z" opacity=".5"/>
    <path fill="#ff7f2a" d="M70.053 108.306c-.49.343-1.219 1.072-1.677 2.115-.46 1.042-.647 2.395-1.366 3.74-.718 1.343-1.967 2.676-3.447 3.874-1.48 1.2-3.187 2.26-4.875 3.115-1.688.855-3.354 1.5-3.739 1.833-.385.334.51.355 1.437.178.927-.178 1.886-.553 2.823-.99a20.143 20.143 0 0 0 2.677-1.49 18.34 18.34 0 0 0 2.26-1.813 22.912 22.912 0 0 0 1.98-2.062 14.206 14.206 0 0 0 1.437-2.042 9.585 9.585 0 0 0 .875-2.03c.23-.748.416-1.627.656-2.303.24-.676.532-1.157.865-1.52.333-.365.71-.616.772-.76.062-.146-.188-.188-.678.155z"/>
    <path fill="#ffb380" d="M224.221 242.143c-6.868 2.22-16.104 3.103-21.15-1.635-2.182-3.152-3.267-6.917-1.366-13.388.984-2.684 5.94-5.369 10.067-8.054 8.907-5.706 5.976-17.492 23.107-22.436 4.492-.394 12.182 1.041 12.846 9.57.058.74.344 1.46.916 2.338 3.18 4.881 2.296 8.897 1.623 10.75-.849 2.34-1.94 4.416-3.386 6.65-.836 2.777-2.539 5.24-4.296 7.326-1.787 2.122-4.446 4.392-7.379 6.051-2.615 1.48-4.813 2.36-10.983 2.828z"/>
    <path fill="#ff7f2a" d="M101.733 74.586L77.97 83.131l-.137 22.373-6.77 7.11c-4.856-10.668-6.044-26.005 5.165-35.659 4.922-4.24 15.82-5.856 25.506-2.369z"/>
    <path d="M101.733 74.586L77.97 83.131l-.137 22.373-6.77 7.11c-4.856-10.668-6.044-26.005 5.165-35.659 4.922-4.24 15.82-5.856 25.506-2.369z" opacity=".75"/>
    <path fill="#fff" d="M66.513 115.566c-.68.776-2.037 2.326-3.408 3.437-1.37 1.111-2.75 1.776-3.162 2.115-.41.34.146.35 1.15-.16 1.001-.512 2.45-1.543 3.54-2.658 1.091-1.115 1.825-2.313 2.192-2.91.367-.6.367-.6-.312.176z"/>
    <path fill="#ff7f2a" stroke="#000" stroke-width=".174" d="M110.53 117.526c-9.465 4.62-25.913 5.593-35.823-6.21-8.369-9.969-14.487-32.744.64-45.773 8.16-7.03 31.785-7.294 41.836 9.284 7.336 12.098 5.713 36.66-6.654 42.698z"/>
    <path stroke="#000" stroke-width=".174" d="M110.53 117.526c-9.465 4.62-25.913 5.593-35.823-6.21-8.369-9.969-14.487-32.744.64-45.773 8.16-7.03 31.785-7.294 41.836 9.284 7.336 12.098 5.713 36.66-6.654 42.698z" opacity=".5"/>
    <path fill="#ff7f2a" d="M110.918 116.5c-10.044 3.89-23.675 4.15-33.767-7.872-8.522-10.15-13.64-33.357-1.356-42.42 8.826-6.513 32.084-8.01 42.32 8.87 7.47 12.321 5.872 36.357-7.197 41.42z"/>
    <path fill="#ffb380" d="M110.53 108.004c-9.465 4.62-21.235.91-28.79-6.21-3.44-3.243-13.9-20.727-4.196-32.73 6.771-8.376 29.587-10.81 39.64 5.767 7.335 12.098 5.712 27.135-6.656 33.173z"/>
    <path fill="#ffb380" d="M103.763 103.216c-8.917-.212-17.14-6.907-20.978-14.425-1.748-3.424-4.75-19.02 6.6-23.74 7.92-3.294 26.778 3.138 29.73 17.97 2.155 10.827-3.697 20.475-15.35 20.197z"/>
    <path fill="#ffe6d5" d="M92.643 75.086c.75 2.188 3.792 4.605 6.875 8.625s6.208 9.646 9.188 11.125c2.98 1.48 5.813-1.188 6-5.645.187-4.457-2.272-10.709-6-14.375-3.729-3.666-8.73-4.75-12-4.313-3.27.437-4.813 2.395-4.063 4.583z"/>
    <path fill="#ffb380" d="M97.885 109.96c1.48.04 4.44.118 7.525.16 3.084.041 6.294.046 8.333.231 2.038.185 2.907.55 2.731 1.497-.176.948-1.397 2.482-2.144 3.758-.747 1.277-1.02 2.294.357 1.875 1.377-.419 4.394-2.27 5.864-5.29 1.47-3.02 1.39-7.212 1.28-8.916-.108-1.704-.247-.92-.664-.472-.417.45-1.117.565-1.332-.264-.216-.83.052-2.598.375-4.279.322-1.68.7-3.27.592-4.807-.107-1.538-.707-3.04-2.279-1.913-1.572 1.128-4.122 4.88-8.908 7.391-4.786 2.512-11.805 3.782-15.456 5.022-3.65 1.24-3.933 2.45-2.997 3.44.937.99 3.09 1.76 4.166 2.144 1.076.385 1.076.385 2.557.424z"/>
    <path fill="#ff7f2a" d="M83.88 126.798c-2.052-1.202-4.487-3.118-6.437-5.285-1.95-2.166-3.415-4.58-4.43-6.564-1.015-1.984-1.584-3.537-1.436-3.77.15-.233 1.013.853 2.183 2.185 1.17 1.333 2.645 2.91 4.57 4.913 1.925 2.001 4.3 4.425 6.195 6.277 1.896 1.853 3.314 3.133 3.19 3.531-.122.4-1.785-.086-3.836-1.287z"/>
    <path fill="#fff" d="M82.193 125.317c-.195.033-1.466-.634-2.727-1.644-1.26-1.01-2.51-2.365-3.505-3.683-.995-1.318-1.735-2.599-1.433-2.454.303.145 1.646 1.716 2.837 3a49.621 49.621 0 0 0 3.185 3.15c.958.866 1.838 1.598 1.643 1.631zM102.64 72.73c.598.175 1.795.524 3 1.655 1.205 1.13 2.42 3.045 2.79 4.684.367 1.638-.11 3-1.543 2.688-1.432-.312-3.813-2.297-5.355-4.102-1.542-1.804-2.244-3.427-2.02-4.246.225-.82 1.378-.836 1.954-.845.575-.008.575-.008 1.174.166z"/>
    <path fill="#ffe6d5" d="M49.333 69.536c-.325-.885-1.944-1.605-4.655-1.128-2.71.476-6.51 2.148-8.843 4.692-2.334 2.544-3.2 5.958-2.167 8.02 1.033 2.06 3.962 2.768 6.248 2.207 2.286-.562 3.93-2.392 5.122-4.403 1.192-2.01 1.935-4.205 2.792-5.827.857-1.623 1.828-2.676 1.503-3.56zm-1.09 41.73c-.343-.328-1.555-.516-2.87-.995-1.316-.48-2.734-1.25-3.54-1.258-.808-.008-1.003.748-.84 1.584.165.837.688 1.752 1.554 2.317.865.564 2.07.776 2.96.653.888-.123 1.457-.58 2.005-1.042.548-.462 1.074-.93.731-1.259zm41.19-61.31c.767 1.07.767 2.636-1.04 3.771-1.806 1.135-5.415 1.838-8.74 1.758-3.324-.08-6.36-.942-6.742-2.125-.383-1.183 1.885-2.685 4.441-3.676 2.556-.99 5.402-1.47 7.59-1.422 2.19.048 3.724.624 4.491 1.694z"/>
    <path fill="#fff" d="M105.733 57.226c1.246.895 2.493 2.077 3.324 3.355.83 1.278 1.246 2.653 1.054 3.148-.19.496-.99.113-1.806-.719-.815-.83-1.646-2.109-2.636-3.132-.99-1.023-2.14-1.79-2.78-2.54-.64-.752-.768-1.487-.209-1.55.56-.065 1.807.543 3.053 1.438z"/>
    <path fill="#f95" d="M203.098 213.543c-4.54-.306-7.82-3.562-13.315-8.502-5.495-4.94-13.16-11.53-19.79-17.472-6.63-5.943-12.202-11.218-16.093-15.66-3.89-4.442-6.102-8.048-4.937-8.298s5.703 2.857 10.627 6.23c4.923 3.375 10.231 7.02 17.146 13.915 6.915 6.897 15.436 17.047 22.785 21.722 7.35 4.675 13.522 3.873 13.714 4.796.192.924-5.598 3.574-10.137 3.27z"/>
    <path fill="none" stroke="#000" stroke-width=".15" d="M167.6 142.656c-6.256-9.086-38.032 13.97-29.29 26.711"/>
    <path fill="#fff" d="M165.751 135.856c.096.4.288 1.198-.16 1.614-.447.416-1.533.448-2.476.064-.944-.384-1.742-1.182-2.717-1.566-.974-.383-2.124-.35-2.828-.575-.704-.224-.96-.703-.48-1.199.48-.495 1.695-1.007 2.94-1.007 1.246 0 2.526.512 3.468.976a14.168 14.168 0 0 0 1.854 1.086c.303.208.303.208.4.607zm-12.238-1.04c.041.094-.094.28-.34.502-.533.481-1.72 1.216-3.283 2.223-.256.132-.5.247-.686.257-.343.02-.483-.327-.062-.77.315-.33.944-.716 1.19-.993.42-.223.862-.462 1.195-.62 1.357-.65 1.917-.755 1.986-.599zm-13.09 9.252c.053.334-.034.896-.258 1.426-.05.116-.116.216-.176.328l-.117.135c-.886 1.135-1 1.364-2.135 2.658-1.133 1.294-2.475 2.123-3.068 2.107-.593-.015-.433-.878.734-2.588.653-.956 1.662-2.188 2.95-3.515.254-.194.516-.403.728-.56.457-.34.681-.444.89-.44.207.004.4.115.452.45z"/>
    <path fill="#f95" d="M127.763 143.706c-.048.543-1.646-.208-3.285-1.04-1.64-.83-3.314-1.74-6.175-3.882-2.862-2.142-6.903-5.513-9.559-8.59-2.655-3.076-3.922-5.857-3.482-6.4.44-.543 2.585 1.152 4.433 2.941 1.848 1.79 3.398 3.676 5.092 5.354 1.694 1.678 3.532 3.148 5.226 4.346 1.694 1.2 3.244 2.126 4.77 3.508 1.525 1.382 3.028 3.22 2.98 3.763z"/>
    <path fill="#fca" d="M107.963 132.746c-.678-.1-2.01-.756-2.824-1.74-.814-.984-1.082-2.186-.89-2.694.193-.508.858-.268 1.675.461.818.73 1.79 1.95 2.265 2.786.474.836.452 1.288-.226 1.187z"/>
    <path fill="#ffe6d5" d="M144.983 127.136c-2.596-1.518-3.523-1.822-5.234-1.99-1.71-.167-4.202-.2-5.209.552-1.007.75-.528 2.283-.064 4.218.463 1.934.91 4.265.127 5.05-.783.783-2.795.016-4.324-1.967-1.528-1.983-2.57-5.179-4.854-7.192-2.285-2.013-5.813-2.843-6.85-4.185-1.037-1.343.417-3.196 2.327-3.372 1.91-.175 4.274 1.327 6.152 1.68 1.878.35 3.268-.449 3.58-1.887.31-1.439-.457-3.516-2.454-6.743-1.996-3.227-5.223-7.604-4.237-7.067.986.536 6.176 5.977 9.96 9.774 3.782 3.797 6.134 5.926 9.6 9.001 3.463 3.075 8.036 7.093 8.19 7.736.153.642-4.113-2.09-6.71-3.608z"/>
    <path fill="#fff" d="M133.093 114.466c1.47 1.502 3.26 3.244 4.474 4.546 1.215 1.303 1.854 2.165 1.31 2.445-.542.28-2.268-.024-3.467-.87-1.199-.849-1.87-2.238-2.469-3.509-.6-1.27-1.127-2.42-1.718-3.507-.59-1.086-1.246-2.11-.999-1.99.248.12 1.4 1.383 2.87 2.885z"/>
    <path fill="#ffe6d5" d="M174.74 154.206c-1.435-2.022-4.045-4.719-6.937-6.002-2.892-1.283-6.067-1.153-8.372.457-2.306 1.61-3.74 4.696-3.436 6.763.305 2.067 2.348 3.11 4.393 2.762 2.044-.348 4.09-2.089 6.806-2.197 2.717-.109 6.111 1.414 7.677 1.5 1.565.087 1.304-1.26-.13-3.283z"/>
    <path fill="#ff7f2a" d="M244.451 216.014a9.1 9.1 0 0 0-.06.797c-.272 2.271-1.447 5.75-3.22 8.61-1.775 2.86-4.147 5.096-6.542 6.34-2.396 1.242-4.813 1.49-6.43 2.235-1.617.746-2.43 1.99-3.412 2.961-.983.972-2.135 1.671-3.516 1.92-.982.178-2.029-.143-3.054.112-.715.177-1.53.396-1.63.55-.644 1.006.956 1.44 2.561 1.678 1.606.237 4.384.125 7.016-.19 2.632-.318 5.12-.839 8.283-2.025 1.096-.41 2.215-.87 3.248-1.289a27.617 27.617 0 0 0-2.49 1.602c-2.615 1.48-4.815 2.36-10.984 2.828-6.868 2.22-16.103 3.103-21.148-1.635-2.183-3.153-3.267-6.918-1.365-13.389.984-2.685 5.938-5.368 10.066-8.053 8.906-5.706 5.975-17.492 23.107-22.436.7-.06 1.484-.07 2.302-.023.467.117.898.256 1.23.428.702.364 1.043.812.99 1.232a.798.798 0 0 0-.188.406c-.43.52-1.58.927-2.723 1.063-1.142.136-2.27 0-4.033.611-1.764.61-4.159 1.966-6.125 3.785-1.967 1.82-3.502 4.1-4.825 6.416a61.69 61.69 0 0 1-1.978 3.795c-.45.788-.945 1.578-1.512 2.297-1.193 1.514-2.782 2.79-4.78 4.287-2 1.498-4.6 3.374-6.329 5.361-1.728 1.988-2.588 4.092-2.713 6.34-.124 2.25.518 5.392 1.332 6.682.814 1.29 3.734 1.283 4.14.932.204-.175-2.088-.622-2.449-1.494-.148-.359 1.563-.424 1.163-1.778-1.696-5.73-.195-8.114 2.421-10.85.902-.928 2.04-1.722 3.258-2.359a20.514 20.514 0 0 0 3.19-1.322c.658-.2.664-.112.256.156-.409.267-1.218.704-2.18 1.404-.962.7-2.064 1.658-3.037 2.82-.973 1.16-1.812 2.521-2.36 3.878a13.538 13.538 0 0 1-.894 3.677c-.03.32-.033.544-.043.79.124.43.236.767.406.937.365.363.606.484 1.15.72.356.156 1.446.441 2.092.46.402-.234.74-1.715.743-1.727.328-1.086.677-2.283 2.203-4.069 1.525-1.785 3.516-3.75 5.945-4.834 2.43-1.084 5.3-1.288 8.857-3.683 3.56-2.395 7.808-6.984 10.09-9.108 2.282-2.123 2.6-1.786 3.075-1.085.415.612.95 1.503.896 3.238z"/>
    <path stroke="#000" stroke-width=".15" d="M230.777 231.047c.02.321-.444.72-.844 1.023-.64.486-1.139.74-1.502.873s-.63.163-.998.325c-.368.161-.839.455-1.51.578-.674.123-1.549.074-2.697.334-1.148.26-2.582.831-3.45 1.398-.87.567-1.196 1.14-1.6 1.514-.406.373-.893.55-1.592.705-.7.155-1.615.288-2.387.611-.773.324-1.414.847-1.533 1.283-.12.437.265.8.554 1.014.29.215.48.28.918.408.44.13 1.128.325 1.866.49a26.823 26.823 0 0 1 2.22.4c.7.094 1.315.146 2.024.177.708.03 1.51.04 2.261.023.678-.014 1.261-.046 1.698-.056-6.867 2.216-16.09 3.096-21.133-1.64-2.183-3.152-3.267-6.917-1.366-13.388a3.79 3.79 0 0 1 .266-.56c-.243 1.806-.49 5.45-.344 6.48.193 1.24.236 2.574.924 4.197 1.713 4.037 4.568 4.24 5.97 4.242 1.092.003 2.82-1.622 2.362-1.982-.456-.36-1.995-.262-2.195-.469-.2-.207 1.255-.59 1.498-.842.243-.25-.285-.448-.846-1.142-.407-.504-.735-1.803-.77-2.178-.024-.235.16-.146.436.041-.003.08-.01.178-.013.258.124.43.236.768.406.937.364.363.605.485 1.148.721.358.155 1.447.441 2.094.46.402-.234.74-1.716.742-1.727.13-.427.283-.884.49-1.373a5.44 5.44 0 0 0 .674-.53c1.612-1.058 4.598-1.997 7.766-2.564s6.52-.764 7.79-.498c.478.1.662.264.673.457z" opacity=".5"/>
    <path fill="#ffb380" stroke="#000" stroke-linecap="round" stroke-linejoin="round" stroke-width=".15" d="M215.497 235.975c.957 1.027 1.944 1.441 3.661 2.271.977.037 2.336-.143 3.288-.61 1.457-.715 2.083-.864 3.322-2.712-.245-1.913-1.102-3.093-1.763-4.508l-5.695.915z"/>
    <path fill="#ff7f2a" d="M225.142 232.741c-.156.098-.319.2-.492.27-.457.184-.883.22-1.55.246-.669.025-1.573.04-2.35.203-.778.162-1.425.47-1.897.937-.472.468-.766 1.094-.71 1.621.054.528.46.954.692 1.223.234.27.298.38.41.174.11-.206.264-.726.754-1.252s1.312-1.057 2.12-1.36c.807-.302 1.598-.373 2.078-.347.48.026.647.15.652.347.005.197-.152.468-.23.604-.079.136-.079.137-.135.148-.057.011-.17.032-.235-.08-.065-.112-.08-.35-.302-.472-.224-.12-.66-.123-1.026-.086-.365.037-.659.11-.972.394-.314.284-.644.777-.72 1.143-.079.365.098.6.36.724.262.126.608.14.924.16.18.01.336.026.385.08-.15.071-.28.133-.45.218-.953.467-2.313.648-3.29.61-1.473-.71-2.402-1.14-3.243-1.89a2.848 2.848 0 0 1-.2-.592c-.01-.042-.006-.086-.013-.128l1.823-3.01c.856-.416 1.941-.694 3.007-.817 1.473-.169 2.902-.052 3.82.055.19.022.268.048.415.07.132.26.256.531.375.807z"/>
    <path fill="#ffb380" d="M210.548 236.822c1.198.36 2.477.956 4.61.475 1.444-.326.967-.734 1.537-1.542.57-.809 1.17-2.26 2.667-2.73 3.572-1.119 2.36.48 9.186-.474 3.816-.533 7.168-3.017 10.17-6.373 7.643-8.546 6.48-14.64 3.863-18.305-4.486-6.29-10.658-3.787-14.915-.068-4.988 4.36-3.19 7.658-8.88 13.153"/>
    <g fill="none" stroke="#000" stroke-width=".15">
        <path stroke-linecap="round" stroke-linejoin="round" d="M215.497 235.975c.957 1.027 1.944 1.441 3.661 2.271.977.037 2.336-.143 3.288-.61 1.457-.715 2.083-.864 3.322-2.712-.245-1.913-1.102-3.093-1.763-4.508l-5.695.915z"/>
        <path d="M224.221 242.143c-6.868 2.22-16.104 3.103-21.15-1.635-2.182-3.152-3.267-6.917-1.366-13.388.984-2.684 5.94-5.369 10.067-8.054 8.907-5.706 5.976-17.492 23.107-22.436 4.492-.394 12.182 1.041 12.846 9.57.058.74.344 1.46.916 2.338 3.18 4.881 2.296 8.897 1.623 10.75-.849 2.34-1.94 4.416-3.386 6.65-.836 2.777-2.539 5.24-4.296 7.326-1.787 2.122-4.446 4.392-7.379 6.051-2.615 1.48-4.813 2.36-10.983 2.828z"/>
        <path stroke-linecap="round" stroke-linejoin="round" d="M245.355 212.978c.773 1.286 1.445 2.761 1.75 4.77.555 3.663.337 6.185-.226 8.19m-33.562 14.917c1.78.62 5.108 1.72 10.904 1.288"/>
    </g>
    <path fill="#fca" d="M149.603 168.877c-.125-.813-1.25-2.604-1.938-4.02-.687-1.418-.938-2.46-.958-3.876-.02-1.416.187-3.21-.437-3.688-.624-.478-2.083.354-2.583 1.94-.5 1.583-.043 3.914.832 5.727.876 1.813 2.167 3.105 3.25 3.834 1.084.73 1.96.896 1.834.083z"/>
    <path fill="#ffe6d5" d="M191.081 168.545c2.038 2.604 1.194 5.871-.66 5.223-1.147-.4-2.438-1.092-3.417.89.093 2.194 2.157 6.437 2.63 7.997.474 1.56.66 3.156.127 2.946-.533-.21-2.13-1.388-3.529-2.685-1.296-1.61-2.737-2.72-3.788-3.904-.995-1.118-5.044-3.465-5.21-3.898-.248-.64 5.768-.87 6.562-1.323.473-1.146.245-2.632.241-4.163-.004-2.09-.679-3.687-.612-5.01.066-1.32.875-2.365 2.31-1.346 2.258 2.31 3.504 2.92 5.346 5.273z"/>
    <path fill="#fca" d="M204.98 179.414c1.827 1.618 3.632 3.328 3.696 4.787.064 1.46-1.612 2.67-3.13 3.044-1.518.375-2.873-.086-3.69-1.38-.817-1.292-1.094-3.415-1.405-5.407-.31-1.993-.654-3.856.1-4.023.753-.167 2.602 1.36 4.43 2.98z"/>
    <path fill="#fff" d="M169.017 151.716c-.273.34-.553.84-1.69.965-1.136.126-3.12-.124-3.834-.722s-.155-1.54 1.11-1.753c1.266-.213 3.243.303 4.097.65.854.345.59.521.317.86zm17.566 14.26c.648.411 1.31 1.148 1.282 1.906-.03.758-.75 1.54-1.4 1.126-.65-.414-1.223-2.017-1.193-2.775.03-.759.663-.67 1.311-.258z"/>
    <path fill="#f95" d="M220.006 221.922c-3.86 3.034-5.542 3.771-6.496 4.521-1.175.923-2.42 2.126-2.907 3.538-.327.946-.15 2.578.03 3.563.361 1.442.712 2.09 1.915 2.475 1 .32 2.112.063 2.775-.704.663-.767.957-2.267 1.518-3.328a4.225 4.225 0 0 0 2.254-2.02c.87-.338 1.784-.398 3.375-.324 1.59.074 3.856.28 5.654.06 1.798-.222 3.124-.87 4.922-1.827 1.798-.957 4.065-2.226 6.01-4.465 1.944-2.24 3.564-5.449 4.33-8.086.55-1.89-.44-4.06.611-4.707.167.347.665 2.218.568 3.463-.035 3.26-1.547 7.29-5.847 12.098-3.002 3.356-6.354 5.84-10.17 6.373-6.826.953-5.615-.645-9.188.474-1.498.47-2.096 1.92-2.666 2.73-.57.807-.093 1.216-1.537 1.542-2.133.481-3.42-.084-4.61-.475a2.634 2.634 0 0 1-1.148-.72c-.356-.386-.818-1.44-.857-2.355-.05-1.155.088-2.72.592-3.954.651-1.595 1.802-2.98 3.03-4.188 1.586-1.557 4.555-2.63 6.62-4.648a18.85 18.85 0 0 1 3.404-4.295 55.407 55.407 0 0 1 2.005-4.29c.587-1.446 1.66-2.757 2.882-4.027 1.714-1.589 3.598-2.957 5.905-3.78 1.993-.635 3.43-.65 4.588-.356-1.778.17-3.496.36-4.596 1.017-2.258 1.348-4.19 2.92-5.282 4.486-1.898 2.725-3.287 5.117-4.397 7.667-.987 2.268-2.02 3.546-3.287 4.542z"/>
    <path fill="none" stroke="#000" stroke-linecap="round" stroke-linejoin="round" stroke-width=".15" d="M210.548 236.822c1.198.36 2.477.956 4.61.475 1.444-.326.967-.734 1.537-1.542.57-.809 1.17-2.26 2.667-2.73 3.572-1.119 2.36.48 9.186-.474 3.816-.533 7.168-3.017 10.17-6.373 7.643-8.546 6.48-14.64 3.863-18.305-4.486-6.29-10.658-3.787-14.915-.068-4.988 4.36-3.19 7.658-8.88 13.153"/>
    <g fill="#ffe6d5">
        <path d="M238.607 207.974c1.554.56 2.467 1.768 2.585 3.94.118 2.173-.56 5.31-2.305 7.675-1.746 2.365-4.559 3.956-7.918 4.928-3.36.973-7.262 1.326-7.998.162-.737-1.165 1.693-3.845 3.836-6.946 2.143-3.1 4-6.622 6.025-8.426 2.026-1.804 4.221-1.893 5.775-1.333zm7.108 14.288c-.544.206-1.428 1.208-2.57 2.962-1.143 1.754-2.54 4.256-4.45 5.98-1.907 1.724-4.322 2.667-5.177 3.595-.855.928-.148 1.841 1.326 1.708 1.474-.132 3.712-1.31 5.215-2.283 1.503-.973 2.268-1.739 3.093-2.857.824-1.12 1.71-2.594 2.305-4.008.596-1.413.906-2.77.958-3.742.05-.97-.155-1.56-.7-1.355zm-28.342 6.978c.386-.778.46-1.598.166-2.096-.294-.497-.959-.674-1.74-.387-.78.287-1.675 1.036-2.3 2.1-.626 1.062-.98 2.436-.635 2.944s1.584.08 2.503-.484c.92-.564 1.62-1.3 2.006-2.077z"/>
        <path d="M246.093 210.24c.281-.594.677-1.49.92-2.504.241-1.014.337-2.244.015-3.452-.323-1.207-1.062-2.443-1.827-3.342-.764-.898-1.556-1.46-2.608-1.586-1.052-.125-2.364.187-3.792.635s-2.968 1.03-4.448 1.5c-1.48.47-2.895.823-4.427 1.75-1.532.927-3.176 2.426-4.333 3.708-1.157 1.281-1.823 2.343-1.666 2.457.157.115 1.135-.718 2.041-1.54.906-.823 1.74-1.636 2.687-2.365.948-.729 2.011-1.375 3.188-1.823 1.177-.448 2.47-.697 4.02-.729 1.552-.03 3.366.157 4.803.73a7.185 7.185 0 0 0 3.187 2.5c.687.968 1 1.947 1.208 2.822.208.875.313 1.646.448 1.885.136.24.303-.052.584-.646zm3.958 4.188c-.136-.844-.386-2.115-.76-3.05a6.136 6.136 0 0 1-1.22-1.918c-.343-.375-.53-.52-.77-.26s-.53.926-.656 1.624c-.125.7-.084 1.427.271 2.063.355.636 1.02 1.177 1.458 1.791.437.615.645 1.302.917 1.552s.605.063.76-.239c.156-.3.135-.72 0-1.563z"/>
    </g>
    <path fill="#fff" d="M245.322 202.95c.177.655.448 1.468.386 1.906-.062.437-.458.5-1.022.082-.564-.418-1.29-1.31-2.353-1.842-1.062-.532-2.458-.698-3.635-.782-1.178-.083-2.135-.083-1.968-.407.168-.323 1.458-.968 2.707-1.385 1.25-.416 2.46-.604 3.375-.437a2.927 2.927 0 0 1 1.895 1.198c.355.51.438 1.01.615 1.666zm-6.02 8.436c.051.906-.01 2.156-.959 3.594-.949 1.438-2.78 3.062-4.656 4.01-1.875.95-3.79 1.22-4.333.218-.542-1 .291-3.27 1.447-5.082 1.157-1.812 2.637-3.167 4.042-3.885 1.406-.719 2.74-.802 3.49-.563.75.24.916.802.968 1.708zm5.416 14.98c-.052.718-.74 2.072-1.427 2.75-.688.678-1.375.678-1.322-.043.052-.72.843-2.156 1.53-2.832.687-.677 1.271-.593 1.22.125zm3.906-14.782c0 .375.02.854-.209.99-.229.136-.707-.072-.874-.552-.167-.48-.02-1.23.218-1.5.24-.27.574-.062.73.177.156.24.135.51.135.885z"/>
    <path fill="#ffe6d5" d="M215.951 221.754c.582-.45.758-.833.597-1.126-.16-.294-.664-.5-1.305-.339-.64.162-1.42.692-2.512 1.562-1.09.87-2.488 2.076-3.608 3.358s-1.96 2.636-2.047 3.263c-.087.627.574.523 1.266-.102.692-.625 1.414-1.777 2.261-2.72.847-.942 1.82-1.679 2.8-2.305.978-.625 1.966-1.14 2.548-1.59z"/>
    <path fill="#fff" d="M216.665 228.398c-.088.17-.265.508-.604.67-.34.163-.839.148-1.03-.074-.192-.222-.075-.648.198-.957.272-.309.7-.5.98-.45.278.052.411.347.478.495.066.147.066.147-.022.316z"/>
    <path fill="none" stroke="#000" stroke-width=".15" d="M224.541 235.544c.157-.272.313-.543.308-.74-.005-.197-.172-.322-.652-.349-.479-.026-1.27.047-2.077.35-.807.303-1.63.832-2.12 1.358-.49.526-.646 1.046-.536 1.307.11.261.484.261.858.261"/>
    <g>
        <path fill="#fff" d="M225.5 234.717c-.027.065-.079.195-.15.145-.07-.05-.159-.278-.242-.452-.083-.174-.16-.294-.5-.33-.34-.037-.947.01-1.596.15-.649.141-1.34.375-1.91.703-.57.33-1.019.75-1.09.754-.074.005.227-.405.693-.759.465-.353 1.097-.65 1.747-.838a8.763 8.763 0 0 1 1.816-.297c.492-.03.805-.015.986.088.181.103.234.297.258.44a1.213 1.213 0 0 0 .015.284c-.002.047-.002.048-.028.112z"/>
        <path fill="#fca" d="M224.554 236.085c-.003.01-.008.03-.142.146-.134.115-.37.302-.657.458-.287.157-.609.271-.619.23-.01-.043.291-.24.575-.435.283-.195.55-.389.76-.592.21-.202.368-.417.373-.389.006.028-.14.3-.214.436-.074.136-.074.136-.076.146z"/>
        <path fill="#fff" d="M221.333 233.994c-.239.09-.718.273-1.125.61-.407.336-.74.824-.977.973-.237.15-.378-.044-.266-.346.113-.303.478-.714.998-1.005.52-.29 1.2-.464 1.68-.547.482-.083.77-.078.725-.026-.044.052-.42.15-.608.2-.188.05-.188.05-.427.141zM27.193 20.946c.074.28.088.5-.067.523-.155.022-.478-.154-.883-.412s-.89-.596-1.473-.803a3.14 3.14 0 0 0-2.01-.05c-.752.227-1.576.757-1.605.683-.03-.075.736-.75 1.538-1.127a4.302 4.302 0 0 0 2.342-.36c.7.088 1.26.34 1.606.633.346.294.478.633.552.913z"/>
        <path fill="#faa" d="M24.613 15.726c.34.611.825 1.51.332 2.063-.493.552-1.966.758-3.285 1.178-1.319.42-2.482 1.053-3.477 1.016-.995-.037-1.82-.743-2.055-1.944-.236-1.202.118-2.896 1.01-3.772.892-.876 2.32-.935 3.535-.765 1.215.17 2.217.567 2.813.928.597.36.788.685 1.127 1.296z"/>
        <path fill="#fff" d="M22.793 15.956c-.198.508-.7 1.053-1.326 1.142-.627.088-1.377-.28-1.605-.825-.229-.546.066-1.267.64-1.59.574-.325 1.43-.25 1.908.021.478.272.581.744.383 1.252zm4.53 7.36c.247.25.485.503.302.677-.182.174-.786.27-1.262-.003-.477-.273-.822-.913-.95-1.266s-.04-.42.186-.399a2.553 2.553 0 0 0 .91.313c.311.18.567.428.814.678z"/>
    </g>
    <g fill="none" stroke="#000" stroke-width=".15">
        <path d="M56.943 50.136c-4.026-2.019-8.36 3.244-6.793 6.93L24.448 31.003c-2.429-3.43 1.582-8.078 5.17-5.92zm-11.22 2.44c-1.557-4.156 3.427-7.446 6.363-6.894m-10.633 2.564c-1.557-4.156 3.3-7.148 6.236-6.596m-10.316 2.456c-1.557-4.156 3.224-6.822 6.16-6.27m-10.09 2.29c-1.557-4.156 3.23-6.436 6.165-5.884m-9.745 2.244c-1.557-4.156 2.641-6.627 5.577-6.075m-8.957 2.655c-1.557-4.156 2.257-6.65 5.193-6.1"/>
    </g>
    <g>
        <path fill="#fea" d="M52.193 50.346c.302-.18.847-.475 1.347-.662.5-.188.96-.27 1.345-.284.386-.014.703.037.836.037.132 0 .08-.05-.115-.22-.195-.17-.534-.457-.89-.774-.359-.317-.734-.663-1.095-.98a24.207 24.207 0 0 1-1.96-1.554c-.125.125-.248.25.015.698.263.45.906 1.21.97 1.865.063.655-.46 1.2-.704 1.546-.244.347-.207.494-.158.534.048.04.107-.026.41-.206z"/>
        <path fill="#fff" d="M55.063 49.126c-.14.011-.42.033-.74.11-.32.078-.68.21-.969.328-.287.118-.5.22-.47.161.03-.06.301-.28.584-.44.283-.163.58-.266.737-.35.158-.086.18-.153.12-.268-.063-.116-.213-.289-.356-.454-.144-.166-.284-.328-.262-.34.022-.01.207.13.383.27a25.727 25.727 0 0 0 .895.747 2.595 2.595 0 0 0 .188.192c.03.033.03.033-.11.044z"/>
        <path fill="#fea" d="M47.893 46.376c.29-.183.815-.484 1.3-.679a4.224 4.224 0 0 1 1.304-.309c.377-.023.688.02.817.016.13-.003.077-.052-.117-.213-.195-.16-.532-.432-.889-.733-.357-.3-.73-.63-1.09-.93a23.796 23.796 0 0 1-1.95-1.47c-.12.126-.237.25.03.681.268.432.914 1.16.991 1.797.078.638-.42 1.182-.649 1.526-.229.344-.19.487-.142.525.05.038.104-.028.395-.21z"/>
        <path fill="#fff" d="M50.663 45.116c-.136.014-.408.042-.72.126-.31.083-.659.22-.937.343-.278.122-.483.227-.455.168.028-.059.287-.28.56-.444.272-.165.558-.273.71-.36.152-.087.172-.152.11-.264-.063-.11-.214-.276-.358-.434-.144-.158-.285-.313-.263-.324.021-.012.204.12.38.253a25.15 25.15 0 0 0 .891.708c.1.087.16.15.188.182.03.032.03.032-.106.046z"/>
        <path fill="#fea" d="M43.643 42.096a8.21 8.21 0 0 1 1.212-.566 3.844 3.844 0 0 1 1.202-.228c.344-.006.626.045.744.048.118.002.073-.045-.098-.2-.17-.153-.467-.415-.78-.704-.313-.288-.64-.603-.957-.892-.317-.289-.619-.55-.903-.783-.284-.233-.549-.434-.814-.636-.114.11-.226.217 0 .621s.786 1.094.83 1.68c.045.583-.43 1.06-.654 1.364-.223.304-.193.436-.15.472.042.037.096-.02.368-.176z"/>
        <path fill="#fff" d="M46.243 41.076c-.136.008-.41.024-.725.093-.315.07-.668.191-.95.3-.284.11-.494.207-.463.15.03-.059.3-.268.578-.42.28-.152.57-.248.726-.327.156-.08.18-.145.121-.259-.057-.114-.2-.285-.337-.45-.137-.164-.27-.325-.249-.336.022-.01.2.13.37.27.168.14.331.28.48.41a10.775 10.775 0 0 0 .378.337c.095.092.151.158.18.191.027.033.027.033-.109.041z"/>
        <path fill="#fea" d="M39.803 38.126a9.25 9.25 0 0 0 1.085-.492 3.52 3.52 0 0 0 1.1-.208c.314-.006.572.041.68.044.108.002.066-.04-.09-.183-.156-.14-.428-.38-.713-.644-.286-.264-.587-.552-.876-.816a18.987 18.987 0 0 0-.826-.716 25.76 25.76 0 0 0-.745-.583c-.104.1-.206.2 0 .57.207.37.72 1 .76 1.534.04.535-.394.97-.598 1.25-.204.278-.177.398-.138.431.04.034.088-.019.112-.045.024-.026.024-.026.25-.142z"/>
        <path fill="#fff" d="M42.133 37.206c-.114.007-.342.02-.605.078-.263.058-.558.16-.794.25-.236.092-.412.172-.386.124.026-.048.25-.222.483-.35.233-.126.476-.206.606-.273.13-.066.15-.12.101-.215a2.51 2.51 0 0 0-.282-.376c-.115-.137-.225-.272-.207-.28.018-.01.166.108.308.225a20.476 20.476 0 0 0 .716.624c.08.076.127.131.15.16.024.026.024.026-.09.033z"/>
        <path fill="#fea" d="M35.763 34.506a9.25 9.25 0 0 0 1.085-.492 3.52 3.52 0 0 0 1.1-.208c.314-.006.572.041.68.044.108.002.066-.04-.09-.183-.156-.14-.428-.38-.713-.644-.286-.264-.587-.552-.876-.816a18.987 18.987 0 0 0-.826-.716 25.76 25.76 0 0 0-.745-.583c-.104.1-.206.2 0 .57.207.37.72 1 .76 1.534.04.535-.394.97-.598 1.25-.204.278-.177.398-.138.431.04.034.088-.019.112-.045.024-.026.024-.026.25-.142z"/>
        <path fill="#fff" d="M38.093 33.576c-.114.007-.342.02-.605.078-.263.058-.558.16-.794.25-.236.092-.412.172-.386.124.026-.048.25-.222.483-.35.233-.126.476-.206.606-.273.13-.066.15-.12.101-.215a2.51 2.51 0 0 0-.282-.376c-.115-.137-.225-.272-.207-.28.018-.01.166.108.308.225a20.476 20.476 0 0 0 .716.624c.08.076.127.131.15.16.024.026.024.026-.09.033z"/>
        <path fill="#fea" d="M31.883 30.616c.201-.104.603-.31.971-.44s.703-.182.985-.187c.281-.005.512.037.61.04.095.001.06-.037-.08-.164-.14-.126-.384-.34-.64-.577-.258-.237-.525-.494-.784-.73a18.29 18.29 0 0 1-1.406-1.163c-.093.09-.185.178 0 .51.185.331.643.895.68 1.374.036.48-.353.868-.536 1.118-.183.25-.158.357-.123.387.035.03.078-.018.1-.04.022-.024.022-.024.223-.128z"/>
        <path fill="#fff" d="M33.973 29.786c-.102.006-.306.018-.542.07-.236.052-.5.143-.71.224-.212.082-.369.154-.346.11.023-.042.224-.198.433-.312.208-.114.426-.185.542-.245.116-.06.134-.108.09-.193-.043-.085-.15-.213-.252-.336-.102-.123-.202-.244-.186-.25.017-.009.15.096.276.201a18.722 18.722 0 0 0 .642.558 1.893 1.893 0 0 0 .134.142c.02.025.02.025-.08.03z"/>
        <path fill="#fea" d="M29.043 26.866c.118-.06.352-.18.567-.257.215-.076.41-.106.575-.11.164-.002.3.023.355.024.057 0 .035-.02-.047-.095-.082-.074-.223-.2-.372-.337-.15-.138-.307-.289-.458-.427a9.663 9.663 0 0 0-.82-.678c-.055.052-.109.103 0 .297.107.194.375.523.396.802.021.28-.206.507-.313.653-.107.146-.092.208-.072.226.02.017.046-.01.06-.024.012-.014.011-.013.13-.074z"/>
    </g>
    <g fill="#fff">
        <path d="M30.263 26.386a1.92 1.92 0 0 1-.316.04c-.138.03-.292.084-.415.132-.124.048-.215.09-.202.064a.975.975 0 0 1 .253-.182c.123-.066.248-.108.316-.143.068-.035.078-.063.053-.113a1.285 1.285 0 0 0-.147-.196c-.06-.072-.118-.142-.109-.147a.802.802 0 0 0 .161.118 11.172 11.172 0 0 0 .375.326c.042.04.066.07.078.083.012.014.013.014-.047.018zm10.68 50.63c-.614 1.177-1.135 1.948-1.917 2.386-.782.438-1.822.542-2.354-.095-.532-.636-.553-2.01.125-3.238.678-1.228 2.053-2.313 3.198-2.855 1.146-.54 2.063-.54 2.167.25.105.79-.605 2.375-1.219 3.552zm45.6-26.74c.583.5.666 1.104.093 1.51-.573.407-1.8.615-3.124.49s-2.74-.583-2.708-1.188c.032-.604 1.51-1.354 2.791-1.53 1.28-.178 2.365.22 2.948.718z"/>
    </g>
    <g>
        <path fill="#ff2a2a" d="M141.033 139.826c-.286.298-.732.5-1.137.512-.75.021-1.335-.603-3.127-1.27-1.79-.666-4.788-1.376-6.623-2.605-1.834-1.23-2.5-2.979-2.959-5.063-.458-2.084-.708-4.502-1.666-5.418-.958-.916-2.625-.33-4.125.024-1.5.354-2.833.48-3.543-.46-.71-.939-.79-2.936-.75-5.187.041-2.25.208-4.752-.187-6.209-.396-1.457-1.354-1.874-2.79-2.603-1.439-.73-3.356-1.772-5.169-3.334-1.813-1.563-3.52-3.644-4.813-6.707-1.292-3.063-2.166-7.106-4.228-10.77-2.062-3.666-5.313-6.96-8.697-8.783-3.385-1.822-6.907-2.177-9.094-2.468-2.188-.292-3.04-.52-3.426-.96a.98.98 0 0 0-.174-.308c.548-.16 1.231-.07 1.992.05a58.475 58.475 0 0 0 4.803.958c1.797.442 3.77 1.03 5.685 2.017 1.915.987 3.772 2.374 5.348 3.891s2.874 3.167 3.817 4.434c.942 1.266 1.53 2.15 1.972 3.152.442 1.001.738 2.122 1.15 3.39a65.682 65.682 0 0 1 1.487 4.034c.545 1.355 1.105 2.653 1.871 3.92a22.616 22.616 0 0 1 2.52 3.357c.78.855 1.37 1.326 2.533 1.871 1.164.545 2.904 1.165 4.111 2.108 1.207.942 1.886 2.21 2.195 3.594.31 1.384.25 2.888.176 4.345-.074 1.458-.16 2.872.045 3.83.206.958.705 1.46 1.428 1.577.723.118 1.665-.146 2.652-.235.987-.089 2.02 0 2.785.31.766.31 1.266.838 1.678 1.56.412.721.737 1.635 1.076 2.77.34 1.133.693 2.49 1.135 3.712.442 1.222.972 2.313 2.062 3.168 1.09.855 2.74 1.472 4.243 1.943 1.503.472 2.857.797 4.021 1.18.663.218 1.23.45 1.723.674z"/>
        <path fill="#ff2a2a" d="M118.773 112.996c-.058.42-.41 4.63-.783 4.574-.373-.055-.764-4.375-1.059-4.508a1.214 1.214 0 0 0-.629-.1c-.507-.589-1.238-.938-2.18-1.415-.66-.335-1.43-.745-2.236-1.233.102-.036-3.115-2.358-2.78-2.39.586-.055 5.116 2.134 6.19 2.281 1.075.147 2.056.552 2.67 1.107.615.556.865 1.264.807 1.684z"/>
        <path fill="#ff8080" d="M104.753 94.236a4.625 4.625 0 0 0 1.885 1.218c.614.656 1.135 1.594 2.74 1.886 1.605.292 4.292-.063 6.416.291 2.125.355 3.688 1.417 4.896 3.125 1.208 1.708 2.062 4.063 2.99 6.355.927 2.292 1.926 4.52 2.937 5.864 1.011 1.344 2.032 1.803 2.542 2.302.51.5.51 1.041.197 1.25-.312.21-.936.084-1.29.021-.354-.062-.438-.062-.88-.547-.443-.485-1.225-1.432-2.08-2.797-.854-1.364-1.77-3.135-2.468-4.719-.698-1.584-1.177-2.979-1.78-4.176-.605-1.198-1.335-2.198-2.105-2.958-.77-.76-1.584-1.282-2.719-1.552-1.135-.27-2.593-.292-3.75-.26-1.156.03-2.01.113-2.917.072-.907-.042-1.864-.208-2.698-.667-.834-.459-1.542-1.208-2.073-2.073-.53-.865-.885-1.844-.854-2.333.032-.49.45-.49 1.011-.302z"/>
        <path d="M105.183 96.946c.405-.029 1.01.222 1.598.56.59.34 1.164.766 2.07 1.024.906.258 2.144.346 3.322.383 1.178.037 2.3.022 3.417.14 1.12.118 2.24.368 3.035.825.795.456 1.266 1.12 1.73 1.812.465.692.921 1.414 1.304 2.32.383.906.693 1.996.928 2.777.236.78.398 1.252.737 1.99a45.652 45.652 0 0 1 1.318 2.584 25.079 25.079 0 0 1 1.4 2.298c.523.76 1.156 1.584 1.665 2.048.51.464.891.567 1.164.64.272.074.435.12.23.23-.205.11-.782.286-1.328.28-.546-.008-1.06-.2-1.71-.886-.65-.686-1.428-1.863-2.142-3.122a44.27 44.27 0 0 1-1.952-3.934c-.589-1.334-1.12-2.659-1.62-3.756-.502-1.097-.973-1.967-1.525-2.607-.552-.64-1.186-1.053-1.945-1.392a7.716 7.716 0 0 0-2.784-.67c-1.142-.067-2.54.066-3.675.11-1.135.044-2.003 0-2.71-.14-.708-.14-1.253-.376-1.784-.87-.53-.494-1.046-1.244-1.2-1.775-.154-.53.052-.84.457-.869z" opacity=".5"/>
        <path fill="#ff8080" d="M170.824 173.147c.01.142-.09.17-.336.021-.656-.395-2.365-2.042-4.447-3.084-2.082-1.042-4.54-1.478-6.52-2.416-1.98-.937-3.48-2.374-4.595-3.875-1.115-1.5-1.843-3.062-2.567-5.14-.724-2.079-1.444-4.672-2.137-6.563-.692-1.89-1.358-3.077-1.29-4.052.067-.975.87-1.734 1.14-2.635.27-.9.01-1.943-.807-2.906-.817-.963-2.195-1.85-3.355-2.293a5.43 5.43 0 0 0-2.982-.295c-.875.145-1.678.436-2.272.494a1.7 1.7 0 0 1-.73-.072l-.03.003c-.75.022-1.335-.603-3.127-1.27-1.79-.666-4.789-1.375-6.623-2.605-1.834-1.23-2.5-2.978-2.959-5.062-.458-2.084-.708-4.502-1.666-5.418-.958-.916-2.625-.33-4.125.023-1.5.354-2.834.48-3.543-.459-.709-.939-.79-2.937-.75-5.187.041-2.25.208-4.752-.187-6.21-.396-1.456-1.354-1.874-2.79-2.603-1.439-.729-3.356-1.77-5.169-3.334-1.813-1.562-3.52-3.644-4.813-6.707-1.292-3.063-2.166-7.105-4.228-10.77-2.062-3.665-5.313-6.96-8.698-8.782-3.384-1.822-6.906-2.178-10.344-2.396-3.437-.22-6.784-.3-8.85-.51-2.068-.209-2.838-.54-1.17-1.01 1.666-.469 5.771-1.074 9.323-1.23 3.553-.157 6.551.136 9.176 1.074 2.625.937 4.874 2.52 6.978 4.25 2.105 1.73 4.065 3.604 5.543 5.603 1.48 2 2.48 4.125 3.25 6.354.771 2.23 1.312 4.564 2.02 6.355.708 1.792 1.585 3.04 2.543 4.27.958 1.23 2 2.438 3.353 3.334 1.354.896 3.022 1.48 4.272 2.187 1.25.707 2.084 1.543 2.396 2.688.312 1.145.104 2.604.041 4.375-.062 1.77.021 3.85.71 4.685.688.835 1.978.42 3.29.377 1.313-.04 2.648.292 3.522.791.874.5 1.291 1.168 1.791 2.96.5 1.79 1.082 4.707 2.582 6.624 1.5 1.918 3.916 2.834 5.875 3.71 1.54.687 2.785 1.35 3.394 1.964.166.022.311-.008.64-.08.426-.093 1.176-.22 1.843-.303.667-.083 1.25-.125 2.094-.03.844.093 1.947.322 2.957.843 1.01.52 1.926 1.335 2.728 2.293.802.958 1.492 2.064 1.565 3 .073.936-.47 1.707-.825 2.498-.355.791-.52 1.605-.384 2.45.135.843.573 1.717 1 3.103.427 1.385.843 3.282 1.384 5.21.542 1.925 1.208 3.882 2.23 5.424a10.016 10.016 0 0 1 3.74 3.356c1.344.688 2.656.937 3.927 1.29 1.27.355 2.5.814 3.582 1.563 1.083.75 2.021 1.793 2.687 2.74.417.593.728 1.148.743 1.385z"/>
        <path d="M170.595 173.145c-.002.013-.024.015-.068.004-.177-.044-.708-.28-1.43-.693-.722-.413-1.636-1-2.52-1.42-.883-.42-1.738-.672-2.74-1.026-1.002-.354-2.149-.81-3.129-1.156-.98-.346-1.79-.58-2.556-.912a9.28 9.28 0 0 0-2.188-1.326 10.368 10.368 0 0 1-2.04-2.24c-.662-.965-1.313-2.188-1.82-3.477-.509-1.289-.877-2.644-1.216-3.86-.339-1.214-.648-2.29-.928-3.292-.28-1.002-.53-1.93-.824-2.637-.294-.707-.633-1.192-.986-1.457-.353-.265-.722-.31-1.076-.37-.354-.058-.693-.13-.7-.353-.006-.222.318-.59.678-.928.36-.338.76-.648 1.031-1.127.272-.478.42-1.128.412-1.775a4.152 4.152 0 0 0-.486-1.893 5.374 5.374 0 0 0-1.252-1.533c-.464-.39-.92-.625-1.48-.816a7.205 7.205 0 0 0-1.856-.377c-.633-.037-1.237.038-1.937.185s-1.495.37-2.092.582c-.597.213-.995.42-1.21.33-.208-.086-.246-.45-.56-.816-.713-.12-1.368-.469-2.517-.94-1.349-.556-3.382-1.263-4.989-2.36-1.606-1.099-2.783-2.585-3.46-4.368-.678-1.783-.856-3.86-1.46-5.09-.603-1.23-1.634-1.612-2.753-1.51-1.12.103-2.325.69-3.358.64-1.033-.052-1.887-.743-2.314-1.657-.427-.914-.427-2.048-.412-3.44.015-1.392.044-3.04-.03-4.109-.073-1.067-.25-1.555-.398-2.137-.147-.582-.266-1.259-.59-1.796-.324-.538-.854-.936-1.53-1.422-.678-.486-1.504-1.06-2.233-1.553-.73-.494-1.362-.907-2.467-1.695-1.106-.789-2.682-1.952-3.809-3.485-1.127-1.532-1.804-3.43-2.408-5.17-.604-1.738-1.135-3.315-1.725-4.943-.589-1.628-1.237-3.307-2.283-5.074-1.045-1.768-2.488-3.625-4.035-5.069a15.814 15.814 0 0 0-2.732-2.043c.098-.123.195-.248.287-.38.205-.296.392-.62.57-.952 2.455 1.57 4.472 3.51 6.205 5.748 2.224 2.873 3.992 6.23 5.186 9.28 1.194 3.05 1.81 5.788 3.44 7.918 1.627 2.13 4.265 3.648 6.356 4.767 2.092 1.12 3.64 1.842 4.338 3.086.7 1.244.553 3.01.4 5.14-.153 2.13-.31 4.623.198 5.702.026.055.06.09.09.14.02-.006.037-.003.056-.013.186-.097.37-.465.487-.668.117-.203.158-.218.097.031-.06.25-.22.765-.302 1.024a1.237 1.237 0 0 1 .406.175.84.84 0 0 1 .42-.425c.088-.196.13-.445.19-.688.06-.243.14-.48.16-.53.02-.052-.017.08-.03.305a3.599 3.599 0 0 1 .047.807 2.34 2.34 0 0 1 .182.55c.313-.04.635-.102.95-.16 1.073-.2 2.045-.267 2.907-.005.862.262 1.614.851 2.5 2.422.886 1.57 1.905 4.124 3.01 5.922 1.105 1.798 2.296 2.837 4.07 3.843 1.352.767 2.901 1.456 4.15 2.026.102.017.212.037.32.05.27.027.483-.01.65-.074.166-.063.277-.147.347-.185.07-.038.094-.028.066.082-.018.074-.064.191-.103.3.246.001.485.017.646.067.055.017.088.043.127.067l.047.007c.073.014.122.005.162-.056.04-.06.07-.17.096-.239.027-.069.05-.087.033.01-.016.098-.068.312-.076.455-.003.05.001.082.004.116.024.044.045.098.08.126a.276.276 0 0 1 .13.055c.065-.01.142-.01.184-.037.077-.048.101-.115.12-.209.018-.094.028-.213.04-.205.013.008.03.142.088.21.058.07.156.07.272.063.014 0 .027 0 .041-.002.276-.123.591-.278 1.148-.353.654-.088 1.63-.06 2.733.338 1.104.397 2.342 1.164 3.21 1.908a8.149 8.149 0 0 0 1.733 2.063c.361.596.58 1.068.691 1.591a3.945 3.945 0 0 0-.007 1.635c-.118.538-.353 1.038-.5 1.451-.133.373-.187.664-.143.817.033.034.046.06.092.093a.972.972 0 0 0 .344.168c.11.025.191.013.193.03.002.016-.08.063-.15.117a.682.682 0 0 1-.204.248c-.057.107-.124.244-.19.36-.044.144-.09.293-.104.423.02-.002.025.008.052-.002.092-.032.222-.117.225-.068.003.048-.12.232-.19.42-.006.016-.006.028-.01.045.114.17.306.273.38.441.053.121.044.284.03.496.022.006.045.012.081-.002.094-.035.222-.148.316-.21.095-.063.15-.072.125-.008-.023.063-.13.204-.224.398-.095.194-.175.44-.248.61-.014.031-.028.04-.04.064.063.636.28 1.49.52 2.3.25.846.515 1.627.795 2.467.28.84.573 1.74 1.074 2.873.501 1.135 1.208 2.504 1.96 3.573a11.436 11.436 0 0 0 2.343 2.46 10.249 10.249 0 0 1 2.592 1.516c1.002.405 2.21.73 3.344 1.143a23.617 23.617 0 0 0 3.006 1.348c.81.434 1.37.802 1.93 1.28.56.48 1.12 1.07 1.488 1.438.276.277.445.427.437.467z" opacity=".5"/>
    </g>
    <g fill="#ffd5d5">
        <path d="M103.403 91.156c.365.885.594 1.76.302 1.74-.292-.02-1.104-.937-2.03-2.354-.928-1.417-1.97-3.334-1.928-3.76.041-.428 1.167.635 1.98 1.614a10.417 10.417 0 0 0 1.676 2.76zm-12.8-11.99c.084.27-.02.541-.439.447-.418-.094-1.144-.55-1.227-.82-.083-.272.48-.356.895-.262.416.093.687.365.771.635zm27.87 32.61c.22.333-.072.333-.856-.116-.784-.45-2.05-1.342-2.27-1.675-.22-.333.616-.105 1.396.343.781.448 1.51 1.115 1.73 1.448zm.46.51c-.022.132-.066.397.015.634s.287.442.39.383c.103-.06.103-.384.03-.667-.074-.283-.222-.526-.302-.6-.08-.075-.096.021-.104.07zm.89 9.47c-.11.29-.258.814-.224 1.028.033.213.247.118.356-.172.11-.29.118-.779.085-.992-.032-.214-.106-.155-.217.136zm.55.74c.007.114.022.342-.04.468s-.202.147-.209.032c-.007-.116.117-.364.18-.489.062-.125.062-.125.07-.01zm.73.29c-.077.026-.23.077-.235.188-.004.112.142.28.677.28s1.455-.17 2.357-.13c.901.041 1.786.292 2.368.616.581.324.861.722 1.105.917.243.195.45.188.53.015.08-.172.036-.513-.114-.777a1.209 1.209 0 0 0-.619-.527c-.21-.07-.37-.019-.578-.03-.207-.01-.456-.084-.888-.198-.432-.115-1.042-.269-1.598-.328s-1.056-.022-1.536-.015c-.479.007-.935-.014-1.163-.025-.228-.01-.23-.01-.306.014zm13.22 12.69c-.08.088-.567.015-1.076-.362-.51-.376-1.039-1.052-.957-1.14.08-.09.773.412 1.281.787.508.376.833.627.752.715zm-29.46-40.44c.104.208.312.625.745 1s1.09.71 1.594 1c.505.292.86.542.812.417-.047-.125-.495-.625-.875-1.063-.38-.438-.693-.812-1.026-1.078a2.709 2.709 0 0 0-.916-.484c-.229-.063-.333-.032-.385-.016-.053.016-.053.016.05.224zm13.45 3.75c-.224-.135-.672-.406-1.25-.599-.578-.193-1.286-.307-1.99-.365-.703-.057-1.4-.057-1.853-.005-.453.052-.66.156-.582.293.08.137.441.302.998.328.557.025 1.308-.09 2.026-.068a5.865 5.865 0 0 0 1.896.37c.49.192.781.422.911.458.13.036.1-.12.083-.198-.015-.078-.015-.078-.239-.213zm10.33 16.66c-.052.057-.156.171-.482-.028-.325-.2-.862-.706-1.33-1.284a9.978 9.978 0 0 0-1.069-1.626c-.203-.4-.213-.557.025-.288.238.27.73.971 1.184 1.497.454.526.87.88 1.15 1.13.28.25.428.396.5.47.074.072.074.072.022.13zm-5.51-8.86c.125.312.25.667.23.787-.022.12-.188.006-.313-.308-.125-.313-.209-.823-.188-.943.021-.12.146.152.271.464z"/>
    </g>
    <g>
        <path fill="#ff8080" d="M91.173 80.686c.01.563.156 1.333-.177 2.668-.334 1.334-1.146 3.228-2.427 6.562-1.282 3.335-3.03 8.103-2.906 11.676.125 3.574 2.124 5.95 4.74 7.688 2.616 1.74 5.843 2.844 8.051 4.031 2.208 1.188 3.396 2.46 3.73 3.292.334.833-.187 1.23-.333 1.48-.146.251.083.354.5.28.416-.072 1.021-.323 1.031-1.01.01-.685-.574-1.813-1.324-2.77-.75-.959-1.666-1.75-2.78-2.417-1.114-.667-2.428-1.208-3.897-1.896-1.469-.688-3.093-1.52-4.469-2.844-1.376-1.324-2.5-3.136-2.916-5.302-.416-2.166-.125-4.689.385-6.824s1.24-3.885 1.98-5.635 1.49-3.5 2.063-4.573c.573-1.073.97-1.469 1.104-2.05.135-.584.01-1.356-.386-1.99-.395-.636-1.063-1.136-1.458-1.21-.396-.073-.52.28-.51.844z"/>
        <path fill="#f55" d="M103.383 117.356c-.01.686-.617.937-1.033 1.01-.417.073-.644-.03-.498-.28.146-.252.666-.647.332-1.48s-1.523-2.104-3.73-3.29c-2.209-1.188-5.437-2.292-8.052-4.032-1.1-.732-2.078-1.586-2.867-2.584.072.083.138.171.215.25.6.615 1.38 1.062 1.975 1.195.594.133.996-.049 1.252-.226.113-.08.188-.156.25-.225 1.306 1.161 2.793 1.94 4.154 2.578 1.47.688 2.782 1.23 3.897 1.897 1.114.666 2.031 1.458 2.78 2.416.75.958 1.335 2.085 1.325 2.771z"/>
        <path d="M102.863 117.266a.67.67 0 0 0-.02.188c-.067.243-.289.463-.45.61-.163.148-.266.223-.415.245-.148.022-.338-.007-.404-.11-.066-.106-.007-.28.066-.509.074-.228.162-.51.008-.899-.154-.388-.552-.89-1.03-1.347a9.222 9.222 0 0 1-1.673-1.244c-.633-.376-1.34-.714-2.203-1.09-.862-.376-1.878-.79-2.969-1.283-1.09-.494-2.254-1.067-3.36-1.81a20.418 20.418 0 0 1-2.923-2.433c-.773-.773-1.273-1.405-1.685-2.238a8.283 8.283 0 0 0-.827-2.963c-.088-1.097.06-2.262.34-3.6.28-1.34.693-2.859 1.156-4.486.464-1.627.98-3.368 1.51-4.885s1.076-2.814 1.48-3.875c.404-1.06.672-1.884.532-2.472-.076-.322-.272-.573-.455-.797-.034-.014-.063-.03-.098-.043-2.21-.884-4.979-1.62-6.654-1.857-1.675-.236-7.727-.41-8.262-.442-.535-.033-4.8-.269-5.054-.78-.255-.514.284-.176.318-.61.033-.435 8.81-1.3 11.006-.846 2.196.454 6.496 1.537 9.986 3.271.44.22.853.46 1.266.7.206.176.182.353.236.458 0 .15-.013.332-.066.555-.096.406-.316.92-.737 1.85-.42.93-1.037 2.265-1.789 4.02-.75 1.753-1.635 3.917-2.254 5.655-.618 1.74-.97 3.05-1.185 4.295-.214 1.246-.289 2.423-.053 3.573s.781 2.27 1.393 3.212c.612.942 1.29 1.708 2.078 2.364.788.656 1.686 1.201 2.6 1.724a40.88 40.88 0 0 1 2.915 1.532c1.076.508 2.3 1.024 3.243 1.517a11.56 11.56 0 0 1 2.172 1.444c.567.48 1.038.964 1.377 1.435a6.104 6.104 0 0 0 .693 1.29c.11.27.187.487.191.68z" opacity=".5"/>
    </g>
    <g fill="#ffd5d5">
        <path d="M91.983 80.326c.1-.096.3-.288.555-.24.257.048.575.336.745.756.17.42.191.971.154 1.413-.036.443-.132.773-.353 1.231-.22.458-.567 1.038-.899 1.631-.33.594-.647 1.197-.688 1.152-.04-.045.195-.736.453-1.435.258-.699.538-1.408.63-2.004.091-.596-.005-1.083-.155-1.41-.15-.327-.358-.497-.457-.637-.1-.14-.092-.25-.089-.306.004-.055.004-.055.104-.15zm-3.91 23.16c-.104-.203-.24-.4-.359-.422-.12-.022-.223.135-.15.528.073.393.321 1.014.785 1.697.464.682 1.14 1.421 1.59 1.864.447.443.666.59.494.297-.172-.292-.735-1.02-1.152-1.65a11.758 11.758 0 0 1-.859-1.533c-.172-.37-.245-.578-.349-.78zm12.38 9.8c-.129-.055-.527-.328-1.1-.64-.576-.314-1.327-.667-1.62-.874-.295-.206-.133-.265.127-.196.26.07.623.27 1.046.531.424.262.91.586 1.223.83.313.244.453.404.324.35zm2.77 4.22c-.04.07-.12.21-.155.175-.033-.034-.018-.238-.01-.455a1.672 1.672 0 0 0-.137-.787c-.143-.34-.43-.8-.487-.929-.055-.129.122.07.288.332a3.996 3.996 0 0 0 .41.861c.087.276.11.504.12.62.011.114.011.114-.029.183z"/>
    </g>
    <g>
        <path fill="#ff8080" d="M210.934 195.82c.236.162.707.486 1.252.648.546.162 1.165.162 1.893-.177.73-.338 1.57-1.017 2.336-1.65.765-.633 1.458-1.223 2.364-1.606.905-.382 2.026-.56 3.034-.427a5.113 5.113 0 0 0 2.563 1.12c.655.545 1.068 1.193 1.827 1.85.76.655 1.864 1.318 2.615 1.664.752.346 1.15.375 1.136.427-.015.051-.443.125-.886.058-.443-.066-.898-.272-1.45-.574-.554-.302-1.2-.7-1.798-1.134-.597-.435-1.142-.906-1.569-1.274-.427-.369-.736-.634-1.127-.847a3.94 3.94 0 0 0-1.377-.442 4.814 4.814 0 0 1-1.642.088 6.497 6.497 0 0 1-1.672.633c-.53.288-1.016.64-1.54 1.076-.523.435-1.082.95-1.7 1.34-.62.39-1.297.656-1.813.766-.516.11-.869.067-1.193.037-.325-.03-.619-.044-.863-.332-.244-.289-.434-.847-.53-1.126-.096-.28-.096-.28.14-.118z"/>
        <path d="M210.901 196.781c.13-.136.44-.12.762-.04.323.08.663.228 1.017.295a2.51 2.51 0 0 0 1.094-.045 3.747 3.747 0 0 0 1.13-.527c.383-.253.774-.586 1.162-.91.388-.325.776-.645 1.172-.916a8.686 8.686 0 0 1 1.2-.68 7.119 7.119 0 0 1 1.176-.45c.395-.11.8-.173 1.216-.205a4.626 4.626 0 0 1 1.29.06 4.924 4.924 0 0 1 2.223 1.135c.291.247.593.527 1.017.866a32.58 32.58 0 0 1 1.41 1.05c.442.312.781.54 1.11.714a5.43 5.43 0 0 1 .927.38 4.196 4.196 0 0 1 .726.168c.191.022.324.008.3.026-.026.018-.21.07-.444.085a3.02 3.02 0 0 1-.844-.08 5.18 5.18 0 0 1-1.145-.41c-.432-.21-.91-.504-1.396-.814-.486-.31-.98-.633-1.45-1.027-.473-.395-.92-.858-1.404-1.168a3.514 3.514 0 0 0-1.48-.523 4.071 4.071 0 0 0-1.337.063 7.258 7.258 0 0 1-1.07.331c-.307.114-.557.21-.878.361a5.58 5.58 0 0 1-1.094.66c-.384.302-.758.698-1.123 1.023a7.449 7.449 0 0 1-1.072.792 5.43 5.43 0 0 0-1.038.515 3.91 3.91 0 0 0-1.006.188c-.365.03-.784.045-1.156.008-.373-.037-.696-.125-.884-.314-.188-.189-.24-.475-.11-.61z" opacity=".5"/>
        <path fill="#ff8080" d="M195.467 185.178c.135.99.323 2.802 1.168 3.813.844 1.01 2.344 1.22 3.645 1.26 1.302.042 2.407-.083 3.77.385 1.364.47 2.99 1.532 4.146 3.084 1.156 1.552 1.844 3.593 3.428 5.375 1.584 1.782 4.062 3.303 5.636 4.032 1.573.73 2.24.666 2.74.51.5-.157.833-.407.7-.5-.136-.094-.742-.03-1.399-.177-.658-.146-1.365-.5-2.302-1.125a29.502 29.502 0 0 1-3.094-2.406c-.99-.886-1.802-1.76-2.48-2.907-.677-1.146-1.218-2.563-1.687-3.52-.469-.959-.865-1.459-1.635-1.959s-1.916-1-2.927-1.29c-1.01-.293-1.885-.376-2.542-.51-.657-.136-1.093-.324-1.812-.356-.72-.03-1.718.094-2.365-.115-.646-.209-.938-.75-1.167-1.416-.229-.666-.396-1.46-.53-2.063a44.258 44.258 0 0 0-.334-1.385c-.094-.365-.178-.678-.417-.969-.239-.29-.635-.562-1.104-.594-.468-.03-1.01.177-1.52 0-.513-.178-.99-.74-1.439-1.375-.448-.635-.864-1.344-1.27-1.979-.407-.635-.803-1.198-.792-.938.011.26.427 1.344.864 2.355.438 1.01.896 1.947 1.397 2.448.5.5 1.042.562 1.552.656.51.094.99.22 1.27.364.281.146.365.313.5 1.302z"/>
        <path d="M190.077 178.47c.193.396.578 1.187.984 1.943.407.755.834 1.474 1.303 1.948a2.894 2.894 0 0 1 1.474.812c.495.11.974.1 1.302.151.328.052.505.167.65.396.146.228.26.572.355 1.02.094.45.166 1 .27 1.511a11.03 11.03 0 0 1 .402 1.443c.161.464.348.921.583 1.292s.516.65 1.068.791c.553.141 1.376.141 2.094.162.718.02 1.334.062 1.84.083.504.021.9.021 1.487.22.587.196 1.37.593 2.074.99.703.394 1.328.79 1.91 1.358.584.567 1.126 1.307 1.647 2.083.521.776 1.02 1.588 1.562 2.422.542.833 1.125 1.687 1.97 2.537.843.85 1.947 1.692 2.895 2.328.948.636 1.74 1.062 2.344 1.281.604.22 1.021.23 1.36.193.338-.037.6-.12.776-.167.177-.047.27-.057.275.01.004.068-.083.22-.459.374a3.515 3.515 0 0 0-1.74.214c-.712-.098-1.473-.45-2.452-.945-.978-.493-2.17-1.126-3.143-1.804-.973-.678-1.724-1.4-2.32-2.177-.596-.777-1.036-1.609-1.435-2.333-.399-.725-.756-1.342-1.154-1.892a10.374 10.374 0 0 0-1.386-1.544c-.552-.512-1.216-1.053-2-1.448-.782-.396-1.684-.645-2.773-.707-1.089-.062-2.363.064-3.265.025-.902-.039-1.427-.24-1.9-.555a3.342 3.342 0 0 1-1.19-1.36c-.298-.618-.476-1.43-.608-2.203-.133-.773-.22-1.51-.475-1.996-.254-.486-.674-.722-1.134-.957-.46-.236-.96-.472-1.37-.844-.41-.372-.726-.88-1.01-1.44a10.552 10.552 0 0 1-.71-1.775 10.067 10.067 0 0 1-.316-1.506c-.036-.305-.006-.317.008-.324.014-.006.014-.006.207.39z" opacity=".5"/>
    </g>
    <g fill="#ffd5d5">
        <path d="M208.41 191.55c.224.213.474.463.6.785.124.322.124.718-.1.645-.225-.073-.672-.613-1.057-1.035-.386-.422-.709-.724-1.172-1.016-.463-.29-1.068-.572-1.13-.67-.062-.1.417-.017.88.134.463.15.912.37 1.234.568.322.198.521.375.745.588zm-6.755-2.34c.218.094.302.198.172.255-.13.057-.473.068-.792.01-.319-.058-.609-.18-.655-.28-.047-.1.15-.173.426-.168a2.579 2.579 0 0 0 .85.183zm-5.607-6.115l.055.154a3.433 3.433 0 0 0 .112.388c.034.156.054.327-.032.254-.087-.074-.278-.39-.47-.577-.192-.187-.386-.245-.652-.289-.266-.044-.603-.075-.81-.143-.206-.068-.279-.172-.18-.256.1-.083.371-.146.616-.156.244-.01.463.032.645.091.182.06.328.14.44.227a1.394 1.394 0 0 0 .23.237c.038.05.038.05.046.07zm2.517 5.901c.003.067-.096.15-.167.164-.07.013-.113-.044-.115-.112-.002-.068.034-.147.104-.16.07-.012.175.04.178.108zm-.51-.156c.017.072-.045.16-.129.134-.085-.026-.188-.165-.284-.326-.096-.162-.185-.344-.15-.347.032-.003.19.175.317.292.128.117.227.175.245.247zm-4.572-6.258c-.026.054-.078.163-.144.142-.066-.02-.143-.17-.135-.248.01-.078.103-.084.167-.063.064.021.101.068.12.091.018.024.018.024-.008.078zm-.658-.34c-.028.025-.085.077-.298-.138-.212-.215-.565-.68-.838-1.123-.274-.443-.46-.855-.336-.732.124.122.562.78.867 1.185.305.406.477.563.56.65.084.09.08.11.076.12-.003.011-.003.011-.03.037zm17.387 12.405c.125.23.375.687.57.982.195.295.336.424.537.547a3.091 3.091 0 0 1 .722.312 5.011 5.011 0 0 1 .734.141c.213.03.38.05.36.078-.02.028-.229.065-.517.044a6.237 6.237 0 0 1-.95-.17c-.3-.074-.533-.142-.753-.335-.22-.193-.422-.51-.594-.833-.172-.323-.312-.652-.346-.818-.033-.167.04-.172.076-.174.036-.003.036-.003.161.226zm4.832 5.881c-.013 0-.039 0-.26-.18a26.356 26.356 0 0 1-1.02-.896c-.41-.377-.832-.783-.924-.812-.09-.029.15.32.5.693.351.373.816.768 1.12.971.306.203.452.214.524.22l.06.004zm8.122-7.448a.735.735 0 0 0 .238.13c.087.065.246.193.194.224-.05.031-.312-.03-.67-.133-.357-.102-.809-.242-1.283-.278-.474-.037-.968.03-1.523.13-.556.1-1.169.23-1.562.356-.394.128-.565.252-.623.265-.057.012 0-.086.14-.202a3.21 3.21 0 0 1 .654-.388 5.03 5.03 0 0 0 1.107-.37 7.018 7.018 0 0 0 1.508-.15 4.325 4.325 0 0 0 1.145.182 7.2 7.2 0 0 0 .675.234zm-84.663-55.884c.216.078.65.234.86.432.21.197.2.437.006.452-.193.016-.566-.19-.778-.39a.91.91 0 0 0-.28-.479c-.024-.093-.024-.093.192-.015zm2.21 1.27c-.044.036-.132.11-.238.093-.105-.016-.223-.119-.289-.228-.065-.11-.075-.225-.033-.303a.212.212 0 0 0 .22-.104c.081.015.155.09.217.167a1.167 1.167 0 0 0 .14.22.221.221 0 0 1 .027.103c0 .016 0 .016-.044.052zm.25.54a1.389 1.389 0 0 1 .021-.354.274.274 0 0 0 .177-.206c.085-.03.196-.03.207.007.011.038-.078.117-.126.212-.047.094-.052.202-.06.3-.008.095-.018.178-.055.196-.037.02-.099-.027-.13-.05-.03-.024-.03-.024-.034-.105zm1.16-.65c-.106.047-.32.14-.37.203-.049.063.065.094.304.066.24-.029.606-.118 1.2-.175.595-.057 1.426-.083 2.144.02.72.105 1.33.34 1.8.55a10.17 10.17 0 0 0 1.052.545c.247.145.41.25.442.192.034-.057-.06-.276-.262-.476-.202-.2-.516-.383-.959-.555a8.864 8.864 0 0 0-1.625-.44 10.373 10.373 0 0 0-1.765-.156c-.51.003-.885.06-1.172.098-.286.04-.484.06-.583.07-.1.011-.1.011-.206.058zm7.46 1.88l.352.26c.32.234.95.696 1.398 1.266.448.57.718 1.252.82 1.788.102.536.034.927-.214.75-.248-.178-.674-.92-1.1-1.62-.426-.7-.855-1.358-1.066-1.76-.21-.4-.206-.547-.203-.62.003-.072.003-.072.013-.064zm1.79 8.22c-.026.065-.078.195-.156.25-.079.055-.182.035-.2-.06-.018-.095.05-.26.13-.357.08-.096.175-.122.22-.094.042.028.037.112.034.154-.003.042-.003.042-.028.107zm.36 1.69c.003.013.008.04-.019.161-.027.123-.082.33-.17.456-.088.126-.208.162-.292.12-.085-.043-.13-.162-.11-.346.02-.185.11-.436.214-.558.104-.122.224-.116.29-.07.063.046.074.135.08.18.004.044.004.044.007.057zm.74 2.82c-.096-.276-.242-.672-.369-.836-.127-.164-.236-.096-.244.243-.008.34.084.937.382 1.78.297.841.796 1.917 1.215 3.09.42 1.171.758 2.436 1.058 3.24.3.801.56 1.14.544.941-.016-.198-.307-.932-.54-1.604-.23-.67-.403-1.28-.598-1.96a994.344 994.344 0 0 1-1.177-4.029c-.128-.433-.175-.59-.27-.865zm14.59 16.186c.01.14-.053.328-.294.28-.24-.047-.655-.326-1.28-.633-.625-.308-1.458-.64-2.323-.954-.865-.312-1.76-.604-1.848-.692-.088-.089.63.026 1.447.218a23.318 23.318 0 0 0 2.438.72c.703.254 1.193.494 1.48.66.285.167.37.261.38.401z"/>
    </g>
</svg>
