<svg xmlns="http://www.w3.org/2000/svg" cursor="default" viewBox="0 0 256 256">
    <path fill="#ff7f2a" stroke="#000" stroke-width=".183" d="M145.839 151.389c-4.697 10.313-5.687 28.237 6.313 39.036 10.133 9.12 33.285 15.787 46.53-.696 7.144-8.893 7.414-34.637-9.437-45.591-12.3-7.995-37.269-6.226-43.405 7.251z"/>
    <path fill="#f95" d="M155.517 151.118c-4.696 10.384-.925 23.298 6.314 31.588 3.295 3.774 21.07 15.252 33.271 4.604 8.514-7.43 10.99-32.465-5.862-43.493-12.298-8.05-27.585-6.27-33.722 7.301z"/>
    <path fill="#fca" d="M171.798 158.632c1.9 6.127 7.197 11.519 12.065 13.863 2.217 1.067 11.32 2.517 11.621-5.478.211-5.579-7.071-18.3-15.749-19.745-6.333-1.054-10.422 3.353-7.937 11.36z"/>
    <path stroke="#000" stroke-width=".182" d="M164.648 139.805c-8.316 1.22-15.814 5.002-18.813 11.588-4.697 10.313-5.687 28.238 6.312 39.038 10.133 9.119 33.286 15.787 46.53-.696 6.514-8.108 7.304-30.218-5.375-42.36-3.31 1.958-8.444 2.46-13.783 1.81-5.566-.676-11.35-2.596-13.643-5.903-.731-1.056-1.104-2.255-1.227-3.477z" opacity=".75"/>
    <path fill="#fca" d="M184.168 141.826c-.42-.239-1.326-.665-2.626-1.086a30.373 32.56 0 0 0-4.49-1.048 21.84 23.412 0 0 0-3.59-.19c-.78.033-1.031.109-.813.487.22.378.905 1.052 1.844 1.46.94.41 2.129.553 3.296.58 1.167.027 2.314-.06 3.422-.056 1.106.006 2.177.105 2.745.126.567.022.633-.034.212-.273z"/>
    <path fill="#fff" d="M178.829 140.413c-.568-.059-1.484-.18-2.025-.141-.54.036-.703.233-.412.447.291.213 1.029.442 2.044.562 1.014.12 2.303.13 2.581-.022.278-.154-.453-.47-.928-.628-.475-.158-.692-.158-1.26-.218z"/>
    <path fill="#ffb380" stroke="#000" stroke-width=".262" d="M187.18 151.867c7.481-1.975 15.202-1.276 24.052.602 8.85 1.88 15.183 10.938 16.479 18.751 2.567 2.944 4.175 6.538 4.394 12.352.019 3.272-1.642 17.961-8.088 24.868-3.191 3.42-6.575 5.228-9.942 5.114 0 0 .143 32.719-17.048 34.946-17.192 2.226-19.627-5.926-26.138-12.5-13.343-.529-21.221-8.864-21.024-21.735.102-6.73 6.945-14.764 12.51-15.712 3.353-.572 3.217-1.894 4.518-3.233-20.888-18.083-39.057-37.341-55.4-56.939-4.141-.117-5.938-1.53-8.08-2.957-1.237-.824-2.573-2.99-2.842-4.403-.243-1.274-.396-2.558.568-3.836l.995-1.278c-20.96-22.908-41.767-48.664-63.074-64.921l-3.693-7.671L50.14 29.024l16.052-7.529 5.256 1.989c1.413 4.076 4.02 9.14 7.529 14.206 15.14 21.85 31.158 39.712 51.14 57.531.268-.647 1.05-1.02 1.99-.994 1.2.033 2.505.21 3.66.734 1.67.76 2.98 2.047 3.868 3.67 1.473 2.692 2.043 5.765 1.847 9.09 13.61 16.735 28.585 33.471 45.697 44.146z"/>
    <path fill="#ffb380" stroke="#000" stroke-width=".262" d="M187.18 151.867c7.481-1.975 15.202-1.276 24.052.602 8.85 1.88 15.183 10.938 16.479 18.751 2.567 2.944 4.175 6.538 4.394 12.352.019 3.272-1.642 17.961-8.088 24.868-3.191 3.42-6.575 5.228-9.942 5.114 0 0 .143 32.719-17.048 34.946-17.192 2.226-19.627-5.926-26.138-12.5-13.343-.529-21.221-8.864-21.024-21.735.102-6.73 6.945-14.764 12.51-15.712 3.353-.572 3.217-1.894 4.518-3.233-20.888-18.083-39.057-37.341-55.4-56.939-4.141-.117-5.938-1.53-8.08-2.957-1.237-.824-2.573-2.99-2.842-4.403-.243-1.274-.396-2.558.568-3.836l.995-1.278c-20.96-22.908-41.767-48.664-63.074-64.921l-3.693-7.671L50.14 29.024l16.052-7.529 5.256 1.989c1.413 4.076 4.02 9.14 7.529 14.206 15.14 21.85 31.158 39.712 51.14 57.531.268-.647 1.05-1.02 1.99-.994 1.2.033 2.505.21 3.66.734 1.67.76 2.98 2.047 3.868 3.67 1.473 2.692 2.043 5.765 1.847 9.09 13.61 16.735 28.585 33.471 45.697 44.146z"/>
    <path fill="#ff7f2a" d="M70.521 30.158c-.356.079-.881 2.244-1.905 3.064-1.365 1.091-1.483 2.945-3.578 3.677-2.097.731-4.038 1.484-6.548 2.173a20.424 20.424 0 0 0-3.242 1.172c-1.026-1.758-2.87-3.436-5.013-4.897-.907-.618-1.855-1.216-2.709-2.02l-12.158 19.99 3.693 7.672c21.307 16.257 42.116 42.013 63.072 64.92l-.995 1.278c-.964 1.278-.811 2.562-.568 3.835.27 1.414 1.605 3.58 2.84 4.404 2.143 1.428 3.94 2.84 8.083 2.957 16.343 19.598 34.51 38.856 55.4 56.94-.823.845-1.075 1.683-1.99 2.33-.008.007-.02.011-.029.017-.143.1-.303.194-.485.285-.073.035-.157.068-.237.101a6.76 6.76 0 0 1-.786.277 9.722 9.722 0 0 1-.99.223c-.018.003-.037.01-.056.015-5.557.99-12.355 8.989-12.456 15.696-.09 5.832 1.49 10.722 4.478 14.384l-.006.014c.053.064.11.123.162.186l.13.152a17.765 17.765 0 0 0 2.192 2.152l.06.047c3.512 2.878 8.245 4.57 14.007 4.798.111.112.214.228.322.34l.02.023c1.876 1.952 3.433 4.017 5.143 5.898.337.373.683.737 1.037 1.092l.094.094c.279.277.57.543.863.807.123.11.241.225.367.333.304.26.623.505.947.748.105.08.204.162.311.24.319.228.658.44.999.65.143.09.28.185.427.27.343.197.713.373 1.08.549.167.08.32.167.493.24.087.04.18.074.269.112.468.195.953.377 1.467.536.238.073.482.14.731.207.06.016.12.035.182.05.235.06.478.114.722.166.096.021.19.044.288.063.243.05.497.091.75.132.102.017.2.036.304.052.201.029.41.052.618.077.185.021.366.047.556.065.154.016.317.024.475.037.22.017.438.038.665.052.207.01.423.013.635.02.216.007.428.018.65.02h.052c.838.008 1.722-.018 2.656-.078h.01c.95-.06 1.95-.157 3.006-.294a13.452 13.452 0 0 0 1.21-.217c.115-.026.226-.058.339-.086.276-.07.55-.146.817-.231a12.823 12.823 0 0 0 1.142-.432c.1-.044.201-.087.3-.133.313-.145.619-.302.917-.468.029-.017.059-.032.088-.048a13.999 13.999 0 0 0 1.995-1.39c1.58-1.315 2.907-2.984 4.037-4.851 1.353-2.235 2.416-4.755 3.241-7.355.022-.063.044-.123.063-.185l-.016.025c1.28-4.082 2.008-8.31 2.407-11.79-.01.002-.017.01-.026.014.522-4.511.534-7.799.534-7.799 3.367.115 6.75-1.694 9.942-5.112 2.483-2.661 4.252-6.478 5.492-10.351-.725.95-1.28 1.786-2.003 2.812-1.121 1.59-2.697 3.669-4.236 4.957-1.54 1.289-3.048 1.792-4.487 2.176-1.44.385-2.81.654-3.765-.401-.956-1.055-1.492-3.431-1.676-5.324-.185-1.893-.017-3.3-.168-3.35-.151-.05-.618 1.256-.803 3.466-.184 2.21-.084 5.325.167 7.802.251 2.478.653 4.32.72 6.311.055 1.651-.134 3.433-.576 5.616-.475.777-.82 1.968-1.182 3.14-.754 2.443-1.59 4.756-2.744 6.865-1.155 2.109-2.63 4.017-5.008 5.624-2.376 1.608-5.657 2.914-9.408 3.383-6.443.454-12.915-1.333-14.933-7.65-1.5-4.764-1.005-7.946-.01-10.273 1.211-2.832 2.438-5.788 5.482-7.697 2.632-1.652 3.861-1.614 7.222-2.253 3.362-.64 6.347-1.682 8.241-3.008 1.893-1.327 2.698-2.937 2.864-3.6.167-.662-.308-.378-1.375.19-1.068.57-2.719 1.42-5.301 1.752-2.583.332-6.085.144-7.714-.09-1.63-.234-1.383-.51-.611-.648.773-.139 2.085-.138 4.109-.39 2.025-.25 4.773-.755 7.15-1.659 2.376-.904 4.387-2.21 6.261-3.615 1.685-1.264 3.258-2.616 4.52-4.65 1.87-1.955 3.598-4.258 4.87-6.917 1.846-3.859 2.745-8.454 3.338-11.484.592-3.03.876-4.498 1.776-5.657.9-1.16 2.415-2.013 1.8-2.675-.614-.663-3.362-1.138-5.353-2.7-1.99-1.565-3.218-4.214-4.923-6.37-1.704-2.153-3.883-3.81-7.41-5.065-3.528-1.255-8.404-2.108-10.891-4.121-.608-.493-1.069-1.053-1.318-1.641-.082.009-.162.026-.243.037-.217 7.002.211 12.372 1.49 17.043 1.247 4.563 3.304 8.494 5.401 12.53-4.786-.802-10.48-1.012-15.524-1.366-6.195-.435-11.384-1.104-14.95-1.305-3.566-.202-6.23-21.976-6.161-25.419.125-6.45-8.079 1.949-9.253 7.218-4.336 19.446-12.294.622-16.83-4.2-4.536-4.82-4.09-5.868-10.204-12.702-.765-.855.117-6.64 2.942-10.96 2.825-4.32 4.99-12.478 4.436-11.4-2.228 4.324-4.819 8.535-14.065 13.47-6.737 3.596-16.546.407-3.078-6.249 2.248-1.11 8.324-7.475 11.771-12.673 1.723-2.598 5.7-10.187 4.76-17.822-.175-1.42-1.046-2.434-2.508-1.928 5.697 7.086-5.543 21.146-11.465 24.599-10.876 6.335-15.025-.335-15.805-1.208-.88-.969-7.82-9.104-8.635-10.008-6.776-7.541-7.044-7.935-13.435-15.228-6.393-7.292-12.834-14.3-18.09-19.652-5.255-5.35-9.328-9.044-10.464-12.928-1.136-3.884 1.013-7.826 2.036-11.174 1.28-4.189 3.816-5.257 7.154-7.105 2.946-1.625 4.711-2.797 6.636-4.54 3.491-3.164 3.405-8.175 3.384-8.764-.006-.146-.795.917-.912.943zm92.03 187.3c2.346-.413 2.88.612 3.527 2.557.697 2.1.683 3.873.567 6.055-.067 1.278-.197 2.575-1.57 2.872-.833.18-2.188.044-3.275-.728-1.04-.736-2.907-3.29-2.972-6.418-.037-1.83 2.174-4.065 3.723-4.337z"/>
    <path fill="none" stroke="#000" stroke-linecap="round" stroke-linejoin="round" stroke-width=".262" d="M187.18 151.867c7.481-1.975 15.202-1.276 24.052.602 8.85 1.88 15.183 10.938 16.479 18.751 2.567 2.944 4.175 6.538 4.394 12.352.019 3.272-1.642 17.961-8.088 24.868-3.191 3.42-6.575 5.228-9.942 5.114 0 0 .143 32.719-17.048 34.946-17.192 2.226-19.627-5.926-26.138-12.5-13.343-.529-21.221-8.864-21.024-21.735.102-6.73 6.945-14.764 12.51-15.712 3.353-.572 3.217-1.894 4.518-3.233-20.888-18.083-39.057-37.341-55.4-56.939-4.141-.117-5.938-1.53-8.08-2.957-1.237-.824-2.573-2.99-2.842-4.403-.243-1.274-.396-2.558.568-3.836l.995-1.278c-20.96-22.908-41.767-48.664-63.074-64.921l-3.693-7.671L50.14 29.024l16.052-7.529 5.256 1.989c1.413 4.076 4.02 9.14 7.529 14.206 15.14 21.85 31.158 39.712 51.14 57.531.268-.647 1.05-1.02 1.99-.994 1.2.033 2.505.21 3.66.734 1.67.76 2.98 2.047 3.868 3.67 1.473 2.692 2.043 5.765 1.847 9.09 13.61 16.735 28.585 33.471 45.697 44.146z"/>
    <path d="M51.08 45.35c-.045-.02-.142.041-.31.2-.674.638-2.5 2.889-5.116 5.387-2.45 2.34-5.581 4.893-7.886 7.367l1.293 2.685c21.307 16.257 42.116 42.013 63.072 64.92l-.994 1.278c-.964 1.278-.812 2.562-.569 3.835.27 1.414 1.605 3.58 2.84 4.404 2.144 1.428 3.94 2.84 8.083 2.957 11.613 13.926 24.155 27.679 37.933 40.963l.714.685a443.751 443.751 0 0 0 10.376 9.652l.601.54a432.423 432.423 0 0 0 5.366 4.74v.001c.058.216.147.387.264.526-.021.024-.033.046-.053.07-.112.13-.23.262-.326.391l.035-.004c-.818 1.108-1.205 2.127-4.027 2.609-2.557.436-5.375 2.372-7.692 4.983-.338.379-.662.774-.976 1.18l-.027.032c-.294.384-.576.777-.844 1.18l-.099.148a21.205 21.205 0 0 0-1.352 2.389c-.054.112-.11.223-.162.335-.146.323-.277.647-.403.972-.055.144-.115.286-.165.43-.107.3-.194.602-.281.904-.045.157-.098.312-.136.468a13.106 13.106 0 0 0-.185.916c-.026.147-.064.297-.084.443-.062.448-.1.892-.106 1.33-.002.154.01.297.01.45v.003c-.003 12.61 7.831 20.762 21.015 21.282 6.511 6.575 8.947 14.727 26.138 12.5 6.003-.776 9.889-5.275 12.409-10.797-.796.964-4.152 5.893-5.223 6.48-8.285 4.546-13.682 4.707-20.687 1.539-7.857-3.555-10.1-9.17-10.76-11.011-.298-.837-1.848-6.973-1.524-7.531 0 0-.84 3.808-1.978 5.014a5.139 5.139 0 0 1-1.449 1.044c-.746-.017-1.846-.053-3.22-.45a12.778 12.778 0 0 1-6.745-4.818c-1.93-2.717-3.103-6.664-2.3-10.23.803-3.567 3.581-6.746 6.56-7.671 2.98-.927 6.159.402 7.917 2.577 1.409 2.218 1.988 5.366 1.945 8.117-.029 1.884-.397 3.393-.468 4.023-.071.63-.025.274.189-.52a27.962 27.962 0 0 1 1.197-3.467c.604-1.446 1.432-3.101 2.77-4.592 1.338-1.492 3.185-2.818 5.683-3.74 2.497-.924 5.647-1.445 6.155-1.752.508-.308-1.624-.403-3.02-.629-1.397-.225-2.058-.58-1.881-1.29.178-.713 1.194-1.777 3.681-2.712 2.486-.935 6.438-1.739 9.564-2.582 3.125-.845 5.42-1.729 6.566-2.169 1.147-.442 1.147-.442 1.764-.794.617-.352 1.801-1.108 3.272-2.437 2.052-1.854 4.578-4.318 5.62-6.69.837-1.9 1.901-4.805 2.587-7.734.687-2.93 1.02-5.877 1.306-7.802.285-1.925.52-2.829.286-3.849-.234-1.02-.94-2.16-2.312-3.759-.943-1.099-2.204-2.417-4.89-2.364-1.221.025-2.736.335-4.651 1.074-6.127 2.37-16.34 9.166-23.154 14.037-6.814 4.872-10.227 7.818-12.103 10.102-.04.049-.07.095-.108.142-.039-.09-.06-.18-.107-.268-1.065-2.012-4.239-3.858-6.82-9.398-2.58-5.542-4.568-14.777-6.7-16.884-2.13-2.106-4.403 2.913-7.032 4.476-2.63 1.563-5.61-.33-8.973-3.266-3.362-2.936-7.103-6.914-10.49-10.749-3.384-3.836-6.414-7.53-7.361-10.82-.947-3.292 2.808-9.192 4.602-12.901-3.73 2.925-10.372 6.719-14.917 5.903-3.457-1.04-5.479-2.05-7.539-4.673-1.04-1.327-1.23-2.986-.662-3.838.568-.851 1.895-.897 3.063-1.047 1.168-.149 2.18-.401 3.272-.744a24.12 24.12 0 0 0 3.436-1.356 26.183 26.183 0 0 0 3.258-1.935c.912-.636 1.564-1.189 1.364-1.164-.2.024-1.257.629-2.74 1.24-1.483.611-3.389 1.23-5.206 1.356-1.817.126-3.54-.24-5.248-1.037-1.708-.796-3.4-2.017-4.73-3.098-1.329-1.08-2.297-2.022-3.634-3.628-1.335-1.607-3.04-3.88-4.957-6.307a243.213 243.213 0 0 0-5.741-6.986c-1.693-1.976-2.947-3.347-5.812-6.449-2.865-3.1-7.342-7.932-12.006-12.762-4.663-4.83-9.516-9.66-12.912-13.484-3.398-3.824-5.34-6.642-6.228-9.222-.887-2.582-.722-4.925-.343-6.831.379-1.906.971-3.374 1.278-4.723.308-1.348.331-2.58.58-3.68.187-.826.499-1.58.36-1.636z" opacity=".5"/>
    <path fill="#ff7f2a" d="M166.101 197.42c-.36.513-1.123 1.276-2.216 1.756-1.091.482-2.509.678-3.918 1.431-1.407.752-2.803 2.061-4.058 3.612-1.257 1.55-2.368 3.338-3.264 5.107-.895 1.768-1.571 3.514-1.92 3.917-.35.403-.372-.534-.187-1.505.187-.972.58-1.976 1.037-2.958.46-.982.983-1.943 1.561-2.805a19.214 19.214 0 0 1 1.9-2.367 24.004 24.004 0 0 1 2.16-2.075 14.883 14.883 0 0 1 2.14-1.505 10.03 10.03 0 0 1 2.126-.917c.786-.24 1.705-.436 2.413-.687.71-.252 1.212-.557 1.593-.906.382-.35.645-.743.797-.81.152-.064.196.198-.164.711z"/>
    <path fill="#ffb380" d="M25.886 35.904c-2.326 7.195-3.251 16.871 1.712 22.158 3.303 2.286 7.247 3.422 14.027 1.43 2.811-1.03 5.624-6.222 8.437-10.546 5.978-9.332 18.326-6.26 23.506-24.208.412-4.706-1.09-12.763-10.026-13.459-.776-.06-1.529-.36-2.45-.96-5.113-3.33-9.32-2.405-11.262-1.7-2.452.89-4.627 2.033-6.967 3.548-2.91.876-5.49 2.66-7.675 4.5-2.223 1.873-4.602 4.658-6.34 7.731-1.55 2.74-2.472 5.043-2.962 11.507z"/>
    <path fill="#ff7f2a" d="M201.428 164.23l-8.952 24.896-23.44.143-7.448 7.094c11.176 5.087 27.244 6.331 37.358-5.412 4.442-5.157 6.136-16.574 2.482-26.722z"/>
    <path d="M201.428 164.23l-8.952 24.896-23.44.143-7.448 7.094c11.176 5.087 27.244 6.331 37.358-5.412 4.442-5.157 6.136-16.574 2.482-26.722z" opacity=".75"/>
    <path fill="#fff" d="M158.495 201.128c-.813.712-2.437 2.134-3.6 3.57-1.164 1.438-1.861 2.881-2.216 3.313-.357.43-.367-.153.168-1.204.536-1.05 1.616-2.566 2.784-3.71 1.168-1.142 2.423-1.911 3.05-2.296.627-.384.627-.384-.186.327z"/>
    <path fill="#ff7f2a" stroke="#000" stroke-width=".182" d="M156.442 155.014c-4.84 9.915-5.86 27.147 6.507 37.53 10.443 8.767 34.303 15.177 47.953-.671 7.365-8.549 7.642-33.3-9.726-43.83-12.675-7.686-38.407-5.985-44.733 6.971z"/>
    <path stroke="#000" stroke-width=".182" d="M156.442 155.014c-4.84 9.915-5.86 27.147 6.507 37.53 10.443 8.767 34.303 15.177 47.953-.671 7.365-8.549 7.642-33.3-9.726-43.83-12.675-7.686-38.407-5.985-44.733 6.971z" opacity=".5"/>
    <path fill="#ff7f2a" d="M157.518 154.607c-4.077 10.522-4.348 24.803 8.246 35.375 10.635 8.929 34.947 14.292 44.442 1.421 6.823-9.246 8.392-33.613-9.294-44.337-12.907-7.827-38.09-6.151-43.394 7.54z"/>
    <path fill="#ffb380" d="M166.417 155.014c-4.84 9.915-.953 22.246 6.507 30.161 3.397 3.604 21.715 14.564 34.29 4.396 8.775-7.094 11.325-30.997-6.041-41.528-12.675-7.685-28.43-5.985-34.755 6.972z"/>
    <path fill="#ffb380" d="M171.433 162.102c.223 9.343 7.237 17.957 15.114 21.978 3.587 1.832 19.925 4.977 24.87-6.913 3.452-8.297-3.286-28.055-18.827-31.148-11.342-2.258-21.45 3.872-21.158 16.083z"/>
    <path fill="#ffe6d5" d="M200.904 173.752c-2.292-.785-4.823-3.971-9.036-7.202-4.212-3.23-10.105-6.504-11.655-9.626-1.549-3.121 1.244-6.09 5.914-6.286 4.669-.196 11.22 2.38 15.06 6.286 3.842 3.906 4.976 9.145 4.518 12.572-.458 3.428-2.51 5.042-4.8 4.257z"/>
    <path fill="#ffb380" d="M164.368 168.261c-.04-1.551-.122-4.652-.166-7.883-.045-3.232-.05-6.596-.244-8.73-.192-2.136-.575-3.047-1.568-2.862-.993.183-2.6 1.463-3.937 2.246-1.337.782-2.402 1.068-1.964-.373.438-1.443 2.378-4.604 5.542-6.144 3.165-1.54 7.555-1.457 9.34-1.342 1.786.114.967.259.496.697-.471.437-.593 1.17.276 1.395.87.226 2.722-.054 4.483-.393 1.76-.339 3.425-.734 5.036-.62 1.612.113 3.185.74 2.004 2.386-1.182 1.648-5.113 4.32-7.744 9.334-2.631 5.014-3.963 12.367-5.261 16.193-1.299 3.826-2.566 4.121-3.604 3.14-1.037-.982-1.843-3.239-2.245-4.365-.403-1.128-.403-1.128-.444-2.679z"/>
    <path fill="#ff7f2a" d="M146.728 182.934c1.26 2.15 3.267 4.7 5.537 6.743 2.269 2.043 4.798 3.578 6.877 4.642 2.078 1.064 3.705 1.659 3.95 1.503.243-.155-.894-1.06-2.29-2.287-1.395-1.225-3.05-2.77-5.146-4.788a323.442 323.442 0 0 1-6.578-6.49c-1.94-1.987-3.282-3.47-3.7-3.342-.416.128.091 1.87 1.35 4.02z"/>
    <path fill="#fff" d="M148.28 184.7c-.035.205.664 1.537 1.723 2.857 1.058 1.322 2.477 2.63 3.857 3.673 1.381 1.042 2.723 1.817 2.571 1.5-.152-.317-1.798-1.724-3.144-2.97a51.587 51.587 0 0 1-3.3-3.338c-.906-1.005-1.674-1.925-1.708-1.721zm55.092-21.42c-.182-.628-.548-1.88-1.732-3.144-1.185-1.263-3.191-2.536-4.908-2.92-1.716-.388-3.144.113-2.817 1.614.328 1.5 2.407 3.994 4.298 5.61 1.89 1.616 3.59 2.351 4.448 2.116.859-.236.877-1.444.886-2.047.009-.602.009-.602-.175-1.23z"/>
    <path fill="#ffe6d5" d="M206.719 219.127c.927.34 1.681 2.036 1.182 4.877-.499 2.839-2.25 6.82-4.916 9.264-2.665 2.445-6.242 3.353-8.402 2.27-2.158-1.082-2.9-4.15-2.312-6.545.588-2.395 2.506-4.118 4.613-5.367 2.106-1.248 4.405-2.027 6.104-2.925 1.7-.897 2.804-1.915 3.731-1.574zM163 220.269c.344.359.54 1.629 1.043 3.006.502 1.38 1.31 2.865 1.318 3.71.008.846-.784 1.05-1.66.88-.877-.174-1.835-.722-2.427-1.629-.591-.906-.813-2.169-.685-3.1.13-.93.608-1.527 1.092-2.101.484-.575.976-1.126 1.32-.766zm64.232-43.153c-1.12-.804-2.761-.804-3.95 1.09-1.19 1.891-1.926 5.672-1.842 9.156.083 3.482.987 6.663 2.226 7.063 1.24.401 2.813-1.975 3.851-4.653 1.037-2.679 1.54-5.66 1.49-7.951-.05-2.295-.654-3.902-1.775-4.705z"/>
    <path fill="#fff" d="M219.616 160.039c-.938-1.306-2.176-2.612-3.515-3.483-1.34-.87-2.78-1.305-3.298-1.104-.52.2-.119 1.037.753 1.892.87.854 2.21 1.725 3.281 2.762 1.071 1.037 1.876 2.243 2.661 2.912.788.67 1.558.805 1.625.22.067-.587-.57-1.894-1.507-3.2z"/>
    <path fill="#f95" d="M55.849 58.033c.32 4.757 3.731 8.193 8.907 13.95S76.836 85.77 83.06 92.717c6.226 6.946 11.752 12.783 16.406 16.86 4.654 4.076 8.431 6.392 8.693 5.171.262-1.22-2.993-5.974-6.527-11.133-3.535-5.158-7.353-10.719-14.578-17.963-7.225-7.245-17.86-16.172-22.757-23.871-4.898-7.7-4.058-14.167-5.025-14.368-.968-.201-3.744 5.864-3.424 10.62z"/>
    <path fill="none" stroke="#000" stroke-width=".157" d="M130.114 95.224c9.52 6.553-14.636 39.844-27.984 30.685"/>
    <path fill="#fff" d="M137.238 97.16c-.419-.1-1.255-.301-1.69.168-.437.468-.47 1.606-.068 2.594.403.989 1.239 1.825 1.64 2.846.402 1.02.369 2.226.603 2.963.235.738.737 1.006 1.256.503s1.055-1.776 1.055-3.08c0-1.305-.536-2.646-1.022-3.633a14.843 14.843 0 0 0-1.138-1.943c-.218-.317-.218-.317-.636-.418zm1.09 12.822c-.099-.043-.294.098-.526.356-.504.558-1.274 1.802-2.33 3.44-.137.267-.258.523-.268.718-.021.36.342.506.806.065.346-.33.75-.99 1.04-1.247.234-.44.485-.903.651-1.252.681-1.422.79-2.008.627-2.08zm-9.693 13.713c-.35-.055-.939.036-1.494.27-.122.053-.226.122-.344.185l-.141.123c-1.19.928-1.43 1.047-2.785 2.236-1.356 1.187-2.224 2.593-2.207 3.215.015.62.92.453 2.711-.77 1.002-.683 2.292-1.74 3.683-3.09.203-.266.422-.54.586-.763.357-.478.465-.713.461-.931-.004-.218-.12-.42-.47-.475z"/>
    <path fill="#f95" d="M129.014 136.959c-.569.05.218 1.724 1.09 3.441.87 1.718 1.823 3.472 4.067 6.47 2.244 2.998 5.775 7.232 8.999 10.014 3.223 2.782 6.136 4.11 6.705 3.648.569-.46-1.207-2.708-3.081-4.644-1.875-1.936-3.851-3.56-5.61-5.335-1.757-1.775-3.297-3.7-4.552-5.475-1.257-1.775-2.228-3.398-3.676-4.997-1.447-1.598-3.373-3.173-3.942-3.122z"/>
    <path fill="#fca" d="M140.496 157.702c.106.71.792 2.107 1.823 2.959 1.031.853 2.29 1.134 2.823.932.532-.202.28-.898-.483-1.754-.765-.857-2.043-1.876-2.919-2.373-.876-.497-1.35-.474-1.244.236z"/>
    <path fill="#ffe6d5" d="M146.374 118.918c1.59 2.72 1.909 3.691 2.085 5.483.175 1.792.21 4.403-.579 5.458-.785 1.055-2.391.553-4.419.067-2.026-.485-4.468-.954-5.29-.133-.82.82-.017 2.928 2.06 4.53 2.078 1.6 5.426 2.692 7.535 5.085 2.11 2.394 2.979 6.09 4.385 7.177 1.407 1.086 3.348-.437 3.532-2.438.184-2-1.39-4.478-1.759-6.445-.366-1.968.47-3.424 1.976-3.751 1.508-.325 3.684.479 7.065 2.57 3.38 2.092 7.966 5.473 7.403 4.44-.561-1.033-6.262-6.47-10.24-10.434-3.977-3.963-6.208-6.427-9.43-10.057-3.221-3.63-7.43-8.42-8.104-8.58-.673-.162 2.19 4.307 3.78 7.028z"/>
    <path fill="#fff" d="M159.648 131.375c-1.574-1.54-3.399-3.416-4.763-4.688-1.365-1.272-2.268-1.942-2.562-1.372-.293.568.026 2.376.913 3.632.888 1.256 2.344 1.96 3.675 2.587 1.33.629 2.535 1.18 3.674 1.8 1.138.618 2.21 1.305 2.085 1.046-.126-.26-1.449-1.465-3.022-3.005z"/>
    <path fill="#ffe6d5" d="M118.014 87.743c2.118 1.503 4.944 4.238 6.288 7.267 1.344 3.03 1.208 6.357-.48 8.771-1.685 2.416-4.919 3.919-7.084 3.6-2.166-.32-3.259-2.46-2.894-4.602.365-2.142 2.188-4.284 2.302-7.13.114-2.847-1.482-6.403-1.572-8.043-.091-1.64 1.321-1.367 3.44.136z"/>
    <path fill="#ff7f2a" d="M53.26 14.71a9.534 9.534 0 0 0-.835.062c-2.38.285-6.024 1.516-9.02 3.375-2.996 1.858-5.34 4.343-6.643 6.853-1.3 2.51-1.56 5.042-2.341 6.736-.782 1.694-2.085 2.546-3.102 3.575-1.019 1.03-1.75 2.236-2.012 3.683-.186 1.029.15 2.126-.117 3.2-.186.749-.415 1.603-.576 1.707-1.054.675-1.509-1.001-1.758-2.683-.249-1.682-.131-4.593.2-7.35.332-2.757.878-5.364 2.12-8.678.43-1.148.912-2.32 1.35-3.403a28.933 28.933 0 0 0-1.678 2.61c-1.55 2.739-2.472 5.044-2.962 11.507-2.326 7.195-3.251 16.87 1.712 22.155 3.304 2.288 7.248 3.423 14.028 1.43 2.813-1.03 5.623-6.22 8.436-10.545 5.978-9.33 18.326-6.26 23.506-24.208a16.95 16.95 0 0 0 .024-2.412c-.123-.49-.268-.941-.449-1.288-.381-.736-.85-1.094-1.29-1.037a.836.836 0 0 0-.426.196c-.544.45-.97 1.656-1.113 2.853-.143 1.196 0 2.378-.64 4.225-.64 1.848-2.06 4.357-3.966 6.417-1.907 2.06-4.295 3.669-6.722 5.055a64.63 64.63 0 0 1-3.976 2.072c-.825.472-1.653.99-2.406 1.584-1.586 1.25-2.922 2.915-4.491 5.008-1.57 2.095-3.535 4.82-5.617 6.63-2.083 1.811-4.287 2.712-6.642 2.843-2.356.13-5.649-.543-7-1.396-1.352-.852-1.345-3.912-.977-4.337.183-.214.652 2.188 1.565 2.566.376.155.445-1.638 1.863-1.219 6.004 1.777 8.5.205 11.367-2.536.972-.945 1.804-2.137 2.472-3.413a21.492 21.492 0 0 0 1.385-3.342c.21-.69.117-.696-.164-.268-.28.428-.737 1.276-1.47 2.283a18.152 18.152 0 0 1-2.954 3.182c-1.215 1.02-2.642 1.899-4.064 2.473a14.183 14.183 0 0 1-3.852.936c-.335.032-.57.035-.828.045-.45-.13-.803-.247-.981-.425-.38-.382-.508-.635-.755-1.204-.163-.374-.462-1.516-.482-2.193.245-.42 1.797-.775 1.81-.778 1.137-.344 2.391-.71 4.263-2.308 1.87-1.598 3.928-3.684 5.064-6.228 1.136-2.546 1.35-5.552 3.858-9.28 2.51-3.728 7.317-8.18 9.543-10.57 2.224-2.391 1.87-2.724 1.136-3.222-.64-.435-1.574-.995-3.392-.939z"/>
    <path stroke="#000" stroke-width=".157149" d="M37.51 29.035c-.336-.02-.754.465-1.071.884-.51.67-.776 1.194-.915 1.574-.14.38-.17.66-.34 1.045-.17.386-.477.88-.606 1.583-.129.706-.078 1.622-.35 2.825-.272 1.203-.87 2.705-1.465 3.615-.594.912-1.194 1.252-1.586 1.677-.39.424-.576.934-.738 1.667-.163.733-.302 1.692-.64 2.5-.34.81-.888 1.482-1.345 1.606-.457.126-.838-.277-1.062-.58-.225-.304-.292-.502-.427-.962a30.664 30.664 0 0 1-.514-1.955 28.101 28.101 0 0 1-.419-2.326 22.698 22.698 0 0 1-.185-2.12 37.633 37.633 0 0 1-.024-2.369c.014-.71.048-1.32.058-1.779-2.321 7.195-3.243 16.858 1.719 22.14 3.302 2.288 7.246 3.423 14.026 1.432a3.97 3.97 0 0 0 .586-.28c-1.892.256-5.71.514-6.789.361-1.298-.202-2.696-.247-4.397-.968-4.229-1.794-4.44-4.785-4.444-6.253-.003-1.145 1.7-2.955 2.077-2.476.377.478.274 2.09.491 2.3.217.21.618-1.315.882-1.57.262-.254.47.299 1.197.887.528.426 1.889.77 2.281.807.247.025.153-.167-.043-.457-.083.003-.186.01-.27.013-.45-.13-.804-.247-.981-.425-.38-.381-.509-.634-.756-1.203-.162-.375-.462-1.516-.482-2.194.245-.42 1.798-.774 1.81-.777.447-.136.926-.296 1.438-.512a5.7 5.7 0 0 0 .555-.707c1.109-1.69 2.092-4.818 2.686-8.137.594-3.319.8-6.83.522-8.16-.105-.502-.276-.694-.479-.706z" opacity=".5"/>
    <path fill="#ffb380" stroke="#000" stroke-linecap="round" stroke-linejoin="round" stroke-width=".157149" d="M32.348 45.043c-1.076-1.002-1.51-2.036-2.38-3.835-.038-1.024.15-2.447.64-3.445.748-1.526.905-2.182 2.84-3.48 2.005.257 3.241 1.154 4.723 1.847l-.958 5.966z"/>
    <path fill="#ff7f2a" d="M35.736 34.939c-.103.163-.21.334-.283.515-.193.479-.23.925-.258 1.625-.026.7-.042 1.647-.213 2.462-.17.814-.492 1.492-.981 1.986-.49.495-1.146.803-1.699.745-.553-.057-.999-.482-1.28-.726-.283-.245-.399-.312-.183-.428.216-.115.76-.278 1.312-.791.55-.514 1.107-1.375 1.424-2.221.317-.846.391-1.674.364-2.177-.027-.502-.157-.678-.364-.683-.206-.006-.49.159-.632.24-.143.083-.144.083-.155.142-.012.06-.034.178.083.246.118.068.368.084.495.317.127.234.129.692.09 1.075-.039.382-.115.69-.413 1.018-.297.329-.814.675-1.197.755-.383.082-.629-.104-.759-.378-.132-.274-.146-.637-.166-.968-.01-.189-.029-.352-.084-.403-.076.158-.14.293-.23.472-.489.997-.679 2.422-.639 3.447.745 1.542 1.195 2.515 1.98 3.396.2.09.407.166.62.21.045.01.09.006.135.014l3.153-1.91c.436-.897.727-2.034.856-3.15.177-1.544.055-3.04-.058-4.002-.023-.199-.05-.281-.073-.435a14.925 14.925 0 0 0-.845-.393z"/>
    <path fill="#ffb380" d="M31.46 50.228c-.377-1.255-1.001-2.595-.497-4.83.341-1.512.768-1.013 1.615-1.61.848-.597 2.368-1.224 2.86-2.794 1.172-3.742-.503-2.472.497-9.624.558-3.998 3.16-7.51 6.676-10.653 8.954-8.009 15.338-6.79 19.178-4.048 6.59 4.7 3.967 11.165.071 15.625-4.567 5.226-8.023 3.342-13.78 9.305"/>
    <g fill="none" stroke="#000" stroke-width=".15">
        <path stroke-linecap="round" stroke-linejoin="round" stroke-width=".157149" d="M32.348 45.043c-1.076-1.002-1.51-2.036-2.38-3.835-.038-1.024.15-2.447.64-3.445.748-1.526.905-2.182 2.84-3.48 2.005.257 3.241 1.154 4.723 1.847l-.958 5.966z"/>
        <path stroke-width=".157149" d="M25.886 35.904c-2.326 7.195-3.251 16.871 1.712 22.158 3.303 2.286 7.247 3.422 14.027 1.43 2.811-1.03 5.624-6.222 8.437-10.546 5.978-9.332 18.326-6.26 23.506-24.208.412-4.706-1.09-12.763-10.026-13.459-.776-.06-1.529-.36-2.45-.96-5.113-3.33-9.32-2.405-11.262-1.7-2.452.89-4.627 2.033-6.967 3.548-2.91.876-5.49 2.66-7.675 4.5-2.223 1.873-4.602 4.658-6.34 7.731-1.55 2.74-2.472 5.043-2.962 11.507z"/>
        <path stroke-linecap="round" stroke-linejoin="round" stroke-width=".157149" d="M56.44 13.762c-1.347-.81-2.892-1.514-4.997-1.833-3.837-.582-6.48-.353-8.58.237M27.235 47.327c-.65-1.865-1.802-5.351-1.35-11.423"/>
    </g>
    <path fill="#fca" d="M102.643 114.078c.852.13 2.729 1.31 4.213 2.03 1.485.72 2.576.983 4.06 1.004 1.483.022 3.363-.196 3.863.458.503.653-.37 2.182-2.03 2.706-1.66.524-4.103.045-6.002-.872-1.9-.918-3.253-2.27-4.017-3.405-.764-1.135-.938-2.053-.087-1.921z"/>
    <path fill="#ffe6d5" d="M102.991 70.623c-2.728-2.135-6.15-1.25-5.472.691.42 1.202 1.144 2.555-.932 3.58-2.299-.097-6.744-2.26-8.378-2.755-1.635-.497-3.307-.691-3.087-.133.22.558 1.454 2.231 2.813 3.697 1.688 1.358 2.85 2.868 4.09 3.969 1.172 1.042 3.63 5.284 4.084 5.458.672.26.912-6.043 1.386-6.875 1.2-.495 2.758-.256 4.362-.252 2.19.004 3.862.711 5.248.64 1.384-.068 2.478-.916 1.41-2.42-2.42-2.365-3.058-3.67-5.524-5.6z"/>
    <path fill="#fca" d="M91.604 56.062c-1.695-1.914-3.486-3.806-5.015-3.873-1.53-.067-2.796 1.69-3.189 3.28-.393 1.59.09 3.01 1.446 3.865 1.353.856 3.578 1.147 5.664 1.472 2.088.325 4.04.686 4.215-.104.175-.79-1.425-2.726-3.12-4.64z"/>
    <path fill="#fff" d="M120.622 93.739c-.355.286-.88.579-1.01 1.77-.133 1.19.13 3.269.756 4.017.625.749 1.613.162 1.836-1.163.223-1.326-.317-3.398-.68-4.292-.362-.896-.547-.618-.902-.332zm-14.938-18.404c-.432-.678-1.204-1.372-1.998-1.343-.794.032-1.614.787-1.18 1.467.434.681 2.113 1.281 2.907 1.25.796-.032.702-.695.27-1.374z"/>
    <path fill="#f95" d="M47.07 40.32c-3.178 4.043-3.95 5.806-4.736 6.805-.967 1.231-2.228 2.535-3.707 3.046-.99.342-2.7.158-3.733-.032-1.51-.378-2.19-.746-2.593-2.006-.334-1.047-.066-2.213.738-2.907.804-.695 2.375-1.003 3.487-1.59a4.426 4.426 0 0 0 2.116-2.362c.354-.912.417-1.87.34-3.536-.078-1.666-.294-4.04-.063-5.923.232-1.884.91-3.273 1.914-5.157 1.003-1.883 2.332-4.259 4.677-6.296 2.347-2.037 5.709-3.734 8.472-4.537 1.98-.575 4.253.462 4.931-.64-.364-.175-2.324-.697-3.628-.595-3.415.037-7.637 1.62-12.675 6.126-3.516 3.145-6.118 6.656-6.676 10.654-.999 7.152.675 5.883-.497 9.626-.492 1.57-2.011 2.196-2.859 2.793-.847.597-1.275.098-1.617 1.61-.503 2.235.088 3.584.498 4.83.144.436.369.847.754 1.203.405.373 1.509.857 2.468.898 1.21.052 2.85-.092 4.142-.62 1.671-.682 3.122-1.888 4.388-3.175 1.63-1.661 2.755-4.772 4.87-6.935a19.748 19.748 0 0 1 4.499-3.567 58.048 58.048 0 0 1 4.494-2.1c1.515-.615 2.889-1.738 4.22-3.02 1.664-1.795 3.097-3.769 3.96-6.186.665-2.088.68-3.592.372-4.807-.178 1.863-.377 3.663-1.065 4.815-1.412 2.366-3.058 4.39-4.7 5.534-2.855 1.989-5.36 3.444-8.032 4.607-2.376 1.034-3.715 2.116-4.759 3.443z"/>
    <path fill="none" stroke="#000" stroke-linecap="round" stroke-linejoin="round" stroke-width=".157" d="M31.46 50.228c-.377-1.255-1.001-2.595-.497-4.83.341-1.512.768-1.013 1.615-1.61.848-.597 2.368-1.224 2.86-2.794 1.172-3.742-.503-2.472.497-9.624.558-3.998 3.16-7.51 6.676-10.653 8.954-8.009 15.338-6.79 19.178-4.048 6.59 4.7 3.967 11.165.071 15.625-4.567 5.226-8.023 3.342-13.78 9.305"/>
    <g fill="#ffe6d5">
        <path d="M61.683 20.832c-.587-1.628-1.852-2.585-4.128-2.708-2.276-.124-5.563.586-8.04 2.415-2.478 1.829-4.145 4.776-5.163 8.295-1.02 3.52-1.39 7.608-.17 8.38 1.22.771 4.028-1.775 7.277-4.02 3.248-2.245 6.938-4.19 8.828-6.312 1.89-2.122 1.983-4.422 1.396-6.05zm-14.969-7.447c-.216.57-1.266 1.496-3.103 2.693-1.838 1.197-4.459 2.662-6.265 4.662-1.806 1.998-2.794 4.528-3.766 5.423-.974.896-1.93.156-1.79-1.389.138-1.544 1.373-3.889 2.392-5.463 1.018-1.574 1.822-2.376 2.993-3.24 1.174-.864 2.718-1.791 4.2-2.416 1.48-.624 2.901-.949 3.92-1.003 1.017-.053 1.635.162 1.42.733zm-7.31 29.693c.815-.404 1.674-.482 2.195-.174.521.308.707 1.005.406 1.823-.3.817-1.086 1.755-2.2 2.41-1.113.655-2.552 1.026-3.085.665-.532-.36-.083-1.66.508-2.622.59-.964 1.361-1.698 2.175-2.102z"/>
        <path d="M59.309 12.99c.622-.295 1.561-.71 2.623-.964 1.063-.253 2.351-.354 3.617-.016 1.264.338 2.56 1.112 3.501 1.914.941.8 1.53 1.63 1.662 2.732.13 1.102-.196 2.477-.665 3.973-.47 1.496-1.08 3.11-1.572 4.66-.491 1.55-.862 3.033-1.833 4.638-.972 1.605-2.542 3.327-3.885 4.54-1.342 1.211-2.455 1.91-2.574 1.745-.12-.165.752-1.19 1.613-2.139.862-.949 1.714-1.823 2.478-2.815.764-.993 1.44-2.107 1.91-3.34.468-1.232.73-2.587.764-4.211.031-1.626-.165-3.527-.765-5.032a7.527 7.527 0 0 0-2.62-3.34c-1.014-.719-2.04-1.047-2.956-1.265-.917-.218-1.724-.328-1.975-.469-.251-.143.055-.317.677-.612zm-4.388-4.147c.885.142 2.216.404 3.197.796a6.428 6.428 0 0 1 2.008 1.278c.393.36.545.555.273.807-.273.251-.97.555-1.702.687-.732.13-1.495.088-2.161-.284-.666-.372-1.233-1.069-1.876-1.528-.645-.457-1.365-.675-1.626-.96-.262-.285-.066-.634.25-.796.315-.164.754-.142 1.637 0z"/>
    </g>
    <g fill="#fff">
        <path d="M66.948 13.797c-.688-.186-1.54-.47-1.998-.405-.458.065-.524.48-.086 1.071.438.591 1.373 1.353 1.93 2.465.557 1.113.73 2.575.819 3.809.087 1.234.087 2.236.426 2.061.339-.176 1.014-1.527 1.451-2.836.436-1.31.633-2.577.458-3.535a3.064 3.064 0 0 0-1.255-1.986c-.534-.372-1.058-.459-1.745-.644zm-8.84 6.308c-.949-.055-2.258.01-3.765 1.004-1.506.994-3.208 2.912-4.201 4.877-.994 1.965-1.278 3.972-.228 4.54 1.047.568 3.425-.305 5.324-1.516 1.898-1.212 3.318-2.763 4.07-4.235.753-1.473.84-2.87.59-3.656-.25-.785-.84-.96-1.79-1.014zM42.414 14.43c-.752.054-2.17.775-2.88 1.495-.71.72-.71 1.44.044 1.385.755-.055 2.26-.883 2.967-1.603.71-.72.622-1.332-.13-1.278zm15.487-4.092c-.393 0-.895-.021-1.037.218-.143.24.075.741.578.916.503.175 1.289.022 1.572-.228.282-.252.065-.602-.186-.765-.25-.163-.534-.141-.927-.141z"/>
    </g>
    <path fill="#ffe6d5" d="M47.246 44.568c.472-.61.873-.794 1.18-.626.308.169.524.696.355 1.367-.17.671-.725 1.488-1.636 2.632-.912 1.142-2.175 2.607-3.518 3.78-1.343 1.174-2.762 2.054-3.419 2.145-.656.092-.548-.602.107-1.327.656-.724 1.862-1.481 2.85-2.368.986-.888 1.759-1.907 2.414-2.934.655-1.024 1.196-2.06 1.667-2.67z"/>
    <path fill="#fff" d="M40.286 43.82c-.177.092-.533.277-.702.632-.171.357-.155.88.077 1.08.233.2.68.078 1.003-.208.324-.285.524-.733.471-1.027-.054-.29-.363-.43-.518-.5-.154-.07-.154-.07-.331.023z"/>
    <path fill="none" stroke="#000" stroke-width=".157" d="M32.8 35.568c.284-.164.568-.328.774-.322.207.005.338.18.366.683.027.502-.05 1.33-.367 2.176-.315.846-.871 1.707-1.422 2.22-.552.514-1.096.678-1.37.562-.273-.115-.273-.507-.273-.899"/>
    <g>
        <path fill="#fff" d="M33.665 34.565c-.068.027-.204.081-.151.156.052.074.29.166.473.253.182.087.308.169.346.525.039.356-.01.991-.157 1.671-.148.68-.393 1.404-.737 2.002-.345.597-.786 1.067-.79 1.142-.005.077.425-.239.795-.727.37-.487.682-1.15.878-1.83a9.178 9.178 0 0 0 .312-1.903c.032-.515.015-.843-.093-1.033-.109-.19-.31-.245-.46-.27a1.27 1.27 0 0 0-.298-.016c-.05.002-.05.002-.118.03z"/>
        <path fill="#fca" d="M32.232 35.555c-.01.003-.031.008-.153.148-.12.14-.316.388-.48.689-.164.3-.283.638-.24.648.045.01.252-.305.455-.602.205-.297.408-.576.62-.796.212-.22.437-.386.408-.391-.03-.006-.314.148-.457.224-.142.078-.142.078-.153.08z"/>
        <path fill="#fff" d="M34.423 38.93c-.094.25-.286.751-.64 1.178-.351.426-.862.775-1.019 1.023-.155.25.047.396.363.28.317-.12.748-.502 1.053-1.047.305-.544.486-1.256.573-1.76.087-.505.082-.805.027-.76-.054.047-.157.44-.21.638-.052.197-.052.197-.147.447z"/>
    </g>
    <g>
        <path fill="#ff2a2a" d="M133.079 123.056c-.312.3-.524.767-.536 1.191-.021.786.631 1.4 1.33 3.277.698 1.875 1.442 5.016 2.73 6.938 1.288 1.922 3.12 2.62 5.304 3.1 2.183.48 4.716.742 5.676 1.746.958 1.002.346 2.75-.025 4.321-.371 1.572-.502 2.968.482 3.712.981.743 3.075.829 5.434.786 2.357-.044 4.978-.218 6.505.196 1.526.415 1.963 1.418 2.727 2.924.765 1.506 1.856 3.515 3.493 5.414 1.637 1.9 3.817 3.688 7.026 5.042 3.21 1.354 7.445 2.27 11.285 4.43 3.84 2.161 7.291 5.566 9.2 9.111 1.909 3.547 2.281 7.237 2.586 9.528.306 2.292.545 3.185 1.006 3.59a1.027 1.027 0 0 0 .322.181c.168-.574.074-1.29-.052-2.087a61.262 61.262 0 0 0-1.004-5.031c-.463-1.883-1.079-3.95-2.113-5.956-1.034-2.007-2.487-3.952-4.076-5.603-1.59-1.651-3.318-3.011-4.646-4-1.326-.986-2.252-1.602-3.302-2.065-1.049-.463-2.223-.773-3.55-1.205a68.812 68.812 0 0 1-4.228-1.558c-1.42-.57-2.78-1.157-4.107-1.96a23.694 23.694 0 0 1-3.517-2.64c-.895-.817-1.389-1.434-1.96-2.654-.572-1.22-1.22-3.042-2.208-4.307-.987-1.264-2.316-1.976-3.765-2.3-1.45-.324-3.025-.261-4.553-.184-1.527.078-3.008.169-4.012-.047-1.004-.216-1.529-.739-1.652-1.496-.124-.756.153-1.744.246-2.778.092-1.034 0-2.117-.324-2.918-.325-.803-.879-1.326-1.634-1.758-.757-.432-1.714-.772-2.902-1.127-1.188-.356-2.609-.726-3.89-1.19-1.28-.463-2.423-1.018-3.32-2.16-.895-1.142-1.541-2.87-2.035-4.445-.494-1.575-.835-2.993-1.236-4.213a17.647 17.647 0 0 0-.706-1.805z"/>
        <path fill="#ff2a2a" d="M161.188 146.377c-.44.061-4.851.43-4.792.82.057.391 4.583.8 4.723 1.11.102.227.121.426.104.659.617.531.983 1.297 1.483 2.284.35.691.78 1.498 1.292 2.342.037-.106 2.47 3.264 2.503 2.913.058-.614-2.235-5.36-2.39-6.485-.153-1.126-.578-2.154-1.16-2.797-.582-.645-1.323-.907-1.763-.846z"/>
        <path fill="#ff8080" d="M180.842 161.065a4.845 4.845 0 0 0-1.276-1.974c-.688-.644-1.67-1.19-1.976-2.871-.305-1.683.066-4.497-.305-6.722-.372-2.226-1.485-3.864-3.274-5.13-1.79-1.265-4.257-2.16-6.658-3.132-2.401-.97-4.735-2.017-6.143-3.077-1.408-1.059-1.89-2.128-2.412-2.663-.524-.534-1.09-.534-1.31-.206-.219.327-.088.98-.022 1.351.065.371.065.46.573.922.509.464 1.5 1.284 2.93 2.18 1.43.894 3.285 1.854 4.945 2.585 1.658.731 3.12 1.233 4.375 1.866s2.302 1.397 3.099 2.204c.796.807 1.343 1.66 1.626 2.849.284 1.189.306 2.716.273 3.928-.032 1.212-.12 2.106-.076 3.057.044.95.218 1.952.698 2.826.481.874 1.266 1.616 2.172 2.172.906.556 1.932.927 2.444.895.514-.034.514-.47.317-1.06z"/>
        <path d="M178.003 160.615c.03-.424-.233-1.057-.587-1.674-.355-.617-.803-1.22-1.073-2.169-.27-.95-.362-2.246-.401-3.48-.039-1.234-.023-2.409-.147-3.58-.123-1.173-.385-2.347-.864-3.18-.478-.833-1.173-1.326-1.898-1.812-.725-.487-1.482-.965-2.431-1.366-.95-.402-2.091-.726-2.91-.973-.817-.247-1.311-.417-2.083-.772a47.828 47.828 0 0 1-2.708-1.38 26.274 26.274 0 0 1-2.408-1.467c-.796-.548-1.66-1.211-2.146-1.745-.486-.533-.594-.933-.67-1.22-.078-.284-.125-.455-.24-.24-.115.215-.3.82-.293 1.391.007.572.208 1.11.927 1.792.718.679 1.952 1.496 3.27 2.244 1.32.749 2.725 1.428 4.122 2.045 1.397.618 2.786 1.173 3.935 1.697 1.15.526 2.06 1.02 2.731 1.598.671.578 1.104 1.242 1.459 2.037.356.795.633 1.72.702 2.917.07 1.197-.07 2.661-.116 3.85-.046 1.19 0 2.099.147 2.84.147.741.394 1.312.912 1.869.517.555 1.303 1.095 1.86 1.257.554.161.88-.055.91-.48z" opacity=".5"/>
        <path fill="#ff8080" d="M98.17 91.845c-.149-.009-.178.095-.022.352.414.688 2.14 2.478 3.23 4.66 1.09 2.182 1.55 4.756 2.532 6.83.982 2.075 2.487 3.646 4.06 4.814 1.571 1.168 3.208 1.931 5.385 2.69 2.178.758 4.894 1.512 6.875 2.238 1.98.725 3.224 1.423 4.246 1.352 1.021-.07 1.816-.912 2.76-1.194.944-.283 2.036-.011 3.045.845s1.939 2.3 2.402 3.515a5.69 5.69 0 0 1 .309 3.124c-.152.917-.457 1.758-.518 2.38a1.781 1.781 0 0 0 .077.765c-.001.01-.004.021-.004.031-.023.786.631 1.4 1.33 3.277.697 1.875 1.44 5.017 2.73 6.938 1.288 1.922 3.12 2.62 5.303 3.1s4.716.742 5.676 1.746c.96 1.002.346 2.75-.024 4.321-.371 1.572-.503 2.97.48 3.712.982.743 3.078.829 5.435.786 2.357-.044 4.978-.218 6.506.196 1.525.415 1.962 1.418 2.727 2.924.764 1.506 1.854 3.515 3.493 5.414 1.636 1.9 3.818 3.688 7.026 5.042 3.21 1.354 7.444 2.27 11.284 4.43 3.84 2.161 7.292 5.566 9.2 9.112 1.91 3.546 2.281 7.236 2.51 10.837.231 3.601.316 7.108.535 9.273.219 2.166.566 2.973 1.058 1.226.491-1.746 1.125-6.047 1.289-9.768.164-3.723-.143-6.864-1.126-9.614-.981-2.75-2.64-5.106-4.452-7.31-1.812-2.206-3.776-4.259-5.87-5.807-2.096-1.55-4.322-2.599-6.657-3.405-2.335-.808-4.782-1.375-6.658-2.117-1.877-.741-3.185-1.66-4.473-2.664-1.288-1.003-2.555-2.094-3.493-3.513-.939-1.42-1.55-3.166-2.292-4.475-.742-1.31-1.616-2.183-2.816-2.51-1.2-.328-2.728-.11-4.583-.043-1.855.065-4.034-.022-4.908-.744-.875-.72-.44-2.072-.395-3.447.043-1.376-.306-2.774-.83-3.69-.523-.915-1.223-1.352-3.1-1.876-1.875-.524-4.932-1.134-6.94-2.705-2.01-1.572-2.969-4.103-3.887-6.155-.72-1.613-1.413-2.918-2.057-3.556-.023-.174.008-.326.084-.67.097-.447.23-1.233.317-1.931.087-.7.13-1.31.031-2.194-.097-.884-.337-2.04-.883-3.098-.545-1.058-1.398-2.018-2.402-2.858-1.004-.84-2.162-1.563-3.143-1.64-.98-.076-1.788.493-2.617.865-.829.37-1.682.544-2.567.402-.883-.141-1.8-.6-3.25-1.048-1.452-.447-3.44-.883-5.458-1.45-2.019-.567-4.068-1.265-5.684-2.335a10.493 10.493 0 0 1-3.516-3.918c-.72-1.41-.981-2.784-1.351-4.115-.372-1.33-.853-2.618-1.638-3.753-.785-1.135-1.878-2.117-2.87-2.815-.621-.437-1.203-.763-1.451-.779z"/>
        <path d="M98.172 92.085c-.014.004-.016.026-.004.072.046.185.293.741.726 1.498.433.756 1.047 1.714 1.488 2.64.44.925.704 1.82 1.074 2.87.37 1.05.849 2.252 1.211 3.279.363 1.026.608 1.875.956 2.677a9.722 9.722 0 0 0 1.39 2.293c.594.733 1.335 1.443 2.346 2.137 1.01.696 2.292 1.375 3.643 1.908 1.351.532 2.77.917 4.044 1.273 1.271.355 2.4.678 3.448.972 1.05.293 2.022.555 2.763.863.74.308 1.249.663 1.527 1.033.277.37.324.757.387 1.127.061.371.136.726.37.734.233.007.618-.333.972-.71.354-.378.68-.797 1.181-1.08.5-.286 1.182-.44 1.86-.432a4.336 4.336 0 0 1 1.983.509 5.645 5.645 0 0 1 1.606 1.311c.408.487.655.964.855 1.551.2.587.356 1.28.395 1.944.039.664-.04 1.296-.194 2.03a18.253 18.253 0 0 1-.61 2.192c-.224.625-.44 1.042-.346 1.267.09.218.472.258.855.587.127.747.492 1.433.986 2.637.582 1.413 1.322 3.543 2.473 5.227 1.15 1.682 2.707 2.915 4.575 3.625 1.868.71 4.044.896 5.332 1.53 1.289.63 1.69 1.711 1.582 2.883-.108 1.174-.723 2.436-.67 3.518.054 1.083.778 1.977 1.736 2.425.957.448 2.145.447 3.604.431 1.456-.014 3.186-.046 4.305.032 1.117.076 1.629.262 2.238.417.61.154 1.32.278 1.882.618.564.34.98.894 1.49 1.604.509.71 1.11 1.574 1.627 2.338.517.765.95 1.427 1.776 2.585.826 1.158 2.045 2.81 3.65 3.99 1.606 1.181 3.595 1.89 5.417 2.523 1.821.633 3.473 1.19 5.179 1.807 1.705.617 3.464 1.296 5.316 2.392 1.852 1.095 3.797 2.607 5.31 4.227.83.89 1.523 1.827 2.14 2.863a7.501 7.501 0 0 1 .399-.301c.31-.215.65-.41.997-.597-1.645-2.572-3.677-4.685-6.022-6.501-3.01-2.33-6.527-4.182-9.722-5.433-3.196-1.25-6.064-1.896-8.296-3.603-2.231-1.706-3.821-4.47-4.994-6.66-1.173-2.192-1.93-3.813-3.233-4.545-1.303-.733-3.153-.58-5.385-.419-2.233.16-4.843.325-5.974-.207-.057-.028-.095-.063-.145-.095.005-.02.002-.038.012-.058.102-.195.487-.388.7-.51.213-.123.229-.166-.032-.102-.262.063-.802.231-1.073.316a1.297 1.297 0 0 1-.183-.425.879.879 0 0 1 .445-.44c.205-.092.466-.136.72-.2a5.54 5.54 0 0 0 .557-.167c.053-.02-.084.018-.322.032a3.803 3.803 0 0 1-.844-.05 2.453 2.453 0 0 1-.575-.19c.042-.328.106-.664.167-.996.21-1.124.279-2.142.005-3.045s-.892-1.691-2.538-2.62c-1.645-.927-4.32-1.995-6.204-3.153-1.884-1.157-2.972-2.405-4.026-4.264-.804-1.416-1.526-3.039-2.123-4.346-.018-.108-.039-.224-.051-.336a1.456 1.456 0 0 1 .076-.68c.066-.176.154-.292.194-.365.04-.074.03-.099-.086-.07-.077.02-.2.068-.313.109-.003-.258-.019-.509-.071-.677-.018-.058-.045-.092-.07-.133l-.008-.05c-.015-.076-.005-.127.059-.17.065-.041.178-.072.25-.1.072-.028.091-.052-.01-.034-.103.016-.328.07-.478.08-.052.002-.084-.002-.12-.005-.047-.025-.103-.047-.134-.084a.29.29 0 0 1-.056-.136c.01-.068.01-.149.039-.194.049-.08.12-.105.219-.124.098-.02.223-.03.214-.042-.008-.015-.148-.032-.22-.094-.073-.06-.074-.162-.067-.284l.002-.042c.13-.29.293-.62.371-1.203.092-.685.063-1.707-.354-2.863-.417-1.157-1.22-2.454-1.999-3.363a8.537 8.537 0 0 0-2.161-1.816c-.624-.378-1.12-.608-1.668-.725a4.13 4.13 0 0 0-1.712.008c-.563.124-1.088.37-1.521.524-.39.14-.695.196-.855.15-.036-.035-.063-.048-.098-.096a1.057 1.057 0 0 1-.176-.36c-.028-.114-.014-.2-.032-.203-.016-.002-.066.084-.121.157a.715.715 0 0 1-.26.214c-.112.06-.256.13-.377.2-.152.045-.308.094-.443.109.002-.023-.009-.027.002-.056.033-.096.121-.232.07-.235-.05-.003-.242.128-.44.199-.017.006-.03.007-.046.011-.18-.12-.286-.32-.462-.398-.127-.056-.298-.047-.52-.031a.126.126 0 0 1 .002-.086c.036-.099.155-.233.22-.331.066-.099.076-.156.01-.131-.067.025-.215.136-.418.234-.204.1-.46.185-.64.261-.032.014-.04.029-.067.042-.666-.067-1.56-.293-2.408-.543-.888-.262-1.706-.542-2.586-.835-.88-.294-1.822-.6-3.01-1.126-1.189-.525-2.623-1.265-3.743-2.053a11.974 11.974 0 0 1-2.576-2.455 10.737 10.737 0 0 1-1.59-2.715c-.424-1.049-.764-2.316-1.197-3.504a24.743 24.743 0 0 0-1.412-3.148c-.455-.848-.84-1.435-1.341-2.022-.503-.587-1.121-1.173-1.507-1.559-.289-.29-.447-.466-.489-.459z" opacity=".5"/>
    </g>
    <g fill="#ffd5d5">
        <path d="M184.069 162.48c-.928-.383-1.844-.623-1.823-.317.022.306.981 1.157 2.466 2.128 1.484.971 3.493 2.063 3.939 2.019.448-.043-.665-1.223-1.69-2.073a10.913 10.913 0 0 0-2.892-1.757zm12.561 13.41c-.283-.088-.567.02-.468.46.098.438.576 1.198.86 1.285.284.087.372-.503.273-.937-.097-.436-.382-.72-.665-.808zm-34.164-29.198c-.349-.231-.349.075.121.896.472.822 1.406 2.148 1.755 2.378.35.229.11-.645-.36-1.462-.469-.818-1.167-1.582-1.516-1.812zm-.534-.482c-.139.023-.416.069-.665-.016-.248-.086-.463-.3-.4-.409.062-.108.401-.108.698-.031.296.077.55.232.628.316.079.085-.022.1-.073.11zm-9.922-.933c-.304.115-.853.27-1.077.235-.223-.035-.123-.259.18-.373.304-.115.817-.124 1.04-.09.224.034.162.112-.143.228zm-.775-.576c-.12-.007-.358-.023-.49.042-.131.065-.154.211-.034.219.122.007.381-.123.512-.189.131-.065.131-.065.01-.072zm-.304-.765c-.027.08-.08.242-.197.246-.117.005-.293-.148-.293-.709 0-.56.178-1.524.136-2.47-.043-.943-.306-1.87-.645-2.48-.34-.609-.757-.902-.961-1.158-.204-.254-.197-.471-.016-.555.18-.084.538-.038.814.12.278.157.479.429.552.648.074.22.02.389.032.605.01.218.088.478.207.93.12.453.282 1.092.344 1.675.062.582.023 1.106.016 1.61-.008.501.014.979.026 1.218.012.24.011.24-.015.32zm-13.295-13.85c-.092.084-.015.594.38 1.127.393.535 1.102 1.089 1.194 1.003.094-.084-.432-.81-.825-1.342-.394-.532-.657-.873-.749-.788zm42.368 30.864a3.224 3.224 0 0 1-1.048-.78c-.394-.454-.743-1.141-1.048-1.67-.306-.53-.567-.901-.437-.851.131.05.655.519 1.114.917.458.398.85.726 1.13 1.075.277.348.44.72.507.96.066.24.033.348.016.403-.016.055-.016.055-.234-.053zm-3.93-14.09c.142.234.426.703.628 1.309.203.605.322 1.347.383 2.085.06.736.06 1.466.005 1.94-.054.475-.163.693-.307.61-.142-.081-.316-.461-.343-1.045-.027-.584.094-1.37.07-2.123a6.145 6.145 0 0 0-.387-1.986c-.201-.513-.442-.818-.48-.954-.037-.136.126-.104.208-.087.081.015.081.015.223.25zm-17.453-10.823c-.06.054-.18.163.03.505.209.34.739.903 1.344 1.394a10.454 10.454 0 0 0 1.704 1.12c.419.212.583.222.302-.027-.282-.25-1.018-.765-1.569-1.24-.55-.475-.922-.912-1.184-1.205a9.607 9.607 0 0 0-.492-.524c-.075-.078-.075-.078-.135-.023zm9.282 5.772c-.327-.13-.699-.261-.824-.24-.126.023-.007.196.322.327.328.131.863.22.988.197.126-.02-.159-.153-.486-.284z"/>
    </g>
    <g>
        <path fill="#ff8080" d="M195.038 175.293c-.59-.01-1.397-.164-2.796.185-1.397.35-3.381 1.2-6.874 2.543-3.494 1.343-8.49 3.175-12.233 3.044-3.744-.13-6.232-2.225-8.054-4.966-1.823-2.738-2.98-6.121-4.223-8.434-1.245-2.314-2.577-3.558-3.45-3.908-.872-.35-1.287.196-1.55.349-.262.153-.37-.087-.293-.524.075-.436.338-1.07 1.058-1.08.718-.01 1.9.601 2.902 1.387 1.005.786 1.833 1.745 2.532 2.912.699 1.168 1.266 2.544 1.987 4.083.72 1.54 1.592 3.24 2.98 4.682 1.385 1.44 3.285 2.62 5.554 3.055 2.27.437 4.912.131 7.15-.403 2.236-.535 4.07-1.3 5.903-2.075 1.833-.774 3.666-1.56 4.79-2.161 1.125-.6 1.54-1.015 2.15-1.157.61-.141 1.419-.01 2.084.405.665.414 1.19 1.113 1.267 1.527.076.415-.294.546-.884.535z"/>
        <path fill="#f55" d="M156.62 162.5c-.719.011-.982.647-1.058 1.083-.077.437.031.675.294.522.263-.153.677-.698 1.55-.348.872.35 2.204 1.595 3.446 3.908 1.245 2.314 2.402 5.696 4.225 8.435.766 1.153 1.661 2.177 2.707 3.004-.087-.075-.18-.145-.262-.225-.644-.629-1.113-1.446-1.252-2.07-.14-.622.051-1.043.237-1.311.083-.118.163-.197.235-.262-1.216-1.368-2.032-2.926-2.7-4.352-.721-1.54-1.29-2.915-1.988-4.083-.698-1.167-1.527-2.127-2.531-2.912-1.004-.786-2.184-1.399-2.903-1.388z"/>
        <path d="M156.714 163.045a.702.702 0 0 0-.197.022c-.254.07-.485.302-.639.472-.155.17-.233.278-.257.434-.023.155.008.354.117.423.11.07.293.007.532-.07.239-.077.534-.169.942-.008.406.162.932.579 1.411 1.08a9.662 9.662 0 0 1 1.303 1.752c.394.663.748 1.405 1.142 2.308.394.903.828 1.968 1.344 3.11.518 1.143 1.118 2.362 1.898 3.52a21.524 21.524 0 0 0 2.548 3.063c.81.81 1.472 1.334 2.344 1.765a8.678 8.678 0 0 0 3.105.867c1.149.092 2.37-.063 3.772-.356 1.404-.294 2.994-.726 4.699-1.211 1.704-.487 3.528-1.027 5.118-1.582 1.589-.556 2.948-1.128 4.06-1.55 1.11-.426 1.973-.705 2.59-.558.337.08.6.285.834.476.015.036.032.066.045.103.926 2.315 1.698 5.216 1.946 6.971.247 1.756.43 8.095.463 8.656.034.56.282 5.029.818 5.295.537.267.183-.298.64-.333.454-.035 1.36-9.23.884-11.53-.474-2.3-1.61-6.806-3.427-10.463-.229-.46-.481-.893-.733-1.326-.184-.216-.37-.19-.48-.247a2.46 2.46 0 0 0-.581.069c-.426.1-.964.33-1.938.772-.975.44-2.373 1.086-4.212 1.874-1.836.787-4.104 1.713-5.924 2.362-1.823.647-3.196 1.017-4.5 1.241-1.306.224-2.539.303-3.743.056-1.205-.248-2.379-.819-3.366-1.46a10.781 10.781 0 0 1-2.476-2.177c-.686-.825-1.258-1.766-1.806-2.724a42.828 42.828 0 0 1-1.605-3.054c-.533-1.127-1.073-2.41-1.59-3.397a12.077 12.077 0 0 0-1.512-2.276c-.501-.594-1.01-1.087-1.504-1.442a6.395 6.395 0 0 0-1.351-.726c-.283-.116-.51-.196-.713-.2z" opacity=".5"/>
    </g>
    <g fill="#ffd5d5">
        <path d="M195.415 174.444c.1-.105.301-.313.251-.581-.05-.27-.352-.603-.792-.78-.439-.178-1.017-.201-1.48-.162-.464.037-.81.138-1.29.37-.48.232-1.087.594-1.709.941-.622.347-1.254.678-1.207.721.048.042.772-.204 1.504-.474.733-.27 1.475-.564 2.1-.66.624-.096 1.134.005 1.477.162.342.158.52.375.667.479.147.105.263.096.32.093.058-.004.058-.004.159-.109zm-24.264 4.096c.213.11.419.252.442.376.023.126-.141.234-.553.158-.412-.077-1.062-.337-1.778-.823-.715-.486-1.489-1.194-1.953-1.665-.464-.469-.617-.698-.311-.518.305.18 1.07.77 1.73 1.207.66.436 1.217.72 1.605.9.387.18.605.256.817.365zm-10.267-12.97c.057.135.343.552.67 1.154.33.602.7 1.389.916 1.697.216.308.278.138.205-.134-.073-.272-.283-.653-.556-1.096a16.049 16.049 0 0 0-.87-1.281c-.253-.328-.423-.475-.365-.34zm-4.421-2.902c-.074.042-.22.127-.184.163.036.034.25.019.477.011.226-.007.467-.007.825.143.357.15.838.451.973.51.135.058-.073-.128-.348-.302a4.186 4.186 0 0 0-.902-.428 2.987 2.987 0 0 0-.648-.127c-.121-.012-.121-.012-.193.03z"/>
    </g>
    <g>
        <path fill="#ff8080" d="M74.416 49.824c-.17-.247-.509-.74-.679-1.312-.17-.572-.17-1.22.186-1.983.354-.764 1.065-1.645 1.728-2.447.664-.802 1.282-1.528 1.683-2.477.4-.948.587-2.123.447-3.179a5.357 5.357 0 0 0-1.173-2.685c-.571-.686-1.25-1.119-1.937-1.914-.687-.796-1.382-1.953-1.744-2.74-.363-.787-.393-1.204-.448-1.19-.053.016-.13.464-.06.929.069.464.284.94.6 1.519.317.58.734 1.258 1.189 1.883.456.626.949 1.197 1.335 1.644.386.447.664.771.887 1.18a4.1 4.1 0 0 1 .463 1.443 5.043 5.043 0 0 1-.092 1.72 6.807 6.807 0 0 1-.663 1.752c-.302.557-.67 1.065-1.128 1.614-.455.548-.995 1.133-1.404 1.782-.408.65-.687 1.358-.802 1.898-.116.54-.07.91-.039 1.25.032.34.046.649.348.904.303.256.887.455 1.18.555.293.101.293.101.123-.146z"/>
        <path d="M73.41 49.858c.142-.136.126-.46.041-.798-.083-.338-.238-.695-.309-1.065a2.63 2.63 0 0 1 .047-1.147 3.94 3.94 0 0 1 .553-1.183c.265-.402.614-.811.953-1.218.34-.406.676-.813.96-1.228.282-.416.516-.842.712-1.257.197-.415.358-.818.471-1.232a6.62 6.62 0 0 0 .215-1.274 4.78 4.78 0 0 0-.063-1.35 5.22 5.22 0 0 0-.498-1.342 5.411 5.411 0 0 0-.69-.988c-.26-.304-.553-.622-.908-1.066a34.133 34.133 0 0 1-1.1-1.477c-.327-.463-.566-.818-.748-1.162a5.689 5.689 0 0 1-.398-.972 4.396 4.396 0 0 1-.176-.76c-.023-.2-.009-.34-.027-.315-.02.027-.074.221-.09.465-.015.244.008.536.085.884.078.348.209.749.429 1.2.22.453.528.953.853 1.463.324.509.663 1.026 1.076 1.52.413.494.899.964 1.223 1.47.324.505.486 1.045.548 1.55.062.506.023.976-.066 1.4a7.604 7.604 0 0 1-.347 1.123c-.119.32-.22.582-.378.919a5.846 5.846 0 0 1-.691 1.146c-.317.402-.731.794-1.072 1.176a7.806 7.806 0 0 0-.83 1.123 5.689 5.689 0 0 0-.54 1.088 4.096 4.096 0 0 0-.196 1.054 6.974 6.974 0 0 0-.009 1.211c.04.39.131.73.33.926.196.198.497.252.638.115z" opacity=".5"/>
        <path fill="#ff8080" d="M85.565 66.028c-1.037-.141-2.935-.338-3.994-1.224-1.058-.884-1.277-2.455-1.32-3.818-.044-1.364.087-2.522-.404-3.95-.491-1.43-1.605-3.133-3.23-4.344-1.627-1.21-3.765-1.932-5.632-3.591-1.867-1.66-3.46-4.256-4.224-5.905-.764-1.648-.698-2.346-.534-2.87.164-.524.426-.873.524-.733.098.142.032.777.185 1.465.153.69.524 1.43 1.179 2.412a30.875 30.875 0 0 0 2.52 3.241c.929 1.037 1.844 1.888 3.046 2.598 1.2.71 2.685 1.276 3.688 1.768 1.004.491 1.528.906 2.052 1.713.524.806 1.048 2.007 1.352 3.066.306 1.058.393 1.975.535 2.663.142.688.338 1.145.372 1.899.032.754-.099 1.8.12 2.477.22.677.786.983 1.484 1.223.698.24 1.53.415 2.161.556.633.143 1.07.252 1.451.35.382.098.71.186 1.015.436.304.25.589.665.623 1.157.032.49-.186 1.058 0 1.593.186.537.775 1.037 1.44 1.507.665.47 1.408.905 2.073 1.33.666.427 1.255.842.983.83-.272-.01-1.408-.447-2.467-.905-1.058-.459-2.04-.939-2.565-1.464-.524-.524-.589-1.091-.687-1.626-.099-.534-.23-1.037-.381-1.33-.153-.295-.328-.383-1.365-.524z"/>
        <path d="M92.593 71.675c-.415-.202-1.243-.606-2.035-1.031-.791-.426-1.545-.874-2.041-1.365a3.032 3.032 0 0 1-.85-1.544c-.116-.519-.106-1.02-.16-1.364-.054-.344-.174-.53-.414-.681-.239-.153-.6-.273-1.069-.372-.47-.099-1.047-.174-1.583-.283a11.556 11.556 0 0 1-1.511-.421c-.487-.169-.965-.365-1.354-.611-.388-.246-.681-.54-.829-1.12-.147-.578-.147-1.44-.17-2.193-.02-.752-.064-1.397-.086-1.926-.022-.53-.022-.944-.23-1.56-.206-.614-.622-1.435-1.037-2.172-.414-.737-.829-1.392-1.424-2.001-.594-.612-1.37-1.18-2.182-1.726-.813-.545-1.664-1.068-2.537-1.636-.873-.568-1.768-1.179-2.658-2.064-.89-.883-1.773-2.04-2.44-3.033-.665-.993-1.112-1.823-1.341-2.456-.23-.633-.241-1.07-.203-1.425.04-.354.126-.628.175-.813.05-.185.06-.282-.01-.288-.071-.004-.23.087-.392.481a3.683 3.683 0 0 0-.224 1.823c.103.746.471 1.543.99 2.569.516 1.025 1.18 2.273 1.89 3.293s1.467 1.806 2.28 2.43c.815.625 1.686 1.086 2.445 1.504.76.418 1.406.792 1.982 1.209.576.416 1.08.874 1.618 1.452.536.578 1.103 1.274 1.517 2.095.414.82.675 1.764.74 2.905.065 1.141-.067 2.476-.026 3.42.04.945.252 1.496.582 1.991a3.5 3.5 0 0 0 1.424 1.247c.65.313 1.499.499 2.308.637.81.14 1.582.232 2.092.498.509.266.756.706 1.002 1.188.247.482.495 1.007.884 1.435.39.43.922.76 1.509 1.058.587.297 1.227.56 1.86.744.632.185 1.258.293 1.577.331.32.038.332.006.34-.008.006-.015.006-.015-.409-.217z" opacity=".5"/>
    </g>
    <g fill="#ffd5d5">
        <path d="M78.89 52.468c-.223-.235-.485-.496-.823-.627-.337-.131-.752-.131-.675.104.076.235.642.703 1.084 1.107.442.404.758.742 1.064 1.228.305.485.6 1.118.703 1.183.105.065.017-.437-.141-.922a6.366 6.366 0 0 0-.595-1.292 4.279 4.279 0 0 0-.616-.78zm2.451 7.077c-.098-.228-.207-.316-.267-.18-.06.136-.071.495-.01.83.06.333.19.638.293.686.105.05.181-.157.176-.446a2.702 2.702 0 0 0-.192-.89zm6.407 5.874l-.162-.057a3.597 3.597 0 0 0-.406-.118c-.163-.035-.343-.056-.266.034.077.091.408.291.604.492.196.202.257.405.303.683.046.279.079.632.15.849.071.216.18.292.268.189.087-.105.153-.39.164-.646a1.91 1.91 0 0 0-.096-.676 1.49 1.49 0 0 0-.238-.46 1.46 1.46 0 0 0-.248-.242c-.052-.04-.052-.04-.073-.048zm-6.182-2.637c-.07-.003-.158.1-.172.175-.014.075.046.119.117.12.071.003.154-.035.168-.108.012-.074-.042-.184-.113-.187zm.163.536c-.075-.02-.168.046-.14.134.027.089.172.197.341.297.17.1.36.194.364.159.003-.035-.184-.2-.306-.334-.123-.134-.184-.237-.259-.256zm6.556 4.789c-.056.027-.17.081-.149.15.022.07.179.15.26.142.082-.01.088-.108.066-.175a.259.259 0 0 0-.095-.126c-.025-.019-.025-.019-.082.009zm.357.689c-.027.03-.081.089.144.312.225.222.712.592 1.177.878.464.287.895.483.766.352-.127-.13-.816-.589-1.241-.908-.425-.32-.59-.5-.681-.587-.093-.088-.115-.083-.126-.08-.011.004-.011.004-.039.033zM75.645 50.58a15.959 15.959 0 0 1-1.029-.597c-.308-.205-.444-.352-.573-.563a3.238 3.238 0 0 1-.327-.756 5.25 5.25 0 0 1-.147-.769c-.03-.223-.053-.398-.082-.377-.03.02-.068.24-.046.542.02.3.103.68.18.995.076.314.147.558.349.789.203.23.534.442.873.622.338.18.683.327.857.363.175.034.18-.042.182-.08.003-.038.003-.038-.237-.169zm-6.161-5.062c0 .014 0 .04.19.272.19.233.541.637.937 1.069.395.43.82.872.85.968.031.094-.334-.156-.725-.524a7.851 7.851 0 0 1-1.017-1.173c-.213-.32-.225-.474-.23-.55-.005-.076-.005-.076-.005-.062zm7.803-8.51a.77.77 0 0 0-.135-.249c-.07-.09-.204-.257-.236-.203-.032.054.032.327.14.702.106.374.253.848.29 1.344.04.497-.03 1.014-.136 1.596-.103.582-.24 1.225-.373 1.636-.134.413-.264.592-.277.653-.013.06.09 0 .211-.147.122-.146.265-.383.407-.685a5.27 5.27 0 0 0 .388-1.16 7.352 7.352 0 0 0 .157-1.58 4.531 4.531 0 0 0-.191-1.199 7.543 7.543 0 0 0-.245-.707zm58.547 88.699c-.081-.226-.245-.68-.452-.901-.207-.22-.458-.21-.474-.006-.017.202.2.593.409.815a.953.953 0 0 0 .502.293c.097.025.097.025.015-.201zm-1.33-2.315c-.038.046-.114.138-.098.249.017.11.125.234.24.303.114.068.235.078.317.034a.222.222 0 0 0 .109-.23c-.016-.085-.095-.163-.175-.228a1.223 1.223 0 0 0-.23-.146c-.06-.029-.092-.029-.109-.029-.016 0-.016 0-.054.047zm-.566-.262c.085.003.255.008.37-.022a.287.287 0 0 0 .217-.186c.031-.089.031-.205-.008-.217-.04-.011-.122.082-.222.132-.098.05-.211.055-.313.063-.1.009-.187.02-.206.058-.02.039.028.104.052.136.025.032.025.032.11.036zm.681-1.216c-.05.111-.147.336-.213.388-.066.051-.098-.068-.069-.319.03-.25.124-.634.184-1.257.06-.623.087-1.494-.021-2.246-.11-.753-.357-1.392-.577-1.886a10.655 10.655 0 0 0-.57-1.102c-.153-.259-.263-.428-.202-.463.06-.035.29.063.499.275.21.212.401.54.581 1.004.18.464.35 1.064.461 1.703.112.639.167 1.314.164 1.849-.003.534-.063.927-.103 1.228-.042.3-.063.507-.073.61-.012.105-.012.105-.061.216zm-1.97-7.815l-.27-.369c-.247-.335-.731-.995-1.328-1.465a4.54 4.54 0 0 0-1.874-.859c-.562-.107-.97-.035-.785.225.186.26.965.706 1.698 1.152.733.448 1.422.896 1.843 1.117.42.22.573.216.65.212.075-.003.075-.003.066-.013zm-8.611-1.876c-.068.028-.205.082-.262.164-.058.083-.037.19.063.21.1.018.272-.052.374-.137.1-.084.127-.183.098-.23-.03-.044-.117-.039-.161-.036-.044.003-.044.003-.112.03zm-1.77-.377c-.015-.003-.042-.008-.17.02-.128.029-.345.086-.477.178-.131.094-.17.218-.126.306.045.09.17.138.362.116.194-.021.457-.116.585-.225.128-.109.122-.234.073-.302-.048-.068-.141-.079-.188-.084l-.06-.009zm-2.955-.775c.289.1.704.254.876.387.171.133.1.247-.255.255-.355.009-.982-.088-1.864-.4-.882-.311-2.01-.834-3.237-1.273-1.228-.44-2.553-.794-3.394-1.108-.84-.315-1.195-.587-.987-.57.207.017.976.321 1.68.566.703.24 1.342.422 2.053.626a1041.734 1041.734 0 0 1 4.221 1.233c.454.134.619.183.907.284zm-16.958-15.284c-.146-.01-.343.054-.293.307.05.251.341.686.663 1.34.323.656.67 1.528 1 2.434.326.907.632 1.844.725 1.937.093.092-.028-.66-.229-1.516a24.43 24.43 0 0 0-.754-2.555c-.266-.736-.518-1.25-.692-1.55-.175-.299-.273-.387-.42-.397z"/>
    </g>
</svg>
