<?xml version="1.0" encoding="UTF-8" standalone="no"?>
<svg
   xmlns:dc="http://purl.org/dc/elements/1.1/"
   xmlns:cc="http://creativecommons.org/ns#"
   xmlns:rdf="http://www.w3.org/1999/02/22-rdf-syntax-ns#"
   xmlns:svg="http://www.w3.org/2000/svg"
   xmlns="http://www.w3.org/2000/svg"
   xmlns:sodipodi="http://sodipodi.sourceforge.net/DTD/sodipodi-0.dtd"
   xmlns:inkscape="http://www.inkscape.org/namespaces/inkscape"
   inkscape:version="1.0 (4035a4fb49, 2020-05-01)"
   sodipodi:docname="goat.svg"
   viewBox="0 0 725.66931 725.66931"
   id="svg19"
   height=""
   width=""
   version="1.1">
  <metadata
     id="metadata25">
    <rdf:RDF>
      <cc:Work
         rdf:about="">
        <dc:format>image/svg+xml</dc:format>
        <dc:type
           rdf:resource="http://purl.org/dc/dcmitype/StillImage" />
        <dc:title></dc:title>
      </cc:Work>
    </rdf:RDF>
  </metadata>
  <defs
     id="defs23" />
  <sodipodi:namedview
     inkscape:current-layer="svg19"
     inkscape:window-maximized="0"
     inkscape:window-y="0"
     inkscape:window-x="0"
     inkscape:cy="362.83466"
     inkscape:cx="362.83466"
     inkscape:zoom="0.79650605"
     showgrid="false"
     id="namedview21"
     inkscape:window-height="480"
     inkscape:window-width="820"
     inkscape:pageshadow="2"
     inkscape:pageopacity="0"
     guidetolerance="10"
     gridtolerance="10"
     objecttolerance="10"
     borderopacity="1"
     bordercolor="#666666"
     pagecolor="#ffffff" />
  <g
     id="Layer1000">
    <path
       id="path2"
       style="fill:#ffffff;fill-rule:evenodd;stroke:#000000;stroke-width:7.9999;stroke-linecap:round;stroke-linejoin:round;stroke-dasharray:none"
       d="m 403.5314,213.2296 c -81.8722,-33.7771 -148.2308,-32.1592 -201.9388,27.937 69.4577,-38.739 124.6843,-27.3623 170.1503,18.3841 z" />
    <path
       id="path4"
       style="fill:#ffffff;fill-rule:evenodd;stroke:#000000;stroke-width:7.9999;stroke-linecap:round;stroke-linejoin:round;stroke-dasharray:none"
       d="M 364.6771,256.3521 C 300.5981,196.2843 239.5741,187.3805 167.5458,232.662 240.0814,148.1111 318.1094,162.5001 397.9503,209.4829 Z" />
    <path
       id="path6"
       style="fill:#ffffff;fill-rule:evenodd;stroke:#000000;stroke-width:7.9999;stroke-linecap:round;stroke-linejoin:round;stroke-dasharray:none"
       d="m 442.6358,254.7573 c 23.4719,-56.9456 16.2943,-61.0489 -20.731,-13.69 z" />
    <path
       id="path8"
       style="fill:#ffffff;fill-rule:evenodd;stroke:#000000;stroke-width:7.9999;stroke-linecap:round;stroke-linejoin:round;stroke-dasharray:none"
       d="m 108.4253,433.7103 179.7016,115.573 80.5754,-91.5281 c 61.0808,14.2062 69.3601,16.7182 135.6512,27.7987 117.7515,18.2545 126.5311,-39.9258 102.1651,-84.9058 L 507.9512,320.855 c -33.6955,-47.4138 -65.5496,-85.6011 -90.8913,-91.2531 22.9841,-69.4559 0.4063,-92.8516 -46.4027,-4.1884 l -127.1218,116.5629 -47.719,53.1954 z" />
    <path
       id="path10"
       style="fill:none;stroke:#000000;stroke-width:7.9999;stroke-linecap:round;stroke-linejoin:round;stroke-dasharray:none"
       d="m 370.6572,225.4135 c -8.7653,22.3294 -20.1704,40.7862 -35.198,54.7689" />
    <path
       id="path12"
       style="fill:none;stroke:#000000;stroke-width:7.9999;stroke-linecap:round;stroke-linejoin:round;stroke-dasharray:none"
       d="m 417.0599,229.6019 c -15.1482,24.4032 -23.9402,49.3866 -27.6212,74.8312" />
    <path
       id="path14"
       style="fill:none;stroke:#000000;stroke-width:7.9999;stroke-linecap:round;stroke-linejoin:round;stroke-dasharray:none"
       d="m 529.0814,463.2351 c 19.0511,7.7453 39.367,13.7184 61.0223,17.8128" />
    <path
       id="path16"
       style="fill:none;stroke:#000000;stroke-width:7.9999;stroke-linecap:round;stroke-linejoin:round;stroke-dasharray:none"
       d="m 615.6175,452.905 c -47.6144,-29.4343 -49.5729,-28.7956 1.9017,-14.4226 0.3867,4.3108 -0.1827,9.074 -1.9017,14.4226 z" />
  </g>
</svg>
