<svg xmlns="http://www.w3.org/2000/svg" viewBox="0 0 725.669 725.669">
    <g fill-rule="evenodd">
        <path fill="#e0e7ec" d="M262.158 410.547c-.804-8.642 5.715-15.738 13.499-16.162 13.616-.741 40.596 34.336 48.297 44.717 14.14 19.06 35.193 58.245 35.036 90.612-.096 19.698-26.37 23.79-28.994.04-3.741-33.847-17.956-61.432-39.07-85.609-5.742-6.574-7.286-8.933-14.58-16.245-4.305-4.317-13.464-9.583-14.188-17.353zm96.267-92.465c-2.898-9.712 3.563-18.017 11.338-19.096 14.798-2.054 40.52 32.305 48.502 43.025 16.649 22.365 33.25 52.395 36.104 88.848 1.916 24.477-25.426 25.536-28.54 6.064-6.221-38.921-12.507-54.34-37.425-86.042-7.735-9.84-28.887-29.137-29.98-32.8zm123.933 77.102c-9.795-17.132-9.362-42.194-48.657-89.646-4.314-5.21-6.96-8.843-11.07-12.734-20.206-19.13-17.67-19.995 1.428-39.081 8.028-8.023 15.21-15.006 23.097-23.13 8.823-9.088 37.78-43.558 49.697-43.448 23.492.217 64.003 83.388 71.622 113.924 5.258 21.074-1.52 22.872-11.676 32.151l-47.101 45.368c-7.443 7.328-13.594 19.01-27.34 16.596zm111.509-199.369c7.727 12.209 39.895 79.714 15.777 89.557-28.026 11.438-10.214-26.393-43.745-79.81-3.787-6.034-9.041-12.968-13.047-17.753-2.723-3.253-4.221-5.743-6.838-8.624-2.434-2.68-5.463-5.007-7.911-7.445-2.434-2.425-13.783-13.196-15.115-15.803-5.048-9.885 1.704-17.906 9.368-20.215 17.123-5.157 53.213 46.983 61.51 60.093zm-.33-92.094c9.142 7.869 21.345 22.645 28.874 32.745 4.797 6.435 8.306 11.686 12.369 18.463 7.65 12.763 40.579 80.07 15.352 89.604-22.368 8.454-19.833-22.638-23.852-37.713-7.762-29.114-27.337-56.342-46.861-76.41-4.116-4.231-13.608-10.848-15.593-15.226-4.205-9.27.545-17.673 8.727-20.291 9.528-3.05 16.343 4.834 20.984 8.828zm-17.015-50.426l-369.562 370c-4.654 4.654-9.719 7.473-12.1 14.623 6.06 4.058 14.878 14.177 20.665 19.964 7.112 7.112 13.233 13.181 20.307 20.322 3.648 3.682 6.547 5.499 10.4 9.181 29.039 27.753 58.296 85.931 48.71 131.803-2.892 13.843-9.062 19.912-12.177 29.527 9.068-7.019 279.717-279.308 287.261-286.852l107.176-107.176c12.462-12.46 23.663-24.12 27.789-45.062 8.551-43.41-13.395-85.346-30.83-109.509-8.864-12.285-60.25-66.333-70.861-73.44z"/>
        <path fill="#ccd6dd" d="M527.481 47.691L140.648 435.765c2.045 4.635 2.557 4.17 7.107 8.633 14.958 14.67 38.72 40.125 52.025 51.381 2.025 3.434 11.936 11.476 15.7 15.375 16.79 17.39 30.558 37.02 41.144 59.768 16.626 35.728 19.134 74.055-2.598 105.37 3.963-1.538 3.88-2.178 7.798-6.197l20.94-21.38c3.116-9.615 9.286-15.684 12.179-29.527 9.585-45.872-19.672-104.05-48.71-131.803-3.854-3.682-6.753-5.499-10.401-9.18-7.074-7.142-13.195-13.211-20.307-20.323-5.787-5.787-14.605-15.906-20.665-19.964 2.381-7.15 7.446-9.969 12.1-14.622l369.562-370-26.115-26.964z"/>
        <path fill="#66757f" d="M80.013 487.449c53.204-13.04 90.123 75.824 91.598 105.403.88 17.624-21.771 19.076-27.147 7.5-2.24-4.823-3.74-13.906-5.477-19.743-25.26-84.862-78.846-81.802-61.317-21.257 9.42 32.533 39.228 65.302 67 82.823 22.458 14.169 55.363 21.364 67.975-4.436 16.562-33.88-17.555-84.392-39.439-102.48-6.697-5.536-25.153-18.797-8.264-30.737 12.396-8.763 25.49 7.569 31.177 13.37 13.628 13.898 9.786 8.174 23.055 26.013 31.7 42.616 42.86 110.506-11.122 135.505C148.855 706.825 57.31 622.178 46.575 552.3c-4.897-31.883 7.094-58.395 33.438-64.851zm-25.9-18.914c-11.002 4.583-23.843 26.129-27.166 36.733-10.747 34.303 2.82 74.101 20.077 102.901 6.697 11.177 25.924 36.679 36.509 44.75 10.131 7.724 8.645 9.062 27.455 21.58 13.992 9.311 27.119 16.268 44.157 21.688 25.592 8.14 54 10.398 79.244-3.091 5.34-2.853 15.978-10.662 18.469-14.96l1.168-1.844c21.732-31.315 19.224-69.642 2.598-105.37-10.586-22.748-24.354-42.378-41.144-59.768-3.764-3.899-13.675-11.941-15.7-15.375-5.603-2.289-10.48-6.841-15.843-10.495-4.632-3.155-9.614-6.312-14.735-9.08-40.272-21.768-74.949-27.744-115.09-7.67z"/>
        <path fill="#99aab5" d="M54.112 468.535c40.141-20.076 74.819-14.1 115.09 7.669 5.12 2.768 10.103 5.925 14.735 9.08 5.362 3.654 10.24 8.206 15.843 10.495-13.305-11.256-37.067-36.71-52.025-51.381-4.55-4.463-5.062-3.998-7.107-8.633L527.48 47.69c-13.279 0-29.244-4.773-49.313 3.76-16.626 7.068-20.57 12.35-32.13 23.91-35.159 35.16-387.684 385.237-391.926 393.174z"/>
        <path fill="#5dadeb" d="M482.358 395.184c13.746 2.413 19.897-9.268 27.34-16.596l47.1-45.368c10.157-9.279 16.935-11.077 11.677-32.151-7.619-30.536-48.13-113.707-71.622-113.925-11.917-.11-40.874 34.361-49.697 43.45-7.887 8.123-15.069 15.106-23.097 23.129-19.099 19.086-21.634 19.951-1.428 39.081 4.11 3.89 6.756 7.525 11.07 12.734 39.295 47.452 38.862 72.514 48.657 89.646z"/>
        <path fill="#98a9b4" d="M80.013 487.449c-26.344 6.456-38.335 32.968-33.438 64.85 10.734 69.88 102.28 154.526 161.477 127.111 53.982-25 42.822-92.89 11.122-135.505-13.269-17.839-9.427-12.114-23.055-26.013-5.688-5.801-18.78-22.133-31.177-13.37-16.889 11.94 1.567 25.201 8.264 30.737 21.884 18.088 56 68.6 39.439 102.48-12.612 25.8-45.517 18.605-67.975 4.436-27.772-17.52-57.58-50.29-67-82.823-17.53-60.545 36.058-63.605 61.317 21.257 1.738 5.837 3.237 14.92 5.477 19.743 5.376 11.576 28.027 10.124 27.147-7.5-1.475-29.579-38.394-118.443-91.597-105.403z"/>
        <path fill="#99aab5" d="M358.425 318.082c1.092 3.662 22.244 22.96 29.979 32.8 24.918 31.7 31.204 47.12 37.426 86.041 3.113 19.472 30.456 18.413 28.54-6.064-2.855-36.453-19.456-66.483-36.105-88.848-7.981-10.72-33.704-45.079-48.502-43.025-7.775 1.08-14.236 9.384-11.338 19.096zM532.356 135.722c-7.664 2.309-14.416 10.33-9.368 20.215 1.331 2.607 12.68 13.378 15.115 15.803 2.448 2.438 5.476 4.766 7.91 7.445 2.618 2.881 4.116 5.37 6.84 8.624 4.005 4.785 9.259 11.719 13.046 17.753 33.53 53.417 15.719 91.248 43.745 79.81 24.117-9.843-8.05-77.348-15.777-89.557-8.298-13.11-44.389-65.25-61.51-60.093zM572.553 94.893c-8.182 2.618-12.932 11.02-8.727 20.291 1.985 4.378 11.477 10.995 15.593 15.226 19.524 20.068 39.099 47.296 46.86 76.41 4.02 15.075 1.485 46.167 23.853 37.713 25.227-9.533-7.702-76.84-15.352-89.604-4.063-6.777-7.572-12.028-12.37-18.463-7.529-10.1-19.731-24.876-28.874-32.745-4.64-3.994-11.455-11.877-20.984-8.828zM262.158 410.547c.724 7.77 9.883 13.036 14.189 17.353 7.293 7.312 8.837 9.67 14.579 16.245 21.114 24.177 35.329 51.762 39.07 85.61 2.624 23.75 28.898 19.657 28.994-.041.157-32.367-20.896-71.552-35.036-90.612-7.701-10.381-34.681-45.458-48.297-44.717-7.784.424-14.303 7.52-13.499 16.162z"/>
        <path fill="#c9d3dc" d="M254.026 676.292l-1.168 1.844c2.265 0 1.709.489 1.168-1.844z"/>
    </g>
</svg>
