<?xml version="1.0" encoding="UTF-8" standalone="no"?>
<svg
   xmlns:dc="http://purl.org/dc/elements/1.1/"
   xmlns:cc="http://creativecommons.org/ns#"
   xmlns:rdf="http://www.w3.org/1999/02/22-rdf-syntax-ns#"
   xmlns:svg="http://www.w3.org/2000/svg"
   xmlns="http://www.w3.org/2000/svg"
   xmlns:sodipodi="http://sodipodi.sourceforge.net/DTD/sodipodi-0.dtd"
   xmlns:inkscape="http://www.inkscape.org/namespaces/inkscape"
   inkscape:version="1.0 (4035a4fb49, 2020-05-01)"
   sodipodi:docname="unemployed.svg"
   id="svg16"
   version="1.1"
   viewBox="0 0 64 64">
  <metadata
     id="metadata22">
    <rdf:RDF>
      <cc:Work
         rdf:about="">
        <dc:format>image/svg+xml</dc:format>
        <dc:type
           rdf:resource="http://purl.org/dc/dcmitype/StillImage" />
      </cc:Work>
    </rdf:RDF>
  </metadata>
  <defs
     id="defs20" />
  <sodipodi:namedview
     inkscape:current-layer="svg16"
     inkscape:window-maximized="1"
     inkscape:window-y="-8"
     inkscape:window-x="-8"
     inkscape:cy="31.889273"
     inkscape:cx="30.449827"
     inkscape:zoom="9.03125"
     showgrid="false"
     id="namedview18"
     inkscape:window-height="746"
     inkscape:window-width="1304"
     inkscape:pageshadow="2"
     inkscape:pageopacity="0"
     guidetolerance="10"
     gridtolerance="10"
     objecttolerance="10"
     borderopacity="1"
     bordercolor="#666666"
     pagecolor="#ffffff" />
  <g
     id="g8"
     stroke-linejoin="round"
     stroke="#000"
     fill-rule="evenodd">
    <path
       id="path2"
       d="M3.946 51.676l55.937-.015.057-23.527c.012 2.687-2.149 3.204-4.685 3.234-5.621.066-11.938.035-17.749.019l.055 4.167-8.804.014.001-4.231c-4.991-.078-13.33-.074-18.356-.149-3.817-.057-5.995-1.558-6.195-3.489z"
       stroke-width=".9801"
       fill="#a05a2c" />
    <path
       id="path4"
       d="M4.426 24.025l.026-8.762c.005-1.728 55.785-1.617 55.79-.062l.025 8.766c.01 3.447-1.617 4.934-6.788 4.968-4.22.028-9.802.041-15.301.039l-.02-4.01-9.206-.077.085 4.11c-5.391-.021-11.085-.1-15.44-.152-4.987-.06-9.182-.955-9.17-4.82z"
       stroke-width=".9801"
       fill="#a05a2c" />
    <path
       id="path6"
       d="M30.858 26.625l.086 7.147h5.198l.043-7.147zM16.504 12.69l6.493-.307s.718-2.315 1.96-2.572c4.532-.94 10.906-.693 15.437-.245 1.411.14 2.45 2.817 2.45 2.817l6.31.246s-2.06-6.244-4.962-6.861c-6.781-1.443-16.394-1.445-23.216.245-2.75.681-4.472 6.677-4.472 6.677z"
       stroke-width=".9801"
       fill="#d38d5f" />
  </g>
</svg>
