<?xml version="1.0" encoding="UTF-8" standalone="no"?>
<svg
   xmlns:dc="http://purl.org/dc/elements/1.1/"
   xmlns:cc="http://creativecommons.org/ns#"
   xmlns:rdf="http://www.w3.org/1999/02/22-rdf-syntax-ns#"
   xmlns:svg="http://www.w3.org/2000/svg"
   xmlns="http://www.w3.org/2000/svg"
   xmlns:sodipodi="http://sodipodi.sourceforge.net/DTD/sodipodi-0.dtd"
   xmlns:inkscape="http://www.inkscape.org/namespaces/inkscape"
   inkscape:version="1.0 (4035a4fb49, 2020-05-01)"
   sodipodi:docname="2.svg"
   viewBox="0 0 725.66931 725.66931"
   id="svg4"
   height=""
   width=""
   version="1.1">
  <metadata
     id="metadata10">
    <rdf:RDF>
      <cc:Work
         rdf:about="">
        <dc:format>image/svg+xml</dc:format>
        <dc:type
           rdf:resource="http://purl.org/dc/dcmitype/StillImage" />
        <dc:title></dc:title>
      </cc:Work>
    </rdf:RDF>
  </metadata>
  <defs
     id="defs8" />
  <sodipodi:namedview
     inkscape:current-layer="svg4"
     inkscape:window-maximized="0"
     inkscape:window-y="0"
     inkscape:window-x="0"
     inkscape:cy="362.83466"
     inkscape:cx="362.83466"
     inkscape:zoom="0.79650605"
     showgrid="false"
     id="namedview6"
     inkscape:window-height="480"
     inkscape:window-width="820"
     inkscape:pageshadow="2"
     inkscape:pageopacity="0"
     guidetolerance="10"
     gridtolerance="10"
     objecttolerance="10"
     borderopacity="1"
     bordercolor="#666666"
     pagecolor="#ffffff" />
  <path
     id="path2"
     style="fill:#ffffff;fill-rule:evenodd;stroke:#000000;stroke-width:2.9999;stroke-linecap:butt;stroke-linejoin:miter;stroke-dasharray:none"
     d="m 15.3564,295.9381 13.8368,-1.2438 c 0.6477,5.597 2.1764,10.1832 4.5861,13.7849 2.4098,3.5759 6.141,6.4777 11.1938,8.7063 5.0527,2.2022 10.7532,3.3165 17.0756,3.3165 5.6228,0 10.5718,-0.8291 14.8731,-2.5134 4.3013,-1.6841 7.4883,-3.9904 9.5873,-6.9183 2.0988,-2.9279 3.1609,-6.1152 3.1609,-9.5354 0,-3.4722 -1.0102,-6.5036 -3.0313,-9.1208 -2.0211,-2.5911 -5.3637,-4.7676 -10.0279,-6.5554 -2.9797,-1.1401 -9.587,-2.954 -19.8221,-5.4156 -10.235,-2.4616 -17.3866,-4.7676 -21.4806,-6.9443 -5.3119,-2.7984 -9.2503,-6.2705 -11.8415,-10.3904 -2.6169,-4.1199 -3.9126,-8.7579 -3.9126,-13.8625 0,-5.6486 1.6066,-10.9086 4.7936,-15.7799 3.187,-4.8975 7.8253,-8.6026 13.9663,-11.1422 6.1149,-2.5393 12.9297,-3.8089 20.4183,-3.8089 8.2397,0 15.5208,1.3215 21.8171,3.9903 6.2966,2.6431 11.1418,6.5557 14.5363,11.738 3.3945,5.1562 5.2081,11.0123 5.4672,17.5419 l -14.1474,1.0883 c -0.7515,-7.022 -3.3168,-12.3339 -7.6958,-15.9095 -4.379,-3.6017 -10.8567,-5.3895 -19.4074,-5.3895 -8.9135,0 -15.4173,1.6322 -19.4853,4.8971 -4.0683,3.265 -6.1152,7.2034 -6.1152,11.8157 0,3.9903 1.451,7.2811 4.3271,9.8722 2.8502,2.5651 10.235,5.2342 22.206,7.9288 11.971,2.7207 20.1849,5.0785 24.6419,7.0996 6.4519,2.9798 11.2453,6.7371 14.3288,11.3233 3.0835,4.5604 4.6123,9.8204 4.6123,15.7802 0,5.9335 -1.6844,11.4786 -5.0786,16.7128 -3.3945,5.2342 -8.2397,9.3022 -14.5882,12.2043 -6.3482,2.9021 -13.4739,4.3529 -21.4285,4.3529 -10.0536,0 -18.4748,-1.4769 -25.2638,-4.4048 -6.8145,-2.9279 -12.1263,-7.3329 -15.9871,-13.2406 -3.8869,-5.8819 -5.908,-12.5413 -6.1152,-19.9778 z m 222.3845,170.3929 14.7696,3.7312 c -3.0835,12.1005 -8.6286,21.299 -16.6351,27.6474 -8.0067,6.3482 -17.8013,9.5352 -29.3837,9.5352 -11.9709,0 -21.7136,-2.4355 -29.228,-7.3326 -7.5141,-4.8714 -13.2145,-11.9452 -17.1272,-21.1955 -3.9127,-9.2764 -5.8819,-19.2005 -5.8819,-29.8242 0,-11.5824 2.2025,-21.6876 6.6334,-30.3162 4.4308,-8.6284 10.7271,-15.1841 18.8892,-19.6668 8.1621,-4.4824 17.1533,-6.711 26.9478,-6.711 11.1419,0 20.4959,2.8244 28.0622,8.4991 7.592,5.6744 12.8778,13.6292 15.8576,23.8901 l -14.4584,3.4203 c -2.5654,-8.0844 -6.3224,-13.9921 -11.2198,-17.6715 -4.8972,-3.7054 -11.064,-5.5451 -18.5006,-5.5451 -8.525,0 -15.6765,2.0472 -21.4028,6.1409 -5.7265,4.0941 -9.7687,9.6132 -12.0747,16.5056 -2.3321,6.9185 -3.4979,14.044 -3.4979,21.3769 0,9.4578 1.3731,17.7234 4.1198,24.7714 2.7465,7.0736 7.022,12.3336 12.8259,15.8318 5.8043,3.498 12.0748,5.2339 18.8377,5.2339 8.2397,0 15.184,-2.3836 20.8845,-7.1254 5.7005,-4.7676 9.5613,-11.8157 11.5824,-21.1955 z M 174.8667,331.6958 v -11.9971 c -6.2705,9.1468 -14.7693,13.7072 -25.5225,13.7072 -4.7418,0 -9.1727,-0.9068 -13.2925,-2.7207 -4.1199,-1.8397 -7.1777,-4.1198 -9.1727,-6.8663 -1.9953,-2.7726 -3.3945,-6.1413 -4.1978,-10.1316 -0.544,-2.6946 -0.8291,-6.9441 -0.8291,-12.7483 v -49.9311 h 13.6811 v 44.6451 c 0,7.1257 0.2852,11.9452 0.8294,14.4068 0.8549,3.6017 2.6688,6.4 5.4672,8.4472 2.7726,2.0469 6.1928,3.0833 10.2869,3.0833 4.0938,0 7.9288,-1.0364 11.5044,-3.1352 3.5759,-2.0987 6.1152,-4.975 7.6181,-8.5767 1.4769,-3.6017 2.2284,-8.8617 2.2284,-15.7281 v -43.1424 h 13.6811 v 80.6879 z m 33.7627,0 v -80.6879 h 12.2819 v 11.4009 c 2.5135,-3.9384 5.8819,-7.1257 10.0797,-9.5094 4.1976,-2.4097 8.9652,-3.6017 14.3289,-3.6017 5.9595,0 10.857,1.2436 14.6659,3.7052 3.8089,2.4877 6.5038,5.9338 8.0583,10.3907 6.4261,-9.4059 14.7436,-14.0959 25.0044,-14.0959 8.0325,0 14.2254,2.2026 18.5267,6.6334 4.3274,4.4308 6.5038,11.2453 6.5038,20.444 v 55.3207 h -13.6811 v -50.7864 c 0,-5.4414 -0.4666,-9.3798 -1.3476,-11.7896 -0.881,-2.4097 -2.4874,-4.327 -4.8453,-5.8042 -2.3321,-1.4768 -5.0785,-2.2022 -8.2139,-2.2022 -5.7005,0 -10.4165,1.8913 -14.1736,5.6486 -3.757,3.7831 -5.6228,9.8203 -5.6228,18.112 v 46.8218 h -13.6811 v -52.367 c 0,-6.063 -1.1143,-10.6237 -3.3426,-13.655 -2.2283,-3.0317 -5.8819,-4.5604 -10.9347,-4.5604 -3.8347,0 -7.3845,1.0103 -10.6494,3.0314 -3.265,2.0211 -5.6228,4.975 -7.0997,8.8877 -1.451,3.8866 -2.1767,9.5094 -2.1767,16.8423 v 41.821 z m 129.505,0 v -80.6879 h 12.2819 v 11.4009 c 2.5135,-3.9384 5.8819,-7.1257 10.0798,-9.5094 4.1975,-2.4097 8.9651,-3.6017 14.3288,-3.6017 5.9596,0 10.857,1.2436 14.6659,3.7052 3.8089,2.4877 6.5038,5.9338 8.0583,10.3907 6.4262,-9.4059 14.7436,-14.0959 25.0044,-14.0959 8.0326,0 14.2254,2.2026 18.5267,6.6334 4.3274,4.4308 6.5038,11.2453 6.5038,20.444 v 55.3207 h -13.6811 v -50.7864 c 0,-5.4414 -0.4666,-9.3798 -1.3476,-11.7896 -0.881,-2.4097 -2.4874,-4.327 -4.8453,-5.8042 -2.332,-1.4768 -5.0785,-2.2022 -8.2139,-2.2022 -5.7005,0 -10.4165,1.8913 -14.1735,5.6486 -3.7571,3.7831 -5.6228,9.8203 -5.6228,18.112 v 46.8218 h -13.6812 v -52.367 c 0,-6.063 -1.1143,-10.6237 -3.3426,-13.655 -2.2283,-3.0317 -5.8819,-4.5604 -10.9346,-4.5604 -3.8347,0 -7.3845,1.0103 -10.6495,3.0314 -3.2649,2.0211 -5.6228,4.975 -7.0996,8.8877 -1.4511,3.8866 -2.1768,9.5094 -2.1768,16.8423 v 41.821 z M 462.509,291.3517 c 0,-14.8989 4.146,-25.9373 12.4634,-33.1146 6.9182,-5.9596 15.3913,-8.9394 25.3672,-8.9394 11.0642,0 20.1331,3.6275 27.1812,10.8828 7.0219,7.2292 10.5457,17.2568 10.5457,30.0311 0,10.3646 -1.5545,18.5009 -4.6641,24.4346 -3.1094,5.9335 -7.6437,10.5458 -13.6035,13.8365 -5.9335,3.2907 -12.4373,4.9232 -19.4593,4.9232 -11.2975,0 -20.4182,-3.6017 -27.3883,-10.8309 -6.9701,-7.2292 -10.4423,-17.6456 -10.4423,-31.2233 z m 13.9921,0.0261 c 0,10.3127 2.2544,18.0343 6.7629,23.1386 4.5346,5.1307 10.209,7.6958 17.0756,7.6958 6.7887,0 12.4376,-2.5651 16.9719,-7.7216 4.5085,-5.1562 6.7629,-13.0073 6.7629,-23.5533 0,-9.9499 -2.2802,-17.4904 -6.8148,-22.5947 -4.5343,-5.1304 -10.1832,-7.6958 -16.92,-7.6958 -6.8666,0 -12.541,2.5393 -17.0756,7.6439 -4.5085,5.1046 -6.7629,12.8001 -6.7629,23.0871 z m 77.6047,40.318 v -80.6879 h 12.2819 v 11.4528 c 5.908,-8.784 14.4587,-13.163 25.6263,-13.163 4.8714,0 9.3283,0.881 13.3963,2.617 4.068,1.7362 7.1257,4.0422 9.1468,6.8666 2.0209,2.8242 3.4461,6.1929 4.2495,10.0795 0.492,2.5392 0.7514,6.9701 0.7514,13.2925 v 49.5425 h -13.6814 v -49.0244 c 0,-5.5709 -0.5182,-9.7426 -1.5806,-12.4891 -1.0621,-2.7468 -2.9537,-4.949 -5.6486,-6.6076 -2.6946,-1.6322 -5.8819,-2.4613 -9.5094,-2.4613 -5.8042,0 -10.8051,1.8397 -15.0287,5.5448 -4.2233,3.6794 -6.3224,10.7014 -6.3224,21.0141 v 44.0235 z m 141.5021,-26.1187 14.1477,1.8657 c -2.2025,8.214 -6.3224,14.6141 -12.3338,19.1483 -6.0115,4.5346 -13.6815,6.8148 -23.0352,6.8148 -11.7638,0 -21.092,-3.6275 -27.9845,-10.8828 -6.8924,-7.2291 -10.3385,-17.4123 -10.3385,-30.4976 0,-13.5258 3.4721,-24.0458 10.4423,-31.5082 6.9701,-7.4883 16.0132,-11.2196 27.1292,-11.2196 10.7532,0 19.537,3.6536 26.3517,10.9863 6.8148,7.3329 10.2351,17.6456 10.2351,30.9381 0,0.8034 -0.0261,2.0211 -0.0777,3.6278 h -60.0885 c 0.5182,8.8356 3.0058,15.6246 7.5143,20.3145 4.4828,4.6899 10.1056,7.0478 16.8166,7.0478 5.0009,0 9.2761,-1.3215 12.8001,-3.9645 3.5498,-2.6428 6.3482,-6.8664 8.4212,-12.6706 z m -44.775,-21.9209 h 44.9303 c -0.5958,-6.789 -2.3318,-11.8675 -5.1562,-15.2617 -4.3271,-5.2603 -9.976,-7.903 -16.8942,-7.903 -6.2705,0 -11.5305,2.0987 -15.806,6.2963 -4.2494,4.1978 -6.6073,9.8203 -7.0739,16.8684 z M 269.0158,505.3793 V 394.0642 h 13.6811 v 40.0589 c 6.3485,-7.4366 14.355,-11.1418 24.0458,-11.1418 5.9337,0 11.0902,1.1659 15.495,3.5237 4.379,2.3582 7.5144,5.597 9.4059,9.7427 1.8916,4.146 2.8245,10.1832 2.8245,18.0604 v 51.0712 H 320.7866 V 454.36 c 0,-6.8148 -1.4768,-11.7899 -4.4047,-14.8992 -2.954,-3.1093 -7.0997,-4.6639 -12.4895,-4.6639 -4.0161,0 -7.7992,1.0364 -11.349,3.1352 -3.5499,2.0987 -6.0633,4.949 -7.5921,8.5507 -1.5029,3.5759 -2.2544,8.5249 -2.2544,14.8473 v 44.0492 z m 86.4663,-95.7685 v -15.5466 h 13.6812 v 15.5466 z m 0,95.7685 v -80.6879 h 13.6812 v 80.6879 z m 34.229,0 V 394.0642 h 13.6811 v 111.3151 z m 86.9326,0 v -10.235 c -5.1044,7.9548 -12.6187,11.9452 -22.5428,11.9452 -6.4262,0 -12.3338,-1.762 -17.6976,-5.3119 -5.3895,-3.524 -9.5612,-8.473 -12.541,-14.7954 -2.954,-6.3482 -4.4308,-13.6293 -4.4308,-21.869 0,-8.0325 1.3473,-15.3136 4.0164,-21.8693 2.6946,-6.5296 6.711,-11.5566 12.0744,-15.0287 5.338,-3.498 11.3494,-5.2339 17.9567,-5.2339 4.8713,0 9.1987,1.0363 12.9815,3.0835 3.7831,2.0469 6.8666,4.7415 9.2506,8.0323 v -40.0329 h 13.6811 V 505.3793 Z M 433.4236,465.139 c 0,10.3127 2.1767,18.0085 6.5556,23.1128 4.3532,5.1047 9.5094,7.6439 15.4432,7.6439 5.9853,0 11.0642,-2.4355 15.2617,-7.3068 4.1718,-4.8714 6.2705,-12.308 6.2705,-22.3098 0,-10.9865 -2.1245,-19.0707 -6.4,-24.2272 -4.2494,-5.1562 -9.5094,-7.7215 -15.7541,-7.7215 -6.0891,0 -11.1677,2.4616 -15.2618,7.4106 -4.068,4.949 -6.1151,12.7485 -6.1151,23.398 z m 72.1632,16.1427 13.5258,-2.1764 c 0.7515,5.4153 2.8761,9.5613 6.3482,12.4634 3.4722,2.876 8.3435,4.327 14.5622,4.327 6.2966,0 10.9607,-1.2696 14.0181,-3.8347 3.0317,-2.5395 4.5604,-5.5451 4.5604,-8.9915 0,-3.0832 -1.3734,-5.519 -4.0941,-7.281 -1.9173,-1.2178 -6.5814,-2.7465 -13.9921,-4.6381 -10.0017,-2.5135 -16.92,-4.6899 -20.8068,-6.5296 -3.8608,-1.8657 -6.7887,-4.405 -8.7837,-7.6697 -1.9954,-3.2391 -3.0059,-6.8405 -3.0059,-10.7793 0,-3.6017 0.8291,-6.9182 2.4616,-9.9757 1.6583,-3.0577 3.8866,-5.597 6.711,-7.6181 2.1249,-1.5545 5.0267,-2.876 8.6803,-3.9642 3.6793,-1.0885 7.592,-1.6325 11.7896,-1.6325 6.3223,0 11.8675,0.9068 16.6351,2.7465 4.7936,1.8139 8.3177,4.3013 10.5979,7.4106 2.2544,3.1354 3.8347,7.3071 4.6899,12.5413 l -13.3702,1.8655 c -0.5961,-4.1975 -2.3581,-7.4883 -5.26,-9.8464 -2.9021,-2.3579 -6.9961,-3.5238 -12.308,-3.5238 -6.2447,0 -10.7271,1.0364 -13.3962,3.1093 -2.6689,2.073 -4.0162,4.5086 -4.0162,7.2811 0,1.762 0.544,3.3684 1.6583,4.7937 1.1143,1.451 2.8502,2.6688 5.2342,3.6275 1.3734,0.5182 5.3637,1.6843 12.0486,3.4979 9.6392,2.5654 16.3761,4.69 20.2111,6.3224 3.8347,1.6325 6.8405,4.0422 9.017,7.1516 2.2025,3.1354 3.2907,7.0219 3.2907,11.6861 0,4.5345 -1.3215,8.8098 -3.9903,12.8262 -2.6688,4.0161 -6.5038,7.1254 -11.5047,9.3279 -5.0267,2.2026 -10.7014,3.2908 -17.0238,3.2908 -10.468,0 -18.4748,-2.1765 -23.968,-6.5038 -5.493,-4.3532 -8.9912,-10.7791 -10.52,-19.304 z" />
</svg>
