<?xml version="1.0" encoding="UTF-8" standalone="no"?>
<svg
   xmlns:dc="http://purl.org/dc/elements/1.1/"
   xmlns:cc="http://creativecommons.org/ns#"
   xmlns:rdf="http://www.w3.org/1999/02/22-rdf-syntax-ns#"
   xmlns:svg="http://www.w3.org/2000/svg"
   xmlns="http://www.w3.org/2000/svg"
   xmlns:sodipodi="http://sodipodi.sourceforge.net/DTD/sodipodi-0.dtd"
   xmlns:inkscape="http://www.inkscape.org/namespaces/inkscape"
   version="1.1"
   width=""
   height=""
   id="svg13"
   viewBox="0 0 725.66931 725.66931"
   sodipodi:docname="0.svg"
   inkscape:version="1.0 (4035a4fb49, 2020-05-01)">
  <metadata
     id="metadata19">
    <rdf:RDF>
      <cc:Work
         rdf:about="">
        <dc:format>image/svg+xml</dc:format>
        <dc:type
           rdf:resource="http://purl.org/dc/dcmitype/StillImage" />
        <dc:title />
      </cc:Work>
    </rdf:RDF>
  </metadata>
  <defs
     id="defs17" />
  <sodipodi:namedview
     inkscape:document-rotation="0"
     pagecolor="#ffffff"
     bordercolor="#666666"
     borderopacity="1"
     objecttolerance="10"
     gridtolerance="10"
     guidetolerance="10"
     inkscape:pageopacity="0"
     inkscape:pageshadow="2"
     inkscape:window-width="1304"
     inkscape:window-height="746"
     id="namedview15"
     showgrid="false"
     inkscape:zoom="0.79650605"
     inkscape:cx="-164.62031"
     inkscape:cy="161.95734"
     inkscape:window-x="-8"
     inkscape:window-y="-8"
     inkscape:window-maximized="1"
     inkscape:current-layer="svg13" />
  <path
     d="m 130.1376,629.7393 -10.6939,-2.1726 -4.3633,-2.9799 v -11.4725 l 2.4581,-1.912 0.8192,-11.4724 c -4.0389,-4.057 -7.0691,-9.3264 -9.2874,-15.5695 l -2.1851,-16.1162 3.551,-6.5557 -3.0048,-20.7593 0.8191,-10.1066 -1.9119,-3.5509 -0.8192,-6.0095 3.8239,-8.7408 1.639,-18.7108 0.5461,-10.7892 -3.2779,5.7359 -6.2826,34.4174 -1.3658,17.7551 -8.1947,41.5186 5.4629,6.009 1.3659,24.5838 7.1018,9.8336 8.6268,4.6093 3.6451,4.5732 c 7.5757,3.2541 8.6239,7.6405 8.73,12.4157 -5.0595,3.3879 -11.5898,6.1788 -18.5822,5.8595 -20.6036,-0.9416 -21.1745,1.5509 -41.0509,-8.1404 -3.6163,-1.7631 -5.6389,-2.3244 -6.8767,-5.8703 -3.3737,-9.6648 -4.4457,-18.0174 -8.3633,-29.8774 -4.3791,-13.2604 -3.1622,-7.9114 -2.5213,-21.1548 0.4339,-8.9743 1.0957,-15.1864 1.9064,-23.587 l 6.299,-43.7787 c 0.449,-19.3753 6.1212,-39.804 6.3588,-57.3763 l 2.0671,-23.4268 c 2.7695,-13.9384 3.4691,-18.9212 1.7433,-33.1824 -0.7419,-6.1291 -0.3521,-18.4258 -2.9106,-22.5832 -4.8536,-7.8872 -1.8053,-11.9848 -1.8053,-20.9574 -2.5315,1.2147 -1.7631,0.91 -5.3247,0.8801 l -1.0488,-5.4324 c 2.0694,-0.7492 1.341,-0.4874 2.5856,-1.9667 l 3.7873,-7.1385 c -1.5944,-2.3808 -2.7334,-3.8025 -5.0606,-5.8657 -0.3656,-0.3244 -2.4948,-2.7373 -2.5642,-2.8987 -0.8999,-2.0756 -0.4231,-1.5007 -0.6714,-3.8809 -0.9619,-9.2169 -3.1954,-8.097 -7.3303,-13.6113 L 31.3329,295.9572 c -10.9607,-18.3718 -2.418,-11.5554 -0.5856,-31.4442 0.6161,-6.6894 0.8192,-13.2225 2.9156,-18.9365 l 1.2316,-3.3213 c 0.5597,-1.4809 0.8553,-2.1179 1.3783,-3.1746 9.732,-19.6591 4.4096,-16.2606 6.9986,-23.9587 2.2538,-6.7024 6.9218,-14.2533 10.6087,-20.348 1.6744,-2.7679 2.0321,-3.657 3.508,-6.5072 2.9247,-5.6485 10.5111,-11.2146 15.5853,-15.372 5.53,-4.5309 13.2389,-7.3749 19.7703,-10.2759 8.009,-3.5576 7.1159,-1.1035 12.4987,-8.4428 3.055,-4.1659 4.6307,-8.4558 10.2628,-9.7681 0,-12.5692 -4.5523,3.0776 -4.5523,-25.4938 2.9117,-1.9498 0.6375,-1.4951 4.5523,-1.8212 -3.7337,-7.7816 3.1651,-22.0202 9.3337,-27.0865 2.0621,-1.6931 5.4313,-3.4454 8.2798,-4.4677 20.0372,-7.1915 30.0659,9.666 35.1959,11.5227 -0.1483,6.66 -1.5356,5.8488 0.0779,13.5774 0.5219,2.4998 0.4575,4.409 0.9822,7.2146 0.804,4.3024 0.1343,3.424 3.4928,3.7913 0,6.0321 -0.4908,4.5963 -2.9331,8.0552 -3.6181,5.1233 0.0164,2.7994 -1.1949,7.8386 -2.176,9.0511 -16.167,19.0279 -9.9605,28.1777 1.7405,2.5658 2.6076,4.818 4.6973,6.2922 6.8186,4.8107 11.0916,6.5094 16.1754,15.6919 10.5275,19.0143 3.5644,12.2685 5.1165,24.8676 0.3532,2.866 1.4838,5.0059 2.1833,8.8062 1.4466,7.8657 -0.2967,11.6281 -0.4581,17.6732 -0.1749,6.5236 1.3337,13.1278 2.2556,19.6801 2.0982,14.9071 4.9658,45.0137 2.8304,58.2666 -1.3004,8.07 -1.0928,11.6333 0.1366,18.8902 2.277,13.4471 0.8321,24.3317 -1.7794,37.7376 -1.2519,6.4259 -3.411,10.5895 -3.411,17.5305 -2.7842,0.6488 -3.4996,1.4167 -5.4629,2.7312 0,4.8457 0.0959,9.7726 0.0361,14.6042 -0.1506,12.1867 -2.2313,25.1621 -4.6584,37.2241 l -14.8885,68.8776 c -4.3244,19.9559 -5.0076,16.6628 -2.6471,36.2899 0.6482,5.3906 -5.1701,7.6422 -2.8039,22.7626 1.0036,6.4141 -0.422,7.3947 -0.532,12.3566 8.5635,1.9949 7.284,5.5289 7.284,15.4786 l 12.7469,9.1052 c 3.7873,-0.8824 2.4361,-1.5876 7.2502,-1.8607 10.1094,-0.5732 11.8031,1.1312 20.0648,5.5024 v 7.2841 c -5.8302,3.904 -16.6177,9.1486 -26.3723,9.1373 -17.3319,-0.0197 -15.9277,-1.0759 -30.9894,-4.585 -1.8437,1.7489 -2.2155,2.4225 -3.6417,4.5523 -4.1608,0 -8.0057,-0.4322 -11.7715,-0.8756 z"
     style="fill:none;stroke:#ffffff;stroke-width:4;stroke-linecap:butt;stroke-linejoin:miter;stroke-dasharray:none;fill-opacity:1"
     id="path2" />
  <path
     d="m 226.2241,351.89 v -35.5006 h 169.4867 v -19.9743 l 75.5841,37.7246 -75.5841,37.7246 V 351.89 Z"
     style="fill:#02d402;fill-rule:evenodd"
     id="path4" />
  <path
     d="m -714.7984,-43.6056 h 309.0427 v 249.7844 h -309.0427 z"
     style="fill:none"
     id="path6" />
  <g
     id="Layer1000">
    <path
       d="m 594.2327,310.1854 c -28.6332,6.8982 -18.4335,47.643 9.2426,41.7906 10.206,-2.158 18.7535,-13.105 16.0681,-25.7101 -2.184,-10.2493 -12.7934,-19.0963 -25.3107,-16.0805 z m 56.4338,-23.3247 c -2.3082,-4.6155 -11.9678,-15.5859 -14.9895,-18.065 -21.8146,-17.8969 -45.989,-28.1475 -77.6595,-22.4522 -13.2933,2.3907 -24.7933,7.5258 -35.6334,14.6975 -2.8838,1.9079 -7.6798,5.78 -9.7092,7.6739 -10.6178,9.908 -24.1834,28.3689 -25.849,42.5147 8.4136,-13.6533 3.1894,-7.1002 13.1525,-19.7128 8.7523,-11.08 27.9727,-21.4214 43.5948,-24.229 12.6691,-2.277 18.0984,-0.6991 29.5131,0.4984 -32.6622,7.8162 -58.9028,34.9187 -66.2279,67.7798 -8.0716,36.2111 7.9977,77.3757 36.2983,94.1622 -1.5985,-2.5146 -2.0257,-2.5783 -3.7181,-4.3991 -8.0014,-8.6072 -15.6453,-24.9981 -17.8118,-37.5941 -3.3858,-19.6859 0.0887,-36.0016 8.4817,-51.551 2.7204,20.4188 -1.0985,27.7797 13.1637,52.2848 16.9427,29.11 50.834,46.3534 85.8919,43.6966 11.1175,-0.8424 38.7564,-8.4744 46.8565,-18.6851 -17.9045,5.9449 -28.4967,12.6597 -53.4299,7.1724 -9.3569,-2.0591 -15.5006,-4.8504 -23.1411,-9.0307 -10.1369,-5.546 -15.055,-12.6569 -17.387,-14.057 14.5564,3.1054 16.449,6.2109 35.1347,6.2109 65.2602,0 105.7415,-71.8942 83.7115,-122.006 2.089,23.6263 1.4361,36.7623 -12.7993,59.0574 -6.6902,10.478 -19.6825,21.651 -31.1238,26.2675 10.058,-15.1747 16.0206,-24.1288 19.3396,-44.5944 8.2981,-51.1688 -31.8734,-104.7901 -90.1502,-104.0781 1.921,1.3474 4.3782,1.6962 6.6933,2.273 2.0934,0.5214 4.5419,1.3118 6.3352,1.9219 10.694,3.6382 24.18,12.1305 30.5389,19.0452 7.2881,7.9255 21.2363,28.1835 20.924,45.1983 z"
       style="fill:none;stroke:#ffffff;stroke-width:4;stroke-linecap:butt;stroke-linejoin:miter;stroke-dasharray:none"
       id="path10" />
  </g>
</svg>
