<?xml version="1.0" encoding="UTF-8" standalone="no"?>
<svg
   xmlns:dc="http://purl.org/dc/elements/1.1/"
   xmlns:cc="http://creativecommons.org/ns#"
   xmlns:rdf="http://www.w3.org/1999/02/22-rdf-syntax-ns#"
   xmlns:svg="http://www.w3.org/2000/svg"
   xmlns="http://www.w3.org/2000/svg"
   xmlns:sodipodi="http://sodipodi.sourceforge.net/DTD/sodipodi-0.dtd"
   xmlns:inkscape="http://www.inkscape.org/namespaces/inkscape"
   version="1.1"
   width=""
   height=""
   id="svg90"
   viewBox="0 0 725.66931 725.66931"
   sodipodi:docname="background.svg"
   inkscape:version="1.0 (4035a4fb49, 2020-05-01)">
  <metadata
     id="metadata96">
    <rdf:RDF>
      <cc:Work
         rdf:about="">
        <dc:format>image/svg+xml</dc:format>
        <dc:type
           rdf:resource="http://purl.org/dc/dcmitype/StillImage" />
        <dc:title />
      </cc:Work>
    </rdf:RDF>
  </metadata>
  <defs
     id="defs94" />
  <sodipodi:namedview
     inkscape:document-rotation="0"
     pagecolor="#ffffff"
     bordercolor="#666666"
     borderopacity="1"
     objecttolerance="10"
     gridtolerance="10"
     guidetolerance="10"
     inkscape:pageopacity="0"
     inkscape:pageshadow="2"
     inkscape:window-width="1304"
     inkscape:window-height="746"
     id="namedview92"
     showgrid="false"
     inkscape:zoom="2.2528593"
     inkscape:cx="275.03476"
     inkscape:cy="186.42597"
     inkscape:window-x="-8"
     inkscape:window-y="-8"
     inkscape:window-maximized="1"
     inkscape:current-layer="Layer1003" />
  <g
     id="Layer1000">
    <g
       id="Layer1001">
      <path
         d="M 481.6672,698.4063 C 685.0805,664.5042 604.5871,486.7236 497.6068,310.3032 431.1749,200.7522 459.3058,124.9272 496.1003,44.1105 h -39.041 c -3.9807,3.6316 -6.8835,5.0665 -6.6036,0 H 283.8731 c 0.4311,6.2215 -1.102,7.2036 -8.1254,0 h -16.9306 c -1.048,2.4605 -3.0492,2.8095 -6.4797,0 h -15.6307 c 36.7944,80.8167 64.9246,156.6417 -1.5066,266.1927 -106.9802,176.4196 -187.4736,354.201 15.9396,388.1031 z"
         style="fill:#ff5555;fill-rule:evenodd;stroke:#000000;stroke-width:0.5669;stroke-linecap:round;stroke-linejoin:round;stroke-dasharray:none"
         id="path2" />
      <g
         id="Layer1002">
        <path
           d="m 305.1441,162.5384 c 0.8769,-40.7394 -8.7503,-80.2357 -29.3964,-118.4279 4.7989,5.1304 7.3051,4.6323 8.1253,0 20.6462,38.1922 22.148,77.6885 21.2711,118.4279 z"
           style="fill:#ff2a2a;fill-rule:evenodd;stroke:#ff2a2a;stroke-width:0.5669;stroke-linecap:round;stroke-linejoin:round;stroke-dasharray:none"
           id="path4" />
        <path
           d="m 433.1677,110.3596 c -0.7126,-22.7898 7.1117,-44.8842 23.8916,-66.2491 -3.9003,2.87 -5.9371,2.5913 -6.6038,0 -16.7798,21.3649 -18.0004,43.4593 -17.2878,66.2491 z"
           style="fill:#ff2a2a;fill-rule:evenodd;stroke:#ff2a2a;stroke-width:0.5669;stroke-linecap:round;stroke-linejoin:round;stroke-dasharray:none"
           id="path6" />
        <path
           d="m 275.7805,94.6226 c 0.6993,-17.3763 -6.9782,-34.2223 -23.4431,-50.5121 3.8271,2.1882 5.8257,1.9758 6.4798,0 16.4649,16.2898 17.6626,33.1358 16.9633,50.5121 z"
           style="fill:#ff2a2a;fill-rule:evenodd;stroke:#ff2a2a;stroke-width:0.5669;stroke-linecap:round;stroke-linejoin:round;stroke-dasharray:none"
           id="path8" />
        <path
           d="m 278.7445,364.9584 c 22.9387,-47.4516 32.8526,-99.0894 29.1034,-155.1185 l 9.4244,-5e-4 c 3.7492,56.029 -15.5891,107.6674 -38.5278,155.119 z"
           style="fill:#ff2a2a;fill-rule:evenodd;stroke:#ff2a2a;stroke-width:0.5669;stroke-linecap:round;stroke-linejoin:round;stroke-dasharray:none"
           id="path10" />
        <path
           d="M 453.571,408.1127 C 430.6323,347.4599 420.7184,281.4565 424.4676,209.84 l -9.4244,-7e-4 c -3.7492,71.6164 15.5891,137.6206 38.5278,198.2734 z"
           style="fill:#ff2a2a;fill-rule:evenodd;stroke:#ff2a2a;stroke-width:0.5669;stroke-linecap:round;stroke-linejoin:round;stroke-dasharray:none"
           id="path12" />
      </g>
      <g
         id="Layer1003">
        <path
           d="m 458.0792,197.2872 0.8429,12.5525 H 273.3934 l 1.3352,-12.5525 c 61.1168,0 122.2337,0 183.3506,0 z"
           style="fill:#ff8080;fill-rule:evenodd;stroke:#000000;stroke-width:0.5669;stroke-linecap:round;stroke-linejoin:round;stroke-dasharray:none;fill-opacity:1"
           id="path15" />
        <path
           d="m 273.3934,209.8397 6.9736,-12.5526"
           style="fill:none;stroke:#000000;stroke-width:0.5669;stroke-linecap:butt;stroke-linejoin:miter;stroke-dasharray:none"
           id="path17" />
        <path
           d="m 280.367,209.8397 6.9736,-12.5526"
           style="fill:none;stroke:#000000;stroke-width:0.5669;stroke-linecap:butt;stroke-linejoin:miter;stroke-dasharray:none"
           id="path19" />
        <path
           d="m 287.3406,209.8397 6.9736,-12.5526"
           style="fill:none;stroke:#000000;stroke-width:0.5669;stroke-linecap:butt;stroke-linejoin:miter;stroke-dasharray:none"
           id="path21" />
        <path
           d="m 294.3142,209.8397 6.9736,-12.5526"
           style="fill:none;stroke:#000000;stroke-width:0.5669;stroke-linecap:butt;stroke-linejoin:miter;stroke-dasharray:none"
           id="path23" />
        <path
           d="m 301.2878,209.8397 6.9736,-12.5526"
           style="fill:none;stroke:#000000;stroke-width:0.5669;stroke-linecap:butt;stroke-linejoin:miter;stroke-dasharray:none"
           id="path25" />
        <path
           d="m 308.2614,209.8397 6.9737,-12.5526"
           style="fill:none;stroke:#000000;stroke-width:0.5669;stroke-linecap:butt;stroke-linejoin:miter;stroke-dasharray:none"
           id="path27" />
        <path
           d="m 315.2351,209.8397 6.9736,-12.5526"
           style="fill:none;stroke:#000000;stroke-width:0.5669;stroke-linecap:butt;stroke-linejoin:miter;stroke-dasharray:none"
           id="path29" />
        <path
           d="m 322.2087,209.8397 6.9736,-12.5526"
           style="fill:none;stroke:#000000;stroke-width:0.5669;stroke-linecap:butt;stroke-linejoin:miter;stroke-dasharray:none"
           id="path31" />
        <path
           d="m 329.1823,209.8397 6.9736,-12.5526"
           style="fill:none;stroke:#000000;stroke-width:0.5669;stroke-linecap:butt;stroke-linejoin:miter;stroke-dasharray:none"
           id="path33" />
        <path
           d="m 336.1559,209.8397 6.9736,-12.5526"
           style="fill:none;stroke:#000000;stroke-width:0.5669;stroke-linecap:butt;stroke-linejoin:miter;stroke-dasharray:none"
           id="path35" />
        <path
           d="m 343.1295,209.8397 6.9737,-12.5526"
           style="fill:none;stroke:#000000;stroke-width:0.5669;stroke-linecap:butt;stroke-linejoin:miter;stroke-dasharray:none"
           id="path37" />
        <path
           d="m 350.1032,209.8397 6.9736,-12.5526"
           style="fill:none;stroke:#000000;stroke-width:0.5669;stroke-linecap:butt;stroke-linejoin:miter;stroke-dasharray:none"
           id="path39" />
        <path
           d="m 357.0768,209.8397 6.9736,-12.5526"
           style="fill:none;stroke:#000000;stroke-width:0.5669;stroke-linecap:butt;stroke-linejoin:miter;stroke-dasharray:none"
           id="path41" />
        <path
           d="m 364.0504,209.8397 6.9736,-12.5526"
           style="fill:none;stroke:#000000;stroke-width:0.5669;stroke-linecap:butt;stroke-linejoin:miter;stroke-dasharray:none"
           id="path43" />
        <path
           d="m 371.024,209.8397 6.9736,-12.5526"
           style="fill:none;stroke:#000000;stroke-width:0.5669;stroke-linecap:butt;stroke-linejoin:miter;stroke-dasharray:none"
           id="path45" />
        <path
           d="m 377.9976,209.8397 6.9736,-12.5526"
           style="fill:none;stroke:#000000;stroke-width:0.5669;stroke-linecap:butt;stroke-linejoin:miter;stroke-dasharray:none"
           id="path47" />
        <path
           d="m 384.9712,209.8397 6.9737,-12.5526"
           style="fill:none;stroke:#000000;stroke-width:0.5669;stroke-linecap:butt;stroke-linejoin:miter;stroke-dasharray:none"
           id="path49" />
        <path
           d="m 391.9449,209.8397 6.9736,-12.5526"
           style="fill:none;stroke:#000000;stroke-width:0.5669;stroke-linecap:butt;stroke-linejoin:miter;stroke-dasharray:none"
           id="path51" />
        <path
           d="m 398.9185,209.8397 6.9736,-12.5526"
           style="fill:none;stroke:#000000;stroke-width:0.5669;stroke-linecap:butt;stroke-linejoin:miter;stroke-dasharray:none"
           id="path53" />
        <path
           d="m 405.8921,209.8397 6.9736,-12.5526"
           style="fill:none;stroke:#000000;stroke-width:0.5669;stroke-linecap:butt;stroke-linejoin:miter;stroke-dasharray:none"
           id="path55" />
        <path
           d="m 412.8657,209.8397 6.9736,-12.5526"
           style="fill:none;stroke:#000000;stroke-width:0.5669;stroke-linecap:butt;stroke-linejoin:miter;stroke-dasharray:none"
           id="path57" />
        <path
           d="m 419.8393,209.8397 6.9736,-12.5526"
           style="fill:none;stroke:#000000;stroke-width:0.5669;stroke-linecap:butt;stroke-linejoin:miter;stroke-dasharray:none"
           id="path59" />
        <path
           d="m 426.8129,209.8397 6.9737,-12.5526"
           style="fill:none;stroke:#000000;stroke-width:0.5669;stroke-linecap:butt;stroke-linejoin:miter;stroke-dasharray:none"
           id="path61" />
        <path
           d="m 433.7866,209.8397 6.9736,-12.5526"
           style="fill:none;stroke:#000000;stroke-width:0.5669;stroke-linecap:butt;stroke-linejoin:miter;stroke-dasharray:none"
           id="path63" />
        <path
           d="m 440.7602,209.8397 6.9736,-12.5526"
           style="fill:none;stroke:#000000;stroke-width:0.5669;stroke-linecap:butt;stroke-linejoin:miter;stroke-dasharray:none"
           id="path65" />
        <path
           d="m 447.7338,209.8397 6.9736,-12.5526"
           style="fill:none;stroke:#000000;stroke-width:0.5669;stroke-linecap:butt;stroke-linejoin:miter;stroke-dasharray:none"
           id="path67" />
        <path
           d="m 454.7074,209.8397 3.8909,-7.0036"
           style="fill:none;stroke:#000000;stroke-width:0.5669;stroke-linecap:butt;stroke-linejoin:miter;stroke-dasharray:none"
           id="path69" />
      </g>
    </g>
  </g>
</svg>
