<?xml version="1.0" encoding="UTF-8" standalone="no"?>
<svg
   xmlns:dc="http://purl.org/dc/elements/1.1/"
   xmlns:cc="http://creativecommons.org/ns#"
   xmlns:rdf="http://www.w3.org/1999/02/22-rdf-syntax-ns#"
   xmlns:svg="http://www.w3.org/2000/svg"
   xmlns="http://www.w3.org/2000/svg"
   xmlns:sodipodi="http://sodipodi.sourceforge.net/DTD/sodipodi-0.dtd"
   xmlns:inkscape="http://www.inkscape.org/namespaces/inkscape"
   version="1.1"
   width=""
   height=""
   id="svg12"
   viewBox="0 0 725.66931 725.66931"
   sodipodi:docname="kobold.svg"
   inkscape:version="1.0 (4035a4fb49, 2020-05-01)">
  <metadata
     id="metadata18">
    <rdf:RDF>
      <cc:Work
         rdf:about="">
        <dc:format>image/svg+xml</dc:format>
        <dc:type
           rdf:resource="http://purl.org/dc/dcmitype/StillImage" />
        <dc:title />
      </cc:Work>
    </rdf:RDF>
  </metadata>
  <defs
     id="defs16" />
  <sodipodi:namedview
     inkscape:document-rotation="0"
     pagecolor="#ffffff"
     bordercolor="#666666"
     borderopacity="1"
     objecttolerance="10"
     gridtolerance="10"
     guidetolerance="10"
     inkscape:pageopacity="0"
     inkscape:pageshadow="2"
     inkscape:window-width="1304"
     inkscape:window-height="746"
     id="namedview14"
     showgrid="false"
     inkscape:zoom="0.79650605"
     inkscape:cx="362.83466"
     inkscape:cy="413.05399"
     inkscape:window-x="-8"
     inkscape:window-y="-8"
     inkscape:window-maximized="1"
     inkscape:current-layer="svg12" />
  <g
     style="fill:#ff8080;fill-opacity:1"
     id="Layer1000">
    <g
       style="fill:#ff8080;fill-opacity:1"
       id="Layer1001">
      <path
         d="m 362.6776,460.2417 c -4.4185,-12.9184 -9.2425,-27.5152 -14.4008,-44.8635 -24.3272,23.7212 -46.5705,49.7576 -64.2495,80.8655 18.8632,-20.4566 45.0163,-32.5308 78.6503,-36.002 z m 0,0 c -33.634,3.4712 -59.7875,15.5454 -78.6503,36.002 -50.3548,49.791 1.6382,106.9714 -39.3252,124.6214 10.9583,16.375 22.2759,30.335 33.2323,41.5407 85.4592,4.2238 144.5848,-17.8851 187.2094,-56.4955 l -10.0247,-6.2549 c 4.5167,-16.6922 4.843,-38.7236 1.2358,-65.7543 32.4753,-46.9523 41.7195,-78.424 38.1444,-101.3529 -31.1158,8.5088 -61.723,18.185 -91.5048,29.7563 -13.4386,-3.022 -26.8771,-4.0595 -40.3169,-2.0632 z"
         style="fill:#ff8080;fill-rule:evenodd;stroke:#1b1918;stroke-width:2.4608;stroke-linecap:butt;stroke-linejoin:round;stroke-dasharray:none;fill-opacity:1"
         id="path2" />
      <path
         d="m 427.4494,572.164 c 55.9521,-68.93 71.5199,-110.949 67.0499,-139.6154 -55.3007,15.1221 -108.995,33.9334 -159.307,60.5137"
         style="fill:#ff8080;stroke:#000000;stroke-width:2.4608;stroke-linecap:round;stroke-linejoin:round;stroke-dasharray:none;fill-opacity:1"
         id="path4" />
      <path
         d="m 284.0273,496.2437 c 18.8632,-20.4566 45.0163,-32.5308 78.6503,-36.002"
         style="fill:#ff8080;stroke:#000000;stroke-width:2.4608;stroke-linecap:round;stroke-linejoin:round;stroke-dasharray:none;fill-opacity:1"
         id="path6" />
      <path
         d="m 417.7568,584.7644 c 13.0008,0.813 29.5837,9.6177 47.387,21.1463"
         style="fill:#ff8080;stroke:#000000;stroke-width:2.4608;stroke-linecap:round;stroke-linejoin:round;stroke-dasharray:none;fill-opacity:1"
         id="path8" />
    </g>
  </g>
</svg>
