<?xml version="1.0" encoding="UTF-8" standalone="no"?>
<svg
   xmlns:dc="http://purl.org/dc/elements/1.1/"
   xmlns:cc="http://creativecommons.org/ns#"
   xmlns:rdf="http://www.w3.org/1999/02/22-rdf-syntax-ns#"
   xmlns:svg="http://www.w3.org/2000/svg"
   xmlns="http://www.w3.org/2000/svg"
   xmlns:sodipodi="http://sodipodi.sourceforge.net/DTD/sodipodi-0.dtd"
   xmlns:inkscape="http://www.inkscape.org/namespaces/inkscape"
   inkscape:version="1.0 (4035a4fb49, 2020-05-01)"
   sodipodi:docname="54.svg"
   viewBox="0 0 725.66931 725.66931"
   id="svg14"
   height=""
   width=""
   version="1.1">
  <metadata
     id="metadata20">
    <rdf:RDF>
      <cc:Work
         rdf:about="">
        <dc:format>image/svg+xml</dc:format>
        <dc:type
           rdf:resource="http://purl.org/dc/dcmitype/StillImage" />
        <dc:title></dc:title>
      </cc:Work>
    </rdf:RDF>
  </metadata>
  <defs
     id="defs18" />
  <sodipodi:namedview
     inkscape:current-layer="svg14"
     inkscape:window-maximized="0"
     inkscape:window-y="91"
     inkscape:window-x="133"
     inkscape:cy="362.83466"
     inkscape:cx="362.83466"
     inkscape:zoom="0.79650605"
     showgrid="false"
     id="namedview16"
     inkscape:window-height="480"
     inkscape:window-width="820"
     inkscape:pageshadow="2"
     inkscape:pageopacity="0"
     guidetolerance="10"
     gridtolerance="10"
     objecttolerance="10"
     borderopacity="1"
     bordercolor="#666666"
     pagecolor="#ffffff" />
  <path
     id="path2"
     style="fill:#02d402;fill-rule:evenodd"
     d="m 627.0143,679.0037 -91.7064,-7e-4 V 460.0919 h -51.5974 l 97.4509,-195.2506 97.4503,195.2506 h -51.5974 z" />
  <path
     id="path4"
     style="fill:#02d402;fill-rule:evenodd"
     d="m 193.0306,679.0037 -91.7064,-7e-4 V 460.0919 H 49.7268 l 97.451,-195.2506 97.4503,195.2506 h -51.5975 z" />
  <path
     id="path6"
     style="fill:#02d402;fill-rule:evenodd"
     d="M 410.0222,679.0028 H 318.3163 V 241.1809 h -51.5979 l 97.4509,-195.2505 97.4509,195.2505 h -51.598 z" />
  <path
     id="path8"
     style="fill:#ffffff;fill-rule:evenodd;stroke:#000000;stroke-width:2.9999;stroke-linecap:butt;stroke-linejoin:miter;stroke-dasharray:none"
     d="m 321.137,268.4378 h 24.5407 v 106.816 c 0,18.5992 -2.1099,33.3666 -6.2859,44.3021 -4.2193,10.8927 -11.7969,19.8048 -22.7324,26.6502 -10.9786,6.8457 -25.3157,10.2901 -43.1396,10.2901 -17.2647,0 -31.4294,-2.9708 -42.408,-8.9553 -11.0217,-5.9845 -18.8575,-14.5953 -23.5503,-25.9183 -4.693,-11.3232 -7.0608,-26.7794 -7.0608,-46.3688 v -106.816 h 24.5407 v 106.7729 c 0,16.0591 1.5066,27.942 4.4773,35.5193 2.9707,7.6206 8.0513,13.5189 15.3272,17.6091 7.2329,4.1332 16.1022,6.1996 26.5641,6.1996 17.9104,0 30.6972,-4.0901 38.3178,-12.2272 7.6204,-8.1803 11.4092,-23.8519 11.4092,-47.1008 z m 65.3984,184.9584 V 268.4378 h 69.8332 c 12.27,0 21.6558,0.6027 28.1568,1.7652 9.0845,1.5069 16.7049,4.3914 22.8617,8.6108 6.1566,4.2621 11.1079,10.2036 14.8536,17.8242 3.7454,7.6204 5.5967,16.0158 5.5967,25.1864 0,15.6713 -4.9941,28.9749 -15.0256,39.8245 -9.9885,10.8924 -28.114,16.3174 -54.2906,16.3174 h -47.4451 v 75.4299 z m 24.5407,-97.1291 h 47.7895 c 15.8437,0 27.0377,-2.9277 33.7111,-8.826 6.6302,-5.8983 9.9453,-14.1644 9.9453,-24.8848 0,-7.7068 -1.9375,-14.3371 -5.8552,-19.8479 -3.9181,-5.5108 -9.0845,-9.1704 -15.4565,-10.9355 -4.1329,-1.0763 -11.7536,-1.6361 -22.8183,-1.6361 h -47.3159 z" />
  <path
     id="path10"
     style="fill:#ffffff;fill-rule:evenodd;stroke:#000000;stroke-width:2.9999;stroke-linecap:butt;stroke-linejoin:miter;stroke-dasharray:none"
     d="m 55.3416,632.2235 c 0,-15.4267 4.1602,-27.5168 12.4586,-36.2483 8.2981,-8.7316 19.0015,-13.0867 32.1315,-13.0867 8.6018,0 16.3367,2.0585 23.2484,6.1534 6.8899,4.095 12.155,9.815 15.7734,17.1598 3.6181,7.3236 5.4382,15.6436 5.4382,24.9384 0,9.4252 -1.9065,17.875 -5.72,25.3069 -3.8134,7.4531 -9.2083,13.0864 -16.185,16.8998 -6.9984,3.835 -14.5383,5.7416 -22.6199,5.7416 -8.7752,0 -16.5968,-2.1231 -23.5085,-6.3482 -6.8899,-4.225 -12.1332,-9.9884 -15.6867,-17.3117 -3.5532,-7.3018 -5.33,-15.0367 -5.33,-23.205 z m 12.7401,0.2166 c 0,11.2016 3.0118,20.0202 9.0351,26.4551 6.0234,6.435 13.5851,9.6634 22.6848,9.6634 9.2736,0 16.8784,-3.25 22.8802,-9.7501 5.9799,-6.5001 8.9699,-15.73 8.9699,-27.6899 0,-7.5617 -1.2784,-14.1702 -3.835,-19.8035 -2.5565,-5.6332 -6.3051,-10.0099 -11.2232,-13.1082 -4.9402,-3.0983 -10.4652,-4.6585 -16.5968,-4.6585 -8.7101,0 -16.2066,2.99 -22.4898,8.97 -6.2836,5.9802 -9.4252,15.9469 -9.4252,29.9217 z m 101.2484,45.0884 h -10.66 v -93.0798 h 11.4398 v 33.2149 c 4.832,-6.0233 10.9851,-9.0351 18.4819,-9.0351 4.1383,0 8.0816,0.8234 11.7865,2.4916 3.7051,1.6685 6.7385,4.03 9.1434,7.0419 2.3834,3.0333 4.2684,6.6733 5.6117,10.9414 1.3649,4.2469 2.0367,8.8186 2.0367,13.6718 0,11.5268 -2.8601,20.4534 -8.5583,26.7366 -5.7201,6.3051 -12.5669,9.4468 -20.5617,9.4468 -7.9517,0 -14.1916,-3.3151 -18.72,-9.9235 z M 169.2,643.2951 c 0,8.06 1.1049,13.8883 3.2933,17.4852 3.5969,5.8717 8.4501,8.8183 14.5817,8.8183 5.0051,0 9.3166,-2.1668 12.935,-6.5001 3.64,-4.3334 5.4601,-10.7901 5.4601,-19.37 0,-8.7968 -1.7333,-15.2751 -5.2217,-19.4568 -3.4883,-4.1816 -7.7133,-6.2832 -12.6533,-6.2832 -5.0051,0 -9.3166,2.1668 -12.935,6.5001 -3.64,4.3333 -5.4601,10.5951 -5.4601,18.8065 z m 107.9218,12.3933 11.8298,1.5602 c -1.8417,6.8683 -5.2866,12.2199 -10.3133,16.0115 -5.0267,3.7916 -11.4401,5.6985 -19.2617,5.6985 -9.8365,0 -17.6366,-3.0334 -23.4,-9.1001 -5.7634,-6.0449 -8.6448,-14.5599 -8.6448,-25.5016 0,-11.3099 2.9032,-20.1067 8.7315,-26.3466 5.8284,-6.2617 13.3901,-9.3818 22.6851,-9.3818 8.9915,0 16.3367,3.0552 22.0349,9.1868 5.6985,6.1316 8.5583,14.7549 8.5583,25.8698 0,0.6718 -0.0215,1.69 -0.0649,3.0334 h -50.2449 c 0.4331,7.3885 2.5132,13.0651 6.2833,16.9866 3.7482,3.9217 8.45,5.8935 14.0615,5.8935 4.1817,0 7.7567,-1.105 10.7033,-3.3151 2.9685,-2.2099 5.3085,-5.7416 7.0419,-10.5951 z m -37.44,-18.3299 h 37.5698 c -0.4983,-5.6767 -1.95,-9.9233 -4.3115,-12.7616 -3.6184,-4.3983 -8.3418,-6.6084 -14.1267,-6.6084 -5.2433,0 -9.6418,1.7549 -13.2169,5.265 -3.5532,3.5099 -5.525,8.2117 -5.9147,14.105 z m 107.2715,40.17 v -8.5584 c -4.2684,6.6518 -10.5517,9.9885 -18.8502,9.9885 -5.3733,0 -10.3132,-1.4735 -14.7982,-4.4416 -4.5065,-2.9469 -7.9949,-7.0852 -10.4865,-12.3718 -2.4701,-5.3085 -3.7052,-11.3967 -3.7052,-18.2866 0,-6.7167 1.1268,-12.805 3.3585,-18.2869 2.2533,-5.4598 5.6115,-9.6633 10.0965,-12.5665 4.4634,-2.9251 9.4901,-4.3767 15.0151,-4.3767 4.0734,0 7.6915,0.8668 10.855,2.5784 3.1634,1.7115 5.7415,3.9651 7.7349,6.7167 v -33.4749 h 11.44 v 93.0798 z m -36.1401,-33.6484 c 0,8.6233 1.8202,15.0585 5.4817,19.3266 3.6399,4.2684 7.9517,6.3919 12.9135,6.3919 5.0048,0 9.2514,-2.0367 12.7616,-6.1101 3.4883,-4.0734 5.2432,-10.2917 5.2432,-18.6551 0,-9.1865 -1.7765,-15.9466 -5.3515,-20.2583 -3.5535,-4.3115 -7.9518,-6.4565 -13.1735,-6.4565 -5.0916,0 -9.3382,2.0582 -12.7616,6.1965 -3.4015,4.1383 -5.1134,10.66 -5.1134,19.565 z m 64.8916,-46.4315 v -12.9999 h 11.4401 v 12.9999 z m 0,80.0799 v -67.4699 h 11.4401 v 67.4699 z m 74.9018,-21.8401 11.8298,1.5602 c -1.8416,6.8683 -5.2866,12.2199 -10.3133,16.0115 -5.0266,3.7916 -11.44,5.6985 -19.2617,5.6985 -9.8365,0 -17.6365,-3.0334 -23.4,-9.1001 -5.7634,-6.0449 -8.6448,-14.5599 -8.6448,-25.5016 0,-11.3099 2.9033,-20.1067 8.7316,-26.3466 5.8283,-6.2617 13.39,-9.3818 22.6851,-9.3818 8.9915,0 16.3366,3.0552 22.0348,9.1868 5.6985,6.1316 8.5584,14.7549 8.5584,25.8698 0,0.6718 -0.0216,1.69 -0.0649,3.0334 h -50.245 c 0.4332,7.3885 2.5132,13.0651 6.2833,16.9866 3.7483,3.9217 8.4501,5.8935 14.0615,5.8935 4.1817,0 7.7568,-1.105 10.7034,-3.3151 2.9684,-2.2099 5.3084,-5.7416 7.0418,-10.5951 z m -37.44,-18.3299 h 37.5698 c -0.4983,-5.6767 -1.9499,-9.9233 -4.3115,-12.7616 -3.6184,-4.3983 -8.3418,-6.6084 -14.1267,-6.6084 -5.2432,0 -9.6418,1.7549 -13.2168,5.265 -3.5532,3.5099 -5.525,8.2117 -5.9148,14.105 z m 63.7214,40.17 v -67.4699 h 10.2702 v 9.5765 c 4.94,-7.3448 12.0898,-11.0066 21.4283,-11.0066 4.0733,0 7.8001,0.7367 11.2016,2.1883 3.4016,1.4516 5.9585,3.3801 7.6485,5.7416 1.69,2.3618 2.8814,5.1783 3.5532,8.4285 0.4116,2.1232 0.6284,5.8283 0.6284,11.115 v 41.4266 h -11.44 v -40.9932 c 0,-4.6585 -0.4334,-8.1468 -1.3218,-10.4434 -0.8884,-2.2967 -2.4698,-4.1383 -4.7234,-5.525 -2.2533,-1.3649 -4.9181,-2.0583 -7.9515,-2.0583 -4.8534,0 -9.0351,1.5381 -12.5668,4.6367 -3.5317,3.0767 -5.2866,8.9481 -5.2866,17.5716 v 36.8116 z m 116.3716,-24.7 11.1801,1.5599 c -1.235,7.6919 -4.3548,13.6934 -9.4034,18.0485 -5.0482,4.3549 -11.2665,6.5217 -18.6117,6.5217 -9.2083,0 -16.6181,-3.0118 -22.2083,-9.0352 -5.6114,-6.0233 -8.4067,-14.6466 -8.4067,-25.8698 0,-7.2802 1.2135,-13.6284 3.6184,-19.0885 2.4049,-5.4383 6.0667,-9.5332 11.0067,-12.2417 4.9184,-2.7298 10.2699,-4.0949 16.0767,-4.0949 7.3017,0 13.3032,1.8416 17.9399,5.5468 4.6584,3.7049 7.6484,8.97 8.9484,15.7731 l -11.05,1.69 c -1.0616,-4.5283 -2.9251,-7.9299 -5.6333,-10.2265 -2.6867,-2.2751 -5.9366,-3.4234 -9.7501,-3.4234 -5.7634,0 -10.4434,2.0582 -14.0615,6.175 -3.5966,4.1383 -5.3952,10.6384 -5.3952,19.565 0,9.0567 1.7334,15.6217 5.2002,19.7166 3.4883,4.095 8.0166,6.1535 13.585,6.1535 4.5065,0 8.2551,-1.3652 11.245,-4.1168 3.0116,-2.73 4.9182,-6.9551 5.7198,-12.6533 z m 66.9504,2.8599 11.8298,1.5602 c -1.8417,6.8683 -5.2866,12.2199 -10.3133,16.0115 -5.0267,3.7916 -11.4401,5.6985 -19.2617,5.6985 -9.8365,0 -17.6366,-3.0334 -23.4,-9.1001 -5.7634,-6.0449 -8.6448,-14.5599 -8.6448,-25.5016 0,-11.3099 2.9032,-20.1067 8.7315,-26.3466 5.8283,-6.2617 13.39,-9.3818 22.6851,-9.3818 8.9915,0 16.3367,3.0552 22.0349,9.1868 5.6985,6.1316 8.5583,14.7549 8.5583,25.8698 0,0.6718 -0.0215,1.69 -0.0649,3.0334 H 622.12 c 0.4331,7.3885 2.5132,13.0651 6.2832,16.9866 3.7483,3.9217 8.4501,5.8935 14.0616,5.8935 4.1817,0 7.7567,-1.105 10.7033,-3.3151 2.9685,-2.2099 5.3085,-5.7416 7.0419,-10.5951 z m -37.44,-18.3299 h 37.5698 c -0.4984,-5.6767 -1.95,-9.9233 -4.3115,-12.7616 -3.6184,-4.3983 -8.3418,-6.6084 -14.1268,-6.6084 -5.2432,0 -9.6417,1.7549 -13.2168,5.265 -3.5532,3.5099 -5.525,8.2117 -5.9147,14.105 z" />
  <path
     id="path12"
     style="fill:#ffffff;fill-rule:evenodd;stroke:#000000;stroke-width:2.9999;stroke-linecap:butt;stroke-linejoin:miter;stroke-dasharray:none"
     d="m 83.3261,137.7615 35.7066,-93.0798 h 13.5417 l 37.895,93.0798 H 156.4512 L 145.6826,109.5514 H 106.4877 L 96.391,137.7615 Z m 26.78,-38.2201 h 31.72 l -9.7067,-25.8049 c -2.925,-7.8432 -5.1349,-14.3218 -6.6733,-19.4349 -1.2784,6.0667 -2.99,12.0249 -5.135,17.9184 z m 71.4351,38.2201 V 79.1314 h -10.1401 v -8.8398 h 10.1401 v -7.1502 c 0,-4.5283 0.39,-7.8865 1.1917,-10.0748 1.1049,-2.9467 3.0118,-5.3519 5.7849,-7.1935 2.7519,-1.8417 6.63,-2.7516 11.6136,-2.7516 3.2281,0 6.7816,0.39 10.6815,1.1483 l -1.7116,10.01 c -2.3833,-0.4116 -4.6151,-0.6282 -6.7385,-0.6282 -3.4665,0 -5.9148,0.7365 -7.3667,2.2099 -1.4298,1.4735 -2.145,4.2251 -2.145,8.2551 v 6.175 h 13.1301 v 8.8398 h -12.9999 v 58.6301 z m 33.7782,0 V 79.1314 h -10.1401 v -8.8398 h 10.1401 v -7.1502 c 0,-4.5283 0.39,-7.8865 1.1917,-10.0748 1.1049,-2.9467 3.0118,-5.3519 5.7849,-7.1935 2.7519,-1.8417 6.63,-2.7516 11.6136,-2.7516 3.2281,0 6.7816,0.39 10.6815,1.1483 l -1.7116,10.01 c -2.3833,-0.4116 -4.6151,-0.6282 -6.7385,-0.6282 -3.4665,0 -5.9148,0.7365 -7.3667,2.2099 -1.4298,1.4735 -2.1449,4.2251 -2.1449,8.2551 v 6.175 h 13.13 v 8.8398 h -12.9999 v 58.6301 z m 79.4083,-21.8401 11.8299,1.5602 c -1.8417,6.8684 -5.2866,12.2199 -10.3133,16.0115 -5.0267,3.7916 -11.4401,5.6985 -19.2617,5.6985 -9.8365,0 -17.6366,-3.0334 -23.4,-9.1001 -5.7634,-6.0449 -8.6448,-14.5598 -8.6448,-25.5016 0,-11.3099 2.9032,-20.1067 8.7315,-26.3466 5.8283,-6.2617 13.39,-9.3818 22.6851,-9.3818 8.9915,0 16.3367,3.0552 22.0349,9.1868 5.6984,6.1316 8.5583,14.7549 8.5583,25.8698 0,0.6718 -0.0215,1.69 -0.0649,3.0334 h -50.2449 c 0.4331,7.3885 2.5132,13.0651 6.2832,16.9866 3.7483,3.9217 8.4501,5.8935 14.0616,5.8935 4.1817,0 7.7567,-1.105 10.7033,-3.3151 2.9685,-2.2099 5.3085,-5.7416 7.0418,-10.5951 z m -37.44,-18.3299 h 37.5699 c -0.4984,-5.6767 -1.95,-9.9233 -4.3115,-12.7616 -3.6184,-4.3982 -8.3418,-6.6084 -14.1268,-6.6084 -5.2432,0 -9.6417,1.7549 -13.2168,5.2651 -3.5532,3.5098 -5.525,8.2116 -5.9148,14.1049 z m 107.7914,15.47 11.1801,1.5599 c -1.235,7.6919 -4.3548,13.6934 -9.4033,18.0485 -5.0482,4.3549 -11.2666,6.5217 -18.6117,6.5217 -9.2084,0 -16.6182,-3.0118 -22.2084,-9.0352 -5.6114,-6.0233 -8.4067,-14.6466 -8.4067,-25.8698 0,-7.2802 1.2135,-13.6284 3.6185,-19.0885 2.4049,-5.4383 6.0667,-9.5332 11.0066,-12.2417 4.9184,-2.7298 10.2699,-4.0949 16.0767,-4.0949 7.3018,0 13.3033,1.8416 17.9399,5.5468 4.6585,3.7049 7.6484,8.97 8.9484,15.7731 l -11.05,1.69 c -1.0616,-4.5283 -2.9251,-7.9299 -5.6333,-10.2265 -2.6867,-2.2751 -5.9366,-3.4234 -9.75,-3.4234 -5.7634,0 -10.4434,2.0582 -14.0616,6.175 -3.5966,4.1383 -5.3952,10.6384 -5.3952,19.565 0,9.0567 1.7334,15.6217 5.2002,19.7166 3.4883,4.095 8.0167,6.1535 13.585,6.1535 4.5066,0 8.2551,-1.3652 11.2451,-4.1168 3.0115,-2.73 4.9181,-6.9551 5.7197,-12.6533 z m 45.7603,14.495 1.5599,10.0967 c -3.2066,0.6716 -6.0883,1.0182 -8.6015,1.0182 -4.1386,0 -7.3451,-0.65 -9.6417,-1.9715 -2.2751,-1.3218 -3.8784,-3.0333 -4.8101,-5.1783 -0.9315,-2.145 -1.3868,-6.6518 -1.3868,-13.5201 V 79.1314 h -8.4498 v -8.8398 h 8.4498 V 53.6083 l 11.4401,-6.8684 v 23.5517 h 11.4401 v 8.8398 h -11.4401 v 39.5201 c 0,3.2717 0.195,5.3733 0.6066,6.3051 0.3901,0.9317 1.0401,1.6682 1.9503,2.2317 0.9099,0.5417 2.2098,0.8232 3.8999,0.8232 1.2566,0 2.925,-0.1517 4.9833,-0.455 z M 422.1275,57.6816 V 44.6817 h 11.4401 v 12.9999 z m 0,80.0799 V 70.2916 h 11.4401 v 67.4699 z m 24.5917,-33.7351 c 0,-12.4583 3.4668,-21.6882 10.4216,-27.69 5.7852,-4.9833 12.8701,-7.4749 21.2119,-7.4749 9.2514,0 16.835,3.0333 22.7282,9.1 5.8717,6.0449 8.8183,14.4301 8.8183,25.1116 0,8.6666 -1.3,15.4701 -3.8999,20.4318 -2.6,4.9615 -6.3919,8.8183 -11.3752,11.5699 -4.9615,2.7516 -10.4,4.1168 -16.2714,4.1168 -9.4467,0 -17.0734,-3.0118 -22.9017,-9.0567 -5.8286,-6.0452 -8.7318,-14.7552 -8.7318,-26.1085 z m 11.7,0.0218 c 0,8.6233 1.885,15.0801 5.6551,19.3482 3.7916,4.2902 8.5365,6.4352 14.2784,6.4352 5.6767,0 10.3997,-2.145 14.1916,-6.4568 3.7698,-4.3117 5.6549,-10.8765 5.6549,-19.6951 0,-8.32 -1.9066,-14.6248 -5.6982,-18.8932 -3.7916,-4.2899 -8.515,-6.4349 -14.1483,-6.4349 -5.7419,0 -10.4868,2.1231 -14.2784,6.3915 -3.7701,4.2685 -5.6551,10.7034 -5.6551,19.3051 z m 64.8915,33.7133 V 70.2916 h 10.2702 v 9.5765 c 4.94,-7.3448 12.0898,-11.0066 21.4283,-11.0066 4.0734,0 7.8001,0.7367 11.2016,2.1883 3.4016,1.4516 5.9585,3.3801 7.6485,5.7416 1.69,2.3618 2.8814,5.1783 3.5532,8.4285 0.4116,2.1232 0.6284,5.8284 0.6284,11.115 v 41.4266 h -11.44 V 96.7683 c 0,-4.6585 -0.4334,-8.1468 -1.3218,-10.4434 -0.8884,-2.2966 -2.4698,-4.1383 -4.7234,-5.525 -2.2532,-1.3649 -4.9181,-2.0583 -7.9514,-2.0583 -4.8535,0 -9.0352,1.5381 -12.5669,4.6367 -3.5317,3.0767 -5.2866,8.9481 -5.2866,17.5717 v 36.8115 z m 67.7518,-20.1501 11.3099,-1.8198 c 0.6285,4.5283 2.4049,7.9948 5.3085,10.4216 2.9032,2.4049 6.9766,3.6184 12.1765,3.6184 5.265,0 9.1649,-1.0619 11.7218,-3.2068 2.535,-2.1232 3.8131,-4.6367 3.8131,-7.5184 0,-2.5781 -1.1483,-4.6148 -3.4231,-6.0882 -1.6035,-1.0182 -5.5034,-2.2967 -11.7,-3.8784 -8.3633,-2.1016 -14.1485,-3.9217 -17.3985,-5.4601 -3.2283,-1.5599 -5.6766,-3.683 -7.3448,-6.4131 -1.6685,-2.7085 -2.5135,-5.72 -2.5135,-9.0133 0,-3.0118 0.6934,-5.7852 2.0582,-8.3418 1.3868,-2.5566 3.2503,-4.68 5.6118,-6.37 1.7767,-1.3 4.2035,-2.4049 7.2584,-3.3149 3.0767,-0.9102 6.3482,-1.3651 9.8583,-1.3651 5.2866,0 9.9233,0.7582 13.9099,2.2966 4.0085,1.5168 6.9551,3.5969 8.8617,6.1968 1.885,2.6215 3.2068,6.1098 3.9217,10.4865 l -11.1798,1.5602 c -0.4984,-3.5101 -1.9718,-6.2617 -4.3986,-8.2335 -2.4267,-1.9715 -5.8498,-2.9466 -10.2917,-2.9466 -5.2214,0 -8.97,0.8668 -11.2017,2.5999 -2.2314,1.7334 -3.3582,3.7701 -3.3582,6.0886 0,1.4731 0.455,2.8165 1.3867,4.0081 0.9318,1.2136 2.3834,2.2318 4.3767,3.0334 1.1483,0.4334 4.485,1.4082 10.0749,2.9251 8.0601,2.1449 13.6933,3.9217 16.9002,5.2866 3.2065,1.3649 5.7197,3.38 7.5399,5.9799 1.8416,2.6218 2.7515,5.8717 2.7515,9.7716 0,3.7919 -1.1049,7.3667 -3.3366,10.7252 -2.2317,3.3582 -5.4383,5.9581 -9.62,7.7998 -4.2032,1.8417 -8.9484,2.7519 -14.235,2.7519 -8.7534,0 -15.4482,-1.8201 -20.0415,-5.4386 -4.5935,-3.6399 -7.5183,-9.0133 -8.7967,-16.1416 z" />
</svg>
