<?xml version="1.0" encoding="UTF-8" standalone="no"?>
<svg
   xmlns:dc="http://purl.org/dc/elements/1.1/"
   xmlns:cc="http://creativecommons.org/ns#"
   xmlns:rdf="http://www.w3.org/1999/02/22-rdf-syntax-ns#"
   xmlns:svg="http://www.w3.org/2000/svg"
   xmlns="http://www.w3.org/2000/svg"
   xmlns:sodipodi="http://sodipodi.sourceforge.net/DTD/sodipodi-0.dtd"
   xmlns:inkscape="http://www.inkscape.org/namespaces/inkscape"
   inkscape:version="1.0 (4035a4fb49, 2020-05-01)"
   sodipodi:docname="cumFull.svg"
   id="svg12"
   version="1.1"
   viewBox="0 0 64 64">
  <metadata
     id="metadata18">
    <rdf:RDF>
      <cc:Work
         rdf:about="">
        <dc:format>image/svg+xml</dc:format>
        <dc:type
           rdf:resource="http://purl.org/dc/dcmitype/StillImage" />
      </cc:Work>
    </rdf:RDF>
  </metadata>
  <defs
     id="defs16">
    <pattern
       id="EMFhbasepattern"
       patternUnits="userSpaceOnUse"
       width="6"
       height="6"
       x="0"
       y="0" />
  </defs>
  <sodipodi:namedview
     inkscape:current-layer="svg12"
     inkscape:window-maximized="1"
     inkscape:window-y="-8"
     inkscape:window-x="-8"
     inkscape:cy="35.339782"
     inkscape:cx="68.438522"
     inkscape:zoom="12.772116"
     showgrid="false"
     id="namedview14"
     inkscape:window-height="746"
     inkscape:window-width="1304"
     inkscape:pageshadow="2"
     inkscape:pageopacity="0"
     guidetolerance="10"
     gridtolerance="10"
     objecttolerance="10"
     borderopacity="1"
     bordercolor="#666666"
     pagecolor="#ffffff" />
  <path
     id="path2"
     d="M49.069 12.773l-9.932 24.508C28.986 62.332 69.4 60.94 59.48 37.439z"
     stroke-width=".5"
     stroke="#000"
     fill-rule="evenodd"
     fill="#f9f9f9" />
  <path
     style="display:inline"
     id="path8"
     d="m 6.17,39.991 c -5.582,2.553 -4.713,7.58 -0.975,10.152 2.955,2.033 7.197,1.808 8.807,0.046 9.858,2.994 10.173,-5.584 8.864,-7.745 9.952,-5.71 14.043,-13.917 18.676,-21.085 1.15,-2.251 1.408,-5.52 -1.722,-6.283 -2.043,-0.498 -6.843,1.73 -10.413,5.164 -0.334,0.321 -0.195,1.129 0.516,1.377 C 24.05,29.462 16.125,35.439 6.171,39.99 Z"
     stroke-width="0.5"
     stroke="#000000"
     fill-rule="evenodd"
     fill="#808080" />
  <path
     id="path10"
     d="M29.92 21.622l.075-.237c.269.107.533.152.84.158.309.005.65-.031 1.07-.08.838-.097 1.932-.237 3.605-.173-1.67.019-2.75.24-3.565.418-.406.088-.76.17-1.092.206-.336.038-.66.033-1.008-.055zM13.907 50.267c.085.018.17.034.257.05.216-.325.486-.708.726-1.11.266-.447.492-.912.568-1.338-.152.398-.445.812-.767 1.197-.293.35-.612.678-.887.96.033.081.068.162.103.241zM41.474 21.473l.164-.17a.654.654 0 0 0-.208-.1 1.661 1.661 0 0 0-.228-.049 4.686 4.686 0 0 0-.52-.042 9.137 9.137 0 0 0-.912.018c.088.03.223.063.378.098s.33.074.5.119c.17.044.332.094.458.15a.805.805 0 0 1 .153.084c.036.027.056.054.05.063z"
     fill-rule="evenodd" />
  <path
     style="fill:#31d322;fill-opacity:1;fill-rule:evenodd;stroke:none;stroke-width:0.999999"
     d="M 51.293017,52.568076 H 47.054614 V 32.326499 H 44.666 L 49.171038,23.3 l 4.505039,9.026499 h -2.38306 z"
     id="path846" />
</svg>
