<svg xmlns="http://www.w3.org/2000/svg" cursor="default" viewBox="0 0 256 256">
    <defs>
        <linearGradient id="innoGrad2">
            <stop offset="0" stop-color="#ff8080"/>
            <stop offset="1" stop-color="#faa"/>
        </linearGradient>
    </defs>
    <path fill="#ff7f2a" fill-opacity=".502" fill-rule="evenodd" stroke="#000" stroke-width="1.394" d="M163.673 217.023c-36.247-6.67-73.062-11.195-114.074.193-3.224-5.623-.512-9.661 4.073-13.065-2.413-6.053 1.287-8.953 6.57-10.702.062-6.528 3.685-8.657 9.364-7.714 1.254-2.28 2.877-3.84 6.589-1.88-2.113-4.413-1.144-7.412 1.698-9.474-1.38-7.033 2.306-9.434 6.933-10.7 2.015-5.1 4.738-9.076 10.193-7.718 2.018-4.334 4.652-6.685 8.862-4.699-1.512-5.173-2.125-10.09 5.505-13.881-.569-4.859 1.152-9.072 8.758-11.897 1.146-5.25 5.544-10.505 10.633-9.221 3.761-6.702 6.376-7.452 11.64-6.128-.73-5.052 1.864-6.398 5.187-7.716-.775-6.066 1.639-8.879 6.118-9.42 1.475-5.253 4.324-7.753 8.67-6.542 2.737-5.434 6.415-5.332 9.976-4.431.043-4.544-.056-8.483 6.417-11.068-.48-6.672 4.116-7.699 7.235-9.566 2.222-6.81 6.87-9.064 12.69-9.91 3.779-8.499 8.6-6.346 14.054-6.415-9.856 37.366-10.291 76.775 4.565 119.499-21.825 12.487-39.748 29.208-51.656 52.454z"/>
    <g fill="#ff7f2a" fill-opacity=".502" fill-rule="evenodd" stroke="#000">
        <path stroke-width="1.39351" d="M234.16 250.01c7.763-5.342 14.711-13.246 19.069-20.951l-39.415-63.915c-13.857 10.441-34.718 25.98-50.145 51.881z"/>
        <path stroke-width="1.39351" d="M177.235 195.089c-20.208-25.894-66.274-26.853-87.136-9.93 29.848-25.892 58.226-52.914 80.313-84.769-2.628 26.684 1.443 58.524 25.054 77.552z"/>
        <path stroke-width="1.39351" d="M5.87 241.781l3.597 3.585c60.33-43.069 93.692-66.119 129.128-103.347 30.465-32.005 69.235-89.717 97.899-134.881l-5.38-3.062c-16.776 30.795-56.905 93.662-95.631 134.818-40.848 43.41-71.888 62.276-129.615 102.888z"/>
        <path stroke-width="1.39351" d="M163.673 217.023c-36.247-6.67-73.062-11.195-114.074.193-3.224-5.623-.512-9.661 4.073-13.065-2.413-6.053 1.287-8.953 6.57-10.702.062-6.528 3.685-8.657 9.364-7.714 1.254-2.28 2.877-3.84 6.589-1.88-2.113-4.413-1.144-7.412 1.698-9.474-1.38-7.033 2.306-9.434 6.933-10.7 2.015-5.1 4.738-9.076 10.193-7.718 2.018-4.334 4.652-6.685 8.862-4.699-1.512-5.173-2.125-10.09 5.505-13.881-.569-4.859 1.152-9.072 8.758-11.897 1.146-5.25 5.544-10.505 10.633-9.221 3.761-6.702 6.376-7.452 11.64-6.128-.73-5.052 1.864-6.398 5.187-7.716-.775-6.066 1.639-8.879 6.118-9.42 1.475-5.253 4.324-7.753 8.67-6.542 2.737-5.434 6.415-5.332 9.976-4.431.043-4.544-.056-8.483 6.417-11.068-.48-6.672 4.116-7.699 7.235-9.566 2.222-6.81 6.87-9.064 12.69-9.91 3.779-8.499 8.6-6.346 14.054-6.415-9.856 37.366-10.291 76.775 4.565 119.499-21.825 12.487-39.748 29.208-51.656 52.454z"/>
    </g>
    <g fill="#ff7f2a" fill-opacity=".502">
        <path d="M130.224 195.223l1.346-1.41c-2.266-2.163-5.447-3.904-9.332-4.145-2.854-.177-5.848.508-8.155 2.098-1.036.714-1.935 1.62-2.536 2.69-.583 1.04-.874 2.227-.72 3.47.149 1.211.71 2.38 1.662 3.455.937 1.057 2.264 2.04 4.004 2.928a21.03 21.03 0 0 1-1.553-.878c.496.35 1.027.65 1.583.893 1.86.814 3.527.795 4.821.253a4.52 4.52 0 0 0 2.564-2.773c.422-1.284.243-2.6-.314-3.692-.747-1.465-2.092-2.437-3.474-3.08 1.398.65 2.666 1.715 3.225 3.19.415 1.096.373 2.286-.148 3.289a3.441 3.441 0 0 1-2.283 1.792c-.958.222-2.155.073-3.52-.722l.03.015c-1.541-.895-2.565-1.803-3.196-2.648-.635-.85-.854-1.607-.857-2.232-.003-.634.215-1.227.603-1.77.41-.574 1.022-1.104 1.793-1.543 1.736-.99 3.992-1.373 6.163-1.122 2.896.334 5.215 1.697 6.948 3.352l1.346-1.41zM168.096 210.822c-.205.095-.797-.295-1.3-.765-.498-.467-.885-.997-1.03-.975a7.214 7.214 0 0 1-1.423.07c-.956-.045-2.124-.264-3.488-.775-2.235-.838-4.77-2.395-6.874-4.449-.913-.892-1.674-1.814-2.212-2.688-.524-.85-.768-1.545-.823-2.057a1.56 1.56 0 0 1 .031-.583c.043-.153.127-.322.312-.498.385-.367 1.202-.748 2.705-.87l-.053.001c1.27-.12 2.56.278 3.72 1.045a8.248 8.248 0 0 1 2.715 3 5.46 5.46 0 0 1 .57 1.671c.086.563.04 1.064-.125 1.487a2.14 2.14 0 0 1-1.004 1.111c-.586.318-1.316.426-2.065.396.743.03 1.48-.035 2.113-.295.511-.21.953-.548 1.265-1.056.276-.449.438-1.013.458-1.677.02-.61-.082-1.29-.31-2.005-.421-1.321-1.285-2.776-2.558-3.958-1.212-1.124-2.839-2.033-4.764-2.172l.011.001h-.065c-1.745.004-3.21.315-4.302 1.048a4.136 4.136 0 0 0-1.334 1.443 4.423 4.423 0 0 0-.525 1.852c-.085 1.278.305 2.6.884 3.802.615 1.276 1.5 2.532 2.508 3.682 2.299 2.621 5.239 4.714 8.019 5.928 1.724.753 3.371 1.17 4.891 1.284.875.066 1.686.031 2.432-.082.28-.043.692-.716.988-1.422.291-.697.46-1.413.633-1.493zM206.492 134.48l2.026-.068c-.138-4.114-1.746-8.56-5.696-12.135-2.897-2.622-6.814-4.489-10.875-4.943-1.822-.204-3.664-.116-5.348.35-1.625.45-3.122 1.26-4.25 2.506-1.112 1.226-1.802 2.803-1.954 4.692-.15 1.85.217 3.976 1.152 6.373a23.077 23.077 0 0 1-.667-1.968c.156.691.385 1.364.682 2.007.552 1.196 1.275 2.152 2.105 2.883a7.397 7.397 0 0 0 2.722 1.527c1.984.611 4.016.34 5.635-.396 1.852-.841 3.141-2.25 3.763-3.813a6.596 6.596 0 0 0 .448-2.807c-.061-1.16-.396-2.264-.85-3.268.455 1.007.757 2.12.759 3.27a5.975 5.975 0 0 1-.616 2.69c-.716 1.438-2.056 2.608-3.798 3.183-1.54.51-3.304.511-4.861-.172a5.947 5.947 0 0 1-2.012-1.442c-.578-.633-1.068-1.435-1.422-2.43l.015.039c-.763-2.234-.931-4.028-.726-5.422.205-1.393.78-2.392 1.535-3.102.78-.734 1.824-1.224 3.047-1.474 1.274-.26 2.715-.254 4.198-.003 3.33.563 6.482 2.261 8.74 4.47 3.007 2.945 4.116 6.375 4.222 9.52l2.026-.067zM180.675 173.374c.35-.684.733-1.324 1.148-1.79.173-.195.355-.361.545-.488.176-.117.366-.204.57-.242.193-.036.397-.027.604.038.197.061.389.17.57.325.342.29.64.735.874 1.31.432 1.062.652 2.607.46 4.427-.183 1.736-.745 3.726-1.867 5.686-1.255 2.16-3.092 3.592-5.179 4.057-2.227.496-4.478-.176-6.136-1.784-1.873-1.815-2.695-4.48-2.688-7.272.007-3.373 1.188-6.782 2.652-9.641.167-.327.349-.668.546-1.023 2.425-4.363 4-8.275 4.263-11.206.1-1.113-.01-1.89-.19-2.415-.154-.451-.38-.788-.72-1.032-.345-.249-.885-.453-1.67-.48-.754-.026-1.672.117-2.693.48-1.994.71-4.21 2.202-6.038 4.438-1.51 1.803-2.15 3.381-2.287 4.624-.142 1.298.252 2.327.96 3 .818.78 2.028 1.064 3.3.786 1.706-.372 3.159-1.64 4.165-3.114-.993 1.453-2.33 2.85-4.053 3.494-1.277.477-2.767.512-4.071-.263-1.16-.689-2.097-2.006-2.256-3.894-.15-1.785.41-3.955 1.956-6.312 1.864-2.79 4.326-4.92 6.84-6.169 1.29-.641 2.625-1.066 3.933-1.212 1.356-.152 2.726-.008 3.977.552 1.344.602 2.412 1.624 3.122 2.963.75 1.415 1.043 3.067 1.02 4.783-.057 4.24-2.033 9.198-4.528 13.752-.166.304-.318.593-.458.868-1.272 2.485-2.182 4.969-2.38 7.215-.16 1.815.183 3.108.732 3.919.46.679 1.169 1.167 2.13 1.172.926.005 2.185-.467 3.325-1.9a13.228 13.228 0 0 0 2.317-4.45c.445-1.508.525-2.824.405-3.74-.064-.492-.184-.86-.328-1.112a1.105 1.105 0 0 0-.252-.31.677.677 0 0 0-.337-.15.944.944 0 0 0-.47.061c-.187.07-.38.19-.574.354-.463.394-.887 1.008-1.24 1.696z"/>
        <path d="M138.71 199.471c.618-.081 1.206-.108 1.668-.014.194.04.37.101.518.193a.95.95 0 0 1 .337.348c.078.14.122.304.128.49.006.178-.022.371-.083.577-.116.389-.352.823-.703 1.278-.649.842-1.712 1.772-3.1 2.526-1.318.716-2.947 1.278-4.73 1.381-.983.051-1.892-.105-2.688-.477a4.542 4.542 0 0 1-1.929-1.694c-.473-.745-.726-1.607-.784-2.5-.06-.925.09-1.879.413-2.802.722-2.059 2.263-3.886 4.278-5.262 2.667-1.822 5.858-2.675 8.797-2.96l.301-.03c3.712-.382 7.15-1.174 9.57-2.595.94-.552 1.637-1.15 2.12-1.76.439-.556.703-1.126.811-1.698a3.426 3.426 0 0 0-.128-1.734c-.194-.586-.55-1.192-1.088-1.762-1.048-1.11-2.748-2.029-4.953-2.268-1.78-.212-3.209.125-4.276.738-1.126.647-1.857 1.603-2.185 2.576a3.689 3.689 0 0 0-.186 1.541c.053.536.233 1.028.523 1.451.33.481.789.858 1.336 1.123.677.328 1.444.467 2.198.48-.751-.013-1.524-.117-2.235-.394a3.98 3.98 0 0 1-1.526-1.028 3.679 3.679 0 0 1-.826-1.532 4.402 4.402 0 0 1-.08-1.83c.194-1.21.877-2.535 2.167-3.561 1.235-.982 2.986-1.652 5.211-1.631 2.647.046 4.987.926 6.672 2.34.868.73 1.564 1.602 2.032 2.575a6.562 6.562 0 0 1 .65 3.256c-.073 1.202-.479 2.36-1.163 3.417-.74 1.143-1.78 2.128-3.017 2.953-3.083 2.055-7.26 3.044-11.204 3.45-.108.012-.218.023-.33.033-2.53.24-5.04.85-7.123 2.075-1.565.92-2.682 2.076-3.283 3.278a4.46 4.46 0 0 0-.47 1.536c-.046.456.004.87.138 1.22.13.34.35.657.704.909.354.253.863.454 1.56.51 1.44.112 2.87-.152 4.133-.615 1.32-.484 2.392-1.16 3.093-1.784.378-.338.644-.657.806-.935.086-.147.142-.281.172-.403a.751.751 0 0 0 .01-.349.627.627 0 0 0-.18-.313 1.148 1.148 0 0 0-.433-.248c-.433-.149-1.02-.157-1.642-.075zM171.814 114.893c.517.668 1.1 1.241 1.7 1.572.25.138.496.23.73.269.216.037.417.028.598-.023.17-.048.322-.133.455-.251.128-.113.242-.26.34-.439.186-.34.317-.805.363-1.39.085-1.083-.128-2.564-.81-4.167a12.676 12.676 0 0 0-3.265-4.502c-1.547-1.372-3.236-1.74-4.633-1.532a4.893 4.893 0 0 0-3.437 2.264c-.84 1.338-1.118 3.116-.708 5.184.517 2.603 2.028 5.26 3.975 7.744.18.23.371.468.576.715 1.957 2.359 3.76 4.89 5.101 7.446 1.106 2.108 1.891 4.221 2.193 6.249.27 1.812.152 3.558-.468 5.115a7.374 7.374 0 0 1-2.83 3.468c-1.197.788-2.61 1.252-4.119 1.428-1.456.17-3.023.076-4.611-.266-3.093-.666-6.32-2.286-8.962-4.81-2.199-2.127-3.2-4.293-3.312-6.211-.12-2.018.743-3.604 1.932-4.601 1.348-1.13 3.076-1.514 4.685-1.344 2.17.228 3.996 1.399 5.393 2.75-1.41-1.364-3.303-2.418-5.41-2.444-1.568-.019-3.066.556-4.069 1.667-.879.974-1.314 2.304-1.023 3.794.276 1.417 1.228 3.07 3.274 4.748 2.49 2.075 5.392 3.255 8 3.608 1.338.18 2.564.141 3.612-.075 1.09-.225 1.94-.63 2.558-1.131a3.778 3.778 0 0 0 1.271-1.896c.243-.812.283-1.84.025-3.107-.29-1.434-.94-3.075-1.95-4.885-1.221-2.189-2.864-4.444-4.712-6.655-.234-.28-.454-.551-.66-.814-2.183-2.785-4.09-6.2-4.589-9.824-.407-2.966.19-5.825 1.917-7.987 1.505-1.884 3.73-3.024 6.143-3.072 2.294-.047 4.608.901 6.427 2.875 1.643 1.8 2.637 3.78 3.145 5.59.533 1.898.534 3.6.219 4.83-.17.666-.434 1.2-.763 1.58-.174.2-.365.356-.567.466a1.594 1.594 0 0 1-.655.194 1.81 1.81 0 0 1-.698-.096 2.959 2.959 0 0 1-.733-.376c-.576-.393-1.132-.993-1.648-1.658zM214.367 160.735c-.29.191-1.235-.125-2.108-.545-.865-.416-1.646-.926-1.868-.839-1.816.718-4.18 1.215-7.077.976-2.983-.245-6.218-1.275-8.778-3.015-1.112-.755-1.985-1.576-2.568-2.382-.55-.76-.8-1.446-.822-2.022-.021-.541.147-1.233.915-2.025.777-.8 2.123-1.646 4.263-2.363l-.056.015c1.844-.642 3.53-.575 4.94-.061 1.485.54 2.629 1.566 3.28 2.734.348.626.551 1.285.605 1.935a4.063 4.063 0 0 1-.347 2.03c-.328.722-.862 1.347-1.552 1.855-.854.628-1.889 1.034-2.94 1.27 1.047-.235 2.1-.59 3.022-1.149.743-.45 1.39-1.028 1.867-1.756a5.008 5.008 0 0 0 .79-2.234 5.942 5.942 0 0 0-.272-2.446c-.502-1.558-1.658-3.15-3.474-4.23-1.744-1.038-4.052-1.562-6.713-1.056l.014-.002-.07.018c-2.457.637-4.4 1.522-5.817 2.672-1.468 1.192-2.378 2.683-2.626 4.386-.25 1.72.21 3.394 1.005 4.849.83 1.52 2.064 2.884 3.462 4.034 3.19 2.623 7.318 4.247 11.208 4.782 3.862.53 7.266-.008 10.002-1.088.364-.144.749-1.14 1.023-2.155.271-1.002.431-2.015.692-2.187zM140.092 152.712c.455 0 .929-.105 1.366-.363.353-.21.664-.507.907-.89.413-.65.608-1.52.47-2.372a2.85 2.85 0 0 0-.377-1.044 1.983 1.983 0 0 0-.681-.679 1.98 1.98 0 0 0-.92-.258c-.353-.018-.788.035-1.316.203-.49.16-1.034.479-1.605.958a10.847 10.847 0 0 0-1.676 1.813c-1.121 1.504-1.962 3.274-2.353 4.844-.21.84-.277 1.566-.235 2.153.044.637.21 1.034.384 1.272.173.239.416.403.759.526.481.172 1.172.257 2.11.199l.264-.014c1.649-.08 3.417.037 4.961.607 1.342.496 2.561 1.358 3.282 2.719.628 1.186.75 2.516.537 3.845-.195 1.211-.673 2.46-1.343 3.694-1.243 2.285-3.243 4.675-5.571 6.657-2.207 1.877-4.753 3.42-7.124 3.974-.985.22-1.857.228-2.57-.025a2.451 2.451 0 0 1-.93-.579 2.287 2.287 0 0 1-.537-.866c-.217-.62-.188-1.313-.055-1.965.14-.69.414-1.415.76-2.118.775-1.57 1.919-3.055 3.092-4.171a11.74 11.74 0 0 1 2.04-1.575c.813-.487 1.541-.758 2.172-.903-.632.145-1.349.45-2.119.985-.623.432-1.259 1-1.875 1.703-1.046 1.193-1.995 2.742-2.52 4.29-.237.696-.376 1.36-.392 1.934-.016.563.089.972.26 1.212a.63.63 0 0 0 .256.218.968.968 0 0 0 .331.074c.288.02.758-.027 1.498-.295 1.838-.641 3.926-2.116 5.798-3.981 1.97-1.964 3.527-4.182 4.378-6.114.458-1.04.679-1.92.719-2.612.043-.747-.127-1.164-.302-1.402-.18-.245-.523-.511-1.178-.715-.828-.256-1.964-.352-3.362-.285l-.213.011c-1.293.076-2.74-.043-4.04-.641-1.1-.505-2.022-1.324-2.597-2.47-.498-.99-.67-2.094-.614-3.216.051-1.031.297-2.103.685-3.164.719-1.964 1.97-3.997 3.496-5.625.732-.782 1.535-1.478 2.375-2.012.828-.527 1.716-.914 2.615-1.044.793-.109 1.506-.061 2.124.124.628.188 1.132.51 1.515.908.388.406.638.878.783 1.352.151.492.193.996.16 1.47-.075 1.055-.514 1.97-1.081 2.584a3.286 3.286 0 0 1-1.1.79 3.466 3.466 0 0 1-1.41.278zM165.4 152.818l1.083-1.133c-1.732-1.657-4.226-2.857-7.336-2.774-2.274.06-4.67.83-6.557 2.237-.848.633-1.594 1.399-2.121 2.268-.51.84-.823 1.792-.789 2.79.034.984.404 1.93 1.12 2.775.698.824 1.715 1.541 3.054 2.143a13.585 13.585 0 0 1-1.188-.605c.38.251.789.459 1.216.618.72.268 1.414.37 2.061.338a4.412 4.412 0 0 0 1.764-.462 4.549 4.549 0 0 0 2.173-2.383c.421-1.065.377-2.128.007-2.987-.495-1.146-1.503-1.838-2.56-2.258 1.075.427 2.013 1.195 2.354 2.333.251.84.137 1.793-.36 2.644-.44.755-1.156 1.377-2.032 1.654a3.303 3.303 0 0 1-1.33.135 3.982 3.982 0 0 1-1.451-.452l.028.013c-1.16-.606-1.89-1.248-2.31-1.85-.419-.598-.533-1.153-.492-1.642.044-.51.264-1.032.646-1.541.4-.533.964-1.034 1.645-1.464 1.533-.966 3.416-1.435 5.132-1.388 2.276.063 3.964.981 5.159 2.124l1.084-1.133zM170.021 180.101l-.476-1.389c-1.869.642-4.022.91-6.17.338-1.608-.427-2.998-1.286-3.807-2.364-.357-.476-.574-.962-.646-1.419-.067-.43-.013-.87.23-1.303.24-.431.692-.894 1.47-1.298.77-.4 1.831-.726 3.237-.9l-.022.001c1.262-.16 2.14.074 2.702.466.594.415.902 1.052.897 1.76-.005.807-.412 1.616-1.108 2.236-.932.832-2.203 1.191-3.412 1.24 1.199-.048 2.49-.323 3.54-1.08.78-.561 1.385-1.373 1.557-2.337a2.885 2.885 0 0 0-.81-2.584c-.726-.728-1.892-1.19-3.462-1.166h.003l-.026.002c-1.53.11-2.796.392-3.812.823-1.03.436-1.825 1.034-2.36 1.777a4.023 4.023 0 0 0-.763 2.525c.032.907.344 1.784.823 2.564 1.064 1.732 2.94 3.013 4.988 3.675 2.784.9 5.592.616 7.903-.178l-.476-1.389z"/>
        <path d="M130.124 156.846l.116-1.563c-2.39-.177-5.078.483-7.426 2.524-1.717 1.493-3.077 3.61-3.638 5.896-.253 1.028-.34 2.093-.195 3.1.141.971.505 1.906 1.165 2.654.652.738 1.54 1.233 2.629 1.43 1.063.192 2.304.099 3.72-.289-.43.118-.864.214-1.302.289.454-.048.9-.148 1.332-.296a5.145 5.145 0 0 0 1.805-1.05 4.412 4.412 0 0 0 1.068-1.478 4.549 4.549 0 0 0 .162-3.221c-.352-1.09-1.062-1.883-1.895-2.31-1.11-.57-2.327-.462-3.41-.114 1.1-.354 2.313-.358 3.3.303.728.489 1.245 1.297 1.404 2.27.14.861-.017 1.798-.517 2.568-.238.366-.55.69-.94.95-.385.257-.85.457-1.408.574l.03-.008c-1.28.27-2.252.238-2.96.041-.703-.196-1.144-.551-1.423-.955-.29-.42-.453-.964-.482-1.6-.03-.665.087-1.411.34-2.176.568-1.72 1.723-3.279 3.078-4.334 1.796-1.399 3.682-1.763 5.331-1.641l.116-1.564zM108.42 176.725l-1.881.514c.826 3.022 2.653 6.153 5.858 8.364 2.353 1.623 5.272 2.58 8.068 2.408 1.257-.077 2.493-.39 3.56-.997 1.036-.59 1.898-1.456 2.407-2.6.497-1.116.62-2.405.357-3.819-.257-1.389-.887-2.915-1.92-4.573.314.505.607 1.023.878 1.553a9.017 9.017 0 0 0-.896-1.582c-1.173-1.656-2.612-2.5-4-2.703a4.52 4.52 0 0 0-3.627 1.054c-1.023.882-1.55 2.102-1.635 3.325-.115 1.64.536 3.166 1.388 4.43-.862-1.278-1.4-2.843-1.117-4.396.21-1.153.859-2.15 1.823-2.741a3.441 3.441 0 0 1 2.88-.358c.935.303 1.883 1.048 2.643 2.434l-.018-.028c.858 1.562 1.267 2.867 1.372 3.917.106 1.055-.097 1.816-.417 2.354-.324.544-.816.94-1.429 1.205-.648.28-1.445.42-2.332.398-1.998-.048-4.128-.883-5.86-2.218-2.307-1.78-3.591-4.143-4.223-6.455l-1.88.514z"/>
        <path d="M103.34 168.707c-.57-.25-1.088-.53-1.435-.848a1.575 1.575 0 0 1-.344-.433.95.95 0 0 1-.11-.471c.006-.16.053-.324.144-.487.086-.155.21-.306.368-.451.3-.273.726-.524 1.262-.733.99-.386 2.38-.635 3.959-.564 1.498.066 3.183.424 4.763 1.255.87.463 1.568 1.066 2.058 1.796.499.74.758 1.579.779 2.446.02.882-.206 1.75-.617 2.545-.426.824-1.047 1.564-1.8 2.189-1.68 1.391-3.943 2.162-6.378 2.301-3.226.185-6.4-.73-9.064-2.001a48.433 48.433 0 0 0-.274-.13c-3.377-1.587-6.73-2.68-9.537-2.711-1.09-.012-1.995.14-2.724.414-.663.25-1.183.602-1.57 1.036a3.426 3.426 0 0 0-.785 1.551c-.136.603-.144 1.306.023 2.072.326 1.49 1.308 3.155 3.074 4.497 1.416 1.1 2.814 1.548 4.044 1.573 1.299.026 2.418-.415 3.2-1.08.421-.358.743-.777.955-1.224.23-.486.33-1.001.3-1.513a3.384 3.384 0 0 0-.566-1.652c-.41-.63-.996-1.144-1.635-1.544.637.398 1.245.886 1.711 1.49a3.98 3.98 0 0 1 .778 1.668 3.68 3.68 0 0 1-.083 1.739 4.403 4.403 0 0 1-.876 1.61c-.79.936-2.057 1.718-3.693 1.932-1.564.205-3.41-.125-5.305-1.29-2.244-1.404-3.795-3.365-4.509-5.447-.368-1.072-.514-2.178-.413-3.254a6.562 6.562 0 0 1 1.123-3.124c.682-.992 1.627-1.776 2.758-2.328 1.224-.597 2.622-.905 4.108-.974 3.7-.17 7.79 1.136 11.378 2.822l.3.142c2.29 1.1 4.756 1.872 7.172 1.897 1.816.018 3.369-.396 4.504-1.115a4.46 4.46 0 0 0 1.194-1.074 2.67 2.67 0 0 0 .512-1.117 1.952 1.952 0 0 0-.135-1.141c-.173-.4-.505-.834-1.073-1.241-1.176-.84-2.538-1.35-3.858-1.606-1.38-.266-2.647-.24-3.57-.066-.498.094-.89.23-1.173.385a1.549 1.549 0 0 0-.355.256.75.75 0 0 0-.19.294.627.627 0 0 0-.005.362c.037.142.119.289.242.435.295.351.794.661 1.369.911zM100.525 208.06c-.183-.131-.136-.84.026-1.508.161-.664.432-1.261.342-1.377a7.214 7.214 0 0 1-.76-1.205c-.432-.853-.816-1.978-1.042-3.417-.37-2.358-.263-5.332.49-8.173.327-1.234.755-2.35 1.251-3.248.483-.875.968-1.43 1.387-1.73.191-.138.366-.22.522-.259.155-.038.343-.048.587.026.509.155 1.243.678 2.088 1.927l-.027-.046c.73 1.047 1.018 2.366.922 3.753a8.249 8.249 0 0 1-1.277 3.84c-.359.55-.76.995-1.173 1.319-.448.35-.907.558-1.356.622a2.14 2.14 0 0 1-1.462-.327c-.565-.354-1.018-.936-1.36-1.603.34.662.759 1.271 1.295 1.694.435.342.947.56 1.543.582.527.02 1.097-.117 1.685-.426.54-.284 1.082-.706 1.593-1.257.944-1.017 1.785-2.485 2.187-4.175.382-1.608.373-3.471-.453-5.216l.005.01-.032-.056c-.862-1.518-1.854-2.64-3.03-3.23a4.135 4.135 0 0 0-1.912-.451 4.422 4.422 0 0 0-1.87.454c-1.155.555-2.114 1.545-2.875 2.64-.808 1.164-1.467 2.552-1.972 3.996-1.15 3.29-1.525 6.88-1.214 9.897.193 1.872.641 3.51 1.289 4.89.373.794.803 1.484 1.269 2.077.175.223.963.25 1.723.16.75-.09 1.457-.294 1.611-.183zM79.644 210.412c.068-.174.776-.38 1.458-.71.691-.335 1.342-.786 1.367-1.067.065-.749.048-1.557-.074-2.423-.211-1.502-.73-3.114-1.587-4.786-1.38-2.693-3.642-5.502-6.385-7.65-1.204-.942-2.505-1.756-3.809-2.304-1.227-.514-2.564-.838-3.832-.69a4.384 4.384 0 0 0-1.821.615c-.563.35-1.02.827-1.365 1.411-.664 1.129-.877 2.604-.768 4.333a14.717 14.717 0 0 1 0-1.85 7.022 7.022 0 0 0 .003 1.904c.264 1.902 1.271 3.467 2.462 4.61 1.254 1.202 2.752 1.985 4.09 2.337.724.19 1.406.257 2.01.209.657-.053 1.207-.242 1.636-.538a2.53 2.53 0 0 0 .966-1.306c.217-.639.233-1.372.156-2.106.078.74.017 1.469-.26 2.064-.224.48-.573.836-1.036 1.044-.407.183-.899.25-1.46.192-.517-.054-1.09-.215-1.686-.488a8.377 8.377 0 0 1-3.14-2.554c-.832-1.116-1.306-2.376-1.265-3.639l.003.054c.025-1.495.353-2.313.684-2.698a.962.962 0 0 1 .453-.312c.141-.045.324-.066.554-.051.504.032 1.203.24 2.08.72.898.492 1.86 1.203 2.8 2.066 2.168 1.989 3.871 4.43 4.842 6.604.594 1.328.884 2.473.987 3.414.06.54.058 1.005.023 1.404-.013.143.548.49 1.053.952.508.467.942 1.032.861 1.24zM126.188 143.615c.618-.081 1.206-.108 1.667-.014.194.04.37.1.518.193.138.086.255.2.337.347.078.14.122.305.129.492.006.177-.022.37-.084.576-.116.388-.351.823-.702 1.278-.65.842-1.713 1.772-3.1 2.526-1.319.715-2.947 1.278-4.73 1.381-.983.051-1.893-.105-2.689-.477a4.542 4.542 0 0 1-1.928-1.694c-.473-.745-.727-1.607-.785-2.5-.06-.925.09-1.879.414-2.803.721-2.058 2.262-3.885 4.277-5.261 2.668-1.822 5.859-2.675 8.798-2.96l.3-.03c3.713-.382 7.15-1.174 9.57-2.596.94-.551 1.638-1.149 2.12-1.76.44-.555.703-1.126.812-1.697a3.426 3.426 0 0 0-.129-1.734c-.194-.586-.55-1.193-1.088-1.763-1.047-1.109-2.748-2.028-4.953-2.267-1.78-.213-3.208.125-4.276.738-1.126.647-1.857 1.603-2.185 2.576a3.689 3.689 0 0 0-.186 1.541c.053.535.233 1.028.523 1.451.33.481.79.857 1.337 1.123.676.328 1.443.467 2.198.48-.752-.013-1.524-.117-2.235-.395a3.98 3.98 0 0 1-1.527-1.027 3.679 3.679 0 0 1-.826-1.532 4.403 4.403 0 0 1-.08-1.831c.194-1.21.877-2.534 2.168-3.56 1.234-.983 2.985-1.652 5.21-1.632 2.647.046 4.987.927 6.673 2.342.867.728 1.564 1.6 2.031 2.574a6.562 6.562 0 0 1 .65 3.256c-.073 1.202-.478 2.36-1.163 3.417-.74 1.143-1.78 2.128-3.017 2.953-3.082 2.055-7.26 3.044-11.203 3.45a44.93 44.93 0 0 1-.33.033c-2.53.24-5.04.85-7.123 2.075-1.565.92-2.682 2.076-3.284 3.278a4.46 4.46 0 0 0-.47 1.535c-.045.457.005.87.138 1.221.13.34.351.656.705.909.354.252.862.454 1.559.51 1.44.112 2.871-.153 4.133-.615 1.32-.484 2.392-1.16 3.093-1.785.378-.337.645-.656.807-.934.085-.147.141-.281.171-.403a.751.751 0 0 0 .011-.349.626.626 0 0 0-.181-.313 1.158 1.158 0 0 0-.432-.248c-.434-.15-1.021-.157-1.643-.075z"/>
        <path d="M116.706 140.712l.919-1.146c-1.542-1.235-2.92-2.911-3.588-5.031-.5-1.587-.517-3.22-.04-4.481.21-.557.505-1 .853-1.305a1.976 1.976 0 0 1 1.223-.504c.493-.027 1.126.107 1.884.547.75.437 1.593 1.159 2.493 2.253l-.013-.018c.81.98 1.083 1.847 1.052 2.532-.031.724-.405 1.325-1.006 1.7-.684.427-1.586.516-2.482.26-1.202-.342-2.185-1.223-2.873-2.218.682.987 1.605 1.93 2.807 2.413.891.358 1.9.434 2.807.063a2.885 2.885 0 0 0 1.749-2.067c.227-1.003-.006-2.235-.868-3.548l.002.003-.016-.021c-.911-1.234-1.828-2.152-2.735-2.78-.92-.636-1.85-.987-2.764-1.042a4.023 4.023 0 0 0-2.54.707c-.75.511-1.324 1.245-1.727 2.067-.893 1.826-.972 4.097-.435 6.18.73 2.834 2.473 5.053 4.38 6.582l.918-1.146zM186.749 117.716l1.437-.298c-.4-1.934-.394-4.104.443-6.164.626-1.54 1.654-2.81 2.825-3.478.517-.295 1.026-.448 1.488-.462.435-.012.866.097 1.264.391.398.294.8.8 1.103 1.623.3.814.49 1.908.485 3.325l.001-.023c0 1.272-.343 2.114-.802 2.622-.486.538-1.157.763-1.86.669-.799-.107-1.55-.613-2.078-1.38-.708-1.03-.904-2.337-.8-3.542-.103 1.195.007 2.51.625 3.648.459.845 1.188 1.547 2.123 1.839.824.258 1.81.18 2.665-.479.814-.628 1.42-1.726 1.593-3.287v.004l.002-.027c.084-1.531-.037-2.823-.337-3.885-.303-1.076-.796-1.94-1.465-2.565a4.022 4.022 0 0 0-2.408-1.075c-.904-.083-1.814.116-2.648.493-1.853.838-3.36 2.538-4.274 4.486-1.243 2.648-1.315 5.469-.82 7.862l1.438-.298zM159.879 106.468l.631-1.325c-1.783-.85-3.508-2.166-4.644-4.077-.85-1.43-1.24-3.016-1.064-4.352.077-.59.263-1.09.531-1.466.253-.353.6-.63 1.075-.77.474-.14 1.121-.154 1.96.101.83.254 1.816.763 2.942 1.623l-.017-.015c1.013.77 1.477 1.55 1.604 2.224.135.712-.091 1.383-.59 1.885-.569.573-1.425.866-2.356.822-1.249-.058-2.408-.69-3.305-1.502.89.804 2.004 1.512 3.284 1.707.95.144 1.95-.013 2.748-.581a2.885 2.885 0 0 0 1.229-2.413c-.009-1.029-.517-2.175-1.657-3.256l.003.003-.02-.017c-1.17-.992-2.272-1.676-3.3-2.08-1.04-.409-2.027-.538-2.928-.382a4.023 4.023 0 0 0-2.312 1.27c-.613.67-1.003 1.514-1.207 2.407-.452 1.983-.008 4.21.991 6.116 1.36 2.59 3.564 4.353 5.77 5.404l.632-1.326zM189.141 93.458c.544-.544 1.105-1.035 1.642-1.35.226-.133.45-.236.67-.298.203-.058.41-.082.616-.055.195.025.386.096.564.221.168.12.318.282.442.485.236.38.384.896.43 1.514.084 1.145-.181 2.683-.923 4.356-.708 1.595-1.854 3.316-3.525 4.837-1.857 1.669-4.046 2.468-6.175 2.269-2.271-.213-4.207-1.544-5.29-3.584-1.225-2.303-1.188-5.092-.324-7.746 1.044-3.207 3.215-6.088 5.487-8.36.26-.259.537-.528.834-.805 3.648-3.406 6.349-6.645 7.5-9.353.438-1.029.571-1.803.562-2.356-.008-.478-.12-.868-.368-1.204-.253-.343-.703-.704-1.442-.97-.71-.257-1.627-.402-2.711-.37-2.116.062-4.682.8-7.11 2.367-1.99 1.252-3.085 2.556-3.596 3.698-.534 1.19-.475 2.29-.008 3.15.539.991 1.602 1.634 2.897 1.761 1.74.17 3.51-.59 4.921-1.683-1.39 1.077-3.093 1.996-4.93 2.079-1.362.061-2.79-.363-3.794-1.5-.891-1.013-1.378-2.555-.95-4.4.406-1.745 1.606-3.638 3.801-5.406 2.632-2.082 5.63-3.352 8.405-3.768 1.425-.214 2.826-.208 4.115.055 1.337.272 2.597.83 3.615 1.747 1.095.986 1.797 2.287 2.06 3.78.28 1.577.05 3.238-.499 4.864-1.357 4.017-4.76 8.129-8.534 11.696-.251.238-.485.466-.703.684-1.974 1.974-3.603 4.059-4.481 6.135-.71 1.678-.781 3.014-.508 3.954.229.788.753 1.47 1.667 1.77.879.29 2.222.227 3.748-.786a13.228 13.228 0 0 0 3.572-3.522c.887-1.3 1.367-2.527 1.535-3.434.09-.49.09-.877.029-1.16a1.103 1.103 0 0 0-.145-.373.688.688 0 0 0-.274-.247.946.946 0 0 0-.466-.086c-.2.01-.42.064-.654.16-.563.233-1.155.687-1.701 1.234zM206.683 56.1l.977-1.228c-1.876-1.492-4.469-2.46-7.558-2.096-2.26.267-4.575 1.25-6.327 2.824-.787.707-1.46 1.538-1.906 2.452-.43.882-.656 1.86-.532 2.85.123.977.578 1.885 1.367 2.661.77.757 1.848 1.38 3.236 1.857a13.59 13.59 0 0 1-1.238-.495c.402.216.827.385 1.268.505.74.202 1.44.24 2.083.15a4.412 4.412 0 0 0 1.714-.62 4.549 4.549 0 0 0 1.947-2.572c.323-1.098.183-2.153-.264-2.975-.597-1.096-1.663-1.693-2.754-2.015 1.109.327 2.113 1.007 2.555 2.109.327.813.3 1.773-.117 2.666-.37.791-1.026 1.476-1.874 1.83-.402.17-.843.26-1.311.257a3.982 3.982 0 0 1-1.487-.319l.029.01c-1.21-.497-1.995-1.07-2.47-1.632-.47-.558-.634-1.1-.637-1.59-.003-.511.168-1.052.503-1.594.349-.567.866-1.117 1.505-1.607 1.44-1.101 3.271-1.74 4.985-1.848 2.271-.145 4.036.616 5.33 1.646l.976-1.227z"/>
    </g>
    <g fill="#ff7f2a" fill-opacity=".502">
        <path d="M75.971 183.763l-.33.614c1.014.544 5.47 3.018 8.34 3.884 1.504.454 2.915.655 4.28.559 1.825-.128 3.217-.765 4.26-1.364a8.126 8.126 0 0 1-4.266 1.089c-1.322-.03-2.653-.366-4.041-.94-3.171-1.314-6.283-3.58-7.913-4.456l-.33.614z"/>
        <path d="M75.674 183.298l-.544.435c1.554 1.946 3.571 4.856 4.488 9.174.898 4.225.364 8.183-.256 10.608.62-2.427 1.503-6.29.944-10.724-.569-4.509-2.436-7.86-4.087-9.927l-.545.434zM140.25 110.12l-.504.48c1.465 1.541 4.373 4.858 6.172 9.63.739 1.96 1.17 3.885 1.264 5.696.127 2.434-.375 4.254-.945 5.48.57-1.225 1.18-3 1.22-5.485.03-1.849-.264-3.843-.879-5.913-1.484-4.997-4.272-8.738-5.822-10.368l-.505.48z"/>
    </g>
    <path fill="#ff7f2a" fill-opacity=".502" d="M169.976 81.785l-.324.617c2.13 1.118 4.991 1.763 8.904 1.33 3.532-.39 6.989-1.433 8.721-1.773-1.405.275-5.607 1.044-8.763 1.078-3.87.04-6.28-.854-8.214-1.87l-.324.618z"/>
    <g fill="#ff7f2a" fill-opacity=".502" fill-rule="evenodd" stroke="#000">
        <path stroke-width="1.39351" d="M46.308 217.866C114.027 171.07 166.674 108.959 211.33 43.289l3.668 2.732c-47.377 66.91-101.15 129.833-166.162 174.228zM162.193 215.08c11.486-20.679 27.355-38.632 50.613-51.99l2.788 5.026c-18.32 11.228-37.514 30.108-49.717 50.262z"/>
        <path stroke-width="1.39351" d="M229.33 253.172c1.394-.293 3.245-1.116 4.826-3.16 0 0-45.403-29.56-71.962-34.93-34.378-6.95-70.646-14.935-108.165-1.493-13.663 4.895-48.164 28.197-48.164 28.197-.545 1.003 1.023 6.134 3.186 5.77 3.97-2.04 33.875-23.445 50.118-29.291 32.684-11.766 69.551-3.575 104.328 2.83 24.007 4.42 65.833 32.077 65.833 32.077zM252.06 231.073c1.172-2.018 1.79-2.43 2.231-4.694 0 0-28.813-39.495-37.203-62.561-5.388-14.813-14.305-69.07-10.921-89.196 3.543-21.082 30.33-67.485 30.33-67.485-.004-1.431-4.216-4.787-5.38-3.062 0 0-28.225 49.094-30.859 68.822-2.467 18.488 3.917 70.55 11.64 91.16 9.088 24.257 40.163 67.015 40.163 67.015z"/>
    </g>
    <g fill="#ff7f2a" fill-opacity=".502">
        <path d="M103.634 151.04l-.464.52c.725.647 1.638 1.647 2.448 3.413.606 1.32 1.058 2.857 1.39 4.594.677 3.533.842 8.513.87 9.501-.045-1.611.243-5.52-.18-9.602-.186-1.79-.513-3.446-1.044-4.915-.718-1.985-1.677-3.246-2.556-4.031l-.464.52zM170.46 82.051l-.665.204c.667 2.183 1.39 5.338.9 9.648-.47 4.135-1.89 7.61-2.903 9.504 1.023-1.912 2.737-5.183 3.59-9.395.877-4.323.455-7.842-.255-10.165l-.666.204z"/>
        <path d="M103.956 151.229l-.455.528c2.003 1.724 5.516 3.71 10.25 3.98 4.722.27 8.32-1.267 10.505-2.438-2.193 1.175-5.936 2.37-10.437 1.745-4.532-.63-7.57-2.76-9.408-4.343l-.455.528zM140.445 110.304l-.301.628c1.811.87 5.17 2.156 8.794 2.362 3.855.218 6.665-.814 8.743-1.774-2.07.957-5.034 1.657-8.67 1.08-3.455-.547-6.497-2.076-8.264-2.924l-.302.628z"/>
    </g>
</svg>
