<svg xmlns="http://www.w3.org/2000/svg" viewBox="0 0 725.669 725.669"><g stroke="#000" stroke-width=".567"><path d="M677.37 240.399l-433.467 136.55 3.687 151.03 423.529-159.681z" fill="#f55" fill-rule="evenodd" stroke-linejoin="round"/><path d="M244.527 402.502L676.31 262.045" fill="#ff2a2a" fill-rule="evenodd" stroke-linejoin="round"/><path d="M307.295 356.99l-13.467 4.232.327 25.137 2.298 1.677 13.107-4.284-2.265-1.668z" fill="#ffb380" fill-rule="evenodd" stroke-linejoin="round"/><path d="M243.903 376.95l3.687 151.028-177.074-90.55-7.966-137.665z" fill="#f55" fill-rule="evenodd" stroke-linejoin="round"/><path d="M243.903 376.95L62.55 299.762 483.956 190.55l193.414 49.848z" fill="#ff8080" fill-rule="evenodd" stroke-linejoin="round"/><path d="M88.831 289.805l-2.782 3.868 180.342 76.192-.1-5.359z" fill="#f55" fill-rule="evenodd" stroke-linejoin="round"/><path d="M266.391 369.865l15.165-4.777 4.457 4.795-14.05 4.797z" fill="none" stroke-linejoin="round"/><path d="M271.964 374.68l-4.97-4.294 1.842 23.836 3.556-3.35z" fill="#ff2a2a" fill-rule="evenodd" stroke-linejoin="round"/><path d="M459.694 196.838l2.616-3.337 8.917-2.39 4.096 1.677z" fill="none" stroke-linejoin="round"/><path d="M462.31 193.5l-2.616 3.338 190.648 52.075-1.365-4.629z" fill="#f55" fill-rule="evenodd" stroke-linejoin="round"/><path d="M650.342 248.913l-1.365-4.629 10.45-3.236 1.453 4.546 3.104 4.526-8.735 2.757z" fill="none" stroke-linejoin="round"/><path d="M651.33 249.447l3.92 3.43v14.13l-4.089 3.219z" fill="#ff2a2a" fill-rule="evenodd" stroke-linejoin="round"/><path d="M285.796 389.078l-16.66 5.419 4.497 4.094 12.679-4.283z" fill="#ff8080" fill-rule="evenodd" stroke-linejoin="round"/><path d="M268.836 394.222l4.797 4.37v119.566l-4.5 1.698zM645.043 377.882l6.029-107.365 3.512 2.827-5.562 103.039z" fill="#ff2a2a" fill-rule="evenodd" stroke-linejoin="round"/><path d="M136.876 390.404c-1.538 5.572-2.826 8.004-.11 15.19 8.094 6.167 17.376 8.615 26.155 11.585 1.978-3.64 2.43-11.066.98-14.934zm30.227 7.169l-31.199-11.766c-5.048 6.718-5.158 14.617-2.895 21.565 8.524 8.43 18.075 12.142 30.84 14.22 5.49-2.37 6.215-11.826 3.254-24.02z" fill="#ffb380" fill-rule="evenodd" stroke-linejoin="round"/><path d="M135.99 386.836l2.501 10.084 24.33 10.794.685-8.224z" fill="#ffb380" fill-rule="evenodd" stroke-linejoin="round"/><path d="M133.78 382.443l-.086-7.796 35.123 14.906-.171 7.196-5.14 2.741-32.039-14.734z" fill="#ffb380" fill-rule="evenodd" stroke-linejoin="round"/><path d="M286.312 394.308v118.798M286.013 369.883v16.329l-13.62 4.66M663.984 250.12l.232 14.234-8.967 2.652" fill="none" stroke-linejoin="round"/><path d="M651.072 270.517l3.512 2.827 9.81-3.465-3.255-2.57z" fill="#ff8080" fill-rule="evenodd" stroke-linejoin="round"/><path d="M664.394 269.879l-5.881 103.172" fill="none" stroke-linejoin="round"/><path d="M266.291 364.506l12.869-4.389-177.382-73.782-12.947 3.47zM648.977 244.284l10.45-3.236-188.2-49.937-8.917 2.39z" fill="#ff8080" fill-rule="evenodd" stroke-linejoin="round"/><path d="M308.687 389.628l1 34.507-8.395 2.741-5.654-3.769v-29.983z" fill="#ffb380" fill-rule="evenodd" stroke-linejoin="round"/><path d="M301.12 396.722l-5.482-3.598v29.983l5.654 3.77z" fill="none" stroke-linejoin="round"/><path d="M488.4 300.052l-9.963 3.015v23.475l1.721 1.256 9.972-3.488-1.73-1.139zM478.191 333.498l.514 26.556 4.112 3.427 8.91-3.255-.172-27.585-3.444-1.965z" fill="#ffb380" fill-rule="evenodd" stroke-linejoin="round"/><path d="M491.56 333.583l-8.855 2.997-4.514-3.082" fill="none" stroke-linejoin="round"/><path d="M478.191 333.498l4.514 3.082.112 26.9-4.112-3.426z" fill="#f95" fill-rule="evenodd" stroke-linejoin="round"/><path d="M645.625 250.45l-8.693 2.688v21.672l2.085 1.347 8.703-2.876-2.095-1.254zM645.612 280.385l-8.788 2.863-1.095 24.381 3.598 1.2 6.511-1.543 1.239-24.155z" fill="#ffb380" fill-rule="evenodd" stroke-linejoin="round"/><path d="M640.527 285.527l6.55-2.396" fill="none" stroke-linejoin="round"/><path d="M636.787 284.058l3.74 1.469-1.2 23.301-3.598-1.199z" fill="#f95" fill-rule="evenodd" stroke-linejoin="round"/><path d="M301.12 396.722l7.711-2.142" fill="none" stroke-linejoin="round"/><path d="M266.291 364.506l.1 5.36 15.165-4.778-2.396-4.97zM660.88 245.594l-1.452-4.546-10.451 3.236 1.365 4.63z" fill="#f55" fill-rule="evenodd" stroke-linejoin="round"/><path d="M297.443 363.959c.757-.18 1.37.29 1.37 1.046 0 .757-.613 1.515-1.37 1.694-.757.179-1.37-.29-1.37-1.046 0-.757.613-1.516 1.37-1.694zM304.1 361.866c.757-.178 1.37.29 1.37 1.047 0 .756-.613 1.515-1.37 1.694-.757.178-1.37-.29-1.37-1.047 0-.757.613-1.515 1.37-1.694zM300.827 378.25c.757-.178 1.37.29 1.37 1.047 0 .757-.613 1.515-1.37 1.694-.757.179-1.37-.29-1.37-1.046 0-.757.613-1.516 1.37-1.694zM481.127 305.84c.526-.124.952.201.952.727 0 .525-.426 1.052-.952 1.176-.525.124-.95-.201-.95-.727 0-.525.425-1.052.95-1.176zM486.03 304.458c.526-.124.952.2.952.727 0 .525-.426 1.051-.951 1.176-.526.124-.952-.201-.952-.727 0-.525.426-1.052.952-1.176zM483.675 319.415c.525-.124.951.201.951.727 0 .525-.426 1.052-.951 1.176-.526.124-.952-.201-.952-.727 0-.525.426-1.052.952-1.176zM643.012 254.266c.4-.095.723.153.723.552 0 .4-.324.8-.723.895-.4.095-.724-.153-.724-.553s.324-.8.724-.894zM639.67 255.165c.4-.094.724.154.724.553 0 .4-.324.8-.724.895-.4.094-.724-.153-.724-.553s.324-.8.724-.895zM641.382 269.876c.4-.094.724.153.724.553s-.324.8-.724.895c-.4.094-.723-.153-.723-.553s.324-.8.723-.895zM136.408 378.301c.568.15 1.028.752 1.028 1.344 0 .592-.46.948-1.028.798-.568-.151-1.028-.753-1.028-1.344 0-.592.46-.949 1.028-.798zM165.877 390.664c.568.15 1.028.752 1.028 1.344 0 .592-.46.948-1.027.798-.568-.151-1.028-.753-1.028-1.344 0-.592.46-.949 1.027-.798zM140.736 394.177c.568.15 1.028.752 1.028 1.344 0 .591-.46.948-1.028.797-.568-.15-1.028-.752-1.028-1.344 0-.591.46-.948 1.028-.797zM160.546 403.087c.568.15 1.028.752 1.028 1.343 0 .592-.46.949-1.028.798-.567-.15-1.027-.752-1.027-1.344 0-.591.46-.949 1.027-.797zM163.3 401.975l-26.424-11.57M133.78 382.443l34.115 14.707" fill="none" stroke-linejoin="round"/><path d="M167.895 397.15l-34.115-14.707-2.313 2.313 4.523 2.08.886 3.568 26.423 11.571c.333-2.723 1.885-4.311 4.596-4.825z" fill="#ffb380" fill-rule="evenodd" stroke-linejoin="round"/><path d="M286.013 386.212l-.217 2.866M664.216 264.354l-3.077 2.955" fill="none" stroke-linejoin="round"/><path d="M268.836 394.594l3.556-3.722 13.621-4.66-.217 2.866zM664.216 264.354l-8.967 2.652-4.088 3.22 9.978-2.917z" fill="#ff2a2a" fill-rule="evenodd" stroke-linejoin="round"/><path d="M293.562 385.695l.168 14.67h4.125v-2.532l-2.347-.093v-10.394l13.975-4.084.34 11.382-.959 1.078.064 2.204 2.704-2.991-.437-14.914z" fill="#ffb380" fill-rule="evenodd"/><path d="M309.56 383.752l-13.107 4.284v-2.437l13.013-4.222z" fill="#ffb380" fill-rule="evenodd" stroke-linejoin="round"/><path d="M307.83 396.062l-5.614 1.593v2.672l5.614-1.504z" fill-rule="evenodd"/><path d="M477 325.61l.627 14.32 3.098-.17-.516-1.85-1.261-.05-.565-10.417 12.626-3.69.546 8.888.005.942.023 3.643 1.264-.563-.978-15.837z" fill="#ffb380" fill-rule="evenodd"/><path d="M490.13 324.31l-9.972 3.488v-1.89l9.924-3.267z" fill="#ffb380" fill-rule="evenodd" stroke-linejoin="round"/><path d="M635.305 274.42l.115 14.618 2.913-.255-.47-1.667-.668-.026.055-10.695 10.481-3.32.07 11.412-.811.326-.08 1.57 1.953-.93-.11-15.372z" fill="#ffb380" fill-rule="evenodd"/><path d="M639.018 276.157l8.702-2.876.104-1.97-8.806 2.87z" fill="#ffb380" fill-rule="evenodd" stroke-linejoin="round"/><path d="M484.077 341.222l-.057-3.724 6.303-2.136-.07 3.797zM641.827 286.68l3.875-1.321-.205 3.027-3.756 1.11z" fill-rule="evenodd"/><path d="M244.527 402.502l-180.704-80.75" fill="none"/></g><g transform="matrix(1.13443 0 0 1.13443 -1.83 -95.878)" stroke-width=".882"><circle r="89.267" cy="623.96" cx="102.879" fill="#aaa" stroke="#000" stroke-width="4.408"/><g stroke-width="4.141" fill-rule="evenodd"><path d="M472.427 690.86H236.46l-4.882-6.583V624.31l.136-.145 21.91-24 .204-.016c.437-.033 44.363-3.3 100.613-3.3 56.252 0 100.176 3.267 100.614 3.3l.208.017.134.152 21.907 23.992v59.968zm-235.446-1.034h234.925l4.365-5.89v-59.218l-21.498-23.547c-3.324-.246-46.09-3.288-100.331-3.288-54.243 0-97.008 3.043-100.332 3.288l-21.492 23.547v59.219z" stroke="#000" stroke-width="1.553" transform="matrix(.2124 0 0 .21335 26.52 546.593)"/><path d="M354.443 690.86c-37.208 0-53.94-6.347-54.106-6.409l-.325-.126v-60.717l.296-.134c.248-.12 25.122-11.566 54.135-11.566 29.012 0 53.89 11.445 54.134 11.565l.3.135v60.718l-.33.126c-.166.06-16.897 6.408-54.104 6.408zm-53.397-7.256c2.504.87 19.262 6.22 53.397 6.22 34.137 0 50.894-5.35 53.395-6.22v-59.328c-2.897-1.291-26.33-11.332-53.395-11.332-27.062 0-50.497 10.042-53.397 11.332z" stroke="#000" stroke-width="1.553" transform="matrix(.2124 0 0 .21335 26.52 546.593)"/><path d="M443.031 690.86c-28.53 0-34.795-6.27-35.05-6.534l-.143-.152v-60.493l.209-.156c.16-.116 15.804-11.615 35.2-11.615 17.8 0 33.697 12.067 33.858 12.194l.202.153v59.934l-.16.152c-.276.264-7.096 6.517-34.116 6.517zm-34.154-7.123c1.064.879 8.464 6.089 34.154 6.089 24.302 0 32.076-5.2 33.24-6.101v-58.952c-1.888-1.386-16.658-11.828-33.023-11.828-17.843 0-32.466 9.917-34.37 11.264zM265.856 690.86c-27.023 0-33.84-6.253-34.119-6.517l-.16-.152v-59.934l.202-.153c.16-.124 16.061-12.195 33.858-12.195 19.397 0 35.045 11.501 35.2 11.616l.21.156v60.493l-.143.152c-.253.265-6.522 6.534-35.048 6.534zm-33.239-7.136c1.165.902 8.937 6.101 33.24 6.101 25.815 0 33.1-5.199 34.154-6.084v-59.53c-1.905-1.35-16.53-11.267-34.373-11.267-16.365 0-31.133 10.443-33.02 11.828zM265.637 201.108c-17.797 0-33.697-12.072-33.858-12.195l-.201-.155v-59.93l.16-.155c.277-.265 7.096-6.52 34.119-6.52 28.525 0 34.795 6.272 35.047 6.539l.143.15v60.493l-.21.155c-.155.117-15.802 11.618-35.2 11.618zm-33.02-12.868c1.888 1.39 16.655 11.83 33.02 11.83 17.854 0 32.468-9.915 34.373-11.26v-59.532c-1.064-.879-8.468-6.088-34.154-6.088-24.302 0-32.075 5.2-33.24 6.101zM311.16 325.665c-15.147 0-27.474-12.327-27.474-27.475 0-15.15 12.327-27.476 27.475-27.476 15.152 0 27.474 12.327 27.474 27.476 0 15.15-12.322 27.475-27.474 27.475zm0-53.915c-14.58 0-26.437 11.86-26.437 26.44 0 14.578 11.858 26.438 26.438 26.438 14.58 0 26.44-11.86 26.44-26.437 0-14.58-11.86-26.44-26.44-26.44z" stroke="#000" stroke-width="1.553" transform="matrix(.2124 0 0 .21335 26.52 546.593)"/><path d="M312.805 325.668c-14.246 0-25.835-11.59-25.835-25.837 0-14.246 11.589-25.835 25.835-25.835s25.832 11.589 25.832 25.835c0 14.248-11.586 25.836-25.832 25.836zm0-50.635c-13.675 0-24.8 11.126-24.8 24.798 0 13.675 11.126 24.8 24.8 24.8 13.674 0 24.796-11.126 24.796-24.8 0-13.673-11.122-24.798-24.796-24.798zM311.16 529.218c-15.147 0-27.474-12.329-27.474-27.476 0-15.15 12.327-27.475 27.475-27.475 15.152 0 27.474 12.325 27.474 27.475 0 15.147-12.322 27.476-27.474 27.476zm0-53.917c-14.58 0-26.437 11.862-26.437 26.44 0 14.576 11.858 26.437 26.438 26.437 14.58 0 26.44-11.862 26.44-26.437 0-14.578-11.86-26.44-26.44-26.44z" stroke="#000" stroke-width="1.553" transform="matrix(.2124 0 0 .21335 26.52 546.593)"/><path d="M312.805 525.935c-14.246 0-25.835-11.588-25.835-25.834 0-14.249 11.589-25.835 25.835-25.835s25.832 11.586 25.832 25.835c0 14.246-11.586 25.834-25.832 25.834zm0-50.634c-13.675 0-24.8 11.126-24.8 24.8 0 13.673 11.126 24.796 24.8 24.796 13.674 0 24.796-11.122 24.796-24.796 0-13.675-11.122-24.8-24.796-24.8zM308.054 427.847c-15.153 0-27.479-12.327-27.479-27.474 0-15.15 12.327-27.475 27.479-27.475 15.148 0 27.474 12.324 27.474 27.474s-12.326 27.475-27.474 27.475zm0-53.914c-14.58 0-26.44 11.862-26.44 26.44 0 14.58 11.86 26.44 26.44 26.44 14.576 0 26.437-11.86 26.437-26.44 0-14.578-11.863-26.44-26.437-26.44z" stroke="#000" stroke-width="1.553" transform="matrix(.2124 0 0 .21335 26.52 546.593)"/><path d="M309.694 427.85c-14.246 0-25.835-11.59-25.835-25.833 0-14.248 11.589-25.838 25.835-25.838s25.834 11.59 25.834 25.838c0 14.241-11.588 25.832-25.834 25.832zm0-50.633c-13.672 0-24.796 11.126-24.796 24.8 0 13.674 11.124 24.795 24.796 24.795 13.674 0 24.796-11.12 24.796-24.795-.001-13.674-11.122-24.8-24.796-24.8zM397.47 326.075c-15.153 0-27.48-12.327-27.48-27.476 0-15.148 12.328-27.475 27.48-27.475 15.147 0 27.474 12.327 27.474 27.475 0 15.15-12.327 27.476-27.474 27.476zm0-53.914c-14.579 0-26.44 11.86-26.44 26.437 0 14.58 11.862 26.44 26.44 26.44 14.576 0 26.437-11.86 26.437-26.44 0-14.577-11.861-26.438-26.437-26.438z" stroke="#000" stroke-width="1.553" transform="matrix(.2124 0 0 .21335 26.52 546.593)"/><path d="M395.825 326.077c-14.245 0-25.834-11.59-25.834-25.836 0-14.247 11.589-25.835 25.834-25.835 14.246 0 25.835 11.589 25.835 25.835 0 14.245-11.589 25.836-25.835 25.836zm0-50.634c-13.674 0-24.796 11.126-24.796 24.798 0 13.675 11.122 24.8 24.796 24.8 13.675 0 24.796-11.126 24.796-24.8 0-13.673-11.121-24.798-24.796-24.798zM397.638 529.627c-15.148 0-27.475-12.328-27.475-27.478 0-15.148 12.327-27.477 27.475-27.477 15.148 0 27.475 12.329 27.475 27.477-.001 15.15-12.327 27.478-27.475 27.478zm0-53.916c-14.578 0-26.44 11.862-26.44 26.438 0 14.578 11.862 26.44 26.44 26.44 14.58 0 26.44-11.862 26.44-26.44 0-14.576-11.86-26.438-26.44-26.438z" stroke="#000" stroke-width="1.553" transform="matrix(.2124 0 0 .21335 26.52 546.593)"/><path d="M395.998 526.345c-14.246 0-25.835-11.588-25.835-25.838 0-14.245 11.589-25.835 25.835-25.835s25.834 11.59 25.834 25.835c0 14.25-11.588 25.838-25.834 25.838zm0-50.634c-13.675 0-24.8 11.124-24.8 24.796 0 13.674 11.126 24.8 24.8 24.8 13.674 0 24.8-11.127 24.8-24.8 0-13.672-11.126-24.796-24.8-24.796zM400.75 428.26c-15.153 0-27.479-12.329-27.479-27.477 0-15.15 12.327-27.478 27.479-27.478 15.147 0 27.474 12.328 27.474 27.478 0 15.147-12.327 27.477-27.474 27.477zm0-53.917c-14.58 0-26.44 11.861-26.44 26.44 0 14.576 11.86 26.437 26.44 26.437 14.576 0 26.437-11.862 26.437-26.438 0-14.578-11.862-26.44-26.437-26.44z" stroke="#000" stroke-width="1.553" transform="matrix(.2124 0 0 .21335 26.52 546.593)"/><path d="M399.11 428.26c-14.249 0-25.839-11.59-25.839-25.837 0-14.245 11.59-25.835 25.839-25.835 14.245 0 25.834 11.59 25.834 25.835 0 14.245-11.589 25.836-25.834 25.836zm0-50.633c-13.675 0-24.8 11.123-24.8 24.796 0 13.674 11.126 24.798 24.8 24.798 13.672 0 24.795-11.124 24.795-24.798 0-13.673-11.123-24.796-24.795-24.796zM455.534 428.4h-.52c-4.377 0-6.738-13.594-6.738-26.383 0-12.794 2.361-26.388 6.739-26.388h.52zm-1.038-51.61c-2.55 1.22-5.183 11.24-5.183 25.227 0 13.982 2.633 24.002 5.183 25.222zM455.534 528.124h-.52c-4.377 0-6.738-13.594-6.738-26.385 0-12.793 2.361-26.387 6.739-26.387h.52zm-1.038-51.608c-2.55 1.217-5.183 11.235-5.183 25.222 0 13.988 2.633 24.003 5.183 25.226zM253.868 326.769h-.52v-52.77h.52c4.378 0 6.739 13.594 6.739 26.387 0 12.789-2.36 26.383-6.739 26.383zm.519-51.608v50.445c2.55-1.22 5.183-11.237 5.183-25.22.002-13.988-2.63-24.005-5.183-25.225zM253.868 427.843h-.52V375.07h.52c4.378 0 6.739 13.599 6.739 26.388 0 12.79-2.36 26.385-6.739 26.385zm.519-51.608v50.447c2.55-1.221 5.183-11.24 5.183-25.225.002-13.987-2.63-24.003-5.183-25.222zM253.868 527.567h-.52v-52.77h.52c4.378 0 6.739 13.593 6.739 26.383 0 12.795-2.36 26.387-6.739 26.387zm.519-51.61v50.45c2.55-1.22 5.183-11.24 5.183-25.227.002-13.988-2.63-24.004-5.183-25.223zM291.437 313.647h1.038v-28.174h-1.038zM291.437 420.068h1.038v-36.109h-1.038zM291.437 514.445h1.038v-28.708h-1.038zM416.126 314.325h1.035v-28.172h-1.035z" stroke="#000" stroke-width="1.553" transform="matrix(.2124 0 0 .21335 26.52 546.593)"/><path d="M416.126 420.478h1.035v-36.11h-1.035zM416.126 514.445h1.035v-28.708h-1.035zM273.19 74.376c-5.629 0-10.206-4.58-10.206-10.208 0-5.626 4.577-10.205 10.205-10.205 5.629 0 10.206 4.58 10.206 10.205 0 5.629-4.577 10.208-10.206 10.208zm0-19.376c-5.057 0-9.169 4.112-9.169 9.168 0 5.059 4.112 9.17 9.168 9.17 5.056 0 9.169-4.111 9.169-9.17.002-5.056-4.11-9.168-9.169-9.168z" stroke="#000" stroke-width="1.553" transform="matrix(.2124 0 0 .21335 26.52 546.593)"/><path d="M273.19 76.936c-7.042 0-12.769-5.727-12.769-12.766s5.727-12.766 12.768-12.766 12.764 5.726 12.764 12.766c.002 7.04-5.723 12.766-12.764 12.766zm0-24.495c-6.468 0-11.73 5.26-11.73 11.73 0 6.467 5.263 11.729 11.73 11.729 6.467 0 11.729-5.263 11.729-11.73.002-6.468-5.26-11.729-11.73-11.729zM309.175 113.334h1.038v-51.56h-1.038z" stroke="#000" stroke-width="1.553" transform="matrix(.2124 0 0 .21335 26.52 546.593)"/><path d="M309.19 61.599l.98.337 8.834-25.725-.98-.337zM380.337 197.06v0l-.473-.001c-2.386-.021-13.855-.221-20.257-2.275-6.83-2.191-19.784-11.232-22.82-16.763-2.91-5.298-4.91-14.691-1.796-25.174 3.043-10.243 40.947-110.638 43.144-114.277 2.07-3.427 4.232-6.705 7.871-9.137 4.064-2.723 9.793-5.845 18.056-5.845 8.918 0 13.9 1.025 19.76 4.064 5.437 2.817 14.067 9.276 15.787 10.58 1.99-1.4 6-4.132 7-4.132.813 0 11.382 10.75 31.41 31.945.004.004 60.635 65.366 65.804 70.94 5.22 5.628 8.565 15.942 7.776 23.988-.774 7.914-3.776 13.975-10.362 20.928-6.65 7.02-11.484 9.106-19.178 10.89-7.514 2.197-140.436 4.27-141.722 4.27zm23.725-172.436c-7.985 0-13.533 3.03-17.479 5.67-3.469 2.32-5.475 5.362-7.558 8.81-2.188 3.626-39.999 103.81-43.041 114.039-3.021 10.173-1.098 19.265 1.713 24.38 2.675 4.873 15.137 13.998 22.225 16.273 6.864 2.2 20.229 2.226 20.366 2.226h.31c8.519-.05 134.079-2.153 141.196-4.234 7.519-1.746 12.221-3.774 18.689-10.6 6.416-6.77 9.339-12.655 10.085-20.317.753-7.654-2.546-17.839-7.506-23.183-5.167-5.574-65.8-70.936-65.8-70.936-11.452-12.116-28.87-30.301-30.74-31.597-.78.212-3.973 2.265-6.622 4.14l-.311.221-.305-.231c-.099-.076-9.989-7.63-15.936-10.714-5.764-2.986-10.447-3.947-19.286-3.947z" stroke="#000" stroke-width="1.553" transform="matrix(.2124 0 0 .21335 26.52 546.593)"/><path d="M382.727 174.142c-3.3 0-11.217-2.856-18.484-9.2-7.153-6.24-8.624-10.443-8.683-10.617-.063-.127-2.07-4.472-.385-9.756l9.304-29.165 17.37-50.556c.03-.101 3.679-12.585 7.422-19.393 3.86-7.018 12.526-7.167 12.894-7.169.202-.027 6.259-.68 12.101 2.93 5.37 3.322 6.299 4.258 8.336 6.306l.54.538a978.3 978.3 0 004.92 4.808c51.299 50.027 79.053 77.777 82.484 82.476a726.761 726.761 0 002.337 3.179c4.307 5.836 6.271 8.5 8.74 14.557 2.442 5.994 2.842 12.232 2.905 14.11.688-.063 1.178-.117 1.45-.167 6.117-1.125 11.22-5.91 11.268-5.958.01-.01 3.129-3.418 3.867-7.24.82-4.23.235-6.657-.517-7.449A2730771.27 2730771.27 0 00439.223 39.23l.755-.713S540.34 144.595 541.351 145.661c1.246 1.32 1.536 4.446.78 8.363-.797 4.115-4.011 7.621-4.146 7.768-.238.23-5.393 5.07-11.823 6.25-6.64 1.22-142.333 6.1-143.435 6.1zM403.47 39.267c-.77 0-1.227.049-1.243.051-.14.004-8.486.158-12.051 6.635-3.686 6.71-7.304 19.084-7.34 19.21l-17.377 50.568-9.294 29.156c-1.558 4.88.337 9.01.356 9.05.038.095 1.494 4.197 8.399 10.223 7.07 6.17 14.668 8.945 17.807 8.945 1.035 0 121.03-4.307 140.765-5.83-.067-1.745-.456-7.98-2.83-13.802-2.421-5.94-4.358-8.572-8.615-14.334a608.254 608.254 0 01-2.34-3.184c-3.396-4.652-31.11-32.358-82.371-82.347-2.82-2.75-4.592-4.476-4.93-4.815l-.54-.54c-2.038-2.048-2.88-2.897-8.145-6.154-4.018-2.485-8.22-2.832-10.251-2.832zM492.86 303.854v203.451c-.012.192-.468 4.712-5.703 4.712h-32.142v1.035h32.142c6.17 0 6.736-5.601 6.738-5.7v-203.74c-.343.085-.688.163-1.034.242zM455.534 279.145v-4.592h-.52c-1.242 0-2.316 1.127-3.231 2.992.322.15.645.275.967.419.566-1.165 1.156-1.966 1.745-2.248v3.007c.347.142.692.285 1.04.422zM454.496 300.508v25.658c-2.55-1.22-5.183-11.238-5.183-25.225 0-.866.039-1.667.057-2.503-.351-.153-.698-.302-1.048-.462-.027.99-.046 1.979-.046 2.965 0 12.793 2.361 26.387 6.739 26.387h.52v-26.446a58.44 58.44 0 01-1.04-.374z" stroke="#000" stroke-width="1.553" transform="matrix(.2124 0 0 .21335 26.52 546.593)"/><path d="M455.534 279.145V211.06h-61.996c.14.347.277.69.423 1.036h60.535v66.627c.346.144.691.287 1.038.423zM454.496 300.508V600.11c-5.57-.361-52.041-3.265-100.054-3.265-37.148 0-93.88 2.943-100.054 3.271l-.001-388.02h120.374c-.128-.347-.271-.691-.4-1.039h-121.01v390.155l.544-.032c.612-.029 61.445-3.298 100.546-3.298 50.891 0 100.048 3.269 100.54 3.298l.553.038V300.882a58.44 58.44 0 01-1.038-.374zM477.147 128.675c-.277-.264-7.096-6.52-34.116-6.52-28.53 0-34.795 6.272-35.05 6.54l-.143.149v44.13l1.039-.051V129.28c1.072-.885 8.48-6.089 34.154-6.089 24.302 0 32.076 5.198 33.24 6.101v40.291l1.036-.052v-40.703zM463.603 195.38c-5.737 2.505-12.873 4.691-20.356 4.691-7.434 0-14.288-1.726-19.916-3.83l-2.691.056c6.11 2.538 13.983 4.812 22.607 4.812 8.633 0 16.805-2.845 22.97-5.785z" stroke="#000" stroke-width="1.553" transform="matrix(.2124 0 0 .21335 26.52 546.593)"/><path d="M472.45 122.189l-64.06-9.375-12.84.002c-.248.347-.52.675-.763 1.03l13.527-.002 63.56 9.307 4.396 5.929v40.5l1.034-.052v-40.792zM470.047 195.115l-15.274 16.733c-2.432.177-26.055 1.85-59.797 2.738.078.179.139.357.217.536.074.166.156.326.229.492 35.232-.934 59.31-2.722 59.633-2.748l.204-.012 16.266-17.818z" stroke="#000" stroke-width="1.553" transform="matrix(.2124 0 0 .21335 26.52 546.593)"/><path d="M493.895 147.66l-16.864-8.84-.483.918 16.313 8.55v20.472l1.034-.05zM492.86 193.875v86.784c.348-.13.692-.276 1.035-.416v-86.424zM380.095 35.514h-61.614v1.037H379.6z" stroke="#000" stroke-width="1.553" transform="matrix(.2124 0 0 .21335 26.52 546.593)"/><path d="M384.552 30.93h-65.364c-5.18 0-10.386 5.618-11.374 6.74h-23.61c-9.81 0-25.854 17.378-27.675 20.47-2.252 3.844-1.103 8.448-.042 11.576 1.234 3.637 9.798 10.617 13.884 11.318 3.598.616 7.771.172 8.86.04l7.738 8.012v26.154h1.033V88.67l-8.39-8.695-.264.038c-.052.004-4.867.673-8.8.002-3.763-.645-11.95-7.301-13.08-10.63-.994-2.936-2.083-7.24-.042-10.716 2.016-3.437 17.772-19.962 26.777-19.962l24.088-.001.158-.186c.052-.065 5.584-6.555 10.739-6.555h64.355zM526.09 122.59v-.172l-.562-.438zM370.487 113.848c.132-.348.277-.685.416-1.03h-5.189l-.347 1.03z" stroke="#000" stroke-width="1.553" transform="matrix(.2124 0 0 .21335 26.52 546.593)"/><path d="M354.441 215.13c-54.243 0-97.007-3.04-100.331-3.28l-21.493-23.548V129.08l4.392-5.928 63.486-9.3 48.785-.004.389-1.03-49.25.003-63.775 9.339-.212.03-4.854 6.546v59.965l21.908 23.999.139.153.204.013c.437.036 44.361 3.3 100.614 3.3 7.529 0 14.824-.058 21.833-.159-.139-.345-.26-.69-.4-1.035-6.892.097-14.044.158-21.435.158z" stroke="#716e75" stroke-width="1.553" transform="matrix(.2124 0 0 .21335 26.52 546.593)"/><path d="M367.367 123.467c.092-.349.202-.683.299-1.03-1.642-.071-3.37-.121-5.118-.168l-.342 1.028c1.762.046 3.5.099 5.161.17zM354.441 200.07c-27.062 0-50.496-10.041-53.397-11.329v-59.328c2.28-.795 16.41-5.284 44.645-6.087l.397-1.05c-31.334.848-45.597 6.23-45.748 6.287l-.328.13v60.712l.299.14c.248.115 25.119 11.563 54.133 11.563 5.605 0 11.048-.433 16.197-1.126-.103-.336-.217-.673-.315-1.009-5.057.67-10.387 1.098-15.883 1.098zM514.245 161.691c-18.006-40.261-51.84-68.376-82.28-68.376-6.598 0-12.873 1.31-18.66 3.897-23.852 10.666-34.919 41.164-30.89 76.19l1.051.157c-4.081-34.694 6.759-64.89 30.262-75.401 5.651-2.53 11.788-3.808 18.236-3.808 30.046 0 63.49 27.863 81.333 67.766.822 1.835 1.513 3.679 2.252 5.52l1.097-.054c-.78-1.965-1.525-3.931-2.401-5.89zM523.047 192.32c8.1 39.28-2.442 75.012-28.46 86.646-5.652 2.53-11.789 3.81-18.237 3.81-30.041 0-63.489-27.866-81.332-67.767a150.122 150.122 0 01-6.946-18.781l-1.081-.045a150.682 150.682 0 007.08 19.25c18.003 40.262 51.84 68.379 82.28 68.379 6.597 0 12.874-1.31 18.658-3.898 26.421-11.817 37.199-47.95 29.08-87.641z" stroke="#000" stroke-width="1.553" transform="matrix(.2124 0 0 .21335 26.52 546.593)"/><path d="M537.77 184.998c12.856 51.217-.294 99.218-34.503 114.517-7.188 3.214-14.982 4.844-23.166 4.844-37.295 0-78.56-34.028-100.347-82.751-3.85-8.605-6.891-17.351-9.288-26.098l-1.085-.044c2.425 8.903 5.509 17.807 9.428 26.566 10.976 24.548 26.608 45.516 45.206 60.638 18.02 14.654 37.94 22.725 56.087 22.725 8.334 0 16.27-1.659 23.59-4.932 34.788-15.558 48.148-64.346 34.956-116.249zM366.339 133.376c4.602-27.153 17.988-46.958 37.69-55.767 7.184-3.212 14.98-4.841 23.162-4.841 8.244 0 16.679 1.749 25.06 4.864l-1.886-1.79c-7.853-2.656-15.665-4.114-23.173-4.114-8.331 0-16.268 1.661-23.589 4.935-20.026 8.956-33.622 29.034-38.29 56.538-1.64 9.686-2.043 19.902-1.368 30.36l1.068.781c-.751-10.675-.35-21.095 1.326-30.966zM384.567 184.044c-.721-.017-17.132-.43-24.604-4.772-7.506-4.363-11.004-12.52-11.152-12.865l.957-.402c.033.08 3.515 8.187 10.716 12.371 7.245 4.207 23.915 4.627 24.083 4.632 1.34-.036 136.677-3.396 146.14-4.699 9.15-1.26 12.41-12.137 12.442-12.246l.996.286c-.033.12-3.476 11.637-13.295 12.989-9.523 1.31-140.703 4.568-146.283 4.706zM512.667 131.317c-3.95-3.948-85.633-87.597-86.456-88.442l.74-.726c.824.846 82.505 84.49 86.447 88.435z" stroke="#000" stroke-width="1.553" transform="matrix(.2124 0 0 .21335 26.52 546.593)"/><path d="M408.745 129.78l-11.408-2.97-9.238-2.096.232-1.013 9.25 2.1 11.429 2.975z" stroke="#000" stroke-width="1.553" transform="matrix(.2124 0 0 .21335 26.52 546.593)"/><path d="M374.39 149.501c-.011-.204-.734-20.553 9.731-36.454 4.723-7.37 14.55-22.722 32.952-26.004 17.574-3.13 37.89 2.933 38.091 2.992l-.296.992c-.202-.061-20.287-6.059-37.615-2.965-17.953 3.204-27.618 18.298-32.264 25.551-10.278 15.622-9.572 35.643-9.566 35.845zM502.34 520.367h-47.325v-1.035h47.326c3.492 0 6.383-1.198 8.59-3.56 5.986-6.392 5.206-19.297 5.2-19.426l-.005-205.055h1.039v205.02c.033.513.814 13.45-5.477 20.17-2.414 2.58-5.559 3.886-9.347 3.886zM516.126 259.836h1.039v-66.418h-1.039z" stroke="#000" stroke-width="1.553" transform="matrix(.2124 0 0 .21335 26.52 546.593)"/><path d="M504.996 505.37h1.039V300.46h-1.039zM504.996 271.93h1.039v-78.11h-1.039z" stroke="#000" stroke-width="1.553" transform="matrix(.2124 0 0 .21335 26.52 546.593)"/><path d="M337.588 500.908c-.433-13.917-11.673-25.16-25.592-25.594-8.07.26-15.177 4.393-19.52 10.598v28.376c4.487 6.41 11.927 10.609 20.329 10.609 13.404 0 24.356-10.687 24.783-23.99zM308.887 426.8c13.907-.433 25.144-11.66 25.59-25.568-.416-13.312-11.372-24.015-24.783-24.015-6.682 0-12.755 2.657-17.219 6.97v35.657c4.284 4.138 10.049 6.751 16.412 6.956zM311.948 324.617c13.94-.41 25.206-11.66 25.64-25.593-.428-13.3-11.379-23.991-24.783-23.991-8.402 0-15.842 4.2-20.33 10.61v28.004h-.256c4.309 6.4 11.52 10.69 19.73 10.97zM371.043 299.433c.434 13.936 11.704 25.186 25.644 25.594 8.093-.278 15.213-4.453 19.539-10.702h-.1v-28.172h.095c-4.48-6.467-11.95-10.71-20.396-10.71-13.404 0-24.354 10.69-24.782 23.99zM416.126 384.403c-4.444-4.199-10.435-6.776-17.017-6.776-13.404 0-24.359 10.688-24.786 23.989.433 13.919 11.679 25.164 25.603 25.592 6.26-.204 11.94-2.739 16.2-6.764zM416.126 486.037c-4.36-6.046-11.375-10.058-19.321-10.313-13.917.433-25.16 11.676-25.594 25.59.428 13.303 11.384 23.993 24.787 23.993 8.51 0 16.034-4.31 20.502-10.862h-.374z" fill="#494a40" stroke="#000" stroke-width="2.347" transform="matrix(.2124 0 0 .21335 26.52 546.593)"/><path d="M265.637 200.07c17.853 0 32.468-9.914 34.373-11.26v-59.532c-1.064-.879-8.468-6.088-34.154-6.088-24.302 0-32.075 5.2-33.24 6.101v58.95c1.889 1.39 16.656 11.83 33.021 11.83z" fill="#696a5c" stroke="#1b1918" stroke-width="2.347" transform="matrix(.2124 0 0 .21335 26.52 546.593)"/><path d="M301.047 129.412l-.003 59.329c2.901 1.288 26.335 11.33 53.398 11.33 5.496 0 10.825-.427 15.882-1.098.099.336.213.673.316 1.01-5.15.692-10.592 1.124-16.198 1.124-27.363 0-51.041-10.181-53.855-11.437-2.084 1.471-16.892 11.437-34.95 11.437-12.744 0-24.515-6.19-30.231-9.75l17.982 19.701h120.959a188.282 188.282 0 01-4.667-14.508c-3.54-.33-7.287-.873-10.073-1.767-6.829-2.19-19.784-11.231-22.82-16.762-2.91-5.299-4.909-14.692-1.796-25.175.934-3.144 5.155-14.787 10.619-29.518-28.183.81-42.289 5.29-44.563 6.084zM408.877 129.28v42.89c18.788-.693 44.698-1.677 67.393-2.616v-40.26c-1.162-.904-8.937-6.102-33.239-6.102-25.675 0-33.082 5.204-34.154 6.089zM407.838 172.208v-42.663l-10.501-2.735-8.325-1.889c-5.677 13.405-7.65 30.169-5.6 48.164 2.524-.082 11.766-.41 24.426-.877zM420.764 196.349c-13.51.266-25.195.47-32.48.589a150.228 150.228 0 006.734 18.07c13.092 29.277 34.584 52.074 56.968 62.14.737-1.378 1.572-2.283 2.51-2.528v-61.713c-3.816.274-26.75 1.85-59.074 2.707-.074-.166-.155-.326-.229-.492-.078-.179-.14-.357-.217-.536 27.343-.72 48.041-1.955 56.203-2.491H393.96c-.145-.345-.282-.69-.422-1.036h61.956l14.453-15.834c-1.236.033-2.48.067-3.73.099-6.165 2.94-14.337 5.785-22.97 5.785-8.566 0-16.39-2.243-22.483-4.76zM376.251 216.008c-7.001.1-14.288.16-21.808.16-52.823 0-94.776-2.88-100.056-3.26v61.156c4.045 1.028 6.22 14.044 6.22 26.322 0 12.274-2.174 25.29-6.22 26.318v48.432c4.045 1.029 6.22 14.048 6.22 26.322 0 12.276-2.173 25.291-6.22 26.32v47.084c4.045 1.029 6.22 14.044 6.22 26.318 0 12.28-2.173 25.293-6.22 26.322v72.606c5.203-.373 45.838-3.163 97.395-3.257a1225.956 1225.956 0 018.576.01c50.01.2 89.053 2.882 94.138 3.25v-72.052c-4.045-1.028-6.22-14.044-6.22-26.32 0-12.278 2.175-25.294 6.22-26.323v-47.081c-4.045-1.028-6.22-14.044-6.22-26.319 0-12.278 2.175-25.294 6.22-26.322v-48.431c-4.045-1.028-6.22-14.044-6.22-26.322 0-.986.02-1.975.047-2.965.349.16.696.309 1.047.462l5.126 2.07c.346.128.691.252 1.039.374v211.135-211.135c-10.385-5.251-13.5-3.559-31.52-18.212-18.598-15.122-34.23-36.09-45.206-60.638a170.895 170.895 0 01-2.558-6.025zm-65.09 54.706c15.152 0 27.474 12.327 27.474 27.477 0 .27-.004.539-.011.807.009.277.013.554.013.833 0 14.248-11.585 25.837-25.832 25.837-.284 0-.567-.005-.849-.014-.264.007-.53.011-.795.011-15.148 0-27.475-12.327-27.475-27.474 0-15.15 12.327-27.477 27.475-27.477zm84.664 55.364c-14.245 0-25.834-11.59-25.834-25.837 0-.27.004-.54.012-.808a28.868 28.868 0 01-.012-.834c0-15.148 12.327-27.475 27.478-27.475 15.148 0 27.475 12.327 27.475 27.475 0 15.15-12.327 27.476-27.475 27.476a28.4 28.4 0 01-.795-.011c-.282.009-.565.013-.849.013zm1.813 148.594c15.148 0 27.475 12.329 27.475 27.476-.001 15.15-12.327 27.479-27.475 27.479-15.148 0-27.475-12.328-27.475-27.478 0-.28.004-.557.012-.834a27.154 27.154 0 01-.012-.808c0-14.244 11.589-25.835 25.835-25.835.27 0 .54.004.807.013.277-.008.554-.013.833-.013zm3.112-101.367c15.147 0 27.474 12.328 27.474 27.478 0 15.147-12.327 27.477-27.474 27.477-.279 0-.557-.004-.833-.013-.268.008-.538.013-.808.013-14.248 0-25.838-11.59-25.838-25.837 0-.27.004-.54.012-.807a28.778 28.778 0 01-.012-.833c0-15.15 12.327-27.478 27.479-27.478zm-92.696-.407c15.147 0 27.474 12.324 27.474 27.474 0 .28-.004.558-.012.835.008.27.012.54.012.81 0 14.241-11.588 25.832-25.834 25.832-.284 0-.566-.005-.847-.013a29.85 29.85 0 01-.793.011c-15.153 0-27.479-12.327-27.479-27.475 0-15.15 12.327-27.474 27.479-27.474zm4.75 101.368c14.247 0 25.833 11.586 25.833 25.835 0 .279-.005.557-.013.833.008.268.011.537.011.808 0 15.146-12.322 27.476-27.474 27.476-15.148 0-27.475-12.329-27.475-27.476 0-15.15 12.327-27.475 27.475-27.475.274 0 .547.004.82.012.273-.009.548-.013.824-.013zM300.01 624.21c-1.904-1.349-16.529-11.266-34.372-11.266-16.365 0-31.133 10.443-33.02 11.828l-.001 58.952c1.165.902 8.937 6.102 33.24 6.102 25.815 0 33.1-5.2 34.154-6.085zM354.444 612.944c-27.063 0-50.498 10.042-53.397 11.332l-.001 59.329c2.504.87 19.262 6.218 53.398 6.218s50.893-5.348 53.394-6.218v-59.329c-2.897-1.291-26.33-11.332-53.394-11.332z" fill="#696a5c" stroke="#1b1918" stroke-width="2.347" transform="matrix(.2124 0 0 .21335 26.52 546.593)"/><path d="M454.773 601.171l-.355-.026c.146.01.265.017.355.026zm-200.663 0c.015-.002.03-.002.046-.003l-.045.002zm46.477 22.176c2.822-1.263 26.499-11.44 53.857-11.44 27.352 0 51.03 10.175 53.853 11.439 2.086-1.469 16.892-11.437 34.95-11.437 12.742 0 24.51 6.184 30.227 9.745l-18.7-20.486.207.013.553.038v-80.853h-.52v-1.034h.52v-218.45a57.115 57.115 0 01-1.038-.374V600.11c-5.336-.346-48.208-3.025-94.012-3.25h-.125c-1.968-.01-3.942-.015-5.918-.013l-2.659.002c-37.135.133-91.365 2.947-97.394 3.267V527.502l-.001-1.096V212.907l-.558-.041-.204-.013-.14-.153-.134-.148V601.213l.544-.032.215-.01-18.694 20.48c5.72-3.56 17.485-9.742 30.221-9.742 18.06 0 32.87 9.97 34.95 11.437z" fill="#696a5c" stroke="#1b1918" stroke-width="2.347" transform="matrix(.2124 0 0 .21335 26.52 546.593)"/><path d="M476.27 624.773c-1.887-1.386-16.657-11.828-33.022-11.828-17.843 0-32.466 9.917-34.37 11.264l-.001 59.528c1.064.879 8.464 6.089 34.154 6.089 24.302 0 32.076-5.2 33.24-6.102zM329.843 689.826c-18.098-1.624-27.438-4.648-29.199-5.264-1.018.85-5.202 3.706-16.924 5.264z" fill="#696a5c" stroke="#1b1918" stroke-width="2.347" transform="matrix(.2124 0 0 .21335 26.52 546.593)"/><path d="M408.241 684.562c-1.757.615-11.097 3.64-29.199 5.264h46.123c-11.722-1.558-15.905-4.414-16.924-5.264zM474.887 685.804c-2.372 1.224-6.88 2.937-14.77 4.022h11.789zM248.768 689.826c-7.885-1.084-12.392-2.796-14.765-4.02l2.978 4.02z" fill="#696a5c" stroke="#1b1918" stroke-width="2.347" transform="matrix(.2124 0 0 .21335 26.52 546.593)"/><path d="M440.39 38.952c6.958 7.355 99.987 105.683 100.96 106.709 1.247 1.32 1.537 4.446.78 8.363-.796 4.115-4.01 7.622-4.146 7.768-.237.23-5.392 5.07-11.822 6.25-6.64 1.22-142.333 6.1-143.435 6.1-3.3 0-11.217-2.856-18.484-9.2-7.153-6.24-8.624-10.443-8.683-10.617-.063-.127-2.07-4.472-.385-9.756l9.304-29.165 17.37-50.556c.03-.101 3.679-12.585 7.422-19.393 3.86-7.018 12.526-7.167 12.894-7.169.202-.027 6.26-.681 12.1 2.93 5.37 3.322 6.3 4.258 8.338 6.306l.54.538c.332.336 2.102 2.063 4.92 4.808 51.298 50.027 79.052 77.777 82.483 82.476a735.912 735.912 0 002.337 3.179c4.307 5.836 6.272 8.5 8.74 14.557 2.442 5.994 2.842 12.232 2.905 14.11.688-.063 1.178-.117 1.45-.167 6.117-1.125 11.22-5.91 11.269-5.958.01-.01 3.128-3.418 3.866-7.24.82-4.23.235-6.657-.517-7.45-1.007-1.067-101.373-107.145-101.373-107.145l.755-.713.411.435zM369.382 195.47l-.001-.005 1.085.044c.005.02.01.041.017.062.098.358.197.716.298 1.075a130.4 130.4 0 009.083.411l.472.002c.171 0 2.666-.036 6.882-.105-.077-.257-.152-.515-.228-.772l1.081.045c.07.236.14.473.212.71 7.286-.12 18.97-.323 32.48-.59l-.124-.051 2.692-.057.144.054c12.635-.253 26.669-.559 40.101-.902l.027-.011 2.613-.058 3.73-.098.1-.11 1.479-.08-.137.151a2919.42 2919.42 0 0021.472-.655v-.656l1.035-.057v.676c4.019-.142 7.75-.287 11.1-.435v-.239h1.039v.193c4.01-.182 7.43-.368 10.092-.557v-.038h.53c2.805-.207 4.681-.416 5.402-.627.351-.081.696-.163 1.035-.246l-.046-.226 1.04-.046.005.02c5.269-1.372 9.238-3.13 13.731-7.08l-.054-.215.878-.784.053.207a55.526 55.526 0 002.536-2.52c6.587-6.953 9.589-13.015 10.363-20.928.788-8.046-2.557-18.36-7.777-23.989-5.168-5.573-65.8-70.936-65.804-70.94C457.992 44.85 447.423 34.1 446.61 34.1c-1 0-5.01 2.731-7 4.13-1.72-1.303-10.35-7.762-15.787-10.578-5.86-3.04-10.841-4.064-19.76-4.064-8.262 0-13.992 3.122-18.055 5.844-.702.47-1.35.97-1.952 1.497h.498l-1.01 1.037h-.584c-1.085 1.104-2.02 2.3-2.878 3.548h.015l-.497 1.036h-.209a75.83 75.83 0 00-1.255 2.02c-1.368 2.266-16.59 42.072-28.612 74.249h.146l-.389 1.03h-.142a4941.948 4941.948 0 00-3.14 8.43c.03 0 .06 0 .089-.002l-.397 1.049-.08.002c-5.464 14.731-9.684 26.374-10.619 29.518-3.113 10.483-1.113 19.876 1.796 25.175 3.037 5.53 15.991 14.571 22.82 16.762 2.787.894 6.533 1.437 10.073 1.767l-.297-1.08zm-8.899-17.095c7.245 4.207 23.915 4.627 24.083 4.632 1.34-.036 136.676-3.396 146.14-4.699 9.15-1.26 12.41-12.137 12.442-12.246l.996.286c-.033.12-3.476 11.637-13.295 12.989-9.523 1.31-140.703 4.568-146.283 4.706-.721-.017-17.133-.429-24.604-4.773-7.506-4.362-11.004-12.52-11.152-12.864l.957-.402c.033.08 3.515 8.187 10.716 12.371zm152.183-47.059c-3.95-3.948-85.633-87.597-86.456-88.442l.74-.726c.824.846 82.505 84.49 86.447 88.435zm13.422-8.726l-.561-.61.561.437z" fill="#716e75" stroke="#1b1918" stroke-width="2.347" transform="matrix(.2124 0 0 .21335 26.52 546.593)"/><path d="M309.175 112.82V61.775h.524l-.51-.175 8.835-25.725.457.157v-.517h61.6c.859-1.248 1.792-2.443 2.878-3.548l-63.771-.001c-5.156 0-10.687 6.49-10.74 6.555l-.157.186-24.089.001c-9.004 0-24.76 16.525-26.776 19.963-2.041 3.475-.952 7.779.043 10.716 1.129 3.327 9.316 9.984 13.079 10.63 3.933.67 8.748.001 8.8-.003l.263-.038 8.392 8.695v25.97l12.416-1.819zm-23.222-48.65c.002 7.04-5.723 12.766-12.764 12.766-7.04 0-12.768-5.727-12.768-12.766s5.727-12.766 12.768-12.766 12.764 5.726 12.764 12.766z" fill="#77747b" stroke="#1b1918" stroke-width="2.347" transform="matrix(.2124 0 0 .21335 26.52 546.593)"/><path d="M349.138 113.849l-48.642.003-63.487 9.3-3.006 4.057c3.731-1.925 12.737-5.056 31.853-5.056 25.743 0 33.36 5.108 34.787 6.3 2.22-.773 16.57-5.387 45.356-6.173 1.01-2.723 2.06-5.544 3.139-8.431z" fill="#696a5c" stroke="#1b1918" stroke-width="2.347" transform="matrix(.2124 0 0 .21335 26.52 546.593)"/><path d="M273.19 73.339c5.055 0 9.167-4.112 9.167-9.17.002-5.057-4.11-9.169-9.168-9.169-5.056 0-9.168 4.112-9.168 9.168 0 5.059 4.112 9.171 9.168 9.171z" fill="#77747b" stroke="#1b1918" stroke-width="2.347" transform="matrix(.2124 0 0 .21335 26.52 546.593)"/><path d="M262.984 64.168c0-5.626 4.577-10.205 10.205-10.205s10.205 4.58 10.205 10.205c0 5.629-4.576 10.208-10.205 10.208-5.628 0-10.205-4.58-10.205-10.208zM273.189 75.9c6.468 0 11.73-5.263 11.73-11.73.002-6.468-5.26-11.729-11.73-11.729-6.467 0-11.73 5.26-11.73 11.73 0 6.467 5.264 11.73 11.73 11.73zM404.029 77.61c-19.702 8.808-33.088 28.613-37.69 55.766-1.67 9.838-2.075 20.22-1.333 30.859 6.797 5.902 14.063 8.672 17.374 8.86-2.057-18.273-.002-35.3 5.838-48.902l.112-.492.093.02c5.324-12.145 13.697-21.507 24.882-26.509 5.787-2.588 12.062-3.897 18.66-3.897 30.44 0 64.274 28.115 82.28 68.377.876 1.959 1.62 3.925 2.4 5.89l-1.096.055c-.739-1.842-1.43-3.686-2.252-5.521-17.844-39.903-51.287-67.766-81.333-67.766-6.448 0-12.585 1.279-18.236 3.808-7.16 3.202-13.145 8.232-17.89 14.658l12.551-.002 64.061 9.375 4.854 6.547.002.094v10.134l16.589 8.696v21.05l-1.035.05v-20.471 20.471l30.632-1.484c-.068-1.745-.456-7.981-2.83-13.803-2.422-5.939-4.358-8.571-8.616-14.334a627.6 627.6 0 01-2.34-3.183c-2.81-3.852-22.291-23.506-58.003-58.525-8.2-2.99-16.448-4.663-24.512-4.663-8.182 0-15.978 1.629-23.162 4.842zm-19.908 35.438c4.723-7.371 14.55-22.723 32.952-26.005 17.574-3.131 37.89 2.933 38.091 2.992l-.296.992c-.202-.061-20.287-6.059-37.615-2.965-17.953 3.204-27.617 18.298-32.264 25.551-10.278 15.622-9.572 35.643-9.566 35.845l-1.034.043c-.01-.204-.733-20.553 9.732-36.453z" fill="#77747b" stroke="#1b1918" stroke-width="2.347" transform="matrix(.2124 0 0 .21335 26.52 546.593)"/><path d="M408.313 113.844l-13.217.003c-2.164 3.08-4.054 6.464-5.664 10.105l8.149 1.85 10.554 2.747c1.115-.989 8.414-6.393 34.896-6.393 19.122 0 28.127 3.133 31.855 5.058l-3.012-4.062z" fill="#696a5c" stroke="#1b1918" stroke-width="2.347" transform="matrix(.2124 0 0 .21335 26.52 546.593)"/><path d="M365.314 133.201c4.667-27.504 18.263-47.582 38.29-56.538 7.32-3.274 15.257-4.935 23.588-4.935 7.371 0 15.037 1.405 22.745 3.971-6.94-6.802-14.475-14.166-22.601-22.091-2.82-2.75-4.592-4.476-4.93-4.815l-.54-.54c-2.038-2.048-2.88-2.897-8.145-6.154-4.017-2.485-8.22-2.831-10.251-2.831-.77 0-1.226.048-1.243.05-.14.004-8.486.157-12.051 6.635-3.686 6.71-7.304 19.084-7.34 19.21L366.46 112.82h4.443c-.139.344-.283.68-.416 1.03h-4.381l-.647 1.882-2.091 6.56c1.467.041 2.913.086 4.298.146-.097.347-.207.681-.3 1.03-1.397-.06-2.85-.107-4.326-.147l-6.875 21.567c-1.558 4.88.336 9.011.355 9.05.037.09 1.353 3.798 7.407 9.336-.65-10.358-.238-20.475 1.387-30.072z" fill="#77747b" stroke="#1b1918" stroke-width="2.347" transform="matrix(.2124 0 0 .21335 26.52 546.593)"/><path d="M349.522 112.819c12.022-32.176 27.244-71.983 28.613-74.25.41-.68.826-1.355 1.255-2.018h-60.502l-8.675 25.257v51.013z" fill="#77747b" stroke="#1b1918" stroke-width="2.348" transform="matrix(.2124 0 0 .21335 26.52 546.593)"/><path d="M420.64 196.297l.124.051-.124-.051zm2.836-.002l-.145-.054.145.054zm98.583-3.504a93.084 93.084 0 000 0zm-2.135.34c1.077-.138 1.923-.284 2.135-.34-.388.114-1.112.227-2.135.34zm-3.057.272a91.027 91.027 0 003.057-.272c-.934.12-2.042.232-3.057.272zm-73.62 6.669c-7.37 0-14.17-1.697-19.771-3.777h.007l46.464-1.07.1-.11 1.478-.079-.137.15c7.623-.207 14.911-.427 21.472-.655v-.656l1.035-.056v.676c4.019-.142 7.75-.287 11.1-.435v-.24h1.039v.193c4.01-.182 7.43-.368 10.092-.556v-.038c.238 0 .487-.005.74-.016l-.21.016h.508l5.93-.874-.047-.226 1.04-.046.005.02c5.269-1.372 9.238-3.13 13.731-7.079l-.054-.215.878-.785.053.208a55.526 55.526 0 002.536-2.52c6.587-6.953 9.589-13.015 10.363-20.928.788-8.047-2.557-18.361-7.777-23.989-5.168-5.574-65.8-70.936-65.804-70.94C457.991 44.85 447.422 34.1 446.608 34.1c-1 0-5.01 2.73-7 4.13-1.72-1.303-10.35-7.762-15.787-10.579-5.86-3.04-10.841-4.064-19.76-4.064-8.262 0-13.992 3.123-18.055 5.845-.702.47-1.35.97-1.952 1.497h.498l-1.01 1.036h-.584c-1.085 1.105-2.02 2.3-2.878 3.549h.015l-.497 1.036h-.209a75.83 75.83 0 00-1.255 2.02c-1.368 2.266-16.59 42.072-28.612 74.248h.146l-.389 1.03c-.295 0-2.951 7.543-3.281 8.43l.088-.001-.397 1.049-.08.002c-5.464 14.73-9.684 26.373-10.619 29.518-3.113 10.482-1.113 19.876 1.796 25.174 3.037 5.531 15.991 14.572 22.82 16.763 2.787.894 6.533 1.437 10.073 1.766l1.101.097.224.018c4.064.326 7.643.383 8.86.394h.472c2.29-.009 4.592-.066 6.882-.103l1.065-.018c7.286-.12 18.97-.322 32.48-.59 6.092 2.518 13.917 4.762 22.483 4.762 8.633 0 16.805-2.845 22.97-5.785l-2.64.068c-5.733 2.499-12.858 4.679-20.33 4.679zm87.603-20.734c-9.523 1.31-140.703 4.568-146.283 4.706-.721-.016-17.133-.429-24.604-4.772-7.506-4.362-11.004-12.52-11.152-12.865v0c.034.08 3.951 8.681 11.152 12.865 7.245 4.206 24.436 4.767 24.604 4.772 1.34-.036 136.82-3.404 146.283-4.706 9.15-1.26 13.263-12.88 13.295-12.989v0c-.033.12-3.476 11.637-13.295 12.989zm-54.58-9.783c-22.695.939-48.605 1.922-67.393 2.615l-1.039.039c-12.66.466-21.902.794-24.427.876l-1.031.01c-3.311-.188-10.577-2.958-17.374-8.86l.008.108-1.068-.782-.018-.288c-6.054-5.538-7.37-9.245-7.407-9.335-.019-.04-1.913-4.171-.355-9.05l6.875-21.568.327-1.028 2.092-6.56.647-1.883.353-1.03 16.376-47.655c.036-.127 3.655-12.501 7.34-19.21 3.566-6.478 11.912-6.631 12.052-6.635.016-.003.473-.051 1.242-.051 2.031 0 6.234.346 10.251 2.832 5.265 3.256 6.108 4.106 8.145 6.153l.54.54c.338.34 2.111 2.065 4.93 4.815 8.127 7.925 15.661 15.29 22.601 22.092l.428.143 1.886 1.79a88.562 88.562 0 00-.547-.202c35.712 35.02 55.192 54.673 58.003 58.525a627.6 627.6 0 002.34 3.183c4.258 5.763 6.194 8.395 8.616 14.334 2.374 5.822 2.762 12.058 2.83 13.803-6.7.516-24.955 1.354-46.186 2.236zM440.39 38.952a3608068.235 3608068.235 0 000 0zm-.412-.435l.411.435-.41-.435zm73.42 92.067c-3.95-3.949-85.624-87.59-86.447-88.435v0c.824.846 82.505 84.49 86.447 88.435z" fill="#77747b" stroke="#1b1918" stroke-width="2.348" transform="matrix(.2124 0 0 .21335 26.52 546.593)"/><path d="M423.482 196.297c5.6 2.08 12.397 3.774 19.765 3.774 7.472 0 14.597-2.18 20.33-4.679-13.43.344-27.46.65-40.095.905z" fill="#696a5c" stroke="#1b1918" stroke-width="2.347" transform="matrix(.2124 0 0 .21335 26.52 546.593)"/><path d="M476.35 283.812c-30.44 0-64.276-28.118-82.278-68.38a150.73 150.73 0 01-6.853-18.477l-.055.001c-1.251.02-2.38.043-3.434.06a269.422 269.422 0 01-3.393.045h-.473c-1.846 0-3.578-.044-5.717-.171-.969-.057-2.005-.13-3.142-.225l-.166-.014-.058-.005c2.347 8.368 5.29 16.73 8.973 24.962 21.788 48.723 63.052 82.751 100.347 82.751 8.184 0 15.978-1.63 23.166-4.844a54.996 54.996 0 0012.86-8.051v-.173h.205c24.265-20.486 32.475-62.08 21.492-106.077-4.493 3.95-8.463 5.707-13.731 7.079 5.217 25.525 2.62 49.576-6.928 66.634v.909h-.52c-5.258 9.021-12.514 15.999-21.636 20.078-5.784 2.588-12.061 3.898-18.659 3.898z" fill="#77747b" stroke="#1b1918" stroke-width="2.347" transform="matrix(.2124 0 0 .21335 26.52 546.593)"/><path d="M493.895 194.495v84.773a43.313 43.313 0 0011.625-7.34h-.524V194.06c-3.35.148-7.082.294-11.1.436zM506.034 194.013v77.457c3.94-3.566 7.31-7.87 10.092-12.772v-65.241c-2.66.188-6.082.374-10.091.556zM516.126 292.806a55.859 55.859 0 01-12.433 7.657 55.914 55.914 0 01-9.798 3.33v203.56c-.002.098-.567 5.7-6.738 5.7h-31.623v6.279h46.807c3.492 0 6.382-1.198 8.59-3.559 5.986-6.394 5.206-19.298 5.2-19.427zm-10.092 7.655v204.908h-1.038V300.46z" fill="#77747b" stroke="#1b1918" stroke-width="2.347" transform="matrix(.2124 0 0 .21335 26.52 546.593)"/><path d="M257.715 212.097c11.847.781 50.034 3.034 96.726 3.034 7.378 0 14.517-.06 21.398-.158-.378-.957-.747-1.916-1.107-2.876zM311.16 271.75c-14.58 0-26.437 11.86-26.437 26.44 0 10.197 5.802 19.064 14.278 23.473-7.226-4.586-12.03-12.658-12.03-21.833 0-14.245 11.588-25.834 25.834-25.834 9.175 0 17.247 4.807 21.83 12.035-4.408-8.478-13.276-14.28-23.474-14.28zM308.054 373.932c-14.58 0-26.44 11.862-26.44 26.44 0 10.2 5.804 19.07 14.284 23.477-7.23-4.584-12.039-12.658-12.039-21.832 0-14.248 11.59-25.838 25.835-25.838 9.176 0 17.25 4.809 21.833 12.039-4.408-8.48-13.277-14.286-23.473-14.286zM399.11 376.588c14.245 0 25.834 11.59 25.834 25.835 0 9.163-4.794 17.228-12.007 21.816 8.46-4.414 14.25-13.273 14.25-23.457 0-14.578-11.862-26.44-26.437-26.44-10.196 0-19.06 5.8-23.47 14.273 4.585-7.223 12.657-12.027 21.83-12.027zM395.825 274.406c14.246 0 25.835 11.589 25.835 25.835 0 9.172-4.804 17.244-12.028 21.83 8.474-4.41 14.275-13.276 14.275-23.473 0-14.577-11.861-26.438-26.437-26.438-10.191 0-19.055 5.796-23.467 14.264 4.587-7.218 12.654-12.018 21.822-12.018zM312.805 525.935c-14.246 0-25.835-11.588-25.835-25.834 0-9.189 4.82-17.27 12.064-21.852-8.495 4.404-14.31 13.282-14.31 23.492 0 14.576 11.857 26.438 26.437 26.438 10.19 0 19.052-5.795 23.464-14.26-4.586 7.217-12.652 12.016-21.82 12.016zM374.162 514.304c4.408 8.48 13.278 14.285 23.476 14.285 14.58 0 26.44-11.862 26.44-26.44 0-10.19-5.797-19.054-14.267-23.465 7.22 4.586 12.021 12.655 12.021 21.823 0 14.25-11.588 25.838-25.834 25.838-9.177 0-17.252-4.81-21.836-12.041z" fill="#696a5c" stroke="#1b1918" stroke-width="2.347" transform="matrix(.2124 0 0 .21335 26.52 546.593)"/></g></g></svg>