<?xml version="1.0" encoding="UTF-8" standalone="no"?>
<svg
   xmlns:dc="http://purl.org/dc/elements/1.1/"
   xmlns:cc="http://creativecommons.org/ns#"
   xmlns:rdf="http://www.w3.org/1999/02/22-rdf-syntax-ns#"
   xmlns:svg="http://www.w3.org/2000/svg"
   xmlns="http://www.w3.org/2000/svg"
   xmlns:sodipodi="http://sodipodi.sourceforge.net/DTD/sodipodi-0.dtd"
   xmlns:inkscape="http://www.inkscape.org/namespaces/inkscape"
   inkscape:version="1.0 (4035a4fb49, 2020-05-01)"
   sodipodi:docname="0.svg"
   id="svg18"
   version="1.1"
   viewBox="0 0 64 64">
  <metadata
     id="metadata24">
    <rdf:RDF>
      <cc:Work
         rdf:about="">
        <dc:format>image/svg+xml</dc:format>
        <dc:type
           rdf:resource="http://purl.org/dc/dcmitype/StillImage" />
        <dc:title />
      </cc:Work>
    </rdf:RDF>
  </metadata>
  <defs
     id="defs22" />
  <sodipodi:namedview
     inkscape:current-layer="svg18"
     inkscape:window-maximized="1"
     inkscape:window-y="-8"
     inkscape:window-x="-8"
     inkscape:cy="19.876245"
     inkscape:cx="38.01372"
     inkscape:zoom="6.386058"
     showgrid="false"
     id="namedview20"
     inkscape:window-height="746"
     inkscape:window-width="1304"
     inkscape:pageshadow="2"
     inkscape:pageopacity="0"
     guidetolerance="10"
     gridtolerance="10"
     objecttolerance="10"
     borderopacity="1"
     bordercolor="#666666"
     pagecolor="#ffffff"
     inkscape:document-rotation="0" />
  <g
     id="g16"
     fill-rule="evenodd">
    <path
       id="path2"
       d="M3.765 24.601c-7.767-11.848 9.29-18.456 15.593-9.197C17.522 4.29 33.421-1.931 36.403 12.38 38.69 23.358 26.94 27.6 29.2 44.354 20.555 30.138 9.815 33.831 3.765 24.601z"
       stroke-width=".405"
       stroke="#000"
       fill="#ff24d3" />
    <path
       id="path4"
       d="M35.086 17.137c-.075-6.54-5.497-12.76-13.819-6.199 5.935-9.854 16.185-2.966 13.819 6.2z"
       fill-opacity=".785"
       fill="#fff" />
    <path
       id="path6"
       d="M37.97 34.94c1.45-8.584 11.777-4.05 10.748 2.76 3.784-5.677 13.434-1.477 8.836 6.102-3.528 5.814-10.513 2.554-16.444 10.89 2.04-10.005-4.27-13.065-3.14-19.752z"
       stroke-width=".45"
       stroke="#000"
       fill="#d42aff" />
    <path
       id="path8"
       d="M56.349 43.607c1.271-4.48-.61-6.593-4.662-6.916 4.205-1.468 8.103 1.751 4.662 6.916z"
       fill-opacity=".785"
       fill="#fff" />
    <g
       id="g14">
      <path
         id="path10"
         d="M6.763 52.98c-4.68-5.42 3.721-9.196 7.499-4.969-1.585-5.275 6.242-8.824 8.6-2.053 1.81 5.194-3.995 7.646-1.867 15.617-5.269-6.526-10.586-4.373-14.232-8.595z"
         stroke-width=".45"
         stroke="#000"
         fill="#f06" />
      <path
         id="path12"
         d="M21.596 47.782c-.783-3.522-2.984-4.123-6.097-2.61 2.538-2.77 6.652-2.291 6.097 2.61z"
         fill-opacity=".785"
         fill="#fff" />
    </g>
  </g>
  <g
     style="stroke:#ffffff;stroke-width:24.4722;stroke-miterlimit:4;stroke-dasharray:none;stroke-opacity:1"
     transform="matrix(0.04903517,0,0,0.04903517,42.571125,-0.3450771)"
     id="g869">
    <path
       d="m 199.5953,109.8286 a 144,144 0 0 1 144,144 144,144 0 1 1 -144,-144 z"
       style="fill:none;stroke:#ffffff;stroke-width:20.39352571;stroke-linecap:butt;stroke-linejoin:miter;stroke-miterlimit:4;stroke-dasharray:none;stroke-opacity:1"
       id="path857" />
    <path
       d="M 186.4531,176.7674 V 146.899 h 26.2845 v 29.8684 z m 0,183.9909 V 205.74 h 26.2845 v 155.0183 z"
       style="fill:#ffffff;fill-opacity:1;fill-rule:evenodd;stroke:#ffffff;stroke-width:0;stroke-miterlimit:4;stroke-dasharray:none;stroke-opacity:1"
       id="path855" />
  </g>
</svg>
