<svg xmlns="http://www.w3.org/2000/svg" viewBox="0 0 7256.693 7256.693"><path d="M131.365 6743.95l360.666 360.666c252.5-5.639 444.883-196.263 590.252-531.536 735.45-741.37 1490.85-1477.75 2292.247-2202.63l1043.754-1218.362c83.39-53.733 182.37-69.36 302.846-32.444l752.494 542.353 1551.342-1628.6c75.743-99.753 96.286-216.489 64.898-349.206l-278.13-1044.53c-19.866-106.43-90.66-178.909-215.414-215.415L5551.79 146.117c-132.717-31.388-249.453-10.845-349.207 64.898L3573.984 1762.357l542.353 752.494c36.917 120.477 21.29 219.455-32.444 302.846L2865.531 3861.451c-724.88 801.397-1461.26 1556.797-2202.63 2292.247-335.273 145.37-525.897 337.751-531.536 590.252z" fill="#ffb380" fill-rule="evenodd" stroke="#1b1918" stroke-width="5"/><path d="M5473.24 3661.613l86.795-91.116-752.495-542.352-198.74-87.75-190.9 211.31c86.514-54.575 185.436-71.523 302.846-32.444z" fill="none" stroke="#1b1918" stroke-width="5"/><path d="M131.365 6743.95l360.666 360.666c252.5-5.639 444.883-196.263 590.252-531.536 735.45-741.37 1490.85-1477.75 2292.247-2202.63l-508.999-508.999c-724.88 801.397-1461.26 1556.797-2202.63 2292.247-335.273 145.37-525.897 337.751-531.536 590.252z" fill="#ffe680" fill-rule="evenodd" stroke="#1b1918" stroke-width="5"/><path d="M3591.389 1745.778l56.894-54.196 540.7 748.227 90.326 201.348-63.607 57.463-82.21-199.481z" fill="#fff" fill-opacity=".5" fill-rule="evenodd"/><path d="M3258.253 4254.172l1083.499-1178.33 1258.225-1329.558c73.728-147.249 34.483-181.522-110.28-110.28L4160.14 2894.23 2981.81 3977.727z" fill="#fff" fill-opacity=".498" fill-rule="evenodd"/><path d="M3573.984 1762.357l91.116-86.794 542.353 752.495 87.75 198.74-211.31 190.9c54.575-86.514 71.523-185.437 32.444-302.847z" fill="none" stroke="#1b1918" stroke-width="5" opacity=".95"/><path d="M5489.853 3644.242l54.196-56.894-748.227-540.7-201.348-90.326-57.464 63.607 199.483 82.21z" fill="#fff" fill-opacity=".498" fill-rule="evenodd"/><path d="M3374.53 4370.45l1043.754-1218.362 1228.384-1359.725c42.82-178.186-27.35-243.382-203.05-203.05L4083.893 2817.697 2865.531 3861.451z" fill="none" stroke="#1b1918" stroke-width="5"/></svg>