<?xml version="1.0" encoding="UTF-8" standalone="no"?>
<svg
   xmlns:dc="http://purl.org/dc/elements/1.1/"
   xmlns:cc="http://creativecommons.org/ns#"
   xmlns:rdf="http://www.w3.org/1999/02/22-rdf-syntax-ns#"
   xmlns:svg="http://www.w3.org/2000/svg"
   xmlns="http://www.w3.org/2000/svg"
   xmlns:sodipodi="http://sodipodi.sourceforge.net/DTD/sodipodi-0.dtd"
   xmlns:inkscape="http://www.inkscape.org/namespaces/inkscape"
   version="1.1"
   width=""
   height=""
   id="svg14"
   viewBox="0 0 725.66931 725.66931"
   sodipodi:docname="0.svg"
   inkscape:version="1.0 (4035a4fb49, 2020-05-01)">
  <metadata
     id="metadata20">
    <rdf:RDF>
      <cc:Work
         rdf:about="">
        <dc:format>image/svg+xml</dc:format>
        <dc:type
           rdf:resource="http://purl.org/dc/dcmitype/StillImage" />
        <dc:title />
      </cc:Work>
    </rdf:RDF>
  </metadata>
  <defs
     id="defs18" />
  <sodipodi:namedview
     inkscape:document-rotation="0"
     pagecolor="#ffffff"
     bordercolor="#666666"
     borderopacity="1"
     objecttolerance="10"
     gridtolerance="10"
     guidetolerance="10"
     inkscape:pageopacity="0"
     inkscape:pageshadow="2"
     inkscape:window-width="1304"
     inkscape:window-height="746"
     id="namedview16"
     showgrid="false"
     inkscape:zoom="0.79650605"
     inkscape:cx="362.83466"
     inkscape:cy="362.83466"
     inkscape:window-x="-8"
     inkscape:window-y="-8"
     inkscape:window-maximized="1"
     inkscape:current-layer="svg14" />
  <g
     transform="matrix(-1,0,0,1,724.74865,0)"
     id="Layer1000">
    <path
       d="m 422.0005,92.5896 272.232,272.2319 -272.232,272.232 H 344.1836 L 616.4156,364.8215 344.1836,92.5896 Z"
       style="fill:none;stroke:#00ff00;stroke-width:4.7999;stroke-linecap:butt;stroke-linejoin:miter;stroke-dasharray:none"
       id="path2" />
    <path
       d="m 266.3667,92.5896 272.232,272.2319 -272.232,272.232 H 188.5499 L 460.7818,364.8215 188.5499,92.5896 Z"
       style="fill:none;stroke:#00ff00;stroke-width:4.7999;stroke-linecap:butt;stroke-linejoin:miter;stroke-dasharray:none"
       id="path4" />
    <path
       d="M 110.733,92.5896 382.965,364.8215 110.733,637.0535 H 32.9161 L 305.1481,364.8215 32.9161,92.5896 Z"
       style="fill:none;stroke:#00ff00;stroke-width:4.7999;stroke-linecap:butt;stroke-linejoin:miter;stroke-dasharray:none"
       id="path6" />
  </g>
  <g
     id="Layer1001">
    <path
       d="m 505.2506,146.3017 c 5.6827,0 7.8693,-3.1651 10.1815,-7.0988 0.5346,-0.9096 1.8244,-2.8233 2.0585,-3.7012 0.6696,0.3544 0.9882,0.5998 1.6337,1.0066 l 23.3597,16.7202 c 1.0675,0.7942 1.8652,1.506 2.9222,2.3575 l 19.6645,17.7758 10.317,11.043 c 0.4655,0.5023 0.8677,0.7962 1.3122,1.3277 0.5167,0.618 0.6485,0.8255 1.2104,1.4298 0.5374,0.578 0.638,0.8493 1.2004,1.4397 2.2116,2.3222 4.0765,4.8427 6.1158,7.3242 l 2.3111,2.9687 c 4.9359,6.6257 9.9663,13.2021 14.2945,20.2654 0.4419,0.7209 0.7192,1.0642 1.0987,1.7813 -0.6003,0.3178 -1.1128,0.54 -1.7282,0.9119 -4.1692,2.5195 -8.0643,4.1675 -8.8835,9.8476 -1.0724,7.4341 6.4363,12.9558 13.1476,10.7365 1.8366,-0.6072 3.3673,-1.7039 5.0063,-2.6736 0.515,-0.305 0.7183,-0.3796 1.2294,-0.6906 0.6865,-0.4178 0.5836,-0.5314 1.5482,-0.6117 0.2954,1.2674 2.2533,4.7466 2.9603,6.16 l 4.411,9.269 c 5.7719,13.4087 9.2137,22.1335 13.5924,37.2875 1.4079,4.8728 2.4925,9.445 3.6626,14.5772 1.9865,8.7131 4.5916,22.985 5.1338,31.8262 0.3578,5.8309 1.1999,11.3315 1.1999,17.28 h -22.0799 c -8.5887,0 -12.9104,11.204 -6.5488,17.3489 1.5253,1.4732 4.1108,2.8111 7.0287,2.8111 h 21.6 c 0,1.8216 -0.2579,2.6272 -0.2449,4.3152 0.0145,1.8383 -0.2304,2.7034 -0.235,4.3248 -0.0198,7.0864 -2.8369,24.9974 -4.1813,32.5387 -3.4609,19.4144 -10.5602,41.8736 -18.7782,59.4617 -0.3044,0.652 -0.4053,1.0338 -0.7174,1.6827 -0.2988,0.6213 -0.5522,1.0431 -0.7999,1.5999 -0.9769,2.1963 -1.8842,3.9988 -2.9631,6.1571 -0.7191,1.438 -2.7408,5.0357 -3.0402,6.3198 -1.0153,-0.0844 -1.7912,-0.7667 -2.5922,-1.2478 -5.5747,-3.3466 -10.3451,-5.3679 -15.7113,-0.0158 -2.9523,2.944 -3.53,8.1019 -1.3706,11.8179 0.8036,1.3827 1.3382,1.9267 2.5761,2.9438 1.9128,1.5709 4.5995,2.8692 6.7782,4.022 -2.1223,4.0111 -9.9995,15.2788 -13.0147,18.9054 -3.6263,4.3617 -6.7637,9.1973 -10.6852,13.3146 -0.5695,0.5979 -0.6936,0.8649 -1.2024,1.4375 -0.9088,1.0224 -1.6827,1.9139 -2.6422,2.878 -0.5922,0.595 -0.6775,0.8524 -1.1974,1.4426 -0.4365,0.4957 -0.8421,0.8416 -1.3218,1.3183 l -2.5163,2.7635 c -1.8844,1.8814 -3.4069,3.6471 -5.2801,5.5199 l -6.7218,6.4783 c -1.8955,1.6691 -3.7031,3.5255 -5.7169,5.0831 l -10.1497,8.5703 c -4.9326,3.9288 -10.0182,7.854 -15.2949,11.3451 l -9.6968,6.3833 c -0.3132,-1.1732 -3.1215,-5.9207 -4.1465,-7.1333 -7.8732,-9.3141 -22.2023,0.6029 -16.4973,11.4573 l 3.3638,5.756 c -1.4054,0.3754 -4.581,2.2904 -6.0797,3.0399 -1.097,0.5485 -2.0123,1.0026 -3.0393,1.5211 -13.0924,6.6098 -29.9979,12.7335 -43.6808,16.5589 -17.4509,4.8789 -36.6414,8.1195 -54.9728,9.5873 l -6.7085,0.2517 c -0.9235,0.0493 -1.1738,0.241 -2.1589,0.241 v -22.32 c 0,-4.5066 -4.6136,-9.36 -9.1199,-9.36 -3.5333,0 -6.127,0.7854 -8.3446,3.1756 -1.5993,1.7238 -2.6952,4.1301 -2.6952,7.3845 v 21.1199 l -6.2753,-0.4448 c -2.1322,-0.2378 -4.2917,-0.0848 -6.5469,-0.4133 -4.0674,-0.5924 -8.246,-0.7282 -12.3644,-1.3153 -2.7471,-0.3917 -5.4808,-0.7327 -8.1743,-1.1857 -15.7468,-2.6476 -29.7675,-6.2348 -44.3687,-11.0713 -4.5015,-1.491 -9.0584,-3.2944 -13.4363,-5.0439 -8.7749,-3.5068 -17.1714,-7.4594 -25.2343,-11.7256 0.1679,-0.72 0.8331,-1.7263 1.2121,-2.3881 0.4556,-0.7954 0.9752,-1.5753 1.4281,-2.4118 0.8859,-1.637 1.9199,-3.194 1.9199,-5.7602 0,-10.2989 -12.7275,-13.4357 -17.7661,-6.7258 -0.9068,1.2075 -1.4032,2.1549 -2.2297,3.5303 -0.7662,1.2755 -1.4111,2.4037 -2.0841,3.6756 -9.9073,-6.6342 -18.5451,-12.5282 -27.8742,-20.1259 l -10.0102,-8.7098 c -0.6421,-0.5122 -0.813,-0.6103 -1.4176,-1.2223 l -19.7961,-20.2838 c -0.5734,-0.6129 -0.6905,-0.6852 -1.2435,-1.3967 l -7.3069,-8.7729 c -1.6047,-2.014 -3.0671,-3.8557 -4.6261,-5.9341 -1.5693,-2.0917 -3.0856,-4.0453 -4.5729,-6.2268 -2.1163,-3.1043 -4.4946,-6.1918 -6.4213,-9.419 -0.5573,-0.9334 -1.8408,-2.5013 -1.9313,-3.5887 1.5387,-0.3585 5.8958,-3.1515 6.9982,-4.0416 8.7636,-7.0767 0.1984,-22.9773 -12.3551,-15.9551 -1.5446,0.8637 -3.2312,2.3134 -4.9632,2.7167 -5.2373,-9.8977 -10.1695,-20.8267 -14.1961,-31.6437 -0.3864,-1.0377 -0.8462,-2.1294 -1.2566,-3.3035 -7.272,-20.7997 -12.2616,-42.266 -14.5092,-64.2106 -0.5811,-5.6725 -0.7605,-11.5045 -1.2379,-17.2421 6.7989,0 13.6024,-0.0246 20.4007,9e-4 3.4387,0.0127 5.9037,-0.6968 7.7397,-2.3403 3.5087,-3.1408 4.7163,-8.2947 2.4219,-12.623 -1.9635,-3.7043 -5.4303,-5.2086 -10.1622,-5.1978 -6.7992,0.0155 -13.6006,2e-4 -20.4001,2e-4 0.4774,-5.7376 0.6568,-11.5696 1.2379,-17.242 1.6022,-15.6413 4.4442,-31.5215 8.8699,-46.5701 3.3766,-11.4806 7.0739,-23.1273 12.1314,-33.9486 l 7.3579,-15.6821 c 0.5565,-1.114 1.3235,-1.9987 1.6027,-3.1972 1.5021,1.0061 3.2313,1.8581 4.8462,2.8341 11.6552,7.0452 21.5906,-7.7519 12.4945,-15.8547 -0.9728,-0.8666 -2.3539,-1.4919 -3.5592,-2.2006 -0.9099,-0.5349 -2.8236,-1.8243 -3.7015,-2.0588 0.7161,-1.0689 1.3037,-2.0814 2.0637,-3.2162 0.7707,-1.1508 1.3444,-2.0151 2.1126,-3.1674 l 6.624,-9.4561 c 3.4231,-4.549 6.7658,-9.2035 10.5064,-13.4937 2.9228,-3.352 5.5885,-6.8488 8.7531,-9.9667 1.0006,-0.9858 1.54,-1.7929 2.5191,-2.7609 l 10.6807,-10.6792 c 4.3611,-4.4005 12.2099,-11.0263 17.2204,-14.9398 7.0067,-5.472 14.1968,-10.6636 21.6,-15.5999 1.103,-0.7353 2.2607,-1.4238 3.3602,-2.16 2.6156,4.9434 5.459,10.8 11.9999,10.8 1.287,0 3.1748,-0.5541 4.0819,-0.9581 5.9128,-2.6336 7.5277,-9.4881 4.1831,-14.9867 -0.8175,-1.3437 -2.3502,-3.4563 -2.7451,-4.9352 4.0082,-2.6841 10.7286,-5.2225 15.2813,-7.5189 1.0681,-0.5388 2.062,-0.9419 3.1655,-1.3943 l 6.5823,-2.7777 c 21.0124,-8.409 42.8718,-14.0207 65.7332,-17.3066 2.6413,-0.3799 5.7316,-0.8173 8.3661,-0.9942 4.1069,-0.2752 8.6741,-1.0043 12.7069,-0.9731 1.9151,0.015 2.8057,-0.235 4.5649,-0.235 v 21.1198 c 0,5.2869 3.8313,10.5602 9.36,10.5602 3.4433,0 5.8014,-0.864 7.9847,-3.0554 1.5185,-1.5242 2.815,-3.8387 2.815,-6.7848 V 94.2219 c 5.88,0 11.4852,0.8204 17.2718,1.2081 2.6433,0.1775 5.5401,0.6628 8.1686,0.9516 21.187,2.3273 46.7683,9.4431 65.9682,17.3118 8.6465,3.5439 17.208,7.4829 25.2314,11.7283 l -3.2813,5.5985 c -1.2155,2.2382 -1.709,4.0215 -1.2167,7.0591 0.3651,2.251 1.7422,4.3166 3.2378,5.6429 1.5763,1.3983 4.0904,2.5795 6.3002,2.5795 z m -132.54,-72.4799 h 1.2656 c 0.7951,0.0511 1.3059,0.1956 2.1535,0.2413 3.185,0.172 6.9075,-0.1296 9.8762,0.2038 1.0451,0.1173 2.2657,-0.0049 3.3327,0.0272 5.5811,0.1661 16.0877,1.2362 21.7309,2.029 13.4054,1.8834 26.5706,4.28 39.5626,7.9574 l 10.3723,3.0677 c 11.7978,3.4713 25.4211,8.8279 36.5629,14.3172 19.3363,9.5264 26.2466,13.6094 44.9309,26.3489 2.6903,1.8343 5.1196,3.7281 7.7377,5.7025 1.3961,1.0527 2.5126,2.0202 3.9061,3.0537 3.7449,2.7777 7.744,6.628 11.0075,9.1525 0.7447,0.5763 1.0625,1.0299 1.7813,1.5786 l 12.06,11.4602 c 2.0739,2.0739 5.0301,4.6769 6.7612,6.9185 1.4094,1.8256 3.3438,3.3894 4.868,5.2121 l 7.8264,9.2137 c 2.0421,2.5348 4.0235,4.8895 5.959,7.481 l 5.8283,7.8516 c 2.9517,3.9033 5.5188,8.0793 8.2497,12.1505 0.9411,1.4028 1.6444,2.6909 2.59,4.13 3.1289,4.762 6.1078,9.9616 8.7404,15.0194 l 7.9205,15.8394 c 2.2522,4.5718 4.1545,9.328 6.0653,14.0948 7.8888,19.6783 14.4664,42.9326 17.4113,63.9487 0.6964,4.9697 2.6492,18.9794 2.6878,24.4321 l 0.712,16.3009 v 3.6882 c -0.0819,2.1132 -0.2514,4.227 -0.2415,6.1772 0.0431,8.409 -0.5391,17.0955 -1.6081,25.5121 -1.5318,12.0634 -2.4312,17.6003 -4.7307,29.3491 l -2.5393,10.9009 c -3.0211,12.1972 -7.0129,24.0089 -11.6577,35.6222 -2.2859,5.7155 -4.4935,11.0744 -7.2256,16.5344 -3.38,6.7556 -6.5389,13.5423 -10.4431,20.0367 -0.8816,1.4664 -1.5587,2.7684 -2.4579,4.2622 -4.2083,6.9931 -8.7911,13.7115 -13.3835,20.4565 -3.3148,4.8682 -7.9285,11.033 -11.7743,15.3457 l -22.7982,24.7217 -25.4131,21.8671 c -5.021,4.0152 -10.4491,7.7405 -15.8069,11.313 -9.6947,6.4639 -23.5777,14.8011 -34.5568,19.683 -1.5259,0.6786 -2.9384,1.4388 -4.5601,2.16 -1.4789,0.6579 -3.087,1.5052 -4.5964,2.1237 -12.3806,5.0743 -16.7182,6.8309 -29.636,11.164 -3.4917,1.1712 -6.8266,2.0038 -10.3821,3.058 -3.3032,0.9796 -7.4931,2.0758 -10.8882,2.7915 l -22.7752,4.3447 c -3.9371,0.6661 -7.774,1.0519 -11.922,1.5182 -3.8715,0.4354 -8.2587,0.8158 -12.2958,1.1441 l -25.4274,0.4927 c -1.8867,0 -14.4499,-0.4153 -17.2145,-0.7855 -5.1381,-0.688 -10.8241,-0.9947 -16.0118,-1.7482 -10.6293,-1.544 -20.3836,-3.2612 -30.0877,-5.6721 -8.5564,-2.126 -19.2518,-5.004 -27.5446,-8.2153 -8.4923,-3.2888 -17.1462,-6.1974 -25.2201,-10.3003 l -12.0813,-5.9185 c -9.6692,-4.831 -18.8634,-10.5752 -27.8399,-16.56 l -5.2801,-3.6 c -1.8334,-1.2061 -3.5141,-2.5973 -5.2815,-3.8384 -6.059,-4.255 -11.7059,-9.0756 -17.3503,-13.8497 l -11.5869,-10.4931 c -1.5712,-1.2132 -12.2901,-12.289 -14.4306,-14.8495 -0.4428,-0.5298 -0.4518,-0.6616 -0.966,-1.194 l -2.0427,-2.2773 c -1.5077,-1.611 -2.6668,-3.0853 -4.0963,-4.7838 -18.2288,-21.6606 -32.9097,-45.82 -44.3191,-71.8407 -2.7791,-6.3385 -5.1146,-12.6283 -7.477,-19.163 -6.6345,-18.3501 -10.8255,-37.8202 -13.6361,-57.644 -0.8844,-6.2393 -2.2186,-18.3883 -2.1767,-24.4632 0.0204,-2.9427 -0.2367,-5.4715 -0.2367,-8.6432 v -10.3201 c 0,-7.7728 0.5837,-14.9275 1.2206,-22.5391 l 1.8579,-15.1823 c 1.078,-7.721 2.5585,-15.3715 4.3112,-22.8084 0.8617,-3.6559 1.6849,-7.2352 2.719,-10.7212 0.5278,-1.7794 0.9657,-3.5448 1.5125,-5.4474 l 6.7873,-20.3329 c 4.9453,-12.6703 8.6349,-20.5413 14.6305,-32.6494 l 4.8344,-8.8456 c 5.0641,-8.3724 9.9474,-16.8916 15.8191,-24.741 l 5.7926,-7.8871 c 2.4375,-3.2633 10.6174,-13.5964 13.7763,-16.704 l 6.5878,-7.092 c 0.6522,-0.7804 0.8336,-1.0599 1.5701,-1.7898 l 10.2027,-9.9573 c 0.6338,-0.6412 1.141,-1.2005 1.7949,-1.8051 l 10.7768,-9.3835 c 11.2855,-9.1375 17.5561,-13.7047 29.2949,-21.585 6.1288,-4.1139 12.587,-7.9254 19.1543,-11.3255 3.7182,-1.9253 7.1223,-3.9935 11.1064,-5.6937 l 9.1312,-4.3087 c 7.8863,-3.6876 16.2516,-6.7898 24.4868,-9.5933 l 15.4276,-4.7324 c 12.9257,-3.7474 31.4515,-7.5909 45.4516,-8.7883 1.9819,-0.1695 4.4441,-0.4181 6.2997,-0.6604 2.8003,-0.366 7.526,-0.3592 9.4325,-0.6475 l 6.3315,-0.3883 c 1.1143,-0.0139 2.2521,0.0096 3.3698,0.0096 z"
       style="fill:none;stroke:#ffffff;stroke-width:4.7999;stroke-linecap:butt;stroke-linejoin:miter;stroke-dasharray:none"
       id="path9" />
    <path
       d="m 363.4109,342.1417 c -3.3451,0.7793 -7.9055,5.0585 -10.2194,8.2608 -5.5265,7.6484 -5.9502,16.3811 -2.3667,24.9652 0.6832,1.6365 2.3117,4.2948 3.5263,5.5937 l 2.9994,3.0004 c 7.6637,7.3219 21.8111,7.977 30.7153,1.3147 2.7956,-2.0914 7.3993,-6.711 8.225,-10.2549 41.44,0 82.88,0 124.3199,0 2.7414,0 7.0166,0.2569 9.5735,-0.0266 1.3178,-0.146 2.6371,-0.6472 3.6317,-1.1684 1.3091,-0.686 1.6787,-1.084 2.6986,-2.1011 2.5824,-2.5755 3.5949,-7.0996 2.0223,-10.55 -3.5547,-7.7984 -10.2153,-6.3139 -17.686,-6.3139 -41.5202,0 -83.0401,0 -124.56,0 -1.0057,-4.3166 -8.4033,-11.7144 -12.7202,-12.7199 V 162.3818 c 0,-5.2696 0.5015,-7.9188 -1.6869,-11.2731 -3.8015,-5.8272 -12.7057,-5.9077 -16.6583,-0.1122 -2.1793,3.1952 -1.8145,6.0715 -1.8145,11.1452 z"
       style="fill:none;stroke:#ffffff;stroke-width:4.7999;stroke-linecap:butt;stroke-linejoin:miter;stroke-dasharray:none"
       id="path11" />
  </g>
</svg>
