<?xml version="1.0" encoding="UTF-8" standalone="no"?>
<svg
   xmlns:dc="http://purl.org/dc/elements/1.1/"
   xmlns:cc="http://creativecommons.org/ns#"
   xmlns:rdf="http://www.w3.org/1999/02/22-rdf-syntax-ns#"
   xmlns:svg="http://www.w3.org/2000/svg"
   xmlns="http://www.w3.org/2000/svg"
   xmlns:sodipodi="http://sodipodi.sourceforge.net/DTD/sodipodi-0.dtd"
   xmlns:inkscape="http://www.inkscape.org/namespaces/inkscape"
   inkscape:version="1.0 (4035a4fb49, 2020-05-01)"
   sodipodi:docname="111.svg"
   viewBox="0 0 7256.6929 7256.6929"
   id="svg11"
   height=""
   width=""
   version="1.1">
  <metadata
     id="metadata17">
    <rdf:RDF>
      <cc:Work
         rdf:about="">
        <dc:format>image/svg+xml</dc:format>
        <dc:type
           rdf:resource="http://purl.org/dc/dcmitype/StillImage" />
        <dc:title></dc:title>
      </cc:Work>
    </rdf:RDF>
  </metadata>
  <defs
     id="defs15" />
  <sodipodi:namedview
     inkscape:current-layer="svg11"
     inkscape:window-maximized="0"
     inkscape:window-y="0"
     inkscape:window-x="0"
     inkscape:cy="3628.3464"
     inkscape:cx="3628.3464"
     inkscape:zoom="0.079650608"
     showgrid="false"
     id="namedview13"
     inkscape:window-height="480"
     inkscape:window-width="820"
     inkscape:pageshadow="2"
     inkscape:pageopacity="0"
     guidetolerance="10"
     gridtolerance="10"
     objecttolerance="10"
     borderopacity="1"
     bordercolor="#666666"
     pagecolor="#ffffff" />
  <path
     id="path2"
     style="fill:#ffc501;fill-rule:evenodd;stroke:#000000;stroke-width:0.5669;stroke-linecap:butt;stroke-linejoin:miter;stroke-dasharray:none"
     d="m 5385.989,3331.6352 -228.3946,-223.3562 189.209,-195.367 227.8347,228.3945 c 115.8766,-78.3705 245.1881,-117.556 388.4946,-117.556 143.8659,0 273.7375,39.1855 388.4945,117.556 l 227.8344,-228.3945 190.3289,195.367 -228.3945,223.3562 c 78.3705,120.3548 117.556,249.1068 117.556,385.6957 0,137.7082 -39.1855,267.0199 -117.556,387.3748 l 228.3945,223.3561 -190.3289,197.0463 -227.8344,-231.7532 c -114.757,80.6098 -244.6286,120.9147 -388.4945,120.9147 -143.3065,0 -272.618,-40.3049 -388.4946,-120.9147 l -227.8347,231.7532 -189.209,-197.0463 228.3946,-223.3561 c -78.3708,-120.3549 -117.5561,-249.6666 -117.5561,-387.3748 0,-136.5889 39.1853,-265.3409 117.5561,-385.6957 z m 151.1434,386.2552 c 0,118.6757 41.4242,219.438 124.8331,302.8466 82.8488,83.4089 183.0513,124.8331 300.0475,124.8331 116.9962,0 217.1987,-41.4242 300.0478,-124.8331 83.4086,-83.4086 124.8332,-184.1709 124.8332,-302.8466 0,-116.996 -41.4246,-217.1984 -123.7139,-300.6073 -82.8488,-83.4086 -183.0512,-124.8332 -301.1671,-124.8332 -116.9962,0 -217.1987,41.4246 -300.0475,124.8332 -83.4089,83.4089 -124.8331,183.6113 -124.8331,300.6073 z" />
  <g
     id="Layer1000">
    <path
       id="path4"
       style="fill:#fd6ad2;fill-rule:evenodd;stroke:#000000;stroke-width:0.5669;stroke-linecap:butt;stroke-linejoin:miter;stroke-dasharray:none"
       d="m 1245.5182,2827.5547 423.9122,307.9903 423.9122,307.9902 -161.92,498.3387 -161.9201,498.3387 H 1245.5183 721.5339 L 559.6139,3941.874 397.6938,3443.5352 821.606,3135.545 Z" />
    <path
       id="path6"
       style="fill:#7f3a70;fill-rule:evenodd"
       d="M 1590.7593,4186.9993 686.9098,3530.3097 h 419.9736 l 697.2428,7e-4 -903.8503,656.6889 345.2417,-1062.5406 z M 1706.1038,4344.6828 500.2774,3468.5936 H 1990.7593 L 784.9321,4344.6828 1245.5183,2927.1457 Z m -745.2431,-541.4529 19.4206,-59.7712 51.8658,37.6831 -19.4206,59.7704 z m 88.6773,-272.9202 20.0525,-61.7161 h 64.11 l -20.0526,61.7168 z m 327.8486,7e-4 -20.0526,-61.7168 h 64.1107 l 20.0533,61.7168 z m 100.9214,310.6025 -19.4206,-59.7704 51.8665,-37.6838 19.4206,59.7712 z m -283.6341,132.1925 50.8437,-36.9396 50.8437,36.9403 -50.8437,36.9397 z" />
  </g>
  <path
     id="path9"
     style="fill:#02d402;fill-rule:evenodd;stroke:#000000;stroke-width:0.5669;stroke-linecap:butt;stroke-linejoin:miter;stroke-dasharray:none"
     d="m 2460.2264,3909.5082 v -333.1874 h 1590.7005 v -187.4662 l 709.3868,354.06 -709.3868,354.06 v -187.4664 z" />
</svg>
