<?xml version="1.0" encoding="UTF-8" standalone="no"?>
<svg
   xmlns:dc="http://purl.org/dc/elements/1.1/"
   xmlns:cc="http://creativecommons.org/ns#"
   xmlns:rdf="http://www.w3.org/1999/02/22-rdf-syntax-ns#"
   xmlns:svg="http://www.w3.org/2000/svg"
   xmlns="http://www.w3.org/2000/svg"
   xmlns:sodipodi="http://sodipodi.sourceforge.net/DTD/sodipodi-0.dtd"
   xmlns:inkscape="http://www.inkscape.org/namespaces/inkscape"
   inkscape:version="1.0 (4035a4fb49, 2020-05-01)"
   sodipodi:docname="1.svg"
   id="svg16"
   version="1.1"
   viewBox="0 0 256 256"
   cursor="default">
  <metadata
     id="metadata22">
    <rdf:RDF>
      <cc:Work
         rdf:about="">
        <dc:format>image/svg+xml</dc:format>
        <dc:type
           rdf:resource="http://purl.org/dc/dcmitype/StillImage" />
      </cc:Work>
    </rdf:RDF>
  </metadata>
  <defs
     id="defs20" />
  <sodipodi:namedview
     inkscape:current-layer="svg16"
     inkscape:window-maximized="1"
     inkscape:window-y="-8"
     inkscape:window-x="-8"
     inkscape:cy="74.851211"
     inkscape:cx="128"
     inkscape:zoom="2.2578125"
     showgrid="false"
     id="namedview18"
     inkscape:window-height="746"
     inkscape:window-width="1304"
     inkscape:pageshadow="2"
     inkscape:pageopacity="0"
     guidetolerance="10"
     gridtolerance="10"
     objecttolerance="10"
     borderopacity="1"
     bordercolor="#666666"
     pagecolor="#ffffff" />
  <path
     id="path2"
     d="M217.826 76.776l7.206-45.117-18.78-22.811-43.904.512-36.905 19.888L40.77 210.896l3.913 19.64 24.88 15.47 21.052 1.982z"
     stroke-width="1.617"
     stroke="#000"
     fill-rule="evenodd"
     fill="#faa" />
  <path
     id="path4"
     d="M83.479 143.643l-27.558 36.216 70.042-150.043 25.895 7.78-8.786 26.787zM162.615 10.009l41.768-.382-10.47 11.279-41.227 16.036-25.288-7.764z"
     fill-rule="evenodd"
     fill-opacity=".259"
     fill="#f9f9f9" />
  <path
     id="path6"
     d="M205.91 8.654l-11.698 12.542 30.013 10.407M194.212 21.196l-41.527 16.116-27.053-8.056"
     stroke-width="1.061"
     stroke="#000"
     fill="none" />
  <path
     id="path8"
     d="M152.527 37.143l-8.834 26.996 22.615 21.077 51.543-8.549M166.218 85.205l-21.834 90.574M143.77 64.248L53.564 183.693M84.288 143.043L44.64 230.417M97.521 216.87l57.17-83.411M90.52 247.728c.08-.555 7.222-31.273 7.222-31.273L51.52 215.38"
     stroke-width="1.061"
     stroke="#000"
     fill="none" />
  <path
     id="path10"
     d="M69.652 246.087L44.869 230.45l6.978-15.114 46.034 1.126-7.572 31.327zM90.677 247.635l7.212-30.737 55.87-81.826-9.529 40.461c-19.899 27.016-31.495 42.276-53.553 72.102zM144.741 175.39l21.728-90.056 51.088-8.276-19.679 26.58c-20.264 26.373-31.079 41.927-53.137 71.753z"
     fill-rule="evenodd"
     fill-opacity=".259" />
  <path
     id="path14"
     d="M163.452 10.937l13.816-.198-39.556 20.196-8.134-2.045zM126.756 31.323l8.435 2.504-67.43 128.447-6.979 9.408z"
     fill-rule="evenodd"
     fill="#fff" />
</svg>
