<?xml version="1.0" encoding="UTF-8" standalone="no"?>
<svg
   xmlns:dc="http://purl.org/dc/elements/1.1/"
   xmlns:cc="http://creativecommons.org/ns#"
   xmlns:rdf="http://www.w3.org/1999/02/22-rdf-syntax-ns#"
   xmlns:svg="http://www.w3.org/2000/svg"
   xmlns="http://www.w3.org/2000/svg"
   xmlns:sodipodi="http://sodipodi.sourceforge.net/DTD/sodipodi-0.dtd"
   xmlns:inkscape="http://www.inkscape.org/namespaces/inkscape"
   inkscape:version="1.0 (4035a4fb49, 2020-05-01)"
   sodipodi:docname="3.svg"
   id="svg42"
   version="1.1"
   viewBox="0 0 256 256"
   cursor="default">
  <metadata
     id="metadata48">
    <rdf:RDF>
      <cc:Work
         rdf:about="">
        <dc:format>image/svg+xml</dc:format>
        <dc:type
           rdf:resource="http://purl.org/dc/dcmitype/StillImage" />
      </cc:Work>
    </rdf:RDF>
  </metadata>
  <defs
     id="defs46" />
  <sodipodi:namedview
     inkscape:current-layer="svg42"
     inkscape:window-maximized="1"
     inkscape:window-y="-8"
     inkscape:window-x="-8"
     inkscape:cy="128"
     inkscape:cx="128"
     inkscape:zoom="2.2578125"
     showgrid="false"
     id="namedview44"
     inkscape:window-height="746"
     inkscape:window-width="1304"
     inkscape:pageshadow="2"
     inkscape:pageopacity="0"
     guidetolerance="10"
     gridtolerance="10"
     objecttolerance="10"
     borderopacity="1"
     bordercolor="#666666"
     pagecolor="#ffffff" />
  <path
     id="path8"
     d="M217.826 76.776l7.206-45.117-18.78-22.811-43.904.512-36.905 19.888-42.5 91.174-4.791-39.898-17.5-4.851-18.514 9.954-3.34 18.434 4.096 61.73-2.124 45.105 3.913 19.64 24.88 15.47 21.052 1.982 26.496-35.661 58.421-54.287 55.258-35.559 3.91-12.233-16.19-4.098-16.672.884-8.818 3.128z"
     stroke-width="1.617"
     stroke="#000"
     fill-rule="evenodd"
     fill="#faa" />
  <path
     id="path10"
     d="M74.009 142.76l9.312-22.374 42.642-90.57 25.895 7.78-8.786 26.787zM162.615 10.009l41.768-.382-10.47 11.279-41.227 16.036-25.288-7.764z"
     fill-rule="evenodd"
     fill-opacity=".259"
     fill="#f9f9f9" />
  <path
     id="path12"
     d="M205.91 8.654l-11.698 12.542 30.013 10.407M194.212 21.196l-41.527 16.116-27.053-8.056"
     stroke-width="1.061"
     stroke="#000"
     fill="none" />
  <path
     id="path14"
     d="M152.527 37.143l-8.834 26.996 22.615 21.077 51.543-8.549M166.218 85.205l-49.156 126.288M143.77 64.248l-70.404 79.767-21.081 2.13-9.613 19.69M73.395 144.115l-3.22 69.516M97.521 216.87l40.562-59.483M90.52 247.728c.08-.555 7.222-31.273 7.222-31.273l-56.758-6.075"
     stroke-width="1.061"
     stroke="#000"
     fill="none" />
  <path
     id="path16"
     d="M69.652 246.087L44.869 230.45l-3.557-19.578 56.57 5.59-7.573 31.327zM90.677 247.635l7.212-30.737 38.445-56.067-18.368 50.31zM150.928 125.514l15.541-40.18 51.088-8.276-23.972 32.893z"
     fill-rule="evenodd"
     fill-opacity=".259" />
  <path
     id="path18"
     d="M42.143 85.821l10 4.286L52.32 146"
     stroke="#000"
     fill="none" />
  <path
     id="path20"
     d="M51.786 90.375l18.393-2.768 7.314-6.674"
     stroke="#000"
     fill="none" />
  <path
     id="path22"
     d="M83.036 120.107l-10.179 24.107"
     stroke-width="1.617"
     stroke="#000"
     fill="none" />
  <path
     id="path24"
     d="M70.3 87.87l12.533 28.729"
     stroke="#000"
     fill="none" />
  <path
     id="path26"
     d="M81.878 113.594L70.416 87.477l7.555-6.699.443.982 3.476 30.632z"
     fill-rule="evenodd"
     fill-opacity=".259" />
  <path
     id="path28"
     d="M60.715 76.06l16.143 4.796-6.899 6.547-17.299 2.733-9.662-4.283zM70.176 213.383l-29.326-3.307 2.236-45.365 9.354-18.358 20.886-2.256zM52.284 146.268l-9.237 17.943-3.835-60.008 3.104-17.554 9.547 3.548z"
     fill-rule="evenodd"
     fill-opacity=".259"
     fill="#f9f9f9" />
  <path
     id="path30"
     d="M193.214 110.107l-42.857 15.67"
     stroke-width="1.617"
     stroke="#000"
     fill="none" />
  <path
     id="path32"
     d="M202.143 140.464l-40.525 4.55-16.797 41.165M233.929 111l-12.5 1.071-20.358-4.642M221.429 112.25l-83.384 45.348"
     stroke="#000"
     fill="none" />
  <path
     id="path34"
     d="M117.651 211.494l20.213-53.566 83.561-45.714 12.622-1.239-3.427 11.53-55.033 35.545z"
     fill-rule="evenodd"
     fill-opacity=".259" />
  <path
     id="path36"
     d="M201.437 107.194l10.327 2.648 8.85 2.566-81.887 44.448 12.089-31.503z"
     fill-rule="evenodd"
     fill-opacity=".259"
     fill="#f9f9f9" />
  <path
     id="path40"
     d="M163.452 10.937l13.816-.198-39.556 20.196-8.134-2.045zM126.756 31.323l8.435 2.504-51.647 96.375-7.104 8.65zM60.831 77.373l6.139 1.409-16.7 9.125-5.187-2.046zM43.482 88.34l3.257.897-.955 3.352-5.38 11.072zM201.471 108.47l4.71 1.409-56.164 21.267 1.598-3.474z"
     fill-rule="evenodd"
     fill="#fff" />
</svg>
