<svg xmlns="http://www.w3.org/2000/svg" viewBox="0 0 725.669 725.669"><path d="M281.59 227.901l.082-.057.23-.152 9.504-5.305.135-.068c1.487-.75 2.807-1.734 4.335-2.498 1.694-.847 3.48-1.41 5.142-2.249 33.935-17.115 80.553-20.987 117.543-13.564 7.544 1.514 15.297 3.725 22.635 6.029 4.213 1.322 8.767 2.805 13.148 4.518 3.409-14.171 10.947-34.007 16.254-42.752l1.041-1.716c4.33-7.127 9.495-15.398 17.78-18.284 6.12-2.133 12.293-.712 17.756 2.467 2.59 1.506 4.663 3.009 6.834 5.058.66.623 1.304 1.238 2.012 1.808.944.76 1.837 1.351 2.763 2.197l.303.277 8.924 10.289.033.04c12.391 14.713 22.228 32.071 28.731 50.162 12.687 35.295 15.342 82.572 2.47 118.182-1.722 4.765-3.716 9.137-5.966 13.661-1.87 3.763-3.954 7.34-6.485 10.699-.637.845-2.165 2.556-2.602 3.437-.093.19-.105 1.048-.105 1.242-.016 12.018-.861 23.99-1.223 35.995l.006 46.947c0 3.105.653 6.063.654 9.245.002 8.564 1.333 17.09 1.806 25.633.052.942.113 1.885.182 2.829 11.386-1.287 24.39-2.001 34.943-.498 8.633 1.228 15.27 4.649 19.4 9.953l.281.047-.033.278c4.032 5.384 5.543 12.647 4.023 21.482-3.05 17.736-13.019 34.108-24.078 47.986-.939 1.18-1.81 2.36-2.842 3.47-4.336 4.655-8.355 9.2-12.875 13.546l3.942 14.423H545.13c-4.054 2.28-8.175 4.328-12.498 6.138-4.955 2.074-10.052 3.835-15.116 5.625-2.081.9-4.908 1.523-7.05 2.014a178.08 178.08 0 01-10.634 2.083c-4.615.766-9.831 1.54-14.512 1.489-15.097.066-30.385-3.092-42.912-11.884a54.747 54.747 0 01-6.623-5.465H373.45l-.699-6.306c-1.384-12.5-2.017-25.907-.611-38.426.183-1.63.09-3.423.041-5.172-3.16.658-6.329 1.264-9.516 1.8a238.988 238.988 0 01-39.691 3.297c-26.845 0-44.754-3.186-69.432-13.734-26.989-11.536-48.377-31.665-60.026-58.78-4.365-10.162-9.188-21.375-1.535-31.428 5.979-7.856 14.35-7.926 21.886-12.965 1.407-.942 6.713-4.258 8.29-5.803-.136-1.415-.94-4.222-1.203-5.259-2.904-11.456-4.566-22.64-6.191-34.32-.359-2.578-.789-5.16-.93-7.762-.362-6.678-.894-13.42-1.049-20.101-.199-8.606.437-17.345 1.016-25.927.958-14.202 4.155-27.654 8.821-41.049a78.189 78.189 0 012.412-6.034c-1.969-1.88-3.865-3.937-5.467-5.665-4.268-4.605-8.384-9.383-12.43-14.182-6.546-7.761-13.282-15.84-19.354-23.978a2109.323 2109.323 0 01-19.662-26.827c-3.904-5.408-7.788-10.834-11.6-16.305-2.731-3.92-5.562-7.948-8.03-12.036-.857-1.42-1.695-2.853-2.556-4.27-2.987-4.913-5.65-10.51-7.632-15.897-2.936-7.98-5.719-19.267.128-26.615 3.346-4.207 8.41-5.71 13.617-5.572 4.127.11 10.73 1.82 14.43 3.658 1.722.855 3.207 1.925 4.87 2.79 1.477.77 2.986 1.48 4.475 2.225 22.105 11.052 42.157 25.452 61.871 40.237 6.155 4.616 12.221 9.413 18.215 14.236 6.031 4.852 12.283 9.868 17.961 15.13z" fill-rule="evenodd" stroke="#000" stroke-width=".567"/><g fill-rule="evenodd" stroke-width=".567"><path d="M260.563 301.153v189.093h170.989V301.153z" fill="#fff" stroke="#fff"/><path d="M550.643 564.372c1.562 3.269 4.57 16.764 5.568 21.035-2.993-.7-4.902-1.726-6.967-3.544-2.859-2.518-2.663-3.225-3.808-7.328-6.067-21.754-8.916-28.417-12.543-53.653-1.643-11.43-3.939-27.773-4.518-39.408l-1.24-20.415c-.192-3.565.263-7.583-.029-11.107-1.742-21.053-1.544-51.575 1.508-72.804.234-2.516-.279-1.962.608-3.71 1.864-3.675 4.491-6.664 6.14-10.569 9.966-23.584 15.906-45.591 15.905-72.567 0-26.698-4.308-49.791-15.253-72.602-6.13-12.776-16.799-29.122-26.98-39.218-2.02-2.003-3.108-4.076-5.305-5.832-9.795-7.83-10.567-3.955-17.677 6.658-4.542 6.78-7.97 13.96-11.066 21.724-1.175 2.95-1.978 5.085-2.994 8.143-3.727 11.222-6.634 23.38-8.397 35.53-2.494 17.191-2.356 35.325-.748 52.346.28 2.965 1.181 6.864 1.181 9.952-1.764-2.043-2.628-3.428-3.724-6.168-.981-2.452-1.919-5.053-2.523-7.993-1.819-8.841-2.388-19.112-2.41-28.525-.016-7.277.817-13.089 1.26-19.776.201-3.026.98-6.469 1.216-9.304-34.217-16.4-73.81-22.094-111.727-14.592-8.34 1.65-14.757 3.83-22.139 6.321-6.973 2.353-13.3 5.473-19.779 8.68-16.152 7.999-30.842 19.93-43.267 32.832l-8.492 10.687c-5.184 7.343-10.02 16.127-12.922 24.818-1.687 5.051-2.969 9.684-4.278 14.901-1.351 5.382-2.267 10.283-3.22 15.96l-2.027 17.152c-.702 5.374-1.541 20.91-.707 26.42.497 3.283.025 6.34.294 9.604.961 11.677 2.636 22.732 4.653 33.706 4.13 22.479 5.927 23.493-17.506 33.93-3.853 1.716-9.489 4.007-10.913 8.27-4.793 14.349 20.057 42.93 27.448 47.864l9.896 6.182c2.029 3.047 11.769 7.477 15.458 9.295 11.619 5.722 25.301 10.087 38.45 12.283 31.07 5.19 62.33 1.474 91.949-4.404 6.521-1.294 13.979-4.245 20.567-4.795-1.76 2.39-14.184 8.4-17.942 9.274 0 2.208-.437 5.272-.723 7.94l-1.154 24.874 1.742 23.133h-11.713c-1.47-13.27-1.807-26.217-.613-36.855.288-2.568-.007-5.373.07-7.973.094-3.156.639-3.396.639-6.785-3.024.067-24.274 6.804-56.918 6.805-26.883.001-43.077-3.09-66.646-13.163-25.178-10.762-45.317-29.494-56.3-55.062-3.463-8.061-7.87-17.16-2.408-24.338 4.537-5.961 11.84-5.785 20.186-11.367 12.66-8.465 12.752-7.906 10.018-18.693-3.004-11.848-4.336-21.3-6.042-33.555-.353-2.54-.752-4.955-.872-7.17-1.13-20.872-1.695-20.612-.04-45.167.944-13.982 4.073-26.646 8.445-39.194.764-2.197 1.389-3.686 2.305-5.737.823-1.84 1.428-3.576 2.262-5.16 1.177-2.227 1.943-4.635 3.094-6.806.739-1.534.775-2.214 1.73-3.84l12.238-18.077c1.07-1.369 1.044-1.463 2.262-2.687l20.892-19.324c1.775-1.19 5.69-3.43 6.804-4.947 1.987-.53 2.975-1.588 4.695-2.732l9.132-5.097c1.972-.993 2.498-1.58 4.317-2.488 1.906-.953 3.198-1.268 5.164-2.26 32.79-16.538 77.936-19.972 112.958-12.944 10.416 2.09 32.627 8.525 42.533 13.766.921-11.063 10.832-39.15 16.956-49.242 6.71-11.056 13.498-22.915 26.955-15.085 4.672 2.718 5.196 4.032 7.967 6.262 1.055.849 1.292.871 2.424 1.907l8.621 9.94c11.29 13.404 20.991 29.935 27.483 47.995 11.728 32.626 15.097 78.455 2.475 113.375-1.81 5.007-3.462 8.52-5.647 12.915-6.635 13.343-9.926 11.71-9.934 18.524-.016 12.24-.86 23.77-1.223 35.898l.006 47.054c-.017 4.104.654 5.337.654 9.245.001 8.786 1.366 17.868 1.817 26.024.619 11.166 2.556 23.332 4.263 33.476.938 5.576 1.61 10.391 2.713 15.847l2.941 15.62z" fill="#e97d50" stroke="#e97d50"/><path d="M310.747 351.079c-3.344 3.573-11.1 14.897-13.348 19.442-12.39 25.036-15.386 51.984-9.069 79.32 8.311 13.67 18.47 28.106 34.408 33.102 2.232.7 5.828 1.51 8.27 1.628 9.762.469 16.631-1.035 24.547-4.544 8.602-3.813 10.468-5.816 18.152-10.93 39.53-26.485 62.785-128.342 3.637-144.984-6.851-2.78-25.948-1.867-37.163 3.14-4.086 1.825-7.417 2.33-13.95 7.954-7.048 6.067-13.104 13.259-15.484 15.872zm248.242 244.493H391.51l-1.743-23.133 1.154-24.873c.286-2.67.723-5.733.723-7.94l-2.625-4.48c-29.618 5.878-60.88 9.594-91.95 4.404-13.148-2.196-26.83-6.561-38.448-12.284-3.69-1.817-13.43-6.247-15.46-9.294l-9.895-6.182c-7.39-4.934-32.241-33.516-27.448-47.865 1.424-4.262 7.06-6.553 10.913-8.269 23.434-10.437 21.636-11.451 17.506-33.93-2.017-10.974-3.692-22.028-4.653-33.706-.27-3.264.203-6.321-.294-9.604-.834-5.51.006-21.046.707-26.42l2.027-17.153c.953-5.676 1.869-10.577 3.22-15.959 1.31-5.217 2.592-9.85 4.278-14.9 2.902-8.692 7.738-17.476 12.922-24.819l8.492-10.687c12.426-12.901 27.115-24.833 43.267-32.831 6.478-3.208 12.806-6.328 19.779-8.68 7.382-2.492 13.8-4.672 22.139-6.322 37.917-7.502 77.51-1.808 111.727 14.592l6.948 2.144c1.762-12.15 3.47-16.984 7.197-28.206 1.015-3.058 1.819-5.192 2.994-8.143 3.095-7.764 6.524-14.943 11.066-21.724 7.11-10.612 7.882-14.487 17.677-6.658 2.197 1.756 3.285 3.829 5.305 5.832 10.181 10.096 20.85 26.442 26.98 39.218 10.945 22.81 15.253 45.904 15.253 72.602 0 26.976-5.94 48.983-15.904 72.567-1.65 3.905-4.277 6.894-6.141 10.57-.887 1.747-.374 1.193-.608 3.71l-2.091 23.892c.886 16.049-.728 33.055.583 48.911.292 3.524-.163 7.542.03 11.107l1.239 20.415c.58 11.635 2.875 27.978 4.518 39.407 3.627 25.237 6.476 31.9 12.544 53.654 1.144 4.104.948 4.81 3.807 7.327 2.065 1.819 3.974 2.846 6.967 3.545z" fill="#fdf7ed" stroke="#fdf7ed"/><path d="M389.132 585.5h167.105l2.753 10.072H389.132z" fill="#e97d50" stroke="#e97d50"/><path d="M453.938 519.194l21.247-.47 47.227-11.038 37.33-5.858 32.56 5.508-3.327 27.988-26.475 38.898-34.476 25.073-46.01 9.379-32.769-7.805-15.64-24.157-3.289-14.392 3.354-12.744 4.951-14.985z" fill="#fdf7ed" stroke="#fdf7ed"/><path d="M553.943 565.17c1.912-1.256 3.492-2.223 5.355-3.418l16.079-10.246c-.477 2.06-3.395 5.647-4.62 7.392-2.26 3.217-13.713 16.663-16.293 18.798-7.315 6.057-19.649 16.095-28.499 18.142.732-2.762 6.464-7.556 6.464-17.091zm-17.82-20.59c1.752-.408 25.539-13.143 27.047-14.046l26.52-14.118c0 6.213-4.378 17.082-7.08 22.476-2.852 5.696-2.367 6.43-6.111 8.666-5.55 3.314-42.008 27.381-44.531 27.965.308-3.722 7.849-9.794 7.849-19.858 0-6.19-1.736-7.353-3.694-11.085zm22.893-34.823c10.294-3.916 11.307-6.449 22.182-3.32 4.43 1.274 6.495 3.068 8.03 6.293-2.26.526-11.013 5.746-14 7.24l-34.675 18.421c-1.585.949-5.534 3.04-7.196 3.427-1.66-1.106-2.966-2.289-4.93-3.384-4.892-2.726-14.203-5.701-19.545-4.465-.567-1.186-.82-2.514-1.385-3.702zm-63.062 9.429c2.209-.184 27.589-8.053 31.584-9.05 10.895-2.717 21.995-5.263 35.373-5.263l-42.414 17.157c-20.129 8.045-11.827 5.979-18.993.85-2.475-1.771-4.658-2.464-5.55-3.694zm14.771 80.346l4.155 8.304c11.799-4.174 18.626-6.478 29.535-12.95 1.247-.739 2.116-1.48 3.255-2.284l6.102-4.517c1.063-.935 1.775-1.41 2.778-2.302 6.424-5.715 9.559-9.578 15.47-15.925.903-.97 1.661-2.02 2.486-3.055 10.018-12.572 19.767-28.088 22.636-44.771 2.596-15.092-5.537-21.814-17.686-23.544-11.847-1.686-28.963-.126-39.614 1.335-19.3 2.646-32.288 7.898-49.248 13.543-2.856.95-5.197 1.733-7.965 2.655-1.419.503-6.55 2.09-7.444 2.703 5.144.429 13.984 3.605 18.278 6.192 2.106 1.269 4.689 4.26 6.01 6.458 1.388 2.309 2.687 5.859 2.953 9.05 10.675-2.504 35.302 3.113 27.25 23.562-1.665 4.228-2.998 5.503-5.193 8.673-2.133 3.08 2.888 12.01-6.008 20.76-2.589 2.547-4.441 4.386-7.75 6.113zm4.155 8.304l-4.155-8.304c-32.238 15.454-88.508-8.718-74.857-53.167 5.305-17.275 15.176-22.898 18.07-27.171-40.018 12.067-42.606 94.092 31.407 93.726 8.18.103 26.7-3.738 29.535-5.084z" fill="#e97d50" stroke="#e97d50"/><path d="M327.884 334.856c-5.72 3.933-12.317 11.072-17.138 16.223-3.343 3.573-11.099 14.898-13.347 19.442-12.992 26.256-14.138 50.569-9.069 79.32 6.564 10.266 11.546 16.78 15.61 21.118 5.957 5.55 12.206 9.633 18.799 11.984 2.23.7 5.827 1.51 8.27 1.628 9.76.469 16.63-1.035 24.546-4.544 8.602-3.813 10.468-5.816 18.152-10.929 39.955-26.77 30.935-139.964-45.823-134.243z" fill="#dfb62a" stroke="#dfb62a"/><path d="M288.33 449.84l-.11-2.384c-.645-13.064-3.088-13.93-2.387-35.295.475-14.448 5.215-28.805 11.566-41.64 2.248-4.545 10.004-15.87 13.347-19.442 4.82-5.15 11.418-12.29 17.138-16.223 16.82-13.355 46.205-17.698 64.17-4.136 13.282 10.024 20.665 29.88 20.665 46.158 2.226-.051 2.727-.547 4.91-.581l-.738-7.41-1.118-7.437c-4.67-16.018-6.984-25.576-21.033-36.502-27.194-18.177-60.832-6.913-81.82 14.075-25.138 25.138-36.616 63.925-28.434 98.653z" fill="#e97d50" stroke="#e97d50"/><path d="M274.047 241.461l-1.618-2.887-46.645-42.596-70.769-42.363-8.186 5.807 7.311 23.707 50.2 70.52 32.305 32.07z" fill="#fdf7ed" stroke="#fdf7ed"/><path d="M183.042 220.894c13.005 0 39.692-6.9 49.865-13.713 2.797 1.48 33.504 25.963 36.153 29.919-13.765 7.283-39.987 14.336-61.086 14.336-1.856 0-2.753-2.007-3.664-3.192zm-21.193-31.79c6.962 0 15.747-3.051 21.11-5.07 2.989-1.125 6.005-3.257 8.82-4.347 2.882-1.116 4.562 1.038 8.716 3.807 5.31 3.541 10.106 7.09 15.466 10.714 2.19 1.48 13.675 9.634 15.076 11.726-2.18.508-3.101 1.33-5.25 2.23-2.364.99-3.33 1.455-5.696 2.406-4.18 1.682-7.15 2.534-11.864 3.72-4.11 1.033-9.075 2.107-12.892 2.69-2.977.455-12.562 1.276-14.163 2.044zm-12.467-29.919c3.499-.934-.277-1.247 4.987-1.247 8.92 0 32.345 17.683 36.153 18.7v1.247c-3.907.91-14.85 8.726-30.543 8.726-.23-.858-6.68-12.495-9.183-18.866-1.282-3.263-1.413-4.245-1.413-8.56zm84.146 133.39l.866.514 2.926-6.783-.675-.587-27.424-31.79c18.508 0 38.756-5.172 55.396-11.922 2.27-.921 4.414-2.45 6.936-3.037l2.493 2.491c1.788-1.2 5.732-3.455 6.855-4.984l-11.684-9.507c-7.825-7.275-27.02-22.483-35.776-29.05-19.277-14.456-39.006-28.676-60.788-39.566-1.718-.859-3.056-1.484-4.579-2.277-1.852-.965-2.703-1.714-4.75-2.73-2.45-1.218-8.17-2.833-11.466-2.921-18.843-.503-5.668 27.78.13 37.319.963 1.583 1.578 2.647 2.569 4.289 6.157 10.2 31.103 44.136 38.905 54.592 5.556 7.447 32.458 40.843 40.067 45.95z" fill="#e97d50" stroke="#e97d50"/></g></svg>