<svg xmlns="http://www.w3.org/2000/svg" viewBox="0 0 725.669 725.669"><path d="M519.714 526.135c2.08-.88 4.139-1.825 6.188-2.852 4.471-2.24 9.234-4.308 13.793-6.381a724.282 724.282 0 019.252-4.148c1.849-.81 4.926-2.297 6.895-2.461l9.698-.808-1.195 5.13c3.942-2.082 7.866-4.198 11.797-6.3 4.475-2.392 8.958-4.788 13.488-7.074 2.748-1.386 6.796-3.538 9.763-4.23l11.5-2.678-3.046 11.408c-1.077 4.035-7.522 11.552-10.285 14.872-3.133 3.766-6.582 7.956-10.043 11.423l-12.392 13.078-.067.068c-1.407 1.406-2.834 2.79-4.232 4.204a36.078 36.078 0 00-1.721 1.883c-3.756 4.376-6.644 7.857-11.17 11.64-8.975 7.502-17.028 15.86-26.322 22.889.75 2.569 1.376 5.279 1.913 7.456.794 3.223 1.534 6.454 2.285 9.684l3.18 11.807 2.44 8.927h-73.034c2.212 1.011 4.166 2.458 5.514 4.871.404.725.717 1.497.932 2.3l2.105 7.885-23.175 2.797c-6.112.87-12.16.328-18.288.36-10.804.055-23.144-2.58-31.937-9.057-3.797-2.797-7.313-5.771-10.146-9.156h-56.661l-.699-6.307c-1.457-13.159-2.124-27.275-.645-40.455.212-1.886.077-3.97.033-5.977a269.346 269.346 0 01-10.422 1.982 251.761 251.761 0 01-41.872 3.482c-28.27.001-47.113-3.35-73.1-14.458-28.383-12.132-50.876-33.297-63.126-61.812-4.54-10.57-9.635-22.302-1.669-32.768 6.217-8.168 15.11-8.317 22.998-13.591 1.455-.973 7.416-4.719 8.934-6.299-.096-1.446-1.02-4.7-1.296-5.792-3.06-12.072-4.811-23.86-6.523-36.166-.377-2.71-.83-5.424-.978-8.158-.382-7.042-.943-14.15-1.106-21.196-.21-9.067.46-18.276 1.07-27.319 1.009-14.949 4.376-29.107 9.287-43.207.79-2.266 1.677-4.423 2.656-6.613.876-1.96 1.58-3.95 2.589-5.86 1.195-2.265 1.992-4.74 3.195-7.05.728-1.533 1.125-2.886 2.05-4.462l.116-.196.127-.188c17.392-25.692 34.28-42.786 61.522-57.99l.132-.074.134-.067c1.57-.792 2.962-1.83 4.573-2.635 1.787-.894 3.672-1.488 5.427-2.373 35.725-18.019 84.821-22.092 123.762-14.277 7.945 1.594 16.112 3.924 23.841 6.35 4.57 1.434 9.522 3.048 14.264 4.921 3.35-14.155 10.753-33.963 16.311-43.89 1.022-14.633 1.988-29.275 3.117-43.9.846-10.969 1.743-22.056 3.244-32.957.905-6.576 2.087-13.965 4.401-20.202 1.94-5.226 5.103-10.38 10.837-11.93.86-.232 1.742-.368 2.633-.41l.267-.012.267.008c1.615.046 3.2.368 4.699.972 10.06 4.052 12.31 19.185 13.581 28.575 1.205 8.893 1.928 17.86 2.759 26.82a78.612 78.612 0 014.314-4.087c4.654-4.064 10.359-7.692 16.822-6.92 2.371.282 4.574 1.137 6.557 2.447 7.803 4.634 7.46 15.079 6.204 22.908-1.575 9.832-5.059 20.467-8.697 30.308 9.313 2.405 18.047 7.539 20.6 17.479l.124.48.055.493c1.013 9.035-3.758 16.248-10.18 21.79a175.27 175.27 0 019.513 21.706c13.355 37.15 16.156 86.94 2.606 124.424-1.812 5.012-3.91 9.612-6.276 14.372-1.964 3.948-4.15 7.702-6.805 11.226-.698.927-2.3 2.715-2.783 3.688-.147.296-.152 1.18-.152 1.483-.016 12.678-.908 25.308-1.29 37.972l.007 49.538c0 3.278.689 6.399.69 9.754 0 9.044 1.406 18.044 1.906 27.065.402 7.264 1.288 14.565 2.367 21.818z" fill-rule="evenodd" stroke="#000" stroke-width=".567"/><g fill-rule="evenodd"><path d="M223.065 313.445h172.287v205.14H223.065z" fill="#fff" stroke="#000" stroke-width=".567"/><path d="M523.343 583.668c1.648 3.448 4.821 17.687 5.874 22.193-3.157-.738-2.909 3.719-5.087 1.8-3.017-2.656-5.073-8.941-6.28-13.27-6.403-22.953-9.408-29.983-13.235-56.608-1.733-12.059-4.155-29.302-4.766-41.578l-1.308-21.538c-.203-3.761.277-8.001-.031-11.719-1.838-22.212-1.629-54.414 1.59-76.812.248-2.655-.293-2.07.642-3.914 1.967-3.878 4.739-7.032 6.48-11.15 10.512-24.884 16.78-48.103 16.779-76.564 0-28.168-4.545-52.533-16.092-76.598-6.468-13.48-17.725-30.726-28.467-41.378-2.13-2.113-3.279-4.3-5.596-6.153-10.335-8.261-11.15-4.173-18.65 7.024-4.793 7.154-8.41 14.728-11.676 22.92-1.24 3.113-2.087 5.365-3.159 8.591-3.932 11.84-7 24.668-8.859 37.486-2.631 18.138-2.486 37.27-.789 55.229.296 3.128 1.246 7.242 1.246 10.5-1.862-2.156-2.773-3.617-3.93-6.508-1.034-2.587-2.024-5.332-2.662-8.433-1.918-9.328-2.519-20.164-2.541-30.096-.018-7.677.86-13.81 1.329-20.864.212-3.193 1.034-6.825 1.283-9.817-36.101-17.303-77.875-23.31-117.88-15.395-8.798 1.741-15.568 4.04-23.357 6.67-7.357 2.482-14.033 5.773-20.868 9.158-17.041 8.438-32.54 21.027-45.649 34.639l-8.96 11.275c-5.47 7.747-10.572 17.015-13.633 26.185-1.78 5.329-3.132 10.217-4.514 15.72-1.425 5.68-2.391 10.85-3.397 16.839l-2.139 18.096c-.74 5.67-1.625 22.062-.746 27.875.525 3.464.027 6.69.31 10.134 1.015 12.32 2.782 23.983 4.91 35.56 4.357 23.717 6.254 24.788-18.47 35.8-4.065 1.81-10.011 4.226-11.514 8.724-5.057 15.139 21.162 45.294 28.96 50.5l10.44 6.522c2.14 3.215 12.417 7.889 16.31 9.806 12.258 6.038 26.694 10.643 40.566 12.96 32.781 5.476 65.763 1.555 97.012-4.646 6.88-1.366 14.748-4.48 21.7-5.06-1.859 2.522-14.966 8.863-18.93 9.786 0 2.329-.462 5.561-.764 8.377l-1.217 26.243 1.838 24.406h-12.358c-1.55-14-1.907-27.66-.647-38.884.305-2.71-.007-5.668.075-8.411.098-3.33.673-3.584.673-7.159-3.19.07-25.61 7.179-60.051 7.18-28.363 0-45.449-3.26-70.315-13.888-26.565-11.355-47.812-31.118-59.4-58.094-3.654-8.505-8.305-18.106-2.54-25.678 4.786-6.29 12.49-6.103 21.297-11.992 13.357-8.932 13.453-8.342 10.568-19.723-3.168-12.5-4.574-22.473-6.373-35.402-.373-2.68-.794-5.228-.92-7.565-1.194-22.021-1.79-21.747-.042-47.654.995-14.751 4.297-28.113 8.909-41.352.807-2.317 1.465-3.89 2.432-6.053.868-1.94 1.506-3.773 2.387-5.444 1.241-2.35 2.05-4.89 3.264-7.18.78-1.618.818-2.336 1.825-4.052 16.934-25.014 32.821-41.103 59.108-55.774 2.08-1.048 2.635-1.667 4.554-2.626 2.011-1.005 3.374-1.338 5.449-2.384 34.595-17.448 82.226-21.072 119.176-13.656 10.99 2.205 34.425 8.993 44.876 14.523.971-11.672 11.428-41.305 17.89-51.953 7.079-11.665 14.24-24.177 28.438-15.915 4.93 2.867 5.482 4.253 8.406 6.607 1.113.895 1.363.919 2.557 2.011l9.096 10.487c11.912 14.143 22.147 31.584 28.996 50.638 12.374 34.422 15.928 82.775 2.61 119.618-1.909 5.282-3.651 8.99-5.957 13.625-7 14.078-10.472 12.355-10.48 19.544-.017 12.913-.908 25.08-1.29 37.875l.005 49.645c-.018 4.33.69 5.63.69 9.754.002 9.269 1.44 18.851 1.917 27.456.653 11.781 2.697 24.617 4.498 35.32.99 5.882 1.699 10.963 2.862 16.719l3.103 16.48zm-12.537-382.535l-14.272-3.095c7.776-4.622 13.635-9.39 16.001-14.428-6.927-3.766-16.689-5.547-27.778-6.398 7.691-19.452 12.856-36.158 15.762-50.407-10.393 11.35-20.352 23.71-30.12 36.517-2-25.69-4.346-49.738-7.178-71.474-3.096 26.645-5.214 53.43-6.852 80.283l-1.173 5.272-9.913-4.039c4.863-69.318 6.405-103.935 17.606-104.457 12.638.366 11.704 33.625 15.913 65.983 12.79-15.155 21.6-24.508 29.266-19.246 6.733 3.776 3.977 20.715-8.407 52.712 9.43.893 20.974 4.258 23.409 13.733.803 7.164-3.885 13.413-12.264 19.044z" fill="#4c4c4c" stroke="#4c4c4c" stroke-width=".567"/><path d="M288.319 341.515c-6.035 4.15-12.995 11.682-18.081 17.116-3.528 3.77-11.71 15.718-14.083 20.513-3.766 7.61-10.223 21.947-10.223 30.574-3.428 17.698-2.467 35.403.656 53.113 6.925 10.83 12.18 17.703 16.469 22.28 6.285 5.856 12.877 10.164 19.833 12.645 2.354.738 6.148 1.593 8.726 1.717 10.298.495 17.546-1.092 25.898-4.794 9.075-4.023 11.044-6.136 19.15-11.53 42.156-28.245 32.64-147.671-48.345-141.634z" fill="#cb8939" stroke="#cb8939" stroke-width=".567"/><path d="M450.67 174.308l53.384 25.288c20.647-14.271 18.926-23.661-11.94-26.693 22.67-60.029 18.772-71.561-17.562-23.883-8.442-110.444-16.377-95.604-23.882 25.288z" fill="#888" stroke="#4c4c4c" stroke-width="13"/><path d="M270.238 358.631c-3.528 3.77-11.71 15.718-14.083 20.513-3.766 7.61-10.223 21.947-10.223 30.574-3.81 17.68-3.441 35.385.656 53.113 8.768 14.424 19.487 29.653 36.302 34.925 2.355.738 6.148 1.593 8.726 1.717 10.298.495 17.546-1.092 25.898-4.794 9.075-4.023 11.044-6.136 19.15-11.53 41.708-27.945 66.243-135.41 3.838-152.968-7.228-2.934-27.377-1.97-39.209 3.313-4.31 1.925-7.207 3.253-14.1 9.187-7.435 6.401-14.443 13.193-16.955 15.95zm261.91 257.954H355.447l-1.838-24.406 1.217-26.243c.302-2.816.764-6.049.764-8.377l-2.77-4.726c-31.249 6.2-64.231 10.122-97.012 4.647-13.872-2.318-28.308-6.923-40.566-12.96-3.893-1.918-14.17-6.592-16.31-9.807l-10.44-6.522c-7.798-5.206-34.017-35.361-28.96-50.5 1.503-4.498 7.45-6.915 11.514-8.725 24.724-11.012 22.828-12.082 18.47-35.798-2.128-11.579-3.895-23.241-4.91-35.561-.283-3.444.215-6.67-.31-10.134-.88-5.813.007-22.204.746-27.875l2.139-18.096c1.006-5.989 1.972-11.16 3.397-16.838 1.382-5.504 2.735-10.392 4.514-15.721 3.062-9.17 8.164-18.438 13.633-26.185l8.96-11.275c13.11-13.612 28.608-26.2 45.65-34.64 6.834-3.384 13.51-6.675 20.867-9.158 7.789-2.628 14.56-4.928 23.358-6.669 40.004-7.915 81.778-1.908 117.879 15.395l7.33 2.263c1.86-12.819 3.661-17.92 7.594-29.76 1.07-3.226 1.918-5.478 3.158-8.59 3.266-8.192 6.883-15.767 11.676-22.92 11.388-17.002 11.574-13.44 24.246-.872 10.742 10.652 22 27.897 28.467 41.377C519.456 241.976 524 266.34 524 294.508c0 28.461-6.266 51.68-16.78 76.563-1.74 4.12-4.512 7.273-6.48 11.151-.935 1.843-.393 1.26-.64 3.914l-2.206 25.208c.934 16.932-.769 34.875.615 51.604.307 3.718-.172 7.958.031 11.718l1.307 21.54c.612 12.275 3.034 29.518 4.767 41.577 3.827 26.626 6.833 33.655 13.235 56.607 1.207 4.33 3.263 10.615 6.28 13.271 2.178 1.919 1.93-2.538 5.087-1.8z" fill="#888" stroke="#888" stroke-width=".567"/><path d="M246.588 462.83l-.117-2.516c-.68-13.782-3.257-14.696-2.518-37.238.115-3.5.65-2.987.445-6.528l1.534-6.83c0-8.627 6.457-22.963 10.223-30.574 2.373-4.795 10.555-16.743 14.083-20.513 5.086-5.434 12.047-12.966 18.081-17.116l5.492-4.36c16.728-9.99 45.622-12.527 62.212-.003 2.129 1.607 2.868 2.798 5.208 4.582 9.32 7.106 16.594 31.879 16.594 44.117 2.349-.054 2.878-.577 5.18-.613l-.779-7.818-1.178-7.846-4.57-15.667-3.916-7.179c-1.048-4.5-5.621-7.79-7.833-11.098l-5.873-4.567c-28.69-19.178-64.18-7.294-86.325 14.85-8.048 8.048-12.644 14.713-18.5 24.579-1.307 2.2-1.808 4.127-2.867 6.271-10.553 21.363-14.401 48.746-8.633 73.234z" fill="#4c4c4c" stroke="#888" stroke-width=".567"/><path d="M351.81 604.084h176.972l3.367 12.501H351.81z" fill="#4c4c4c" stroke="#4c4c4c" stroke-width=".567"/><g stroke-width=".567"><path d="M545.111 531.504zm31.012-9.193c-13.484 9.318-36.743 17.15-52.744 22.165l-8.685 2.404c-.013-.003-1.54 1.406-.12-.397l7.812-5.217c2.601-1.922 7.03-4.042 8.58-6.824l-14.037 5.589c-1.966.86-2.306 1.43-4.144 2.062-9.558 2.414-25.754 11.936-40.712 9.784-.413-2.353-1.018-2.16-.542-4.601.748-2.355 2.603-3.344 4.12-5.095-2.848-.072-9.751 2.143-12.518 2.952-9.556 2.794-21.876 9.623-29.71 14.7-4.193 2.719-5.69 4.26-8.54 6.424-2.808 2.132-5.26 4.082-7.653 7.101-1.275 1.609-2.523 2.44-3.828 4.069-6.756 8.42-3.925 5.685-8.827 13.076-18.27 27.546 12.85 40.07 37.974 40.296 16.211.146-4.078-4.172-6.84-9.878 2.692-1.523 8.513-2.818 11.741-3.863 9.56-3.096 23.19-9.637 32.04-14.034 12.734-6.326 31.723-18.479 42.518-26.718l17.15-13.984c1.886-1.934 2.06-1.86 4.214-3.578 7.547-6.018 16.655-15.659 23.477-22.463l14.274-16.157c-2.815.531-2.277 1.644-5 2.187zm-31.012 9.193c2.045-.546 1.36-.545 3.465-1.487 1.22-.546 1.94-.851 3.38-1.572 2.734-1.368 4.61-2.123 7.295-3.317 7.437-3.307 36.896-20.084 41.75-21.215-.858 3.21-15.496 20.119-18.56 23.18l-12.392 13.078c-1.582 1.582-2.694 2.65-4.259 4.23-3.69 3.73-5.653 7.432-12.398 13.07-10.637 8.892-20.517 19.602-32.37 27.057l-36.51 22.917c-6.06 3.321-29.344 14.733-34.908 16.029 6.732 5.852 17.216 4.787 18.394 9.197l-15.15 1.828c-5.534.8-11.688.27-17.398.299-9.716.05-20.457-2.344-27.697-7.676-7.082-5.215-13.955-11.404-14.071-21.306-.074-6.322.517-10.774 2.605-15.143 5.964-12.48 22.073-29.117 33.802-36.236 2.158-1.31 3.23-1.93 5.214-3.275 2.41-1.634 3.134-1.913 6.113-3.084 20.992-8.253 23.605-9.634 46.672-14.878 2.762-.628 4.852-1.475 7.5-1.696-2.792 4.17-12.222 9.878-14.856 14.857l20.294-5.883c5.857-2.757 15.104-4.371 28.05-10.859 1.996-1 26.231-12.17 27.354-12.264-.665 2.857-3.127 5.464-5.12 7.614-2.173 2.345-4.484 3.975-6.199 6.535z" fill="#4c4c4c" stroke="#4c4c4c"/><path d="M471.531 547.275c-9.06 2.62-15.827 6.925-23.385 11.735l-16.313 14.184-9.585 12.369c-2.362 3.43-4.113 6.981-6.021 10.856-8.518 17.29 9.473 5.485 14.694 2.791 12.123-6.256 30.535-19.397 42.302-27.176 1.89-1.25 3.654-2.63 5.301-3.778l14.648-10.85c3.373-2.475 18.201-12.92 19.613-15.313 1.838-.633 2.178-1.202 4.145-2.062l14.035-5.59c-1.55 2.783-5.978 4.903-8.58 6.825-14.341 9.578-31.659 25.2-51.228 38.636l-17.029 12.702c-6.033 4.934-22.947 18.58-23.205 25.204 7.27.03 7.452-.571 13.33-2.581 3.395-1.16 6.471-2.34 10.839-3.784 7.158-2.367 13.781-6.807 20.584-9.426 4.5-1.733 6.236-3.113 10.027-5.369l14.481-8.17 53.865-43.084c2.728-3.133 4.364-5.173 7.259-7.616l14.815-15.467c2.723-.543 2.185-1.656 5-2.187L566.85 536.28c-6.822 6.804-15.93 16.445-23.477 22.463-2.155 1.718-2.328 1.644-4.214 3.579l-17.15 13.983c-10.795 8.24-29.784 20.392-42.518 26.719-8.85 4.397-22.48 10.937-32.04 14.033-3.228 1.046-9.05 2.34-11.74 3.863 2.761 5.706 23.05 10.024 6.84 9.878-25.125-.226-56.244-12.75-37.975-40.296 4.902-7.391 2.07-4.655 8.827-13.076 1.305-1.628 2.553-2.46 3.828-4.069 2.394-3.019 4.845-4.969 7.653-7.1 2.85-2.164 4.347-3.706 8.54-6.424 7.834-5.078 20.154-11.907 29.71-14.701 2.767-.81 9.67-3.024 12.518-2.952-1.517 1.75-3.372 2.74-4.12 5.095z" fill="#ababab" stroke="#ababab"/><path d="M514.694 546.88l8.685-2.404c16-5.015 39.26-12.847 52.744-22.165l-14.815 15.467c-2.895 2.443-4.53 4.483-7.26 7.616l-53.864 43.084-14.481 8.17c-3.79 2.256-5.527 3.636-10.027 5.368-6.803 2.62-13.426 7.06-20.584 9.427-4.368 1.444-7.444 2.623-10.838 3.784-5.879 2.01-6.06 2.611-13.33 2.58.257-6.622 17.171-20.269 23.204-25.203l17.03-12.702zM471.531 547.275c-.476 2.442.129 2.249.542 4.602 14.958 2.152 31.154-7.37 40.712-9.784-1.412 2.392-16.24 12.838-19.613 15.313l-14.648 10.85c-1.647 1.148-3.412 2.529-5.3 3.778-11.768 7.78-30.18 20.92-42.303 27.176-5.22 2.694-23.212 14.498-14.695-2.791 1.91-3.875 3.66-7.426 6.022-10.856l9.585-12.37 16.312-14.183c7.559-4.81 14.326-9.115 23.386-11.735z" fill="#888" stroke="#888"/></g><path d="M487.052 182.945l16.786 8.735-7.713 6.528-10.49-13.781zM460.597 171.157l-3.099-1.285-.699 5.3z" fill="#888"/><path d="M182.063 504.942c-1.662 13.523 9.23 25.845 15.8 29.771-.602-5.643-2.82-8.608-2.778-16.129.036-6.48 2.683-11.91 2.489-15.983-6.224-.968-10.713-.955-15.511 2.341z" fill="#fff" stroke="#c0c6c7" stroke-width="5.669"/></g></svg>