<svg xmlns="http://www.w3.org/2000/svg" viewBox="0 0 725.669 725.669"><path d="M559.619 587.536l1.993 7.408 2.424 8.869h-26.157c-4.886 2.76-9.85 5.238-15.062 7.42-5.897 2.468-11.963 4.562-17.99 6.692-.85.372-1.821.703-2.832 1.002l-3.345 1.183-.14-.279c-.663.155-1.3.3-1.888.434-4.162.954-8.38 1.768-12.591 2.467-5.42.899-11.572 1.817-17.068 1.755-17.706.079-35.668-3.602-50.364-13.915a63.815 63.815 0 01-8.119-6.759h-73.623l-.699-6.307c-1.638-14.794-2.391-30.674-.728-45.491.284-2.536.026-5.345.029-7.984-4.211.896-8.43 1.718-12.678 2.438-15.623 2.644-31.45 3.946-47.294 3.946-31.808.001-52.969-3.76-82.209-16.258-31.842-13.61-57.076-37.344-70.82-69.337-4.976-11.584-10.74-24.606-1.997-36.094 6.773-8.9 17.038-9.314 25.756-15.144 1.563-1.045 9.24-5.92 10.51-7.54.044-1.422-1.198-5.903-1.503-7.105-3.448-13.602-5.42-26.886-7.348-40.752-.423-3.034-.931-6.077-1.097-9.139-.43-7.943-1.065-15.964-1.249-23.912-.236-10.213.52-20.59 1.208-30.775 1.133-16.802 4.92-32.715 10.44-48.563.884-2.536 1.876-4.948 2.971-7.397.98-2.194 1.77-4.43 2.898-6.566 1.355-2.567 2.256-5.37 3.619-7.981.814-1.714 1.255-3.23 2.286-4.986l.115-.196 14.848-21.932.149-.191c1.102-1.41 1.972-2.546 3.256-3.836l.103-.104 25.41-23.503.46-.307c1.61-1.082 5.114-3.029 6.456-4.36l1.363-1.856 2.411-.643c.852-.227 2.746-1.81 3.496-2.309l.23-.152 11.255-6.283.135-.067c1.777-.895 3.347-2.067 5.163-2.976 2.018-1.008 4.147-1.68 6.132-2.681 40.168-20.259 95.418-24.833 139.2-16.046 8.942 1.795 18.136 4.418 26.835 7.148 5.455 1.712 11.405 3.654 17.037 5.932 3.828-16.792 13.133-41.48 19.57-52.087l1.24-2.044c4.962-8.164 10.985-17.907 20.475-21.213 6.912-2.408 13.867-.754 20.03 2.832 2.997 1.743 5.383 3.47 7.895 5.842.813.767 1.606 1.522 2.479 2.225 1.102.887 2.146 1.574 3.227 2.563l.303.277 10.577 12.193.033.04c14.663 17.41 26.305 37.957 34 59.365 15.011 41.76 18.175 97.781 2.945 139.918-2.035 5.63-4.391 10.792-7.05 16.137-2.192 4.41-4.63 8.602-7.596 12.537-.847 1.125-2.64 3.113-3.233 4.31-.26.526-.267 1.528-.267 2.083-.018 14.315-1.027 28.577-1.457 42.877l.007 55.969c0 3.71.779 7.232.779 11.017.001 10.237 1.59 20.414 2.155 30.622.088 1.601.198 3.204.325 4.807 13.778-1.619 29.81-2.595 42.698-.76 20.016 2.85 30.586 15.793 27.063 36.274-3.594 20.896-15.391 40.221-28.418 56.57-1.096 1.376-2.115 2.762-3.319 4.055-5.326 5.719-10.25 11.3-15.848 16.623z" fill-rule="evenodd" stroke="#000" stroke-width=".567"/><g fill-rule="evenodd" stroke-width=".567"><path d="M229.084 249.234v254.151h173.032v-254.15z" fill="#fff" stroke="#000"/><path d="M544.806 559.546c1.861 3.894 5.446 19.978 6.635 25.067-3.567-.833-4.044 5.06-6.504 2.893-3.407-3-4.972-10.959-6.336-15.85-7.231-25.925-10.626-33.865-14.949-63.94-1.957-13.62-4.693-33.097-5.383-46.963l-1.477-24.328c-.23-4.248.312-9.037-.035-13.236-2.076-25.09-1.84-61.463 1.796-86.762.28-2.999-.332-2.339.724-4.421 2.223-4.381 5.353-7.943 7.32-12.596 11.874-28.106 18.953-54.332 18.952-86.48 0-31.817-5.134-59.337-18.176-86.52-7.306-15.227-20.02-34.706-32.154-46.738-2.407-2.387-3.704-4.858-6.321-6.95-11.674-9.331-12.594-4.713-21.067 7.934-5.413 8.08-9.499 16.636-13.187 25.89-1.401 3.515-2.358 6.059-3.568 9.703-4.442 13.374-7.907 27.863-10.007 42.341-2.972 20.488-2.808 42.098-.891 62.383.333 3.533 1.407 8.18 1.407 11.86-2.103-2.435-3.132-4.086-4.438-7.35-1.17-2.923-2.287-6.023-3.007-9.526-2.167-10.536-2.846-22.776-2.871-33.994-.02-8.671.972-15.598 1.5-23.567.24-3.607 1.17-7.71 1.45-11.088-40.777-19.545-87.962-26.33-133.148-17.39-9.938 1.967-17.586 4.565-26.383 7.533-8.31 2.804-15.851 6.522-23.571 10.345-19.249 9.532-36.755 23.75-51.562 39.126l-10.121 12.736c-6.178 8.75-11.941 19.218-15.4 29.576-2.009 6.02-3.537 11.54-5.098 17.758-1.61 6.414-2.7 12.255-3.837 19.019l-2.416 20.44c-.835 6.405-1.836 24.92-.842 31.486.592 3.912.03 7.556.35 11.446 1.146 13.916 3.142 27.09 5.545 40.168 4.923 26.788 7.065 27.997-20.862 40.435-4.59 2.045-11.308 4.775-13.005 9.854-5.712 17.101 23.903 51.162 32.71 57.043l11.794 7.366c2.417 3.632 14.025 8.911 18.422 11.077 13.846 6.82 30.151 12.022 45.82 14.639 37.028 6.184 74.282 1.755 109.579-5.249 7.772-1.542 16.659-5.06 24.51-5.715-2.099 2.849-16.904 10.01-21.382 11.053 0 2.63-.52 6.282-.862 9.462l-1.375 29.643 2.076 27.567h-13.959c-1.751-15.814-2.153-31.242-.73-43.92.344-3.06-.008-6.403.084-9.502.111-3.76.76-4.047.76-8.085-3.603.08-28.927 8.108-67.83 8.11-32.036 0-51.335-3.682-79.422-15.688-30.006-12.825-54.006-35.148-67.094-65.618-4.128-9.607-9.38-20.451-2.87-29.005 5.406-7.103 14.108-6.893 24.056-13.545 15.088-10.089 15.196-9.423 11.938-22.278-3.58-14.118-5.168-25.383-7.2-39.987-.42-3.027-.896-5.906-1.04-8.545-1.347-24.874-2.02-24.564-.046-53.827 1.123-16.662 4.853-31.754 10.063-46.709.911-2.617 1.655-4.393 2.748-6.836.98-2.192 1.7-4.262 2.695-6.15 1.402-2.653 2.316-5.522 3.687-8.11.88-1.828.924-2.638 2.062-4.576l14.584-21.543c1.275-1.631 1.244-1.743 2.696-3.202l24.897-23.029c2.115-1.419 6.78-4.087 8.108-5.896 2.369-.63 3.546-1.892 5.595-3.255l10.883-6.074c2.35-1.184 2.978-1.883 5.145-2.966 2.271-1.136 3.811-1.511 6.155-2.693 39.076-19.709 92.877-23.801 134.613-15.425 12.414 2.491 38.883 10.158 50.689 16.405 1.097-13.185 12.907-46.656 20.207-58.683 7.996-13.176 16.085-27.309 32.122-17.977 5.567 3.239 6.192 4.805 9.495 7.463 1.256 1.011 1.539 1.038 2.888 2.272l10.274 11.845c13.455 15.975 25.016 35.675 32.752 57.197 13.976 38.88 17.99 93.497 2.949 135.112-2.157 5.967-4.125 10.155-6.73 15.39-7.907 15.903-11.828 13.955-11.838 22.077-.019 14.585-1.025 28.328-1.457 42.78l.007 56.076c-.02 4.89.779 6.36.78 11.017.001 10.47 1.626 21.294 2.165 31.012.737 13.308 3.046 27.806 5.08 39.895 1.118 6.645 1.919 12.384 3.233 18.885l3.505 18.614z" fill="#7cbae3" stroke="#7cbae3"/><path d="M279.339 286.025c-6.816 4.688-14.679 13.196-20.423 19.334-3.985 4.258-13.227 17.754-15.907 23.17-4.254 8.597-11.548 24.79-11.548 34.534-3.871 19.991-2.786 39.99.74 59.993 7.823 12.234 13.76 19.996 18.604 25.167 7.099 6.613 14.545 11.48 22.402 14.282 2.659.834 6.944 1.8 9.856 1.94 11.632.558 19.819-1.234 29.252-5.416 10.251-4.544 12.475-6.93 21.632-13.024 47.616-31.903 36.866-166.798-54.608-159.98z" fill="#c72481" stroke="#c72481"/><path d="M258.916 305.359c-3.985 4.258-13.227 17.754-15.907 23.17-4.254 8.597-11.548 24.79-11.548 34.534-4.303 19.97-3.886 39.969.741 59.993 9.904 16.292 22.012 33.494 41.005 39.449 2.66.833 6.944 1.8 9.856 1.94 11.632.558 19.819-1.233 29.252-5.416 10.25-4.543 12.475-6.93 21.632-13.024 47.11-31.564 74.823-152.95 4.335-172.782-8.165-3.313-30.924-2.224-44.288 3.743-2.606 1.164-5.742 2.366-8.452 4.135-9.9 6.46-19.597 16.544-26.626 24.258zm295.836 291.367h-199.59l-2.077-27.567 1.375-29.642c.341-3.181.862-6.832.862-9.463l-3.128-5.338c-35.297 7.004-72.552 11.433-109.578 5.249-15.67-2.617-31.975-7.82-45.82-14.64-4.398-2.165-16.005-7.445-18.423-11.076l-11.794-7.366c-8.807-5.881-38.422-39.942-32.71-57.042 1.697-5.08 8.415-7.81 13.005-9.855 27.927-12.438 25.785-13.647 20.862-40.435-2.403-13.079-4.4-26.252-5.545-40.168-.32-3.89.242-7.534-.35-11.446-.994-6.566.007-25.08.842-31.486l2.416-20.44c1.136-6.765 2.227-12.606 3.838-19.019 1.56-6.217 3.088-11.738 5.098-17.758 3.458-10.358 9.221-20.825 15.4-29.576l10.12-12.736c14.807-15.375 32.313-29.594 51.562-39.126 7.72-3.823 15.261-7.54 23.57-10.345 8.798-2.969 16.446-5.566 26.384-7.532 45.186-8.94 92.37-2.156 133.148 17.388l8.28 2.556c2.1-14.479 4.136-20.24 8.577-33.614 1.21-3.644 2.167-6.188 3.568-9.704 3.688-9.253 7.774-17.808 13.187-25.889 8.473-12.647 9.393-17.265 21.067-7.934 2.618 2.092 3.914 4.562 6.321 6.95 12.133 12.032 24.848 31.511 32.154 46.737 13.043 27.184 18.176 54.704 18.177 86.52 0 32.149-7.079 58.375-18.954 86.481-1.966 4.653-5.096 8.215-7.319 12.596-1.056 2.082-.445 1.422-.724 4.42l-2.492 28.474c1.056 19.126-.868 39.392.696 58.288.347 4.2-.195 8.989.035 13.237l1.476 24.328c.69 13.866 3.427 33.343 5.384 46.963 4.323 30.075 7.718 38.015 14.95 63.94 1.363 4.891 2.928 12.85 6.335 15.85 2.46 2.167 2.938-3.726 6.504-2.893z" fill="#abe4ff" stroke="#abe4ff"/><path d="M232.202 423.056l-.132-2.843c-.768-15.568-3.679-16.6-2.844-42.061.13-3.953.734-3.375.502-7.374l1.733-7.715c0-9.744 7.294-25.937 11.548-34.535 2.68-5.415 11.922-18.91 15.907-23.169 9.122-9.747 16.386-16.128 26.626-24.258 18.895-11.283 51.531-14.15 70.271-.004 2.405 1.815 3.24 3.16 5.883 5.176 10.526 8.026 18.743 36.008 18.743 49.831 2.653-.06 3.25-.651 5.852-.692l-.88-8.831-1.332-8.862-5.161-17.697-4.424-8.108c-1.184-5.083-6.35-8.799-8.848-12.536l-6.633-5.16c-32.407-21.661-72.494-8.238-97.507 16.774-9.09 9.09-14.281 16.62-20.897 27.763-1.476 2.487-2.042 4.663-3.238 7.084-11.92 24.13-16.266 55.06-9.75 82.72zM350.535 583.169h200.57l3.647 13.557H350.536z" fill="#7cbae3" stroke="#7cbae3"/><g><path d="M429.56 505.705l25.32-.56 56.282-13.153 44.487-6.982 38.803 6.563-3.966 33.355-31.55 46.356-41.087 29.88-54.83 11.176-39.051-9.301-18.639-28.788-3.92-17.152 3.997-15.186 5.9-17.86z" fill="#abe4ff" stroke="#abe4ff"/><path d="M548.739 560.496c2.277-1.497 4.161-2.65 6.381-4.073l19.161-12.211c-.567 2.455-4.046 6.73-5.505 8.81-2.693 3.833-16.343 19.857-19.417 22.402-8.717 7.218-23.416 19.18-33.962 21.62.872-3.292 7.703-9.005 7.703-20.368zm-21.237-24.538c2.088-.485 30.435-15.662 32.233-16.739l31.604-16.825c0 7.405-5.218 20.358-8.437 26.786-3.4 6.788-2.821 7.662-7.284 10.327-6.613 3.95-50.06 32.631-53.068 33.327.367-4.436 9.354-11.673 9.354-23.665 0-7.377-2.07-8.763-4.402-13.21zm27.282-41.5c12.267-4.665 13.475-7.684 26.435-3.956 5.278 1.519 7.74 3.657 9.57 7.5-2.694.627-13.126 6.848-16.686 8.627l-41.323 21.954c-1.888 1.13-6.594 3.624-8.575 4.084-1.979-1.318-3.534-2.728-5.875-4.033-5.83-3.25-16.926-6.794-23.292-5.321-.676-1.413-.977-2.996-1.65-4.412zm-75.152 11.238c2.631-.219 32.878-9.597 37.639-10.784 12.984-3.239 26.212-6.274 42.154-6.274l-50.545 20.447c-23.988 9.587-14.094 7.125-22.635 1.013-2.949-2.11-5.55-2.936-6.613-4.402zm17.602 95.75l4.953 9.896c14.06-4.974 22.196-7.72 35.197-15.432 1.485-.881 2.521-1.766 3.879-2.723l7.272-5.383c1.267-1.114 2.115-1.68 3.31-2.743 7.656-6.811 11.392-11.415 18.436-18.978 1.076-1.155 1.98-2.407 2.963-3.64 11.938-14.983 23.556-33.475 26.975-53.356 3.094-17.985-6.599-25.996-21.077-28.057-14.118-2.01-34.515-.15-47.208 1.59-23.001 3.154-38.479 9.413-58.69 16.14-3.403 1.133-6.194 2.065-9.492 3.164-1.69.6-7.805 2.49-8.871 3.221 6.13.512 16.664 4.297 21.782 7.38 2.51 1.511 5.587 5.076 7.162 7.696 1.654 2.75 3.202 6.982 3.52 10.785 12.721-2.984 42.07 3.71 32.473 28.08-1.984 5.037-3.572 6.556-6.188 10.334-2.542 3.671 3.442 14.313-7.16 24.74-3.085 3.036-5.292 5.228-9.236 7.286zm4.953 9.896l-4.953-9.896c-38.419 18.416-105.476-10.39-89.208-63.36 6.322-20.587 18.085-27.288 21.535-32.38-47.691 14.38-50.775 112.13 37.428 111.694 9.748.123 31.819-4.454 35.198-6.058z" fill="#7cbae3" stroke="#7cbae3"/></g></g></svg>