<svg xmlns="http://www.w3.org/2000/svg" viewBox="0 0 725.669 725.669"><path d="M327.884 606.874h-10.327l-.698-6.307c-1.63-14.718-2.38-30.515-.725-45.256.281-2.505.03-5.28.029-7.89a306.86 306.86 0 01-12.572 2.416c-15.54 2.63-31.282 3.925-47.041 3.925-31.643.001-52.695-3.74-81.784-16.173-31.68-13.542-56.786-37.156-70.46-68.986-4.956-11.537-10.689-24.5-1.982-35.94 6.763-8.885 16.93-9.254 25.627-15.07 1.559-1.043 9.152-5.862 10.438-7.483.035-1.426-1.191-5.846-1.495-7.044-3.43-13.53-5.39-26.744-7.31-40.538-.42-3.018-.926-6.046-1.09-9.092-.43-7.902-1.06-15.88-1.243-23.786-.235-10.16.518-20.481 1.201-30.613 1.127-16.716 4.895-32.547 10.387-48.313.88-2.523 1.866-4.924 2.956-7.36.976-2.184 1.762-4.408 2.884-6.533 1.348-2.554 2.243-5.341 3.599-7.938.81-1.706 1.249-3.214 2.275-4.961l.115-.196 14.769-21.818.15-.191c1.097-1.403 1.963-2.534 3.242-3.819l.103-.103 25.276-23.38.459-.307c1.604-1.076 5.077-3.006 6.415-4.33l1.362-1.855 2.41-.643c.838-.223 2.727-1.8 3.467-2.29l.23-.153 11.196-6.25.135-.068c1.767-.89 3.329-2.056 5.136-2.96 2.007-1.003 4.124-1.67 6.099-2.666 39.96-20.155 94.923-24.705 138.478-15.964 8.896 1.785 18.042 4.395 26.696 7.111 5.413 1.7 11.317 3.626 16.908 5.884 3.814-16.705 13.06-41.23 19.46-51.775l1.233-2.034c4.94-8.13 10.935-17.822 20.386-21.115 6.885-2.399 13.814-.753 19.953 2.82 2.983 1.735 5.359 3.455 7.86 5.815.808.763 1.596 1.514 2.463 2.212 1.098.883 2.136 1.567 3.212 2.55l.303.277 10.521 12.131.034.04c14.588 17.32 26.169 37.76 33.825 59.058 14.933 41.545 18.08 97.275 2.928 139.195-2.024 5.6-4.368 10.737-7.012 16.054-2.182 4.388-4.609 8.56-7.56 12.476-.84 1.116-2.624 3.095-3.212 4.282-.255.515-.261 1.51-.262 2.054-.018 14.239-1.021 28.425-1.45 42.648l.007 55.669c.001 3.69.775 7.193.776 10.958 0 10.18 1.58 20.303 2.143 30.455.72 12.99 2.808 26.08 4.965 38.897 1.042 6.19 1.93 12.401 3.174 18.556l.018.093 3.448 18.31 2.724 10.907c1.704 3.925 2.99 9.705 3.985 13.72 1.044 4.218 2.014 8.447 3.002 12.677l5.47 20.01z" fill-rule="evenodd"/><g fill-rule="evenodd"><path d="M179.458 259.017v221.755h213.41V259.017z" fill="#fff"/><path d="M526.416 562.806c1.851 3.874 5.653 20.734 6.836 25.797l-6.334 2.833c-3.389-2.985-5.317-11.72-6.673-16.584-7.193-25.787-10.57-33.684-14.87-63.598-1.946-13.548-4.668-32.92-5.354-46.712l-1.469-24.198c-.228-4.225.31-8.988-.035-13.165-2.065-24.955-1.83-61.134 1.787-86.297.278-2.983-.33-2.327.72-4.398 2.21-4.357 5.324-7.9 7.28-12.528 11.811-27.955 18.853-54.041 18.852-86.017 0-31.647-5.107-59.02-18.08-86.058-7.266-15.144-19.913-34.52-31.981-46.487-2.394-2.374-3.684-4.831-6.288-6.913-11.61-9.28-12.526-4.688-20.953 7.892-5.385 8.038-9.449 16.547-13.117 25.751-1.394 3.497-2.345 6.027-3.55 9.652-4.417 13.302-7.863 27.713-9.952 42.114-2.957 20.378-2.794 41.873-.887 62.049.332 3.514 1.4 8.136 1.4 11.797-2.091-2.422-3.115-4.064-4.414-7.312-1.163-2.906-2.275-5.99-2.992-9.474-2.155-10.48-2.83-22.654-2.855-33.813-.02-8.624.967-15.514 1.493-23.44.238-3.588 1.162-7.668 1.441-11.029-40.558-19.44-87.49-26.188-132.435-17.296-9.885 1.956-17.491 4.54-26.242 7.492-8.265 2.79-15.766 6.488-23.444 10.29-19.146 9.48-36.558 23.623-51.286 38.916l-10.067 12.668c-6.145 8.704-11.877 19.115-15.316 29.418-2 5.987-3.52 11.479-5.072 17.663-1.601 6.379-2.686 12.189-3.817 18.917l-2.402 20.33c-.831 6.371-1.827 24.787-.838 31.318.59 3.89.03 7.516.348 11.385 1.14 13.84 3.125 26.944 5.516 39.952 4.896 26.645 7.026 27.847-20.751 40.219-4.566 2.033-11.247 4.749-12.935 9.802-5.681 17.009 23.774 50.887 32.535 56.736l11.73 7.327c2.405 3.613 13.95 8.864 18.324 11.018 13.772 6.783 29.99 11.957 45.575 14.56 36.829 6.152 73.884 1.746 108.991-5.22 7.73-1.534 16.57-5.033 24.38-5.684-2.088 2.832-16.814 9.956-21.268 10.993 0 2.617-.518 6.248-.858 9.412l-1.367 29.484 2.065 27.42h-13.884c-1.742-15.73-2.142-31.076-.727-43.686.342-3.044-.008-6.369.084-9.45.11-3.741.757-4.026.757-8.043-3.585.08-28.774 8.065-67.468 8.067-31.864 0-51.06-3.663-78.997-15.604-29.845-12.756-53.716-34.96-66.735-65.266-4.105-9.556-9.33-20.342-2.854-28.85 5.377-7.065 14.033-6.856 23.927-13.473 15.007-10.035 15.115-9.372 11.874-22.158-3.56-14.043-5.14-25.248-7.16-39.773-.42-3.01-.892-5.874-1.035-8.5-1.34-24.74-2.01-24.432-.046-53.538 1.117-16.573 4.827-31.584 10.009-46.459.906-2.603 1.646-4.37 2.733-6.8.974-2.18 1.691-4.24 2.68-6.116 1.395-2.64 2.304-5.494 3.668-8.067.875-1.818.919-2.624 2.05-4.552l14.506-21.428c1.269-1.622 1.238-1.733 2.682-3.184l24.764-22.906c2.103-1.411 6.744-4.065 8.065-5.864 2.356-.628 3.526-1.882 5.565-3.238l10.825-6.042c2.337-1.177 2.96-1.872 5.117-2.95 2.259-1.13 3.79-1.503 6.121-2.678 38.868-19.603 92.38-23.674 133.893-15.343 12.348 2.478 38.675 10.104 50.417 16.317 1.091-13.114 12.839-46.406 20.099-58.368 7.954-13.106 15.999-27.163 31.95-17.881 5.538 3.222 6.159 4.779 9.444 7.423 1.25 1.006 1.53 1.032 2.873 2.26l10.22 11.781c13.382 15.89 24.88 35.484 32.576 56.892 13.901 38.672 17.894 92.996 2.933 134.388-2.145 5.934-4.103 10.1-6.694 15.308-7.865 15.817-11.765 13.88-11.775 21.958-.018 14.507-1.019 28.176-1.45 42.551l.008 55.775c-.02 4.865.775 6.326.775 10.959.002 10.413 1.619 21.18 2.154 30.846.733 13.237 3.03 27.657 5.053 39.681 1.112 6.61 1.909 12.317 3.216 18.784l3.486 18.515z" fill="#f66f06" stroke="#f66f06" stroke-width=".567"/><path d="M262.37 290.75c-6.779 4.662-14.6 13.125-20.313 19.23-3.963 4.235-13.156 17.66-15.822 23.046-4.23 8.55-11.486 24.657-11.486 34.35-3.85 19.883-2.771 39.775.737 59.67 7.78 12.17 13.685 19.89 18.503 25.033 7.061 6.578 14.468 11.419 22.282 14.206 2.645.829 6.907 1.79 9.804 1.929 11.57.556 19.712-1.227 29.096-5.386 10.195-4.52 12.407-6.894 21.515-12.955 47.36-31.732 36.67-165.905-54.315-159.123z" fill="#4fa83f" stroke="#4fa83f" stroke-width=".567"/><path d="M242.057 309.98c-3.963 4.235-13.156 17.659-15.822 23.045-4.231 8.552-11.486 24.658-11.486 34.35-4.28 19.863-3.865 39.755.737 59.672 9.851 16.205 21.894 33.315 40.786 39.238 2.645.829 6.907 1.79 9.803 1.929 11.57.556 19.712-1.227 29.095-5.386 10.196-4.52 12.409-6.894 21.516-12.955 46.858-31.395 74.422-152.13 4.312-171.857-8.121-3.295-30.758-2.212-44.051 3.723-4.843 2.162-8.891 2.661-16.635 9.328-8.354 7.191-15.433 15.816-18.255 18.913zm294.252 289.807H337.787l-2.065-27.42 1.367-29.483c.34-3.164.858-6.795.858-9.412l-3.112-5.31c-35.107 6.967-72.162 11.373-108.99 5.221-15.586-2.603-31.804-7.777-45.576-14.56-4.374-2.154-15.92-7.406-18.324-11.018l-11.73-7.327c-8.76-5.85-38.216-39.728-32.535-56.737 1.688-5.052 8.369-7.768 12.935-9.801 27.777-12.372 25.647-13.574 20.75-40.219-2.39-13.008-4.375-26.111-5.515-39.952-.318-3.87.241-7.494-.348-11.385-.988-6.531.006-24.947.838-31.318l2.402-20.33c1.13-6.729 2.216-12.538 3.817-18.917 1.552-6.184 3.073-11.676 5.072-17.663 3.439-10.303 9.171-20.714 15.316-29.418l10.067-12.668c14.728-15.293 32.14-29.436 51.286-38.916 7.678-3.802 15.18-7.5 23.444-10.29 8.75-2.953 16.357-5.536 26.242-7.492 44.945-8.892 91.877-2.144 132.435 17.296l8.236 2.542c2.089-14.402 4.113-20.132 8.53-33.434 1.204-3.625 2.156-6.155 3.55-9.652 3.668-9.204 7.733-17.713 13.117-25.75 8.427-12.58 9.342-17.173 20.953-7.893 2.604 2.082 3.893 4.539 6.288 6.913 12.068 11.968 24.715 31.343 31.981 46.487 12.974 27.038 18.08 54.411 18.08 86.058 0 31.976-7.04 58.061-18.852 86.017-1.955 4.628-5.07 8.171-7.28 12.528-1.05 2.071-.442 1.415-.72 4.397l-2.478 28.321c1.05 19.023-.864 39.182.691 57.977.345 4.177-.193 8.94.035 13.165l1.469 24.198c.687 13.792 3.408 33.164 5.355 46.712 4.3 29.914 7.676 37.811 14.869 63.598 1.356 4.864 3.285 13.6 6.673 16.584l6.442-2.44z" fill="#ffbc52" stroke="#ffbc52" stroke-width=".567"/><path d="M215.486 427.047l-.131-2.827c-.764-15.485-3.66-16.512-2.829-41.837.13-3.931.73-3.356.5-7.334l1.723-7.674c0-9.692 7.255-25.798 11.486-34.35 2.666-5.386 11.859-18.81 15.822-23.045 9.073-9.695 16.298-16.042 26.483-24.128 18.794-11.223 51.256-14.074 69.895-.004 2.392 1.805 3.222 3.143 5.851 5.148 10.47 7.984 18.644 35.815 18.644 49.565 2.638-.061 3.232-.648 5.82-.69l-.876-8.783-1.324-8.814-5.134-17.603-4.4-8.064c-1.177-5.056-6.315-8.752-8.8-12.47l-6.598-5.13c-32.234-21.547-72.106-8.195-96.985 16.683-9.042 9.042-14.205 16.531-20.785 27.615-1.468 2.473-2.03 4.637-3.22 7.046-11.856 24-16.18 54.765-9.699 82.277zM334.97 587.85h198.076l3.263 11.937H334.97z" fill="#f66f06" stroke="#f66f06" stroke-width=".567"/></g></svg>