<svg xmlns="http://www.w3.org/2000/svg" viewBox="0 0 725.669 725.669"><path d="M571.315 577.89l2.472 8.93H380.965l-.699-6.307c-1.37-12.364-1.994-25.624-.604-38.008.177-1.576.092-3.31.043-5.006-3.1.644-6.205 1.237-9.33 1.763a236.358 236.358 0 01-39.243 3.258c-26.55.001-44.267-3.152-68.675-13.584-26.702-11.413-47.863-31.33-59.387-58.157-4.329-10.076-9.096-21.183-1.509-31.152 5.93-7.79 14.193-7.845 21.657-12.836 1.397-.934 6.57-4.164 8.157-5.7-.143-1.406-.924-4.124-1.184-5.149-2.871-11.329-4.515-22.39-6.122-33.938-.355-2.553-.78-5.107-.92-7.683-.357-6.603-.884-13.269-1.037-19.875-.197-8.51.432-17.153 1.005-25.64.947-14.049 4.11-27.354 8.726-40.605a76.98 76.98 0 012.363-5.92c-1.933-1.848-3.793-3.866-5.367-5.565-4.22-4.553-8.29-9.279-12.292-14.024-6.472-7.675-13.133-15.663-19.137-23.71a2087.52 2087.52 0 01-19.44-26.524c-3.86-5.347-7.7-10.711-11.47-16.121-2.7-3.877-5.5-7.86-7.941-11.904-.848-1.404-1.675-2.82-2.528-4.221-2.955-4.862-5.59-10.4-7.551-15.731-2.914-7.92-5.663-19.1.138-26.391 3.325-4.18 8.355-5.677 13.529-5.54 4.091.11 10.63 1.803 14.3 3.625 1.703.846 3.172 1.905 4.815 2.76 1.46.76 2.952 1.463 4.424 2.2 21.859 10.927 41.687 25.166 61.182 39.787 6.085 4.564 12.084 9.308 18.01 14.076 5.964 4.798 12.145 9.757 17.76 14.962l7.584 6.17.033-.022.23-.152 9.4-5.247.135-.068c1.47-.74 2.775-1.715 4.287-2.47 1.675-.837 3.44-1.394 5.083-2.223 33.567-16.93 79.674-20.76 116.262-13.417 7.461 1.497 15.13 3.684 22.388 5.962 4.14 1.3 8.61 2.755 12.918 4.435 3.382-14.013 10.817-33.565 16.057-42.2l1.028-1.695c4.294-7.067 9.407-15.251 17.622-18.113 6.073-2.116 12.2-.71 17.621 2.446 2.566 1.492 4.62 2.981 6.771 5.011.652.615 1.287 1.222 1.985 1.784.935.752 1.818 1.337 2.735 2.176l.303.277 8.826 10.175.033.04c12.258 14.553 21.987 31.723 28.42 49.619 12.55 34.912 15.174 81.672 2.442 116.896-1.704 4.713-3.676 9.039-5.902 13.514-1.918 3.857-4.047 7.484-6.661 10.91-.445.582-2.074 2.475-2.327 3.075-.088.255-.091.922-.092 1.183-.015 11.882-.851 23.72-1.209 35.588l.006 46.414c0 3.068.646 5.993.647 9.14 0 8.465 1.318 16.894 1.786 25.337.597 10.79 2.335 21.667 4.127 32.313.866 5.15 1.604 10.319 2.64 15.44l.018.092 2.869 15.238 2.241 8.972c1.401 3.272 2.435 7.877 3.254 11.203.835 3.387 1.605 6.783 2.399 10.179z" fill-rule="evenodd" stroke="#000" stroke-width=".567"/><g fill-rule="evenodd" stroke-width=".567"><path d="M280.59 296.368v178.994h167.06V296.368z" fill="#fff" stroke="#000"/><path d="M556.22 548.887c1.545 3.232 4.519 16.574 5.506 20.797-2.96-.692-2.222 6.074-4.263 4.277-2.827-2.49-5.258-10.97-6.39-15.026-5.999-21.508-8.815-28.095-12.401-53.045-1.624-11.3-3.894-27.458-4.467-38.961l-1.225-20.183c-.19-3.525.26-7.498-.029-10.981-1.722-20.815-1.526-50.99 1.49-71.979.232-2.487-.275-1.94.601-3.667 1.844-3.635 4.441-6.59 6.072-10.45 9.851-23.317 15.724-45.074 15.724-71.744 0-26.396-4.26-49.227-15.08-71.779-6.06-12.63-16.609-28.791-26.675-38.773-1.997-1.98-3.072-4.03-5.244-5.766-9.684-7.74-10.447-3.91-17.477 6.582-4.49 6.704-7.88 13.802-10.94 21.479-1.162 2.916-1.956 5.026-2.96 8.05-3.685 11.094-6.56 23.114-8.302 35.126-2.466 16.997-2.33 34.925-.74 51.753.278 2.931 1.168 6.786 1.168 9.84-1.744-2.02-2.598-3.39-3.682-6.099-.97-2.424-1.897-4.996-2.495-7.902-1.797-8.74-2.36-18.895-2.381-28.202-.017-7.194.807-12.94 1.245-19.551.199-2.992.97-6.396 1.202-9.199-33.829-16.214-72.973-21.843-110.46-14.426-8.245 1.631-14.59 3.786-21.888 6.25-6.894 2.326-13.15 5.41-19.555 8.581-15.968 7.907-30.492 19.704-42.776 32.46l-8.396 10.565c-5.125 7.26-9.907 15.944-12.775 24.537-1.668 4.994-2.936 9.574-4.23 14.732-1.336 5.32-2.24 10.166-3.184 15.778l-2.004 16.958c-.693 5.313-1.523 20.673-.698 26.12.491 3.246.024 6.27.29 9.496.95 11.545 2.607 22.473 4.6 33.323 4.084 22.224 5.861 23.227-17.307 33.546-3.809 1.696-9.381 3.961-10.79 8.175-4.738 14.187 19.83 42.444 27.138 47.323l9.783 6.11c2.006 3.014 11.635 7.394 15.284 9.19 11.487 5.658 25.014 9.973 38.013 12.145 30.718 5.13 61.624 1.456 90.907-4.355 6.447-1.279 13.82-4.197 20.333-4.74-1.74 2.363-14.023 8.304-17.738 9.169 0 2.182-.432 5.212-.715 7.85l-1.14 24.592 1.721 22.87h-11.58c-1.453-13.12-1.787-25.92-.606-36.437.285-2.54-.007-5.312.07-7.883.092-3.12.631-3.357.631-6.707-2.99.066-24 6.727-56.273 6.728-26.577 0-42.588-3.055-65.89-13.014-24.892-10.64-44.802-29.16-55.661-54.438-3.424-7.97-7.782-16.966-2.38-24.063 4.484-5.893 11.704-5.718 19.957-11.237 12.516-8.37 12.606-7.817 9.903-18.481-2.97-11.714-4.287-21.059-5.973-33.174-.349-2.511-.743-4.9-.862-7.09-1.118-20.635-1.676-20.378-.039-44.654.932-13.823 4.026-26.344 8.348-38.75.756-2.172 1.374-3.644 2.28-5.672.813-1.818 1.41-3.536 2.236-5.102 1.163-2.201 1.921-4.581 3.059-6.728.73-1.516.766-2.189 1.71-3.796l12.1-17.873c1.057-1.353 1.031-1.446 2.236-2.656l20.655-19.105c1.754-1.177 5.625-3.39 6.727-4.891 1.964-.524 2.94-1.57 4.64-2.7l9.03-5.04c1.95-.982 2.47-1.562 4.268-2.46 1.884-.942 3.161-1.254 5.105-2.234 32.419-16.351 77.052-19.746 111.677-12.797 10.299 2.067 32.258 8.427 42.051 13.61.91-10.938 10.709-38.707 16.764-48.684 6.634-10.931 13.345-22.656 26.65-14.914 4.618 2.687 5.136 3.986 7.876 6.19 1.043.84 1.277.862 2.397 1.886l8.523 9.827c11.162 13.253 20.753 29.596 27.171 47.451 11.595 32.256 14.925 77.566 2.446 112.09-1.789 4.95-3.422 8.424-5.582 12.768-6.56 13.192-9.813 11.577-9.821 18.314-.016 12.1-.85 23.501-1.21 35.491l.007 46.52c-.017 4.058.646 5.277.646 9.141.002 8.686 1.35 17.665 1.797 25.728.611 11.04 2.527 23.068 4.215 33.097.927 5.512 1.591 10.273 2.682 15.667l2.907 15.443z" fill="#a569c6" stroke="#a569c6"/><path d="M335.988 321.973c-5.655 3.889-12.178 10.947-16.944 16.04-3.305 3.532-10.973 14.728-13.196 19.221-3.53 7.132-9.58 20.566-9.58 28.65-3.212 16.585-2.312 33.176.614 49.77 6.49 10.15 11.415 16.59 15.433 20.88 5.89 5.486 12.067 9.523 18.586 11.848 2.206.691 5.76 1.493 8.176 1.609 9.65.464 16.442-1.023 24.268-4.492 8.504-3.77 10.35-5.75 17.946-10.806 39.502-26.466 30.584-138.377-45.303-132.72z" fill="#722b94" stroke="#722b94"/><path d="M319.045 338.013c-3.306 3.532-10.974 14.728-13.197 19.221-12.249 24.753-15.211 51.395-8.965 78.42 8.216 13.517 18.26 27.788 34.017 32.728 2.207.691 5.762 1.493 8.177 1.609 9.65.463 16.442-1.023 24.268-4.493 8.504-3.769 10.35-5.75 17.946-10.805 39.082-26.185 62.073-126.887 3.596-143.34-6.773-2.75-25.654-1.846-36.742 3.104-2.196.98-4.727 1.934-7.011 3.43-8.18 5.36-16.284 13.753-22.09 20.126zm245.428 241.72H398.89l-1.722-22.87 1.14-24.592c.284-2.639.716-5.668.716-7.85l-2.595-4.429c-29.283 5.812-60.19 9.486-90.907 4.355-13-2.171-26.527-6.487-38.013-12.145-3.648-1.796-13.278-6.176-15.284-9.189l-9.783-6.111c-7.307-4.88-31.876-33.136-27.137-47.323 1.408-4.214 6.98-6.48 10.789-8.175 23.168-10.319 21.391-11.322 17.307-33.546-1.994-10.85-3.65-21.778-4.6-33.323-.266-3.227.2-6.25-.29-9.496-.825-5.447.005-20.807.698-26.12l2.004-16.958c.943-5.612 1.848-10.458 3.184-15.778 1.294-5.158 2.562-9.738 4.23-14.732 2.868-8.593 7.65-17.277 12.775-24.537l8.396-10.566c12.284-12.755 26.807-24.551 42.777-32.459 6.404-3.171 12.66-6.256 19.554-8.582 7.299-2.463 13.643-4.618 21.888-6.25 37.487-7.416 76.631-1.787 110.46 14.427l6.869 2.12c1.742-12.012 3.431-16.791 7.116-27.886 1.003-3.023 1.797-5.134 2.96-8.05 3.06-7.677 6.45-14.775 10.94-21.479 7.03-10.492 7.793-14.323 17.477-6.582 2.172 1.736 3.247 3.785 5.244 5.766 10.066 9.982 20.615 26.141 26.675 38.774 10.821 22.551 15.08 45.382 15.08 71.778 0 26.67-5.873 48.427-15.724 71.744-1.631 3.86-4.228 6.816-6.072 10.45-.876 1.727-.369 1.18-.6 3.667l-2.068 23.622c.876 15.867-.72 32.68.577 48.356.288 3.485-.161 7.457.03 10.982l1.224 20.183c.573 11.503 2.843 27.66 4.467 38.96 3.586 24.951 6.403 31.538 12.402 53.046 1.131 4.057 3.375 13.474 6.2 15.963 2.043 1.797 1.492-5.906 4.452-5.214z" fill="#cc94e0" stroke="#cc94e0"/><path d="M296.882 435.654l-.11-2.358c-.636-12.915-3.051-13.771-2.358-34.894.417-12.7 5.867-29.918 11.434-41.168 2.223-4.493 9.89-15.69 13.196-19.221 7.568-8.087 13.594-13.38 22.09-20.125 15.675-9.361 42.75-11.739 58.297-.003 1.995 1.505 2.688 2.621 4.88 4.294 8.733 6.659 15.55 29.872 15.55 41.34 2.2-.05 2.696-.54 4.855-.574l-.73-7.327-1.105-7.352-4.282-14.681-3.67-6.726c-.982-4.217-5.267-7.3-7.34-10.4l-5.503-4.28c-26.886-17.971-60.142-6.835-80.892 13.915-7.542 7.542-11.849 13.788-17.337 23.032-1.225 2.063-1.694 3.868-2.686 5.877-9.889 20.018-13.495 45.678-8.09 68.625z" fill="#a569c6" stroke="#a569c6"/><path d="M282.76 229.638l-1.599-2.855-46.115-42.112-69.967-41.883-8.094 5.74 7.229 23.44 49.631 69.72 31.938 31.705z" fill="#cc94e0" stroke="#cc94e0"/><path d="M192.788 209.304c12.858 0 39.242-6.823 49.3-13.558 2.765 1.463 33.123 25.669 35.743 29.58-13.609 7.2-39.534 14.174-60.393 14.174-1.835 0-2.723-1.985-3.622-3.157zm-20.953-31.43c6.884 0 15.569-3.017 20.87-5.012 2.956-1.112 5.938-3.22 8.721-4.298 2.849-1.104 4.51 1.026 8.617 3.764 5.25 3.501 9.992 7.01 15.29 10.592 2.165 1.464 13.521 9.525 14.906 11.593-2.155.503-3.066 1.315-5.19 2.205-2.338.98-3.293 1.439-5.632 2.38-4.132 1.662-7.068 2.504-11.73 3.676-4.063 1.022-8.972 2.083-12.746 2.66-2.942.45-12.42 1.261-14.002 2.02zm-12.325-29.58c3.459-.923-.274-1.232 4.93-1.232 8.819 0 31.979 17.482 35.743 18.488v1.232c-3.862.9-14.681 8.628-30.196 8.628-.227-.85-6.604-12.354-9.08-18.653-1.267-3.226-1.397-4.196-1.397-8.462zm83.192 131.878l.856.508 2.892-6.706-.666-.58-27.113-31.43c18.298 0 38.316-5.113 54.767-11.787 2.244-.91 4.364-2.421 6.858-3.002l2.465 2.463c1.767-1.186 5.667-3.416 6.776-4.928l-11.551-9.4c-7.736-7.191-26.714-22.227-35.37-28.719-19.059-14.293-38.564-28.352-60.099-39.118-1.698-.85-3.021-1.467-4.527-2.252-1.831-.953-2.672-1.694-4.696-2.699-2.422-1.203-8.077-2.8-11.336-2.887-18.63-.497-5.604 27.465.13 36.895.95 1.566 1.558 2.618 2.538 4.24 6.088 10.085 30.75 43.637 38.464 53.974 5.493 7.362 32.09 40.38 39.612 45.428zM396.143 568.38H561.33l3.143 11.353h-168.33z" fill="#a569c6" stroke="#a569c6"/></g></svg>