<?xml version="1.0" encoding="UTF-8" standalone="no"?>
<svg
   xmlns:dc="http://purl.org/dc/elements/1.1/"
   xmlns:cc="http://creativecommons.org/ns#"
   xmlns:rdf="http://www.w3.org/1999/02/22-rdf-syntax-ns#"
   xmlns:svg="http://www.w3.org/2000/svg"
   xmlns="http://www.w3.org/2000/svg"
   xmlns:sodipodi="http://sodipodi.sourceforge.net/DTD/sodipodi-0.dtd"
   xmlns:inkscape="http://www.inkscape.org/namespaces/inkscape"
   inkscape:version="1.0 (4035a4fb49, 2020-05-01)"
   sodipodi:docname="10.svg"
   viewBox="0 0 7256.6929 7256.6929"
   id="svg50"
   height=""
   width=""
   version="1.1">
  <metadata
     id="metadata56">
    <rdf:RDF>
      <cc:Work
         rdf:about="">
        <dc:format>image/svg+xml</dc:format>
        <dc:type
           rdf:resource="http://purl.org/dc/dcmitype/StillImage" />
        <dc:title></dc:title>
      </cc:Work>
    </rdf:RDF>
  </metadata>
  <defs
     id="defs54" />
  <sodipodi:namedview
     inkscape:current-layer="svg50"
     inkscape:window-maximized="0"
     inkscape:window-y="0"
     inkscape:window-x="0"
     inkscape:cy="3628.3464"
     inkscape:cx="3628.3464"
     inkscape:zoom="0.034097919"
     showgrid="false"
     id="namedview52"
     inkscape:window-height="480"
     inkscape:window-width="820"
     inkscape:pageshadow="2"
     inkscape:pageopacity="0"
     guidetolerance="10"
     gridtolerance="10"
     objecttolerance="10"
     borderopacity="1"
     bordercolor="#666666"
     pagecolor="#ffffff" />
  <path
     id="path2"
     style="fill:#4b4a4f;fill-rule:evenodd;stroke:#1b1918;stroke-width:0.5669;stroke-linecap:butt;stroke-linejoin:miter;stroke-dasharray:none"
     d="M -1e-4,0 V 7256.693 H 7256.693 V 0 Z" />
  <path
     id="path4"
     style="fill:#ff8080;fill-rule:evenodd;stroke:#1b1918;stroke-width:50;stroke-linecap:butt;stroke-linejoin:miter;stroke-dasharray:none;stroke-miterlimit:4"
     d="M 1727.3568,1210.2194 H 5627.281 c 204.4435,0 371.7159,167.2727 371.7159,371.7158 v 3899.9243 c 0,204.4434 -167.2724,371.7158 -371.7159,371.7158 H 1727.3568 c -204.4431,0 -371.7159,-167.2724 -371.7159,-371.7158 V 1581.9352 c 0,-204.4431 167.2728,-371.7158 371.7159,-371.7158 z" />
  <path
     id="path6"
     style="fill:#ff8080;fill-rule:evenodd;stroke:#1b1918;stroke-width:50;stroke-linecap:butt;stroke-linejoin:miter;stroke-dasharray:none;stroke-miterlimit:4"
     d="m 2507.3416,2138.8907 h 2339.9547 c 122.6658,0 223.0293,100.3634 223.0293,223.0293 v 2339.9547 c 0,122.6659 -100.3635,223.0293 -223.0293,223.0293 H 2507.3416 c -122.6659,0 -223.0293,-100.3634 -223.0293,-223.0293 V 2361.92 c 0,-122.6659 100.3634,-223.0293 223.0293,-223.0293 z" />
  <path
     id="path8"
     style="fill:none;stroke:#1b1918;stroke-width:50;stroke-linecap:butt;stroke-linejoin:miter;stroke-dasharray:none;stroke-miterlimit:4"
     d="M 2507.3399,1210.2193 V 281.5481" />
  <path
     id="path10"
     style="fill:none;stroke:#1b1918;stroke-width:50;stroke-linecap:butt;stroke-linejoin:miter;stroke-dasharray:none;stroke-miterlimit:4"
     d="M 4847.298,1210.2193 V 281.5481" />
  <path
     id="path12"
     style="fill:none;stroke:#1b1918;stroke-width:50;stroke-linecap:butt;stroke-linejoin:miter;stroke-dasharray:none;stroke-miterlimit:4"
     d="M 3064.5427,1210.2193 V 281.5481" />
  <path
     id="path14"
     style="fill:none;stroke:#1b1918;stroke-width:50;stroke-linecap:butt;stroke-linejoin:miter;stroke-dasharray:none;stroke-miterlimit:4"
     d="M 4290.0953,1210.2193 V 281.5481" />
  <path
     id="path16"
     style="fill:none;stroke:#1b1918;stroke-width:50;stroke-linecap:butt;stroke-linejoin:miter;stroke-dasharray:none;stroke-miterlimit:4"
     d="M 3677.319,1210.2193 V 281.5481" />
  <path
     id="path18"
     style="fill:none;stroke:#1b1918;stroke-width:50;stroke-linecap:butt;stroke-linejoin:miter;stroke-dasharray:none;stroke-miterlimit:4"
     d="m 5998.9971,4701.8764 h 928.6712" />
  <path
     id="path20"
     style="fill:none;stroke:#1b1918;stroke-width:50;stroke-linecap:butt;stroke-linejoin:miter;stroke-dasharray:none;stroke-miterlimit:4"
     d="m 5998.997,2361.9184 h 928.6713" />
  <path
     id="path22"
     style="fill:none;stroke:#1b1918;stroke-width:50;stroke-linecap:butt;stroke-linejoin:miter;stroke-dasharray:none;stroke-miterlimit:4"
     d="m 5998.9971,4144.6737 h 928.6712" />
  <path
     id="path24"
     style="fill:none;stroke:#1b1918;stroke-width:50;stroke-linecap:butt;stroke-linejoin:miter;stroke-dasharray:none;stroke-miterlimit:4"
     d="m 5998.9971,2919.1211 h 928.6712" />
  <path
     id="path26"
     style="fill:none;stroke:#1b1918;stroke-width:50;stroke-linecap:butt;stroke-linejoin:miter;stroke-dasharray:none;stroke-miterlimit:4"
     d="m 5998.9971,3531.8974 h 928.6712" />
  <path
     id="path28"
     style="fill:none;stroke:#1b1918;stroke-width:50;stroke-linecap:butt;stroke-linejoin:miter;stroke-dasharray:none;stroke-miterlimit:4"
     d="m 426.9696,4701.8764 h 928.6713" />
  <path
     id="path30"
     style="fill:none;stroke:#1b1918;stroke-width:50;stroke-linecap:butt;stroke-linejoin:miter;stroke-dasharray:none;stroke-miterlimit:4"
     d="m 426.9696,2361.9184 h 928.6713" />
  <path
     id="path32"
     style="fill:none;stroke:#1b1918;stroke-width:50;stroke-linecap:butt;stroke-linejoin:miter;stroke-dasharray:none;stroke-miterlimit:4"
     d="m 426.9696,4144.6737 h 928.6713" />
  <path
     id="path34"
     style="fill:none;stroke:#1b1918;stroke-width:50;stroke-linecap:butt;stroke-linejoin:miter;stroke-dasharray:none;stroke-miterlimit:4"
     d="m 426.9696,2919.1211 h 928.6713" />
  <path
     id="path36"
     style="fill:none;stroke:#1b1918;stroke-width:50;stroke-linecap:butt;stroke-linejoin:miter;stroke-dasharray:none;stroke-miterlimit:4"
     d="m 426.9696,3531.8974 h 928.6713" />
  <path
     id="path38"
     style="fill:none;stroke:#1b1918;stroke-width:50;stroke-linecap:butt;stroke-linejoin:miter;stroke-dasharray:none;stroke-miterlimit:4"
     d="M 2507.3399,6782.2467 V 5853.5755" />
  <path
     id="path40"
     style="fill:none;stroke:#1b1918;stroke-width:50;stroke-linecap:butt;stroke-linejoin:miter;stroke-dasharray:none;stroke-miterlimit:4"
     d="M 4847.298,6782.2468 V 5853.5755" />
  <path
     id="path42"
     style="fill:none;stroke:#1b1918;stroke-width:50;stroke-linecap:butt;stroke-linejoin:miter;stroke-dasharray:none;stroke-miterlimit:4"
     d="M 3064.5427,6782.2467 V 5853.5755" />
  <path
     id="path44"
     style="fill:none;stroke:#1b1918;stroke-width:50;stroke-linecap:butt;stroke-linejoin:miter;stroke-dasharray:none;stroke-miterlimit:4"
     d="M 4290.0953,6782.2467 V 5853.5755" />
  <path
     id="path46"
     style="fill:none;stroke:#1b1918;stroke-width:50;stroke-linecap:butt;stroke-linejoin:miter;stroke-dasharray:none;stroke-miterlimit:4"
     d="M 3677.319,6782.2467 V 5853.5755" />
  <path
     id="path48"
     style="fill:#ff8080;fill-rule:evenodd;stroke:#1b1918;stroke-width:50;stroke-linecap:butt;stroke-linejoin:miter;stroke-dasharray:none;stroke-miterlimit:4"
     d="m 3299.7759,4408.9985 h -709.5648 v -53.4988 h 152.0495 c 43.1748,0 71.8013,-7.5087 85.8798,-22.5261 14.0789,-15.4865 21.1182,-44.5825 21.1182,-87.2875 V 2840.6347 c -103.2435,90.5729 -220.5658,167.5361 -351.0281,230.8901 l -23.4646,-39.4203 c 71.3318,-47.3981 154.396,-112.1598 248.7231,-193.3469 105.1209,-92.45 176.9221,-166.5975 215.4039,-223.3817 h 99.0198 v 1633.1258 c 0,42.7054 7.0393,71.3319 20.6487,85.8799 13.6094,14.0788 41.7668,21.1181 84.0028,21.1181 h 157.2117 z m 1580.0964,-875.6932 c 0,355.2517 -98.0816,619.9308 -293.775,794.037 -90.5729,80.7177 -187.7157,121.0765 -290.9591,121.0765 -113.5681,0 -218.2196,-47.8675 -313.4852,-143.1332 -78.3711,-78.3711 -141.7252,-178.3298 -189.1236,-299.4063 -55.8453,-140.7866 -84.0027,-298.4678 -84.0027,-472.574 0,-357.129 99.0201,-623.2158 296.5907,-798.2606 90.5728,-79.7791 187.2464,-119.6688 290.0208,-119.6688 162.8433,0 300.814,91.0423 414.3821,272.6569 113.5678,182.0843 170.352,397.0185 170.352,645.2725 z m -211.1803,0 c 0,-238.3988 -14.0785,-414.8515 -42.7053,-530.2967 -54.9068,-222.9123 -165.1896,-334.1336 -330.8485,-334.1336 -179.7378,0 -293.3056,134.6859 -341.1732,404.0578 -22.9952,129.0543 -34.2581,282.5118 -34.2581,460.3725 0,231.8287 15.0171,407.3429 45.521,526.0728 56.7839,223.8509 166.5975,335.5419 329.9103,335.5419 183.9611,0 297.9983,-131.8703 342.1117,-395.6108 21.1178,-126.7078 31.4421,-282.0427 31.4421,-466.0039 z" />
</svg>
