<?xml version="1.0" encoding="UTF-8" standalone="no"?>
<svg
   xmlns:dc="http://purl.org/dc/elements/1.1/"
   xmlns:cc="http://creativecommons.org/ns#"
   xmlns:rdf="http://www.w3.org/1999/02/22-rdf-syntax-ns#"
   xmlns:svg="http://www.w3.org/2000/svg"
   xmlns="http://www.w3.org/2000/svg"
   xmlns:sodipodi="http://sodipodi.sourceforge.net/DTD/sodipodi-0.dtd"
   xmlns:inkscape="http://www.inkscape.org/namespaces/inkscape"
   version="1.1"
   width=""
   height=""
   id="svg12"
   viewBox="0 0 725.66931 725.66931"
   sodipodi:docname="move_npc.svg"
   inkscape:version="1.0 (4035a4fb49, 2020-05-01)">
  <metadata
     id="metadata18">
    <rdf:RDF>
      <cc:Work
         rdf:about="">
        <dc:format>image/svg+xml</dc:format>
        <dc:type
           rdf:resource="http://purl.org/dc/dcmitype/StillImage" />
        <dc:title />
      </cc:Work>
    </rdf:RDF>
  </metadata>
  <defs
     id="defs16" />
  <sodipodi:namedview
     inkscape:document-rotation="0"
     pagecolor="#ffffff"
     bordercolor="#666666"
     borderopacity="1"
     objecttolerance="10"
     gridtolerance="10"
     guidetolerance="10"
     inkscape:pageopacity="0"
     inkscape:pageshadow="2"
     inkscape:window-width="1304"
     inkscape:window-height="746"
     id="namedview14"
     showgrid="false"
     inkscape:zoom="0.79650605"
     inkscape:cx="362.83466"
     inkscape:cy="362.83466"
     inkscape:window-x="-8"
     inkscape:window-y="-8"
     inkscape:window-maximized="1"
     inkscape:current-layer="svg12" />
  <path
     d="m 351.6001,503.5107 5.6633,-31.0237 2.8863,-3.816 -1.9012,25.2368 -3.447,7.8789 4.432,36.4402 -3.117,5.7544 1.8856,14.682 8.3719,14.0343 -0.7384,10.3411 -2.2159,1.7235 v 10.3413 l 3.9331,2.6861 21.5166,2.2706 v 8.0952 h 29.0401 l -54.9601,110.16 -55.1999,-110.16 h 8.7951 l 22.0637,9.212 23.4451,0.5352 12.4169,-5.0542 -7.8693,-11.1915 -11.0616,-8.2768 -6.4015,-8.864 -1.2313,-22.1598 -4.9241,-5.4165 7.3865,-37.4247 z"
     style="fill:#02d402;fill-rule:evenodd"
     id="path2" />
  <path
     d="m 310.5899,337.1227 6.4289,7.3508 -5.7447,8.2074 0.9454,4.8969 4.7999,-0.7934 c -1.6778,6.1985 -2.3372,12.4327 2.213,18.8515 l 1.5645,13.3279 -203.283,-0.1465 v 29.2799 l -110.16,-55.1999 110.16,-54.9601 v 29.0401 z"
     style="fill:#02d402;fill-rule:evenodd"
     id="path4" />
  <path
     d="m 432.8254,336.9773 c 1.772,16.4259 -0.7922,32.1922 -5.0054,47.7093 l -4.9203,4.1307 h 185.165 v 29.2799 l 110.16,-55.1999 -110.16,-54.9601 v 29.0401 z"
     style="fill:#02d402;fill-rule:evenodd"
     id="path6" />
  <path
     d="m 337.0294,181.3997 12.7835,-5.2423 8.5107,-10.4678 5.4791,-3.4172 -2.1303,-6.1696 -1.9732,-16.8106 4.1035,-1.6415 c 0.3906,-12.3823 -0.0638,-11.0081 5.9085,-21.8588 13.1859,-11.5056 26.0861,-9.8819 38.7675,1.8127 h 9.4308 l -54.9601,-110.16 -55.1999,110.16 h 29.2799 z"
     style="fill:#02d402;fill-rule:evenodd"
     id="path8" />
  <path
     d="m 376.9922,599.7479 -9.6394,-1.9584 -3.9331,-2.6861 v -10.3412 l 2.2158,-1.7235 0.7384,-10.3412 c -3.6407,-3.6569 -6.3721,-8.4067 -8.3717,-14.0342 l -1.9696,-14.5271 3.2008,-5.9092 -2.7085,-18.7124 0.7384,-9.11 -1.7234,-3.2008 -0.7384,-5.417 3.4469,-7.8789 1.4773,-16.8658 0.4922,-9.7254 -2.9546,5.1704 -5.6631,31.0237 -1.2312,16.0043 -7.3866,37.4247 4.9242,5.4165 1.2312,22.1598 6.4016,8.8639 7.7761,4.1548 3.2857,4.1222 c 6.8287,2.9333 7.7736,6.8872 7.8692,11.1915 -4.5606,3.0538 -10.447,5.5696 -16.7499,5.2817 -18.572,-0.8487 -19.0866,1.398 -37.0031,-7.3377 -3.2598,-1.5892 -5.0829,-2.0952 -6.1986,-5.2914 -3.0411,-8.7119 -4.0074,-16.2409 -7.5387,-26.9314 -3.9473,-11.9528 -2.8504,-7.1313 -2.2727,-19.0689 0.3911,-8.0894 0.9876,-13.6889 1.7184,-21.2611 l 5.6779,-39.4619 c 0.4048,-17.4649 5.5177,-35.8793 5.7318,-51.7189 l 1.8633,-21.1167 c 2.4964,-12.5641 3.127,-17.0555 1.5714,-29.9105 -0.6688,-5.5248 -0.3174,-16.609 -2.6236,-20.3564 -4.375,-7.1095 -1.6273,-10.803 -1.6273,-18.8909 -2.2819,1.0949 -1.5892,0.8203 -4.7997,0.7934 l -0.9453,-4.8968 c 1.8653,-0.6753 1.2088,-0.4394 2.3306,-1.7728 l 3.4139,-6.4346 c -1.4372,-2.146 -2.4639,-3.4276 -4.5617,-5.2873 -0.3295,-0.2924 -2.2488,-2.4674 -2.3113,-2.6129 -0.8111,-1.8709 -0.3814,-1.3527 -0.6052,-3.4983 -0.867,-8.308 -2.8804,-7.2986 -6.6075,-12.2691 l -15.003,-21.9278 c -9.88,-16.5602 -2.1796,-10.416 -0.5279,-28.3437 0.5554,-6.0298 0.7384,-11.9187 2.6282,-17.0692 l 1.1101,-2.9938 c 0.5045,-1.3349 0.771,-1.9091 1.2424,-2.8616 8.7724,-17.7207 3.9748,-14.6572 6.3085,-21.5963 2.0316,-6.0415 6.2393,-12.8478 9.5626,-18.3416 1.5094,-2.4949 1.8318,-3.2964 3.1621,-5.8655 2.6363,-5.0915 9.4747,-10.1088 14.0485,-13.8563 4.9848,-4.0841 11.9335,-6.6477 17.8209,-9.2626 7.2193,-3.2069 6.4143,-0.9947 11.2663,-7.6103 2.7537,-3.7551 4.1741,-7.6221 9.2509,-8.8049 0,-11.3299 -4.1035,2.7741 -4.1035,-22.9801 2.6246,-1.7575 0.5747,-1.3476 4.1035,-1.6416 -3.3656,-7.0143 2.8529,-19.8489 8.4133,-24.4156 1.8587,-1.5261 4.8957,-3.1057 7.4634,-4.0272 18.0614,-6.4824 27.1012,8.7129 31.7254,10.3865 -0.1337,6.0034 -1.3842,5.2721 0.0702,12.2386 0.4704,2.2534 0.4124,3.9743 0.8854,6.5033 0.7247,3.8781 0.121,3.0863 3.1484,3.4174 0,5.4373 -0.4425,4.1431 -2.6439,7.2609 -3.2613,4.6181 0.0147,2.5234 -1.0771,7.0657 -1.9615,8.1586 -14.5728,17.1517 -8.9784,25.3992 1.5689,2.3129 2.3505,4.343 4.2342,5.6718 6.1462,4.3363 9.9979,5.8676 14.5804,14.1446 9.4894,17.1394 3.213,11.0588 4.612,22.4156 0.3183,2.5834 1.3374,4.5123 1.968,7.9378 1.3039,7.0901 -0.2675,10.4816 -0.4129,15.9306 -0.1577,5.8803 1.2022,11.8333 2.0332,17.7395 1.8912,13.4373 4.4761,40.5751 2.5513,52.5213 -1.1722,7.2742 -0.985,10.4862 0.1231,17.0276 2.0525,12.1211 0.7501,21.9324 -1.604,34.0164 -1.1284,5.7923 -3.0746,9.5454 -3.0746,15.802 -2.5097,0.5848 -3.1545,1.2769 -4.9242,2.4618 0,4.3679 0.0864,8.809 0.0325,13.1642 -0.1358,10.985 -2.0113,22.681 -4.199,33.5536 l -13.4205,62.086 c -3.898,17.9882 -4.5138,15.0198 -2.3861,32.7115 0.5844,4.8591 -4.6602,6.8887 -2.5274,20.5182 0.9047,5.7816 -0.3804,6.6655 -0.4796,11.1381 7.7192,1.7982 6.5658,4.9837 6.5658,13.9524 l 11.49,8.2073 c 3.4139,-0.7953 2.1959,-1.431 6.5353,-1.6771 9.1126,-0.5167 10.6393,1.0196 18.0864,4.9598 v 6.5658 c -5.2553,3.5191 -14.9792,8.2465 -23.7719,8.2364 -15.6229,-0.0178 -14.3572,-0.9698 -27.9337,-4.133 -1.662,1.5765 -1.9971,2.1837 -3.2827,4.1035 -3.7505,0 -7.2162,-0.3896 -10.6107,-0.7893 z"
     style="fill:none;stroke:#ffffff;stroke-width:2.9999;stroke-linecap:butt;stroke-linejoin:miter;stroke-dasharray:none;stroke-opacity:1"
     id="path10" />
</svg>
