<?xml version="1.0" encoding="UTF-8" standalone="no"?>
<svg
   xmlns:dc="http://purl.org/dc/elements/1.1/"
   xmlns:cc="http://creativecommons.org/ns#"
   xmlns:rdf="http://www.w3.org/1999/02/22-rdf-syntax-ns#"
   xmlns:svg="http://www.w3.org/2000/svg"
   xmlns="http://www.w3.org/2000/svg"
   xmlns:sodipodi="http://sodipodi.sourceforge.net/DTD/sodipodi-0.dtd"
   xmlns:inkscape="http://www.inkscape.org/namespaces/inkscape"
   inkscape:version="1.0 (4035a4fb49, 2020-05-01)"
   sodipodi:docname="9.svg"
   viewBox="0 0 7256.6929 7256.6929"
   id="svg50"
   height=""
   width=""
   version="1.1">
  <metadata
     id="metadata56">
    <rdf:RDF>
      <cc:Work
         rdf:about="">
        <dc:format>image/svg+xml</dc:format>
        <dc:type
           rdf:resource="http://purl.org/dc/dcmitype/StillImage" />
        <dc:title></dc:title>
      </cc:Work>
    </rdf:RDF>
  </metadata>
  <defs
     id="defs54" />
  <sodipodi:namedview
     inkscape:current-layer="svg50"
     inkscape:window-maximized="0"
     inkscape:window-y="0"
     inkscape:window-x="0"
     inkscape:cy="3628.3464"
     inkscape:cx="3628.3464"
     inkscape:zoom="0.034097919"
     showgrid="false"
     id="namedview52"
     inkscape:window-height="480"
     inkscape:window-width="820"
     inkscape:pageshadow="2"
     inkscape:pageopacity="0"
     guidetolerance="10"
     gridtolerance="10"
     objecttolerance="10"
     borderopacity="1"
     bordercolor="#666666"
     pagecolor="#ffffff" />
  <path
     id="path2"
     style="fill:#4b4a4f;fill-rule:evenodd;stroke:#1b1918;stroke-width:0.5669;stroke-linecap:butt;stroke-linejoin:miter;stroke-dasharray:none"
     d="M -1e-4,0 V 7256.693 H 7256.693 V 0 Z" />
  <path
     id="path4"
     style="fill:#ff8080;fill-rule:evenodd;stroke:#1b1918;stroke-width:50;stroke-linecap:butt;stroke-linejoin:miter;stroke-dasharray:none;stroke-miterlimit:4"
     d="M 1727.3568,1210.2194 H 5627.281 c 204.4435,0 371.7159,167.2727 371.7159,371.7158 v 3899.9243 c 0,204.4434 -167.2724,371.7158 -371.7159,371.7158 H 1727.3568 c -204.4431,0 -371.7159,-167.2724 -371.7159,-371.7158 V 1581.9352 c 0,-204.4431 167.2728,-371.7158 371.7159,-371.7158 z" />
  <path
     id="path6"
     style="fill:#ff8080;fill-rule:evenodd;stroke:#1b1918;stroke-width:50;stroke-linecap:butt;stroke-linejoin:miter;stroke-dasharray:none;stroke-miterlimit:4"
     d="m 2507.3416,2138.8907 h 2339.9547 c 122.6658,0 223.0293,100.3634 223.0293,223.0293 v 2339.9547 c 0,122.6659 -100.3635,223.0293 -223.0293,223.0293 H 2507.3416 c -122.6659,0 -223.0293,-100.3634 -223.0293,-223.0293 V 2361.92 c 0,-122.6659 100.3634,-223.0293 223.0293,-223.0293 z" />
  <path
     id="path8"
     style="fill:none;stroke:#1b1918;stroke-width:50;stroke-linecap:butt;stroke-linejoin:miter;stroke-dasharray:none;stroke-miterlimit:4"
     d="M 2507.3399,1210.2193 V 281.5481" />
  <path
     id="path10"
     style="fill:none;stroke:#1b1918;stroke-width:50;stroke-linecap:butt;stroke-linejoin:miter;stroke-dasharray:none;stroke-miterlimit:4"
     d="M 4847.298,1210.2193 V 281.5481" />
  <path
     id="path12"
     style="fill:none;stroke:#1b1918;stroke-width:50;stroke-linecap:butt;stroke-linejoin:miter;stroke-dasharray:none;stroke-miterlimit:4"
     d="M 3064.5427,1210.2193 V 281.5481" />
  <path
     id="path14"
     style="fill:none;stroke:#1b1918;stroke-width:50;stroke-linecap:butt;stroke-linejoin:miter;stroke-dasharray:none;stroke-miterlimit:4"
     d="M 4290.0953,1210.2193 V 281.5481" />
  <path
     id="path16"
     style="fill:none;stroke:#1b1918;stroke-width:50;stroke-linecap:butt;stroke-linejoin:miter;stroke-dasharray:none;stroke-miterlimit:4"
     d="M 3677.319,1210.2193 V 281.5481" />
  <path
     id="path18"
     style="fill:none;stroke:#1b1918;stroke-width:50;stroke-linecap:butt;stroke-linejoin:miter;stroke-dasharray:none;stroke-miterlimit:4"
     d="m 5998.9971,4701.8764 h 928.6712" />
  <path
     id="path20"
     style="fill:none;stroke:#1b1918;stroke-width:50;stroke-linecap:butt;stroke-linejoin:miter;stroke-dasharray:none;stroke-miterlimit:4"
     d="m 5998.997,2361.9184 h 928.6713" />
  <path
     id="path22"
     style="fill:none;stroke:#1b1918;stroke-width:50;stroke-linecap:butt;stroke-linejoin:miter;stroke-dasharray:none;stroke-miterlimit:4"
     d="m 5998.9971,4144.6737 h 928.6712" />
  <path
     id="path24"
     style="fill:none;stroke:#1b1918;stroke-width:50;stroke-linecap:butt;stroke-linejoin:miter;stroke-dasharray:none;stroke-miterlimit:4"
     d="m 5998.9971,2919.1211 h 928.6712" />
  <path
     id="path26"
     style="fill:none;stroke:#1b1918;stroke-width:50;stroke-linecap:butt;stroke-linejoin:miter;stroke-dasharray:none;stroke-miterlimit:4"
     d="m 5998.9971,3531.8974 h 928.6712" />
  <path
     id="path28"
     style="fill:none;stroke:#1b1918;stroke-width:50;stroke-linecap:butt;stroke-linejoin:miter;stroke-dasharray:none;stroke-miterlimit:4"
     d="m 426.9696,4701.8764 h 928.6713" />
  <path
     id="path30"
     style="fill:none;stroke:#1b1918;stroke-width:50;stroke-linecap:butt;stroke-linejoin:miter;stroke-dasharray:none;stroke-miterlimit:4"
     d="m 426.9696,2361.9184 h 928.6713" />
  <path
     id="path32"
     style="fill:none;stroke:#1b1918;stroke-width:50;stroke-linecap:butt;stroke-linejoin:miter;stroke-dasharray:none;stroke-miterlimit:4"
     d="m 426.9696,4144.6737 h 928.6713" />
  <path
     id="path34"
     style="fill:none;stroke:#1b1918;stroke-width:50;stroke-linecap:butt;stroke-linejoin:miter;stroke-dasharray:none;stroke-miterlimit:4"
     d="m 426.9696,2919.1211 h 928.6713" />
  <path
     id="path36"
     style="fill:none;stroke:#1b1918;stroke-width:50;stroke-linecap:butt;stroke-linejoin:miter;stroke-dasharray:none;stroke-miterlimit:4"
     d="m 426.9696,3531.8974 h 928.6713" />
  <path
     id="path38"
     style="fill:none;stroke:#1b1918;stroke-width:50;stroke-linecap:butt;stroke-linejoin:miter;stroke-dasharray:none;stroke-miterlimit:4"
     d="M 2507.3399,6782.2467 V 5853.5755" />
  <path
     id="path40"
     style="fill:none;stroke:#1b1918;stroke-width:50;stroke-linecap:butt;stroke-linejoin:miter;stroke-dasharray:none;stroke-miterlimit:4"
     d="M 4847.298,6782.2468 V 5853.5755" />
  <path
     id="path42"
     style="fill:none;stroke:#1b1918;stroke-width:50;stroke-linecap:butt;stroke-linejoin:miter;stroke-dasharray:none;stroke-miterlimit:4"
     d="M 3064.5427,6782.2467 V 5853.5755" />
  <path
     id="path44"
     style="fill:none;stroke:#1b1918;stroke-width:50;stroke-linecap:butt;stroke-linejoin:miter;stroke-dasharray:none;stroke-miterlimit:4"
     d="M 4290.0953,6782.2467 V 5853.5755" />
  <path
     id="path46"
     style="fill:none;stroke:#1b1918;stroke-width:50;stroke-linecap:butt;stroke-linejoin:miter;stroke-dasharray:none;stroke-miterlimit:4"
     d="M 3677.319,6782.2467 V 5853.5755" />
  <path
     id="path48"
     style="fill:#ff8080;fill-rule:evenodd;stroke:#1b1918;stroke-width:50;stroke-linecap:butt;stroke-linejoin:miter;stroke-dasharray:none;stroke-miterlimit:4"
     d="m 4255.9523,3367.6464 c 0,259.0475 -83.5333,486.6525 -250.6002,682.8154 -163.3125,192.4083 -394.2029,331.3179 -693.1398,417.6671 l -30.5039,-42.2359 c 291.8979,-117.3223 496.9772,-283.9198 615.238,-500.2622 58.661,-108.4057 98.5507,-230.8901 119.6686,-367.4532 -138.4402,109.3442 -271.7184,163.7819 -400.3036,163.7819 -189.5927,0 -333.195,-86.3493 -430.338,-259.5169 -45.0516,-79.7791 -67.5774,-166.1281 -67.5774,-258.5781 0,-112.6295 30.973,-216.8116 92.9191,-313.0157 61.9461,-96.2045 144.0717,-167.067 246.846,-211.6494 66.1697,-29.5654 135.6245,-44.1134 209.3029,-44.1134 237.4603,0 408.7508,117.3223 514.3408,351.9669 49.2752,109.8137 74.1475,236.5217 74.1475,380.5935 z m -211.18,-56.7842 c 0,-280.1653 -66.1697,-468.3504 -198.0399,-564.5546 -57.7225,-42.2359 -119.6688,-63.354 -185.8385,-63.354 -138.4402,0 -235.1138,76.494 -290.0206,229.4824 -27.6879,75.0861 -41.2974,162.8433 -41.2974,263.7403 0,122.9538 23.9338,227.6053 71.3319,314.8931 58.6613,108.875 144.5411,163.3124 257.6398,163.3124 119.1994,0 243.0916,-57.2533 372.6153,-171.7597 8.9167,-41.2973 13.6094,-98.5507 13.6094,-171.7599 z" />
</svg>
