<svg xmlns="http://www.w3.org/2000/svg" viewBox="0 0 725.669 725.669">
    <path fill="#ff2a2a" fill-rule="evenodd" stroke="#000" stroke-width=".283" d="M275.23 619.354l4.314 1.574 10.467 7.814h5.948l2.594-3.44.35-13.878 4.49-25.307 4.957-20.583 4.665-12.654.233-1.982-.715-2.441-.61-2.1-1.028-2.689-1.028-2.69-2.23-4.497-2.23-4.497-2.457-4.155-2.456-4.155-2.835-3.557-2.836-3.557-2.845-3.371-4.187-4.712h-3.704l-4.159 3.975-2.595 2.347-2.594 2.347-2.187 2.332-2.187 2.333-1.618 1.953-1.618 1.954-1.661 2.113-1.663 2.114-1.282 1.75-1.283 1.75-1.756 2.878-1.756 2.88-.783 1.733-2.329 2.965 2.012 16.764 1.283.35 1.166 27.639.467 11.895-.117 22.683 2.216.438 2.74-2.392 5.307-1.924zM445.287 619.686l-4.315 1.574-10.466 7.814h-5.948l-2.595-3.44-.35-13.878-4.49-25.307-4.956-20.584-4.666-12.653-.233-1.983.715-2.44.61-2.1 1.029-2.69 1.027-2.689 2.23-4.497 2.23-4.498 2.457-4.155 2.457-4.155 2.835-3.557 2.835-3.557 2.846-3.37 4.187-4.713h3.704l4.158 3.976 2.595 2.347 2.595 2.347 2.186 2.332 2.187 2.332 1.618 1.954 1.618 1.953 1.662 2.114 1.662 2.114 1.283 1.75 1.283 1.749 1.756 2.879 1.756 2.879.783 1.733 2.328 2.966-2.012 16.764-1.283.35-1.166 27.638-.466 11.896.117 22.682-2.216.438-2.74-2.391-5.307-1.924zM367.501 344.275l3.878-3.557 2.158-3.469 2.39-7.201 1.895-5.074 2.858-5.51 3.906-6.647 5.103-6.968 7.143-9.33 3.149-3.732 7.114-7.434 1.311-1.633.03-16.823 1.982-1.778 14.672-6.301.023-1.333 8.28-3.629.002-4.334.003-4.334-.32-2.056-.322-2.056-1.253-3.207-1.254-3.207-.62-.755-2.354-.207-1.837.476-5.297 2.698-1.767.9-1.887.597-1.888.598-1.888.598-1.888.597-1.523.846-1.523.846-1.524.845-1.523.845-2.088.451-2.088.451-3.904.777-4.522 1.498-4.279 1.418.502 22.402-.489 1.327-3.324 2.041-2.798.816-2.8.817-3.177.845-3.178.845-2.974.467-2.974.466-2.857.117-2.858.117-3.935-.175-3.936-.175-5.948-1.195-5.948-1.196-3.41-1.486-3.412-1.487-1.669-1.76.775-22.164-12.629-4.798-4.227-.437-2.26-1.21-2.26-1.21-3.782-1.421-2.646-.94-1.385-.467-1.385-.467-1.385-.466-1.72-.838-3.44-1.677-1.72-.838-3.628.08-1.749 3.207-1.633 6.706-.058 9.912 3.674 1.808 4.666 2.243.234 1.238 15.125 6.718.874 1.516.409 2.04-.292 13.937 3.383 4.023 8.164 8.514 7.96 10.234 7.58 11.078 4.635 9.797 3.382 10 1.866 3.149 4.053 3.994 2.828 1.546 3.265 1.078h2.333l3.061-1.05z"/>
    <path fill="#ffd42a" fill-rule="evenodd" stroke="#000" stroke-width=".283" d="M387.852 248.286l.498 22.257-.488 1.327-3.324 2.041-5.598 1.633-6.356 1.69-5.948.934-5.714.233-7.872-.35-11.895-2.39-6.823-2.974-1.668-1.76.774-22.164 1.691-.816 18.31 3.615h14.286l16.677-3.44 2.973.175zM320.527 129.02l79.769-.055 46.45-12.818 6.531-14.344 4.9-11.247 4.594-10.246 3.684-12.679.158-4.65-8.148-3.062-7.347-3.148-8.572-3.966-7.872-4.256-7.755-12.887-3.499-4.956-3.674-4.432-3.207-3.032-5.89-3.207-8.512-1.225h-79.944l-6.182.292-3.265.466-2.857.933-6.473 3.557-5.131 5.54-5.831 8.222-5.948 10.554-7.405 4.082-9.039 4.315-15.685 6.414.018 3.718 1.167 5.657 2.099 7.23 16.443 36.678z"/>
    <path fill="#ff2a2a" fill-rule="evenodd" stroke="#000" stroke-width=".283" d="M320.527 129.02l79.769-.055-9.504-57.293h-60.643z"/>
    <path fill="#ff7f2a" fill-rule="evenodd" stroke="#000" stroke-width=".283" d="M282.405 300.01l-1.925.118-.94 1.738-1.05 4.023-1.341 5.54-1.4 6.88-.233 2.682 1.75 1.925.99.175 1.867 1.75 2.84 5.299 1.154 1.872.525 1.02.32.555 1.108.612.992.729.729 1.837.932 2.245 1.837 2.244.19 1.268 5.23.097 1.548 1.026-1.793 11.094-1.298 1.034-17.143-.404 1.603 8.889 12.77.7 1.662 1.661-1.632 11.138-1.196 1.253-10.263-.758-.611 1.343-1.196 1.282h-2.244l-.962-.204-.992-2.041-.182-.428-.625-.5-2.245.02-.038 7.118-1.954 2.332h-2.74l-1.355.013-.7 2.23v10.642l1.764 1.196-1.483 1.34-1.515 31.283.525 1.166-.06 1.032.55-.167 3.207-1.428 3.207-1.429 3.12-2.099 3.12-2.1 3.06-2.565 3.062-2.565 2.77-2.654 2.77-2.653 1.778-.729 1.779-.728 2.186.029 2.187.029 1.603.145 1.602.146.35-2.915.875-7.29.496-3.09.495-3.09.641-3.907.642-3.907.612-4.227.612-4.228.73-3.79.728-3.79.758-2.45.846-4.752.845-4.752.408-3.003.408-3.003 1.954-9.272 1.953-9.27 1.283-7.056 1.283-7.056.874-3.149-.019-4.117-.583-2.624-1.166-1.283-2.216-2.274-2.974-1.778-2.974-1.779-2.099-1.195-2.1-1.195-2.798-.963-2.8-.962-2.127-.874-2.129-.875-1.924-.67-1.924-.671-1.808-.67-1.807-.671zM438.111 300.341l1.925.118.94 1.738 1.05 4.023 1.342 5.54 1.4 6.88.232 2.683-1.749 1.924-.991.175-1.866 1.75-2.84 5.3-1.154 1.872-.525 1.02-.32.554-1.109.612-.991.73-.73 1.836-.932 2.245-1.837 2.245-.19 1.268-5.23.097-1.548 1.025 1.794 11.094 1.297 1.035 17.144-.405-1.604 8.89-12.77.7-1.662 1.66 1.633 11.138 1.195 1.254 10.263-.759.612 1.343 1.195 1.283h2.245l.962-.205.99-2.04.183-.429.625-.5 2.246.02.038 7.118 1.953 2.333h2.74l1.356.013.7 2.23v10.642l-1.765 1.195 1.483 1.34 1.516 31.283-.526 1.166.06 1.032-.55-.166-3.207-1.429-3.207-1.428-3.12-2.1-3.119-2.099-3.061-2.566-3.062-2.565-2.77-2.653-2.77-2.653-1.778-.73-1.778-.728-2.187.03-2.186.028-1.603.146-1.603.146-.35-2.916-.874-7.289-.496-3.09-.496-3.09-.64-3.908-.642-3.907-.613-4.227-.612-4.227-.73-3.79-.728-3.79-.758-2.45-.845-4.752-.846-4.753-.408-3.003-.408-3.003-1.953-9.271-1.954-9.271-1.283-7.056-1.283-7.056-.874-3.149.02-4.116.582-2.625 1.167-1.282 2.215-2.274 2.974-1.779 2.974-1.778 2.1-1.196 2.099-1.195 2.798-.962 2.8-.962 2.128-.875 2.128-.875 1.924-.67 1.925-.671 1.807-.67 1.808-.67zM372.801 174.932l-1.137 1.167h-20.7l-1.02-.846-6.11-23.114-.013-2.513 25.248.057 2.8 3.382h5.422l.991.7z"/>
    <path fill="none" stroke="#000" stroke-width=".283" d="M390.792 71.672l12.773-11.14 9.009-6.56 5.248-3.382 2.507-2.74 1.983-3.44.408-2.508.233-3.5-.466-2.74-2.041-4.723-3.149-4.023-2.683-2.45-6.414-2.332-1.574-.583h-87.99l-5.365.758-6.531 2.041-4.199 3.907-2.857 4.257-1.4 4.664.059 6.006.641 2.158 1.924 2.974 3.5 3.207 4.256 2.799 5.54 3.79 3.381 2.8 7.056 6.296 2.653 2.508 2.855 1.956M286.506 48.374l2.176.22 1.75 1.05 6.297 7.405 3.674 5.073 5.073 9.505 4.898 14.927 3.965 16.036 2.508 11.895 2.756 14.285M434.467 48.205l-2.515.505-2.595 2.1-4.752 5.655-6.414 9.36-1.895 3.848-2.45 6.123-2.037 5.343-4.211 15.463-2.219 7.29-1.074 6.986-3.315 18.243"/>
    <path fill="#1e1e20" fill-rule="evenodd" stroke="#000" stroke-width=".283" d="M388.318 34.852c-15.213-5.37-38.5-5.52-53.558-.102l-1.166 13.353-3.732 5.656 1.632 3.149-.058 1.34 2.507 3.033 5.54 4.023 5.073.233 5.015 2.624 5.597-1.632h2.566l3.732 1.807 3.44-1.341 4.549-.058 3.148 1.574 5.073-2.857 5.394-.365 5.452-3.6.73-1.443 2.157-1.778.029-2.333 1.195-1.953-2.07-3.003-2.07-3.732z"/>
    <path fill="#1e1e20" fill-rule="evenodd" stroke="#000" stroke-width=".283" d="M333.493 48.256l1.267-13.506-1.719-.774-4.402.204-2.595 1.283-2.565-.875-5.831.058-3.237 2.42-4.957.088-2.71 2.04-1.05 2.187-1.837 2.653-.817 1.342.036 4.926 3.46 2.62 4.898 3.295 4.46 3.295 5.22 4.548 4.854 4.402 2.754 2.231 1.427.979h60.643l3.193-2.785 3.194-2.785 4.811-4.196 1.575-1.374 4.504-3.28 4.505-3.28 5.248-3.382 1.556-1.7-.051-3.967-1.604-2.04-.642-1.953-5.014-3.82-3.819.03-3.674-2.334-.874-.175-5.598.117-1.633.496-2.012-1.02h-4.869l-1.27.628.176 12.595 4.14 6.735-1.196 1.953-.03 2.333-2.157 1.778-.73 1.443-5.45 3.6-5.395.365-5.073 2.857-3.148-1.574-4.549.058-3.44 1.341-3.732-1.807h-2.566l-5.597 1.632-5.015-2.624-5.073-.233-5.54-4.023-2.507-3.033.058-1.34-1.632-3.15z"/>
    <path fill="none" stroke="#000" stroke-width=".283" d="M326.175 35.398l2.817 2.31 5.023 4.986M314.41 37.066l5.602 2.77 4.84 3.79 6.987 7.136M329.862 53.759l-2.095-1.007-9.067-5.22-4.577-1.894-4.49-1.429-5.563-.482M332.359 59.364l-3.863-2.21-6.152-2.624-5.656-1.603-4.49-.467-6.42-.036M335.283 62.254l-4.862-.93-4.257-.817-4.316.029-3.47 1.083M330.15 71.672l-.08-1.806 2.187-1.837 7.226-2.725M349.57 68.161l-1.452 3.51M361.733 68.232v3.44M372.603 68.511l2.221 3.16M393.13 69.633l-3.612-2.508-6.855-1.808M401.99 61.906l-1.917-1.311h-5.86l-6.123 1.69M391.409 58.468l7.877-3.676 5.801-1.924 3.5-.525 6.838-.208M392.633 54.182l10.909-6.707 5.569-2.217 5.073-1.311 4.341-.043M390.563 51.179l3.329-3.763 4.46-4.227 4.87-3.411 5.026-2.639M388.431 42.927l3.361-3.616 2.391-2.128 2.8-2.095"/>
    <path fill="#ff7f2a" fill-rule="evenodd" stroke="#000" stroke-width=".283" d="M360.056 80.828c10.561 0 19.123 8.44 19.123 18.851 0 10.412-8.562 18.852-19.123 18.852-10.562 0-19.124-8.44-19.124-18.852 0-10.41 8.562-18.851 19.124-18.851zm0-3.405c12.469 0 22.577 9.965 22.577 22.256s-10.108 22.256-22.577 22.256c-12.47 0-22.577-9.965-22.577-22.256 0-12.29 10.108-22.256 22.577-22.256z"/>
    <path fill="#ff7f2a" fill-rule="evenodd" stroke="#000" stroke-width=".283" d="M372.61 108.758l-1.224-3.731-3.586 1.05-7.434-19.71h-6.473v3.586h3.265l1.312 3.207-10.525 16.998h5.423l7.027-10.788 4.664 12.1z"/>
    <path fill="#ffd42a" fill-rule="evenodd" stroke="#000" stroke-width=".283" d="M282.407 160.51l1.984 3.674 6.24-2.86 3.674-1.924 5.248-3.732 6.706-5.948 4.723-5.656 3.09-4.606 6.455-10.438-46.423-12.552 3.777 9.37 3.931 13.999 1.586 4.463.292 3.732-.059 5.014-1.107 3.032-.409 1.517zM400.296 128.964l46.45-12.817-1.79 3.857-2.32 6.166-2.489 9.112-1.22 4.09-1.809 5.26-.232 8.746 1.515 4.548-.062 2.925-1.866 3.032-5.423-1.924-4.548-2.45-5.656-4.14-5.481-5.014-4.374-4.957-3.907-5.656z"/>
    <path fill="#ff2a2a" fill-rule="evenodd" stroke="#000" stroke-width=".283" d="M400.916 129.95l-.62-.985-79.768.055-.533.863 1.143 5.022 3.732 9.854 3.615 10.38.875 2.74.466 3.207 1.28 3.576 1.46 4.53 5.132 15.16 1.924 4.14 2.333 1.983h36.91l2.682-2.333 1.808-3.965 5.248-15.977 2.39-7.639.817-4.198 7.055-19.534z"/>
    <path fill="none" stroke="#000" stroke-width=".283" d="M335.773 136.83l1.4-1.167h47.29l1.603 1.224-.437 11.72-7.213 25.896-1.686 4.833-1.48 1.868-28.165.058-1.69-1.691-1.983-5.248-6.822-25.948-.409-3.79z"/>
    <path fill="#ff2a2a" fill-rule="evenodd" stroke="#000" stroke-width=".283" d="M329.36 157.879l.466 3.207-9.707 8.66-5.89 4.664-9.96 6.435-5.842 3.362-5.656 2.799-1.633.175-1.69-.816-1.313-1.537-2.274-8.513-1.778-8.727.116-1.282 2.8-1.109 7.988-4.023 5.364-3.382 6.006-5.073 4.315-5.19 3.965-5.364 5.93-9.771.57 2.51 1.867 4.928 1.865 4.927 1.808 5.19 1.808 5.19z"/>
    <path fill="#ff2a2a" fill-rule="evenodd" stroke="#000" stroke-width=".283" d="M290.846 188.93l-.933 1.982 1.05 20.175 1.924 1.691 3.79 1.458 10.205-3.673 6.764-2.625 10.496-5.306 9.97-6.53 8.164-5.627-2.654-1.983-1.924-4.14-2.566-7.58-3.207-9.796-1.639-4.627-6.435 6.288-5.598 5.132-5.423 3.731-6.823 4.549-8.046 4.257-5.19 3.032z"/>
    <path fill="#ff7f2a" fill-rule="evenodd" stroke="#000" stroke-width=".283" d="M292.771 187.006l-1.633.175-.291 1.748 1.923.409 2.596-1.516 2.594-1.516 4.024-2.129 4.023-2.128 3.411-2.274 3.411-2.275 5.424-3.731 2.799-2.566 2.798-2.566 3.218-3.144 3.218-3.144-.46-1.263-4.854 4.33-4.854 4.33-5.888 4.665-9.96 6.434-5.843 3.362zM331.667 166.244l5.919 17.777-9.085 6.76-8.106 4.957-10.263 5.016-5.492 2.801-3.137.26-1.75-1.313-1.457-5.19-.995-6.167.92-1.619 8.063-4.109 9.738-6.355 6.647-4.782 5.015-4.14z"/>
    <path fill="#ff2a2a" fill-rule="evenodd" stroke="#000" stroke-width=".283" d="M398.865 136.83l1.403-4.705 2.754 5.246 4.373 6.356 5.423 7.114 5.073 4.606 5.364 4.374 6.531 3.557 6.706 2.857-.058 3.44-1.516 6.881-1.633 6.472-1.633 2.974-1.807 1.4-1.983-.525-9.505-5.131-7.93-5.074-7.58-5.19-6.356-5.364-5.498-5.557.409-2.098.408-2.1 3.528-9.767z"/>
    <path fill="#ff7f2a" fill-rule="evenodd" stroke="#000" stroke-width=".283" d="M429.786 163.378l6.706 2.857-.019-2.352-5.423-1.924-4.548-2.45-5.656-4.14-5.481-5.014-4.374-4.957-3.907-5.656-6.168-9.793-.649 2.176 2.755 5.246 4.373 6.356 5.423 7.114 5.073 4.606 5.364 4.374z"/>
    <path fill="#ff2a2a" fill-rule="evenodd" stroke="#000" stroke-width=".283" d="M388.603 168.2l1.913-6.113 5.1 5.547 7.697 6.706 11.896 8.105 3.673 2.45 11.662 5.655-.175 10.38-.64 9.796-1.692 1.982-3.397 1.167-10.19-3.032-11.72-5.365-7.872-4.315-5.015-3.207-5.773-3.674-5.205-3.807 1.341-1.166 1.341-1.167 1.808-3.965 2.624-7.989z"/>
    <path fill="#ff7f2a" fill-rule="evenodd" stroke="#000" stroke-width=".283" d="M387.29 172.194l1.904-5.881 4.848 4.879 6.59 5.072 8.22 5.657 8.164 4.956 5.831 3.032.778 1.094-.078 1.122-2.566 10.962-2.857.875-1.365-.208-3.782-1.65-9.023-4.44-4.373-2.04-8.28-5.132-8.06-6.065 1.426-4.244 1.312-3.995z"/>
    <path fill="#ff2a2a" fill-rule="evenodd" stroke="#000" stroke-width=".283" d="M420.982 203.087l-1.874.574 2.574-7.54.64-4.315-1.632-1.808-4.14-2.215-7.697-4.432-7.697-4.898-6.88-5.19-5.6-5.295.518-1.655 4.848 4.879 6.589 5.073 8.222 5.656 8.163 4.956 5.831 3.032.778 1.094-.078 1.122z"/>
    <path fill="none" stroke="#000" stroke-width=".283" d="M339.622 188.492l-3.683 3.343-7.405 4.665-8.922 5.19-12.129 6.064-9.33 4.257-2.332.408-3.463-.106M381.221 188.426l2.532 2.418 6.589 4.257 8.046 5.19 9.214 4.78 10.087 4.899 7.173 2.682 2.386.328"/>
    <path fill="#1e1e20" fill-rule="evenodd" stroke="#000" stroke-width=".283" d="M306.383 210.743l-9.705 3.493.37 3.664-1.05 2.507.249 2.773 1.034 2.475.233 1.166-.962 1.038-.018 3.05.456.869-2.39 2.216 6.88 3.353 5.539 1.866 5.044 1.895 4.52 2.42 4.227.437-5.585-12.407-.598-.191-1.879-3.62.656-.27-.202-.538-2.915-6.648-.424-1.198-.349.144-1.44-3.569.45-.264z"/>
    <path fill="none" stroke="#000" stroke-width=".283" d="M297.037 225.07l7.826 1.897 4.87 1.079 3.271.193M297.46 226.547l2.942.187 4.84 1.429 3.995.932 1.953.467 2.446-.103M297.048 217.9l5.92 1.05 2.93.336 3.46-.01M310.357 220.45l-2.402-.056-3.47-.496-7.605-1.597M296.534 230.909l9.147 3.713 3.819.757 4.053 1.167 1.865.525 2.177.12"/>
    <path fill="none" stroke="#000" stroke-width=".283" d="M318.221 238.512l-2.102-.13-9.097-2.507-2.974-1.05-3.878-1.544-3.18-1.503"/>
    <path fill="#ffd42a" fill-rule="evenodd" stroke="#000" stroke-width=".283" d="M320.81 243.965l-5.585-12.407.337-.812-1.356-3.601-.802.332-3.426-8.457.72-.338-1.422-3.616-.855.369-2.038-4.692 3.88-1.492 3.383-1.313 5.248-2.652 5.248-2.653 4.985-3.266 4.986-3.265 3.794-2.615 4.37-3.012h36.588l2.603 1.904 2.602 1.904 2.887 1.836 2.886 1.837 2.508 1.603 2.507 1.604 3.936 2.158 3.936 2.157 5.86 2.683 5.86 2.682-1.937 4.686.486.18-1.764 3.566-.384.272-3.115 7.533.055.827-1.106 3.384-.874.445-5.258 12.712-3.673.7-9.505 3.149-2.973-.175-16.677 3.44H353.44l-18.31-3.615-1.69.816z"/>
    <path fill="none" stroke="#000" stroke-width=".283" d="M326.324 242.583v3.431M322.767 231.096v4.956M322.475 223.749v-5.365M322.708 206.08v5.073M326.382 204.448v5.714M326.15 217.976v5.423M326.265 229.93v4.956M397.989 206.225v4.81M398.222 218.558v5.219M398.018 231.124v4.782M394.578 229.783v4.986M394.665 242.29v3.597M394.84 217.858v5.073M394.782 204.593v5.19M310.5 218.145l2.386.617h4.403l4.927-3.44 1.924-.234M315.037 229.352l1.553.372 4.781.234 2.768-2.39M324.315 202.52l-.174 12.568v12.945l.087 9.505.051 7.745"/>
    <path fill="none" stroke="#000" stroke-width=".283" d="M324.22 212.552l3.362.35 2.857-.38 4.403-1.808 7.114-4.256"/>
    <path fill="none" stroke="#000" stroke-width=".283" d="M341.956 206.458l4.549-1.4h26.56l4.49.875 3.004 1.254 6.91 4.023 2.157.962 6.91.466"/>
    <path fill="none" stroke="#000" stroke-width=".283" d="M396.353 201.983l.183 10.655.088 13.179v13.09l.026 6.318M396.711 215.496l1.808-.204 4.956 3.353 5.598.087 1.435-.64"/>
    <path fill="none" stroke="#000" stroke-width=".283" d="M396.624 227.595l2.653 2.187 4.986.087 1.103-.274M324.128 225.147l1.764.933 4.14-.117 5.598-2.303 8.426-2.945 3.47-.525h25.715l3.645.555 8.017 2.507 6.094 2.507 5.627.058M324.237 238.792l9.206-.175 8.339-3.12 4.606-.495h27.407l6.939.641M380.734 235.643l5.86 2.303 3.178.584h6.852M345.048 249.905l3.587-1.2h22.624l4.268 1.248"/>
    <path fill="#1e1e20" fill-rule="evenodd" stroke="#000" stroke-width=".283" d="M424.038 213.696l.254 2.444-.758 1.954 1.283 1.574-.116 4.082-1.546 2.04 1.37 2.158-.262 3.645 1.175 2.583-7.064 3.598-7.551 2.39-6.094 3.382-4.176.902 5.258-12.712-.539-1.922 1.114-2.612 1.35-.122 3.137-7.587-.701-.586 1.52-3.688.82.31 1.939-4.686z"/>
    <path fill="none" stroke="#000" stroke-width=".283" d="M411.385 218.97l1.596.292 3.79-.233 6.865-1.197M410.63 220.081l2.205.347 4.344-.729 6.619-1.283M407.583 228.546l1.374-.013 6.443-1.516 5.657-1.487 2.454-.208M407.282 229.466l1.675.117 4.024-.933 7.434-2.07 2.944-.469M403.527 237.258l3.098-.415 4.781-1.312 5.86-1.72 7.055-3.012M402.948 238.66l2.831-.476 6.064-1.633 6.298-2.216 6.122-2.742M290.971 234.074l8.28 3.469-.524 1.78-1.429 3.877-.787 3.353-.437 3.295-.203 8.102M300.476 238.157l-1.458 2.857-.962 4.286-.467 4.46-.435 8.751 13.884 6.042.342-9.98 1.078-6.998.525-4.023zM328.144 271.008l2.526.278.624-21.816-16.998-4.519-.496 2.479-.525 3.09-.466 4.548-.602 9.939zM429.628 233.907l-8.502 3.762 1.692 2.857 1.516 5.364.78 11.595M390.215 270.835l-.46-21.446 14.928-4.432 1.458.234 1.283 1.807 1.528 17.529-2.03 1.175-14.636 5.423zM333.418 249.363l4.762 1.194 11.225 1.487M387.871 249.13l-5.49 1.222-8.252 1.138"/>
    <path fill="#ffd42a" fill-rule="evenodd" stroke="#000" stroke-width=".283" d="M291.055 260.133l-.175-3.266 20.35 9.039.875 1.516.408 2.04-.291 13.937-7.989-7.93-10.787-9.097-4.315-2.507.058-2.274z"/>
    <path fill="none" stroke="#000" stroke-width=".283" d="M410.116 264.049l14-6.127-.307-4.801-.408-3.848-1.167-5.89-1.807-5.19-12.42 5.657.291 2.974.875 5.014.35 2.216z"/>
    <path fill="#ffd42a" fill-rule="evenodd" stroke="#000" stroke-width=".283" d="M430.439 264.103l1.246-.256.066-2.3-2.041-1.34.291-3.411-19.583 8.323-1.983 1.778-.029 16.823 10.08-10.083zM283.38 290.849l-2.186-.612.117-27.056 2.303 1.37 1.924 5.131 3.382 6.998 4.548 7.055 5.015 4.49.874 2.04 1.05 4.2 4.257 2.623 6.88 3.149 2.974 2.157 1.69 1.691 1.109 1.75-11.837-6.298-7.522-3.323z"/>
    <path fill="#1e1e20" fill-rule="evenodd" stroke="#000" stroke-width=".283" d="M293.446 266.372l-2.708-1.574.047 2.728 1.924 2.099-.291 1.4-1.458 1.399-.525 1.225.175 3.265.875 1.05-.291 2.243 2.274 3.528 5.015 4.49 1.4 4.14.524 2.1 4.257 2.623 3.44 1.574 4.927 2.654 2.333 1.924 1.399 1.72.554.875 5.539 3.092 4.257 3.907 4.956 4.723 3.498 4.198 2.916 5.306 2.624 5.073 1.75 5.423 2.915 5.948 1.983 5.131 1.982 4.374 1.05-.175 1.4-1.517.116-2.099 1.458-.116.466-.817.466-1.4-.321-2.082-1.127-.616-2.027-1.997-2.026-1.997-.933-1.575-.933-1.574-1.691-5-1.691-5-2.318-4.898-2.318-4.899-3.79-5.539-7.77-10.656-3.98-5.117-4.081-4.257-5.774-6.268-1.691-2.012-3.995-3.965-3.994-3.965-5.393-4.549z"/>
    <path fill="none" stroke="#000" stroke-width=".283" d="M292.71 269.625l3.644 1.37 3.09 1.983 4.315 3.207 4.468 3.249M292.418 271.024l2.857.875 3.411 1.895 4.461 2.566 9.174 7.157M291.485 277.963l6.618 4.257 8.601 6.356 11.633 9.68 12.538 13.47 8.921 12.303 6.23 9.169"/>
    <path fill="none" stroke="#000" stroke-width=".283" d="M291.293 279.448l5.702 3.56 9.126 6.792 8.922 6.56 7.143 6.531 9.038 9.738 7.785 10.817 4.344 6.734 3.72 6.118"/>
    <path fill="none" stroke="#000" stroke-width=".283" d="M299.957 292.662l3.862 1.658 6.589 3.616 5.918 3.76 6.065 4.986 6.997 6.998 5.336 6.56.97 1.745"/>
    <path fill="none" stroke="#000" stroke-width=".283" d="M300.209 293.67l1.19.096 4.87 2.77 7.375 4.402 7.23 5.832 4.9 4.14 4.635 4.431 2.083 2.155M372.28 162.806l-1.01 1.15h-20.116l-1.196-1.545-1.108-4.87-.044-2.886h19.2l1.136 1.4h4.315v2.361z"/>
    <path fill="#51962c" fill-rule="evenodd" stroke="#000" stroke-width=".283" d="M376.482 140.53a3.484 3.397 0 0 1 3.484 3.396 3.484 3.397 0 1 1-3.484-3.396z"/>
    <path fill="none" stroke="#000" stroke-width=".283" d="M376.482 141.375a2.617 2.551 0 0 1 2.617 2.551 2.617 2.551 0 1 1-2.617-2.55z"/>
    <path fill="none" stroke="#000" stroke-width=".283" d="M376.482 142.322a1.645 1.603 0 0 1 1.645 1.604 1.645 1.603 0 1 1-1.645-1.603zM345.205 140.006h13.966v6.647h-13.966z"/>
    <path fill="#756d58" fill-rule="evenodd" stroke="#000" stroke-width=".283" d="M345.832 141.376h1.633v4.519h-1.633zM351 141.376h1.633v4.519H351zM356.445 141.376h1.633v4.519h-1.633z"/>
    <path fill-rule="evenodd" stroke="#000" stroke-width=".283" d="M354.551 156.974a2.726 2.668 0 0 1 2.726 2.668 2.726 2.668 0 1 1-2.726-2.668z"/>
    <path fill-rule="evenodd" stroke="#000" stroke-width=".216" d="M354.746 159.256v.905h1.201v-.905z"/>
    <path fill="#ff7f2a" fill-rule="evenodd" stroke="#000" stroke-width=".283" d="M355.428 159.074c.329 0 .595.248.595.554 0 .306-.266.554-.595.554-.328 0-.594-.248-.594-.554 0-.306.266-.554.594-.554zm-.027-.567c.657 0 1.19.507 1.19 1.134 0 .627-.533 1.135-1.19 1.135-.656 0-1.189-.508-1.189-1.135s.533-1.134 1.19-1.134z"/>
    <path fill-rule="evenodd" stroke="#000" stroke-width=".216" d="M365.199 160.732v.848h1.125v-.848z"/>
    <path fill="#ccc" fill-rule="evenodd" stroke="#000" stroke-width=".283" d="M365.812 160.151c.56 0 1.014.47 1.014 1.05 0 .58-.454 1.05-1.014 1.05s-1.013-.47-1.013-1.05c0-.58.454-1.05 1.013-1.05zm0 .51c.289 0 .523.241.523.54a.532.532 0 0 1-.523.541.532.532 0 0 1-.522-.541c0-.299.234-.54.522-.54z"/>
    <path fill-rule="evenodd" stroke="#000" stroke-width=".216" d="M368.21 160.777v.848h1.125v-.848z"/>
    <path fill="#ccc" fill-rule="evenodd" stroke="#000" stroke-width=".283" d="M368.772 160.151c.56 0 1.014.47 1.014 1.05 0 .58-.454 1.05-1.014 1.05s-1.013-.47-1.013-1.05c0-.58.454-1.05 1.013-1.05zm0 .51c.289 0 .523.241.523.54a.532.532 0 0 1-.523.541.532.532 0 0 1-.522-.541c0-.299.234-.54.522-.54z"/>
    <path fill-rule="evenodd" stroke="#000" stroke-width=".283" d="M371.201 162.718v-3.295h-7.785v3.149M358.591 160.677h3.222v1.793h-3.222z"/>
    <path fill="none" stroke="#000" stroke-width=".283" d="M361.972 156.756h-4.198v6.006M354.392 156.202h-2.39l-1.59 1.588v4.097"/>
    <path fill="#ffd42a" fill-rule="evenodd" stroke="#000" stroke-width=".283" d="M415.318 299.744l7.787-3.352 16.218-5.824-.005-27.235-1.924.525-.642 1.282-1.633 4.723-2.449 5.19-2.915 5.073-3.965 4.607-3.266 2.857-1.253 2.507-.817 3.907-2.449 1.837-4.781 2.332-4.286 2.245-2.595 1.983-1.69 1.515-.907 2.097 1.8-.957z"/>
    <path fill="#1e1e20" fill-rule="evenodd" stroke="#000" stroke-width=".283" d="M424.462 268.87l5.705-4.549-.002 3.139-1.546 1.662.204 2.128 1.663 1.575.058 3.79-.292.991.082 1.513-.579 1.007-1.982 2.303-1.983 2.304-1.633 1.428-1.632 1.429-1.254 2.507-.408 1.953-.408 1.954-1.225.919-1.224.918-2.391 1.166-2.39 1.166-2.144 1.123-2.143 1.122-2.595 1.983-1.69 1.515-.907 2.097-4.694 2.62-1.351.938-3.346 2.744-1.895 1.774-3.005 2.99-2.586 2.628-2.128 3.09-1.954 3.616-1.41 2.248-1.312 2.537-.907 2.049L378 336.83l-3.146 6.781-3.974 9.506-2.118-1.457-.291-.408v-1.691l-1.05-.233-1.312-1.866.748-2.842.643-.346 3.878-3.557 2.158-3.469 1.195-3.6 1.195-3.601.948-2.537.947-2.536 1.43-2.756 1.428-2.755 1.953-3.323 1.953-3.324 2.552-3.484 2.55-3.484 3.572-4.665 3.572-4.665 1.574-1.866 1.575-1.866 3.557-3.717 3.557-3.717 1.311-1.633 5.04-5.041 5.04-5.042z"/>
    <path fill="#ff7f2a" fill-rule="evenodd" stroke="#000" stroke-width=".283" d="M279.815 342.98l-5.059-.004-.463-3.29-.03-1.896.7-1.297 1.793 1.37 1.123 1.94z"/>
    <path fill="none" stroke="#000" stroke-width=".283" d="M271.18 377.724l2.246-.02-1.972-8.498-.843-2.565-.266-1.72-.597-.559-.675-2.393.182 3.255.32 2.537.38 4.198.495 1.604.379 1.75z"/>
    <path fill="#ff2a2a" fill-rule="evenodd" stroke="#000" stroke-width=".283" d="M281.194 290.237l-.87-.105-.64 6.239.058 2.128.738 1.629 1.925-.118 2.566.7 3.615 1.34 3.848 1.342 4.257 1.75 5.598 1.924 4.198 2.39 5.948 3.557 2.216 2.274 1.166 1.283.583 2.624.02 4.117-.875 3.149-2.566 14.111-3.907 18.543-.816 6.006-1.69 9.504-.759 2.45-1.457 7.58-1.225 8.455-1.283 7.814-.991 6.18-.525 4.374-.7 5.831-3.205-.291-4.373-.058-3.557 1.457-5.54 5.307-6.123 5.13-6.239 4.2-6.414 2.857-3.09.933-.35.758.787 13.761.525 6.59 1.225 2.565.932.991.613.583 2.478.058 1.283-1.515.466-1.459 7.873-5.014 4.664-1.779 6.357-.029 6.997 1.429 5.831 2.361 5.073 3.324 2.128 2.012 2.42 3.178 3.09 3.178 3.47 2.04 1.925 1.196 2.449-.03 1.603-2.04 1.604-3.324 1.516-4.723 1.312-5.102 1.137-5.16.496-3.82.758-3.76 1.545-5.22 3.382-11.254 2.45-9.477 2.245-9.096 2.915-11.779 3.382-12.42.846-4.257 1.487-4.81 2.536-3.878.67-2.886.934-3.062.175-1.953-1.055-1.109-1.035-1.983-1.035-1.982-1.123-2.522-1.122-2.522-.933-2.799-.933-2.799-1.238-5.267-.984-4.48-.253-.788-.621-1.923-.875-2.712-1.312-2.536-1.312-2.537-1.458-2.653-1.358-2.471-1.849-2.28-4.227-4.462-4.607-4.315-2.128-1.953-2.77-1.546-2.77-1.546-5.917-3.15-5.919-3.148-3.761-1.662-3.761-1.661-7.289-2.683-8.382-2.988z"/>
    <path fill="#ffd42a" fill-rule="evenodd" stroke="#000" stroke-width=".283" d="M344.315 340.531l-1.712-3.762 2.475 10.535 1.866 5.598 2.245 5.044 2.07 3.965 1.108-4.023-2.63-4.878-.991-2.187-.991-2.187-.992-2.565-.99-2.566z"/>
    <path fill="none" stroke="#000" stroke-width=".283" d="M299.626 417.308l2.745 1.076 4.315 3.236 2.07 2.245 1.895 3.994 4.549 9.301"/>
    <path fill="none" stroke="#000" stroke-width=".283" d="M310.651 427.86l6.415-28.165 1.4-1.749h1.544l1.896 2.507v3.877l-6.676 29.535"/>
    <path fill="none" stroke="#000" stroke-width=".283" d="M316.578 401.835l.393-1.722 4.936 4.217-.479 2.119zM315.69 405.739l.392-1.724 4.857 4.598-.445 1.966z"/>
    <path fill="#ffd42a" fill-rule="evenodd" stroke="#000" stroke-width=".283" d="M277.265 322.916l-.696-.766 1.734-.512 3.907-.35h10.583l3.82.583 3.382.204 1.545 1.37-1.633 10.263-1.37 1.079-12.724-.73-.85-.47-.846-1.575-1.154-1.872-1.455-2.647-1.385-2.653-1.866-1.75zM290.668 342.879l.082-.357 5.23.097 1.548 1.026-1.793 11.094-1.298 1.034-17.143-.404-2.254-7.709-.284-4.684 5.059.003.648 1.153 2.8 2.07 2.157 1.37h2.857l1.545-.7 1.502-1.909zM279.372 366.712l-.475-2.454 12.77.7 1.662 1.661-1.632 11.138-1.196 1.253-10.263-.758.241-3.173-.087-3.47zM265.094 387.187l4.095-.013 16.365 1.038 3.907 1.604-1.574 12.187-1.458 1.34-20.777-2.432-1.258-.852v-10.641z"/>
    <path fill="none" stroke="#000" stroke-width=".283" d="M279.73 298.065l2.051-.031 8.893 2.886 8.659 3.236 7.201 3.44 6.006 3.5 4.286 3.236.408 1.34-.058 2.013-.117 2.886-.645 1.516M263.272 460.517l3.82-.032 1.952-1.31M275.193 455.258l6.769-7.106 4.023-3.12 2.916-1.049h4.286l3.236 1.312 2.887 2.361 4.315 6.123 3.07 6.496"/>
    <path fill="#1e1e20" fill-rule="evenodd" stroke="#000" stroke-width=".283" d="M269.044 459.175l-.466 1.459-.848 2.098v1.983l1.4 1.924-.204 1.224-2.77 1.4v4.986l.875 1.253.029.787-1.895 1.254v4.782l.874 1.107-.374 1.06-1.258.806 2.244 3.558 3.732 4.897 3.703 4.578 4.956 5.598 3.033 2.595 2.012 1.953h3.704l1.341 1.341 4.11-1.69 5.22-2.595 5.335-2.8 8.018-5.248 2.187-3.323-.03-2.187-.582-.875 1.333-2.98-.022-2.675-.714-1.181 2.064-2.598-.029-3.735-.312-.107-.352-1.426 1.764-1.391v-5.052l-3.644-2.12-1.545-1.59-1.545-1.588-1.21-1.589-1.21-1.589-1.274-1.204-.855-.808-2.536-1.662-2.537-1.661-2.916-1.181-2.915-1.181-3.499-.715-3.498-.714-6.357.03-2.332.888-2.332.89-1.723 1.097-2.214 1.41z"/>
    <path fill="none" stroke="#000" stroke-width=".283" d="M268.507 460.808l6.253-.03 9.68-.175 6.152 1.167 7.96 2.186 4.752 1.808 10.262 4.228 3.556 2.489"/>
    <path fill="none" stroke="#000" stroke-width=".283" d="M268.154 461.683l4.77-.205 6.24-.175 3.847.233 5.86.875 2.537.408 9.039 2.624 6.18 2.216 3.966 1.604 6.529 3.218M269.13 466.64l3.473.932 8.105 1.807 8.426 1.983 8.047 1.603 9.096 1.896 5.278.962 4.634-.08M268.926 467.863l2.627.555 7.085 2.099 6.414 1.72 7.056.991 6.618.875 5.306 1.108 5.628.991 4.11.612 1.94 1.01M267.03 475.502l7.841 2.37 6.852 2.156 6.006 1.342 2.945 1.049 3.382.525 4.49.35 6.268.466 9.586-.016"/>
    <path fill="none" stroke="#000" stroke-width=".283" d="M306.04 484.657l6.856-.025 1.81 1.401m-47.981-9.522l3.773 1.156 5.19 1.69 4.49 1.283 5.597 1.72 3.47.584 3.732.67 3.353.292 5.306.437 4.506.313M266.04 483.432l3.78 1.894 4.664 1.982 5.802 1.837 6.735 1.72 4.023.788 3.324.32 4.432.088 4.636-.087 4.373-.38 3.09-.729 2.948-.786"/>
    <path fill="none" stroke="#000" stroke-width=".283" d="M265.818 484.361l5.138 2.977 5.35 2.23 5.86 1.968 4.272.787 3.965.642 4.607.379 9.752-.54 2.785-.51 2.566-.524"/>
    <path fill="none" stroke="#000" stroke-width=".283" d="M310.024 491.788l1.955-.5 1.463-.11M270.383 493.753l4.263 3.046 4.986 1.778 5.597 1.4 4.374.612 4.635-.03 5.919.118 2.653-.234 6.049-1.022"/>
    <path fill="none" stroke="#000" stroke-width=".283" d="M272.235 496.042l3.49 2.39 3.936 1.428 6.676 1.546 6.56.32 6.764-.087 5.015-.758 2.866-.599"/>
    <path fill="#ffd42a" fill-rule="evenodd" stroke="#000" stroke-width=".283" d="M261.784 490.526l2.623-5.228 1.122 1.779 1.122 1.779 1.867 2.449 1.865 2.448 1.852 2.289 1.851 2.289 2.478 2.799 2.478 2.799 1.517 1.297 1.516 1.298 1.006.976 1.006.977-4.159 3.975-5.19 4.694-4.373 4.665-3.236 3.907-3.324 4.227-2.565 3.5-3.512 5.757-.783 1.734-.757-1.05-.316-2.843.985-23.776 1.779-11.662zM294.823 516.56l-5.691-6.742 2.055-.845 2.056-.846 2.61-1.297 2.609-1.297 2.668-1.4 2.667-1.4 3.745-2.45 1.317-.862 2.956-1.936 1.094-1.661 1.093-1.662 1.038.707.802 3.557.642 8.266.233 9.738.059 8.222-.408 8.192-1.08 5.89-2.376 8.6-.379 1.123-.61-2.1-2.056-5.378-4.46-8.995-4.913-8.31z"/>
    <path fill="none" stroke="#000" stroke-width=".283" d="M268.09 554.228l3.44-6.705 4.956-7.785 6.356-6.268 6.91 8.046 6.21 9.826 2.858 5.19"/>
    <path fill="#1e1e20" fill-rule="evenodd" stroke="#000" stroke-width=".283" d="M282.842 533.47l6.91 8.046-3.235 21.897-11.036-1.168 1.344-22.84z"/>
    <path fill="#ffd42a" fill-rule="evenodd" stroke="#000" stroke-width=".283" d="M290.032 564.008l1.72 1.866-1.108 8.134-1.457.73-16.998-2.1-1.575-.875.117-7.872 2.274-1.924z"/>
    <path fill="#1e1e20" fill-rule="evenodd" stroke="#000" stroke-width=".283" d="M285.056 574.227l-10.383-1.282-1.425 17.036 9.463 1.598z"/>
    <path fill="#ffd42a" fill-rule="evenodd" stroke="#000" stroke-width=".283" d="M268.607 590.625l1.077-.612 3.559-.032 12.535 2.116 1.386 1.516-.802 7.566-1.968 1.312-15.088-1.983-1.166-1.195z"/>
    <path fill="#1e1e20" fill-rule="evenodd" stroke="#000" stroke-width=".283" d="M281.626 602.127l-9.886-1.3-1.093 12.058 9.155.67z"/>
    <path fill="none" stroke="#000" stroke-width=".283" d="M279.802 613.555l2.918 1.778M270.647 612.885l-1.252.553"/>
    <path fill="#ff2a2a" fill-rule="evenodd" stroke="#000" stroke-width=".283" d="M293.067 650.25l-1.954-3.82-1.108-5.656-1.05-3.411-3.76-7.348-3.441-3.644-1.05-1.4-2.186-2.186-3.557-1.691h-7.114l-3.761 1.851-3.805 3.674-1.516 6.108-2.565 7.405-1.633 5.073-2.566 6.24-3.556 7.726-1.663 3.411-2.624 4.257-2.42 4.14-1.487 2.449-3.615 4.023-3.644 3.207-.044 1.699 3.559-.969 6.968-1.312h11.516l3.615 1.662 3.09 2.74 2.275 3.703 2.129 4.49 1.253 4.403.641 3.965v11.516l3.732-3.674 3.353-4.169 1.4-3.82 1.457-2.507 2.479-2.274 1.4-.7 2.712-1.078 1.983-1.458 1.574-2.77.875-4.49v-10.087l2.625-4.593.759-17.435z"/>
    <path fill="none" stroke="#000" stroke-width=".283" d="M232.948 682.357l-4.603 3.434-3.965 4.723-3.324 6.24-.641 5.13v5.015l1.967 3.558 3.879 3.381 5.685 2.042 10.671 2.36 2.1.234"/>
    <path fill="none" stroke="#000" stroke-width=".283" d="M244.716 718.474h10.409l4.752-.846 3.586-1.224"/>
    <path fill="#ffd42a" fill-rule="evenodd" stroke="#000" stroke-width=".283" d="M259.877 717.628l3.333-1.138 2.994-2.098 1.79-1.837V701.04l-.32-1.983-.32-1.982-.628-2.202-.626-2.2-1.064-2.246-1.065-2.245-1.137-1.852-1.137-1.85-1.545-1.371-1.546-1.37-1.807-.831-1.808-.831h-11.516l-3.484.656-3.484.656-3.559.969-4.603 3.434-3.965 4.723-3.324 6.24-.641 5.13v5.015l1.967 3.558 3.879 3.381 5.685 2.041 10.671 2.362 2.1.233h10.408l2.376-.423z"/>
    <path fill="none" stroke="#000" stroke-width=".283" d="M270.271 621.094v2.763l-1.865 6.035-2.041 6.065-2.537 8.28"/>
    <path fill="#ffd42a" fill-rule="evenodd" stroke="#000" stroke-width=".283" d="M260.096 644.237h4.782l2.361.408.685.452v1.662l-.99.583-7.246-.393-.948-.832v-1.006z"/>
    <path fill="none" stroke="#000" stroke-width=".283" d="M262.888 647.122l-2.076 5.526-3.028 7.548"/>
    <path fill="#ffd42a" fill-rule="evenodd" stroke="#000" stroke-width=".283" d="M252.784 663.173l1.62-3.422 8.048 1.06-1.11 3.422z"/>
    <path fill="none" stroke="#000" stroke-width=".283" d="M256.13 663.587l-3.013 6.142-3.032 5.248-5.365 5.099M281.909 626.535l-.628 10.219-1.05 6.91-2.099 9.737-2.332 8.63-.525 1.166-.845 6.619v11.574l1.02 4.636.525 5.627v7.668l-.374 3.967M288.415 688.409l-3.956.532-6.997 9.155"/>
    <path fill="#ffd42a" fill-rule="evenodd" stroke="#000" stroke-width=".283" d="M291.584 670.935l.237-5.44 1.561 3.797.992 5.598v17.726l-6.152 2.537h-5.705l.654-.28 1.356-.54.992-.729.99-.729.788-1.385.787-1.384.33-1.697.545-2.793v-10.088z"/>
    <path fill="none" stroke="#000" stroke-width=".283" d="M293.382 669.292l-1.66 2.45-.138-.807"/>
    <path fill="#ffd42a" fill-rule="evenodd" stroke="#000" stroke-width=".283" d="M261.643 623.67l-.48-.095-1.014 1.955.131 1.089 1.903-1.837 1.903-1.837 3.76-1.851h7.115l3.557 1.69 1.093 1.094 1.093 1.093.525.7.68.864 1.565 1.658 1.72 1.822 3.762 7.348.525 1.705.524 1.706.554 2.828.554 2.828.977 1.91.977 1.91 2.929-7.577 3.018-6.326-1.538-9.617-1.517 2.012h-5.948l-10.467-7.814-4.315-1.574h-5.54l-5.306 1.924z"/>
    <path fill="none" stroke="#000" stroke-width=".283" d="M350.824 144.135h1.809M347.465 144.572h-1.633M356.445 144.426h1.633M356.445 142.94h1.633M347.465 143.377h-1.633"/>
    <path fill="#51962c" fill-rule="evenodd" stroke="#000" stroke-width=".283" d="M351.912 166.905v1.53h3.32v-1.53zM357.438 166.905v1.53h3.32v-1.53zM363.385 166.905v1.53h3.32v-1.53z"/>
    <path fill="none" stroke="#000" stroke-width=".283" d="M428.62 269.122l-5.856 2.973-3.732 2.449-6.454 5.004M428.595 270.754l-4.169 1.837-5.073 2.799-8.427 5.81M430.5 276.763l-11.38 8.19-8.922 6.706-7.143 6.035-7.435 7.464-5.743 6.472-6.298 8.484-3.907 5.919-4.84 7.317"/>
    <path fill="none" stroke="#000" stroke-width=".283" d="M430.306 278.598l-13.285 9.387-8.426 5.89-7.143 6.384-6.793 6.91-5.598 6.56-4.257 5.336-3.673 5.772-6.997 10.612"/>
    <path fill="none" stroke="#000" stroke-width=".283" d="M420.788 292.412l-10.619 5.573-6.618 4.49-5.452 4.373-4.432 4.432-4.198 4.971-2.439 3.32"/>
    <path fill="none" stroke="#000" stroke-width=".283" d="M420.585 293.38l-7.849 4.08-4.344 2.625-4.796 3.615-4.898 4.432-3.208 3.252M335.694 321.985l4.27 6.993 2.595 3.761 2.536 3.12 4.328 4.564"/>
    <path fill="none" stroke="#000" stroke-width=".283" d="M340.08 330.147l3.091 4.4 3.062 3.645 3.003 3.207 5.297 4.447M352.261 349.971l-3.458-3.068-3.03-3.398M352.303 349.22l-.356-1.233-5.802-5.218-4.6-9.279"/>
    <path fill="#666" fill-rule="evenodd" stroke="#000" stroke-width=".283" d="M309.514 219.237l-1.44-3.569 1.202-.602 1.422 3.616zM315.225 231.558l.32-.86-1.34-3.553-1.457.603 1.879 3.619zM410.172 218.907l1.52-3.688 1.307.49-1.764 3.566-.384.272zM407.791 227.907l-.055-.827-1.35.122-1.114 2.612.539 1.922.874-.445z"/>
    <path fill="#1e1e20" fill-rule="evenodd" stroke="#000" stroke-width=".283" d="M274.104 116.468l-16.359-36.49-2.488.03-2.085 1.895-.015 4.403-2.988.903-1.604.977-1.283 2.274.044 3.338.175 1.254-.291 1.341-1.312.685-.802 1.91-.03 3.061.496 1.458-2.259 2.158-.656 1.501-.029 3.207.451 1.327-.612 1.108-2.77 2.099v4.665l2.45 2.36-.438.818-2.799 2.128v3.557l.787.816-.029 1.108-1.545 1.502 45.285 12.439-1.586-4.463-1.965-7-1.966-6.999-1.888-4.685z"/>
    <path fill="none" stroke="#000" stroke-width=".283" d="M253.144 85.782l5.6 4.55 5.695 4.577M265.883 98.13l-6.06-5.903-6.268-4.14-.936-.79-2.45-.088M247.43 94.765l4.259 1.719 6.093 3.44 6.998 4.956 6.727 5.794"/>
    <path fill="none" stroke="#000" stroke-width=".283" d="M247.21 96.393l1.738.266 5.656 3.09 6.152 3.79 5.16 3.733 3.995 3.731 4.105 5.267M245.069 101.834l1.708 1.546 2.595.962 3.965 1.778 3.499 1.896 6.21 3.702 5.13 3.295 4.053 3.149 3.948 3.447M242.62 110.262l4.729 2.011 18.573 8.194 12.326 6.678M242.457 112.808l2.093.457 4.578 1.487 7.988 3.44 9.447 4.549 12.113 5.928M241.552 121.37l12.008 3.558 8.396 2.711 8.135 2.682 5.947 2.129 4.217 1.84M241.301 123.053l4.62 1.116 12.012 3.85 10.117 2.944 7.201 2.624 5.372 2.014M238.9 128.435l2.618 1.187 9.534 2.011 12.012 3.411 7.464 2.129 7.843 2.42 3.752 1.12M239.658 130.36l3.056.632 2.1.146 13.556 4.402 12.041 2.828 12.194 3.7"/>
    <path fill="#ff2a2a" fill-rule="evenodd" stroke="#000" stroke-width=".283" d="M283.631 153.046l-.233-8.746-45.285-12.44-3.067-.78-3.848 4.43-.379 4.782 1.4.204-.948 5.28-1.85-.12-4.491 27.961v5.977l4.373 7.901h2.041l1.953-1.02 4.666-.992 4.081-.379h4.607l5.772.992 8.106 1.778 9.65 2.595h2.974l4.432-5.598 4.676-25.818-.146-1.458z"/>
    <path fill="#ffd42a" fill-rule="evenodd" stroke="#000" stroke-width=".283" d="M229.778 140.3l-1.028 5.3 2.521.176.948-5.28z"/>
    <path fill="#ff7f2a" fill-rule="evenodd" stroke="#000" stroke-width=".283" d="M235.348 163.159v-12.625l.912-14.038 6.96 1.151 13.295 3.15 20.417 6.58 1.48 1.903v5.161L275 172.78l-2.683 2.288-23.47-5.612-5.423-.991-4.46-.758-2.566-2.275z"/>
    <path fill="none" stroke="#000" stroke-width=".283" d="M231.185 135.688l5.075.808M233.445 136.048l1.204 1.43-.401 13.52-.4 9.768.582 3.863 1.276 1.859 1.457.801 1.8.418M276.932 147.376l2.494.864.646 1.01-.032 3.206-.837 5.813-2.916 16.473-.874.62-3.096-.293M228.736 149.919l1.563.843.145.364-2.277 11.261-.766 4.373-.838 5.03-.11 4.52 1.094 3.57 3.797 7.615"/>
    <path fill="none" stroke="#000" stroke-width=".283" d="M228.284 161.806l1.194.326.948 1.312v3.718l1.203 2.004 1.239 1.312 2.952 1.02-.474 3.9.036 2.332 2.58 7.753M226.454 176.31c19.914-.157 31.808 3.058 51.13 8.561"/>
    <path fill="#ff2a2a" fill-rule="evenodd" stroke="#000" stroke-width=".283" d="M228.964 202.836h-5.768l-2.587 1.38.146.91-1.714 1.677v4.665l1.495 5.904 2.332 11.9 1.276 8.582 1.567 10.587.965 8.237.784 7.161c.507 7.666 1.455 15.295 1.968 22.961l.401 4.009 1.093 10.204 9.002 3.683h16.727l7.982-1.13 7.763-3.025 2.113-2.66-.182-19.097-.256-24.965-2.624-1.567-.837 15.927-.51 11.735-.547 2.515-3.352 3.79-5.321 1.823H249.4l-4.155-1.604-4.045-2.296-2.734-2.551-.747-1.767-1.202-4.374-1.967-27.387-2.076-18.84-.583-9.769-.292-5.612 1.057-1.895 6.268 1.275h15.453l16.145-1.676h6.086l.018-7.58-2.944.018h-8.364l-8.291 1.249-8.291 1.248h-9.094l-2.533-.273z"/>
    <path fill="none" stroke="#000" stroke-width=".283" d="M220.609 204.216l1.91 6.348-1.421 2.55v7.907M226.273 202.836v4.539l2.114 10.97 2.04 15.525 1.386 14.76 1.166 15.417 1.713 16.91 1.421 1.64 5.904 3.571 3.17 1.349 4.213.525M228.511 276.05l-.36-3.796 2.641.005-.018 3.833zM227.823 268.584l-.276-3.491h2.935v3.49zM227.26 262.006l-.355-3.238h2.757v3.238zM273.46 253.454l-.793 8.528v15.817l-.255 5.248-2.406 2.223-2.004 1.567-2.077.656-5.046.549"/>
    <path fill="#ff7f2a" fill-rule="evenodd" stroke="#000" stroke-width=".283" d="M231.6 213.842l1.056-1.895 6.268 1.275h15.453l16.145-1.676h3.858l1.531 1.966-.473 20.518-3.317 14.687-.674 3.535-.418 7.963-.419 7.964-.255 5.868-.255 5.867-.547 2.515-3.353 3.79-5.32 1.823H249.4l-4.155-1.604-4.045-2.296-2.734-2.552-1.95-6.14-1.966-27.387-2.076-18.84z"/>
    <path fill="none" stroke="#000" stroke-width=".283" d="M228.608 202.836v4.9l.62 2.441 3.428 1.77"/>
    <path fill="#1e1e20" fill-rule="evenodd" stroke="#000" stroke-width=".283" d="M241.005 358.104l-.254-4.474-.51-1.975-.838-7.69 3.208 2.04 3.607 1.31 6.305 1.35 4.847.364h8.82l1.931-.838 1.422-1.713-.019-5.522-1.111-6.76-1.932-6.269-2.332-8.054-1.166-1.603h-23.434l-2.478 1.457v-3.9l1.348-1.676-.044-1.019 4.118.838 4.556.547 8.893-.51 9.985-1.13 1.896 1.13 2.623 2.842 3.9 2.953 1.17 1.19 1.053 1.158.696.766.992.175 1.866 1.75.692 1.326.693 1.326.712 1.342 1.303 2.257 1.017 1.708.422.787 1.108.612.992.729.729 1.837.932 2.245 1.838 2.244.189 1.269-.082.356.656 2.084-1.502 1.91-1.545.7h-2.857l-4.957-3.44-.787-1.4-2.92-4.87-1.793-1.37-.7 1.297.03 1.895.335 2.945.412 5.03 1.127 3.854 1.127 3.855 1.603 8.889.475 2.454 1.02 4.898.087 3.47-.24 3.172-.612 1.343-1.196 1.282h-2.244l-.962-.204-.991-2.041-.183-.428-.625-.5-2.245.02-.038 7.118-1.954 2.332-2.966.002-1.458-1.9-1.421-3.626-.729-4.574-.932-4.704-.54-2.903-.968-2.488.619 6.232 1.13 5.977.108 1.492v1.859l-1.95 1.603h-3.315l-2.424-3.899-2.095-12.591-.413-2.065-.464-4.628-1.037-4.897-.874-2.406v9.676l.766 2.807v4.866l-2.06 2.26h-2.295l-2.405-2.941-.672-2.245-.48-4.658-.62-1.902-.075-1.987z"/>
    <path fill="none" stroke="#000" stroke-width=".283" d="M265.094 387.187l1.13-.011-1.136-1.48z"/>
    <path fill="#ff2a2a" fill-rule="evenodd" stroke="#000" stroke-width=".283" d="M239.549 318.27l-2.478 1.457v8.007l.94 1.385v1.24l-.401.874.29 9.84 1.503 2.892 3.207 2.04 3.608 1.31 6.305 1.35 4.847.364h8.82l1.931-.838 1.422-1.713-.019-5.522-1.111-6.76-.966-3.134-.966-3.135-1.166-4.027-1.166-4.027-1.166-1.603z"/>
    <path fill="none" stroke="#000" stroke-width=".283" d="M237.071 327.734l2.1 1.277 5.23 1.494 2.44.347h15.492l4.76-.94"/>
    <path fill="none" stroke="#000" stroke-width=".283" d="M238.01 329.415l2.967 1.385 6.105 1.22h15.38l4.985-.958"/>
    <path fill="#ff2a2a" fill-rule="evenodd" stroke="#000" stroke-width=".283" d="M279.281 334.857l-4.227-5.386v-4.847l2.211-1.708.992.175 1.866 1.75 1.385 2.652.693 1.329.762 1.318 1.154 1.872v.877l-2.12 1.968zM287.062 334.928l-1.249-.871-3.38 3.06-.582.729.62 1.603.928 1.422 1.713 2.132 1.422 1.148h1.786l1.257-.784 1.124-1.177-.14-.936-1.838-2.244zM240.817 349.22l1.11-1.203h1.695l2.861 3.043.274 1.294v8.036l-.691.51h-2.788l-1.659-1.366v-5.813l-.802-1.677zM242.678 363.079l3.844.027 1.44 1.786v5.285l-1.276 1.658-2.03-.054-1.19-1.455v-3.994l-.788-1.713zM254.46 366.847l-2.587-1.072-.967-9.443v-3.28l1.02-1.366h2.515l2.242 2.46.729 6.323v5.266l-.456 1.112zM253.458 368.032l1.906.011 2.796.973 1.257 1.494v9.385l-1.421 1.713-2.132.036-.893-1.877-1.458-9.348zM258.853 354.366l1.785-1.822h1.768l3.06 4.172.33 3.591v5.139l-1.348 1.786h-2.825l-1.603-1.075-1.167-9.731zM261.143 369.469l.773-.617h4.92l1.822 2.752.51 9.129-1.403 1.968h-2.952l-1.47-1.051-.728-4.574-.932-4.704zM267.714 352.653l1.349-1.622h1.585l3.025 2.751 1.111 3.7.402 1.53v3.372l-1.896 2.514h-2.46l-1.343-2.327-1.773-7.295zM271.454 369.206l-.127-2.095 3.097-1.367h1.422l1.567 5.157v4.72l-3.18 3.011-.182-.428-.625-.5z"/>
    <g fill="#ffd42a" fill-rule="evenodd" stroke="#000" stroke-width=".283">
        <path d="M231.629 301.374l8.295 3.322h16.727l7.982-1.13 7.763-3.025-.848 2.301-2.042 1.64-1.457.401v1.02l.346.657v.783l-.583.528.583.584v1.002l-.602.93v1.712l-1.866.778-9.985 1.13-8.893.51-4.556-.547-4.118-.838-1.414-2.236v-1.421l.346-.255-1.111-1.075v-.765l1.202-.802z"/>
        <path d="M237.398 306.578l4.804.245h12.008l4.61-.365 9.229-1.676M237.307 309.22l3.674.172 1.476.164h14.87"/>
        <path d="M257.18 309.556l10.004-1.749.627.064M267.944 310.155l-9.96 1.898h-13.247l-7.776-1.157"/>
    </g>
    <path fill="#ff7f2a" fill-rule="evenodd" stroke="#000" stroke-width=".283" d="M284.39 164.184l-.191 2.122 1.4-.554 1.4-.555 3.994-2.011 3.994-2.012 5.364-3.382 6.006-5.073 4.315-5.19 3.966-5.364 5.928-9.771-.571-2.511-2.695 4.356-3.227 5.219-3.091 4.606-4.723 5.656-6.706 5.948-5.248 3.732z"/>
    <path fill="none" stroke="#000" stroke-width=".283" d="M455.423 387.519l-1.13-.011 1.136-1.48z"/>
    <path fill="#ff2a2a" fill-rule="evenodd" stroke="#000" stroke-width=".283" d="M439.323 290.568l.869-.105.64 6.24-.057 2.128-.739 1.628-1.924-.118-2.566.7-3.615 1.341-3.849 1.341-4.256 1.75-5.599 1.924-4.198 2.39-5.948 3.558-2.215 2.274-1.167 1.282-.583 2.625-.02 4.116.875 3.15 2.566 14.11 3.907 18.543.816 6.006 1.691 9.505.758 2.45 1.458 7.58 1.225 8.455 1.282 7.814.992 6.18.525 4.374.7 5.83 3.204-.29 4.374-.059 3.557 1.458 5.54 5.306 6.122 5.131 6.24 4.199 6.413 2.857 3.09.933.35.758-.787 13.762-.524 6.589-1.225 2.565-.933.992-.612.583-2.478.058-1.283-1.516-.467-1.458-7.872-5.015-4.665-1.778-6.356-.03-6.997 1.43-5.832 2.36-5.073 3.325-2.128 2.011-2.42 3.178-3.09 3.178-3.47 2.041-1.925 1.195-2.448-.029-1.604-2.04-1.603-3.324-1.517-4.724-1.312-5.101-1.137-5.16-.496-3.82-.758-3.761-1.545-5.22-3.382-11.254-2.45-9.476-2.245-9.097-2.915-11.778-3.382-12.42-.845-4.257-1.488-4.81-2.536-3.879-.67-2.886-.934-3.062-.175-1.953 1.056-1.109 1.034-1.982 1.035-1.983 1.123-2.522 1.123-2.521.932-2.8.933-2.798 1.238-5.268.984-4.48.254-.788.62-1.923.875-2.711 1.312-2.537 1.312-2.536 1.458-2.653 1.358-2.472 1.849-2.28 4.227-4.461 4.607-4.316 2.283-1.72 2.615-1.779 2.77-1.546 5.918-3.149 5.918-3.149 3.761-1.661 3.762-1.662 7.288-2.682 8.382-2.989z"/>
    <path fill="#ffd42a" fill-rule="evenodd" stroke="#000" stroke-width=".283" d="M376.202 340.863l1.712-3.762-2.475 10.535-1.866 5.598-2.245 5.043-2.07 3.966-1.108-4.024 2.63-4.878.99-2.186.992-2.187.991-2.566.991-2.566z"/>
    <path fill="none" stroke="#000" stroke-width=".283" d="M420.89 417.64l-2.744 1.076-4.316 3.236-2.07 2.245-1.895 3.994-4.548 9.3"/>
    <path fill="none" stroke="#000" stroke-width=".283" d="M409.865 428.19l-6.414-28.163-1.4-1.75h-1.545l-1.895 2.508-.001 3.877 6.676 29.535"/>
    <path fill="none" stroke="#000" stroke-width=".283" d="M403.938 402.167l-.392-1.723-4.936 4.218.478 2.118zM404.827 406.07l-.392-1.724-4.857 4.598.444 1.966z"/>
    <path fill="#ffd42a" fill-rule="evenodd" stroke="#000" stroke-width=".283" d="M443.251 323.247l.697-.766-1.735-.512-3.907-.35h-10.583l-3.82.584-3.381.204-1.546 1.37 1.633 10.263 1.37 1.078 12.724-.73.851-.47.846-1.574 1.154-1.873 1.455-2.646 1.385-2.653 1.866-1.75zM429.848 343.21l-.082-.356-5.23.097-1.548 1.025 1.794 11.094 1.297 1.035 17.144-.405 2.253-7.709.284-4.683-5.059.003-.648 1.152-2.799 2.07-2.157 1.371h-2.858l-1.545-.7-1.501-1.91zM441.145 367.043l.474-2.454-12.77.7-1.662 1.662 1.633 11.137 1.195 1.254 10.263-.759-.24-3.172.087-3.47zM455.423 387.519l-4.096-.013-16.365 1.038-3.907 1.603 1.575 12.187 1.457 1.341 20.778-2.432 1.258-.852v-10.642z"/>
    <path fill="none" stroke="#000" stroke-width=".283" d="M440.786 298.397l-2.05-.032-8.893 2.886-8.66 3.237-7.2 3.44-6.007 3.499-4.286 3.236-.408 1.341.058 2.012.117 2.886.646 1.516M457.245 460.848l-3.821-.031-1.952-1.31M445.323 455.59l-6.768-7.107-4.024-3.119-2.916-1.05h-4.286l-3.236 1.312-2.886 2.362-4.315 6.123-3.07 6.496"/>
    <path fill="#1e1e20" fill-rule="evenodd" stroke="#000" stroke-width=".283" d="M451.472 459.507l.467 1.458.847 2.099v1.982l-1.4 1.925.205 1.224 2.77 1.4v4.985l-.875 1.254-.03.787 1.896 1.254v4.781l-.875 1.108.374 1.059 1.259.807-2.245 3.557-3.732 4.898-3.703 4.577-4.956 5.599-3.032 2.594-2.012 1.953h-3.704l-1.342 1.342-4.11-1.691-5.22-2.595-5.335-2.799-8.018-5.248-2.187-3.323.03-2.187.583-.875-1.334-2.981.022-2.675.714-1.18-2.063-2.599.028-3.734.312-.107.353-1.426-1.764-1.392v-5.052l3.644-2.12 1.544-1.589 1.546-1.589 1.21-1.589 1.21-1.589 1.273-1.203.855-.808 2.537-1.662 2.536-1.662 2.916-1.18 2.916-1.182 3.498-.714 3.499-.714 6.356.029 2.332.889 2.333.89 1.723 1.097 2.213 1.41z"/>
    <path fill="none" stroke="#000" stroke-width=".283" d="M452.009 461.14l-6.253-.03-9.68-.175-6.151 1.166-7.96 2.187-4.752 1.807-10.263 4.228-3.555 2.489"/>
    <path fill="none" stroke="#000" stroke-width=".283" d="M452.362 462.014l-4.77-.204-6.239-.175-3.848.233-5.86.875-2.537.408-9.038 2.624-6.181 2.215-3.965 1.604-6.53 3.218M451.387 466.97l-3.474.933-8.105 1.808-8.426 1.982-8.046 1.604-9.097 1.895-5.277.962-4.634-.08M451.59 468.195l-2.627.554-7.085 2.1-6.414 1.72-7.055.99-6.619.875-5.306 1.108-5.627.992-4.11.612-1.94 1.01M453.486 475.834l-7.84 2.369-6.853 2.157-6.006 1.341-2.944 1.05-3.382.525-4.49.35-6.269.466-9.586-.017"/>
    <path fill="none" stroke="#000" stroke-width=".283" d="M414.477 484.988l-6.857-.024-1.81 1.4m47.982-9.522L450.018 478l-5.19 1.69-4.49 1.283-5.597 1.72-3.47.584-3.731.67-3.353.292-5.307.437-4.506.313M454.477 483.764l-3.78 1.893-4.664 1.983-5.803 1.837-6.735 1.72-4.023.787-3.324.321-4.432.087-4.635-.087-4.374-.379-3.09-.729-2.947-.787"/>
    <path fill="none" stroke="#000" stroke-width=".283" d="M454.698 484.692l-5.137 2.977-5.351 2.23-5.86 1.968-4.272.788-3.965.641-4.606.38-9.753-.54-2.784-.51-2.566-.525"/>
    <path fill="none" stroke="#000" stroke-width=".283" d="M410.493 492.12l-1.955-.5-1.463-.111M450.133 494.085l-4.263 3.045-4.985 1.779-5.598 1.4-4.373.611-4.636-.029-5.919.117-2.653-.233-6.048-1.023"/>
    <path fill="none" stroke="#000" stroke-width=".283" d="M448.281 496.373l-3.49 2.39-3.935 1.429-6.677 1.545-6.56.32-6.764-.087-5.014-.758-2.866-.598"/>
    <path fill="#ffd42a" fill-rule="evenodd" stroke="#000" stroke-width=".283" d="M458.732 490.858l-2.622-5.228-1.123 1.778-1.122 1.78-1.866 2.448-1.866 2.449-1.852 2.288-1.85 2.29-2.479 2.798-2.478 2.8-1.516 1.297-1.516 1.297-1.006.977-1.006.976 4.158 3.976 5.19 4.694 4.373 4.664 3.236 3.907 3.324 4.228 2.566 3.499 3.512 5.758.783 1.733.757-1.049.315-2.843-.985-23.776-1.778-11.663zM425.693 516.891l5.692-6.741-2.056-.846-2.055-.845-2.61-1.298-2.61-1.297-2.667-1.4-2.668-1.399-3.744-2.451-1.317-.862-2.957-1.935-1.093-1.662-1.093-1.661-1.039.707-.802 3.557-.642 8.265-.233 9.739-.058 8.221.408 8.193 1.079 5.89 2.377 8.6.378 1.122.61-2.099 2.056-5.379 4.46-8.995 4.914-8.31z"/>
    <path fill="none" stroke="#000" stroke-width=".283" d="M452.427 554.56l-3.44-6.706-4.957-7.785-6.356-6.268-6.91 8.047-6.21 9.826-2.857 5.19"/>
    <path fill="#1e1e20" fill-rule="evenodd" stroke="#000" stroke-width=".283" d="M437.674 533.801l-6.91 8.047L434 563.745l11.036-1.169-1.343-22.84z"/>
    <path fill="#ffd42a" fill-rule="evenodd" stroke="#000" stroke-width=".283" d="M430.484 564.34l-1.72 1.865 1.108 8.135 1.458.729 16.998-2.1 1.574-.874-.116-7.872-2.275-1.925z"/>
    <path fill="#1e1e20" fill-rule="evenodd" stroke="#000" stroke-width=".283" d="M435.46 574.558l10.383-1.282 1.425 17.037-9.462 1.598z"/>
    <path fill="#ffd42a" fill-rule="evenodd" stroke="#000" stroke-width=".283" d="M451.91 590.956l-1.078-.612-3.558-.032-12.536 2.117-1.385 1.516.802 7.565 1.968 1.312 15.087-1.982 1.167-1.196z"/>
    <path fill="#1e1e20" fill-rule="evenodd" stroke="#000" stroke-width=".283" d="M438.89 602.458l9.887-1.299 1.092 12.057-9.155.67z"/>
    <path fill="none" stroke="#000" stroke-width=".283" d="M440.714 613.887l-2.917 1.777M449.869 613.216l1.252.553"/>
    <path fill="#ff2a2a" fill-rule="evenodd" stroke="#000" stroke-width=".283" d="M427.45 650.58l1.953-3.819 1.108-5.656 1.05-3.41 3.76-7.348 3.442-3.644 1.049-1.4 2.187-2.187 3.557-1.69h7.114l3.76 1.85 3.806 3.674 1.515 6.108 2.566 7.406 1.633 5.073 2.565 6.239 3.557 7.726 1.662 3.412 2.624 4.256 2.42 4.14 1.487 2.45 3.615 4.022 3.644 3.207.044 1.7-3.558-.97-6.968-1.312h-11.517l-3.615 1.662-3.09 2.74-2.275 3.704-2.128 4.49-1.254 4.402-.641 3.965v11.517l-3.732-3.674-3.353-4.17-1.4-3.819-1.457-2.507-2.478-2.274-1.4-.7-2.713-1.078-1.982-1.458-1.575-2.77-.874-4.49V675.86l-2.626-4.592-.758-17.436z"/>
    <path fill="none" stroke="#000" stroke-width=".283" d="M487.568 682.688l4.603 3.434 3.966 4.724 3.323 6.239.642 5.131v5.015l-1.967 3.557-3.88 3.382-5.685 2.04-10.67 2.362-2.1.234M475.8 718.806h-10.408l-4.752-.846-3.587-1.225"/>
    <path fill="#ffd42a" fill-rule="evenodd" stroke="#000" stroke-width=".283" d="M460.64 717.96l-3.334-1.138-2.993-2.098-1.791-1.837V701.37l.32-1.982.321-1.983.627-2.201.627-2.201 1.064-2.246 1.064-2.244 1.137-1.852 1.138-1.851 1.545-1.37 1.545-1.371 1.807-.83 1.808-.832h11.516l3.484.656 3.485.656 3.558.97 4.603 3.433 3.965 4.723 3.324 6.24.642 5.131v5.015l-1.968 3.557-3.878 3.382-5.686 2.04-10.67 2.362-2.1.234h-10.408l-2.377-.423z"/>
    <path fill="none" stroke="#000" stroke-width=".283" d="M450.245 621.425v2.764l1.866 6.035 2.04 6.064 2.537 8.28"/>
    <path fill="#ffd42a" fill-rule="evenodd" stroke="#000" stroke-width=".283" d="M460.42 644.568h-4.781l-2.362.409-.685.451v1.662l.991.583 7.246-.393.947-.831v-1.006z"/>
    <path fill="none" stroke="#000" stroke-width=".283" d="M457.628 647.453l2.076 5.526 3.029 7.549"/>
    <path fill="#ffd42a" fill-rule="evenodd" stroke="#000" stroke-width=".283" d="M467.732 663.504l-1.62-3.422-8.047 1.061 1.11 3.422z"/>
    <path fill="none" stroke="#000" stroke-width=".283" d="M464.387 663.918l3.013 6.142 3.032 5.248 5.364 5.1M438.608 626.866l.627 10.219 1.05 6.91 2.1 9.738 2.332 8.63.524 1.166.846 6.618v11.575l-1.02 4.636-.526 5.626v7.669l.374 3.966M432.102 688.74l3.956.532 6.997 9.156"/>
    <path fill="#ffd42a" fill-rule="evenodd" stroke="#000" stroke-width=".283" d="M428.932 671.267l-.237-5.441-1.56 3.797-.992 5.598v17.727l6.152 2.536h5.704l-.654-.28-1.356-.54-.991-.728-.991-.73-.788-1.384-.787-1.385-.33-1.697-.544-2.793V675.86z"/>
    <path fill="none" stroke="#000" stroke-width=".283" d="M427.134 669.623l1.66 2.45.138-.806"/>
    <path fill="#ffd42a" fill-rule="evenodd" stroke="#000" stroke-width=".283" d="M458.873 624.001l.48-.095 1.015 1.955-.132 1.09-1.903-1.838-1.902-1.837-3.761-1.85h-7.114l-3.557 1.69-1.094 1.093-1.093 1.094-.525.7-.68.863-1.565 1.659-1.72 1.822-3.761 7.347-.525 1.705-.525 1.706-.554 2.828-.554 2.828-.976 1.91-.977 1.91-2.93-7.577-3.018-6.326 1.538-9.617 1.518 2.012h5.948l10.466-7.813 4.315-1.574h5.54l5.306 1.924z"/>
    <path fill="#ff7f2a" fill-rule="evenodd" stroke="#000" stroke-width=".283" d="M440.701 343.311l5.059-.003.463-3.291.03-1.896-.7-1.297-1.793 1.37-1.123 1.94z"/>
    <path fill="none" stroke="#000" stroke-width=".283" d="M368.471 350.408l3.458-3.068 2.926-3.728M368.43 349.656l.355-1.232 5.802-5.218 2.136-3.105M385.45 321.697l-4.27 6.994-2.595 3.76-2.536 3.12-4.328 4.564M379.867 331.646l-1.894 2.614-3.062 3.644-3.003 3.207-5.297 4.447"/>
    <path fill="#ff2a2a" fill-rule="evenodd" stroke="#000" stroke-width=".283" d="M331.675 166.27l.572 1.686-2.988 2.829-7.026 5.83-7.756 5.452-7.872 4.752-7.26 3.383-.787.99.991 6.094 1.108 2.945 1.688 3.514-.842.07-1.75-1.312-1.457-5.19-.995-6.168.92-1.619 8.063-4.109 4.87-3.177 4.868-3.178 6.647-4.782 5.015-4.14z"/>
    <path fill="none" stroke="#000" stroke-width=".283" d="M371.31 45.08c-6.162 1.948-12.966 1.88-19.175.112-56.469-16.085 72.275-16.9 19.174-.112z"/>
    <path fill="#ff7f2a" fill-rule="evenodd" stroke="#000" stroke-width=".216" d="M429.845 187.402l-1.983-.525-9.504-5.131-3.965-2.537-3.965-2.537-7.581-5.189-6.356-5.365-5.498-5.557-.477 1.526 5.1 5.547 7.697 6.706 15.57 10.555 11.661 5.656z"/>
    <path fill="#1e1e20" fill-rule="evenodd" stroke="#000" stroke-width=".283" d="M231.344 187.495h-1.02l2.032 1.459v1.457l-1.348 2.77.765 1.385-.182 1.677-.948.291v2.551l1.494 1.494 2.478 1.568 3.973 1.749 2.26.364h8.49l3.208-.583 4.665-1.202 5.32-1.64h6.797l-.018-1.349-.692-1.057.146-.729.71-.783.019-2.66-.647-.756.893-1.185v-1.957l-9.21-2.485-4.053-.889-4.053-.89-2.886-.495-2.77-.476-2.42-.02h-2.303l-2.04.19-2.041.19-2.333.495-2.332.496z"/>
    <path fill="none" stroke="#000" stroke-width=".283" d="M262.568 188.423l-8.299-.242-6.65-.402-6.142-1.494-1.474-.991M232.356 190.294l1.869.146 3.28 1.567 5.74.856 4.1.638 5.138.237 6.305.146 10.272-.133"/>
    <path fill="#555" fill-rule="evenodd" stroke="#000" stroke-width=".283" d="M248.401 186.905l-4.975-.82M248.26 186.882l3.932.57 5.411.826M243.57 186.108l-2.546-.909"/>
    <path fill="none" stroke="#000" stroke-width=".283" d="M231.59 196.243l3.202 1.16 1.44.4 6.85-.018 9.349.129 7.69.073 6.98.328 1.745.463"/>
    <path fill="#555" fill-rule="evenodd" stroke="#000" stroke-width=".283" d="M268.764 197.7l-12.962-.843M255.915 196.864l-11.775-.117-8.874.017M235.266 196.764l-3.584-1.36M234.38 201.998l23.198.364M236.938 203.17l17.94-.094"/>
    <path fill="#ffd42a" fill-rule="evenodd" stroke="#000" stroke-width=".283" d="M231.773 194.566l-.647-1.17h-2.472l-.91 1.058-1.204 4.774v3.608h2.424l8.145 3.372 2.533.273h9.093l16.583-2.497h8.364v-3.152l-4.354.003h-6.796l-2.66.82-2.661.82-2.333.6-2.332.602-1.604.292-1.603.291h-8.492l-2.259-.364-3.973-1.75-2.478-1.567-1.494-1.494v-2.551l.948-.291z"/>
    <path fill="#ffd42a" fill-rule="evenodd" stroke="#000" stroke-width=".283" d="M230.643 199.085l-1.378-1.651v-1.768l.728-.601"/>
    <path fill="none" stroke="#000" stroke-width=".283" d="M232.356 188.954l2.907.94 3.262 1.256 6.214.784 5.977.565 7.744.4 10.71.171"/>
    <path fill="#1e1e20" fill-rule="evenodd" stroke="#000" stroke-width=".283" d="M446.412 116.8l16.36-36.49 2.488.03 2.084 1.894.015 4.403 2.989.904 1.603.976 1.283 2.274-.044 3.339-.175 1.254.292 1.34 1.312.686.801 1.91.03 3.061-.496 1.458 2.26 2.157.656 1.502.028 3.207-.45 1.326.611 1.108 2.77 2.1v4.664l-2.449 2.362.437.816 2.8 2.128v3.557l-.788.817.03 1.108 1.545 1.501-45.285 12.44 1.585-4.463 1.966-7 1.966-7 1.888-4.684z"/>
    <path fill="none" stroke="#000" stroke-width=".283" d="M467.372 86.114l-5.6 4.55-5.694 4.576M454.634 98.46l6.059-5.901 6.269-4.14.936-.79 2.45-.088M473.087 95.097l-4.26 1.719-6.093 3.44-6.997 4.956-6.727 5.793"/>
    <path fill="none" stroke="#000" stroke-width=".283" d="M473.307 96.725l-1.738.265-5.657 3.091-6.152 3.79-5.16 3.732-3.995 3.732-4.105 5.267M475.448 102.166l-1.708 1.545-2.595.962-3.965 1.779-3.499 1.895-6.21 3.703-5.131 3.294-4.053 3.15-3.947 3.447"/>
    <path fill="none" stroke="#000" stroke-width=".283" d="M475.432 104.296l-2.567.96-4.782 2.245-6.443 3.295-5.947 3.586-5.511 3.82-2.653 2.128-4.371 4.544M477.897 110.594l-4.73 2.011-18.572 8.194-12.327 6.678M478.06 113.14l-2.094.457-4.577 1.487-7.989 3.44-9.446 4.549L441.84 129M478.964 121.701l-12.007 3.558-8.397 2.712-8.134 2.682-5.948 2.128-4.216 1.84M479.216 123.385l-4.62 1.116-12.013 3.849-10.116 2.944-7.202 2.625-5.371 2.014M481.616 128.766l-2.618 1.187-9.534 2.012-12.012 3.411-7.464 2.129-7.842 2.42-3.753 1.119M480.858 130.69l-3.055.633-2.1.146-13.557 4.403-12.04 2.828-12.195 3.7"/>
    <path fill="#ff2a2a" fill-rule="evenodd" stroke="#000" stroke-width=".283" d="M436.885 153.378l.233-8.747 45.285-12.439 3.067-.781 3.848 4.431.38 4.782-1.4.204.947 5.28 1.851-.12 4.49 27.96v5.978l-4.373 7.9h-2.04l-1.954-1.02-4.665-.99-4.082-.38h-4.606l-5.773.991-8.105 1.779-9.65 2.595h-2.975l-4.431-5.598-4.677-25.819.146-1.458z"/>
    <path fill="#ffd42a" fill-rule="evenodd" stroke="#000" stroke-width=".283" d="M490.738 140.631l1.029 5.3-2.522.177-.947-5.28z"/>
    <path fill="#ff7f2a" fill-rule="evenodd" stroke="#000" stroke-width=".283" d="M485.168 163.49v-12.625l-.911-14.037-6.961 1.15-13.295 3.15-20.416 6.58-1.48 1.904v5.16l3.411 18.34 2.683 2.288 23.47-5.613 5.423-.99 4.46-.759 2.567-2.274z"/>
    <path fill="none" stroke="#000" stroke-width=".283" d="M489.332 136.02l-5.075.808M487.072 136.38l-1.204 1.43.4 13.52.401 9.767-.583 3.864-1.275 1.858-1.458.802-1.8.417M443.585 147.708l-2.495.863-.645 1.01.031 3.207.838 5.813 2.915 16.473.875.619 3.095-.293M491.78 150.25l-1.562.844-.146.364 2.278 11.26.766 4.374.838 5.03.109 4.519-1.093 3.571-3.798 7.615"/>
    <path fill="none" stroke="#000" stroke-width=".283" d="M492.232 162.137l-1.194.327-.947 1.312v3.717l-1.203 2.004-1.24 1.313-2.951 1.02.474 3.9-.037 2.332-2.58 7.753M494.063 176.64c-19.915-.155-31.808 3.06-51.131 8.563"/>
    <path fill="#ff2a2a" fill-rule="evenodd" stroke="#000" stroke-width=".283" d="M491.553 203.168H497.32l2.588 1.38-.146.91 1.713 1.677v4.665l-1.494 5.904-2.333 11.9-1.275 8.582-1.567 10.587-.965 8.236-.784 7.162c-.507 7.666-1.455 15.295-1.968 22.96l-.402 4.01-1.093 10.204-9.001 3.682h-16.728l-7.981-1.13-7.763-3.024-2.114-2.66.183-19.098.255-24.964 2.624-1.568.837 15.928.51 11.735.547 2.515 3.353 3.79 5.32 1.822h11.48l4.155-1.603 4.046-2.297 2.733-2.55.747-1.768 1.203-4.373 1.966-27.387 2.077-18.841.582-9.768.292-5.612-1.057-1.895-6.268 1.275H466.14l-16.145-1.677h-6.087l-.018-7.58 2.945.019h8.364l8.29 1.248 8.292 1.249h9.093l2.533-.274z"/>
    <path fill="none" stroke="#000" stroke-width=".283" d="M499.908 204.547l-1.91 6.348 1.42 2.552v7.906M494.243 203.168v4.538l-2.113 10.97-2.041 15.526-1.385 14.76-1.166 15.416-1.713 16.91-1.422 1.64-5.903 3.572-3.171 1.348-4.212.525M492.005 276.382l.36-3.797-2.64.005.018 3.833zM492.694 268.916l.276-3.491h-2.935v3.49zM493.257 262.337l.354-3.237h-2.757v3.237zM447.056 253.786l.793 8.528v15.817l.256 5.248 2.405 2.223 2.004 1.567 2.078.656 5.045.548"/>
    <path fill="#ff7f2a" fill-rule="evenodd" stroke="#000" stroke-width=".283" d="M488.917 214.174l-1.057-1.896-6.268 1.276H466.14l-16.145-1.677h-3.859l-1.53 1.967.473 20.518 3.317 14.687.673 3.534.418 7.964.42 7.964.254 5.867.256 5.868.546 2.515 3.353 3.79 5.32 1.822h11.48l4.156-1.603 4.045-2.297 2.733-2.55 1.95-6.141 1.966-27.387 2.077-18.841z"/>
    <path fill="none" stroke="#000" stroke-width=".283" d="M491.908 203.168v4.899l-.619 2.442-3.429 1.77"/>
    <path fill="#1e1e20" fill-rule="evenodd" stroke="#000" stroke-width=".283" d="M479.511 358.436l.254-4.474.51-1.976.838-7.69-3.207 2.04-3.608 1.311-6.305 1.35-4.847.364h-8.82l-1.93-.839-1.422-1.713.018-5.52 1.112-6.762 1.931-6.268 2.333-8.054 1.166-1.604h23.434l2.478 1.458v-3.9l-1.349-1.676.044-1.02-4.118.839-4.556.546-8.892-.51-9.986-1.13-1.895 1.13-2.624 2.843-3.9 2.952-1.17 1.19-1.052 1.158-.697.766-.991.175-1.866 1.75-.693 1.326-.692 1.327-.712 1.342-1.304 2.257-1.016 1.707-.423.787-1.108.613-.991.729-.73 1.836-.932 2.245-1.837 2.245-.19 1.268.082.356-.655 2.085 1.501 1.91 1.545.7h2.858l4.956-3.441.787-1.4 2.92-4.87 1.793-1.37.7 1.298-.03 1.895-.335 2.945-.412 5.03-1.127 3.854-1.126 3.854-1.604 8.89-.474 2.453-1.02 4.898-.088 3.47.241 3.173.612 1.342 1.195 1.283h2.245l.962-.205.991-2.04.182-.429.625-.5 2.246.02.038 7.118 1.953 2.333 2.966.002 1.458-1.9 1.422-3.627.728-4.573.932-4.704.54-2.903.969-2.489-.62 6.232-1.13 5.977-.107 1.493v1.858l1.95 1.604h3.315l2.423-3.899 2.096-12.592.412-2.064.465-4.628 1.036-4.897.874-2.406v9.676l-.765 2.807v4.865l2.059 2.26h2.296l2.404-2.94.673-2.246.48-4.657.62-1.902.074-1.987z"/>
    <path fill="none" stroke="#000" stroke-width=".283" d="M455.423 387.519l-1.13-.011 1.135-1.48z"/>
    <path fill="#ff2a2a" fill-rule="evenodd" stroke="#000" stroke-width=".283" d="M480.967 318.601l2.478 1.458v8.007l-.94 1.385v1.24l.402.874-.291 9.84-1.503 2.891-3.207 2.04-3.608 1.311-6.305 1.35-4.847.364h-8.82l-1.93-.839-1.422-1.713.018-5.52 1.112-6.762.966-3.134.965-3.134 1.167-4.027 1.166-4.027 1.166-1.604z"/>
    <path fill="none" stroke="#000" stroke-width=".283" d="M483.445 328.066l-2.099 1.277-5.23 1.494-2.441.346h-15.491l-4.76-.94"/>
    <path fill="none" stroke="#000" stroke-width=".283" d="M482.506 329.747l-2.967 1.384-6.104 1.22h-15.38l-4.986-.958"/>
    <path fill="#ff2a2a" fill-rule="evenodd" stroke="#000" stroke-width=".283" d="M441.235 335.189l4.228-5.386v-4.848l-2.212-1.708-.991.175-1.866 1.75-1.385 2.653-.694 1.329-.761 1.318-1.154 1.872v.877l2.12 1.968zM433.455 335.26l1.248-.871 3.38 3.06.583.729-.62 1.603-.929 1.421-1.713 2.132-1.421 1.148h-1.786l-1.257-.783-1.124-1.177.14-.936 1.837-2.245zM479.699 349.552l-1.11-1.204h-1.695l-2.86 3.044-.274 1.293v8.037l.69.51h2.789l1.658-1.366v-5.814l.802-1.676zM477.839 363.41l-3.845.028-1.44 1.786v5.284l1.276 1.659 2.03-.055 1.19-1.455v-3.993l.789-1.713zM466.057 367.178l2.587-1.072.967-9.442v-3.28l-1.021-1.367h-2.515l-2.241 2.46-.73 6.324v5.266l.457 1.111zM467.058 368.364l-1.906.011-2.795.972-1.258 1.495v9.385l1.422 1.712 2.132.037.893-1.877 1.458-9.348zM461.663 354.698l-1.784-1.823h-1.768l-3.061 4.173-.33 3.59v5.14l1.349 1.786h2.824l1.604-1.075 1.166-9.732zM459.374 369.8l-.773-.617h-4.92l-1.823 2.752-.51 9.13 1.403 1.967h2.953l1.469-1.05.728-4.575.932-4.703zM452.802 352.984l-1.348-1.622h-1.586l-3.025 2.752-1.111 3.7-.401 1.53v3.371l1.895 2.515h2.46l1.344-2.327 1.772-7.295zM449.062 369.538l.128-2.096-3.098-1.366h-1.421l-1.567 5.157v4.719l3.179 3.012.182-.429.625-.5z"/>
    <g fill="#ffd42a" fill-rule="evenodd" stroke="#000" stroke-width=".283">
        <path d="M488.888 301.706l-8.295 3.321h-16.728l-7.981-1.13-7.763-3.024.848 2.3 2.041 1.64 1.458.402v1.02l-.346.656v.784l.583.528-.583.583v1.002l.601.93v1.713l1.866.778 9.986 1.13 8.892.51 4.556-.547 4.118-.838 1.414-2.236v-1.421l-.346-.255 1.112-1.076v-.765l-1.203-.802z"/>
        <path d="M483.118 306.91l-4.803.244h-12.009l-4.61-.364-9.228-1.676M483.21 309.552l-3.674.172-1.476.164h-14.87"/>
        <path d="M463.336 309.888l-10.004-1.75-.627.065M452.573 310.486l9.96 1.899h13.247l7.775-1.157"/>
    </g>
    <path fill="#1e1e20" fill-rule="evenodd" stroke="#000" stroke-width=".283" d="M489.172 187.827h1.02l-2.032 1.458v1.458l1.349 2.77-.765 1.385.182 1.676.947.292v2.55l-1.494 1.495-2.478 1.567-3.973 1.75-2.259.364h-8.491l-3.207-.583-4.666-1.203-5.32-1.64h-6.797l.018-1.348.693-1.057-.146-.73-.711-.783-.018-2.66.646-.756-.892-1.184v-1.958l9.21-2.484 4.052-.89 4.053-.889 2.886-.495 2.771-.476 2.419-.02h2.303l2.041.19 2.04.19 2.333.495 2.333.495z"/>
    <path fill="none" stroke="#000" stroke-width=".283" d="M457.949 188.754l8.298-.242 6.651-.4 6.142-1.495 1.473-.991M488.16 190.626l-1.868.146-3.28 1.567-5.74.856-4.1.638-5.139.237-6.305.146-10.272-.133"/>
    <path fill="#767877" fill-rule="evenodd" stroke="#000" stroke-width=".283" d="M472.115 187.237l4.975-.82M472.257 187.213l-3.932.57-5.412.827M476.946 186.44l2.547-.91"/>
    <path fill="none" stroke="#000" stroke-width=".283" d="M488.926 196.574l-3.201 1.16-1.44.401-6.851-.018-9.348.128-7.69.073-6.98.328-1.746.464"/>
    <path fill="#767877" fill-rule="evenodd" stroke="#000" stroke-width=".283" d="M451.753 198.032l12.962-.844M464.602 197.196l11.775-.117 8.873.017M485.25 197.096l3.584-1.36M486.137 202.33l-23.199.363M483.579 203.501l-17.941-.094"/>
    <path fill="#ffd42a" fill-rule="evenodd" stroke="#000" stroke-width=".283" d="M488.744 194.898l.646-1.17h2.473l.91 1.057 1.203 4.775v3.608h-2.423l-8.146 3.371-2.533.274h-9.093l-16.582-2.497h-8.364v-3.153l4.353.003h6.797l2.66.82 2.66.82 2.333.601 2.333.602 1.603.291 1.604.292h8.491l2.26-.365 3.972-1.749 2.478-1.567 1.494-1.494v-2.551l-.947-.292z"/>
    <path fill="#ffd42a" fill-rule="evenodd" stroke="#000" stroke-width=".283" d="M489.873 199.417l1.379-1.651v-1.768l-.729-.601"/>
    <path fill="none" stroke="#000" stroke-width=".283" d="M488.16 189.285l-2.907.94-3.262 1.257-6.214.784-5.976.565-7.745.4-10.71.17M245.085 103.964l2.567.961 4.781 2.245 6.443 3.294 5.948 3.587 5.51 3.819 2.653 2.128 4.372 4.544"/>
    <path fill="none" d="M533.624 39.057h46.5v161.25h-46.5z"/>
    <path fill="none" d="M490.625 93.086h106.5v41.25h-106.5z"/>
</svg>
