<?xml version="1.0" encoding="UTF-8" standalone="no"?>
<svg
   xmlns:dc="http://purl.org/dc/elements/1.1/"
   xmlns:cc="http://creativecommons.org/ns#"
   xmlns:rdf="http://www.w3.org/1999/02/22-rdf-syntax-ns#"
   xmlns:svg="http://www.w3.org/2000/svg"
   xmlns="http://www.w3.org/2000/svg"
   xmlns:sodipodi="http://sodipodi.sourceforge.net/DTD/sodipodi-0.dtd"
   xmlns:inkscape="http://www.inkscape.org/namespaces/inkscape"
   inkscape:version="1.0 (4035a4fb49, 2020-05-01)"
   sodipodi:docname="0099.svg"
   viewBox="0 0 725.66931 725.66931"
   id="svg23"
   height=""
   width=""
   version="1.1">
  <metadata
     id="metadata29">
    <rdf:RDF>
      <cc:Work
         rdf:about="">
        <dc:format>image/svg+xml</dc:format>
        <dc:type
           rdf:resource="http://purl.org/dc/dcmitype/StillImage" />
        <dc:title></dc:title>
      </cc:Work>
    </rdf:RDF>
  </metadata>
  <defs
     id="defs27" />
  <sodipodi:namedview
     inkscape:current-layer="svg23"
     inkscape:window-maximized="0"
     inkscape:window-y="0"
     inkscape:window-x="0"
     inkscape:cy="563.71197"
     inkscape:cx="362.83466"
     inkscape:zoom="0.79650605"
     showgrid="false"
     id="namedview25"
     inkscape:window-height="480"
     inkscape:window-width="820"
     inkscape:pageshadow="2"
     inkscape:pageopacity="0"
     guidetolerance="10"
     gridtolerance="10"
     objecttolerance="10"
     borderopacity="1"
     bordercolor="#666666"
     pagecolor="#ffffff" />
  <g
     id="Layer1000">
    <path
       id="path2"
       style="fill:#000000;fill-rule:evenodd;stroke:#000000;stroke-width:2.0001;stroke-linecap:butt;stroke-linejoin:miter;stroke-dasharray:none"
       d="m 471.2643,445.0333 -10.4459,-19.6868 -44.5961,53.034 -12.4552,48.6134 27.7227,-5.6245 25.7134,-31.3379 z" />
    <path
       id="path4"
       style="fill:#8d9dce;fill-rule:evenodd"
       d="m 435.0005,481.2814 c 2.5511,0 4.6198,2.0688 4.6198,4.6198 0,2.5511 -2.0687,4.6199 -4.6198,4.6199 -2.5511,0 -4.6198,-2.0688 -4.6198,-4.6199 0,-2.551 2.0687,-4.6198 4.6198,-4.6198 z m 2.5146,-18.6907 -13.9506,10.7108 -0.9147,15.3136 c -0.9051,9.4826 6.1201,16.4105 15.6318,15.1435 l 13.6421,-11.2331 3.8047,-17.4602 c -5.0061,-7.0883 -11.0655,-11.2781 -18.2133,-12.4746 z" />
    <path
       id="path6"
       style="fill:#000000;fill-rule:evenodd;stroke:#000000;stroke-width:2.0001;stroke-linecap:butt;stroke-linejoin:miter;stroke-dasharray:none"
       d="m 250.1438,445.0333 10.446,-19.6868 44.5961,53.034 12.4552,48.6134 -27.7227,-5.6245 -25.7134,-31.3379 z" />
    <path
       id="path8"
       style="fill:#8d9dce;fill-rule:evenodd"
       d="m 281.1914,481.2814 c -2.5511,0 -4.6199,2.0688 -4.6199,4.6198 0,2.5511 2.0688,4.6199 4.6199,4.6199 2.551,0 4.6198,-2.0688 4.6198,-4.6199 0,-2.551 -2.0688,-4.6198 -4.6198,-4.6198 z m -2.5146,-18.6907 13.9506,10.7108 0.9147,15.3136 c 0.905,9.4826 -6.1201,16.4105 -15.6319,15.1435 l -13.642,-11.2331 -3.8047,-17.4602 c 5.0061,-7.0883 11.0655,-11.2781 18.2133,-12.4746 z" />
    <path
       id="path10"
       style="fill:#ffde74;fill-rule:evenodd;stroke:#000000;stroke-width:2.0001;stroke-linecap:butt;stroke-linejoin:miter;stroke-dasharray:none"
       d="M 397.9325,339.325 H 314.7924 C 276.2144,263.7737 224.2689,203.1922 158.906,157.6413 c 14.3697,119.2181 42.2807,203.138 85.5769,246.2836 l -12.0531,52.6319 -42.5868,36.5615 c 59.5003,51.9905 106.3814,101.8041 181.171,132.2649 63.8322,-29.5826 110.0962,-93.5873 155.7856,-146.0418 L 483.9103,451.0162 471.0542,405.215 C 528.493,323.0261 558.7886,235.4096 562.6565,142.5087 495.26,192.4267 440.4743,258.3023 397.9325,339.325 Z m 12.7577,183.5349 c 35.2021,-16.1202 51.8459,-45.8861 50.6226,-88.7912 -25.3575,25.355 -42.4058,54.8646 -50.6226,88.7912 z m -98.4331,1.6072 c -9.8385,-30.3187 -27.3922,-59.2744 -55.4441,-86.3811 3.7185,50.6663 22.7979,78.5724 55.4441,86.3811 z" />
    <path
       id="path12"
       style="fill:#ffffff;fill-rule:evenodd;stroke:#000000;stroke-width:2.0001;stroke-linecap:butt;stroke-linejoin:miter;stroke-dasharray:none"
       d="m 158.906,157.6413 c 3.9881,34.8498 10.0985,69.4956 18.1404,103.9421 l 7.194,-12.0689 12.867,2.5717 7.2827,-13.3517 17.2354,1.7456 5.9257,-10.0888 13.9603,0.6754 C 216.3946,202.5799 188.9149,178.0145 158.906,157.6413 Z" />
    <path
       id="path14"
       style="fill:#ffffff;fill-rule:evenodd;stroke:#000000;stroke-width:2.0001;stroke-linecap:butt;stroke-linejoin:miter;stroke-dasharray:none"
       d="m 562.6565,142.5087 c -1.4213,35.931 -7.1466,70.8088 -16.2381,104.8629 l -9.0963,-12.9897 -12.8671,2.5717 -7.2826,-13.3518 -17.2354,1.7457 -5.9258,-10.0888 -11.4384,0.5539 c 24.6614,-28.1952 51.507,-52.344 80.0837,-73.3039 z" />
    <path
       id="path16"
       style="fill:#820082;fill-rule:evenodd;stroke:#000000;stroke-width:2.0001;stroke-linecap:butt;stroke-linejoin:round;stroke-dasharray:none"
       d="m 252.9949,515.83 2.6118,-37.9682 c 1.1116,15.4108 6.1213,28.3859 20.089,35.7585 6.8149,9.6016 15.8189,15.3743 26.9185,17.4771 l -24.9105,3.8157 -7.4321,-14.4633 c -5.7593,-1.5404 -11.5174,-3.0795 -17.2767,-4.6198 z" />
    <path
       id="path18"
       style="fill:#820082;fill-rule:evenodd;stroke:#000000;stroke-width:2.0001;stroke-linecap:butt;stroke-linejoin:miter;stroke-dasharray:none"
       d="m 445.0419,532.7058 -23.3032,-3.2143 c 10.1046,-2.8706 18.4259,-8.5121 23.7053,-18.8827 11.5976,-3.3297 18.0651,-13.9494 19.4852,-31.74 l -0.6025,36.7619 -14.2628,3.2144 z" />
    <path
       id="path20"
       style="fill:#521f00;fill-rule:evenodd;stroke:#521f00;stroke-width:2.0001;stroke-linecap:butt;stroke-linejoin:miter;stroke-dasharray:none"
       d="m 383.4765,599.9127 c -9.6406,10.5249 -19.2848,11.4397 -28.9265,0 z" />
  </g>
</svg>
