<?xml version="1.0" encoding="UTF-8" standalone="no"?>
<svg
   xmlns:dc="http://purl.org/dc/elements/1.1/"
   xmlns:cc="http://creativecommons.org/ns#"
   xmlns:rdf="http://www.w3.org/1999/02/22-rdf-syntax-ns#"
   xmlns:svg="http://www.w3.org/2000/svg"
   xmlns="http://www.w3.org/2000/svg"
   xmlns:sodipodi="http://sodipodi.sourceforge.net/DTD/sodipodi-0.dtd"
   xmlns:inkscape="http://www.inkscape.org/namespaces/inkscape"
   version="1.1"
   width=""
   height=""
   id="svg4"
   viewBox="0 0 725.66931 725.66931"
   sodipodi:docname="bird.svg"
   inkscape:version="1.0 (4035a4fb49, 2020-05-01)">
  <metadata
     id="metadata10">
    <rdf:RDF>
      <cc:Work
         rdf:about="">
        <dc:format>image/svg+xml</dc:format>
        <dc:type
           rdf:resource="http://purl.org/dc/dcmitype/StillImage" />
        <dc:title />
      </cc:Work>
    </rdf:RDF>
  </metadata>
  <defs
     id="defs8" />
  <sodipodi:namedview
     inkscape:document-rotation="0"
     pagecolor="#ffffff"
     bordercolor="#666666"
     borderopacity="1"
     objecttolerance="10"
     gridtolerance="10"
     guidetolerance="10"
     inkscape:pageopacity="0"
     inkscape:pageshadow="2"
     inkscape:window-width="1304"
     inkscape:window-height="746"
     id="namedview6"
     showgrid="false"
     inkscape:zoom="0.79650605"
     inkscape:cx="362.83466"
     inkscape:cy="362.83466"
     inkscape:window-x="-8"
     inkscape:window-y="-8"
     inkscape:window-maximized="1"
     inkscape:current-layer="svg4" />
  <path
     d="m 385.5484,568.8119 c 0.248,0.125 0.4572,0.229 0.5578,0.2818 1.3077,0.6848 2.6039,1.3989 3.8398,2.207 1.3697,0.8958 3.0297,2.1362 3.8912,3.549 l 0.3869,0.6347 -0.7155,-0.201 c -2.8746,-0.8076 -5.6817,-1.7884 -8.5393,-2.5991 -3.6298,-1.0295 -7.469,-1.4275 -11.2122,-1.7989 -7.5506,-0.7489 -15.2113,-1.0153 -22.7968,-0.8753 -7.7808,0.1434 -15.6889,0.7107 -23.3702,1.9834 -6.9095,1.1449 -13.7398,3.2652 -20.6762,4.1037 l -1.133,0.1367 1.4811,-1.0608 c 0.0921,-0.0595 0.1808,-0.1244 0.2738,-0.1825 0.0907,-0.0564 0.1811,-0.1137 0.273,-0.1687 0.3333,-0.1993 0.7242,-0.3968 1.0726,-0.5737 12.0651,-6.1177 28.5046,-9.8558 42.0378,-10.514 -0.0283,-1.4179 -0.2653,-3.0192 -0.4498,-4.4008 -0.3555,-2.6623 -0.7773,-5.3209 -1.2116,-7.9713 -1.169,-7.1371 -2.4602,-14.2617 -3.7735,-21.3735 -2.0624,-11.1677 -4.2006,-22.3274 -6.4003,-33.4689 -3.6816,0.1065 -7.3678,0.2925 -11.0506,0.3016 -3.7655,0.009 -7.4463,-0.2047 -11.1764,-0.7249 l -15.3879,10.6311 c -5.2707,3.5203 -10.6483,6.9162 -16.2065,9.966 -9.5173,5.2223 -21.841,12.5941 -32.9,12.9187 -1.9642,0.0575 -4.3886,-0.5239 -6.2482,-0.2005 -0.5003,0.8405 -2.533,2.2094 -3.2573,2.7406 -1.313,0.9632 -2.6161,1.9358 -3.9075,2.9276 -4.4122,3.388 -8.875,6.7221 -13.3294,10.0542 -6.904,5.1647 -13.8285,10.3031 -20.7759,15.4091 -7.9484,5.842 -15.9282,11.6697 -24.0052,17.3322 -1.6175,1.1341 -11.0798,7.8687 -12.7069,8.1074 -4.066,0.5961 -6.0511,-3.3358 -6.7757,-6.6773 -0.8855,-4.0856 -0.0399,-8.5975 0.8209,-12.6193 2.7151,-12.6867 8.7449,-23.8065 18.0054,-32.8694 l 1.2592,-1.6725 c -3.0257,0.5505 -3.9801,1.6518 -6.7737,3.0737 -2.4812,1.2625 -6.3629,2.2538 -8.8044,0.4067 -6.2116,-4.699 7.2349,-25.196 10.4511,-29.7674 1.8547,-2.6363 3.7939,-5.1055 5.8348,-7.5949 1.2526,-1.5276 2.4931,-3.0546 3.7015,-4.648 l 40.7528,-45.5686 c 1.9058,-3.028 3.2862,-6.3867 5.0536,-9.4998 0.8056,-1.4184 1.7499,-2.8057 2.6357,-4.1779 0.8084,-1.2524 2.3102,-3.4594 2.8125,-4.9139 -5.144,-4.7574 -5.6409,-8.8112 -4.587,-15.6997 0.4958,-3.2403 1.5097,-6.58 2.5568,-9.6814 1.4162,-4.1939 3.0686,-8.3319 4.7974,-12.4059 4.1888,-9.8702 8.9286,-19.5868 13.8047,-29.1344 4.6301,-9.0664 9.4485,-18.0474 14.4131,-26.9348 3.7003,-6.6243 7.4829,-13.2614 11.4647,-19.721 4.6071,-7.4732 8.9175,-15.1367 13.7375,-22.4767 3.6618,-5.5763 7.2848,-11.2187 11.249,-16.5858 4.1066,-5.5605 8.5411,-10.6401 13.4125,-15.5441 5.3586,-5.3946 10.8977,-9.9989 17.2148,-14.2483 5.0436,-3.3934 9.8943,-6.0852 15.6982,-7.9376 4.4807,-1.4304 9.1707,-2.4358 13.7177,-3.6955 0.2549,-10.7017 1.9993,-22.2055 4.4901,-32.5908 1.764,-7.3539 4.0045,-13.8319 7.1283,-20.7099 0.9425,-2.075 2.2705,-3.9949 3.1643,-6.0681 -0.6409,-0.364 -1.4837,-0.7076 -2.124,-0.997 -1.3124,-0.5936 -2.6274,-1.1803 -3.9314,-1.7923 -1.3169,-0.6183 -2.6523,-1.2629 -3.9135,-1.9891 -3.3094,-1.906 -6.4607,-3.9467 -9.6072,-6.1078 -3.088,-2.1212 -6.0182,-4.4425 -8.9628,-6.755 -1.4242,-1.1185 -2.7879,-2.3088 -4.2123,-3.4265 -0.7501,-0.5888 -1.4366,-1.2489 -2.1835,-1.8414 -0.6616,-0.525 -1.2909,-1.2356 -1.9704,-1.7005 l -1.5197,-1.04 1.7669,0.5184 c 1.7115,0.5021 3.4475,1.1484 5.1766,1.5531 2.1229,0.4967 4.1848,0.4692 6.3216,0.2855 -1.842,-1.3731 -4.1488,-2.3978 -6.0016,-3.7845 -5.6732,-4.2458 -12.9376,-12.7925 -14.0161,-19.9582 l -0.1242,-0.8255 0.612,0.5678 c 0.7438,0.69 1.4771,1.3924 2.2317,2.0704 1.6733,1.5041 3.3642,2.7176 5.2912,3.8824 9.7531,5.8946 23.0164,6.2107 34.0789,5.6769 7.0693,-0.3413 14.1364,-1.0959 21.1689,-1.8791 7.4721,-0.8322 14.9386,-1.7161 22.4317,-2.3442 18.159,-1.5222 38.0837,-1.7575 55.0751,5.7274 5.9494,2.6209 12.0121,6.2382 16.7023,10.7787 1.1642,1.1271 2.4679,2.0923 3.6094,3.2701 l 6.3408,7.3542 0.009,0.013 c 0.4141,0.6007 0.8952,1.6929 1.3688,2.1631 0.0941,0.0936 0.2157,0.2121 0.3104,0.3305 0.2132,0.0375 0.4635,0.1486 0.5964,0.2044 l 1.5049,0.5346 c 0.8504,-0.1029 2.2604,0.0363 3.0958,0.0939 2.0497,0.1414 4.1003,0.3328 6.1452,0.5295 5.7796,0.5561 11.5551,1.1919 17.3256,1.8326 5.218,0.5794 10.4341,1.1727 15.6512,1.7583 3.3027,0.3708 6.6274,0.7719 9.9369,1.0678 l 0.3702,0.0332 -0.1196,0.3518 c -0.5916,1.7436 -10.9664,10.917 -13.0709,12.9909 l -13.3744,13.1788 c -1.5018,1.4502 -3.0804,2.7899 -4.5127,4.3155 -1.3899,1.4799 -2.617,3.1368 -4.2883,4.3191 0.0658,1.4488 0.5023,3.1742 0.8422,4.5663 0.3475,1.4216 0.7444,2.854 1.0324,4.2874 0.6154,3.0643 1.1423,6.145 1.6256,9.2328 0.9995,6.3893 1.537,12.8384 2.5436,19.2534 1.5536,23.7759 4.6522,49.0899 -0.7413,72.5545 -0.5879,2.5574 -1.5557,5.0202 -2.0866,7.5832 -0.7308,3.5258 -1.3807,7.0682 -2.118,10.5914 -0.8952,4.2772 -1.9951,8.4254 -3.2661,12.6071 -1.4774,4.862 -3.1436,9.6341 -4.9734,14.3742 -1.7498,4.5326 -4.2384,8.9127 -5.7036,13.5216 l -0.0218,0.068 -0.0505,0.0504 c -0.5043,0.5029 -1.6908,2.9784 -2.0548,3.6981 -0.6024,1.1917 -1.1889,2.4486 -1.8405,3.6099 -7.28,12.9708 -15.3482,25.3265 -24.8911,36.7566 -10.2551,12.2834 -21.8038,22.9867 -34.3834,32.8482 -4.3951,3.4455 -8.9158,6.7442 -13.638,9.7361 l -10.9758,6.7504 c -1.1701,0.6565 -2.77,1.1254 -3.1682,2.5546 0.1848,1.7717 0.5694,3.4957 0.8367,5.2515 0.2631,1.7269 0.5233,3.4537 0.8034,5.178 l 8.6011,52.9614 c 1.1291,6.9523 2.6578,13.9434 3.3398,20.9537 12.1402,-0.197 28.3363,0.7676 38.3145,8.2636 1.2799,0.9612 2.2516,2.2014 3.5022,3.1419 l 1.5758,1.1852 -1.8519,-0.6772 c -19.7254,-7.2133 -46.4235,-6.8735 -66.9832,-3.5096 -3.314,0.5426 -6.626,1.0981 -9.9258,1.7218 -3.4849,0.6587 -7.3281,1.385 -10.6914,2.4979 z m -0.3904,-0.1987 3.0235,-2.0509 0.0414,-0.013 c 2.7983,-0.8694 5.4425,-2.3037 8.1847,-3.3506 4.22,-1.6109 8.6159,-2.9676 12.9918,-4.0833 4.4209,-1.127 9.2055,-2.126 13.7763,-2.4202 l -13.0813,-80.9617 c -1.6307,0.1465 -5.3552,2.315 -6.813,2.9537 -5.9667,2.6138 -11.9699,5.1338 -18.1072,7.3224 -6.6158,2.3593 -13.3152,4.2843 -20.1285,5.982 -1.1013,0.2747 -2.2536,0.4816 -3.369,0.695 -1.6325,0.3124 -3.2667,0.6152 -4.8991,0.9275 -1.3796,0.2639 -6.9815,1.2552 -8.3926,1.925 l 6.3207,33.6328 c 1.0109,5.7337 2.0058,11.471 2.9002,17.2242 0.4317,2.7779 0.7503,5.5854 1.1273,8.3727 0.3895,2.8811 0.8011,6.1481 1.5888,8.958 4.1273,0.0854 8.3129,0.5894 12.3755,1.2864 3.9013,0.6693 7.4608,1.8975 11.2581,2.903 l 0.0771,0.0204 0.0561,0.0569 c 0.1154,0.116 0.5978,0.3768 1.0692,0.6197 z"
     style="fill:#ff5555;stroke:#000000;stroke-width:4;stroke-linecap:butt;stroke-linejoin:miter;stroke-dasharray:none;fill-opacity:1"
     id="path2" />
</svg>
