<?xml version="1.0" encoding="UTF-8" standalone="no"?>
<svg
   xmlns:dc="http://purl.org/dc/elements/1.1/"
   xmlns:cc="http://creativecommons.org/ns#"
   xmlns:rdf="http://www.w3.org/1999/02/22-rdf-syntax-ns#"
   xmlns:svg="http://www.w3.org/2000/svg"
   xmlns="http://www.w3.org/2000/svg"
   xmlns:sodipodi="http://sodipodi.sourceforge.net/DTD/sodipodi-0.dtd"
   xmlns:inkscape="http://www.inkscape.org/namespaces/inkscape"
   inkscape:version="1.0 (4035a4fb49, 2020-05-01)"
   sodipodi:docname="3.svg"
   viewBox="0 0 725.66931 725.66931"
   id="svg4"
   height=""
   width=""
   version="1.1">
  <metadata
     id="metadata10">
    <rdf:RDF>
      <cc:Work
         rdf:about="">
        <dc:format>image/svg+xml</dc:format>
        <dc:type
           rdf:resource="http://purl.org/dc/dcmitype/StillImage" />
        <dc:title></dc:title>
      </cc:Work>
    </rdf:RDF>
  </metadata>
  <defs
     id="defs8" />
  <sodipodi:namedview
     inkscape:current-layer="svg4"
     inkscape:window-maximized="0"
     inkscape:window-y="0"
     inkscape:window-x="0"
     inkscape:cy="362.83466"
     inkscape:cx="362.83466"
     inkscape:zoom="0.79650605"
     showgrid="false"
     id="namedview6"
     inkscape:window-height="480"
     inkscape:window-width="820"
     inkscape:pageshadow="2"
     inkscape:pageopacity="0"
     guidetolerance="10"
     gridtolerance="10"
     objecttolerance="10"
     borderopacity="1"
     bordercolor="#666666"
     pagecolor="#ffffff" />
  <path
     id="path2"
     style="fill:#ffffff;fill-rule:evenodd;stroke:#000000;stroke-width:2.9999;stroke-linecap:butt;stroke-linejoin:miter;stroke-dasharray:none"
     d="M 64.7841,309.9949 V 126.699 h 36.3521 l 43.3494,129.7491 c 4.0107,12.0748 6.912,21.1201 8.7466,27.1361 2.0908,-6.656 5.3759,-16.4693 9.8132,-29.3973 L 207.163,126.699 h 32.4692 v 183.2959 h -23.296 V 156.651 L 162.8323,309.9949 H 140.9868 L 88.0801,153.8348 V 309.9949 Z M 267.2802,243.563 c 0,-24.5333 6.8266,-42.7094 20.5225,-54.5281 11.3919,-9.8133 25.344,-14.7201 41.7708,-14.7201 18.2185,0 33.152,5.9735 44.7573,17.9201 11.5626,11.9041 17.3654,28.4159 17.3654,49.4507 0,17.0665 -2.5603,30.4639 -7.6802,40.2347 -5.12,9.7707 -12.5867,17.3653 -22.4,22.784 -9.7707,5.4187 -20.48,8.1065 -32.0425,8.1065 -18.6027,0 -33.6215,-5.9306 -45.0987,-17.8347 -11.4774,-11.9038 -17.1946,-29.056 -17.1946,-51.4131 z m 23.04,0.0425 c 0,16.9815 3.7119,29.696 11.1359,38.1013 7.4667,8.4481 16.8105,12.672 28.1174,12.672 11.1787,0 20.48,-4.2239 27.9465,-12.7145 7.4239,-8.4906 11.1362,-21.4189 11.1362,-38.7842 0,-16.384 -3.7548,-28.8 -11.2216,-37.2053 -7.4664,-8.4478 -16.768,-12.672 -27.8611,-12.672 -11.3069,0 -20.6507,4.1814 -28.1174,12.5867 -7.424,8.4053 -11.1359,21.0773 -11.1359,38.016 z m 164.0959,66.3894 -50.1335,-132.8641 h 24.1066 l 28.4162,79.5733 c 3.0719,8.5762 5.9307,17.4934 8.5332,26.752 2.0055,-6.9974 4.7786,-15.4027 8.4052,-25.2584 l 29.5254,-81.0669 h 23.1254 l -50.304,132.8641 z m 182.3145,-43.0081 23.296,3.0722 c -3.6267,13.5252 -10.4109,24.0638 -20.3094,31.5306 -9.8986,7.4667 -22.5281,11.2212 -37.9307,11.2212 -19.3706,0 -34.7307,-5.9732 -46.08,-17.9201 -11.3494,-11.9038 -17.024,-28.6718 -17.024,-50.2185 0,-22.2719 5.7174,-39.5947 17.1946,-51.8826 11.4775,-12.3307 26.3679,-18.4748 44.6721,-18.4748 17.7066,0 32.1706,6.016 43.3919,18.0907 11.2215,12.0748 16.8534,29.056 16.8534,50.944 0,1.3227 -0.0426,3.3282 -0.1282,5.9735 h -98.9438 c 0.8532,14.5493 4.9492,25.7278 12.3732,33.4505 7.3814,7.7227 16.6402,11.6053 27.6908,11.6053 8.2346,0 15.2748,-2.1759 21.0773,-6.5279 5.8453,-4.352 10.4533,-11.3068 13.8668,-20.8641 z m -73.728,-36.0958 h 73.984 c -0.9814,-11.1787 -3.8401,-19.5415 -8.4907,-25.1309 -7.1254,-8.6612 -16.4267,-13.0133 -27.8189,-13.0133 -10.3252,0 -18.9864,3.456 -26.0266,10.368 -6.9973,6.912 -10.8799,16.1708 -11.6478,27.7762 z M 128.9333,506.7734 c 0,-30.3786 8.1921,-54.1868 24.5333,-71.3815 16.3414,-17.1946 37.4187,-25.7706 63.2747,-25.7706 16.9387,0 32.1706,4.0533 45.7815,12.1173 13.568,8.064 23.936,19.328 31.0612,33.7921 7.1254,14.4212 10.7093,30.8052 10.7093,49.1094 0,18.5598 -3.7545,35.2 -11.2641,49.8347 -7.5092,14.6773 -18.1332,25.7706 -31.8719,33.2799 -13.7812,7.5521 -28.6293,11.3066 -44.5439,11.3066 -17.28,0 -32.6826,-4.1811 -46.2934,-12.5014 -13.5681,-8.32 -23.8933,-19.6693 -30.8906,-34.0906 -6.9973,-14.3787 -10.4961,-29.6107 -10.4961,-45.6959 z m 25.088,0.4266 c 0,22.0587 5.9307,39.424 17.792,52.096 11.8615,12.672 26.7522,19.0293 44.672,19.0293 18.2613,0 33.2373,-6.3998 45.0561,-19.1999 11.776,-12.8002 17.6638,-30.9759 17.6638,-54.5281 0,-14.8907 -2.5171,-27.904 -7.5518,-38.9974 -5.0346,-11.0931 -12.416,-19.7118 -22.1014,-25.8131 -9.7279,-6.1013 -20.6079,-9.1735 -32.6826,-9.1735 -17.1519,0 -31.9147,5.8881 -44.288,17.6641 -12.3735,11.776 -18.5601,31.4028 -18.5601,58.9226 z m 178.6453,88.7894 V 463.1253 h 20.2241 v 18.8589 c 9.7279,-14.4641 23.8079,-21.6749 42.1974,-21.6749 8.0212,0 15.3601,1.4508 22.0586,4.3095 6.6986,2.8585 11.7335,6.6558 15.0614,11.3066 3.3278,4.6505 5.6746,10.1973 6.9973,16.5974 0.8107,4.1811 1.2373,11.4772 1.2373,21.888 v 81.5786 H 417.9146 V 515.264 c 0,-9.1732 -0.8532,-16.0426 -2.6024,-20.5653 -1.7496,-4.5227 -4.864,-8.1493 -9.3014,-10.88 -4.4373,-2.6881 -9.6854,-4.0532 -15.6588,-4.0532 -9.5573,0 -17.792,3.0291 -24.7465,9.1307 -6.9548,6.0584 -10.4108,17.6212 -10.4108,34.6025 v 72.4907 z m 233.0028,-43.0081 23.296,3.0721 c -3.6267,13.5253 -10.4108,24.0639 -20.3094,31.5307 -9.8986,7.4667 -22.5281,11.2212 -37.9307,11.2212 -19.3705,0 -34.7306,-5.9732 -46.08,-17.9201 -11.3493,-11.9038 -17.024,-28.6718 -17.024,-50.2186 0,-22.2718 5.7175,-39.5946 17.1947,-51.8825 11.4774,-12.3307 26.3678,-18.4748 44.672,-18.4748 17.7066,0 32.1707,6.016 43.3919,18.0907 11.2215,12.0748 16.8534,29.056 16.8534,50.944 0,1.3226 -0.0425,3.3282 -0.1281,5.9734 h -98.9439 c 0.8532,14.5494 4.9493,25.7279 12.3732,33.4506 7.3814,7.7227 16.6402,11.6053 27.6908,11.6053 8.2347,0 15.2748,-2.1759 21.0773,-6.5279 5.8453,-4.352 10.4533,-11.3068 13.8668,-20.8641 z m -73.728,-36.0959 h 73.984 c -0.9814,-11.1787 -3.8401,-19.5414 -8.4906,-25.1308 -7.1255,-8.6612 -16.4268,-13.0133 -27.819,-13.0133 -10.3252,0 -18.9864,3.456 -26.0265,10.368 -6.9974,6.912 -10.88,16.1708 -11.6479,27.7761 z" />
</svg>
