<svg xmlns="http://www.w3.org/2000/svg" viewBox="0 0 725.669 725.669">
    <path fill="#f95" fill-rule="evenodd" stroke="#000" stroke-width=".567" d="M234.678 415.776l14.748-12.704-41.175 72.907-1.151-1.36.548-1.525-9.12-10.775-2.614-.342-2.737-3.233 22.556-24.554-.845-2.456 1.231-1.042 1.651 1.95 3.952-3.345c6.963-1.25 11.532-5.449 12.956-13.52zM408.9 227.961l-1.021-1.206-10.396 8.8-2.606-3.08-1.096.42 1.815 2.143-120.748 102.427 7.124 8.416 7.088 1.4 40.82 48.226 3.116-2.637-6.4-10.209-26.852-29.656.16-11.644 101.815-92.348-7.385-8.724zm-43.6 235.722l-4.721 3.996-3.402-2.36-47.346 40.076c-4.731 2.92-8.476 1.945-11.692-1.117l-23.066-27.25 2.06-6.413 5.337-4.517-2.346-2.772 10.418-8.818 7.11-.029c14.64 20.27 27.988 26.308 40.57 23.888l.381-4.596c-21.843-1.326-33.338-11.5-27.24-36.71l13.342-11.294 3.885.323zm-51.207 156.539l-7.895 7.74-48.844 25.134-9.554 2.45-2.804-6.435 5.44-4.604-14.613-115.713-7.906-9.34-26.748-14.533-5.56-6.568c-1.31-4.756.87-11.374 6.235-19.9l-10.335 10.685c-9.064 13.31-4.296 25.716 8.898 37.57l-9.26 11.538 6.651 6.966-9.352 10.79-6.94-6.249-10.839 12.17-1.159 57.534-2.36 1.998-3.712-1.262-13.64-16.115-1.77-8.544-8.374 26.116 9.268 29.68-14.047-4.683-.59 1.643 18.413 12.705 5.238 16.18-2.771 2.345-140.319-84.183-.656-2.44 2.099-3.025 4.589-.522 138.533-154.787.039-1.618 2.052-1.738 4.423 1.894 10.887-10.449 1.35-5.898 8.621-7.298 1.927-.222 1.745-1.477-3.5-7.256 5.104-15.09 14.097-4.686 15.972-14.224 2.14.655 1.13-.956-2.662-1.27-3.823-4.517.126-1.516-4.778-5.645 3.387-2.867 1.999 2.36 2.423-3.813 71.326-60.374-1.871-1.587-6.877 5.821-7.211-8.519.528-5.203 5.953-5.04 2.563 3.028 6.21-5.256-2.654-3.135 4.548-3.988 2.659 3.141 5.597-4.894-2.664-3.148 4.348-3.814 2.72 3.11 5.517-4.824-2.675-3.16 3.535-3.102 2.68 3.165 6.582-5.754-2.687-3.173 3.387-2.971 2.69 3.178 5.977-5.225-2.697-3.186 4.096-3.592 2.7 3.19 6.074-5.308-2.708-3.199 3.74-3.28 2.712 3.203 5.877-5.138-2.718-3.21 6.523-5.721 5.598.465 6.391 7.551-7.346 6.218 1.695 2.002 13.804-11.686 2.416.202 1.334-1.13-2.65-3.13 11.393-9.644-2.563-3.028 6.85-8.351 13.855-11.729-2.91-3.438 3.285-2.78 5.43 6.414.77-.651-1.521-1.797 3.798-3.214 28.757 33.974 6.745-5.71-10.164-12.01-.04-4.37 1.59-1.346 2.621 3.096 6.133-5.19-2.621-3.097 3.695-3.128 2.621 3.097 5.594-4.735-2.621-3.097 4.31-3.649 2.622 3.097 6.055-5.126-2.62-3.097 4.003-3.388 2.62 3.096 5.902-4.995-2.62-3.096 4.412-3.736 2.622 3.096 6.004-5.082-2.621-3.097 3.9-3.301 2.621 3.097 6.005-5.083-2.621-3.096 4.156-3.52 2.621 3.098 6.056-5.126-2.62-3.097 3.95-3.345 2.622 3.097 6.056-5.126-2.622-3.097 4.773-4.04 2.621 3.097 5.337-4.517-2.62-3.097 4.464-3.78 2.621 3.097 5.594-4.735-2.62-3.096 4.464-3.78 2.621 3.097 5.85-4.952-2.62-3.097 3.95-3.345 2.622 3.097 6.21-5.256-2.621-3.097 4.67-3.953 2.62 3.097 5.133-4.344-2.621-3.097 2.31-1.955 4.057 1.88 11.627 13.737L623.915 59l1.188-4.53 9.75-8.253 3.285.655 42.571 50.293-.185 2.227-10.136 8.579-3.948 1.267-36.873 31.21 10.732 12.68.59 8.089-1.077.912-2.39-2.823-4.977 4.214 2.337 2.866-4.978 4.214-2.337-2.866-5.8 4.909 2.39 2.822-2.105 1.781 5.67 6.697-.57 6.847-4.734 4.007.71 3.934 11.697 13.818 3.204-1.39 2.954 3.49-1.462 2.107 5.696 6.73 4.149-.75 2.7 3.189-1.844 2.657 5.28 6.238 4.027-.728 2.978 3.52-1.43 3.983 5.954 5.753 2.561-1.207 3.045 3.597-1.724 1.988 6.081 7.185 3.585.489 2.042 2.412-1.595 3.112 5.256 6.209 2.733.418 2.006 2.266-.52 2.82 5.046 7.003 2.484.54 4.304 5.606-1.965 2.383 8.81 10.41c-7.664 11.757-17.648 20.063-29.84 25.082l-9.123-10.777-2.685.159-4.344-5.132.462-1.536-6.085-6.565-3.526.518-2.346-2.772 1.808-2.235-6.299-7.44-3.541.706-2.215-2.617 1.025-3.159-5.473-6.466-3.838.253-2.128-2.514 1.152-2.385-5.777-6.826-2.337.57-2.39-2.823.355-4.265-4.387-5.183-3.51-.816-1.738-2.053.615-3.957-5.343-6.312-3.072.222-2.345-2.771 1.638-3.06-11.599-13.703-3.465-1.493-4.595 3.89-4.94.768-7.776-9.186-2.925 2.476-2.216-2.618-5.697 4.822 2.216 2.617-4.721 3.997-2.216-2.617-5.132 4.343 2.216 2.618-2.258 1.911-4.691-.39-12.272-14.498-5.517 4.67 2.303 2.72-38.336 32.45 8.21 9.699 11.547-9.774-2.346-2.771.804-9.666 15.088-12.771 10.064.026 17.289 20.425-.383 1.733-2.463 2.085-1.469-.122-13.705-16.191-8.319-.644-8.84 7.482-1.022 7.847 3.195 5.752 2.476 2.925 4.446 3.9.04 1.816-14.42 12.207 11.25 13.292.324 1.84-3.181 2.693 46.473 67.602-2.233 6.207-17.021 21.102-50.396 42.657-2.227-.757-1.682-1.571-80.194 61.361c-4.735 1.965-8.851 1.43-12.61-.953l-23.173-24.254-7.87 6.573-1.205-1.424-3.144 2.66-7.254-8.57 3.187-2.609-2.753-1.457-47.06 39.834c-5.555 2.933-10.66 1.952-15.289-3.18l-7.236 6.125 19.025 101.672zm-206.441-37.356l-26.403 29.28a3.934 3.934 0 0 0 .317 5.577h0c1.636 1.446 4.17 1.302 5.632-.319l26.403-29.28a3.934 3.934 0 0 0-.316-5.576h0c-1.637-1.447-4.171-1.303-5.633.318zm418.331-188.951l-6.146-7.261-104.59 88.53-12.216-3.402-29.633-33.76-5.2-3.564-3.179-.091 35.881 42.39.277 2.408-6.364 5.387 10.212 11.44 6.025-.167 47.507-35.455 10.817-8.451 31.366-26.452-1.325-1.565-9.546 8.157-3.735-4.413zm3.461 5.703l3.041 3.592 10.982-9.296-3.127-3.695zm-7.556 12.562l-7.827 6.625-2.042-2.412-6.004 5.082-.999-1.18 13.83-11.707zm-329.873-17.279c-.034-7.033 3.233-10.936 11.7-9.904z"/>
    <path fill="none" stroke="#000" stroke-width=".567" d="M186.583 417.588a9.024 9.024 0 1 0 11.661 13.776 9.024 9.024 0 0 0-11.66-13.776zm-3.642-4.304c-6.18 5.232-6.95 14.484-1.719 20.664 5.232 6.181 14.484 6.95 20.664 1.719 6.181-5.232 6.95-14.484 1.719-20.664-5.232-6.18-14.484-6.95-20.664-1.719z"/>
    <path fill-opacity=".588" fill-rule="evenodd" stroke="#000" stroke-width=".567" d="M174.934 475.564l-20.808 23.56 3.276 2.893 20.808-23.56zM103.982 555.902l-20.808 23.56 3.276 2.894 20.808-23.56zM152.008 501.523l-20.807 23.56 3.275 2.893 20.808-23.56zM128.12 528.57l-20.807 23.56 3.275 2.894 20.808-23.56zM79.465 583.662l-20.807 23.56 3.275 2.893 20.808-23.56zM97.143 549.57l-20.807 23.56 3.275 2.893 20.808-23.56zM168.095 469.232l-20.807 23.56 3.275 2.893 20.808-23.56zM145.17 495.19l-20.808 23.56 3.276 2.894 20.807-23.56zM121.281 522.239l-20.807 23.56 3.275 2.893 20.808-23.56zM72.626 577.33L51.82 600.89l3.276 2.893 20.807-23.56zM110.906 562.978L90.1 586.538l3.275 2.893 20.808-23.56zM181.858 482.64l-20.807 23.56 3.276 2.893 20.807-23.56zM158.933 508.598l-20.808 23.56 3.276 2.893 20.807-23.56zM135.044 535.646l-20.807 23.56 3.276 2.893 20.807-23.56zM86.39 590.737l-20.808 23.56 3.276 2.894 20.807-23.56z"/>
    <path fill-opacity=".588" fill-rule="evenodd" d="M535.702 166.075a1.86 1.86 0 1 0 2.404 2.84 1.86 1.86 0 0 0-2.404-2.84z"/>
    <path fill-opacity=".588" fill-rule="evenodd" stroke="#000" stroke-width=".567" d="M485.135 208.879a1.86 1.86 0 1 0 2.403 2.84 1.86 1.86 0 0 0-2.404-2.84z"/>
    <path fill-opacity=".588" fill-rule="evenodd" d="M368.093 434.334l-35.097-41.464-4.842 4.098 35.304 39.742 1.561-2.343z"/>
    <path fill="none" stroke="#000" stroke-width=".567" d="M280.124 463.327l-6.33-7.479-23.928 20.782-4.443 15.565-6.388-.054-1.95 1.65-28.834-17.812"/>
    <path fill="none" stroke="#000" stroke-width=".567" d="M239.035 492.14l3.947-15.216 1.22-20.516 7.903-2.11 4.028 2.053 1.375 8.701-3.316 3.16-3.569 1.611-.757 6.807M311.362 437.061l-3.082-.256-15.462 13.088-2.276 4.615M191.146 538.246l-3.753-.498-7.276 8.394 1.39 3.611M72.869 618.39l106.85-119.16 2.74.324c-1.185 7.604.497 14.06 4.575 19.559M401.719 249.013l118.118 137.64M408.9 227.961l130.725 152.297-14.682 12.428M539.644 380.241l8.35 9.866M494.165 438.6l47.341-40.072 20.834-26.796 1.825-5.604M529.444 399.618l-1.757-2.077-10.603 8.975 1.763 2.072M505.016 420.295l-1.844-2.179-5.06 4.283 1.303 1.503"/>
    <path fill="none" stroke="#000" stroke-width=".567" d="M564.165 366.127l-43.408-63.143-7.033 5.954 48.616 62.794zM500.382 270.9l12.46 14.825M416.899 266.702l-109.05 95.845M440.546 294.258l-111.216 94.14M455.258 311.401l-111.182 94.11M460.778 317.833l-111.739 94.581M479.69 339.872l-111.597 94.462M388.214 454.902l110.17-93.254M503.076 367.123l-110.108 93.201M281.972 345.881l-2.442 3.98 5.844 3.158 24.358 32.94 85.981 97.831"/>
    <path fill="none" stroke="#000" stroke-width=".567" d="M329.88 395.507l-41.007-48.446-2 1.693 29.539 34.897-2.771 2.346 9.122 10.777 2.976-2.52 75.438 84.911-.277-2.408-35.88-42.39 3.178.091-35.202-41.588zM304.623 379.007l-5.868-7.893-8.726 7.385 6.342 7.493zM301.688 375.06l-8.488 7.186M244.034 412.62l37.466-66.339M249.426 403.072l26.664-53.32-7.112-8.402-31.003 26.243 2.172 2.566-5.742 4.86-2.258-2.669 2.463-2.085-1.825-2.155-3.458 2.574-6.13-3.856M222.126 366.5l29.47 32.23"/>
    <path fill="#f95" fill-rule="evenodd" stroke="#000" stroke-width=".567" d="M195.226 386.69v0c-3.759 3.18-4.23 8.858-1.05 12.616l19.362 22.874c3.18 3.758 8.858 4.23 12.616 1.049v0c3.758-3.181 4.23-8.859 1.05-12.617l-19.362-22.874c-3.181-3.758-8.858-4.23-12.616-1.049zm-3.557-3.3v0c-5.502 4.657-6.193 12.968-1.536 18.47l20.219 23.886c4.656 5.501 12.967 6.192 18.468 1.536v0c5.502-4.657 6.193-12.968 1.536-18.47l-20.219-23.886c-4.656-5.501-12.967-6.192-18.468-1.535z"/>
    <path fill="none" stroke="#000" stroke-width=".567" d="M154.151 527.744l11.402-12.715 9.375 7.85-10.92 12.598zM362.186 227.202l-68.792 61.356M378.894 215.306l.846-.717 15.137 17.886-1.096.42zM441.175 203.6l-4.2 3.555 7.994 9.443.98 4.28-6.775 5.733M513.724 308.938l-89.09-97.943-17.537 14.843.778.92M456.465 245.99l18.695-15.825"/>
    <path fill="none" stroke="#000" stroke-width=".567" d="M464.163 254.453l18.383-15.561-7.386-8.727M528.205 226.032l-15.26-18.029M623.915 59l42.525 50.238M670.388 107.971l-45.285-53.5M629.567 140.449L587.042 90.21M247.724 367.925a4.959 4.959 0 1 0 6.407 7.57 4.959 4.959 0 0 0-6.407-7.57z"/>
    <path fill="none" stroke="#000" stroke-width=".567" d="M249.679 370.234a1.933 1.933 0 1 0 2.497 2.95 1.933 1.933 0 0 0-2.497-2.95zM297.226 285.14l16.427 19.408M295.03 287.1l16.286 19.24M219.644 352.746l13.062 15.43M222.068 348.932l15.907 18.66M193.177 458.744l-3.3-1.527-23.382-22.161-.572-1.954"/>
    <path fill="none" stroke="#000" stroke-width=".567" d="M159.448 432.945l16.55 17.63 19.158 17.04 2.581-2.186-1.823-3.452M475.16 230.165l-24.18-28.66M405.077 201.452v0a2.318 2.318 0 0 0-.271 3.258l3.42 4.041a2.318 2.318 0 0 0 3.258.271v0a2.318 2.318 0 0 0 .27-3.257l-3.42-4.042a2.318 2.318 0 0 0-3.257-.27zM709.08 302.579c-15.283 5.582-24.01 14.578-29.84 25.082M627.337 187.367l-4.461-.26-6.978 5.907-9.237 13.544-3.849 3.258-10.245 2.726-10.264 8.688-3.11 6.657M610.28 187.418l-5.32-6.286-5.646 4.778 5.43 6.415M589.822 205.396l-5.973-7.056-5.389 4.56 2.824 3.337M639.518 152.205l-22.338 18.908M634.933 146.788l-22.082 18.691-6.584 1.988-39.837 33.72-2.85 5.998-24.386 20.642"/>
    <path fill="none" stroke="#000" stroke-width=".567" d="M571.418 218.7l-6.314-7.459 2.574-7.29 40.464-34.25 6.489-1.105 12.99 15.347"/>
    <path fill-opacity=".588" fill-rule="evenodd" d="M586.652 122.95a1.86 1.86 0 1 0 2.403 2.84 1.86 1.86 0 0 0-2.403-2.84z"/>
    <path fill="none" stroke="#000" stroke-width=".567" d="M345.913 427.132l-11.308-12.872-9.278 7.854 3.263 3.976 8.396 8.598zM338.16 418.305l-9.415 7.968M342.484 423.23l-9.179 7.77M174.934 475.564l-20.808 23.56 3.276 2.893 20.808-23.56zM103.982 555.902l-20.808 23.56 3.276 2.894 20.808-23.56zM152.008 501.523l-20.807 23.56 3.275 2.893 20.808-23.56zM128.12 528.57l-20.807 23.56 3.275 2.894 20.808-23.56zM79.465 583.662l-20.807 23.56 3.275 2.893 20.808-23.56zM97.143 549.57l-20.807 23.56 3.275 2.893 20.808-23.56zM168.095 469.232l-20.807 23.56 3.275 2.893 20.808-23.56zM145.17 495.19l-20.808 23.56 3.276 2.894 20.807-23.56zM121.281 522.239l-20.807 23.56 3.275 2.893 20.808-23.56zM72.626 577.33L51.82 600.89l3.276 2.893 20.807-23.56zM110.906 562.978L90.1 586.538l3.275 2.893 20.808-23.56zM181.858 482.64l-20.807 23.56 3.276 2.893 20.807-23.56zM158.933 508.598l-20.808 23.56 3.276 2.893 20.807-23.56zM135.044 535.646l-20.807 23.56 3.276 2.893 20.807-23.56zM86.39 590.737l-20.808 23.56 3.276 2.894 20.807-23.56zM187.281 544.307a2.311 2.311 0 1 0 2.987 3.529 2.311 2.311 0 0 0-2.987-3.529zM365.3 463.683l12.394 10.696M361.408 471.009l7.21 8.519M371.497 469.03l-9.997 8.463M361.408 471.009l6.259-5.298M579.722 81.562L445.57 195.114M577.722 107.038l-5.742 4.86-10.425-12.316 5.742-4.86zM587.73 98.568l-5.742 4.86-10.426-12.317 5.742-4.86zM557.45 124.197l-5.74 4.86-10.426-12.317 5.741-4.86zM547.443 132.668l-5.741 4.86-10.426-12.317 5.742-4.86zM537.244 141.302l-5.742 4.86-10.425-12.317 5.741-4.86zM516.716 158.677l-5.742 4.86-10.425-12.316 5.741-4.86zM506.516 167.311l-5.742 4.86-10.425-12.317 5.741-4.86zM496.637 175.673l-5.742 4.86-10.425-12.317 5.741-4.86zM476.301 192.886l-5.741 4.86-10.426-12.317 5.742-4.86zM466.294 201.357l-5.742 4.86-10.425-12.317 5.742-4.86zM557.013 109.372a2.815 2.815 0 1 0 3.638 4.297 2.815 2.815 0 0 0-3.638-4.297zM516.439 143.716a2.815 2.815 0 1 0 3.637 4.298 2.815 2.815 0 0 0-3.637-4.298zM476.089 177.87a2.815 2.815 0 1 0 3.637 4.298 2.815 2.815 0 0 0-3.637-4.298z"/>
    <path fill-opacity=".588" fill-rule="evenodd" stroke="#000" stroke-width=".567" d="M587.73 98.568l-5.742 4.86-7.14-8.436 5.74-4.86zM577.722 107.038l-5.742 4.86-7.14-8.436 5.741-4.86zM557.45 124.197l-5.74 4.86-7.142-8.436 5.742-4.86zM547.443 132.668l-5.741 4.86-7.14-8.436 5.74-4.86zM537.244 141.302l-5.742 4.86-7.14-8.437 5.74-4.86zM516.716 158.677l-5.742 4.86-7.14-8.436 5.741-4.86zM506.516 167.311l-5.742 4.86-7.14-8.436 5.741-4.86zM496.637 175.673l-5.742 4.86-7.14-8.436 5.741-4.86zM476.301 192.886l-5.741 4.86-7.14-8.436 5.74-4.86zM466.294 201.357l-5.742 4.86-7.14-8.436 5.741-4.86z"/>
    <path fill="#f95" fill-rule="evenodd" stroke="#000" stroke-width=".567" d="M614.2 122.295l-95.738 81.038 15.26 18.03M627.368 145.397l-5.742 4.86-10.425-12.317 5.741-4.86zM617.36 153.868l-5.741 4.86-10.425-12.317 5.741-4.86zM597.09 171.026l-5.742 4.86-10.426-12.316 5.742-4.86z"/>
    <path fill="#f95" fill-rule="evenodd" stroke="#000" stroke-width=".567" d="M587.082 179.497l-5.742 4.86-10.425-12.317 5.741-4.86zM576.882 188.13l-5.741 4.86-10.426-12.316 5.742-4.86zM556.354 205.506l-5.741 4.86-10.426-12.316 5.742-4.86zM546.154 214.14l-5.741 4.86-10.426-12.317 5.742-4.86z"/>
    <path fill-opacity=".588" fill-rule="evenodd" d="M597.316 156.986a2.815 2.815 0 1 0 3.638 4.297 2.815 2.815 0 0 0-3.638-4.297z"/>
    <path fill-opacity=".588" fill-rule="evenodd" stroke="#000" stroke-width=".567" d="M557.067 191.715a2.815 2.815 0 1 0 3.638 4.298 2.815 2.815 0 0 0-3.638-4.298zM625.726 143.457l-5.742 4.86-7.14-8.436 5.74-4.86zM615.718 151.927l-5.741 4.86-7.141-8.436 5.742-4.86zM595.447 169.086l-5.742 4.86-7.14-8.436 5.741-4.86zM585.44 177.557l-5.742 4.86-7.14-8.436 5.74-4.86zM575.24 186.19l-5.742 4.86-7.14-8.436 5.741-4.86zM554.712 203.566l-5.742 4.86-7.14-8.436 5.741-4.86zM544.512 212.2l-5.742 4.86-7.14-8.436 5.741-4.86z"/>
    <path fill="none" stroke="#000" stroke-width=".567" d="M614.2 122.295l-4.618 3.91-19.181-22.66 4.619-3.91zM608.142 169.7l14.973 17.677M567.678 203.952l14.625 17.278M567.052 213.543l-23.273 19.7M566.277 218.56l-2.15-2.54M560.58 223.381l-2.15-2.54M555.86 227.377l-2.15-2.54M550.727 231.721l-2.15-2.54M637.423 159.306l-2.628-3.104M632.445 163.52l-2.628-3.104M627.466 167.734l-2.627-3.104M621.667 172.643l-2.627-3.104M605.18 129.93l-4.618 3.91-19.181-22.66 4.618-3.91zM594.803 138.715l-4.62 3.91-19.18-22.661 4.618-3.91zM584.813 147.17l-4.62 3.91-19.18-22.66 4.618-3.91zM574.628 155.791l-4.618 3.91-19.181-22.66 4.618-3.91zM564.444 164.411l-4.618 3.91-19.182-22.66 4.62-3.91zM554.26 173.031l-4.618 3.91-19.181-22.66 4.618-3.91zM544.077 181.652l-4.62 3.91-19.18-22.661 4.618-3.91zM533.893 190.272l-4.62 3.91-19.18-22.66 4.618-3.91zM523.708 198.892l-4.618 3.91-19.182-22.66 4.62-3.91zM513.525 207.512l-4.62 3.91-19.18-22.66 4.618-3.91zM503.34 216.133l-4.618 3.91-19.181-22.661 4.619-3.91zM493.156 224.753l-4.618 3.91-19.181-22.66 4.618-3.91zM483.172 233.204l-3.142 2.66-19.18-22.66 3.141-2.66zM431.285 211.971l9.89-8.37-21.519-25.423-25.285 21.403 18.26 21.573 15.396-13.032zM428.027 208.122l-18.26-21.573M492.172 261.201l-10.598-12.52-12.787 10.823M387.464 202.678l19.617 23.174M20.812 592.854l136.397 82.08M311.892 617.94l-8.075 1.217-49.616 27.552-3.412-.284-.354-1.918"/>
    <path fill="none" stroke="#000" stroke-width=".567" d="M201.17 504.921c17.593-1.944 31.387-8.43 38.74 11.885l15.751 127.257M293.308 625.348l-17.77-98.303c-.505-12.218 6.59-21.181 17.878-28.346M624.85 213.437l3.158 3.316-4.824 4.083 2.78 3.285 5.796-3.144 6.42 6.545-4.428 6.215 7.596-1.85 5.647 6.672-2.613 5.03 1.88 2.638 6.333-2.718 5.647 6.672-2.297 5.82 2.346 2.771 5.845-2.756 5.348 6.319-3.829 5.518 1.918 2.266 6.117-1.106 5.203 6.147-1.482 2.663 2.52 2.977 2.538-1.198 6.22 7.35-1.437 3.33 2.433 2.874-4.172 3.708-3.29-2.325.204 4.82-4.722 3.996-5.24-1.613 1.43 4.604-2.156 1.824-9.383-11.085 2.187-4.493-5.252.04-6.863-8.108 1.855-5.094-4.983 1.399-5.82-6.877 2.106-8.126-6.577 2.22-5.56-6.569 2.423-7.336-1.824-2.155-3.854 2.732-5.734-6.774 2.093-5.827-4.63.837-6.88-7.944 2.694-6.04-2.172-2.566-4.587 3.53-2.843-2.35zM618.3 206.741l-5.916 1.337-8.81 7.457-1.874 4.377M700.27 292.17l-1.267 1.071 6.627 7.829-1.967 1.665-7.783-9.195-1.711 1.448 7.638 9.024-2.48 2.1-7.638-9.024-4.02 3.403 7.682 9.076a31.922 31.922 0 0 0-3.584 2.72l-7.582-8.957-4.183 3.54 7.688 9.083c-.99.939-1.887 2.021-2.72 3.205l-8.078-9.545-6.245 5.285-.286 2.007"/>
    <path fill="none" stroke="#000" stroke-width=".283" d="M597.316 156.986a2.815 2.815 0 1 0 3.638 4.297 2.815 2.815 0 0 0-3.638-4.297zM557.067 191.715a2.815 2.815 0 1 0 3.638 4.298 2.815 2.815 0 0 0-3.638-4.298z"/>
    <path fill="#f95" fill-rule="evenodd" stroke="#000" stroke-width=".567" d="M586.652 122.95a1.86 1.86 0 1 0 2.403 2.84 1.86 1.86 0 0 0-2.403-2.84zm-2.654-3.135a5.967 5.967 0 1 0 7.71 9.11 5.967 5.967 0 0 0-7.71-9.11zM485.135 208.879a1.86 1.86 0 1 0 2.402 2.84 1.86 1.86 0 0 0-2.402-2.84zm-2.654-3.135a5.967 5.967 0 1 0 7.71 9.109 5.967 5.967 0 0 0-7.71-9.109zM212.813 389.917a7.738 7.738 0 1 0 9.998 11.812 7.738 7.738 0 0 0-9.999-11.812z"/>
    <path fill="#f95" fill-rule="evenodd" stroke="#000" stroke-width=".567" d="M211.079 387.869c-4.393 3.718-4.94 10.294-1.222 14.687 3.719 4.393 10.295 4.94 14.688 1.222 4.393-3.719 4.94-10.295 1.221-14.688-3.718-4.393-10.294-4.94-14.687-1.221zm1.734 2.048a7.738 7.738 0 1 0 9.998 11.812 7.738 7.738 0 0 0-9.998-11.812z"/>
    <path fill="none" stroke="#000" stroke-width=".567" d="M551.42 366.316l-6.286 5.322 4.018 4.747 6.286-5.322z"/>
    <path fill-opacity=".588" fill-rule="evenodd" d="M608.142 169.7l6.489-1.104-1.78-3.117-6.584 1.988-39.837 33.72-2.85 5.998 1.524 4.056 2.574-7.29z"/>
    <path fill-opacity=".588" fill-rule="evenodd" stroke="#000" stroke-width=".567" d="M551.42 366.316l-6.286 5.322 4.018 4.747 6.286-5.322z"/>
    <path fill="none" stroke="#000" stroke-width=".567" d="M247.745 458.784a3.832 3.832 0 1 0 4.952 5.85 3.832 3.832 0 0 0-4.952-5.85zM634.725 212.55l-6.717 4.203M639.421 216.756l-7.661 4.22M645.117 223.485l-6.936 4.037M650.122 228.582l-8.774 3.306M655.402 234.82l-8.407 3.74M660.977 241.595l-8.382 1.914M666.93 247.348l-8.688 2.833M670.813 251.726l-6.677 4.29M676.894 258.91l-7.41 3.425M680.926 264.923l-7.236 4.09M686.182 271.133l-7.29 4.027M690.4 276.636l-7.93 2.966M695.447 283.64l-6.758 3.311M702.235 289.786l-12.55 3.37M680.002 306.87l-2.297-3.515M676.892 309.613l-2.998-3.267M684.185 303.33l-1.758-3.971M662.356 297.085l-4.891 6.725M659.291 292.632l-5.89 6.69M652.428 284.524l-5.326 7.356M649.3 280.829l-6.987 5.914M643.48 273.952l-6.582 6.393M639.009 268.046l-6.925 7.653M633.449 261.477l-7.142 7.396M630.194 254.718l-8.259 7.637M624.46 247.944l-6.912 9.228M621.922 242.954l-9.007 7.392M615.042 235.01l-7.47 9.024M610.978 229.935l-7.185 8.49M669.95 306.057l-6.4 4.318M670.648 314.898l1.09-6.728M687.669 300.49l-2.156-3.626"/>
    <path fill="#f95" fill-rule="evenodd" stroke="#000" stroke-width=".567" d="M533.049 162.94a5.968 5.968 0 1 0 7.711 9.11 5.968 5.968 0 0 0-7.711-9.11zm2.653 3.135a1.86 1.86 0 1 0 2.405 2.84 1.86 1.86 0 0 0-2.405-2.84z"/>
</svg>
