<?xml version="1.0" encoding="UTF-8" standalone="no"?>
<svg
   xmlns:dc="http://purl.org/dc/elements/1.1/"
   xmlns:cc="http://creativecommons.org/ns#"
   xmlns:rdf="http://www.w3.org/1999/02/22-rdf-syntax-ns#"
   xmlns:svg="http://www.w3.org/2000/svg"
   xmlns="http://www.w3.org/2000/svg"
   xmlns:sodipodi="http://sodipodi.sourceforge.net/DTD/sodipodi-0.dtd"
   xmlns:inkscape="http://www.inkscape.org/namespaces/inkscape"
   inkscape:version="1.0 (4035a4fb49, 2020-05-01)"
   sodipodi:docname="Penis Cum Storage.svg"
   viewBox="0 0 7256.6929 7256.6929"
   id="svg54"
   height=""
   width=""
   version="1.1">
  <metadata
     id="metadata60">
    <rdf:RDF>
      <cc:Work
         rdf:about="">
        <dc:format>image/svg+xml</dc:format>
        <dc:type
           rdf:resource="http://purl.org/dc/dcmitype/StillImage" />
        <dc:title></dc:title>
      </cc:Work>
    </rdf:RDF>
  </metadata>
  <defs
     id="defs58" />
  <sodipodi:namedview
     inkscape:current-layer="svg54"
     inkscape:window-maximized="1"
     inkscape:window-y="-8"
     inkscape:window-x="-8"
     inkscape:cy="3628.3464"
     inkscape:cx="3628.3464"
     inkscape:zoom="0.079650608"
     showgrid="false"
     id="namedview56"
     inkscape:window-height="746"
     inkscape:window-width="1304"
     inkscape:pageshadow="2"
     inkscape:pageopacity="0"
     guidetolerance="10"
     gridtolerance="10"
     objecttolerance="10"
     borderopacity="1"
     bordercolor="#666666"
     pagecolor="#ffffff" />
  <g
     style="stroke-width:10;stroke-miterlimit:4;stroke-dasharray:none"
     id="Layer1000">
    <path
       id="path2"
       style="fill:#ffb380;fill-rule:evenodd;stroke:#000000;stroke-width:10;stroke-linecap:butt;stroke-linejoin:miter;stroke-dasharray:none;stroke-miterlimit:4"
       d="M 5277.8928,1843.4619 5402.912,1967.6115 254.7187,7151.8805 129.6995,7027.7312 Z" />
    <path
       id="path4"
       style="fill:#ff8080;fill-rule:evenodd;stroke:#000000;stroke-width:10;stroke-linecap:butt;stroke-linejoin:miter;stroke-dasharray:none;stroke-miterlimit:4"
       d="M 6877.5823,357.5852 6357.1286,1383.0094 7174.65,2191.7279 6038.5844,2013.6206 5522.076,3041.0374 5340.4024,1905.5367 4203.661,1731.797 5227.446,1208.1266 5041.41,73.3323 5855.8173,885.1867 Z" />
    <path
       id="path6"
       style="fill:#ffb380;fill-rule:evenodd;stroke:#000000;stroke-width:10;stroke-linecap:butt;stroke-linejoin:miter;stroke-dasharray:none;stroke-miterlimit:4"
       d="m 207.6304,7074.1791 c 34.6298,34.1748 55.7983,68.8754 47.2813,77.5058 -8.5169,8.6303 -43.4945,-12.0776 -78.1242,-46.2524 -34.6297,-34.1747 -55.7983,-68.8751 -47.2813,-77.5054 8.5169,-8.6307 43.4945,12.0773 78.1242,46.252 z" />
    <path
       id="path8"
       style="fill:#ff5555;fill-rule:evenodd;stroke:#000000;stroke-width:10;stroke-linecap:butt;stroke-linejoin:miter;stroke-dasharray:none;stroke-miterlimit:4"
       d="m 4203.6609,1731.7969 998.9188,187.5059 30.0299,-30.2405 z" />
    <path
       id="path10"
       style="fill:#ff5555;fill-rule:evenodd;stroke:#000000;stroke-width:10;stroke-linecap:butt;stroke-linejoin:miter;stroke-dasharray:none;stroke-miterlimit:4"
       d="m 5522.076,3041.0375 -193.1238,-998.9785 28.6772,-28.8478 z" />
  </g>
  <g
     id="Layer1001">
    <path
       id="path13"
       style="fill:#000000;fill-rule:evenodd;stroke:#000000;stroke-width:28.3465;stroke-linecap:butt;stroke-linejoin:miter;stroke-dasharray:none"
       d="m 5533.1498,1081.4933 53.491,-0.3537 -26.9092,-45.9043 z" />
    <path
       id="path15"
       style="fill:#000000;fill-rule:evenodd;stroke:#000000;stroke-width:28.3465;stroke-linecap:butt;stroke-linejoin:miter;stroke-dasharray:none"
       d="m 5586.3133,1464.6099 -53.4909,0.3537 26.9091,45.9043 z" />
    <path
       id="path17"
       style="fill:none;stroke:#000000;stroke-width:28.3465;stroke-linecap:butt;stroke-linejoin:miter;stroke-dasharray:none"
       d="m 5831.1375,1273.0517 c 1e-4,149.8933 -121.5127,271.4061 -271.4059,271.4059 -149.8933,2e-4 -271.4061,-121.5126 -271.406,-271.4059 -1e-4,-149.8933 121.5127,-271.406 271.406,-271.4059 149.8932,-10e-5 271.406,121.5126 271.4059,271.4059 z" />
    <path
       id="path19"
       style="fill:none;stroke:#000000;stroke-width:7.0866;stroke-linecap:butt;stroke-linejoin:miter;stroke-dasharray:none"
       d="m 5367.8185,1081.1386 c 0.4656,16.4547 8.8752,23.9868 23.989,23.989 16.4547,0.4656 23.9868,8.8753 23.989,23.989 0.4656,16.4547 8.8753,23.9869 23.989,23.9891 16.4547,0.4656 23.9869,8.8752 23.9891,23.989 0,15.1137 7.5343,23.5234 23.989,23.989 15.1137,0 23.5234,7.5343 23.989,23.989 0,15.1138 7.5343,23.5235 23.989,23.9891 15.1138,0 23.5235,7.5343 23.9891,23.989 0,15.1138 7.5343,23.5234 23.989,23.989 15.1138,0 23.5234,7.5344 23.989,23.9891 0,15.1137 7.5344,23.5234 23.9891,23.989 15.1137,0 23.5234,7.5343 23.989,23.989 0,15.1138 7.5343,23.5234 23.989,23.989 15.1138,0 23.5234,7.5344 23.989,23.9891 0,15.1137 7.5344,23.5234 23.9891,23.989 15.1137,0 23.5234,7.5343 23.989,23.989" />
    <path
       id="path21"
       style="fill:#000000;fill-rule:evenodd;stroke:#000000;stroke-width:28.3465;stroke-linecap:butt;stroke-linejoin:miter;stroke-dasharray:none"
       d="m 5751.2897,1246.4702 0.3537,53.491 45.9043,-26.9092 z" />
    <path
       id="path23"
       style="fill:none;stroke:#000000;stroke-width:28.3465;stroke-linecap:butt;stroke-linejoin:miter;stroke-dasharray:none"
       d="m 5440.8229,1273.0518 h -118.9078 59.4539" />
    <path
       id="path25"
       style="fill:#000000;fill-rule:evenodd;stroke:#000000;stroke-width:28.3465;stroke-linecap:butt;stroke-linejoin:miter;stroke-dasharray:none"
       d="m 5368.1732,1299.6338 -0.3538,-53.491 -45.9042,26.9091 z" />
    <path
       id="path27"
       style="fill:#000000;fill-rule:evenodd;stroke:#000000;stroke-width:28.3465;stroke-linecap:butt;stroke-linejoin:miter;stroke-dasharray:none"
       d="m 5929.2079,1479.4515 53.491,-0.3537 -26.9092,-45.9043 z" />
    <path
       id="path29"
       style="fill:#000000;fill-rule:evenodd;stroke:#000000;stroke-width:28.3465;stroke-linecap:butt;stroke-linejoin:miter;stroke-dasharray:none"
       d="m 5982.3715,1862.568 -53.491,0.3538 26.9091,45.9042 z" />
    <path
       id="path31"
       style="fill:none;stroke:#000000;stroke-width:28.3465;stroke-linecap:butt;stroke-linejoin:miter;stroke-dasharray:none"
       d="m 6227.1956,1671.0099 c 1e-4,149.8933 -121.5126,271.406 -271.4059,271.4059 -149.8933,10e-5 -271.4061,-121.5126 -271.406,-271.4059 -1e-4,-149.8933 121.5127,-271.4061 271.406,-271.4059 149.8933,-2e-4 271.406,121.5126 271.4059,271.4059 z" />
    <path
       id="path33"
       style="fill:none;stroke:#000000;stroke-width:7.0866;stroke-linecap:butt;stroke-linejoin:miter;stroke-dasharray:none"
       d="m 5763.8766,1479.0968 c 0.4656,16.4547 8.8752,23.9868 23.989,23.989 16.4547,0.4656 23.9868,8.8753 23.989,23.989 0.4656,16.4547 8.8753,23.9868 23.9891,23.989 16.4546,0.4657 23.9868,8.8753 23.989,23.9891 0,15.1137 7.5343,23.5234 23.989,23.989 15.1138,0 23.5234,7.5343 23.989,23.989 0,15.1138 7.5344,23.5234 23.9891,23.989 15.1137,0 23.5234,7.5344 23.989,23.9891 0,15.1137 7.5343,23.5234 23.989,23.989 15.1138,0 23.5234,7.5343 23.989,23.989 0,15.1138 7.5344,23.5234 23.9891,23.9891 15.1137,0 23.5234,7.5343 23.989,23.989 0,15.1137 7.5343,23.5234 23.989,23.989 15.1138,0 23.5234,7.5343 23.989,23.989 0,15.1138 7.5344,23.5234 23.9891,23.9891 15.1137,0 23.5234,7.5343 23.989,23.989" />
    <path
       id="path35"
       style="fill:#000000;fill-rule:evenodd;stroke:#000000;stroke-width:28.3465;stroke-linecap:butt;stroke-linejoin:miter;stroke-dasharray:none"
       d="m 6147.3478,1644.4284 0.3537,53.491 45.9043,-26.9092 z" />
    <path
       id="path37"
       style="fill:#000000;fill-rule:evenodd;stroke:#000000;stroke-width:28.3465;stroke-linecap:butt;stroke-linejoin:miter;stroke-dasharray:none"
       d="m 5764.2313,1697.5919 -0.3537,-53.491 -45.9043,26.9092 z" />
    <path
       id="path39"
       style="fill:none;stroke:#000000;stroke-width:28.3465;stroke-linecap:butt;stroke-linejoin:miter;stroke-dasharray:none"
       d="M 5797.5477,1273.0521 H 5678.64 5738.0939" />
    <path
       id="path41"
       style="fill:none;stroke:#000000;stroke-width:28.3465;stroke-linecap:butt;stroke-linejoin:miter;stroke-dasharray:none"
       d="m 5559.7317,1154.143 v -118.9077 59.4538" />
    <path
       id="path43"
       style="fill:none;stroke:#000000;stroke-width:28.3465;stroke-linecap:butt;stroke-linejoin:miter;stroke-dasharray:none"
       d="m 5559.7314,1510.8678 v -118.9077 59.4539" />
    <path
       id="path45"
       style="fill:none;stroke:#000000;stroke-width:28.3465;stroke-linecap:butt;stroke-linejoin:miter;stroke-dasharray:none"
       d="m 5955.7898,1552.1012 v -118.9077 59.4538" />
    <path
       id="path47"
       style="fill:none;stroke:#000000;stroke-width:28.3465;stroke-linecap:butt;stroke-linejoin:miter;stroke-dasharray:none"
       d="m 5955.7895,1908.826 v -118.9077 59.4539" />
    <path
       id="path49"
       style="fill:none;stroke:#000000;stroke-width:28.3465;stroke-linecap:butt;stroke-linejoin:miter;stroke-dasharray:none"
       d="m 5836.881,1671.01 h -118.9077 59.4538" />
    <path
       id="path51"
       style="fill:none;stroke:#000000;stroke-width:28.3465;stroke-linecap:butt;stroke-linejoin:miter;stroke-dasharray:none"
       d="m 6193.6058,1671.0103 h -118.9077 59.4539" />
  </g>
</svg>
