<?xml version="1.0" encoding="UTF-8" standalone="no"?>
<svg
   xmlns:dc="http://purl.org/dc/elements/1.1/"
   xmlns:cc="http://creativecommons.org/ns#"
   xmlns:rdf="http://www.w3.org/1999/02/22-rdf-syntax-ns#"
   xmlns:svg="http://www.w3.org/2000/svg"
   xmlns="http://www.w3.org/2000/svg"
   xmlns:sodipodi="http://sodipodi.sourceforge.net/DTD/sodipodi-0.dtd"
   xmlns:inkscape="http://www.inkscape.org/namespaces/inkscape"
   inkscape:version="1.0 (4035a4fb49, 2020-05-01)"
   sodipodi:docname="Penis Cum Production Regeneration.svg"
   viewBox="0 0 7256.6929 7256.6929"
   id="svg48"
   height=""
   width=""
   version="1.1">
  <metadata
     id="metadata54">
    <rdf:RDF>
      <cc:Work
         rdf:about="">
        <dc:format>image/svg+xml</dc:format>
        <dc:type
           rdf:resource="http://purl.org/dc/dcmitype/StillImage" />
        <dc:title></dc:title>
      </cc:Work>
    </rdf:RDF>
  </metadata>
  <defs
     id="defs52" />
  <sodipodi:namedview
     inkscape:current-layer="svg48"
     inkscape:window-maximized="0"
     inkscape:window-y="0"
     inkscape:window-x="0"
     inkscape:cy="3628.3464"
     inkscape:cx="3628.3464"
     inkscape:zoom="0.079650608"
     showgrid="false"
     id="namedview50"
     inkscape:window-height="480"
     inkscape:window-width="820"
     inkscape:pageshadow="2"
     inkscape:pageopacity="0"
     guidetolerance="10"
     gridtolerance="10"
     objecttolerance="10"
     borderopacity="1"
     bordercolor="#666666"
     pagecolor="#ffffff" />
  <g
     style="stroke-width:10;stroke-miterlimit:4;stroke-dasharray:none"
     id="Layer1000">
    <path
       id="path2"
       style="fill:#ffb380;fill-rule:evenodd;stroke:#000000;stroke-width:10;stroke-linecap:butt;stroke-linejoin:miter;stroke-dasharray:none;stroke-miterlimit:4"
       d="M 5277.8928,1843.4619 5402.912,1967.6115 254.7187,7151.8805 129.6995,7027.7312 Z" />
    <path
       id="path4"
       style="fill:#ff8080;fill-rule:evenodd;stroke:#000000;stroke-width:10;stroke-linecap:butt;stroke-linejoin:miter;stroke-dasharray:none;stroke-miterlimit:4"
       d="M 6877.5823,357.5852 6357.1286,1383.0094 7174.65,2191.7279 6038.5844,2013.6206 5522.076,3041.0374 5340.4024,1905.5367 4203.661,1731.797 5227.446,1208.1266 5041.41,73.3323 5855.8173,885.1867 Z" />
    <path
       id="path6"
       style="fill:#ffb380;fill-rule:evenodd;stroke:#000000;stroke-width:10;stroke-linecap:butt;stroke-linejoin:miter;stroke-dasharray:none;stroke-miterlimit:4"
       d="m 207.6304,7074.1791 c 34.6298,34.1748 55.7983,68.8754 47.2813,77.5058 -8.5169,8.6303 -43.4945,-12.0776 -78.1242,-46.2524 -34.6297,-34.1747 -55.7983,-68.8751 -47.2813,-77.5054 8.5169,-8.6307 43.4945,12.0773 78.1242,46.252 z" />
    <path
       id="path8"
       style="fill:#ff5555;fill-rule:evenodd;stroke:#000000;stroke-width:10;stroke-linecap:butt;stroke-linejoin:miter;stroke-dasharray:none;stroke-miterlimit:4"
       d="m 4203.6609,1731.7969 998.9188,187.5059 30.0299,-30.2405 z" />
    <path
       id="path10"
       style="fill:#ff5555;fill-rule:evenodd;stroke:#000000;stroke-width:10;stroke-linecap:butt;stroke-linejoin:miter;stroke-dasharray:none;stroke-miterlimit:4"
       d="m 5522.076,3041.0375 -193.1238,-998.9785 28.6772,-28.8478 z" />
  </g>
  <g
     id="Layer1001">
    <g
       id="Layer1002">
      <path
         id="path13"
         style="fill:#000000;fill-rule:evenodd;stroke:#000000;stroke-width:28.3465;stroke-linecap:butt;stroke-linejoin:miter;stroke-dasharray:none"
         d="m 5676.3873,1118.8034 38.074,37.5737 13.4316,-51.4869 z" />
      <path
         id="path15"
         style="fill:none;stroke:#000000;stroke-width:28.3465;stroke-linecap:butt;stroke-linejoin:miter;stroke-dasharray:none"
         d="m 5727.8928,1104.8901 -336.323,336.323" />
      <path
         id="path17"
         style="fill:none;stroke:#000000;stroke-width:28.3465;stroke-linecap:butt;stroke-linejoin:miter;stroke-dasharray:none"
         d="m 5831.1373,1273.0517 c 2e-4,149.8932 -121.5126,271.406 -271.4059,271.4059 -149.8933,10e-5 -271.406,-121.5127 -271.4059,-271.4059 -1e-4,-149.8933 121.5126,-271.4061 271.4059,-271.406 149.8933,-1e-4 271.4061,121.5127 271.4059,271.406 z" />
      <path
         id="path19"
         style="fill:none;stroke:#000000;stroke-width:7.0866;stroke-linecap:butt;stroke-linejoin:miter;stroke-dasharray:none"
         d="m 5367.8183,1081.1385 c 0.4656,16.4547 8.8753,23.9869 23.989,23.9891 16.4547,0.4656 23.9869,8.8752 23.9891,23.989 0.4656,16.4547 8.8752,23.9868 23.989,23.989 16.4547,0.4656 23.9868,8.8753 23.989,23.989 0,15.1138 7.5344,23.5234 23.989,23.9891 15.1138,0 23.5235,7.5343 23.9891,23.989 0,15.1137 7.5343,23.5234 23.989,23.989 15.1138,0 23.5234,7.5343 23.989,23.989 0,15.1138 7.5344,23.5234 23.9891,23.9891 15.1137,0 23.5234,7.5343 23.989,23.989 0,15.1137 7.5343,23.5234 23.989,23.989 15.1138,0 23.5234,7.5343 23.989,23.989 0,15.1138 7.5344,23.5234 23.9891,23.9891 15.1137,0 23.5234,7.5343 23.989,23.989 0,15.1138 7.5343,23.5234 23.989,23.989 15.1138,0 23.5234,7.5344 23.989,23.9891" />
      <path
         id="path21"
         style="fill:#000000;fill-rule:evenodd;stroke:#000000;stroke-width:28.3465;stroke-linecap:butt;stroke-linejoin:miter;stroke-dasharray:none"
         d="m 5480.6167,1128.5185 38.074,37.5738 13.4316,-51.4869 z" />
      <path
         id="path23"
         style="fill:#000000;fill-rule:evenodd;stroke:#000000;stroke-width:28.3465;stroke-linecap:butt;stroke-linejoin:miter;stroke-dasharray:none"
         d="m 5667.4276,1309.0831 38.0739,37.5736 13.4315,-51.4867 z" />
      <path
         id="path25"
         style="fill:none;stroke:#000000;stroke-width:28.3465;stroke-linecap:butt;stroke-linejoin:miter;stroke-dasharray:none"
         d="m 5532.1223,1114.6052 -168.1615,168.1615" />
      <path
         id="path27"
         style="fill:none;stroke:#000000;stroke-width:28.3465;stroke-linecap:butt;stroke-linejoin:miter;stroke-dasharray:none"
         d="m 5717.6407,1300.1236 -168.1615,168.1615" />
    </g>
    <g
       id="Layer1003">
      <path
         id="path30"
         style="fill:#000000;fill-rule:evenodd;stroke:#000000;stroke-width:28.3465;stroke-linecap:butt;stroke-linejoin:miter;stroke-dasharray:none"
         d="m 6072.4454,1516.7615 38.074,37.5738 13.4316,-51.4869 z" />
      <path
         id="path32"
         style="fill:none;stroke:#000000;stroke-width:28.3465;stroke-linecap:butt;stroke-linejoin:miter;stroke-dasharray:none"
         d="m 6123.9509,1502.8483 -336.323,336.323" />
      <path
         id="path34"
         style="fill:none;stroke:#000000;stroke-width:28.3465;stroke-linecap:butt;stroke-linejoin:miter;stroke-dasharray:none"
         d="m 6227.1954,1671.0098 c 2e-4,149.8933 -121.5126,271.4061 -271.4059,271.4059 -149.8933,2e-4 -271.406,-121.5126 -271.4059,-271.4059 -1e-4,-149.8933 121.5126,-271.406 271.4059,-271.4059 149.8933,-10e-5 271.4061,121.5126 271.4059,271.4059 z" />
      <path
         id="path36"
         style="fill:none;stroke:#000000;stroke-width:7.0866;stroke-linecap:butt;stroke-linejoin:miter;stroke-dasharray:none"
         d="m 5763.8764,1479.0967 c 0.4656,16.4547 8.8753,23.9868 23.9891,23.989 16.4547,0.4657 23.9868,8.8753 23.989,23.9891 0.4656,16.4547 8.8753,23.9868 23.989,23.989 16.4547,0.4656 23.9868,8.8753 23.989,23.989 0,15.1138 7.5344,23.5234 23.9891,23.989 15.1137,0 23.5234,7.5344 23.989,23.9891 0,15.1137 7.5343,23.5234 23.989,23.989 15.1138,0 23.5234,7.5343 23.989,23.989 0,15.1138 7.5344,23.5234 23.9891,23.989 15.1137,0 23.5234,7.5344 23.989,23.9891 0,15.1137 7.5343,23.5234 23.989,23.989 15.1138,0 23.5234,7.5343 23.989,23.989 0,15.1138 7.5344,23.5234 23.9891,23.989 15.1137,0 23.5234,7.5344 23.989,23.9891 0,15.1137 7.5343,23.5234 23.989,23.989 15.1138,0 23.5234,7.5343 23.989,23.989" />
      <path
         id="path38"
         style="fill:#000000;fill-rule:evenodd;stroke:#000000;stroke-width:28.3465;stroke-linecap:butt;stroke-linejoin:miter;stroke-dasharray:none"
         d="m 5876.6748,1526.4767 38.074,37.5737 13.4316,-51.4868 z" />
      <path
         id="path40"
         style="fill:#000000;fill-rule:evenodd;stroke:#000000;stroke-width:28.3465;stroke-linecap:butt;stroke-linejoin:miter;stroke-dasharray:none"
         d="m 6062.1934,1711.9948 38.0739,37.5737 13.4315,-51.4868 z" />
      <path
         id="path42"
         style="fill:none;stroke:#000000;stroke-width:28.3465;stroke-linecap:butt;stroke-linejoin:miter;stroke-dasharray:none"
         d="m 5928.1804,1512.5634 -168.1615,168.1615" />
      <path
         id="path44"
         style="fill:none;stroke:#000000;stroke-width:28.3465;stroke-linecap:butt;stroke-linejoin:miter;stroke-dasharray:none"
         d="m 6113.6988,1698.0818 -168.1615,168.1615" />
    </g>
  </g>
</svg>
