<svg xmlns="http://www.w3.org/2000/svg" viewBox="0 0 7256.693 7256.693"><g stroke-width="10"><path d="M3704.133 1470.83c1486.24 0 2691.075 1204.835 2691.075 2691.075 0 1486.24-1204.835 2691.075-2691.075 2691.075-1486.239 0-2691.074-1204.835-2691.074-2691.075 0-1486.24 1204.835-2691.075 2691.074-2691.075z" fill="#ff8080" fill-rule="evenodd" stroke="#1b1918"/><path d="M2921.425 1586.428c556.947 167.785 1073.036 141.18 1565.638 2.843V385.875H2921.425zm-.221 5266.552v-165.071h1565.86v165.07c-510.344 154.382-1032.032 157.894-1565.86 0z" fill="#ff8080" fill-rule="evenodd" stroke="#1b1918"/><path d="M6392.648 4280.35l2.56-118.445c0 1486.24-1204.835 2691.075-2691.074 2691.075-1486.24 0-2691.075-1204.835-2691.075-2691.075l2.56 118.446z" fill="#ffb380" fill-rule="evenodd" stroke="#1b1918"/><path d="M3704.133 4025.02c1484.826 0 2688.515 114.315 2688.515 255.331s-1203.689 255.331-2688.515 255.331c-1484.825 0-2688.514-114.315-2688.514-255.331s1203.689-255.331 2688.514-255.331z" fill="#ffb380" fill-rule="evenodd" stroke="#1b1918"/><path d="M3704.189 869.127c438.75 0 794.428 53.03 794.428 118.446s-355.677 118.446-794.428 118.446c-438.75 0-794.428-53.03-794.428-118.446s355.677-118.446 794.428-118.446z" fill="#ffe680" fill-rule="evenodd" stroke="#1b1918"/><path d="M2909.65 385.874h1588.967v601.699H2909.65z" fill="#ffe680" fill-rule="evenodd"/><path d="M3704.078 267.428c438.812 0 794.54 53.03 794.54 118.446S4142.89 504.32 3704.077 504.32c-438.812 0-794.539-53.03-794.539-118.446 0-65.417 355.727-118.446 794.54-118.446z" fill="#ffe680" fill-rule="evenodd" stroke="#1b1918"/><path d="M2909.539 385.874l.222 604.546m1588.856-603.046v601.7M4498.617 672.706h-11.554" fill="none" stroke="#1b1918"/></g></svg>