<?xml version="1.0" encoding="UTF-8" standalone="no"?>
<svg
   xmlns:dc="http://purl.org/dc/elements/1.1/"
   xmlns:cc="http://creativecommons.org/ns#"
   xmlns:rdf="http://www.w3.org/1999/02/22-rdf-syntax-ns#"
   xmlns:svg="http://www.w3.org/2000/svg"
   xmlns="http://www.w3.org/2000/svg"
   xmlns:sodipodi="http://sodipodi.sourceforge.net/DTD/sodipodi-0.dtd"
   xmlns:inkscape="http://www.inkscape.org/namespaces/inkscape"
   inkscape:version="1.0 (4035a4fb49, 2020-05-01)"
   sodipodi:docname="accept_changes.svg"
   viewBox="0 0 725.66931 725.66931"
   id="svg6"
   height=""
   width=""
   version="1.1">
  <metadata
     id="metadata12">
    <rdf:RDF>
      <cc:Work
         rdf:about="">
        <dc:format>image/svg+xml</dc:format>
        <dc:type
           rdf:resource="http://purl.org/dc/dcmitype/StillImage" />
        <dc:title />
      </cc:Work>
    </rdf:RDF>
  </metadata>
  <defs
     id="defs10" />
  <sodipodi:namedview
     inkscape:current-layer="svg6"
     inkscape:window-maximized="1"
     inkscape:window-y="-8"
     inkscape:window-x="-8"
     inkscape:cy="362.83466"
     inkscape:cx="362.83466"
     inkscape:zoom="0.79650605"
     showgrid="false"
     id="namedview8"
     inkscape:window-height="746"
     inkscape:window-width="1304"
     inkscape:pageshadow="2"
     inkscape:pageopacity="0"
     guidetolerance="10"
     gridtolerance="10"
     objecttolerance="10"
     borderopacity="1"
     bordercolor="#666666"
     pagecolor="#ffffff"
     inkscape:document-rotation="0" />
  <path
     id="path2"
     style="fill:#ffffff;fill-opacity:1;stroke:#ffffff;stroke-width:4;stroke-linecap:butt;stroke-linejoin:miter;stroke-dasharray:none;opacity:0.3"
     d="m 110.442,645.1432 22.3166,-26.7247 c 11.0665,8.7704 21.9034,14.1888 32.5565,16.3012 10.6073,2.0662 22.3625,0.5967 35.2658,-4.4085 12.8571,-5.0507 24.9339,-13.1785 36.1381,-24.3824 9.9643,-9.9647 17.2653,-20.2045 21.903,-30.8118 4.6381,-10.6075 6.1994,-20.3423 4.7299,-29.2504 -1.4695,-8.9082 -5.2347,-16.439 -11.2961,-22.5003 -6.1531,-6.1532 -13.3163,-9.7347 -21.5359,-10.7906 -8.1737,-1.0106 -17.9541,1.0559 -29.3882,6.1531 -7.3009,3.2601 -22.2247,11.755 -44.7247,25.5308 -22.5003,13.7755 -39.2607,22.3623 -50.3731,25.7601 -14.3725,4.4544 -27.5057,5.281 -39.3985,2.5719 C 54.6965,569.9282 44.1811,564.0043 35.1351,554.9584 25.1249,544.9482 18.65,532.7799 15.6654,518.4989 12.6349,504.1721 14.288,489.3863 20.6705,474.0035 27.0074,458.6666 36.8342,444.3401 50.1046,431.0694 64.707,416.4673 79.952,405.906 95.8399,399.4773 c 15.842,-6.4747 31.3626,-8.1275 46.5616,-4.9593 15.1532,3.1224 28.7451,10.2858 40.7759,21.3982 l -23.1429,27.0003 c -13.7756,-11.1124 -27.7351,-15.9797 -41.8323,-14.5565 -14.1429,1.378 -28.791,9.6891 -43.9441,24.8423 -15.7961,15.7961 -24.429,30.2145 -25.8523,43.2096 -1.4238,12.9952 1.9284,23.6024 10.1019,31.7758 7.0715,7.0716 15.4749,10.332 25.1637,9.8269 9.5969,-0.5051 27.4135,-8.8625 53.4036,-25.3015 26.0359,-16.393 44.7709,-26.7706 56.2504,-31.087 16.7148,-6.1531 31.8679,-7.99 45.4598,-5.3265 13.5462,2.6175 25.577,9.2296 36.1383,19.7909 10.5154,10.5154 17.3574,23.3269 20.6175,38.6178 3.2604,15.2909 1.8828,31.087 -4.2245,47.48 -6.1072,16.3931 -16.1634,31.5924 -30.2604,45.6894 -17.8166,17.8166 -35.3576,30.1226 -52.5773,36.9646 -17.2652,6.8879 -34.4851,8.4949 -51.7966,4.8677 -17.3112,-3.536 -32.6939,-11.7556 -46.2402,-24.5668 z M 294.2093,461.376 316.5259,434.6512 c 11.0664,8.7704 21.9033,14.1889 32.5565,16.3012 10.6072,2.0662 22.3625,0.5967 35.2658,-4.4084 12.8571,-5.0511 24.9338,-13.1786 36.138,-24.3828 9.9644,-9.9643 17.2656,-20.2042 21.9033,-30.8114 4.6381,-10.6076 6.1991,-20.3423 4.7296,-29.2505 -1.4691,-8.9081 -5.2347,-16.4389 -11.296,-22.5002 -6.1532,-6.1532 -13.3163,-9.7348 -21.536,-10.7907 -8.1737,-1.0105 -17.954,1.0559 -29.3879,6.1529 -7.3012,3.2601 -22.2247,11.755 -44.725,25.5308 -22.5003,13.7758 -39.2607,22.3625 -50.3731,25.7604 -14.3725,4.4544 -27.5054,5.2807 -39.3984,2.5716 -11.9387,-2.6632 -22.4541,-8.587 -31.5003,-17.6329 -10.0103,-10.0103 -16.4849,-22.1789 -19.4698,-36.4595 -3.0302,-14.3269 -1.3773,-29.1127 5.0052,-44.4954 6.3371,-15.3372 16.1637,-29.6638 29.4344,-42.9342 14.6021,-14.6024 29.8471,-25.1634 45.735,-31.5921 15.842,-6.4746 31.3625,-8.1278 46.5619,-4.9592 15.1531,3.1224 28.745,10.2855 40.7758,21.3979 l -23.1432,27.0003 c -13.7755,-11.1121 -27.735,-15.9795 -41.832,-14.5562 -14.1432,1.3776 -28.7909,9.6891 -43.9444,24.8423 -15.796,15.796 -24.429,30.2144 -25.8522,43.2096 -1.4236,12.9951 1.9284,23.6024 10.1021,31.7758 7.0713,7.0716 15.4746,10.332 25.1634,9.8269 9.5973,-0.5052 27.4136,-8.8625 53.4036,-25.3015 26.0362,-16.393 44.771,-26.771 56.2507,-31.087 16.7145,-6.1532 31.868,-7.99 45.4598,-5.3266 13.5459,2.6172 25.5767,9.2293 36.138,19.7909 10.5157,10.5154 17.3574,23.3266 20.6178,38.6178 3.2602,15.291 1.8825,31.087 -4.2247,47.4801 -6.1073,16.3927 -16.1632,31.5921 -30.2604,45.6894 -17.8163,17.8163 -35.3577,30.1226 -52.5773,36.9646 -17.2653,6.8876 -34.4852,8.4949 -51.7964,4.8674 -17.3114,-3.536 -32.6942,-11.7553 -46.2404,-24.5665 z M 528.2578,354.0634 406.6648,81.1216 l 28.6991,-28.6994 277.5798,116.9555 -29.7096,29.7097 -82.6081,-36.9647 -83.0673,83.0671 38.3884,81.1845 z m -24.245,-137.7564 67.2253,-67.2253 -75.2613,-34.1178 c -22.8217,-10.4236 -41.235,-19.4698 -55.3323,-27.0459 10.1484,15.5661 19.1484,31.8214 27.0924,48.8573 z" />
  <path
     id="path4"
     style="fill:#ffffff;stroke:#ffffff;stroke-width:4;stroke-linecap:butt;stroke-linejoin:miter;stroke-dasharray:none;fill-opacity:1"
     d="M 17.2054,421.4625 79.4517,259.1991 h 23.6067 l 66.0611,162.2634 H 144.6817 L 125.9099,372.2848 H 57.5824 l -17.6011,49.1777 z m 46.6847,-66.6278 h 55.2965 l -16.9214,-44.985 c -5.0989,-13.6729 -8.9518,-24.9664 -11.6334,-33.8802 -2.2286,10.5758 -5.2123,20.9628 -8.9518,31.2364 z m 196.5968,23.569 19.4899,2.7195 c -2.1529,13.4087 -7.592,23.8711 -16.3927,31.4632 -8.8005,7.592 -19.6407,11.3689 -32.4451,11.3689 -16.0526,0 -28.9701,-5.2501 -38.715,-15.7504 -9.7827,-10.5001 -14.6551,-25.5331 -14.6551,-45.0984 0,-12.691 2.1152,-23.7577 6.3079,-33.2759 4.1924,-9.4805 10.5758,-16.6193 19.1874,-21.3406 8.574,-4.7591 17.9034,-7.1385 28.0259,-7.1385 12.729,0 23.1913,3.2105 31.2743,9.6692 8.1207,6.4588 13.3331,15.6371 15.5994,27.4972 l -19.2631,2.9461 c -1.8508,-7.8942 -5.0993,-13.8243 -9.8204,-17.828 -4.6837,-3.9659 -10.3493,-5.9677 -16.9971,-5.9677 -10.0468,0 -18.2055,3.5883 -24.5132,10.7648 -6.2699,7.2142 -9.4047,18.5454 -9.4047,34.107 0,15.7882 3.0214,27.2328 9.0649,34.3712 6.0811,7.1388 13.9751,10.7272 23.6823,10.7272 7.8562,0 14.3906,-2.3797 19.603,-7.1765 5.25,-4.7591 8.5739,-12.1246 9.9714,-22.0583 z m 113.3124,0 19.4899,2.7195 c -2.1529,13.4087 -7.592,23.8711 -16.3927,31.4632 -8.8005,7.592 -19.6407,11.3689 -32.4451,11.3689 -16.0526,0 -28.9701,-5.2501 -38.715,-15.7504 -9.7827,-10.5001 -14.6551,-25.5331 -14.6551,-45.0984 0,-12.691 2.1152,-23.7577 6.3079,-33.2759 4.1924,-9.4805 10.5758,-16.6193 19.1874,-21.3406 8.574,-4.7591 17.9034,-7.1385 28.0259,-7.1385 12.729,0 23.1914,3.2105 31.2744,9.6692 8.1206,6.4588 13.333,15.6371 15.5993,27.4972 l -19.2631,2.9461 c -1.8508,-7.8942 -5.0993,-13.8243 -9.8204,-17.828 -4.6837,-3.9659 -10.3493,-5.9677 -16.9971,-5.9677 -10.0468,0 -18.2055,3.5883 -24.5131,10.7648 -6.27,7.2142 -9.4048,18.5454 -9.4048,34.107 0,15.7882 3.0214,27.2328 9.0649,34.3712 6.0811,7.1388 13.9751,10.7272 23.6823,10.7272 7.8562,0 14.3907,-2.3797 19.603,-7.1765 5.2501,-4.7591 8.574,-12.1246 9.9714,-22.0583 z m 116.7118,4.9858 20.6229,2.7196 c -3.2106,11.9732 -9.216,21.3026 -17.9788,27.9124 -8.763,6.6102 -19.9431,9.9338 -33.5783,9.9338 -17.148,0 -30.7455,-5.2878 -40.7926,-15.8636 -10.0468,-10.538 -15.0704,-25.3819 -15.0704,-44.4563 0,-19.7163 5.0613,-35.0512 15.2215,-45.9294 10.1605,-10.9157 23.3425,-16.3545 39.5461,-16.3545 15.6748,0 28.4792,5.3254 38.4129,16.0146 9.9337,10.6891 14.9196,25.7218 14.9196,45.0983 0,1.171 -0.038,2.9461 -0.1134,5.2881 H 424.11 c 0.7555,12.8798 4.3816,22.7758 10.9537,29.6121 6.5344,6.8366 14.7305,10.2739 24.5132,10.2739 7.2898,0 13.5221,-1.9264 18.6587,-5.779 5.1747,-3.8526 9.254,-10.0094 12.2755,-18.47 z m -65.2678,-31.9541 h 65.4945 c -0.8688,-9.896 -3.3993,-17.299 -7.5163,-22.2469 -6.3077,-7.6677 -14.5418,-11.5202 -24.6266,-11.5202 -9.1406,0 -16.808,3.0594 -23.0403,9.1783 -6.1942,6.1188 -9.6315,14.3152 -10.3113,24.5888 z M 536.3271,466.5609 V 303.8443 h 18.1299 v 15.4482 c 4.2681,-5.9678 9.1029,-10.4627 14.504,-13.4464 5.3634,-2.9841 11.8979,-4.4946 19.5653,-4.4946 10.0471,0 18.8855,2.5682 26.553,7.7428 7.6674,5.1369 13.4464,12.4265 17.3744,21.7939 3.8905,9.4048 5.8546,19.6784 5.8546,30.8965 0,11.9733 -2.1529,22.7758 -6.459,32.4074 -4.3058,9.5935 -10.5758,16.9591 -18.8098,22.0957 -8.1961,5.0993 -16.8458,7.6675 -25.9107,7.6675 -6.6475,0 -12.6153,-1.3975 -17.8656,-4.1925 -5.2878,-2.7949 -9.5939,-6.3076 -12.9932,-10.5757 v 57.3738 z M 554.457,363.371 c 0,15.0706 3.0594,26.2131 9.1406,33.4272 6.1188,7.2142 13.5221,10.8403 22.2091,10.8403 8.8385,0 16.3928,-3.7395 22.6627,-11.2181 6.3077,-7.4787 9.4425,-19.0364 9.4425,-34.7114 0,-14.9573 -3.0594,-26.1374 -9.216,-33.5781 -6.1565,-7.4409 -13.4841,-11.1424 -22.0203,-11.1424 -8.4606,0 -15.9393,3.966 -22.436,11.8599 -6.5341,7.9319 -9.7826,19.4142 -9.7826,34.5226 z m 151.1966,40.3015 2.7195,17.6012 c -5.5902,1.1707 -10.6137,1.7751 -14.995,1.7751 -7.2144,0 -12.8043,-1.1331 -16.808,-3.4371 -3.9659,-2.304 -6.7612,-5.288 -8.3852,-9.0272 -1.6242,-3.7394 -2.4173,-11.5956 -2.4173,-23.5689 V 319.2548 H 651.037 v -15.4105 h 14.7306 v -29.0835 l 19.9428,-11.9736 v 41.0571 h 19.9432 v 15.4105 h -19.9432 v 68.8938 c 0,5.7033 0.3402,9.3671 1.0576,10.9913 0.6801,1.6243 1.8131,2.9084 3.3996,3.8903 1.5863,0.9445 3.8526,1.4355 6.7986,1.4355 2.1907,0 5.099,-0.2645 8.6874,-0.7932 z" />
</svg>
