<?xml version="1.0" encoding="UTF-8" standalone="no"?>
<svg
   xmlns:dc="http://purl.org/dc/elements/1.1/"
   xmlns:cc="http://creativecommons.org/ns#"
   xmlns:rdf="http://www.w3.org/1999/02/22-rdf-syntax-ns#"
   xmlns:svg="http://www.w3.org/2000/svg"
   xmlns="http://www.w3.org/2000/svg"
   xmlns:sodipodi="http://sodipodi.sourceforge.net/DTD/sodipodi-0.dtd"
   xmlns:inkscape="http://www.inkscape.org/namespaces/inkscape"
   inkscape:version="1.0 (4035a4fb49, 2020-05-01)"
   sodipodi:docname="1.svg"
   viewBox="0 0 725.66931 725.66931"
   id="svg4"
   height=""
   width=""
   version="1.1">
  <metadata
     id="metadata10">
    <rdf:RDF>
      <cc:Work
         rdf:about="">
        <dc:format>image/svg+xml</dc:format>
        <dc:type
           rdf:resource="http://purl.org/dc/dcmitype/StillImage" />
        <dc:title></dc:title>
      </cc:Work>
    </rdf:RDF>
  </metadata>
  <defs
     id="defs8" />
  <sodipodi:namedview
     inkscape:current-layer="svg4"
     inkscape:window-maximized="0"
     inkscape:window-y="0"
     inkscape:window-x="0"
     inkscape:cy="362.83466"
     inkscape:cx="362.83466"
     inkscape:zoom="0.79650605"
     showgrid="false"
     id="namedview6"
     inkscape:window-height="480"
     inkscape:window-width="881"
     inkscape:pageshadow="2"
     inkscape:pageopacity="0"
     guidetolerance="10"
     gridtolerance="10"
     objecttolerance="10"
     borderopacity="1"
     bordercolor="#666666"
     pagecolor="#ffffff" />
  <path
     id="path2"
     style="fill:#ffffff;fill-rule:evenodd;stroke:#ffffff;stroke-width:4;stroke-linecap:butt;stroke-linejoin:miter;stroke-dasharray:none"
     d="m 101.7575,159.3215 11.7051,-1.0522 c 0.548,4.7347 1.8411,8.6145 3.8798,11.6615 2.0384,3.0248 5.1951,5.4799 9.4694,7.3649 4.2744,1.8633 9.0967,2.8058 14.4451,2.8058 4.7565,0 8.9433,-0.7013 12.5819,-2.1263 3.6388,-1.4247 6.3348,-3.3755 8.1105,-5.8524 1.7753,-2.4769 2.6742,-5.1732 2.6742,-8.0665 0,-2.9373 -0.855,-5.5018 -2.5648,-7.716 -1.7096,-2.1917 -4.5374,-4.0331 -8.483,-5.5457 -2.5206,-0.9643 -8.1102,-2.4987 -16.7686,-4.581 -8.6582,-2.0824 -14.7081,-4.0332 -18.1715,-5.8745 -4.4935,-2.3675 -7.8253,-5.3045 -10.0174,-8.79 -2.2138,-3.4852 -3.3097,-7.4089 -3.3097,-11.7269 0,-4.7787 1.3589,-9.2282 4.055,-13.3492 2.6963,-4.1429 6.62,-7.2774 11.8148,-9.4255 5.1732,-2.1481 10.938,-3.2221 17.2729,-3.2221 6.9704,0 13.1301,1.1177 18.4564,3.3755 5.3265,2.2359 9.4254,5.5457 12.2969,9.9297 2.8715,4.362 4.4059,9.3158 4.6253,14.8397 l -11.9684,0.9207 c -0.6355,-5.9403 -2.8057,-10.4338 -6.5101,-13.4589 -3.7046,-3.0467 -9.1845,-4.5593 -16.4179,-4.5593 -7.5405,0 -13.0423,1.3811 -16.4838,4.1429 -3.4413,2.7617 -5.1729,6.0936 -5.1729,9.9955 0,3.3755 1.2274,6.1594 3.6606,8.3514 2.4112,2.1699 8.6582,4.4277 18.7852,6.7074 10.1271,2.3017 17.0756,4.2961 20.8457,6.006 5.4581,2.5209 9.5131,5.6991 12.1218,9.5788 2.6085,3.858 3.9016,8.3078 3.9016,13.3492 0,5.0196 -1.4247,9.7107 -4.2962,14.1384 -2.8715,4.4277 -6.9706,7.8693 -12.3409,10.3241 -5.3705,2.455 -11.3984,3.6827 -18.1278,3.6827 -8.5048,0 -15.6288,-1.2495 -21.3716,-3.7264 -5.7651,-2.4769 -10.2585,-6.2033 -13.5246,-11.2011 -3.2879,-4.9757 -4.9978,-10.6092 -5.173,-16.9002 z m 136.9109,8.1542 11.9681,1.5783 c -1.8632,6.9486 -5.3484,12.3628 -10.4337,16.1986 -5.0854,3.8361 -11.5736,5.7651 -19.4868,5.7651 -9.9516,0 -17.8427,-3.0688 -23.6733,-9.2064 -5.8308,-6.1157 -8.746,-14.7302 -8.746,-25.7995 0,-11.4423 2.9373,-20.3417 8.8336,-26.6544 5.8964,-6.3349 13.5465,-9.4916 22.9502,-9.4916 9.0966,0 16.5274,3.0909 22.2922,9.2943 5.7651,6.203 8.6584,14.9272 8.6584,26.172 0,0.6797 -0.0218,1.7098 -0.0657,3.0688 h -50.832 c 0.4385,7.4746 2.5426,13.2176 6.3566,17.1853 3.7922,3.9673 8.5488,5.9621 14.226,5.9621 4.2307,0 7.8474,-1.118 10.8283,-3.3537 3.0031,-2.236 5.3706,-5.8087 7.1241,-10.7189 z m -37.8774,-18.544 h 38.0089 c -0.5043,-5.743 -1.9729,-10.0394 -4.3619,-12.9109 -3.6607,-4.4496 -8.4394,-6.6856 -14.2918,-6.6856 -5.3047,0 -9.7543,1.7757 -13.3713,5.3266 -3.5946,3.551 -5.5893,8.3075 -5.9839,14.2699 z m 64.203,40.6392 V 95.4034 h 11.5736 v 94.1675 z m 76.0397,-22.0952 11.9681,1.5783 c -1.8632,6.9486 -5.3484,12.3628 -10.4337,16.1986 -5.0854,3.8361 -11.5736,5.7651 -19.4868,5.7651 -9.9516,0 -17.8427,-3.0688 -23.6733,-9.2064 -5.8308,-6.1157 -8.746,-14.7302 -8.746,-25.7995 0,-11.4423 2.9373,-20.3417 8.8336,-26.6544 5.8964,-6.3349 13.5465,-9.4916 22.9502,-9.4916 9.0966,0 16.5274,3.0909 22.2922,9.2943 5.7651,6.203 8.6584,14.9272 8.6584,26.172 0,0.6797 -0.0218,1.7098 -0.0658,3.0688 h -50.832 c 0.4386,7.4746 2.5427,13.2176 6.3567,17.1853 3.7922,3.9673 8.5488,5.9621 14.226,5.9621 4.2307,0 7.8474,-1.118 10.8283,-3.3537 3.0031,-2.236 5.3706,-5.8087 7.1241,-10.7189 z m -37.8774,-18.544 h 38.0089 c -0.5043,-5.743 -1.9729,-10.0394 -4.362,-12.9109 -3.6606,-4.4496 -8.4393,-6.6856 -14.2917,-6.6856 -5.3047,0 -9.7543,1.7757 -13.3713,5.3266 -3.5946,3.551 -5.5893,8.3075 -5.9839,14.2699 z m 109.0508,15.6507 11.3108,1.5783 c -1.2495,7.7814 -4.4059,13.8532 -9.5134,18.2591 -5.1071,4.4059 -11.3981,6.5979 -18.8291,6.5979 -9.3158,0 -16.8123,-3.047 -22.4677,-9.1406 -5.6772,-6.0936 -8.5048,-14.8178 -8.5048,-26.1723 0,-7.365 1.2274,-13.7874 3.6607,-19.3113 2.433,-5.502 6.1373,-9.6449 11.135,-12.3848 4.976,-2.7618 10.3902,-4.1429 16.2647,-4.1429 7.3868,0 13.4586,1.8632 18.1494,5.6115 4.7128,3.7485 7.7377,9.0748 9.053,15.9576 l -11.179,1.7099 c -1.0741,-4.5814 -2.9594,-8.0226 -5.6994,-10.3462 -2.7178,-2.3014 -6.006,-3.4634 -9.8637,-3.4634 -5.8308,0 -10.5656,2.0824 -14.2259,6.2473 -3.6389,4.1865 -5.4581,10.7626 -5.4581,19.7935 0,9.1624 1.7535,15.8043 5.2608,19.9471 3.5291,4.1429 8.1102,6.2252 13.7435,6.2252 4.5595,0 8.3517,-1.3811 11.3765,-4.1647 3.0467,-2.7621 4.9757,-7.0364 5.7867,-12.8012 z m 46.2949,14.6642 1.5783,10.2146 c -3.2443,0.6797 -6.1597,1.0304 -8.7024,1.0304 -4.1865,0 -7.4307,-0.6576 -9.7543,-1.9947 -2.3014,-1.3372 -3.9234,-3.0688 -4.8662,-5.239 -0.9425,-2.17 -1.4029,-6.7292 -1.4029,-13.6778 v -39.3242 h -8.5484 v -8.9433 h 8.5484 v -16.8783 l 11.5739,-6.9486 v 23.8269 h 11.5736 v 8.9433 h -11.5736 v 39.9819 c 0,3.3097 0.1973,5.436 0.6137,6.3785 0.3946,0.9425 1.0522,1.6877 1.9726,2.2578 0.9207,0.5479 2.236,0.8328 3.9458,0.8328 1.2714,0 2.9591,-0.1534 5.0415,-0.4603 z m 11.4202,-70.6913 V 95.4034 h 11.5735 v 13.1519 z m 0,81.0156 v -68.2583 h 11.5735 v 68.2583 z m 47.8726,0 -25.7556,-68.2583 h 12.3846 l 14.5987,40.8804 c 1.578,4.4059 3.0467,8.9873 4.3838,13.7438 1.0304,-3.5949 2.4551,-7.9132 4.3183,-12.9764 l 15.1684,-41.6478 h 11.8806 l -25.8435,68.2583 z m 93.6635,-22.0952 11.9682,1.5783 c -1.8633,6.9486 -5.3485,12.3628 -10.4338,16.1986 -5.0854,3.8361 -11.5736,5.7651 -19.4868,5.7651 -9.9516,0 -17.8427,-3.0688 -23.6732,-9.2064 -5.8309,-6.1157 -8.7461,-14.7302 -8.7461,-25.7995 0,-11.4423 2.9373,-20.3417 8.8337,-26.6544 5.8963,-6.3349 13.5464,-9.4916 22.9501,-9.4916 9.0967,0 16.5274,3.0909 22.2922,9.2943 5.7651,6.203 8.6584,14.9272 8.6584,26.172 0,0.6797 -0.0218,1.7098 -0.0657,3.0688 h -50.832 c 0.4385,7.4746 2.5427,13.2176 6.3567,17.1853 3.7922,3.9673 8.5487,5.9621 14.2259,5.9621 4.2307,0 7.8475,-1.118 10.8284,-3.3537 3.003,-2.236 5.3705,-5.8087 7.124,-10.7189 z m -37.8774,-18.544 h 38.0089 c -0.5043,-5.743 -1.9729,-10.0394 -4.3619,-12.9109 -3.6607,-4.4496 -8.4393,-6.6856 -14.2917,-6.6856 -5.3048,0 -9.7543,1.7757 -13.3713,5.3266 -3.5947,3.551 -5.5894,8.3075 -5.984,14.2699 z M 182.5758,336.4994 v -94.1675 h 32.4411 c 7.3214,0 12.911,0.4385 16.7687,1.3371 5.3923,1.2495 9.9955,3.5073 13.8095,6.7513 4.976,4.2086 8.6803,9.557 11.1354,16.0891 2.4769,6.5322 3.7043,14.0069 3.7043,22.4022 0,7.1459 -0.8328,13.4805 -2.4988,19.0043 -1.6659,5.5239 -3.814,10.105 -6.4224,13.722 -2.6306,3.6167 -5.48,6.4661 -8.5927,8.5266 -3.0906,2.0823 -6.8389,3.6607 -11.2229,4.7347 -4.4059,1.0741 -9.4473,1.6002 -15.1467,1.6002 z m 12.4943,-11.0475 h 20.0784 c 6.2033,0 11.0695,-0.57 14.5987,-1.7317 3.5291,-1.1619 6.3348,-2.7839 8.439,-4.8883 2.9373,-2.9591 5.239,-6.9486 6.8828,-11.9461 1.6441,-4.9977 2.4769,-11.0477 2.4769,-18.1715 0,-9.864 -1.622,-17.4483 -4.8441,-22.7528 -3.2221,-5.3045 -7.1459,-8.8557 -11.7709,-10.6532 -3.3318,-1.2932 -8.7023,-1.9287 -16.1112,-1.9287 h -19.7496 z m 127.5951,-11.0477 11.9681,1.5783 c -1.8632,6.9486 -5.3484,12.3627 -10.4337,16.1986 -5.0854,3.8361 -11.5736,5.7651 -19.4868,5.7651 -9.9516,0 -17.8427,-3.0688 -23.6733,-9.2064 -5.8308,-6.1157 -8.746,-14.7302 -8.746,-25.7995 0,-11.4423 2.9373,-20.3417 8.8336,-26.6545 5.8964,-6.3348 13.5465,-9.4915 22.9502,-9.4915 9.0966,0 16.5274,3.0909 22.2922,9.2942 5.7651,6.2031 8.6584,14.9273 8.6584,26.172 0,0.6798 -0.0218,1.7099 -0.0658,3.0688 h -50.832 c 0.4386,7.4747 2.5427,13.2177 6.3567,17.1853 3.7922,3.9674 8.5488,5.9622 14.226,5.9622 4.2307,0 7.8474,-1.118 10.8283,-3.3537 3.0031,-2.236 5.3706,-5.8088 7.1241,-10.7189 z m -37.8774,-18.544 h 38.0089 c -0.5043,-5.743 -1.9729,-10.0395 -4.362,-12.911 -3.6606,-4.4495 -8.4393,-6.6855 -14.2917,-6.6855 -5.3047,0 -9.7543,1.7756 -13.3713,5.3266 -3.5946,3.551 -5.5893,8.3075 -5.9839,14.2699 z m 64.203,40.6392 v -94.1675 h 11.5736 v 94.1675 z m 76.0397,-22.0952 11.9681,1.5783 c -1.8632,6.9486 -5.3484,12.3627 -10.4337,16.1986 -5.0854,3.8361 -11.5736,5.7651 -19.4868,5.7651 -9.9516,0 -17.8427,-3.0688 -23.6733,-9.2064 -5.8308,-6.1157 -8.746,-14.7302 -8.746,-25.7995 0,-11.4423 2.9373,-20.3417 8.8336,-26.6545 5.8964,-6.3348 13.5465,-9.4915 22.9502,-9.4915 9.0966,0 16.5274,3.0909 22.2922,9.2942 5.7651,6.2031 8.6584,14.9273 8.6584,26.172 0,0.6798 -0.0218,1.7099 -0.0658,3.0688 h -50.832 c 0.4386,7.4747 2.5427,13.2177 6.3567,17.1853 3.7922,3.9674 8.5488,5.9622 14.226,5.9622 4.2307,0 7.8474,-1.118 10.8283,-3.3537 3.003,-2.236 5.3705,-5.8088 7.1241,-10.7189 z m -37.8774,-18.544 h 38.0089 c -0.5043,-5.743 -1.9729,-10.0395 -4.362,-12.911 -3.6606,-4.4495 -8.4393,-6.6855 -14.2917,-6.6855 -5.3047,0 -9.7543,1.7756 -13.3713,5.3266 -3.5946,3.551 -5.5893,8.3075 -5.9839,14.2699 z m 89.5861,30.3148 1.5783,10.2147 c -3.2442,0.6797 -6.1596,1.0304 -8.7023,1.0304 -4.1865,0 -7.4308,-0.6577 -9.7543,-1.9948 -2.3015,-1.3371 -3.9235,-3.0688 -4.8663,-5.239 -0.9425,-2.1699 -1.4028,-6.7291 -1.4028,-13.6777 v -39.3242 h -8.5485 v -8.9433 h 8.5485 v -16.8783 l 11.5738,-6.9486 v 23.8269 h 11.5736 v 8.9433 h -11.5736 v 39.9818 c 0,3.3098 0.1973,5.436 0.6137,6.3786 0.3946,0.9425 1.0523,1.6877 1.9727,2.2578 0.9207,0.5479 2.2359,0.8328 3.9458,0.8328 1.2713,0 2.9591,-0.1534 5.0414,-0.4604 z m 57.9779,-11.7708 11.9681,1.5783 c -1.8632,6.9486 -5.3484,12.3627 -10.4337,16.1986 -5.0854,3.8361 -11.5736,5.7651 -19.4868,5.7651 -9.9516,0 -17.8427,-3.0688 -23.6733,-9.2064 -5.8308,-6.1157 -8.746,-14.7302 -8.746,-25.7995 0,-11.4423 2.9373,-20.3417 8.8336,-26.6545 5.8964,-6.3348 13.5465,-9.4915 22.9502,-9.4915 9.0966,0 16.5274,3.0909 22.2922,9.2942 5.7651,6.2031 8.6584,14.9273 8.6584,26.172 0,0.6798 -0.0218,1.7099 -0.0658,3.0688 h -50.832 c 0.4386,7.4747 2.5427,13.2177 6.3567,17.1853 3.7922,3.9674 8.5488,5.9622 14.226,5.9622 4.2307,0 7.8474,-1.118 10.8283,-3.3537 3.0031,-2.236 5.3706,-5.8088 7.1241,-10.7189 z m -37.8774,-18.544 h 38.0089 c -0.5043,-5.743 -1.9729,-10.0395 -4.362,-12.911 -3.6606,-4.4495 -8.4393,-6.6855 -14.2917,-6.6855 -5.3047,0 -9.7543,1.7756 -13.3713,5.3266 -3.5946,3.551 -5.5893,8.3075 -5.9839,14.2699 z m -263.147,187.5676 v -94.1675 h 12.801 l 49.4073,73.9137 v -73.9137 h 11.9682 v 94.1675 h -12.801 l -49.4073,-73.9136 v 73.9136 z m 95.11,0 v -94.1675 h 35.5539 c 6.247,0 11.0256,0.307 14.3356,0.8989 4.625,0.7671 8.5048,2.2357 11.6394,4.3838 3.1345,2.1702 5.6551,5.195 7.5622,9.0748 1.9072,3.8798 2.8497,8.1542 2.8497,12.8231 0,7.979 -2.5427,14.7521 -7.6501,20.276 -5.0854,5.5457 -14.3136,8.3074 -27.641,8.3074 H 341.297 v 38.4035 z m 12.4943,-49.4509 h 24.3309 c 8.0666,0 13.7656,-1.4908 17.1632,-4.4938 3.3755,-3.003 5.0635,-7.2116 5.0635,-12.6694 0,-3.9237 -0.9864,-7.2995 -2.9812,-10.1053 -1.9947,-2.8057 -4.625,-4.6686 -7.8692,-5.5675 -2.1042,-0.5479 -5.9839,-0.8328 -11.6175,-0.8328 H 341.297 Z m 142.3032,16.4177 12.4943,3.1566 c -2.6085,10.2365 -7.2993,18.0179 -14.0726,23.3884 -6.7731,5.3703 -15.0588,8.0666 -24.857,8.0666 -10.1271,0 -18.3688,-2.0605 -24.7255,-6.2034 -6.3567,-4.121 -11.1793,-10.1052 -14.489,-17.9305 -3.3101,-7.8472 -4.976,-16.2425 -4.976,-25.2295 0,-9.7982 1.8632,-18.347 5.6115,-25.6462 3.7485,-7.2995 9.0748,-12.8452 15.9797,-16.6371 6.9047,-3.7922 14.5109,-5.6772 22.7965,-5.6772 9.4255,0 17.3387,2.389 23.7391,7.1895 6.4227,4.8005 10.8941,11.5299 13.4149,20.2102 l -12.2312,2.8933 c -2.1699,-6.8389 -5.3484,-11.8366 -9.4912,-14.9493 -4.1429,-3.1346 -9.3597,-4.6908 -15.6507,-4.6908 -7.2116,0 -13.2616,1.7317 -18.1057,5.195 -4.8444,3.4634 -8.2639,8.1324 -10.2147,13.9629 -1.9729,5.8524 -2.9593,11.8806 -2.9593,18.0839 0,8.0005 1.1619,14.993 3.4855,20.9552 2.3232,5.9842 5.9402,10.434 10.8501,13.3931 4.9102,2.9591 10.2147,4.4277 15.9358,4.4277 6.9704,0 12.845,-2.0166 17.6673,-6.0279 4.8223,-4.0331 8.0883,-9.9955 9.7982,-17.9305 z M 176.3504,584.5221 c 0,-15.607 4.2086,-27.8382 12.6037,-36.6718 8.3953,-8.8336 19.2237,-13.2395 32.5071,-13.2395 8.7021,0 16.5274,2.0823 23.5199,6.2251 6.9704,4.1429 12.297,9.9295 15.9577,17.3605 3.6606,7.409 5.5017,15.8262 5.5017,25.2295 0,9.5352 -1.9289,18.0839 -5.7866,25.6025 -3.858,7.5405 -9.3161,13.2395 -16.3741,17.0975 -7.0801,3.8798 -14.7084,5.8087 -22.8843,5.8087 -8.8776,0 -16.7905,-2.1483 -23.783,-6.4227 -6.9707,-4.2744 -12.2751,-10.1049 -15.87,-17.5139 -3.5949,-7.3868 -5.3921,-15.2121 -5.3921,-23.4759 z m 12.8886,0.2191 c 0,11.3326 3.0469,20.2538 9.1406,26.7642 6.0939,6.51 13.7437,9.7761 22.9501,9.7761 9.3815,0 17.0756,-3.2879 23.1472,-9.864 6.0499,-6.5758 9.0748,-15.9137 9.0748,-28.0134 0,-7.6499 -1.2932,-14.3357 -3.8798,-20.0347 -2.5863,-5.6991 -6.3785,-10.1268 -11.3545,-13.2613 -4.9977,-3.1346 -10.5871,-4.7129 -16.7904,-4.7129 -8.8118,0 -16.3962,3.0248 -22.7529,9.0748 -6.3567,6.0497 -9.5351,16.1328 -9.5351,30.2712 z m 91.7784,45.6151 V 562.098 h 10.3901 v 9.6886 c 4.9975,-7.4308 12.2312,-11.1354 21.6785,-11.1354 4.1211,0 7.8911,0.7456 11.3327,2.2142 3.4412,1.4686 6.0279,3.4194 7.7377,5.8087 1.7096,2.3891 2.9152,5.2388 3.5946,8.5267 0.4167,2.1481 0.6358,5.8963 0.6358,11.245 v 41.9105 H 324.8133 V 588.884 c 0,-4.7126 -0.4386,-8.2417 -1.3371,-10.5653 -0.8989,-2.3235 -2.4991,-4.1867 -4.7787,-5.5896 -2.2796,-1.3808 -4.9756,-2.0823 -8.0444,-2.0823 -4.9102,0 -9.1406,1.5562 -12.7137,4.6907 -3.5728,3.1128 -5.3484,9.0531 -5.3484,17.777 v 37.2418 z m 64.4661,1.5783 27.356,-97.3238 h 9.3158 l -27.356,97.3238 z m 42.8533,-47.4125 c 0,-15.607 4.2086,-27.8382 12.6037,-36.6718 8.3954,-8.8336 19.2237,-13.2395 32.5072,-13.2395 8.702,0 16.5274,2.0823 23.5199,6.2251 6.9704,4.1429 12.2969,9.9295 15.9576,17.3605 3.6607,7.409 5.5018,15.8262 5.5018,25.2295 0,9.5352 -1.929,18.0839 -5.7867,25.6025 -3.8579,7.5405 -9.316,13.2395 -16.374,17.0975 -7.0801,3.8798 -14.7084,5.8087 -22.8844,5.8087 -8.8776,0 -16.7905,-2.1483 -23.783,-6.4227 -6.9706,-4.2744 -12.2751,-10.1049 -15.87,-17.5139 -3.5949,-7.3868 -5.3921,-15.2121 -5.3921,-23.4759 z m 12.8886,0.2191 c 0,11.3326 3.0469,20.2538 9.1406,26.7642 6.0939,6.51 13.7438,9.7761 22.9501,9.7761 9.3816,0 17.0756,-3.2879 23.1472,-9.864 6.05,-6.5758 9.0748,-15.9137 9.0748,-28.0134 0,-7.6499 -1.2932,-14.3357 -3.8798,-20.0347 -2.5863,-5.6991 -6.3785,-10.1268 -11.3544,-13.2613 -4.9978,-3.1346 -10.5871,-4.7129 -16.7905,-4.7129 -8.8118,0 -16.3961,3.0248 -22.7528,9.0748 -6.3567,6.0497 -9.5352,16.1328 -9.5352,30.2712 z m 94.5402,45.6151 v -59.3149 h -10.2583 v -8.9434 h 10.2583 v -7.2334 c 0,-4.5814 0.3946,-7.979 1.2056,-10.1928 1.118,-2.9809 3.047,-5.4142 5.8527,-7.2774 2.7839,-1.8632 6.7073,-2.7836 11.749,-2.7836 3.2661,0 6.861,0.3943 10.8066,1.1616 l -1.7317,10.1271 c -2.4112,-0.4167 -4.669,-0.6358 -6.8171,-0.6358 -3.5073,0 -5.9842,0.7452 -7.4528,2.2359 -1.4468,1.4905 -2.1699,4.2744 -2.1699,8.3515 v 6.2469 h 13.2831 v 8.9434 h -13.1516 v 59.3149 z m 34.1731,0 v -59.3149 h -10.2583 v -8.9434 h 10.2583 v -7.2334 c 0,-4.5814 0.3946,-7.979 1.2056,-10.1928 1.118,-2.9809 3.0469,-5.4142 5.8527,-7.2774 2.7839,-1.8632 6.7073,-2.7836 11.749,-2.7836 3.2661,0 6.861,0.3943 10.8065,1.1616 l -1.7316,10.1271 c -2.4112,-0.4167 -4.669,-0.6358 -6.8171,-0.6358 -3.5073,0 -5.9842,0.7452 -7.4528,2.2359 -1.4468,1.4905 -2.17,4.2744 -2.17,8.3515 v 6.2469 h 13.2832 v 8.9434 h -13.1516 v 59.3149 z" />
</svg>
