<?xml version="1.0" encoding="UTF-8" standalone="no"?>
<svg
   xmlns:dc="http://purl.org/dc/elements/1.1/"
   xmlns:cc="http://creativecommons.org/ns#"
   xmlns:rdf="http://www.w3.org/1999/02/22-rdf-syntax-ns#"
   xmlns:svg="http://www.w3.org/2000/svg"
   xmlns="http://www.w3.org/2000/svg"
   xmlns:sodipodi="http://sodipodi.sourceforge.net/DTD/sodipodi-0.dtd"
   xmlns:inkscape="http://www.inkscape.org/namespaces/inkscape"
   inkscape:version="1.0 (4035a4fb49, 2020-05-01)"
   sodipodi:docname="3.svg"
   viewBox="0 0 7256.6929 7256.6929"
   id="svg50"
   height=""
   width=""
   version="1.1">
  <metadata
     id="metadata56">
    <rdf:RDF>
      <cc:Work
         rdf:about="">
        <dc:format>image/svg+xml</dc:format>
        <dc:type
           rdf:resource="http://purl.org/dc/dcmitype/StillImage" />
        <dc:title></dc:title>
      </cc:Work>
    </rdf:RDF>
  </metadata>
  <defs
     id="defs54" />
  <sodipodi:namedview
     inkscape:current-layer="svg50"
     inkscape:window-maximized="0"
     inkscape:window-y="0"
     inkscape:window-x="0"
     inkscape:cy="3628.3464"
     inkscape:cx="3628.3464"
     inkscape:zoom="0.034097919"
     showgrid="false"
     id="namedview52"
     inkscape:window-height="480"
     inkscape:window-width="820"
     inkscape:pageshadow="2"
     inkscape:pageopacity="0"
     guidetolerance="10"
     gridtolerance="10"
     objecttolerance="10"
     borderopacity="1"
     bordercolor="#666666"
     pagecolor="#ffffff" />
  <path
     id="path2"
     style="fill:#4b4a4f;fill-rule:evenodd;stroke:#1b1918;stroke-width:0.5669;stroke-linecap:butt;stroke-linejoin:miter;stroke-dasharray:none"
     d="M -1e-4,0 V 7256.693 H 7256.693 V 0 Z" />
  <path
     id="path4"
     style="fill:#ff8080;fill-rule:evenodd;stroke:#1b1918;stroke-width:50;stroke-linecap:butt;stroke-linejoin:miter;stroke-dasharray:none;stroke-miterlimit:4"
     d="M 1727.3568,1210.2194 H 5627.281 c 204.4435,0 371.7159,167.2727 371.7159,371.7158 v 3899.9243 c 0,204.4434 -167.2724,371.7158 -371.7159,371.7158 H 1727.3568 c -204.4431,0 -371.7159,-167.2724 -371.7159,-371.7158 V 1581.9352 c 0,-204.4431 167.2728,-371.7158 371.7159,-371.7158 z" />
  <path
     id="path6"
     style="fill:#ff8080;fill-rule:evenodd;stroke:#1b1918;stroke-width:50;stroke-linecap:butt;stroke-linejoin:miter;stroke-dasharray:none;stroke-miterlimit:4"
     d="m 2507.3416,2138.8907 h 2339.9547 c 122.6658,0 223.0293,100.3634 223.0293,223.0293 v 2339.9547 c 0,122.6659 -100.3635,223.0293 -223.0293,223.0293 H 2507.3416 c -122.6659,0 -223.0293,-100.3634 -223.0293,-223.0293 V 2361.92 c 0,-122.6659 100.3634,-223.0293 223.0293,-223.0293 z" />
  <path
     id="path8"
     style="fill:none;stroke:#1b1918;stroke-width:50;stroke-linecap:butt;stroke-linejoin:miter;stroke-dasharray:none;stroke-miterlimit:4"
     d="M 2507.3399,1210.2193 V 281.5481" />
  <path
     id="path10"
     style="fill:none;stroke:#1b1918;stroke-width:50;stroke-linecap:butt;stroke-linejoin:miter;stroke-dasharray:none;stroke-miterlimit:4"
     d="M 4847.298,1210.2193 V 281.5481" />
  <path
     id="path12"
     style="fill:none;stroke:#1b1918;stroke-width:50;stroke-linecap:butt;stroke-linejoin:miter;stroke-dasharray:none;stroke-miterlimit:4"
     d="M 3064.5427,1210.2193 V 281.5481" />
  <path
     id="path14"
     style="fill:none;stroke:#1b1918;stroke-width:50;stroke-linecap:butt;stroke-linejoin:miter;stroke-dasharray:none;stroke-miterlimit:4"
     d="M 4290.0953,1210.2193 V 281.5481" />
  <path
     id="path16"
     style="fill:none;stroke:#1b1918;stroke-width:50;stroke-linecap:butt;stroke-linejoin:miter;stroke-dasharray:none;stroke-miterlimit:4"
     d="M 3677.319,1210.2193 V 281.5481" />
  <path
     id="path18"
     style="fill:none;stroke:#1b1918;stroke-width:50;stroke-linecap:butt;stroke-linejoin:miter;stroke-dasharray:none;stroke-miterlimit:4"
     d="m 5998.9971,4701.8764 h 928.6712" />
  <path
     id="path20"
     style="fill:none;stroke:#1b1918;stroke-width:50;stroke-linecap:butt;stroke-linejoin:miter;stroke-dasharray:none;stroke-miterlimit:4"
     d="m 5998.997,2361.9184 h 928.6713" />
  <path
     id="path22"
     style="fill:none;stroke:#1b1918;stroke-width:50;stroke-linecap:butt;stroke-linejoin:miter;stroke-dasharray:none;stroke-miterlimit:4"
     d="m 5998.9971,4144.6737 h 928.6712" />
  <path
     id="path24"
     style="fill:none;stroke:#1b1918;stroke-width:50;stroke-linecap:butt;stroke-linejoin:miter;stroke-dasharray:none;stroke-miterlimit:4"
     d="m 5998.9971,2919.1211 h 928.6712" />
  <path
     id="path26"
     style="fill:none;stroke:#1b1918;stroke-width:50;stroke-linecap:butt;stroke-linejoin:miter;stroke-dasharray:none;stroke-miterlimit:4"
     d="m 5998.9971,3531.8974 h 928.6712" />
  <path
     id="path28"
     style="fill:none;stroke:#1b1918;stroke-width:50;stroke-linecap:butt;stroke-linejoin:miter;stroke-dasharray:none;stroke-miterlimit:4"
     d="m 426.9696,4701.8764 h 928.6713" />
  <path
     id="path30"
     style="fill:none;stroke:#1b1918;stroke-width:50;stroke-linecap:butt;stroke-linejoin:miter;stroke-dasharray:none;stroke-miterlimit:4"
     d="m 426.9696,2361.9184 h 928.6713" />
  <path
     id="path32"
     style="fill:none;stroke:#1b1918;stroke-width:50;stroke-linecap:butt;stroke-linejoin:miter;stroke-dasharray:none;stroke-miterlimit:4"
     d="m 426.9696,4144.6737 h 928.6713" />
  <path
     id="path34"
     style="fill:none;stroke:#1b1918;stroke-width:50;stroke-linecap:butt;stroke-linejoin:miter;stroke-dasharray:none;stroke-miterlimit:4"
     d="m 426.9696,2919.1211 h 928.6713" />
  <path
     id="path36"
     style="fill:none;stroke:#1b1918;stroke-width:50;stroke-linecap:butt;stroke-linejoin:miter;stroke-dasharray:none;stroke-miterlimit:4"
     d="m 426.9696,3531.8974 h 928.6713" />
  <path
     id="path38"
     style="fill:none;stroke:#1b1918;stroke-width:50;stroke-linecap:butt;stroke-linejoin:miter;stroke-dasharray:none;stroke-miterlimit:4"
     d="M 2507.3399,6782.2467 V 5853.5755" />
  <path
     id="path40"
     style="fill:none;stroke:#1b1918;stroke-width:50;stroke-linecap:butt;stroke-linejoin:miter;stroke-dasharray:none;stroke-miterlimit:4"
     d="M 4847.298,6782.2468 V 5853.5755" />
  <path
     id="path42"
     style="fill:none;stroke:#1b1918;stroke-width:50;stroke-linecap:butt;stroke-linejoin:miter;stroke-dasharray:none;stroke-miterlimit:4"
     d="M 3064.5427,6782.2467 V 5853.5755" />
  <path
     id="path44"
     style="fill:none;stroke:#1b1918;stroke-width:50;stroke-linecap:butt;stroke-linejoin:miter;stroke-dasharray:none;stroke-miterlimit:4"
     d="M 4290.0953,6782.2467 V 5853.5755" />
  <path
     id="path46"
     style="fill:none;stroke:#1b1918;stroke-width:50;stroke-linecap:butt;stroke-linejoin:miter;stroke-dasharray:none;stroke-miterlimit:4"
     d="M 3677.319,6782.2467 V 5853.5755" />
  <path
     id="path48"
     style="fill:#ff8080;fill-rule:evenodd;stroke:#1b1918;stroke-width:50;stroke-linecap:butt;stroke-linejoin:miter;stroke-dasharray:none;stroke-miterlimit:4"
     d="m 4236.2422,3808.7779 c 0,117.3223 -34.7273,228.0744 -104.6515,332.7259 -64.7617,97.6121 -151.111,175.9833 -258.578,234.6446 -109.8136,61.4769 -226.1974,91.9805 -349.1513,91.9805 -160.4968,0 -282.9812,-33.7886 -367.4531,-101.8357 -38.4817,-30.0345 -57.7225,-63.3541 -57.7225,-99.0199 0,-23.9337 8.447,-45.521 25.3415,-65.2311 16.8945,-19.7102 37.5432,-29.5654 61.4769,-29.5654 28.1574,0 78.8406,26.2803 151.111,78.8406 l 151.5804,110.283 c 32.381,20.1793 76.0249,30.5036 132.3394,30.5036 152.0499,0 268.9027,-85.4104 349.6204,-255.7624 36.6046,-77.902 54.9068,-161.9047 54.9068,-252.9468 0,-99.4892 -25.8109,-187.2462 -76.9635,-262.3325 -57.7224,-86.349 -134.6859,-129.0544 -229.9515,-129.0544 -66.6391,0 -132.3394,24.8724 -196.632,75.5555 l -26.2803,-38.4817 c 94.3271,-79.7791 155.3346,-133.278 183.0229,-160.0277 71.3318,-66.6388 123.4227,-128.1157 156.2731,-184.4305 29.5651,-48.3367 44.1131,-97.6122 44.1131,-147.3568 0,-74.1475 -27.2186,-135.6245 -81.1868,-184.8997 -53.9683,-49.2755 -118.2609,-73.6784 -192.4087,-73.6784 -77.902,0 -152.519,28.1574 -224.32,84.9413 -62.8849,50.6832 -113.0986,114.0372 -149.7033,191.0007 l -50.6832,-20.6487 c 65.2312,-166.1284 167.5361,-283.4507 307.8536,-351.0283 67.1083,-31.9116 137.971,-47.8676 213.5265,-47.8676 144.5409,0 251.0697,51.6221 318.6473,155.3349 31.4422,48.8058 46.9287,101.3664 46.9287,158.1503 0,151.5804 -96.6733,283.9198 -290.0205,397.4879 l 5.6316,5.6313 c 13.6091,-1.8771 27.2185,-2.8156 41.2974,-2.8156 157.2117,0 275.0031,74.1475 352.9051,222.4428 39.4203,75.0864 59.1305,154.3961 59.1305,237.4603 z" />
</svg>
