<svg xmlns="http://www.w3.org/2000/svg" id="svg67" fill-rule="evenodd" clip-rule="evenodd" image-rendering="optimizeQuality" shape-rendering="geometricPrecision" text-rendering="geometricPrecision" version="1.1" viewBox="0 0 25600 25600" xml:space="preserve">
    <defs id="defs4">
        <style id="style2" type="text/css">
            .str1{stroke-opacity:.501961}.str0,.str1{stroke:#000;stroke-width:7.62;stroke-miterlimit:22.9256}.fil1{fill:none}.fil2{fill:#ff2a2a}.fil0{fill:#ff7f2a}.fil3,.fil4,.fil5{fill:#000;fill-opacity:.501961}.fil3,.fil4{fill:#fff}
        </style>
    </defs>
    <g id="Слой_x0020_1">
        <g id="_631713136">
            <path id="polygon7" fill="#ff7f2a" fill-opacity="1" stroke="#000" stroke-miterlimit="22.926" stroke-width="7.62" d="M10295.95 12505.27l3579.02-3579.02 300.24 294.76 1533.67-1545.43 340.34 340.33 3404.14-3404.14 1823.81 2449.2-4630.99 4631 327.39 327.4-431.3 431.3-246.43-246.43-2904.91 2904.91 246.43 246.43-263.29 263.29-340.82-340.83-1903.02 1903.02 385.91 385.92-7835.85 7835.86-1745.79-267.61-1478.29-1478.28-246.43-1724.62 7855.86-7855.85 621.17 621.17 1898.02-1898.02z" class="fil0 str0"/>
            <path id="line9" fill="none" stroke="#000" stroke-miterlimit="22.926" stroke-width="7.62" d="M10584.83 12799.63l2448.42 2478.41" class="fil1 str0"/>
            <path id="line11" fill="none" stroke="#000" stroke-miterlimit="22.926" stroke-width="7.62" d="M14175.21 9221.01l2470.97 2470.96" class="fil1 str0"/>
            <path id="polygon13" fill="#ff7f2a" stroke="#000" stroke-miterlimit="22.926" stroke-width="7.62" d="M17615.05 13523.44l-73.04 346.5-2473.71 2473.71-364.92 77.95-1312.45-1312.45 2904.91-2904.91z" class="fil0 str0"/>
            <path id="polygon15" fill="#ff7f2a" stroke="#000" stroke-miterlimit="22.926" stroke-width="7.62" d="M23415.54 860.92l868.78 3592.05-2807.57 2807.58-199.58-199.58-1823.81-2449.2-109.69-405.13 1919.19-1919.19-272.4-272.41 1789.6-1789.6z" class="fil0 str0"/>
            <path id="path17" fill="#ff2a2a" stroke="#000" stroke-miterlimit="22.926" stroke-width="7.62" d="M17572.79 4269.18l732.72-732.72c-447.57-475.61-1263.03 70.48-732.72 732.72z" class="fil2 str0"/>
            <path id="path19" fill="#ff2a2a" stroke="#000" stroke-miterlimit="22.926" stroke-width="7.62" d="M19252.12 2589.85l732.72-732.72c-447.57-475.61-1263.03 70.48-732.72 732.72z" class="fil2 str0"/>
            <path id="line21" fill="none" stroke="#000" stroke-miterlimit="22.926" stroke-width="7.62" d="M11130.23 17181.061L8666.81 14717.65" class="fil1 str0"/>
            <path id="line23" fill="none" stroke="#000" stroke-miterlimit="22.926" stroke-width="7.62" d="M209.78 21932.33l3470.51 3470.51" class="fil1 str0"/>
            <path id="path25" fill="#ff7f2a" stroke="#000" stroke-miterlimit="22.926" stroke-width="7.62" d="M970.72 22414.33l7556.92-7556.92c76.75-76.75 202.2-76.73 278.86-.08l.09.1c76.66 76.65 76.68 202.1-.08 278.85l-7556.92 7556.93c-76.75 76.75-202.2 76.73-278.85.08l-.1-.1c-76.66-76.66-76.68-202.11.08-278.86z" class="fil0 str0"/>
            <path id="path27" fill="#ff7f2a" stroke="#000" stroke-miterlimit="22.926" stroke-width="7.62" d="M1987.9 23431.52l7556.92-7556.93c76.76-76.75 202.21-76.73 278.86-.08l.1.1c76.65 76.66 76.67 202.11-.08 278.86l-7556.92 7556.92c-76.76 76.75-202.21 76.73-278.86.08l-.1-.1c-76.65-76.65-76.67-202.1.08-278.85z" class="fil0 str0"/>
            <path id="path29" fill="#ff7f2a" stroke="#000" stroke-miterlimit="22.926" stroke-width="7.62" d="M3514.71 24958.32l7556.92-7556.92c76.75-76.75 202.2-76.73 278.86-.08l.09.1c76.66 76.65 76.68 202.1-.08 278.85L3793.58 25237.2c-76.75 76.75-202.2 76.73-278.85.08l-.1-.1c-76.66-76.66-76.68-202.11.08-278.86z" class="fil0 str0"/>
            <path id="path31" fill="#ff7f2a" stroke="#000" stroke-miterlimit="22.926" stroke-width="7.62" d="M374.1 21817.81l7577.02-7577.01c76.64-76.65 202.15-76.69 278.8-.04l.1.1c76.66 76.66 76.62 202.17-.03 278.81L652.98 22096.69c-76.65 76.64-202.16 76.68-278.81.03l-.1-.1c-76.65-76.65-76.61-202.16.03-278.81z" class="fil0 str0"/>
            <path id="line33" fill="none" stroke="#000" stroke-miterlimit="22.926" stroke-width="7.62" d="M19411.6 4457.48l3800.25-3800.25" class="fil1 str0"/>
            <path id="line35" fill="none" stroke="#000" stroke-miterlimit="22.926" stroke-width="7.62" d="M21004.57 6694.86l3078.901-3078.9" class="fil1 str0"/>
            <path id="polygon37" fill="#fff" fill-opacity=".502" d="M1722.96 23363.61l585.32 585.32L20341.04 5916.16l-494.38-676.25z" class="fil3"/>
            <path id="polygon39" fill="#fff" fill-opacity=".502" stroke="#000" stroke-miterlimit="22.926" stroke-opacity=".502" stroke-width="7.62" d="M24083.47 3615.96l-667.93-2755.04-203.69-203.69-3800.25 3800.25 41.76 154.29 1551.21 2083.09z" class="fil3 str1"/>
            <path id="polygon41" fill="#fff" fill-opacity=".502" stroke="#000" stroke-miterlimit="22.926" stroke-opacity=".502" stroke-width="7.62" d="M17615.05 13523.44l-73.04 346.5-2473.71 2473.71-364.92 77.95-1312.45-1312.45 2904.91-2904.91z" class="fil4 str1"/>
            <path id="path43" fill="#fff" fill-opacity=".502" stroke="#000" stroke-miterlimit="22.926" stroke-opacity=".502" stroke-width="7.62" d="M970.72 22414.33l7556.92-7556.92c76.75-76.75 202.2-76.73 278.86-.08l.09.1c76.66 76.65 76.68 202.1-.08 278.85l-7556.92 7556.93c-76.75 76.75-202.2 76.73-278.85.08l-.1-.1c-76.66-76.66-76.68-202.11.08-278.86z" class="fil4 str1"/>
            <path id="path45" fill="#fff" fill-opacity=".502" stroke="#000" stroke-miterlimit="22.926" stroke-opacity=".502" stroke-width="7.62" d="M374.1 21817.81l7577.02-7577.01c76.64-76.65 202.15-76.69 278.8-.04l.1.1c76.66 76.66 76.62 202.17-.03 278.81L652.98 22096.69c-76.65 76.64-202.16 76.68-278.81.03l-.1-.1c-76.65-76.65-76.61-202.16.03-278.81z" class="fil4 str1"/>
            <path id="path47" fill="#ff7f2a" stroke="#000" stroke-miterlimit="22.926" stroke-width="7.62" d="M2926.57 24370.18l7556.92-7556.92c76.75-76.75 202.2-76.73 278.86-.08l.1.1c76.65 76.65 76.67 202.1-.08 278.86l-7556.93 7556.92c-76.75 76.75-202.2 76.73-278.85.08l-.1-.1c-76.65-76.65-76.67-202.1.08-278.86z" class="fil0 str0"/>
            <path id="path49" fill="#fff" fill-opacity=".502" stroke="#000" stroke-miterlimit="22.926" stroke-opacity=".502" stroke-width="7.62" d="M2926.57 24370.18l7556.92-7556.92c76.75-76.75 202.2-76.73 278.86-.08l.1.1c76.65 76.65 76.67 202.1-.08 278.86l-7556.93 7556.92c-76.75 76.75-202.2 76.73-278.85.08l-.1-.1c-76.65-76.65-76.67-202.1.08-278.86z" class="fil4 str1"/>
            <path id="path51" fill="#fff" fill-opacity=".502" stroke="#000" stroke-miterlimit="22.926" stroke-opacity=".502" stroke-width="7.62" d="M3514.71 24958.32l7556.92-7556.92c76.75-76.75 202.2-76.73 278.86-.08l.09.1c76.66 76.65 76.68 202.1-.08 278.85L3793.58 25237.2c-76.75 76.75-202.2 76.73-278.85.08l-.1-.1c-76.66-76.66-76.68-202.11.08-278.86z" class="fil4 str1"/>
            <path id="polygon53" fill="#000" fill-opacity=".502" stroke="#000" stroke-miterlimit="22.926" stroke-opacity=".502" stroke-width="7.62" d="M21277.17 7060.97l199.58 199.58 2807.57-2807.58-200.85-837.01-3078.9 3078.9z" class="fil5 str1"/>
            <path id="polygon55" fill="#000" fill-opacity=".502" stroke="#000" stroke-miterlimit="22.926" stroke-opacity=".502" stroke-width="7.62" d="M22780.06 225.44l431.79 431.79-3800.25 3800.25-67.93-250.84 1919.19-1919.19-272.4-272.41z" class="fil5 str1"/>
            <path id="path57" fill="#fff" fill-opacity=".502" d="M19368.32 2473.55l500.24-500.23c-305.56-324.7-862.28 48.11-500.24 500.23z" class="fil3"/>
            <path id="path59" fill="#fff" fill-opacity=".502" d="M17688.99 4152.88l500.24-500.23c-305.56-324.7-862.28 48.11-500.24 500.23z" class="fil3"/>
            <path id="polygon61" fill="#ff7f2a" stroke="#000" stroke-miterlimit="22.926" stroke-width="7.62" d="M20406.24 1435.73l854.17 854.17-1916.74 1916.74 109.69 405.13-3404.14 3404.14-1111.58-1111.58z" class="fil0 str0"/>
            <path id="polygon63" fill="#fff" fill-opacity=".502" stroke="#000" stroke-miterlimit="22.926" stroke-opacity=".502" stroke-width="7.62" d="M20406.24 1435.73l854.17 854.17-1916.74 1916.74 109.69 405.13-3404.14 3404.14-1111.58-1111.58z" class="fil3 str1"/>
        </g>
    </g>
</svg>
