<svg xmlns="http://www.w3.org/2000/svg" id="svg78" fill-rule="evenodd" clip-rule="evenodd" image-rendering="optimizeQuality" shape-rendering="geometricPrecision" text-rendering="geometricPrecision" version="1.1" viewBox="0 0 25600 25600" xml:space="preserve">
    <defs id="defs4">
        <style id="style2" type="text/css">
            .str1{stroke-opacity:.501961}.str0,.str1{stroke:#000;stroke-width:7.62;stroke-miterlimit:22.9256}.fil3{fill:none}.fil4{fill:#ff2a2a}.fil2{fill:#ff7f2a}.fil7{fill:#000;fill-opacity:.501961}.fil0,.fil1,.fil5,.fil6{fill:#ff2a2a;fill-opacity:.501961}.fil1,.fil5,.fil6{fill:#fff}.fil1{fill-opacity:.901961}
        </style>
    </defs>
    <g id="Слой_x0020_1">
        <g id="_743387984">
            <path id="path7" fill="#ff2a2a" fill-opacity=".502" d="M6931.82 17775.01L24334.38 372.45c672.21-431.47 1353.43 244.64 912.58 912.59L7844.4 18687.59z" class="fil0"/>
            <path id="path9" fill="#ff2a2a" fill-opacity=".502" d="M7070.53 17913.72L24391.34 592.91c535.4-358.53 1022.11 124.2 651.79 651.79L7722.32 18565.51z" class="fil0"/>
            <path id="path11" fill="#fff" fill-opacity=".902" d="M7254.93 18098.12L24575.74 777.31c256.14-193.42 473.03 25.2 292.93 292.93L7547.86 18391.05z" class="fil1"/>
            <path id="polygon13" fill="#fff" fill-opacity=".902" d="M7663.39 18506.58L24984.2 1185.77l22.86 22.87-17320.8 17320.81z" class="fil1"/>
            <path id="polygon15" fill="#fff" fill-opacity=".902" d="M7109.81 17953L24430.62 632.19l22.86 22.86L7132.67 17975.86z" class="fil1"/>
        </g>
        <g id="_743381392">
            <path id="polygon18" fill="#ff7f2a" fill-opacity="1" stroke="#000" stroke-miterlimit="22.926" stroke-width="7.62" d="M5093.12 19718.12l109.87 109.86 1098.92-1098.91 588.75 790.64-1494.96 1494.97 105.69 105.69-139.23 139.23-79.56-79.55-937.75 937.75 79.55 79.55-84.99 85-110.03-110.03-614.32 614.33 124.58 124.58-2529.55 2529.55-563.58-86.38-477.21-477.22-79.55-556.74 2536-2536 200.53 200.52 612.71-612.71-93.25-95.03 1155.37-1155.36 96.92 95.15z" class="fil2 str0"/>
            <path id="line20" fill="none" stroke="#000" stroke-miterlimit="22.926" stroke-width="7.62" d="M3438.99 21372.25l790.39 800.07" class="fil3 str0"/>
            <path id="line22" fill="none" stroke="#000" stroke-miterlimit="22.926" stroke-width="7.62" d="M4598.03 20217.01l797.67 797.67" class="fil3 str0"/>
            <path id="polygon24" fill="#ff7f2a" stroke="#000" stroke-miterlimit="22.926" stroke-width="7.62" d="M4768.53 22541.48l-423.68-423.68 937.75-937.75 425.87 425.86-23.58 111.86-798.56 798.55z" class="fil2 str0"/>
            <path id="polygon26" fill="#ff7f2a" stroke="#000" stroke-miterlimit="22.926" stroke-width="7.62" d="M6890.66 19519.71l-588.75-790.64-35.41-130.78 619.54-619.55-87.93-87.94 577.71-577.72 205.15 205.15 280.45 1159.58-906.33 906.33z" class="fil2 str0"/>
            <path id="path28" fill="#ff2a2a" stroke="#000" stroke-miterlimit="22.926" stroke-width="7.62" d="M5694.82 18618.47l236.54-236.53c-144.48-153.54-407.73 22.75-236.54 236.53z" class="fil4 str0"/>
            <path id="path30" fill="#ff2a2a" stroke="#000" stroke-miterlimit="22.926" stroke-width="7.62" d="M6236.94 18076.36l236.54-236.54c-144.49-153.53-407.73 22.75-236.54 236.54z" class="fil4 str0"/>
            <path id="line32" fill="none" stroke="#000" stroke-miterlimit="22.926" stroke-width="7.62" d="M3615.06 22786.65l-795.24-795.23" class="fil3 str0"/>
            <path id="line34" fill="none" stroke="#000" stroke-miterlimit="22.926" stroke-width="7.62" d="M89.75 24320.439l1120.34 1120.34" class="fil3 str0"/>
            <path id="path36" fill="#ff7f2a" stroke="#000" stroke-miterlimit="22.926" stroke-width="7.62" d="M335.39 24476.04l2439.5-2439.5c24.78-24.78 65.28-24.77 90.02-.03l.04.03c24.74 24.75 24.75 65.24-.03 90.02l-2439.5 2439.51c-24.78 24.77-65.28 24.77-90.02.02l-.04-.03c-24.74-24.74-24.75-65.24.03-90.02z" class="fil2 str0"/>
            <path id="path38" fill="#ff7f2a" stroke="#000" stroke-miterlimit="22.926" stroke-width="7.62" d="M663.75 24804.41l2439.51-2439.51c24.78-24.78 65.27-24.77 90.02-.02l.03.03c24.75 24.74 24.75 65.24-.02 90.02l-2439.51 2439.5c-24.78 24.78-65.27 24.77-90.02.03l-.03-.03c-24.75-24.75-24.75-65.25.02-90.02z" class="fil2 str0"/>
            <path id="path40" fill="#ff7f2a" stroke="#000" stroke-miterlimit="22.926" stroke-width="7.62" d="M1156.63 25297.29l2439.51-2439.51c24.78-24.78 65.27-24.77 90.02-.03l.03.04c24.75 24.74 24.75 65.24-.03 90.02l-2439.5 2439.5c-24.78 24.78-65.28 24.77-90.02.03l-.03-.03c-24.75-24.75-24.75-65.25.02-90.02z" class="fil2 str0"/>
            <path id="path42" fill="#ff7f2a" stroke="#000" stroke-miterlimit="22.926" stroke-width="7.62" d="M142.79 24283.48l2445.99-2446c24.75-24.74 65.26-24.75 90.01-.01l.03.03c24.74 24.75 24.73 65.27-.01 90.01L232.82 24373.5c-24.75 24.74-65.26 24.76-90.01.01l-.03-.03c-24.74-24.75-24.73-65.26.01-90z" class="fil2 str0"/>
            <path id="line44" fill="none" stroke="#000" stroke-miterlimit="22.926" stroke-width="7.62" d="M6288.43 18679.26l1226.78-1226.789" class="fil3 str0"/>
            <path id="line46" fill="none" stroke="#000" stroke-miterlimit="22.926" stroke-width="7.62" d="M6802.66 19401.52l993.93-993.92" class="fil3 str0"/>
            <path id="polygon48" fill="#fff" fill-opacity=".502" d="M6428.87 18931.84L578.23 24782.49l188.95 188.95 5821.29-5821.29z" class="fil5"/>
            <path id="polygon50" fill="#fff" fill-opacity=".502" stroke="#000" stroke-miterlimit="22.926" stroke-opacity=".502" stroke-width="7.62" d="M6288.43 18679.26l13.48 49.81 500.75 672.45 993.93-993.92-215.62-889.37-65.76-65.76z" class="fil5 str1"/>
            <path id="polygon52" fill="#fff" fill-opacity=".502" stroke="#000" stroke-miterlimit="22.926" stroke-opacity=".502" stroke-width="7.62" d="M4768.53 22541.48l-423.68-423.68 937.75-937.75 425.87 425.86-23.58 111.86-798.56 798.55z" class="fil6 str1"/>
            <path id="path54" fill="#fff" fill-opacity=".502" stroke="#000" stroke-miterlimit="22.926" stroke-opacity=".502" stroke-width="7.62" d="M335.39 24476.04l2439.5-2439.5c24.78-24.78 65.28-24.77 90.02-.03l.04.03c24.74 24.75 24.75 65.24-.03 90.02l-2439.5 2439.51c-24.78 24.77-65.28 24.77-90.02.02l-.04-.03c-24.74-24.74-24.75-65.24.03-90.02z" class="fil6 str1"/>
            <path id="path56" fill="#fff" fill-opacity=".502" stroke="#000" stroke-miterlimit="22.926" stroke-opacity=".502" stroke-width="7.62" d="M142.79 24283.48l2445.99-2446c24.75-24.74 65.26-24.75 90.01-.01l.03.03c24.74 24.75 24.73 65.27-.01 90.01L232.82 24373.5c-24.75 24.74-65.26 24.76-90.01.01l-.03-.03c-24.74-24.75-24.73-65.26.01-90z" class="fil6 str1"/>
            <path id="path58" fill="#ff7f2a" stroke="#000" stroke-miterlimit="22.926" stroke-width="7.62" d="M966.77 25107.42l2439.51-2439.5c24.77-24.78 65.27-24.77 90.02-.03l.03.04c24.74 24.74 24.75 65.24-.03 90.02l-2439.5 2439.5c-24.78 24.78-65.28 24.77-90.02.03l-.03-.04c-24.75-24.74-24.75-65.24.02-90.02z" class="fil2 str0"/>
            <path id="path60" fill="#fff" fill-opacity=".502" stroke="#000" stroke-miterlimit="22.926" stroke-opacity=".502" stroke-width="7.62" d="M966.77 25107.42l2439.51-2439.5c24.77-24.78 65.27-24.77 90.02-.03l.03.04c24.74 24.74 24.75 65.24-.03 90.02l-2439.5 2439.5c-24.78 24.78-65.28 24.77-90.02.03l-.03-.04c-24.75-24.74-24.75-65.24.02-90.02z" class="fil6 str1"/>
            <path id="path62" fill="#fff" fill-opacity=".502" stroke="#000" stroke-miterlimit="22.926" stroke-opacity=".502" stroke-width="7.62" d="M1156.63 25297.29l2439.51-2439.51c24.78-24.78 65.27-24.77 90.02-.03l.03.04c24.75 24.74 24.75 65.24-.03 90.02l-2439.5 2439.5c-24.78 24.78-65.28 24.77-90.02.03l-.03-.03c-24.75-24.75-24.75-65.25.02-90.02z" class="fil6 str1"/>
            <path id="polygon64" fill="#000" fill-opacity=".502" stroke="#000" stroke-miterlimit="22.926" stroke-opacity=".502" stroke-width="7.62" d="M7796.59 18407.6l-993.93 993.92 88 118.19 64.43 64.43 906.33-906.33z" class="fil7 str1"/>
            <path id="polygon66" fill="#000" fill-opacity=".502" stroke="#000" stroke-miterlimit="22.926" stroke-opacity=".502" stroke-width="7.62" d="M6266.5 18598.29l619.54-619.55-87.93-87.94 577.71-577.72 139.39 139.39-1226.78 1226.79z" class="fil7 str1"/>
            <path id="path68" fill="#fff" fill-opacity=".502" d="M6274.46 18038.81l161.48-161.48c-98.64-104.82-278.36 15.53-161.48 161.48z" class="fil5"/>
            <path id="path70" fill="#fff" fill-opacity=".502" d="M5732.34 18580.93l161.48-161.48c-98.64-104.82-278.35 15.53-161.48 161.48z" class="fil5"/>
            <path id="polygon72" fill="#ff7f2a" stroke="#000" stroke-miterlimit="22.926" stroke-width="7.62" d="M6301.91 18729.07l-1098.92 1098.91-358.84-358.83 1765.36-1765.36 275.74 275.74-618.75 618.76z" class="fil2 str0"/>
            <path id="polygon74" fill="#fff" fill-opacity=".502" stroke="#000" stroke-miterlimit="22.926" stroke-opacity=".502" stroke-width="7.62" d="M6301.91 18729.07l-1098.92 1098.91-358.84-358.83 1765.36-1765.36 275.74 275.74-618.75 618.76z" class="fil5 str1"/>
        </g>
    </g>
</svg>
