<svg xmlns="http://www.w3.org/2000/svg" id="svg108" fill-rule="evenodd" clip-rule="evenodd" image-rendering="optimizeQuality" shape-rendering="geometricPrecision" text-rendering="geometricPrecision" version="1.1" viewBox="0 0 25600 25600" xml:space="preserve">
    <defs id="defs4">
        <style id="style2" type="text/css">
            .str0{stroke:#000;stroke-width:7.62;stroke-miterlimit:22.9256}.fil2{fill:none}.fil4{fill:#000}.fil0{fill:#ff7f2a}.fil1{fill:#ffd42a}.fil3,.fil5,.fil6{fill:#ff2a2a;fill-opacity:.501961}.fil3,.fil6{fill:#fff}.fil6{fill-opacity:.901961}
        </style>
    </defs>
    <g id="Слой_x0020_1">
        <g id="_739868592">
            <path id="polygon7" fill="#ff7f2a" stroke="#000" stroke-miterlimit="22.926" stroke-width="7.62" d="M1295.09 25319.35l-186.07 186.07L89.75 24486.15l186.07-186.07z" class="fil0 str0"/>
            <path id="polygon9" fill="#ff7f2a" stroke="#000" stroke-miterlimit="22.926" stroke-width="7.62" d="M1914 24667.5l-635.38 635.38-730.9-730.9 635.38-635.38z" class="fil0 str0"/>
            <path id="polygon11" fill="#ffd42a" stroke="#000" stroke-miterlimit="22.926" stroke-width="7.62" d="M1363.04 24217.25l49.7-49.7 296.62 295.06-50.48 50.48 204.76 204.76 50.33-50.32 16.5 16.44 217.2-217.2L1128.4 23447.5l-219.54 217.48 175.47 176.91-48.32 48.32z" class="fil1 str0"/>
            <path id="polygon13" fill="#ffd42a" stroke="#000" stroke-miterlimit="22.926" stroke-width="7.62" d="M6431.51 19984.2l-1902.17 1902.17-853.86-853.86 1902.16-1902.17z" class="fil1 str0"/>
            <path id="polygon15" fill="#ff7f2a" stroke="#000" stroke-miterlimit="22.926" stroke-width="7.62" d="M4749.7 21784.1l-115.84 115.84-958.26-958.26 115.84-115.84z" class="fil0 str0"/>
            <path id="polygon17" fill="#ff7f2a" stroke="#000" stroke-miterlimit="22.926" stroke-width="7.62" d="M4974.05 21559.74l-163.37 163.38-958.26-958.26 163.38-163.37z" class="fil0 str0"/>
            <path id="polygon19" fill="#ff7f2a" stroke="#000" stroke-miterlimit="22.926" stroke-width="7.62" d="M5183.91 21349.89l-163.38 163.37-958.25-958.25 163.37-163.38z" class="fil0 str0"/>
            <path id="polygon21" fill="#ff7f2a" stroke="#000" stroke-miterlimit="22.926" stroke-width="7.62" d="M5398.92 21134.87l-163.38 163.38-958.25-958.26 163.37-163.37z" class="fil0 str0"/>
            <path id="polygon23" fill="#ff7f2a" fill-opacity="1" stroke="#000" stroke-miterlimit="22.926" stroke-width="7.62" d="M5607.74 20926.05l-163.37 163.38-958.26-958.26 163.38-163.38z" class="fil0 str0"/>
            <path id="polygon25" fill="#ff7f2a" stroke="#000" stroke-miterlimit="22.926" stroke-width="7.62" d="M5822.76 20711.04l-163.38 163.38-958.26-958.26 163.38-163.38z" class="fil0 str0"/>
            <path id="polygon27" fill="#ff7f2a" stroke="#000" stroke-miterlimit="22.926" stroke-width="7.62" d="M6029.52 20504.28l-163.38 163.38-958.26-958.26 163.38-163.38z" class="fil0 str0"/>
            <path id="polygon29" fill="#ff7f2a" stroke="#000" stroke-miterlimit="22.926" stroke-width="7.62" d="M6219.71 20314.08l-115.83 115.84-958.26-958.26 115.84-115.83z" class="fil0 str0"/>
            <path id="polygon31" fill="#ff7f2a" stroke="#000" stroke-miterlimit="22.926" stroke-width="7.62" d="M6406.84 20126.95l-115.83 115.84-958.26-958.26 115.84-115.83z" class="fil0 str0"/>
            <path id="polygon33" fill="#ffd42a" stroke="#000" stroke-miterlimit="22.926" stroke-width="7.62" d="M6536.96 19541.74L6263 19815.7l-531.39-531.39 273.97-273.96z" class="fil1 str0"/>
            <path id="polygon35" fill="#ffd42a" stroke="#000" stroke-miterlimit="22.926" stroke-width="7.62" d="M6723.06 19556.3l-85.76 85.77-714.34-714.33 85.77-85.77z" class="fil1 str0"/>
            <path id="polygon37" fill="#ff7f2a" stroke="#000" stroke-miterlimit="22.926" stroke-width="7.62" d="M6939.26 19538.52l297.72-297.72-209.85-209.85 234.64-230.52 201.6 17.57 107.49-107.49 110.62 110.61 84.76-84.76 50.64 50.63 346.32-346.32 185.04 185.04 190.19-190.19-1408.91-1408.91-190.19 190.19 185.03 185.04-346.32 346.32 50.64 50.63-84.77 84.77 110.62 110.62-107.49 107.49 17.56 201.6-230.51 234.64-209.86-209.85-297.71 297.71-42.39-42.38-116.99 116.99 997.52 997.52 116.99-117z" class="fil0 str0"/>
            <path id="line39" fill="none" stroke="#000" stroke-miterlimit="22.926" stroke-width="7.62" d="M6534.09 18537.91l493.04 493.039" class="fil2 str0"/>
            <path id="line41" fill="none" stroke="#000" stroke-miterlimit="22.926" stroke-width="7.62" d="M6764.6 18303.27l497.17 497.16" class="fil2 str0"/>
            <path id="line43" fill="none" stroke="#000" stroke-miterlimit="22.926" stroke-width="7.62" d="M6026.52 18625.77l912.74 912.75" class="fil2 str0"/>
            <path id="line45" fill="none" stroke="#000" stroke-miterlimit="22.926" stroke-width="7.62" d="M6854.53 17994.18l716.33 716.33" class="fil2 str0"/>
            <path id="line47" fill="none" stroke="#000" stroke-miterlimit="22.926" stroke-width="7.62" d="M6819.43 17789.539l946.81 946.82" class="fil2 str0"/>
            <path id="line49" fill="none" stroke="#000" stroke-miterlimit="22.926" stroke-width="7.62" d="M7124.36 17401.84l1038.84 1038.83" class="fil2 str0"/>
            <path id="polygon51" fill="#fff" fill-opacity=".502" d="M496.65 24867.86l186.64 186.64 161.25-161.26-186.63-186.64z" class="fil3"/>
            <path id="polygon53" fill="#ff7f2a" stroke="#000" stroke-miterlimit="22.926" stroke-width="7.62" d="M2107.35 24426.45l-958.26-958.26 2481.04-2481.03 958.25 958.25z" class="fil0 str0"/>
            <path id="polygon55" fill="#fff" fill-opacity=".502" d="M1241.05 24123.46l186.63 186.64 6476.62-6476.61-186.64-186.64z" class="fil3"/>
            <path id="polygon57" fill="#ff7f2a" stroke="#000" stroke-miterlimit="22.926" stroke-width="7.62" d="M3935.47 22375.59l-161.78 161.79-73.39-73.39 161.78-161.79z" class="fil0 str0"/>
            <path id="polygon59" fill="#ff7f2a" stroke="#000" stroke-miterlimit="22.926" stroke-width="7.62" d="M3233.58 23077.49l-161.79 161.78-73.39-73.39 161.79-161.78z" class="fil0 str0"/>
            <path id="polygon61" fill="#ff7f2a" stroke="#000" stroke-miterlimit="22.926" stroke-width="7.62" d="M3461.34 21339.42l-1331.52 1331.52-424.9-424.9 1331.52-1331.52z" class="fil0 str0"/>
            <path id="polygon63" fill="none" stroke="#000" stroke-miterlimit="22.926" stroke-width="7.62" d="M1986.36 22216.84l-86.83 86.83-126.12-126.12 86.83-86.83z" class="fil2 str0"/>
            <path id="polygon65" fill="none" stroke="#000" stroke-miterlimit="22.926" stroke-width="7.62" d="M2142.64 22060.56l-86.83 86.83-126.12-126.12 86.83-86.83z" class="fil2 str0"/>
            <path id="polygon67" fill="none" stroke="#000" stroke-miterlimit="22.926" stroke-width="7.62" d="M2298.92 21904.28l-86.83 86.83-126.12-126.12 86.83-86.83z" class="fil2 str0"/>
            <path id="polygon69" fill="none" stroke="#000" stroke-miterlimit="22.926" stroke-width="7.62" d="M2455.2 21748l-86.83 86.83-126.12-126.12 86.83-86.83z" class="fil2 str0"/>
            <path id="polygon71" fill="none" stroke="#000" stroke-miterlimit="22.926" stroke-width="7.62" d="M2611.48 21591.72l-86.83 86.83-126.12-126.12 86.83-86.83z" class="fil2 str0"/>
            <path id="polygon73" fill="none" stroke="#000" stroke-miterlimit="22.926" stroke-width="7.62" d="M2767.76 21435.44l-86.83 86.83-126.12-126.12 86.83-86.83z" class="fil2 str0"/>
            <path id="polygon75" fill="none" stroke="#000" stroke-miterlimit="22.926" stroke-width="7.62" d="M2924.05 21279.15l-86.84 86.83-126.11-126.12 86.83-86.83z" class="fil2 str0"/>
            <path id="polygon77" fill="none" stroke="#000" stroke-miterlimit="22.926" stroke-width="7.62" d="M3080.33 21122.87l-86.83 86.83-126.12-126.12 86.83-86.83z" class="fil2 str0"/>
            <path id="polygon79" fill="#000" stroke="#000" stroke-miterlimit="22.926" stroke-width="7.62" d="M3025.07 21775.69l-41.36 41.35-128.18-128.18 41.35-41.35z" class="fil4 str0"/>
            <path id="polygon81" fill="#000" stroke="#000" stroke-miterlimit="22.926" stroke-width="7.62" d="M3150.09 21650.67l-41.35 41.35-128.18-128.18 41.35-41.36z" class="fil4 str0"/>
            <path id="polygon83" fill="#000" stroke="#000" stroke-miterlimit="22.926" stroke-width="7.62" d="M3275.12 21525.64l-41.36 41.35-128.18-128.18 41.35-41.35z" class="fil4 str0"/>
            <path id="polygon85" fill="#000" stroke="#000" stroke-miterlimit="22.926" stroke-width="7.62" d="M3400.14 21400.62l-41.35 41.35-128.18-128.18 41.35-41.36z" class="fil4 str0"/>
            <path id="polygon87" fill="#ff7f2a" stroke="#000" stroke-miterlimit="22.926" stroke-width="7.62" d="M2857.59 22065.13l-502.41 502.41-191.26-191.26 502.42-502.41z" class="fil0 str0"/>
            <path id="line89" fill="none" stroke="#000" stroke-miterlimit="22.926" stroke-width="7.62" d="M908.86 23664.98l-59.14 59.139" class="fil2 str0"/>
            <path id="polygon91" fill="#fff" fill-opacity=".502" d="M640.29 24635.23l586.17 586.18 556.28-556.29-586.17-586.17z" class="fil3"/>
            <path id="polygon93" fill="#fff" fill-opacity=".502" d="M1427.69 24310.09l203.05 203.05 51.82-51.83-203.05-203.05z" class="fil3"/>
        </g>
        <g id="_739858064">
            <path id="path96" fill="#ff2a2a" fill-opacity=".502" d="M7329.22 17198.4L24244.33 283.28c671.87-400.91 1438.18 360.45 1027.12 1027.12L8356.34 18225.51z" class="fil5"/>
            <path id="path98" fill="#ff2a2a" fill-opacity=".502" d="M7485.34 17354.51L24320.99 518.86c533.98-334.91 1081.47 208.71 733.59 733.6L8218.93 18088.11z" class="fil5"/>
            <path id="path100" fill="#fff" fill-opacity=".902" d="M7692.88 17562.06L24528.53 726.4c253.79-183.19 498.03 62.74 329.7 329.7L8022.57 17891.75z" class="fil6"/>
            <path id="polygon102" fill="#fff" fill-opacity=".902" d="M24988.26 1186.13l25.73 25.74L8178.34 18047.52l-25.73-25.73z" class="fil6"/>
            <path id="polygon104" fill="#fff" fill-opacity=".902" d="M24365.19 563.07l25.74 25.73L7555.28 17424.45l-25.74-25.73z" class="fil6"/>
        </g>
    </g>
</svg>
