<svg xmlns="http://www.w3.org/2000/svg" id="svg97" fill-rule="evenodd" clip-rule="evenodd" image-rendering="optimizeQuality" shape-rendering="geometricPrecision" text-rendering="geometricPrecision" version="1.1" viewBox="0 0 25600 25600" xml:space="preserve">
    <defs id="defs4">
        <style id="style2" type="text/css">
            .str0{stroke:#000;stroke-width:7.62;stroke-miterlimit:22.9256}.fil2{fill:none}.fil4{fill:#000}.fil0{fill:#ff7f2a}.fil1{fill:#ffd42a}.fil3{fill:#fff;fill-opacity:.501961}
        </style>
    </defs>
    <g id="Слой_x0020_1">
        <g id="_629939152">
            <path id="polygon7" fill="#ff7f2a" stroke="#000" stroke-miterlimit="22.926" stroke-width="7.62" d="M3695.06 24962.5l-556.55 556.55-3048.7-3048.7 556.55-556.55z" class="fil0 str0"/>
            <path id="polygon9" fill="#ff7f2a" stroke="#000" stroke-miterlimit="22.926" stroke-width="7.62" d="M5546.25 23012.77l-1900.46 1900.46-2186.17-2186.16 1900.47-1900.46z" class="fil0 str0"/>
            <path id="polygon11" fill="#ffd42a" stroke="#000" stroke-miterlimit="22.926" stroke-width="7.62" d="M3898.31 21666.05l148.64-148.64 887.22 882.54-150.98 150.99 612.45 612.45 150.52-150.52 49.36 49.17 649.66-649.66-3048.7-3048.7-656.67 650.5 524.85 529.16-144.54 144.53z" class="fil1 str0"/>
            <path id="polygon13" fill="#ffd42a" stroke="#000" stroke-miterlimit="22.926" stroke-width="7.62" d="M19058.42 9004.73l-5689.51 5689.51-2553.95-2553.95 5689.51-5689.51z" class="fil1 str0"/>
            <path id="polygon15" fill="#ff7f2a" stroke="#000" stroke-miterlimit="22.926" stroke-width="7.62" d="M14028.02 14388.34l-346.48 346.48-2866.21-2866.21 346.48-346.48z" class="fil0 str0"/>
            <path id="polygon17" fill="#ff7f2a" stroke="#000" stroke-miterlimit="22.926" stroke-width="7.62" d="M14699.09 13717.27l-488.67 488.67-2866.21-2866.21 488.67-488.67z" class="fil0 str0"/>
            <path id="polygon19" fill="#ff7f2a" stroke="#000" stroke-miterlimit="22.926" stroke-width="7.62" d="M15326.78 13089.58l-488.67 488.67-2866.21-2866.21 488.67-488.67z" class="fil0 str0"/>
            <path id="polygon21" fill="#ff7f2a" stroke="#000" stroke-miterlimit="22.926" stroke-width="7.62" d="M15969.89 12446.47l-488.67 488.67-2866.21-2866.21 488.67-488.67z" class="fil0 str0"/>
            <path id="polygon23" fill="#ff7f2a" stroke="#000" stroke-miterlimit="22.926" stroke-width="7.62" d="M16594.5 11821.86l-488.67 488.67-2866.21-2866.21 488.67-488.67z" class="fil0 str0"/>
            <path id="polygon25" fill="#ff7f2a" stroke="#000" stroke-miterlimit="22.926" stroke-width="7.62" d="M17237.61 11178.74l-488.67 488.68-2866.21-2866.21 488.67-488.68z" class="fil0 str0"/>
            <path id="polygon27" fill="#ff7f2a" stroke="#000" stroke-miterlimit="22.926" stroke-width="7.62" d="M17856.05 10560.31l-488.67 488.67-2866.21-2866.21 488.67-488.67z" class="fil0 str0"/>
            <path id="polygon29" fill="#ff7f2a" stroke="#000" stroke-miterlimit="22.926" stroke-width="7.62" d="M18424.93 9991.42l-346.47 346.48-2866.21-2866.21 346.47-346.48z" class="fil0 str0"/>
            <path id="polygon31" fill="#ff7f2a" stroke="#000" stroke-miterlimit="22.926" stroke-width="7.62" d="M18984.66 9431.7l-346.48 346.47-2866.2-2866.21 346.47-346.47z" class="fil0 str0"/>
            <path id="polygon33" fill="#ffd42a" stroke="#000" stroke-miterlimit="22.926" stroke-width="7.62" d="M19373.86 7681.29l-819.44 819.44L16965 6911.31l819.44-819.44z" class="fil1 str0"/>
            <path id="polygon35" fill="#ffd42a" stroke="#000" stroke-miterlimit="22.926" stroke-width="7.62" d="M19930.49 7724.86l-256.53 256.53-2136.62-2136.61 256.54-256.54z" class="fil1 str0"/>
            <path id="polygon37" fill="#ff7f2a" stroke="#000" stroke-miterlimit="22.926" stroke-width="7.62" d="M20577.16 7671.66l890.49-890.49-627.69-627.69 701.83-689.49 603.01 52.55 321.51-321.52 330.86 330.86 253.55-253.54 151.45 151.45 1035.87-1035.86 553.46 553.46 568.88-568.89-4214.14-4214.14-568.89 568.88 553.46 553.46-1035.87 1035.87 151.46 151.45-253.55 253.54 330.86 330.87-321.51 321.51 52.54 603.01-689.49 701.82-627.69-627.69-890.49 890.49-126.77-126.77-349.93 349.93L20354 8148.37l349.94-349.94z" class="fil0 str0"/>
            <path id="line39" fill="none" stroke="#000" stroke-miterlimit="22.926" stroke-width="7.62" d="M19365.25 4678.77l1474.711 1474.71" class="fil2 str0"/>
            <path id="line41" fill="none" stroke="#000" stroke-miterlimit="22.926" stroke-width="7.62" d="M20054.74 3976.95l1487.049 1487.04" class="fil2 str0"/>
            <path id="line43" fill="none" stroke="#000" stroke-miterlimit="22.926" stroke-width="7.62" d="M17847.07 4941.57l2730.09 2730.09" class="fil2 str0"/>
            <path id="line45" fill="none" stroke="#000" stroke-miterlimit="22.926" stroke-width="7.62" d="M20323.711 3052.43l2142.6 2142.59" class="fil2 str0"/>
            <path id="line47" fill="none" stroke="#000" stroke-miterlimit="22.926" stroke-width="7.62" d="M20218.721 2440.35l2832 2831.99" class="fil2 str0"/>
            <path id="line49" fill="none" stroke="#000" stroke-miterlimit="22.926" stroke-width="7.62" d="M21130.811 1280.7l3107.228 3107.23" class="fil2 str0"/>
            <path id="polygon51" fill="#fff" fill-opacity=".502" d="M1306.88 23612.07l558.25 558.25 482.32-482.32-558.25-558.25z" class="fil3"/>
            <path id="polygon53" fill="#ff7f2a" stroke="#000" stroke-miterlimit="22.926" stroke-width="7.62" d="M6124.58 22291.78l-2866.21-2866.21 7420.94-7420.94 2866.21 2866.21z" class="fil0 str0"/>
            <path id="polygon55" fill="#fff" fill-opacity=".502" d="M3533.41 21385.54l558.25 558.25L23463.64 2571.8l-558.25-558.25z" class="fil3"/>
            <path id="polygon57" fill="#ff7f2a" fill-opacity="1" stroke="#000" stroke-miterlimit="22.926" stroke-width="7.62" d="M11592.61 16157.54l-483.91 483.91-219.51-219.52 483.9-483.9z" class="fil0 str0"/>
            <path id="polygon59" fill="#ff7f2a" stroke="#000" stroke-miterlimit="22.926" stroke-width="7.62" d="M9493.2 18256.95l-483.9 483.9-219.52-219.51 483.91-483.9z" class="fil0 str0"/>
            <path id="polygon61" fill="#ff7f2a" stroke="#000" stroke-miterlimit="22.926" stroke-width="7.62" d="M10174.46 13058.26L6191.8 17040.93l-1270.9-1270.9 3982.66-3982.67z" class="fil0 str0"/>
            <path id="polygon63" fill="none" stroke="#000" stroke-miterlimit="22.926" stroke-width="7.62" d="M5762.68 15682.71l-259.72 259.71-377.23-377.23 259.72-259.71z" class="fil2 str0"/>
            <path id="polygon65" fill="none" stroke="#000" stroke-miterlimit="22.926" stroke-width="7.62" d="M6230.13 15215.26l-259.72 259.71-377.23-377.23 259.72-259.71z" class="fil2 str0"/>
            <path id="polygon67" fill="none" stroke="#000" stroke-miterlimit="22.926" stroke-width="7.62" d="M6697.58 14747.81l-259.72 259.71-377.23-377.23 259.72-259.71z" class="fil2 str0"/>
            <path id="polygon69" fill="none" stroke="#000" stroke-miterlimit="22.926" stroke-width="7.62" d="M7165.03 14280.36l-259.72 259.72-377.23-377.24 259.71-259.71z" class="fil2 str0"/>
            <path id="polygon71" fill="none" stroke="#000" stroke-miterlimit="22.926" stroke-width="7.62" d="M7632.47 13812.91l-259.71 259.72-377.23-377.23 259.71-259.72z" class="fil2 str0"/>
            <path id="polygon73" fill="none" stroke="#000" stroke-miterlimit="22.926" stroke-width="7.62" d="M8099.92 13345.46l-259.71 259.72-377.23-377.23 259.71-259.72z" class="fil2 str0"/>
            <path id="polygon75" fill="none" stroke="#000" stroke-miterlimit="22.926" stroke-width="7.62" d="M8567.37 12878.01l-259.71 259.72-377.23-377.23 259.71-259.72z" class="fil2 str0"/>
            <path id="polygon77" fill="none" stroke="#000" stroke-miterlimit="22.926" stroke-width="7.62" d="M9034.82 12410.57l-259.71 259.71-377.23-377.23 259.71-259.72z" class="fil2 str0"/>
            <path id="polygon79" fill="#000" stroke="#000" stroke-miterlimit="22.926" stroke-width="7.62" d="M8869.53 14363.19l-123.69 123.69-383.4-383.4 123.69-123.69z" class="fil4 str0"/>
            <path id="polygon81" fill="#000" stroke="#000" stroke-miterlimit="22.926" stroke-width="7.62" d="M9243.49 13989.23l-123.69 123.69-383.4-383.4 123.69-123.69z" class="fil4 str0"/>
            <path id="polygon83" fill="#000" stroke="#000" stroke-miterlimit="22.926" stroke-width="7.62" d="M9617.45 13615.27l-123.69 123.69-383.4-383.4 123.69-123.69z" class="fil4 str0"/>
            <path id="polygon85" fill="#000" stroke="#000" stroke-miterlimit="22.926" stroke-width="7.62" d="M9991.41 13241.32L9867.72 13365l-383.4-383.4 123.69-123.69z" class="fil4 str0"/>
            <path id="polygon87" fill="#ff7f2a" stroke="#000" stroke-miterlimit="22.926" stroke-width="7.62" d="M8368.61 15228.91l-1502.75 1502.75-572.07-572.06 1502.76-1502.76z" class="fil0 str0"/>
            <path id="line89" fill="none" stroke="#000" stroke-miterlimit="22.926" stroke-width="7.62" d="M2539.81 20014.18l-176.89 176.89" class="fil2 str0"/>
            <path id="polygon91" fill="#fff" fill-opacity=".502" d="M1736.5 22916.27l1753.28 1753.29 1663.88-1663.88-1753.28-1753.28z" class="fil3"/>
            <path id="polygon93" fill="#fff" fill-opacity=".502" d="M4091.66 21943.74l607.34 607.34 155-155.01-607.33-607.34z" class="fil3"/>
        </g>
    </g>
</svg>
