<svg xmlns="http://www.w3.org/2000/svg" id="svg75" fill-rule="evenodd" clip-rule="evenodd" image-rendering="optimizeQuality" shape-rendering="geometricPrecision" text-rendering="geometricPrecision" version="1.1" viewBox="0 0 25600 25600" xml:space="preserve">
    <defs id="defs4">
        <style id="style2" type="text/css">
            .str0{stroke:#000;stroke-width:7.62;stroke-miterlimit:22.9256}.fil2{fill:none}.fil0{fill:#ffd42a}.fil1{fill:#fff;fill-opacity:.501961}
        </style>
    </defs>
    <g id="Слой_x0020_1">
        <g id="_744047152">
            <path id="rect7" fill="#ffd42a" stroke="#000" stroke-dasharray="none" stroke-miterlimit="22.926" stroke-width=".177" d="M0 0h240v76.4H0z" class="fil0 str0" transform="rotate(-45 28470.865 571.07) scale(45.3998 -40.9084)"/>
            <path id="rect9" fill="#ffd42a" stroke="#000" stroke-dasharray="none" stroke-miterlimit="22.926" stroke-width=".447" d="M0 0h43.66v149.58H0z" class="fil0 str0" transform="rotate(135 223.897 9771.516) scale(13.14854 -22.12749)"/>
            <path id="rect11" fill="#ffd42a" stroke="#000" stroke-dasharray="none" stroke-miterlimit="22.926" stroke-width=".447" d="M0 0h43.66v149.58H0z" class="fil0 str0" transform="rotate(135 794.85 9535.048) scale(13.14854 -22.12749)"/>
            <path id="rect13" fill="#ffd42a" stroke="#000" stroke-dasharray="none" stroke-miterlimit="22.926" stroke-width=".447" d="M0 0h43.66v149.58H0z" class="fil0 str0" transform="rotate(135 1365.824 9298.53) scale(13.14854 -22.12749)"/>
            <path id="rect15" fill="#ffd42a" stroke="#000" stroke-dasharray="none" stroke-miterlimit="22.926" stroke-width=".447" d="M0 0h43.66v149.58H0z" class="fil0 str0" transform="rotate(135 1936.798 9062.013) scale(13.14854 -22.12749)"/>
            <path id="rect17" fill="#ffd42a" stroke="#000" stroke-dasharray="none" stroke-miterlimit="22.926" stroke-width=".447" d="M0 0h43.66v149.58H0z" class="fil0 str0" transform="rotate(135 2507.772 8825.495) scale(13.14854 -22.12749)"/>
            <path id="rect19" fill="#ffd42a" stroke="#000" stroke-dasharray="none" stroke-miterlimit="22.926" stroke-width=".447" d="M0 0h43.66v149.58H0z" class="fil0 str0" transform="rotate(135 3078.74 8589.034) scale(13.14854 -22.12749)"/>
            <path id="rect21" fill="#ffd42a" stroke="#000" stroke-dasharray="none" stroke-miterlimit="22.926" stroke-width=".447" d="M0 0h43.66v149.58H0z" class="fil0 str0" transform="rotate(135 3649.728 8352.523) scale(13.14854 -22.12749)"/>
            <path id="rect23" fill="#ffd42a" stroke="#000" stroke-dasharray="none" stroke-miterlimit="22.926" stroke-width=".447" d="M0 0h43.66v149.58H0z" class="fil0 str0" transform="rotate(135 4220.667 8115.99) scale(13.14854 -22.12749)"/>
            <path id="rect25" fill="#ffd42a" stroke="#000" stroke-dasharray="none" stroke-miterlimit="22.926" stroke-width=".447" d="M0 0h43.66v149.58H0z" class="fil0 str0" transform="rotate(135 -347.077 10008.033) scale(13.14854 -22.12749)"/>
            <path id="polygon27" fill="#ffd42a" stroke="#000" stroke-miterlimit="22.926" stroke-width="7.62" d="M5978.12 22453.22l-803.74-150.69-405.56 405.55-182.38 1186.68-2834.74-2905.99 1069.1-198.44 420.69-420.69-154.23-807.27z" class="fil0 str0"/>
            <circle id="circle29" cx="0" cy="0" r="159.08" fill="#ffd42a" stroke="#000" stroke-dasharray="none" stroke-miterlimit="22.926" stroke-width=".54" class="fil0 str0" transform="rotate(-45 29221.08 8782.311) scale(13.02474 -15.28326)"/>
            <path id="path31" fill="#fff" fill-opacity=".502" d="M3001.17 23450.45c251.63-251.63 251.63-659.6 0-911.23s-659.61-251.63-911.24 0c-251.62 251.63-251.62 659.6 0 911.23 251.63 251.63 659.61 251.63 911.24 0z" class="fil1"/>
            <circle id="circle33" cx="0" cy="0" r="29.93" fill="none" stroke="#000" stroke-dasharray="none" stroke-miterlimit="22.926" stroke-width=".621" class="fil2 str0" transform="scale(12.264 -12.264) rotate(45 2367.076 -686.937)"/>
            <circle id="circle35" cx="0" cy="0" r="29.93" fill="none" stroke="#000" stroke-dasharray="none" stroke-miterlimit="22.926" stroke-width=".621" class="fil2 str0" transform="scale(12.264 -12.264) rotate(45 2217.187 -749.028)"/>
            <circle id="circle37" cx="0" cy="0" r="29.93" fill="none" stroke="#000" stroke-dasharray="none" stroke-miterlimit="22.926" stroke-width=".621" class="fil2 str0" transform="scale(12.264 -12.264) rotate(45 2503.893 -630.266)"/>
            <path id="polygon39" fill="#ff7f2a" fill-opacity="1" stroke="#000" stroke-dasharray="none" stroke-miterlimit="22.926" stroke-width="7.62" d="M21789.13 6946.02l-70.05-1258.65-1061.52-1061.52-2096.1 400.2-56.72-56.72 864.6-1599-183.5-183.5-3462.24 3462.24-333.99-333.99-654.36 654.36 333.99 333.99-1592.23 1592.23-333.99-333.99-627.61 627.61 333.99 333.99-8094.61 8094.61 418.78 418.77-951.4 951.4-679.09-158.46-594.3 594.3 3056.08 3056.08 241.44 28.87 1889.38-1889.39-273.83-1288.62-1255.12-1255.12-120.21-747.82 5888.69-5888.69 1669.15 307.14 1782.6 1181.84 213.67-213.68 367.2 367.2 627.61-627.61-280.4-280.39 1592.24-1592.24 280.39 280.4 654.36-654.36-377.19-377.19 463.99-463.99 484.08 484.08 1425.49-1425.5-484.08-484.08z" class="str0"/>
            <path id="line41" fill="none" stroke="#000" stroke-miterlimit="22.926" stroke-width="7.62" d="M18347.279 10581.46L15069.24 7303.43" class="fil2 str0"/>
            <path id="line43" fill="none" stroke="#000" stroke-miterlimit="22.926" stroke-width="7.62" d="M18904.84 9830.31L15723.6 6649.07" class="fil2 str0"/>
            <path id="line45" fill="none" stroke="#000" stroke-miterlimit="22.926" stroke-width="7.62" d="M16755.039 12173.7L13477.01 8895.66" class="fil2 str0"/>
            <path id="line47" fill="none" stroke="#000" stroke-miterlimit="22.926" stroke-width="7.62" d="M16040.63 12714.5L12849.4 9523.27" class="fil2 str0"/>
            <path id="polygon49" fill="#ffd42a" stroke="#000" stroke-miterlimit="22.926" stroke-width="7.62" d="M20657.56 4625.85l-2096.1 400.2-56.72-56.72 864.6-1599-50.27-50.27 2407.38-2407.37-155.94-536.67 270.4-270.4 3597.59 3624.64-270.4 270.4-536.67-155.94-2856.03 2856.03-56.32-1013.38z" class="fil0 str0"/>
            <path id="polygon51" fill="#fff" fill-opacity=".502" d="M23480.29 2679.99L4884.24 21276.03l-602.7-602.7L22877.59 2077.29z" class="fil1"/>
            <path id="line53" fill="none" stroke="#000" stroke-miterlimit="22.926" stroke-width="7.62" d="M24631.43 3844.72L21726.449 912.69" class="fil2 str0"/>
            <path id="polygon55" fill="#fff" fill-opacity=".502" d="M4467.11 21676.01l-328.84 328.84-602.7-602.7 328.84-328.84z" class="fil1"/>
            <path id="line57" fill="none" stroke="#000" stroke-miterlimit="22.926" stroke-width="7.62" d="M3241.49 20369.641l1932.89 1932.888" class="fil2 str0"/>
            <path id="path59" fill="#ff2a2a" stroke="#000" stroke-miterlimit="22.926" stroke-width="7.62" d="M21278.4 8424.9l-484.08-484.08c-850.37 126.07-1340.6 587.04-1425.49 1425.5l484.08 484.08z" class="str0"/>
            <path id="path61" fill="#fff" fill-opacity=".502" d="M19717.96 8556.12c80.85-106.49 173.71-191.88 271.31-261.02l669.8 669.8-266.16 266.16z" class="fil1"/>
            <path id="line63" fill="none" stroke="#000" stroke-miterlimit="22.926" stroke-width="7.62" d="M4768.82 22708.08l-1932.88-1932.891" class="fil2 str0"/>
            <path id="path65" fill="#fff" fill-opacity=".502" d="M1573.51 22015.02c55.7-55.71 55.7-146.06 0-201.77-55.71-55.71-146.06-55.71-201.77 0-55.71 55.71-55.71 146.06 0 201.77 55.71 55.7 146.06 55.7 201.77 0z" class="fil1"/>
            <path id="path67" fill="#fff" fill-opacity=".502" d="M3633.27 24074.78c55.7-55.71 55.7-146.06 0-201.77-55.71-55.71-146.06-55.71-201.77 0-55.71 55.71-55.71 146.06 0 201.77 55.71 55.7 146.06 55.7 201.77 0z" class="fil1"/>
            <path id="line69" fill="none" stroke="#000" stroke-miterlimit="22.926" stroke-width="7.62" d="M4539.4 24307.58l-3250.38-3250.381" class="fil2 str0"/>
            <path id="line71" fill="none" stroke="#000" stroke-miterlimit="22.926" stroke-width="7.62" d="M3929.05 25059.039L490.74 21620.721" class="fil2 str0"/>
        </g>
    </g>
</svg>
