<svg xmlns="http://www.w3.org/2000/svg" id="svg86" fill-rule="evenodd" clip-rule="evenodd" image-rendering="optimizeQuality" shape-rendering="geometricPrecision" text-rendering="geometricPrecision" version="1.1" viewBox="0 0 25600 25600" xml:space="preserve">
    <defs id="defs4">
        <style id="style2" type="text/css">
            .str0{stroke:#000;stroke-width:7.62;stroke-miterlimit:22.9256}.fil2{fill:none}.fil0{fill:#ffd42a}.fil1,.fil5,.fil6{fill:#ff2a2a;fill-opacity:.501961}.fil1,.fil6{fill:#fff}.fil6{fill-opacity:.901961}
        </style>
    </defs>
    <g id="Слой_x0020_1">
        <g id="_742839328">
            <path id="rect7" fill="#ffd42a" stroke="#000" stroke-dasharray="none" stroke-miterlimit="22.926" stroke-width=".56" d="M0 0h240v76.4H0z" class="fil0 str0" transform="rotate(-45 30076.833 8827.007) scale(14.33928 -12.9207)"/>
            <path id="rect9" fill="#ffd42a" stroke="#000" stroke-dasharray="none" stroke-miterlimit="22.926" stroke-width="1.414" d="M0 0h43.66v149.58H0z" class="fil0 str0" transform="rotate(135 -3510.857 11819.786) scale(4.15289 -6.98884)"/>
            <path id="rect11" fill="#ffd42a" stroke="#000" stroke-dasharray="none" stroke-miterlimit="22.926" stroke-width="1.414" d="M0 0h43.66v149.58H0z" class="fil0 str0" transform="rotate(135 -3330.504 11745.057) scale(4.15289 -6.98884)"/>
            <path id="rect13" fill="#ffd42a" stroke="#000" stroke-dasharray="none" stroke-miterlimit="22.926" stroke-width="1.414" d="M0 0h43.66v149.58H0z" class="fil0 str0" transform="rotate(135 -3150.177 11670.375) scale(4.15289 -6.98884)"/>
            <path id="rect15" fill="#ffd42a" stroke="#000" stroke-dasharray="none" stroke-miterlimit="22.926" stroke-width="1.414" d="M0 0h43.66v149.58H0z" class="fil0 str0" transform="matrix(-2.93654 2.93654 4.94185 4.94185 3129.56 21895)"/>
            <path id="rect17" fill="#ffd42a" stroke="#000" stroke-dasharray="none" stroke-miterlimit="22.926" stroke-width="1.414" d="M0 0h43.66v149.58H0z" class="fil0 str0" transform="matrix(-2.93654 2.93654 4.94185 4.94185 3384.6 21640)"/>
            <path id="rect19" fill="#ffd42a" stroke="#000" stroke-dasharray="none" stroke-miterlimit="22.926" stroke-width="1.414" d="M0 0h43.66v149.58H0z" class="fil0 str0" transform="matrix(-2.93654 2.93654 4.94185 4.94185 3639.63 21385)"/>
            <path id="rect21" fill="#ffd42a" stroke="#000" stroke-dasharray="none" stroke-miterlimit="22.926" stroke-width="1.414" d="M0 0h43.66v149.58H0z" class="fil0 str0" transform="rotate(135 -2428.812 11371.556) scale(4.15289 -6.98884)"/>
            <path id="rect23" fill="#ffd42a" stroke="#000" stroke-dasharray="none" stroke-miterlimit="22.926" stroke-width="1.414" d="M0 0h43.66v149.58H0z" class="fil0 str0" transform="rotate(135 -2248.485 11296.874) scale(4.15289 -6.98884)"/>
            <path id="rect25" fill="#ffd42a" stroke="#000" stroke-dasharray="none" stroke-miterlimit="22.926" stroke-width="1.414" d="M0 0h43.66v149.58H0z" class="fil0 str0" transform="rotate(135 -3691.184 11894.468) scale(4.15289 -6.98884)"/>
            <path id="polygon27" fill="#ffd42a" stroke="#000" stroke-miterlimit="22.926" stroke-width="7.62" d="M952.34 24008.05l132.87-132.87-48.71-254.97 913.06 913.06-253.86-47.6-128.09 128.09-57.61 374.81-895.33-917.84z" class="fil0 str0"/>
            <circle id="circle29" cx="0" cy="0" r="159.08" fill="#ffd42a" stroke="#000" stroke-dasharray="none" stroke-miterlimit="22.926" stroke-width="1.71" class="fil0 str0" transform="rotate(-45 30313.828 11420.48) scale(4.11379 -4.82714)"/>
            <path id="path31" fill="#fff" fill-opacity=".502" d="M1009.31 24848.23c79.47-79.47 79.47-208.33 0-287.8-79.48-79.48-208.34-79.48-287.81 0-79.48 79.47-79.48 208.33 0 287.8 79.47 79.48 208.33 79.48 287.81 0z" class="fil1"/>
            <circle id="circle33" cx="0" cy="0" r="29.93" fill="none" stroke="#000" stroke-dasharray="none" stroke-miterlimit="22.926" stroke-width="1.967" class="fil2 str0" transform="scale(3.87352 -3.87352) rotate(45 7810.326 -2919.187)"/>
            <circle id="circle35" cx="0" cy="0" r="29.93" fill="none" stroke="#000" stroke-dasharray="none" stroke-miterlimit="22.926" stroke-width="1.967" class="fil2 str0" transform="scale(3.87352 -3.87352) rotate(45 7660.437 -2981.278)"/>
            <circle id="circle37" cx="0" cy="0" r="29.93" fill="none" stroke="#000" stroke-dasharray="none" stroke-miterlimit="22.926" stroke-width="1.967" class="fil2 str0" transform="scale(3.87352 -3.87352) rotate(45 7947.128 -2862.511)"/>
            <path id="polygon39" fill="#ff7f2a" stroke="#000" stroke-dasharray="none" stroke-miterlimit="22.926" stroke-width="7.62" d="M6331.84 20552.73l450.23-450.23-152.89-152.9 314.2-314.2-22.12-397.54-335.28-335.27-662.04 126.4-17.92-17.92 273.08-505.03-57.95-57.96-1093.53 1093.53-105.49-105.49-206.68 206.68 105.49 105.48-502.9 502.9-105.49-105.49-198.22 198.23 105.49 105.49-2556.64 2556.64 132.27 132.27-300.5 300.49-214.48-50.05-187.71 187.71 965.25 965.24 76.25 9.12 596.75-596.75-86.49-407.01-396.42-396.42-37.96-236.19 1859.91-1859.91 527.19 97 563.02 373.28 67.49-67.49 115.98 115.98 198.22-198.23-88.56-88.56 502.9-502.9 88.56 88.57 206.68-206.68-119.14-119.13 146.55-146.55z" class="str0"/>
            <path id="line41" fill="none" stroke="#000" stroke-miterlimit="22.926" stroke-width="7.62" d="M5856.29 20783.631l-1035.35-1035.352" class="fil2 str0"/>
            <path id="line43" fill="none" stroke="#000" stroke-miterlimit="22.926" stroke-width="7.62" d="M6032.39 20546.391l-1004.77-1004.782" class="fil2 str0"/>
            <path id="line45" fill="none" stroke="#000" stroke-miterlimit="22.926" stroke-width="7.62" d="M5353.39 21286.529L4318.04 20251.18" class="fil2 str0"/>
            <path id="line47" fill="none" stroke="#000" stroke-miterlimit="22.926" stroke-width="7.62" d="M5127.75 21457.34l-1007.93-1007.93" class="fil2 str0"/>
            <path id="polygon49" fill="#ffd42a" stroke="#000" stroke-miterlimit="22.926" stroke-width="7.62" d="M7841.11 18655.87l-902.06 902.06-17.79-320.07-335.28-335.27-662.04 126.4-17.92-17.92 273.08-505.03-15.87-15.88 760.35-760.36-49.25-169.5 85.41-85.4 1136.28 1144.82-85.41 85.4z" class="fil0 str0"/>
            <path id="polygon51" fill="#fff" fill-opacity=".502" d="M1604.06 24161.46l-190.36-190.36 5873.47-5873.46 190.35 190.36z" class="fil1"/>
            <path id="line53" fill="none" stroke="#000" stroke-miterlimit="22.926" stroke-width="7.62" d="M7841.11 18655.869l-917.53-926.068" class="fil2 str0"/>
            <path id="polygon55" fill="#fff" fill-opacity=".502" d="M1368.45 24391.65l-190.36-190.36 103.87-103.86 190.36 190.36z" class="fil1"/>
            <path id="line57" fill="none" stroke="#000" stroke-miterlimit="22.926" stroke-width="7.62" d="M1085.21 23875.18l610.49 610.49" class="fil2 str0"/>
            <path id="path59" fill="#ff2a2a" stroke="#000" stroke-miterlimit="22.926" stroke-width="7.62" d="M6782.07 20102.5l-152.89-152.9c-268.59 39.82-423.43 185.41-450.24 450.24l152.9 152.89z" class="str0"/>
            <path id="path61" fill="#fff" fill-opacity=".502" d="M6289.21 20143.94c25.54-33.63 54.87-60.6 85.7-82.44l211.55 211.55-84.07 84.07z" class="fil1"/>
            <path id="line63" fill="none" stroke="#000" stroke-miterlimit="22.926" stroke-width="7.62" d="M1567.61 24613.76l-610.49-610.49" class="fil2 str0"/>
            <path id="path65" fill="#fff" fill-opacity=".502" d="M558.39 24394.86c17.59-17.59 17.59-46.13 0-63.73-17.6-17.59-46.14-17.59-63.73 0-17.6 17.6-17.6 46.14 0 63.73 17.59 17.6 46.13 17.6 63.73 0z" class="fil1"/>
            <path id="path67" fill="#fff" fill-opacity=".502" d="M1208.95 25045.42c17.6-17.59 17.6-46.13 0-63.72-17.59-17.6-46.13-17.6-63.73 0-17.59 17.59-17.59 46.13 0 63.72 17.6 17.6 46.14 17.6 63.73 0z" class="fil1"/>
            <path id="line69" fill="none" stroke="#000" stroke-miterlimit="22.926" stroke-width="7.62" d="M1495.15 25118.949L468.53 24092.34" class="fil2 str0"/>
            <path id="line71" fill="none" stroke="#000" stroke-miterlimit="22.926" stroke-width="7.62" d="M1302.37 25356.301L216.4 24270.32" class="fil2 str0"/>
        </g>
        <g id="_742850624">
            <path id="path74" fill="#ff2a2a" fill-opacity=".502" d="M8002.28 18491.15L25254.62 1238.81c425.97-668.2-254.36-1353.59-918.23-918.23L7084.05 17572.92z" class="fil5"/>
            <path id="path76" fill="#ff2a2a" fill-opacity=".502" d="M7862.71 18351.58l17171.3-17171.29c354.13-532.1-131.62-1021.79-655.83-655.83L7206.89 17695.76z" class="fil5"/>
            <path id="path78" fill="#fff" fill-opacity=".902" d="M7677.17 18166.04L24848.47 994.75c191.29-254.4-28.68-472.65-294.74-294.74L7382.43 17871.3z" class="fil6"/>
            <path id="polygon80" fill="#fff" fill-opacity=".902" d="M24437.48 583.76l-23.01-23.01-17171.29 17171.3 23 23z" class="fil6"/>
            <path id="polygon82" fill="#fff" fill-opacity=".902" d="M24994.49 1140.77l-23.01-23.01-17171.29 17171.3 23 23z" class="fil6"/>
        </g>
    </g>
</svg>
