<svg xmlns="http://www.w3.org/2000/svg" id="svg91" fill-rule="evenodd" clip-rule="evenodd" image-rendering="optimizeQuality" shape-rendering="geometricPrecision" text-rendering="geometricPrecision" version="1.1" viewBox="0 0 25600 25600" xml:space="preserve">
    <defs id="defs4">
        <style id="style2" type="text/css">
            .str0{stroke:#000;stroke-width:7.62;stroke-miterlimit:22.9256}.fil5{fill:none}.fil2{fill:#ffd42a}.fil4{fill:#fff;fill-opacity:.501961}
        </style>
    </defs>
    <g id="Слой_x0020_1">
        <g id="_741972304">
            <g id="g87" transform="scale(-3.13087 3.13087) rotate(-89.975 -8579.644 16887.488)">
                <path id="path19" fill="#ffd42a" stroke="#000" stroke-miterlimit="22.926" stroke-width="7.62" d="M7187.88 17367.27l1031.78 1031.78c97.1 222.59-69.23 317.07-303.21 303.21-224.88 35.3-304.4 134.09-322.96 322.96-47.69 377.59-475.33 455.23-777.29 549.59l-184.29 184.29-237.59-237.59-1386.78 253.8 1004.58-1004.58c94.35-301.96 172-729.6 549.59-777.29 188.87-18.56 287.66-98.08 322.96-322.96-13.86-233.99 80.62-400.31 303.21-303.21z" class="fil2 str0"/>
                <path id="path21" fill="#ff2a2a" stroke="#000" stroke-dasharray="none" stroke-miterlimit="22.926" stroke-width="7.62" d="M4392.08 19912.16l-432.8 433.86 161.98 161.98c260.18-72.35 368.39-176.87 429.82-436.83z" class="str0"/>
                <path id="path23" fill="#ffd42a" stroke="#000" stroke-miterlimit="22.926" stroke-width="7.62" d="M3195.82 23641.07l-439.41 439.4-145.86-145.86c65.09-251.79 208.83-397.16 438.56-440.25z" class="fil2 str0"/>
                <path id="path25" fill="#ffd42a" stroke="#000" stroke-miterlimit="22.926" stroke-width="7.62" d="M4202.5 20654.02l36.99 35.74c390.24-280.46 583.35-7.54 320.79 320.49l-3138.13 3138.13-357.01-357z" class="fil2 str0"/>
                <path id="polygon27" fill="#fff" fill-opacity=".502" d="M7181.5 18748.87l-362.26-362.26-261.08 261.07 362.27 362.27z" class="fil4"/>
                <path id="polygon29" fill="#fff" fill-opacity=".502" d="M7468.41 18402.92l-303.21-303.21-126.83 126.83 303.21 303.21z" class="fil4"/>
                <path id="polygon31" fill="#fff" fill-opacity=".502" d="M7827.56 18105.85l-365.3-365.3-124.03 124.03 365.3 365.3z" class="fil4"/>
                <path id="rect33" fill="#ffd42a" stroke="#000" stroke-dasharray="none" stroke-miterlimit="22.926" stroke-width="1.809" d="M0 0h43.66v149.58H0z" class="fil2 str0" transform="matrix(-2.89218 2.89218 3.06772 3.06772 3962.34 20672)"/>
                <path id="rect35" fill="#ffd42a" stroke="#000" stroke-dasharray="none" stroke-miterlimit="22.926" stroke-width="1.809" d="M0 0h43.66v149.58H0z" class="fil2 str0" transform="rotate(135 -4062.554 11886.626) scale(4.09016 -4.33841)"/>
                <path id="rect37" fill="#ffd42a" stroke="#000" stroke-dasharray="none" stroke-miterlimit="22.926" stroke-width="1.809" d="M0 0h43.66v149.58H0z" class="fil2 str0" transform="rotate(135 -2477.155 11229.928) scale(4.09016 -4.33841)"/>
                <path id="rect39" fill="#ffd42a" stroke="#000" stroke-dasharray="none" stroke-miterlimit="22.926" stroke-width="1.809" d="M0 0h43.66v149.58H0z" class="fil2 str0" transform="rotate(135 -2654.195 11303.277) scale(4.09016 -4.33841)"/>
                <path id="rect41" fill="#ffd42a" stroke="#000" stroke-dasharray="none" stroke-miterlimit="22.926" stroke-width="1.809" d="M0 0h43.66v149.58H0z" class="fil2 str0" transform="rotate(135 -2831.23 11376.628) scale(4.09016 -4.33841)"/>
                <path id="rect43" fill="#ffd42a" stroke="#000" stroke-dasharray="none" stroke-miterlimit="22.926" stroke-width="1.809" d="M0 0h43.66v149.58H0z" class="fil2 str0" transform="rotate(135 -3008.248 11449.926) scale(4.09016 -4.33841)"/>
                <path id="rect45" fill="#ffd42a" stroke="#000" stroke-dasharray="none" stroke-miterlimit="22.926" stroke-width="1.809" d="M0 0h43.66v149.58H0z" class="fil2 str0" transform="rotate(135 -3185.283 11523.277) scale(4.09016 -4.33841)"/>
                <path id="rect47" fill="#ffd42a" stroke="#000" stroke-dasharray="none" stroke-miterlimit="22.926" stroke-width="1.809" d="M0 0h43.66v149.58H0z" class="fil2 str0" transform="rotate(135 -3362.302 11596.576) scale(4.09016 -4.33841)"/>
                <path id="rect49" fill="#ffd42a" stroke="#000" stroke-dasharray="none" stroke-miterlimit="22.926" stroke-width="1.809" d="M0 0h43.66v149.58H0z" class="fil2 str0" transform="rotate(135 -3539.336 11669.927) scale(4.09016 -4.33841)"/>
                <path id="rect51" fill="#ffd42a" stroke="#000" stroke-dasharray="none" stroke-miterlimit="22.926" stroke-width="1.809" d="M0 0h43.66v149.58H0z" class="fil2 str0" transform="rotate(135 -3716.355 11743.225) scale(4.09016 -4.33841)"/>
                <path id="rect53" fill="#ffd42a" stroke="#000" stroke-dasharray="none" stroke-miterlimit="22.926" stroke-width="1.809" d="M0 0h43.66v149.58H0z" class="fil2 str0" transform="rotate(135 -3893.39 11816.576) scale(4.09016 -4.33841)"/>
                <path id="polygon55" fill="#ffd42a" stroke="#000" stroke-miterlimit="22.926" stroke-width="7.62" d="M1678.42 23873.65l-458.87-458.87-176.63 176.63 6.95 186.26 363.05 361.48z" class="fil2 str0"/>
                <path id="path57" fill="#ffd42a" stroke="#000" stroke-miterlimit="22.926" stroke-width="7.62" d="M573.45 24017.63l977.04 977.05c74.79 351.93-375.35 519.17-756.73 196.99l-417.31-417.31c-336.64-474.51-154.94-831.52 197-756.73z" class="fil2 str0"/>
                <path id="polygon59" fill="#fff" fill-opacity=".502" d="M1190.37 24735.45l-370.56-370.56-131.43 131.44 370.55 370.56z" class="fil4"/>
                <path id="line61" fill="none" stroke="#000" stroke-miterlimit="22.926" stroke-width="7.62" d="M7801.04 18730.359l-945.63-945.619" class="fil5 str0"/>
                <path id="line63" fill="none" stroke="#000" stroke-miterlimit="22.926" stroke-width="7.62" d="M7648.59 18842.85l-904.56-904.561" class="fil5 str0"/>
                <path id="line65" fill="none" stroke="#000" stroke-miterlimit="22.926" stroke-width="7.62" d="M8138.64 18671.711l-1224.77-1224.762" class="fil5 str0"/>
                <path id="line67" fill="none" stroke="#000" stroke-miterlimit="22.926" stroke-width="7.62" d="M6184.14 18279.939l1120 1119.991" class="fil5 str0"/>
                <path id="line69" fill="none" stroke="#000" stroke-miterlimit="22.926" stroke-width="7.62" d="M6456.03 18018.82l1111.91 1111.91" class="fil5 str0"/>
                <path id="path71" fill="#fff" fill-opacity=".502" d="M3043.03 23793.87l-133.82 133.81-227.65-227.65c41.27-48.61 87.5-87.5 148.04-119.6z" class="fil4"/>
                <path id="polygon73" fill="#fff" fill-opacity=".502" d="M4451.16 20321.91l-234.09-234.21-82.8 82.8 242.46 242.66z" class="fil4"/>
                <path id="line75" fill="none" stroke="#000" stroke-miterlimit="22.926" stroke-width="7.62" d="M8247.15 18518.051L7068.18 17339.08" class="fil5 str0"/>
                <path id="line77" fill="none" stroke="#000" stroke-miterlimit="22.926" stroke-width="7.62" d="M463.41 24008.49l1090.33 1090.33" class="fil5 str0"/>
                <path id="line79" fill="none" stroke="#000" stroke-miterlimit="22.926" stroke-width="7.62" d="M278.97 24086.92l1189.93 1189.93" class="fil5 str0"/>
                <path id="line81" fill="none" stroke="#000" stroke-miterlimit="22.926" stroke-width="7.62" d="M6816.2 19574.811l-804.08-804.081" class="fil5 str0"/>
                <path id="path83" fill="#ff7f2a" stroke="#000" stroke-dasharray="none" stroke-miterlimit="22.926" stroke-width="7.62" d="M4069.73 20521.36c266.1-60.93 435.62-218.5 490.57-490.57l212.58-212.58 1621.46-296.7 314.66 314.66-3657.52 3657.53c-228.11 62.43-377.41 206.98-440.91 440.9l-1060.06 1060.07-977.05-977.04 467.92-467.92 8.51 227.95 362.26 362.27 3138.14-3138.14c239.24-332.13 97.64-566.68-311.57-311.57z" class="str0"/>
                <path id="polygon85" fill="#fff" fill-opacity=".502" d="M970.8 24409.82l5337.28-5337.27 187.48 187.48-5337.28 5337.28z" class="fil4"/>
            </g>
        </g>
    </g>
</svg>
