<svg xmlns="http://www.w3.org/2000/svg" id="svg91" fill-rule="evenodd" clip-rule="evenodd" image-rendering="optimizeQuality" shape-rendering="geometricPrecision" text-rendering="geometricPrecision" version="1.1" viewBox="0 0 25600 25600" xml:space="preserve">
    <defs id="defs4">
        <style id="style2" type="text/css">
            .str0{stroke:#000;stroke-width:7.62;stroke-miterlimit:22.9256}.fil5{fill:none}.fil2{fill:#ffd42a}.fil0,.fil1,.fil4{fill:#ff2a2a;fill-opacity:.501961}.fil1,.fil4{fill:#fff}.fil1{fill-opacity:.901961}
        </style>
    </defs>
    <g id="Слой_x0020_1">
        <g id="_741972304">
            <g id="g17" transform="scale(.99834 -.99834) rotate(89.819 25634.023 -20.954)">
                <path id="path7" fill="#ff2a2a" fill-opacity=".502" d="M8219.65 18399.05L25211.4 1407.3c402.73-674.91-362.08-1444.7-1031.77-1031.77L7187.88 17367.27z" class="fil0"/>
                <path id="path9" fill="#ff2a2a" fill-opacity=".502" d="M8062.82 18242.22L24974.75 1330.29c336.44-536.4-209.65-1086.37-736.92-736.92L7325.91 17505.3z" class="fil0"/>
                <path id="path11" fill="#fff" fill-opacity=".902" d="M7854.34 18033.74L24766.27 1121.81c184.02-254.94-63.02-500.29-331.19-331.19L7523.15 17702.55z" class="fil1"/>
                <path id="polygon13" fill="#fff" fill-opacity=".902" d="M24304.46 660l-25.85-25.85L7366.68 17546.08l25.85 25.85z" class="fil1"/>
                <path id="polygon15" fill="#fff" fill-opacity=".902" d="M24930.35 1285.88l-25.85-25.84L7992.57 18171.96l25.85 25.85z" class="fil1"/>
            </g>
            <g id="g87">
                <path id="path19" fill="#ffd42a" stroke="#000" stroke-miterlimit="22.926" stroke-width="7.607" d="M8173.992 18381.46l-1026.805-1033.314c-221.912-97.641-316.76 68.114-303.66 301.748-35.952 224.394-134.828 303.469-323.441 321.403-377.111 46.419-455.97 473.102-551.126 774.26l-184.564 183.402 236.444 237.943-257.751 1383.668 1006.074-999.736c301.754-93.241 728.926-169.412 777.728-546.222 19.125-188.497 98.824-286.871 323.44-321.403 233.557 14.575 399.897-79.223 303.661-301.749z" class="fil2 str0"/>
                <path id="path21" fill="#ff2a2a" stroke="#000" stroke-dasharray="none" stroke-miterlimit="22.926" stroke-width="7.607" d="M5624.525 21164.572l-434.501 430.71-161.2-162.221c73.05-259.518 177.738-367.218 437.458-427.726z" class="str0"/>
                <path id="path23" fill="#ffd42a" stroke="#000" stroke-miterlimit="22.926" stroke-width="7.607" d="M1898.058 22347.075l-440.054 437.291 145.157 146.077c251.576-64.187 397.157-207.229 440.9-436.439z" class="fil2 str0"/>
                <path id="path25" fill="#ffd42a" stroke="#000" stroke-miterlimit="22.926" stroke-width="7.607" d="M4883.304 21351.496l-35.564-37.042c281.224-388.704 9.368-582.353-318.943-321.266l-3142.798 3123 355.278 357.541z" class="fil2 str0"/>
                <path id="polygon27" fill="#fff" fill-opacity=".502" d="M6558.16 18647.68l362.27 362.27 261.07-261.08-362.26-362.26z" class="fil4" transform="scale(.99834 -.99834) rotate(89.819 25634.023 -20.954)"/>
                <path id="polygon29" fill="#fff" fill-opacity=".502" d="M7038.37 18226.54l303.21 303.21 126.83-126.83-303.21-303.21z" class="fil4" transform="scale(.99834 -.99834) rotate(89.819 25634.023 -20.954)"/>
                <path id="polygon31" fill="#fff" fill-opacity=".502" d="M7338.23 17864.58l365.3 365.3 124.03-124.03-365.3-365.3z" class="fil4" transform="scale(.99834 -.99834) rotate(89.819 25634.023 -20.954)"/>
                <path id="rect33" fill="#ffd42a" stroke="#000" stroke-dasharray="none" stroke-miterlimit="22.926" stroke-width="7.607" d="M4864.598 21591.2l-126.461 125.664-456.657-459.553 126.46-125.664z" class="fil2 str0"/>
                <path id="rect35" fill="#ffd42a" stroke="#000" stroke-dasharray="none" stroke-miterlimit="22.926" stroke-width="7.607" d="M2368.49 24071.62l-126.46 125.664-456.657-459.552 126.46-125.664z" class="fil2 str0"/>
                <path id="rect37" fill="#ffd42a" stroke="#000" stroke-dasharray="none" stroke-miterlimit="22.926" stroke-width="7.607" d="M4613.925 21840.343l-126.46 125.664-456.658-459.552 126.46-125.665z" class="fil2 str0"/>
                <path id="rect39" fill="#ffd42a" stroke="#000" stroke-dasharray="none" stroke-miterlimit="22.926" stroke-width="7.607" d="M4363.151 22089.494l-126.46 125.664-456.657-459.552 126.46-125.664z" class="fil2 str0"/>
                <path id="rect41" fill="#ffd42a" stroke="#000" stroke-dasharray="none" stroke-miterlimit="22.926" stroke-width="7.607" d="M4112.38 22338.637l-126.461 125.664-456.657-459.552 126.46-125.664z" class="fil2 str0"/>
                <path id="rect43" fill="#ffd42a" stroke="#000" stroke-dasharray="none" stroke-miterlimit="22.926" stroke-width="7.607" d="M3861.707 22587.79l-126.46 125.665-456.658-459.553 126.461-125.664z" class="fil2 str0"/>
                <path id="rect45" fill="#ffd42a" stroke="#000" stroke-dasharray="none" stroke-miterlimit="22.926" stroke-width="7.607" d="M3610.935 22836.933l-126.46 125.664-456.658-459.552 126.461-125.664z" class="fil2 str0"/>
                <path id="rect47" fill="#ffd42a" stroke="#000" stroke-dasharray="none" stroke-miterlimit="22.926" stroke-width="7.607" d="M3360.262 23086.086L3233.8 23211.75l-456.657-459.552 126.46-125.664z" class="fil2 str0"/>
                <path id="rect49" fill="#ffd42a" stroke="#000" stroke-dasharray="none" stroke-miterlimit="22.926" stroke-width="7.607" d="M3109.49 23335.229l-126.461 125.664-456.657-459.553 126.46-125.664z" class="fil2 str0"/>
                <path id="rect51" fill="#ffd42a" stroke="#000" stroke-dasharray="none" stroke-miterlimit="22.926" stroke-width="7.607" d="M2858.817 23584.382l-126.46 125.664-456.657-459.552 126.46-125.664z" class="fil2 str0"/>
                <path id="rect53" fill="#ffd42a" stroke="#000" stroke-dasharray="none" stroke-miterlimit="22.926" stroke-width="7.607" d="M2608.045 23833.526l-126.461 125.664-456.657-459.552 126.46-125.664z" class="fil2 str0"/>
                <path id="polygon55" fill="#ffd42a" stroke="#000" stroke-miterlimit="22.926" stroke-width="7.6073508" d="M1754.916 24489.017l-359.732-363.585 265.895-264.22 456.657 459.553-176.892 175.778z" class="fil2 str0"/>
                <path id="path57" fill="#ffd42a" stroke="#000" stroke-miterlimit="22.926" stroke-width="7.607" d="M1513.854 24963.886l-972.34-978.493c-351.107-75.776-519.488 373.086-199.048 754.846l415.298 417.931c472.657 337.575 829.645 157.304 756.09-194.284z" class="fil2 str0"/>
                <path id="polygon59" fill="#fff" fill-opacity=".502" d="M688.38 24496.33l370.55 370.56 131.44-131.44-370.56-370.56z" class="fil4" transform="scale(.99834 -.99834) rotate(89.819 25634.023 -20.954)"/>
                <path id="line61" fill="none" stroke="#000" stroke-miterlimit="22.926" stroke-width="7.607" d="M6815.109 17765.021l941.06 947.038" class="fil5 str0"/>
                <path id="line63" fill="none" stroke="#000" stroke-miterlimit="22.926" stroke-width="7.607" d="M6702.326 17916.863l900.199 905.907" class="fil5 str0"/>
                <path id="line65" fill="none" stroke="#000" stroke-miterlimit="22.926" stroke-width="7.607" d="M6874.725 17428.17l1218.857 1226.592" class="fil5 str0"/>
                <path id="line67" fill="none" stroke="#000" stroke-miterlimit="22.926" stroke-width="7.607" d="M7259.678 19380.648l-1114.59-1121.666" class="fil5 str0"/>
                <path id="line69" fill="none" stroke="#000" stroke-miterlimit="22.926" stroke-width="7.607" d="M7521.219 19110.035L6414.67 17996.471" class="fil5 str0"/>
                <path id="path71" fill="#fff" fill-opacity=".502" stroke-width=".998" d="M1745.03 22499.128l-134.008 133.175 226.552 227.989c48.66-41.048 87.63-87.078 119.868-147.416z" class="fil4"/>
                <path id="polygon73" fill="#fff" fill-opacity=".502" d="M4134.27 20170.5l242.46 242.66 74.43-91.25-234.09-234.21z" class="fil4" transform="scale(.99834 -.99834) rotate(89.819 25634.023 -20.954)"/>
                <path id="line75" fill="none" stroke="#000" stroke-miterlimit="22.926" stroke-width="7.607" d="M7028.472 17320.324l1173.286 1180.725" class="fil5 str0"/>
                <path id="line77" fill="none" stroke="#000" stroke-miterlimit="22.926" stroke-width="7.607" d="M1522.631 25073.771L437.558 23981.82" class="fil5 str0"/>
                <path id="line79" fill="none" stroke="#000" stroke-miterlimit="22.926" stroke-width="7.607" d="M1443.75 25257.656L259.558 24065.955" class="fil5 str0"/>
                <path id="line81" fill="none" stroke="#000" stroke-miterlimit="22.926" stroke-width="7.607" d="M5968.959 18745.557l800.204 805.277" class="fil5 str0"/>
                <path id="path83" fill="#ff7f2a" stroke="#000" stroke-dasharray="none" stroke-miterlimit="22.926" stroke-width="7.607" d="M5015.324 21484.463c61.668-265.465 219.51-434.205 491.3-488.205l212.896-211.555 301.32-1617.821-313.143-315.128-3662.97 3639.886c-63.045 227.532-207.825 376.127-441.556 438.783l-1061.646 1054.95 972.329 978.503 468.616-465.664-227.543-9.216-360.524-362.798 3142.808-3123.009c332.331-237.793 566.043-95.69 310.068 312.033z" class="str0"/>
                <path id="polygon85" fill="#fff" fill-opacity=".502" d="M6495.56 19260.03l-5337.28 5337.28-187.48-187.49 5337.28-5337.27z" class="fil4" transform="scale(.99834 -.99834) rotate(89.819 25634.023 -20.954)"/>
            </g>
        </g>
    </g>
</svg>
