<?xml version="1.0" encoding="UTF-8" standalone="no"?>
<svg
   xmlns:dc="http://purl.org/dc/elements/1.1/"
   xmlns:cc="http://creativecommons.org/ns#"
   xmlns:rdf="http://www.w3.org/1999/02/22-rdf-syntax-ns#"
   xmlns:svg="http://www.w3.org/2000/svg"
   xmlns="http://www.w3.org/2000/svg"
   xmlns:sodipodi="http://sodipodi.sourceforge.net/DTD/sodipodi-0.dtd"
   xmlns:inkscape="http://www.inkscape.org/namespaces/inkscape"
   inkscape:version="1.0 (4035a4fb49, 2020-05-01)"
   sodipodi:docname="1.svg"
   viewBox="0 0 725.66931 725.66931"
   id="svg106"
   height=""
   width=""
   version="1.1">
  <metadata
     id="metadata112">
    <rdf:RDF>
      <cc:Work
         rdf:about="">
        <dc:format>image/svg+xml</dc:format>
        <dc:type
           rdf:resource="http://purl.org/dc/dcmitype/StillImage" />
        <dc:title></dc:title>
      </cc:Work>
    </rdf:RDF>
  </metadata>
  <defs
     id="defs110" />
  <sodipodi:namedview
     inkscape:current-layer="svg106"
     inkscape:window-maximized="0"
     inkscape:window-y="0"
     inkscape:window-x="0"
     inkscape:cy="362.83466"
     inkscape:cx="362.83466"
     inkscape:zoom="0.79650605"
     showgrid="false"
     id="namedview108"
     inkscape:window-height="480"
     inkscape:window-width="828"
     inkscape:pageshadow="2"
     inkscape:pageopacity="0"
     guidetolerance="10"
     gridtolerance="10"
     objecttolerance="10"
     borderopacity="1"
     bordercolor="#666666"
     pagecolor="#ffffff" />
  <path
     id="path2"
     style="fill:#ff8080;fill-rule:evenodd;stroke:#000000;stroke-width:0.5669;stroke-linecap:butt;stroke-linejoin:miter;stroke-dasharray:none"
     d="M 362.7893,230.5837 V 708.3723 L 211.2528,656.4047 V 178.6161 Z" />
  <path
     id="path4"
     style="fill:#ff5555;fill-rule:evenodd;stroke:#000000;stroke-width:0.5669;stroke-linecap:butt;stroke-linejoin:miter;stroke-dasharray:none"
     d="m 362.7893,230.5837 v 477.7886 l 151.5365,-51.821 V 178.6161 Z" />
  <path
     id="path6"
     style="fill:#ff8080;fill-rule:evenodd;stroke:#000000;stroke-width:0.5669;stroke-linecap:butt;stroke-linejoin:miter;stroke-dasharray:none"
     d="M 438.5577,99.2066 362.7893,230.5837 211.2528,178.6161 288.9439,47.8984 Z" />
  <path
     id="path8"
     style="fill:#ff8080;fill-rule:evenodd;stroke:#000000;stroke-width:0.5669;stroke-linecap:butt;stroke-linejoin:miter;stroke-dasharray:none"
     d="m 288.9601,17.3874 -0.0162,30.511 149.6138,51.3082 0.0161,-30.5109 z" />
  <path
     id="path10"
     style="fill:#ff2a2a;fill-rule:evenodd;stroke:#000000;stroke-width:0.5669;stroke-linecap:butt;stroke-linejoin:miter;stroke-dasharray:none"
     d="m 413.0436,143.8832 25.5141,-44.6766 75.7681,79.4095 z" />
  <path
     id="path12"
     style="fill:#ff2a2a;fill-rule:evenodd;stroke:#000000;stroke-width:0.5669;stroke-linecap:butt;stroke-linejoin:miter;stroke-dasharray:none"
     d="m 413.0436,143.8832 -50.2543,86.7005 151.5365,-51.9673 z" />
  <path
     id="path14"
     style="fill:#000000;fill-rule:evenodd"
     d="m 257.578,437.9023 6.052,3.5813 c -1.2634,4.5298 -3.5357,7.5288 -6.8165,9.0178 -3.2811,1.4888 -7.2944,1.4338 -12.0407,-0.1754 -4.9054,-1.6634 -8.8977,-4.0153 -11.977,-7.0659 -3.0789,-3.0402 -5.415,-6.7309 -7.0183,-11.0654 -1.6032,-4.3446 -2.4103,-8.6847 -2.4103,-13.0382 0,-4.746 0.9026,-8.5813 2.7182,-11.5013 1.8156,-2.92 4.396,-4.7316 7.7406,-5.4343 3.3446,-0.7027 7.0287,-0.3668 11.0423,0.9941 4.5658,1.548 8.3988,4.0051 11.4993,7.3817 3.111,3.3806 5.277,7.3746 6.4979,11.9931 l -5.9247,-0.6074 c -1.0511,-3.6689 -2.5906,-6.6121 -4.5975,-8.8005 -2.0067,-2.1985 -4.5338,-3.8092 -7.581,-4.8424 -3.4934,-1.1846 -6.4239,-1.3394 -8.7704,-0.4575 -2.3465,0.8818 -4.0028,2.5821 -4.9479,5.0856 -0.9555,2.511 -1.4334,5.2691 -1.4334,8.2741 0,3.8755 0.5626,7.4531 1.6883,10.7229 1.1253,3.2802 2.8774,6.0298 5.2557,8.2695 2.3785,2.2399 4.9479,3.8228 7.7193,4.7625 3.3763,1.1449 6.222,1.133 8.5578,-0.0182 2.336,-1.1616 3.918,-3.5135 4.7463,-7.0761 z m 34.4123,27.6695 v -4.9161 c -2.5693,2.8772 -6.0519,3.5649 -10.4584,2.0707 -1.9431,-0.659 -3.7587,-1.6463 -5.447,-2.9619 -1.6881,-1.326 -2.941,-2.6855 -3.7588,-4.0881 -0.8175,-1.4134 -1.391,-2.988 -1.7201,-4.735 -0.2228,-1.1795 -0.3395,-2.9605 -0.3395,-5.3391 v -20.4604 l 5.606,1.9009 v 18.2945 c 0,2.92 0.1168,4.9345 0.3399,6.0185 0.3504,1.5951 1.0936,2.9937 2.2402,4.2211 1.1362,1.224 2.5379,2.1243 4.2154,2.6932 1.6776,0.5686 3.2491,0.6766 4.7143,0.3135 1.4653,-0.3631 2.5059,-1.1891 3.1215,-2.4559 0.6052,-1.2708 0.9134,-3.3217 0.9134,-6.1356 v -17.6786 l 5.606,1.9009 v 33.0639 z m 13.8351,4.6911 V 437.199 l 5.0329,1.7068 v 4.6717 c 1.0298,-1.2648 2.4103,-2.1027 4.1304,-2.4964 1.72,-0.404 3.6737,-0.2299 5.8716,0.5153 2.4421,0.828 4.4487,2.018 6.0098,3.5561 1.5607,1.5485 2.6648,3.3349 3.3021,5.3773 2.6331,-2.9616 6.0414,-3.7276 10.2461,-2.3017 3.2916,1.116 5.8291,2.8791 7.5917,5.2922 1.7731,2.4169 2.6651,5.5117 2.6651,9.2812 v 22.669 l -5.6063,-1.9009 v -20.8109 c 0,-2.2297 -0.1911,-3.9087 -0.5519,-5.0181 -0.3612,-1.1101 -1.0194,-2.1192 -1.9857,-3.0518 -0.9555,-0.9295 -2.0812,-1.6084 -3.3658,-2.0441 -2.3358,-0.792 -4.2685,-0.6721 -5.808,0.3456 -1.5394,1.0281 -2.304,3.2428 -2.304,6.6407 v 19.1863 l -5.6063,-1.9009 v -21.4586 c 0,-2.4845 -0.4564,-4.5082 -1.3697,-6.0602 -0.9131,-1.5519 -2.4103,-2.6861 -4.4807,-3.3882 -1.5713,-0.5326 -3.026,-0.6117 -4.364,-0.2373 -1.3376,0.3745 -2.304,1.2575 -2.9092,2.6555 -0.5947,1.391 -0.8918,3.5944 -0.8918,6.5994 v 17.1371 z" />
  <path
     id="path16"
     style="fill:none;stroke:#000000;stroke-width:0.5669;stroke-linecap:butt;stroke-linejoin:miter;stroke-dasharray:none"
     d="m 438.5738,68.6957 -0.0161,30.5109" />
  <g
     id="Layer1000">
    <path
       id="path18"
       style="fill:#ff5555;fill-rule:evenodd;stroke:#000000;stroke-width:0.5669;stroke-linecap:butt;stroke-linejoin:miter;stroke-dasharray:none"
       d="m 325.5713,109.8159 a 26.8255,30.7946 43.0251 0 1 28.7416,24.7726 26.8255,30.7946 43.0251 1 1 -28.7416,-24.7726 z" />
    <g
       id="Layer1001">
      <path
         id="path20"
         style="fill:#ff8080;fill-rule:evenodd;stroke:#000000;stroke-width:0.5669;stroke-linecap:butt;stroke-linejoin:miter;stroke-dasharray:none"
         d="m 322.4367,102.3902 3.0529,7.469" />
      <path
         id="path22"
         style="fill:#ff8080;fill-rule:evenodd;stroke:#000000;stroke-width:0.5669;stroke-linecap:butt;stroke-linejoin:miter;stroke-dasharray:none"
         d="m 318.1161,103.3095 3.0529,7.469" />
      <path
         id="path24"
         style="fill:#ff8080;fill-rule:evenodd;stroke:#000000;stroke-width:0.5669;stroke-linecap:butt;stroke-linejoin:miter;stroke-dasharray:none"
         d="m 313.9679,104.8277 3.0529,7.4691" />
      <path
         id="path26"
         style="fill:#ff8080;fill-rule:evenodd;stroke:#000000;stroke-width:0.5669;stroke-linecap:butt;stroke-linejoin:miter;stroke-dasharray:none"
         d="m 310.062,106.8919 3.053,7.469" />
      <path
         id="path28"
         style="fill:#ff8080;fill-rule:evenodd;stroke:#000000;stroke-width:0.5669;stroke-linecap:butt;stroke-linejoin:miter;stroke-dasharray:none"
         d="m 306.4567,109.4451 3.0529,7.469" />
      <path
         id="path30"
         style="fill:#ff8080;fill-rule:evenodd;stroke:#000000;stroke-width:0.5669;stroke-linecap:butt;stroke-linejoin:miter;stroke-dasharray:none"
         d="m 303.2011,112.4317 3.0529,7.469" />
      <path
         id="path32"
         style="fill:#ff8080;fill-rule:evenodd;stroke:#000000;stroke-width:0.5669;stroke-linecap:butt;stroke-linejoin:miter;stroke-dasharray:none"
         d="m 300.3418,115.7998 3.0529,7.469" />
      <path
         id="path34"
         style="fill:#ff8080;fill-rule:evenodd;stroke:#000000;stroke-width:0.5669;stroke-linecap:butt;stroke-linejoin:miter;stroke-dasharray:none"
         d="m 297.9258,119.4987 3.0529,7.469" />
      <path
         id="path36"
         style="fill:#ff8080;fill-rule:evenodd;stroke:#000000;stroke-width:0.5669;stroke-linecap:butt;stroke-linejoin:miter;stroke-dasharray:none"
         d="m 296.0039,123.4766 3.0529,7.469" />
      <path
         id="path38"
         style="fill:#ff8080;fill-rule:evenodd;stroke:#000000;stroke-width:0.5669;stroke-linecap:butt;stroke-linejoin:miter;stroke-dasharray:none"
         d="m 294.6297,127.6747 3.0529,7.469" />
      <path
         id="path40"
         style="fill:#ff8080;fill-rule:evenodd;stroke:#000000;stroke-width:0.5669;stroke-linecap:butt;stroke-linejoin:miter;stroke-dasharray:none"
         d="m 293.8555,132.0233 3.0529,7.469" />
      <path
         id="path42"
         style="fill:#ff8080;fill-rule:evenodd;stroke:#000000;stroke-width:0.5669;stroke-linecap:butt;stroke-linejoin:miter;stroke-dasharray:none"
         d="m 293.726,136.4383 3.0529,7.469" />
      <path
         id="path44"
         style="fill:#ff8080;fill-rule:evenodd;stroke:#000000;stroke-width:0.5669;stroke-linecap:butt;stroke-linejoin:miter;stroke-dasharray:none"
         d="m 294.2804,140.8192 3.053,7.4691" />
      <path
         id="path46"
         style="fill:#ff8080;fill-rule:evenodd;stroke:#000000;stroke-width:0.5669;stroke-linecap:butt;stroke-linejoin:miter;stroke-dasharray:none"
         d="m 295.5586,145.046 3.0529,7.469" />
      <path
         id="path48"
         style="fill:#ff8080;fill-rule:evenodd;stroke:#000000;stroke-width:0.5669;stroke-linecap:butt;stroke-linejoin:miter;stroke-dasharray:none"
         d="m 297.5644,148.9788 3.0529,7.469" />
      <path
         id="path50"
         style="fill:#ff8080;fill-rule:evenodd;stroke:#000000;stroke-width:0.5669;stroke-linecap:butt;stroke-linejoin:miter;stroke-dasharray:none"
         d="m 300.2579,152.4764 3.0529,7.469" />
      <path
         id="path52"
         style="fill:#ff8080;fill-rule:evenodd;stroke:#000000;stroke-width:0.5669;stroke-linecap:butt;stroke-linejoin:miter;stroke-dasharray:none"
         d="m 303.5563,155.41 3.0529,7.469" />
      <path
         id="path54"
         style="fill:#ff8080;fill-rule:evenodd;stroke:#000000;stroke-width:0.5669;stroke-linecap:butt;stroke-linejoin:miter;stroke-dasharray:none"
         d="m 307.3428,157.68 3.0529,7.469" />
      <path
         id="path56"
         style="fill:#ff8080;fill-rule:evenodd;stroke:#000000;stroke-width:0.5669;stroke-linecap:butt;stroke-linejoin:miter;stroke-dasharray:none"
         d="m 311.4791,159.2237 3.0529,7.4691" />
      <path
         id="path58"
         style="fill:#ff8080;fill-rule:evenodd;stroke:#000000;stroke-width:0.5669;stroke-linecap:butt;stroke-linejoin:miter;stroke-dasharray:none"
         d="m 315.822,160.0217 3.053,7.469" />
      <path
         id="path60"
         style="fill:#ff8080;fill-rule:evenodd;stroke:#000000;stroke-width:0.5669;stroke-linecap:butt;stroke-linejoin:miter;stroke-dasharray:none"
         d="m 320.2376,160.094 3.0529,7.469" />
      <path
         id="path62"
         style="fill:#ff8080;fill-rule:evenodd;stroke:#000000;stroke-width:0.5669;stroke-linecap:butt;stroke-linejoin:miter;stroke-dasharray:none"
         d="m 324.6131,159.4913 3.0529,7.469" />
      <path
         id="path64"
         style="fill:#ff8080;fill-rule:evenodd;stroke:#000000;stroke-width:0.5669;stroke-linecap:butt;stroke-linejoin:miter;stroke-dasharray:none"
         d="m 328.8574,158.2665 3.053,7.469" />
      <path
         id="path66"
         style="fill:#ff8080;fill-rule:evenodd;stroke:#000000;stroke-width:0.5669;stroke-linecap:butt;stroke-linejoin:miter;stroke-dasharray:none"
         d="m 332.8923,156.4682 3.0529,7.469" />
      <path
         id="path68"
         style="fill:#ff8080;fill-rule:evenodd;stroke:#000000;stroke-width:0.5669;stroke-linecap:butt;stroke-linejoin:miter;stroke-dasharray:none"
         d="m 336.6544,154.1526 3.0529,7.469" />
      <path
         id="path70"
         style="fill:#ff8080;fill-rule:evenodd;stroke:#000000;stroke-width:0.5669;stroke-linecap:butt;stroke-linejoin:miter;stroke-dasharray:none"
         d="m 340.0909,151.3757 3.0529,7.4691" />
      <path
         id="path72"
         style="fill:#ff8080;fill-rule:evenodd;stroke:#000000;stroke-width:0.5669;stroke-linecap:butt;stroke-linejoin:miter;stroke-dasharray:none"
         d="m 343.154,148.1922 3.0529,7.469" />
      <path
         id="path74"
         style="fill:#ff8080;fill-rule:evenodd;stroke:#000000;stroke-width:0.5669;stroke-linecap:butt;stroke-linejoin:miter;stroke-dasharray:none"
         d="m 345.7979,144.6525 3.0529,7.469" />
      <path
         id="path76"
         style="fill:#ff8080;fill-rule:evenodd;stroke:#000000;stroke-width:0.5669;stroke-linecap:butt;stroke-linejoin:miter;stroke-dasharray:none"
         d="m 347.9732,140.8073 3.0529,7.469" />
      <path
         id="path78"
         style="fill:#ff8080;fill-rule:evenodd;stroke:#000000;stroke-width:0.5669;stroke-linecap:butt;stroke-linejoin:miter;stroke-dasharray:none"
         d="m 349.6283,136.7113 3.0529,7.469" />
      <path
         id="path80"
         style="fill:#ff8080;fill-rule:evenodd;stroke:#000000;stroke-width:0.5669;stroke-linecap:butt;stroke-linejoin:miter;stroke-dasharray:none"
         d="m 350.7086,132.4284 3.0529,7.469" />
      <path
         id="path82"
         style="fill:#ff8080;fill-rule:evenodd;stroke:#000000;stroke-width:0.5669;stroke-linecap:butt;stroke-linejoin:miter;stroke-dasharray:none"
         d="m 351.165,128.035 3.0529,7.469" />
      <path
         id="path84"
         style="fill:#ff8080;fill-rule:evenodd;stroke:#000000;stroke-width:0.5669;stroke-linecap:butt;stroke-linejoin:miter;stroke-dasharray:none"
         d="m 350.9586,123.6231 3.0529,7.4691" />
      <path
         id="path86"
         style="fill:#ff8080;fill-rule:evenodd;stroke:#000000;stroke-width:0.5669;stroke-linecap:butt;stroke-linejoin:miter;stroke-dasharray:none"
         d="m 350.0453,119.3031 3.0529,7.4691" />
      <path
         id="path88"
         style="fill:#ff8080;fill-rule:evenodd;stroke:#000000;stroke-width:0.5669;stroke-linecap:butt;stroke-linejoin:miter;stroke-dasharray:none"
         d="m 348.4012,115.2057 3.0529,7.469" />
      <path
         id="path90"
         style="fill:#ff8080;fill-rule:evenodd;stroke:#000000;stroke-width:0.5669;stroke-linecap:butt;stroke-linejoin:miter;stroke-dasharray:none"
         d="m 346.0436,111.473 3.0529,7.469" />
      <path
         id="path92"
         style="fill:#ff8080;fill-rule:evenodd;stroke:#000000;stroke-width:0.5669;stroke-linecap:butt;stroke-linejoin:miter;stroke-dasharray:none"
         d="m 343.0349,108.2426 3.0529,7.4691" />
      <path
         id="path94"
         style="fill:#ff8080;fill-rule:evenodd;stroke:#000000;stroke-width:0.5669;stroke-linecap:butt;stroke-linejoin:miter;stroke-dasharray:none"
         d="m 339.4763,105.6305 3.0529,7.469" />
      <path
         id="path96"
         style="fill:#ff8080;fill-rule:evenodd;stroke:#000000;stroke-width:0.5669;stroke-linecap:butt;stroke-linejoin:miter;stroke-dasharray:none"
         d="m 335.4968,103.7186 3.0529,7.469" />
      <path
         id="path98"
         style="fill:#ff8080;fill-rule:evenodd;stroke:#000000;stroke-width:0.5669;stroke-linecap:butt;stroke-linejoin:miter;stroke-dasharray:none"
         d="m 331.2397,102.5478 3.0529,7.4691" />
      <path
         id="path100"
         style="fill:#ff8080;fill-rule:evenodd;stroke:#000000;stroke-width:0.5669;stroke-linecap:butt;stroke-linejoin:miter;stroke-dasharray:none"
         d="m 326.8451,102.1175 3.0529,7.4691" />
    </g>
    <path
       id="path103"
       style="fill:#ff8080;fill-rule:evenodd;stroke:#000000;stroke-width:0.5669;stroke-linecap:butt;stroke-linejoin:miter;stroke-dasharray:none"
       d="m 322.0563,102.5941 a 26.8255,30.7946 43.0251 0 1 28.7416,24.7726 26.8255,30.7946 43.0251 1 1 -28.7416,-24.7726 z" />
  </g>
</svg>
