<?xml version="1.0" encoding="UTF-8" standalone="no"?>
<svg
   xmlns:dc="http://purl.org/dc/elements/1.1/"
   xmlns:cc="http://creativecommons.org/ns#"
   xmlns:rdf="http://www.w3.org/1999/02/22-rdf-syntax-ns#"
   xmlns:svg="http://www.w3.org/2000/svg"
   xmlns="http://www.w3.org/2000/svg"
   xmlns:sodipodi="http://sodipodi.sourceforge.net/DTD/sodipodi-0.dtd"
   xmlns:inkscape="http://www.inkscape.org/namespaces/inkscape"
   inkscape:version="1.0 (4035a4fb49, 2020-05-01)"
   sodipodi:docname="1.svg"
   viewBox="0 0 725.66931 725.66931"
   id="svg106"
   height=""
   width=""
   version="1.1">
  <metadata
     id="metadata112">
    <rdf:RDF>
      <cc:Work
         rdf:about="">
        <dc:format>image/svg+xml</dc:format>
        <dc:type
           rdf:resource="http://purl.org/dc/dcmitype/StillImage" />
        <dc:title></dc:title>
      </cc:Work>
    </rdf:RDF>
  </metadata>
  <defs
     id="defs110" />
  <sodipodi:namedview
     inkscape:current-layer="svg106"
     inkscape:window-maximized="0"
     inkscape:window-y="0"
     inkscape:window-x="0"
     inkscape:cy="362.83466"
     inkscape:cx="362.83466"
     inkscape:zoom="0.79650605"
     showgrid="false"
     id="namedview108"
     inkscape:window-height="480"
     inkscape:window-width="828"
     inkscape:pageshadow="2"
     inkscape:pageopacity="0"
     guidetolerance="10"
     gridtolerance="10"
     objecttolerance="10"
     borderopacity="1"
     bordercolor="#666666"
     pagecolor="#ffffff" />
  <path
     id="path2"
     style="fill:#ff8080;fill-rule:evenodd;stroke:#000000;stroke-width:0.5669;stroke-linecap:butt;stroke-linejoin:miter;stroke-dasharray:none"
     d="M 362.7893,230.5837 V 708.3723 L 211.2528,656.4047 V 178.6161 Z" />
  <path
     id="path4"
     style="fill:#ff5555;fill-rule:evenodd;stroke:#000000;stroke-width:0.5669;stroke-linecap:butt;stroke-linejoin:miter;stroke-dasharray:none"
     d="m 362.7893,230.5837 v 477.7886 l 151.5365,-51.821 V 178.6161 Z" />
  <path
     id="path6"
     style="fill:#ff8080;fill-rule:evenodd;stroke:#000000;stroke-width:0.5669;stroke-linecap:butt;stroke-linejoin:miter;stroke-dasharray:none"
     d="M 438.5577,99.2066 362.7893,230.5837 211.2528,178.6161 288.9439,47.8984 Z" />
  <path
     id="path8"
     style="fill:#ff8080;fill-rule:evenodd;stroke:#000000;stroke-width:0.5669;stroke-linecap:butt;stroke-linejoin:miter;stroke-dasharray:none"
     d="m 288.9601,17.3874 -0.0162,30.511 149.6138,51.3082 0.0161,-30.5109 z" />
  <path
     id="path10"
     style="fill:#ff2a2a;fill-rule:evenodd;stroke:#000000;stroke-width:0.5669;stroke-linecap:butt;stroke-linejoin:miter;stroke-dasharray:none"
     d="m 413.0436,143.8832 25.5141,-44.6766 75.7681,79.4095 z" />
  <path
     id="path12"
     style="fill:#ff2a2a;fill-rule:evenodd;stroke:#000000;stroke-width:0.5669;stroke-linecap:butt;stroke-linejoin:miter;stroke-dasharray:none"
     d="m 413.0436,143.8832 -50.2543,86.7005 151.5365,-51.9673 z" />
  <path
     id="path14"
     style="fill:#000000;fill-rule:evenodd"
     d="m 263.9146,399.0736 v -5.4051 l 19.4975,6.6112 v 17.074 c -2.9919,1.3663 -6.0809,2.1206 -9.2661,2.2419 -3.1853,0.1207 -6.4562,-0.3875 -9.8025,-1.5222 -4.5258,-1.5347 -8.6335,-3.8925 -12.3336,-7.0883 -3.6893,-3.1814 -6.4885,-6.9407 -8.3653,-11.2343 -1.8876,-4.3078 -2.8315,-8.7248 -2.8315,-13.2401 0,-4.483 0.9331,-8.3491 2.81,-11.6058 1.8768,-3.246 4.5688,-5.2181 8.0866,-5.9021 3.5175,-0.695 7.5717,-0.2642 12.1618,1.2921 3.3248,1.1273 6.3385,2.6855 9.0303,4.6817 2.6921,1.9961 4.8048,4.214 6.3278,6.65 1.5335,2.4503 2.6918,5.3635 3.4855,8.7322 l -5.5018,-0.364 c -0.697,-2.5744 -1.5551,-4.71 -2.5738,-6.4069 -1.0299,-1.6897 -2.4883,-3.257 -4.3974,-4.7083 -1.8984,-1.4482 -4.011,-2.5722 -6.3383,-3.3613 -2.7777,-0.942 -5.18,-1.3272 -7.2178,-1.171 -2.0271,0.1596 -3.6573,0.7222 -4.9119,1.6914 -1.2441,0.9615 -2.2093,2.1572 -2.8959,3.5762 -1.169,2.467 -1.7589,5.3558 -1.7589,8.6913 0,4.1182 0.7078,7.8007 2.113,11.0548 1.4156,3.2471 3.4747,6.0044 6.1667,8.2579 2.7026,2.257 5.5661,3.9036 8.6012,4.9326 2.6385,0.8946 5.2123,1.2526 7.7218,1.0848 2.5098,-0.1786 4.4082,-0.6179 5.7059,-1.347 v -8.6338 z m 27.788,-12.1345 v -6.4347 l 5.6625,1.9199 v 6.4347 z m 0,39.6391 v -33.3973 l 5.6625,1.92 v 33.3972 z m 14.2319,4.8257 v -33.3973 l 5.0834,1.7235 v 5.116 c 1.2977,-1.9301 2.499,-3.0887 3.6037,-3.4648 1.1046,-0.3869 2.3164,-0.3515 3.6357,0.0958 1.9088,0.6474 3.8503,1.9063 5.8235,3.7658 l -2.0163,4.5391 c -1.3728,-1.2376 -2.7456,-2.0891 -4.1182,-2.5545 -1.2333,-0.4181 -2.338,-0.4173 -3.314,-0.008 -0.9759,0.4091 -1.6732,1.2022 -2.0914,2.3794 -0.6326,1.7913 -0.9439,3.8844 -0.9439,6.276 v 17.4492 z m 21.3639,7.2439 V 392.574 l 5.6625,1.9202 v 46.0738 z m -70.0172,31.985 6.1132,3.6173 c -1.2761,4.5757 -3.5713,7.6048 -6.8853,9.1086 -3.314,1.5038 -7.3678,1.4485 -12.1621,-0.1772 -4.9547,-1.6798 -8.9872,-4.0552 -12.0974,-7.1368 -3.1102,-3.071 -5.4697,-6.7989 -7.0892,-11.1767 -1.6194,-4.3889 -2.4346,-8.7729 -2.4346,-13.17 0,-4.794 0.9116,-8.6675 2.7456,-11.6173 1.834,-2.9494 4.4402,-4.7789 7.8185,-5.4887 3.3784,-0.7101 7.0997,-0.3708 11.1538,1.004 4.6117,1.5636 8.4832,4.0456 11.6149,7.4563 3.1425,3.4143 5.3303,7.4486 6.5637,12.1138 l -5.9845,-0.6137 c -1.0616,-3.7057 -2.617,-6.6787 -4.6438,-8.8886 -2.027,-2.2212 -4.5796,-3.848 -7.6575,-4.8917 -3.5285,-1.1965 -6.4885,-1.353 -8.8588,-0.4621 -2.37,0.891 -4.0433,2.6079 -4.9978,5.1373 -0.9652,2.5361 -1.4479,5.3217 -1.4479,8.3571 0,3.9143 0.5686,7.5285 1.7053,10.8312 1.137,3.3134 2.9064,6.0902 5.3087,8.3528 2.4024,2.2621 4.9978,3.8608 7.797,4.8098 3.4107,1.1566 6.2847,1.1447 8.6443,-0.0178 2.3595,-1.1736 3.9574,-3.5487 4.7939,-7.1476 z m 34.7593,27.9485 v -4.9657 c -2.5954,2.9058 -6.1132,3.6005 -10.5642,2.0914 -1.9624,-0.6653 -3.7964,-1.6626 -5.5017,-2.9917 -1.7053,-1.3397 -2.9707,-2.7125 -3.7965,-4.1293 -0.826,-1.4275 -1.4051,-3.0183 -1.7376,-4.7826 -0.2251,-1.1917 -0.343,-2.9905 -0.343,-5.3929 v -20.6668 l 5.6625,1.9199 v 18.479 c 0,2.9492 0.1182,4.9845 0.3433,6.0795 0.354,1.6107 1.1046,3.0234 2.2629,4.2636 1.1477,1.2365 2.5633,2.1453 4.2579,2.7198 1.6945,0.5746 3.2817,0.684 4.7616,0.317 1.4803,-0.3666 2.5311,-1.2008 3.1533,-2.4806 0.6111,-1.2836 0.9224,-3.3551 0.9224,-6.1974 v -17.8569 l 5.6625,1.9202 v 33.3972 z m 13.9745,4.7384 v -33.3972 l 5.0834,1.7237 v 4.7191 c 1.0403,-1.2776 2.4347,-2.124 4.172,-2.5217 1.7374,-0.4079 3.7109,-0.2324 5.931,0.5205 2.4667,0.8365 4.4937,2.0384 6.0701,3.592 1.5766,1.5642 2.692,3.3687 3.3355,5.4315 2.6597,-2.9914 6.1024,-3.7653 10.3493,-2.325 3.3247,1.1274 5.8881,2.9081 7.6683,5.3456 1.7912,2.4415 2.692,5.5675 2.692,9.375 v 22.8974 l -5.6627,-1.9202 v -21.0206 c 0,-2.2524 -0.1931,-3.9478 -0.5576,-5.0689 -0.3648,-1.1214 -1.0296,-2.1404 -2.0055,-3.0824 -0.9655,-0.9388 -2.1022,-1.6245 -3.3999,-2.0644 -2.3596,-0.8003 -4.3115,-0.6789 -5.8666,0.3486 -1.5551,1.0386 -2.3272,3.2757 -2.3272,6.7076 v 19.38 l -5.6628,-1.9202 v -21.6749 c 0,-2.5098 -0.4612,-4.5535 -1.3833,-6.1211 -0.9224,-1.5676 -2.4347,-2.713 -4.5261,-3.4223 -1.5871,-0.5383 -3.0566,-0.6182 -4.4079,-0.2398 -1.3512,0.3784 -2.3272,1.2702 -2.9384,2.6822 -0.6006,1.4051 -0.9011,3.6306 -0.9011,6.6659 v 17.3098 z" />
  <path
     id="path16"
     style="fill:none;stroke:#000000;stroke-width:0.5669;stroke-linecap:butt;stroke-linejoin:miter;stroke-dasharray:none"
     d="m 438.5738,68.6957 -0.0161,30.5109" />
  <g
     id="Layer1000">
    <path
       id="path18"
       style="fill:#ff5555;fill-rule:evenodd;stroke:#000000;stroke-width:0.5669;stroke-linecap:butt;stroke-linejoin:miter;stroke-dasharray:none"
       d="m 325.5713,109.8159 a 26.8255,30.7946 43.0251 0 1 28.7416,24.7726 26.8255,30.7946 43.0251 1 1 -28.7416,-24.7726 z" />
    <g
       id="Layer1001">
      <path
         id="path20"
         style="fill:#ff8080;fill-rule:evenodd;stroke:#000000;stroke-width:0.5669;stroke-linecap:butt;stroke-linejoin:miter;stroke-dasharray:none"
         d="m 322.4367,102.3902 3.0529,7.469" />
      <path
         id="path22"
         style="fill:#ff8080;fill-rule:evenodd;stroke:#000000;stroke-width:0.5669;stroke-linecap:butt;stroke-linejoin:miter;stroke-dasharray:none"
         d="m 318.1161,103.3095 3.0529,7.469" />
      <path
         id="path24"
         style="fill:#ff8080;fill-rule:evenodd;stroke:#000000;stroke-width:0.5669;stroke-linecap:butt;stroke-linejoin:miter;stroke-dasharray:none"
         d="m 313.9679,104.8277 3.0529,7.4691" />
      <path
         id="path26"
         style="fill:#ff8080;fill-rule:evenodd;stroke:#000000;stroke-width:0.5669;stroke-linecap:butt;stroke-linejoin:miter;stroke-dasharray:none"
         d="m 310.062,106.8919 3.053,7.469" />
      <path
         id="path28"
         style="fill:#ff8080;fill-rule:evenodd;stroke:#000000;stroke-width:0.5669;stroke-linecap:butt;stroke-linejoin:miter;stroke-dasharray:none"
         d="m 306.4567,109.4451 3.0529,7.469" />
      <path
         id="path30"
         style="fill:#ff8080;fill-rule:evenodd;stroke:#000000;stroke-width:0.5669;stroke-linecap:butt;stroke-linejoin:miter;stroke-dasharray:none"
         d="m 303.2011,112.4317 3.0529,7.469" />
      <path
         id="path32"
         style="fill:#ff8080;fill-rule:evenodd;stroke:#000000;stroke-width:0.5669;stroke-linecap:butt;stroke-linejoin:miter;stroke-dasharray:none"
         d="m 300.3418,115.7998 3.0529,7.469" />
      <path
         id="path34"
         style="fill:#ff8080;fill-rule:evenodd;stroke:#000000;stroke-width:0.5669;stroke-linecap:butt;stroke-linejoin:miter;stroke-dasharray:none"
         d="m 297.9258,119.4987 3.0529,7.469" />
      <path
         id="path36"
         style="fill:#ff8080;fill-rule:evenodd;stroke:#000000;stroke-width:0.5669;stroke-linecap:butt;stroke-linejoin:miter;stroke-dasharray:none"
         d="m 296.0039,123.4766 3.0529,7.469" />
      <path
         id="path38"
         style="fill:#ff8080;fill-rule:evenodd;stroke:#000000;stroke-width:0.5669;stroke-linecap:butt;stroke-linejoin:miter;stroke-dasharray:none"
         d="m 294.6297,127.6747 3.0529,7.469" />
      <path
         id="path40"
         style="fill:#ff8080;fill-rule:evenodd;stroke:#000000;stroke-width:0.5669;stroke-linecap:butt;stroke-linejoin:miter;stroke-dasharray:none"
         d="m 293.8555,132.0233 3.0529,7.469" />
      <path
         id="path42"
         style="fill:#ff8080;fill-rule:evenodd;stroke:#000000;stroke-width:0.5669;stroke-linecap:butt;stroke-linejoin:miter;stroke-dasharray:none"
         d="m 293.726,136.4383 3.0529,7.469" />
      <path
         id="path44"
         style="fill:#ff8080;fill-rule:evenodd;stroke:#000000;stroke-width:0.5669;stroke-linecap:butt;stroke-linejoin:miter;stroke-dasharray:none"
         d="m 294.2804,140.8192 3.053,7.4691" />
      <path
         id="path46"
         style="fill:#ff8080;fill-rule:evenodd;stroke:#000000;stroke-width:0.5669;stroke-linecap:butt;stroke-linejoin:miter;stroke-dasharray:none"
         d="m 295.5586,145.046 3.0529,7.469" />
      <path
         id="path48"
         style="fill:#ff8080;fill-rule:evenodd;stroke:#000000;stroke-width:0.5669;stroke-linecap:butt;stroke-linejoin:miter;stroke-dasharray:none"
         d="m 297.5644,148.9788 3.0529,7.469" />
      <path
         id="path50"
         style="fill:#ff8080;fill-rule:evenodd;stroke:#000000;stroke-width:0.5669;stroke-linecap:butt;stroke-linejoin:miter;stroke-dasharray:none"
         d="m 300.2579,152.4764 3.0529,7.469" />
      <path
         id="path52"
         style="fill:#ff8080;fill-rule:evenodd;stroke:#000000;stroke-width:0.5669;stroke-linecap:butt;stroke-linejoin:miter;stroke-dasharray:none"
         d="m 303.5563,155.41 3.0529,7.469" />
      <path
         id="path54"
         style="fill:#ff8080;fill-rule:evenodd;stroke:#000000;stroke-width:0.5669;stroke-linecap:butt;stroke-linejoin:miter;stroke-dasharray:none"
         d="m 307.3428,157.68 3.0529,7.469" />
      <path
         id="path56"
         style="fill:#ff8080;fill-rule:evenodd;stroke:#000000;stroke-width:0.5669;stroke-linecap:butt;stroke-linejoin:miter;stroke-dasharray:none"
         d="m 311.4791,159.2237 3.0529,7.4691" />
      <path
         id="path58"
         style="fill:#ff8080;fill-rule:evenodd;stroke:#000000;stroke-width:0.5669;stroke-linecap:butt;stroke-linejoin:miter;stroke-dasharray:none"
         d="m 315.822,160.0217 3.053,7.469" />
      <path
         id="path60"
         style="fill:#ff8080;fill-rule:evenodd;stroke:#000000;stroke-width:0.5669;stroke-linecap:butt;stroke-linejoin:miter;stroke-dasharray:none"
         d="m 320.2376,160.094 3.0529,7.469" />
      <path
         id="path62"
         style="fill:#ff8080;fill-rule:evenodd;stroke:#000000;stroke-width:0.5669;stroke-linecap:butt;stroke-linejoin:miter;stroke-dasharray:none"
         d="m 324.6131,159.4913 3.0529,7.469" />
      <path
         id="path64"
         style="fill:#ff8080;fill-rule:evenodd;stroke:#000000;stroke-width:0.5669;stroke-linecap:butt;stroke-linejoin:miter;stroke-dasharray:none"
         d="m 328.8574,158.2665 3.053,7.469" />
      <path
         id="path66"
         style="fill:#ff8080;fill-rule:evenodd;stroke:#000000;stroke-width:0.5669;stroke-linecap:butt;stroke-linejoin:miter;stroke-dasharray:none"
         d="m 332.8923,156.4682 3.0529,7.469" />
      <path
         id="path68"
         style="fill:#ff8080;fill-rule:evenodd;stroke:#000000;stroke-width:0.5669;stroke-linecap:butt;stroke-linejoin:miter;stroke-dasharray:none"
         d="m 336.6544,154.1526 3.0529,7.469" />
      <path
         id="path70"
         style="fill:#ff8080;fill-rule:evenodd;stroke:#000000;stroke-width:0.5669;stroke-linecap:butt;stroke-linejoin:miter;stroke-dasharray:none"
         d="m 340.0909,151.3757 3.0529,7.4691" />
      <path
         id="path72"
         style="fill:#ff8080;fill-rule:evenodd;stroke:#000000;stroke-width:0.5669;stroke-linecap:butt;stroke-linejoin:miter;stroke-dasharray:none"
         d="m 343.154,148.1922 3.0529,7.469" />
      <path
         id="path74"
         style="fill:#ff8080;fill-rule:evenodd;stroke:#000000;stroke-width:0.5669;stroke-linecap:butt;stroke-linejoin:miter;stroke-dasharray:none"
         d="m 345.7979,144.6525 3.0529,7.469" />
      <path
         id="path76"
         style="fill:#ff8080;fill-rule:evenodd;stroke:#000000;stroke-width:0.5669;stroke-linecap:butt;stroke-linejoin:miter;stroke-dasharray:none"
         d="m 347.9732,140.8073 3.0529,7.469" />
      <path
         id="path78"
         style="fill:#ff8080;fill-rule:evenodd;stroke:#000000;stroke-width:0.5669;stroke-linecap:butt;stroke-linejoin:miter;stroke-dasharray:none"
         d="m 349.6283,136.7113 3.0529,7.469" />
      <path
         id="path80"
         style="fill:#ff8080;fill-rule:evenodd;stroke:#000000;stroke-width:0.5669;stroke-linecap:butt;stroke-linejoin:miter;stroke-dasharray:none"
         d="m 350.7086,132.4284 3.0529,7.469" />
      <path
         id="path82"
         style="fill:#ff8080;fill-rule:evenodd;stroke:#000000;stroke-width:0.5669;stroke-linecap:butt;stroke-linejoin:miter;stroke-dasharray:none"
         d="m 351.165,128.035 3.0529,7.469" />
      <path
         id="path84"
         style="fill:#ff8080;fill-rule:evenodd;stroke:#000000;stroke-width:0.5669;stroke-linecap:butt;stroke-linejoin:miter;stroke-dasharray:none"
         d="m 350.9586,123.6231 3.0529,7.4691" />
      <path
         id="path86"
         style="fill:#ff8080;fill-rule:evenodd;stroke:#000000;stroke-width:0.5669;stroke-linecap:butt;stroke-linejoin:miter;stroke-dasharray:none"
         d="m 350.0453,119.3031 3.0529,7.4691" />
      <path
         id="path88"
         style="fill:#ff8080;fill-rule:evenodd;stroke:#000000;stroke-width:0.5669;stroke-linecap:butt;stroke-linejoin:miter;stroke-dasharray:none"
         d="m 348.4012,115.2057 3.0529,7.469" />
      <path
         id="path90"
         style="fill:#ff8080;fill-rule:evenodd;stroke:#000000;stroke-width:0.5669;stroke-linecap:butt;stroke-linejoin:miter;stroke-dasharray:none"
         d="m 346.0436,111.473 3.0529,7.469" />
      <path
         id="path92"
         style="fill:#ff8080;fill-rule:evenodd;stroke:#000000;stroke-width:0.5669;stroke-linecap:butt;stroke-linejoin:miter;stroke-dasharray:none"
         d="m 343.0349,108.2426 3.0529,7.4691" />
      <path
         id="path94"
         style="fill:#ff8080;fill-rule:evenodd;stroke:#000000;stroke-width:0.5669;stroke-linecap:butt;stroke-linejoin:miter;stroke-dasharray:none"
         d="m 339.4763,105.6305 3.0529,7.469" />
      <path
         id="path96"
         style="fill:#ff8080;fill-rule:evenodd;stroke:#000000;stroke-width:0.5669;stroke-linecap:butt;stroke-linejoin:miter;stroke-dasharray:none"
         d="m 335.4968,103.7186 3.0529,7.469" />
      <path
         id="path98"
         style="fill:#ff8080;fill-rule:evenodd;stroke:#000000;stroke-width:0.5669;stroke-linecap:butt;stroke-linejoin:miter;stroke-dasharray:none"
         d="m 331.2397,102.5478 3.0529,7.4691" />
      <path
         id="path100"
         style="fill:#ff8080;fill-rule:evenodd;stroke:#000000;stroke-width:0.5669;stroke-linecap:butt;stroke-linejoin:miter;stroke-dasharray:none"
         d="m 326.8451,102.1175 3.0529,7.4691" />
    </g>
    <path
       id="path103"
       style="fill:#ff8080;fill-rule:evenodd;stroke:#000000;stroke-width:0.5669;stroke-linecap:butt;stroke-linejoin:miter;stroke-dasharray:none"
       d="m 322.0563,102.5941 a 26.8255,30.7946 43.0251 0 1 28.7416,24.7726 26.8255,30.7946 43.0251 1 1 -28.7416,-24.7726 z" />
  </g>
</svg>
