<?xml version="1.0" encoding="UTF-8" standalone="no"?>
<svg
   xmlns:dc="http://purl.org/dc/elements/1.1/"
   xmlns:cc="http://creativecommons.org/ns#"
   xmlns:rdf="http://www.w3.org/1999/02/22-rdf-syntax-ns#"
   xmlns:svg="http://www.w3.org/2000/svg"
   xmlns="http://www.w3.org/2000/svg"
   xmlns:sodipodi="http://sodipodi.sourceforge.net/DTD/sodipodi-0.dtd"
   xmlns:inkscape="http://www.inkscape.org/namespaces/inkscape"
   version="1.1"
   width=""
   height=""
   id="svg6"
   viewBox="0 0 725.66931 725.66931"
   sodipodi:docname="on_mod (2).svg"
   inkscape:version="1.0 (4035a4fb49, 2020-05-01)">
  <metadata
     id="metadata12">
    <rdf:RDF>
      <cc:Work
         rdf:about="">
        <dc:format>image/svg+xml</dc:format>
        <dc:type
           rdf:resource="http://purl.org/dc/dcmitype/StillImage" />
        <dc:title />
      </cc:Work>
    </rdf:RDF>
  </metadata>
  <defs
     id="defs10" />
  <sodipodi:namedview
     inkscape:document-rotation="0"
     pagecolor="#ffffff"
     bordercolor="#666666"
     borderopacity="1"
     objecttolerance="10"
     gridtolerance="10"
     guidetolerance="10"
     inkscape:pageopacity="0"
     inkscape:pageshadow="2"
     inkscape:window-width="1304"
     inkscape:window-height="746"
     id="namedview8"
     showgrid="false"
     inkscape:zoom="0.79650605"
     inkscape:cx="362.83466"
     inkscape:cy="362.83466"
     inkscape:window-x="-8"
     inkscape:window-y="-8"
     inkscape:window-maximized="1"
     inkscape:current-layer="svg6" />
  <path
     d="m 243.0145,540.4437 32.4892,-19.3839 c 15.8345,26.6643 22.2506,52.5553 19.3384,77.7637 -2.9122,25.2084 -14.5155,48.005 -34.855,68.3446 -21.0221,21.022 -42.4084,33.8538 -64.2038,38.4497 -21.7502,4.6411 -44.1829,2.2293 -67.2982,-7.1443 -23.1604,-9.4187 -44.0464,-23.3882 -62.7022,-42.044 -20.3395,-20.3396 -34.2177,-41.9533 -41.5894,-64.8864 -7.3712,-22.9335 -7.8263,-45.5023 -1.365,-67.7076 6.4613,-22.2054 18.3372,-41.908 35.5371,-59.1079 19.5661,-19.5662 40.9525,-31.0329 64.2042,-34.3542 23.297,-3.3674 46.5491,1.3194 69.8009,14.1055 l -19.3844,31.3968 c -18.7011,-9.6918 -35.6736,-13.4687 -50.7351,-11.3299 -15.1068,2.0928 -29.1667,9.6918 -42.2259,22.751 -14.9706,14.9706 -23.9342,31.1237 -26.8012,48.3689 -2.8666,17.2456 -0.273,34.0364 7.7811,50.1895 8.0534,16.2444 18.519,30.8051 31.3964,43.6825 16.6083,16.6083 33.5356,28.712 50.7355,36.2653 17.2452,7.5986 33.9899,9.3279 50.3256,5.2784 16.3353,-4.0498 30.3956,-12.0127 42.2719,-23.889 14.4698,-14.4698 22.4779,-30.8507 24.1616,-49.1879 1.6381,-18.3828 -3.9586,-37.5395 -16.8817,-57.5608 z m 43.6373,-48.1871 c -26.1639,-26.164 -38.2676,-52.8283 -36.2661,-80.0387 1.6841,-22.6145 11.3307,-42.7266 28.8493,-60.2452 19.4296,-19.4296 41.7254,-28.9853 66.843,-28.621 25.0259,0.3639 48.8236,11.785 71.2564,34.2177 18.201,18.2011 29.7587,35.2189 34.7189,51.0994 4.9593,15.8805 5.0958,31.9428 0.4091,48.1872 -4.6412,16.1987 -13.1957,30.4864 -25.5267,42.8174 -19.8392,19.8392 -42.181,29.5314 -67.1164,29.0762 -24.9351,-0.4547 -49.3241,-12.6496 -73.1675,-36.493 z m 24.6168,-24.5255 c 18.1098,18.1098 35.628,27.7107 52.5097,28.7571 16.9725,1.0468 31.442,-4.4134 43.5004,-16.4718 11.9215,-11.9215 17.3364,-26.3457 16.2444,-43.3635 -1.1377,-16.9729 -10.966,-34.7185 -29.4857,-53.2382 -17.473,-17.4729 -34.7185,-26.71 -51.6454,-27.7111 -16.9722,-1.0464 -31.3964,4.3685 -43.227,16.1991 -12.0584,12.0584 -17.5642,26.4822 -16.5631,43.4092 1.0464,16.8816 10.6021,34.3546 28.6667,52.4192 z m 209.5387,-67.9355 -195.4784,-195.4784 38.768,-38.7679 184.6037,92.1419 c 17.1539,8.6001 29.8948,15.1523 38.2676,19.6117 -4.8689,-9.3283 -11.831,-23.2973 -20.8855,-41.8167 L 477.1708,52.4754 511.7981,17.8481 707.2764,213.3265 682.4323,238.1707 518.8963,74.6347 625.3719,295.231 602.0749,318.528 379.1128,208.412 545.6519,374.951 Z"
     style="fill:#ffffff;fill-rule:evenodd;stroke:#ffffff;stroke-width:4;stroke-linecap:butt;stroke-linejoin:miter;stroke-dasharray:none;opacity:0.3"
     id="path2" />
  <path
     d="M 152.4591,316.5976 V 156.189 h 31.8126 l 37.9367,113.5482 c 3.5098,10.5667 6.0488,18.4828 7.6544,23.7475 1.8297,-5.8249 4.7046,-14.4127 8.5881,-25.7266 L 277.0593,156.189 h 28.4151 V 316.5976 H 285.0873 V 182.4012 L 238.2641,316.5976 H 219.1464 L 172.8461,179.9368 v 136.6608 z m 177.211,-58.1369 c 0,-21.4699 5.9743,-37.3765 17.96,-47.7193 9.9697,-8.5881 22.1794,-12.882 36.555,-12.882 15.9438,0 29.0126,5.2276 39.1686,15.6824 10.1191,10.4176 15.1971,24.8678 15.1971,43.2759 0,14.9358 -2.2402,26.6602 -6.721,35.2109 -4.4807,8.5504 -11.0151,15.1968 -19.603,19.9389 -8.5507,4.7421 -17.9229,7.0945 -28.0417,7.0945 -16.2796,0 -29.423,-5.1902 -39.4673,-15.6078 -10.0443,-10.4176 -15.0477,-25.4279 -15.0477,-44.9935 z m 20.1631,0.0374 c 0,14.8609 3.2485,25.9881 9.7455,33.3437 6.5344,7.393 14.7115,11.0897 24.6064,11.0897 9.7829,0 17.9229,-3.6967 24.4571,-11.1271 6.497,-7.4305 9.7455,-18.7441 9.7455,-33.9412 0,-14.3382 -3.286,-25.2037 -9.8201,-32.5596 -6.5344,-7.3931 -14.6744,-11.0897 -24.3825,-11.0897 -9.8949,0 -18.072,3.6592 -24.6064,11.0151 -6.497,7.3556 -9.7455,18.4453 -9.7455,33.2691 z m 186.8819,58.0995 v -14.749 c -7.3559,11.4631 -18.1842,17.2134 -32.485,17.2134 -9.2602,0 -17.7735,-2.539 -25.5028,-7.6546 -7.7663,-5.078 -13.778,-12.2097 -18.072,-21.3206 -4.2565,-9.1479 -6.385,-19.6404 -6.385,-31.5141 0,-11.575 1.9417,-22.0675 5.7878,-31.5142 3.8832,-9.4093 9.6707,-16.6533 17.3999,-21.6567 7.6918,-5.0406 16.3545,-7.5424 25.8758,-7.5424 7.02,0 13.2553,1.4936 18.7069,4.4433 5.4516,2.95 9.8949,6.8332 13.33,11.5753 v -57.689 h 19.7152 v 160.4086 z m -62.2817,-57.9875 c 0,14.8609 3.1366,25.9506 9.4468,33.3065 6.273,7.3556 13.7035,11.0149 22.2542,11.0149 8.6253,0 15.9438,-3.5099 21.9926,-10.5296 6.0117,-7.0197 9.036,-17.7361 9.036,-32.1488 0,-15.8318 -3.0617,-27.4817 -9.2228,-34.9121 -6.1234,-7.4305 -13.7032,-11.1271 -22.7021,-11.1271 -8.7747,0 -16.0931,3.5472 -21.9926,10.6789 -5.8623,7.132 -8.8121,18.3708 -8.8121,33.7173 z M 36.409,488.8051 c 0,-26.5852 7.1691,-47.4205 21.4701,-62.4682 14.3008,-15.0474 32.7461,-22.5527 55.3737,-22.5527 14.8235,0 28.1537,3.5473 40.0649,10.6044 11.8737,7.0571 20.9472,16.9146 27.1828,29.5725 6.2357,12.6206 9.3719,26.9589 9.3719,42.9772 0,16.2425 -3.2856,30.8046 -9.8575,43.6121 -6.5715,12.8446 -15.8689,22.5527 -27.892,29.1243 -12.0606,6.609 -25.0546,9.8949 -38.9821,9.8949 -15.1222,0 -28.6018,-3.6593 -40.5127,-10.9403 C 60.754,551.3482 51.718,541.4159 45.5946,528.7955 39.4709,516.2122 36.409,502.882 36.409,488.8051 Z m 21.9554,0.3737 c 0,19.3042 5.1903,34.5013 15.5704,45.591 10.3802,11.0894 23.4117,16.653 39.0941,16.653 15.9811,0 29.0871,-5.6007 39.4299,-16.8024 10.3056,-11.202 15.4584,-27.1083 15.4584,-47.7193 0,-13.0314 -2.203,-24.4199 -6.6089,-34.128 -4.4062,-9.7081 -10.8658,-17.2505 -19.3417,-22.5901 -8.5133,-5.3394 -18.0348,-8.028 -28.6018,-8.028 -15.0103,0 -27.9295,5.1528 -38.7579,15.4584 -10.8283,10.3057 -16.2425,27.4816 -16.2425,51.5654 z m 156.3387,77.7024 V 450.6074 h 17.6986 v 16.5039 c 8.5133,-12.6578 20.8353,-18.9683 36.9284,-18.9683 7.0197,0 13.4419,1.2696 19.3042,3.7712 5.8621,2.5019 10.2682,5.8249 13.1805,9.8949 2.9126,4.07 4.9663,8.924 6.1237,14.525 0.7095,3.6593 1.0829,10.044 1.0829,19.1549 v 71.3922 h -19.715 v -70.6453 c 0,-8.028 -0.7469,-14.0397 -2.2776,-17.9975 -1.531,-3.958 -4.2568,-7.1319 -8.14,-9.5215 -3.8832,-2.3525 -8.4759,-3.5473 -13.7035,-3.5473 -8.3639,0 -15.5705,2.6512 -21.6567,7.9906 -6.0863,5.3022 -9.1106,15.421 -9.1106,30.2819 v 63.4391 z m 109.8139,2.6884 46.599,-165.7854 h 15.8692 l -46.599,165.7854 z m 72.9978,-80.7645 c 0,-26.5852 7.1691,-47.4205 21.4701,-62.4682 14.3008,-15.0474 32.7461,-22.5527 55.3737,-22.5527 14.8235,0 28.1537,3.5473 40.0649,10.6044 11.8737,7.0571 20.9472,16.9146 27.1828,29.5725 6.2357,12.6206 9.3719,26.9589 9.3719,42.9772 0,16.2425 -3.2856,30.8046 -9.8575,43.6121 -6.5715,12.8446 -15.8689,22.5527 -27.892,29.1243 -12.0606,6.609 -25.0546,9.8949 -38.9821,9.8949 -15.1222,0 -28.6018,-3.6593 -40.5127,-10.9403 -11.8741,-7.2811 -20.9101,-17.2134 -27.0335,-29.8338 -6.1237,-12.5833 -9.1856,-25.9135 -9.1856,-39.9904 z m 21.9554,0.3737 c 0,19.3042 5.1903,34.5013 15.5704,45.591 10.3802,11.0894 23.4117,16.653 39.0941,16.653 15.9811,0 29.0871,-5.6007 39.4299,-16.8024 10.3056,-11.202 15.4584,-27.1083 15.4584,-47.7193 0,-13.0314 -2.2031,-24.4199 -6.6089,-34.128 -4.4062,-9.7081 -10.8658,-17.2505 -19.3417,-22.5901 -8.5133,-5.3394 -18.0348,-8.028 -28.6018,-8.028 -15.0103,0 -27.9295,5.1528 -38.7579,15.4584 -10.8283,10.3057 -16.2425,27.4816 -16.2425,51.5654 z m 161.0433,77.7024 V 465.8417 h -17.4747 v -15.2343 h 17.4747 v -12.3219 c 0,-7.8038 0.6721,-13.5912 2.0537,-17.3625 1.9043,-5.0782 5.19,-9.2228 9.9695,-12.3967 4.7421,-3.1737 11.4256,-4.7421 20.0137,-4.7421 5.5636,0 11.687,0.6721 18.4082,1.9792 l -2.9497,17.2505 c -4.1074,-0.7095 -7.9535,-1.0829 -11.6127,-1.0829 -5.974,0 -10.1934,1.2697 -12.6953,3.8087 -2.4641,2.539 -3.6964,7.281 -3.6964,14.2262 v 10.6415 h 22.6273 v 15.2343 h -22.4033 v 101.0395 z m 58.2115,0 V 465.8417 h -17.4748 v -15.2343 h 17.4748 v -12.3219 c 0,-7.8038 0.6721,-13.5912 2.0537,-17.3625 1.9043,-5.0782 5.1899,-9.2228 9.9694,-12.3967 4.7421,-3.1737 11.4256,-4.7421 20.0137,-4.7421 5.5636,0 11.687,0.6721 18.4082,1.9792 l -2.9497,17.2505 c -4.1074,-0.7095 -7.9535,-1.0829 -11.6127,-1.0829 -5.974,0 -10.1934,1.2697 -12.6952,3.8087 -2.4642,2.539 -3.6964,7.281 -3.6964,14.2262 v 10.6415 h 22.6273 v 15.2343 h -22.4034 v 101.0395 z"
     style="fill:#ffffff;fill-opacity:1;fill-rule:evenodd"
     id="path4" />
</svg>
