<?xml version="1.0" encoding="UTF-8" standalone="no"?>
<svg
   xmlns:dc="http://purl.org/dc/elements/1.1/"
   xmlns:cc="http://creativecommons.org/ns#"
   xmlns:rdf="http://www.w3.org/1999/02/22-rdf-syntax-ns#"
   xmlns:svg="http://www.w3.org/2000/svg"
   xmlns="http://www.w3.org/2000/svg"
   xmlns:sodipodi="http://sodipodi.sourceforge.net/DTD/sodipodi-0.dtd"
   xmlns:inkscape="http://www.inkscape.org/namespaces/inkscape"
   inkscape:version="1.0 (4035a4fb49, 2020-05-01)"
   sodipodi:docname="pack.svg"
   viewBox="0 0 725.66931 725.66931"
   id="svg6"
   height=""
   width=""
   version="1.1">
  <metadata
     id="metadata12">
    <rdf:RDF>
      <cc:Work
         rdf:about="">
        <dc:format>image/svg+xml</dc:format>
        <dc:type
           rdf:resource="http://purl.org/dc/dcmitype/StillImage" />
        <dc:title></dc:title>
      </cc:Work>
    </rdf:RDF>
  </metadata>
  <defs
     id="defs10" />
  <sodipodi:namedview
     inkscape:current-layer="svg6"
     inkscape:window-maximized="1"
     inkscape:window-y="-8"
     inkscape:window-x="-8"
     inkscape:cy="362.83466"
     inkscape:cx="362.83466"
     inkscape:zoom="0.79650605"
     showgrid="false"
     id="namedview8"
     inkscape:window-height="746"
     inkscape:window-width="1304"
     inkscape:pageshadow="2"
     inkscape:pageopacity="0"
     guidetolerance="10"
     gridtolerance="10"
     objecttolerance="10"
     borderopacity="1"
     bordercolor="#666666"
     pagecolor="#ffffff" />
  <path
     id="path2"
     style="fill:#ffffff;fill-rule:evenodd;stroke:#ffffff;stroke-width:4;stroke-linecap:butt;stroke-linejoin:miter;stroke-dasharray:none;opacity:0.3"
     d="m 243.0145,540.4437 32.4892,-19.3839 c 15.8345,26.6643 22.2506,52.5553 19.3384,77.7637 -2.9122,25.2084 -14.5155,48.005 -34.855,68.3446 -21.0221,21.022 -42.4084,33.8538 -64.2038,38.4497 -21.7502,4.6411 -44.1829,2.2293 -67.2982,-7.1443 -23.1604,-9.4187 -44.0464,-23.3882 -62.7022,-42.044 -20.3395,-20.3396 -34.2177,-41.9533 -41.5894,-64.8864 -7.3712,-22.9335 -7.8263,-45.5023 -1.365,-67.7076 6.4613,-22.2054 18.3372,-41.908 35.5371,-59.1079 19.5661,-19.5662 40.9525,-31.0329 64.2042,-34.3542 23.297,-3.3674 46.5491,1.3194 69.8009,14.1055 l -19.3844,31.3968 c -18.7011,-9.6918 -35.6736,-13.4687 -50.7351,-11.3299 -15.1068,2.0928 -29.1667,9.6918 -42.2259,22.751 -14.9706,14.9706 -23.9342,31.1237 -26.8012,48.3689 -2.8666,17.2456 -0.273,34.0364 7.7811,50.1895 8.0534,16.2444 18.519,30.8051 31.3964,43.6825 16.6083,16.6083 33.5356,28.712 50.7355,36.2653 17.2452,7.5986 33.9899,9.3279 50.3256,5.2784 16.3353,-4.0498 30.3956,-12.0127 42.2719,-23.889 14.4698,-14.4698 22.4779,-30.8507 24.1616,-49.1879 1.6381,-18.3828 -3.9586,-37.5395 -16.8817,-57.5608 z m 43.6373,-48.1871 c -26.1639,-26.164 -38.2676,-52.8283 -36.2661,-80.0387 1.6841,-22.6145 11.3307,-42.7266 28.8493,-60.2452 19.4296,-19.4296 41.7254,-28.9853 66.843,-28.621 25.0259,0.3639 48.8236,11.785 71.2564,34.2177 18.201,18.2011 29.7587,35.2189 34.7189,51.0994 4.9593,15.8805 5.0958,31.9428 0.4091,48.1872 -4.6412,16.1987 -13.1957,30.4864 -25.5267,42.8174 -19.8392,19.8392 -42.181,29.5314 -67.1164,29.0762 -24.9351,-0.4547 -49.3241,-12.6496 -73.1675,-36.493 z m 24.6168,-24.5255 c 18.1098,18.1098 35.628,27.7107 52.5097,28.7571 16.9725,1.0468 31.442,-4.4134 43.5004,-16.4718 11.9215,-11.9215 17.3364,-26.3457 16.2444,-43.3635 -1.1377,-16.9729 -10.966,-34.7185 -29.4857,-53.2382 -17.473,-17.4729 -34.7185,-26.71 -51.6454,-27.7111 -16.9722,-1.0464 -31.3964,4.3685 -43.227,16.1991 -12.0584,12.0584 -17.5642,26.4822 -16.5631,43.4092 1.0464,16.8816 10.6021,34.3546 28.6667,52.4192 z m 209.5387,-67.9355 -195.4784,-195.4784 38.768,-38.7679 184.6037,92.1419 c 17.1539,8.6001 29.8948,15.1523 38.2676,19.6117 -4.8689,-9.3283 -11.831,-23.2973 -20.8855,-41.8167 L 477.1708,52.4754 511.7981,17.8481 707.2764,213.3265 682.4323,238.1707 518.8963,74.6347 625.3719,295.231 602.0749,318.528 379.1128,208.412 545.6519,374.951 Z" />
  <path
     id="path4"
     style="fill:#ffffff;fill-rule:evenodd;stroke:#ffffff;stroke-width:4;stroke-linecap:butt;stroke-linejoin:miter;stroke-dasharray:none"
     d="M 47.2184,466.7363 V 255.7828 h 79.6479 c 13.9946,0 24.6994,0.6874 32.1142,2.0135 10.3612,1.7186 19.0528,5.0085 26.0745,9.8209 7.022,4.8611 12.6692,11.6376 16.9413,20.3292 4.2721,8.6916 6.3836,18.267 6.3836,28.7263 0,17.8739 -5.6962,33.0475 -17.1377,45.4218 -11.3922,12.4234 -32.0652,18.6106 -61.9208,18.6106 H 75.2083 v 86.0312 z M 75.2083,355.9564 h 54.5059 c 18.0706,0 30.8379,-3.3392 38.4489,-10.0664 7.5623,-6.7275 11.3431,-16.1555 11.3431,-28.3825 0,-8.7899 -2.2096,-16.3519 -6.6781,-22.6375 -4.4686,-6.2852 -10.361,-10.4592 -17.6287,-12.4724 -4.714,-1.2277 -13.4053,-1.866 -26.0254,-1.866 H 75.2083 Z m 265.1646,91.629 c -9.6245,8.2007 -18.9051,13.9459 -27.7931,17.3339 -8.8881,3.3883 -18.4142,5.0579 -28.628,5.0579 -16.7938,0 -29.7082,-4.0757 -38.7436,-12.276 -9.0352,-8.1516 -13.5527,-18.6109 -13.5527,-31.3288 0,-7.4639 1.7186,-14.2895 5.1069,-20.4767 3.4373,-6.1871 7.9058,-11.0976 13.4053,-14.8297 5.5488,-3.7318 11.7363,-6.58 18.6599,-8.4951 5.1069,-1.3258 12.8163,-2.6025 23.0791,-3.8792 20.9186,-2.4551 36.3867,-5.4505 46.2566,-8.8878 0.0981,-3.5356 0.1474,-5.7946 0.1474,-6.7275 0,-10.5083 -2.4554,-17.9231 -7.3658,-22.2443 -6.6291,-5.8436 -16.4991,-8.7406 -29.5608,-8.7406 -12.2273,0 -21.2624,2.1606 -27.0567,6.4327 -5.8437,4.2721 -10.1157,11.834 -12.9147,22.7355 l -25.338,-3.5356 c 2.3079,-10.8522 6.0891,-19.6419 11.3924,-26.32 5.3034,-6.6784 12.9637,-11.7853 22.9811,-15.4191 9.968,-3.5844 21.6059,-5.4014 34.766,-5.4014 13.0618,0 23.7175,1.5222 31.9179,4.616 8.1513,3.0934 14.1913,6.9236 18.0215,11.5886 3.8302,4.6649 6.5307,10.5576 8.1023,17.6777 0.8345,4.4195 1.2767,12.3743 1.2767,23.8158 v 34.3732 c 0,24.012 0.54,39.1853 1.6203,45.618 1.0312,6.4329 3.1918,12.5708 6.3346,18.4634 h -27.1058 c -2.6025,-5.4507 -4.2721,-11.8341 -5.0088,-19.1509 z m -2.0622,-57.4523 c -9.4283,3.8302 -23.5704,7.0711 -42.4264,9.7229 -10.7048,1.5222 -18.267,3.2408 -22.6865,5.1559 -4.4192,1.9151 -7.8075,4.714 -10.2135,8.3478 -2.4064,3.6827 -3.6338,7.7584 -3.6338,12.276 0,6.8255 2.6025,12.5708 7.8565,17.1377 5.2543,4.5666 12.9147,6.8745 22.9811,6.8745 9.9683,0 18.856,-2.1605 26.6638,-6.531 7.7584,-4.3211 13.5037,-10.2628 17.1374,-17.7758 2.7992,-5.8433 4.174,-14.4368 4.174,-25.7799 z m 165.9243,20.6241 25.338,3.5353 c -2.7989,17.4323 -9.8699,31.0343 -21.3114,40.9043 -11.4412,9.8699 -25.5345,14.7804 -42.1809,14.7804 -20.8693,0 -37.6631,-6.8256 -50.332,-20.4767 -12.7182,-13.6511 -19.0528,-33.1945 -19.0528,-58.6309 0,-16.4991 2.7499,-30.8866 8.2006,-43.261 5.4505,-12.3253 13.7492,-21.6062 24.9452,-27.7441 11.1467,-6.1871 23.2756,-9.2809 36.4354,-9.2809 16.5484,0 30.1504,4.174 40.6587,12.5708 10.5574,8.3968 17.3339,20.3293 20.2802,35.7483 l -25.0432,3.8302 c -2.4063,-10.2631 -6.6291,-17.9725 -12.7673,-23.1775 -6.0891,-5.1559 -13.4546,-7.7587 -22.0972,-7.7587 -13.0617,0 -23.6684,4.665 -31.8687,13.9949 -8.1513,9.379 -12.227,24.1104 -12.227,44.3415 0,20.5257 3.9283,35.4045 11.785,44.6851 7.9059,9.2809 18.1687,13.9459 30.7885,13.9459 10.2138,0 18.709,-3.0937 25.4855,-9.33 6.8255,-6.1871 11.1467,-15.7626 12.9634,-28.6769 z m 47.5336,55.9791 V 255.7828 h 25.9271 v 120.159 l 61.2825,-62.1173 h 33.4893 l -58.3361,56.8142 64.2288,96.0976 h -31.9181 l -50.7742,-78.1254 -17.9722,17.4813 v 60.6441 z" />
</svg>
