<?xml version="1.0" encoding="UTF-8" standalone="no"?>
<svg
   xmlns:dc="http://purl.org/dc/elements/1.1/"
   xmlns:cc="http://creativecommons.org/ns#"
   xmlns:rdf="http://www.w3.org/1999/02/22-rdf-syntax-ns#"
   xmlns:svg="http://www.w3.org/2000/svg"
   xmlns="http://www.w3.org/2000/svg"
   xmlns:sodipodi="http://sodipodi.sourceforge.net/DTD/sodipodi-0.dtd"
   xmlns:inkscape="http://www.inkscape.org/namespaces/inkscape"
   inkscape:version="1.0 (4035a4fb49, 2020-05-01)"
   sodipodi:docname="remove_all_mark.svg"
   viewBox="0 0 725.66931 725.66931"
   id="svg6"
   height=""
   width=""
   version="1.1">
  <metadata
     id="metadata12">
    <rdf:RDF>
      <cc:Work
         rdf:about="">
        <dc:format>image/svg+xml</dc:format>
        <dc:type
           rdf:resource="http://purl.org/dc/dcmitype/StillImage" />
        <dc:title></dc:title>
      </cc:Work>
    </rdf:RDF>
  </metadata>
  <defs
     id="defs10" />
  <sodipodi:namedview
     inkscape:current-layer="svg6"
     inkscape:window-maximized="1"
     inkscape:window-y="-8"
     inkscape:window-x="-8"
     inkscape:cy="362.83466"
     inkscape:cx="362.83466"
     inkscape:zoom="0.79650605"
     showgrid="false"
     id="namedview8"
     inkscape:window-height="746"
     inkscape:window-width="1304"
     inkscape:pageshadow="2"
     inkscape:pageopacity="0"
     guidetolerance="10"
     gridtolerance="10"
     objecttolerance="10"
     borderopacity="1"
     bordercolor="#666666"
     pagecolor="#ffffff" />
  <path
     id="path2"
     style="fill:#ffffff;fill-rule:evenodd;stroke:#ffffff;stroke-width:4;stroke-linecap:butt;stroke-linejoin:miter;stroke-dasharray:none;opacity:0.3"
     d="m 243.0145,540.4437 32.4892,-19.3839 c 15.8345,26.6643 22.2506,52.5553 19.3384,77.7637 -2.9122,25.2084 -14.5155,48.005 -34.855,68.3446 -21.0221,21.022 -42.4084,33.8538 -64.2038,38.4497 -21.7502,4.6411 -44.1829,2.2293 -67.2982,-7.1443 -23.1604,-9.4187 -44.0464,-23.3882 -62.7022,-42.044 -20.3395,-20.3396 -34.2177,-41.9533 -41.5894,-64.8864 -7.3712,-22.9335 -7.8263,-45.5023 -1.365,-67.7076 6.4613,-22.2054 18.3372,-41.908 35.5371,-59.1079 19.5661,-19.5662 40.9525,-31.0329 64.2042,-34.3542 23.297,-3.3674 46.5491,1.3194 69.8009,14.1055 l -19.3844,31.3968 c -18.7011,-9.6918 -35.6736,-13.4687 -50.7351,-11.3299 -15.1068,2.0928 -29.1667,9.6918 -42.2259,22.751 -14.9706,14.9706 -23.9342,31.1237 -26.8012,48.3689 -2.8666,17.2456 -0.273,34.0364 7.7811,50.1895 8.0534,16.2444 18.519,30.8051 31.3964,43.6825 16.6083,16.6083 33.5356,28.712 50.7355,36.2653 17.2452,7.5986 33.9899,9.3279 50.3256,5.2784 16.3353,-4.0498 30.3956,-12.0127 42.2719,-23.889 14.4698,-14.4698 22.4779,-30.8507 24.1616,-49.1879 1.6381,-18.3828 -3.9586,-37.5395 -16.8817,-57.5608 z m 43.6373,-48.1871 c -26.1639,-26.164 -38.2676,-52.8283 -36.2661,-80.0387 1.6841,-22.6145 11.3307,-42.7266 28.8493,-60.2452 19.4296,-19.4296 41.7254,-28.9853 66.843,-28.621 25.0259,0.3639 48.8236,11.785 71.2564,34.2177 18.201,18.2011 29.7587,35.2189 34.7189,51.0994 4.9593,15.8805 5.0958,31.9428 0.4091,48.1872 -4.6412,16.1987 -13.1957,30.4864 -25.5267,42.8174 -19.8392,19.8392 -42.181,29.5314 -67.1164,29.0762 -24.9351,-0.4547 -49.3241,-12.6496 -73.1675,-36.493 z m 24.6168,-24.5255 c 18.1098,18.1098 35.628,27.7107 52.5097,28.7571 16.9725,1.0468 31.442,-4.4134 43.5004,-16.4718 11.9215,-11.9215 17.3364,-26.3457 16.2444,-43.3635 -1.1377,-16.9729 -10.966,-34.7185 -29.4857,-53.2382 -17.473,-17.4729 -34.7185,-26.71 -51.6454,-27.7111 -16.9722,-1.0464 -31.3964,4.3685 -43.227,16.1991 -12.0584,12.0584 -17.5642,26.4822 -16.5631,43.4092 1.0464,16.8816 10.6021,34.3546 28.6667,52.4192 z m 209.5387,-67.9355 -195.4784,-195.4784 38.768,-38.7679 184.6037,92.1419 c 17.1539,8.6001 29.8948,15.1523 38.2676,19.6117 -4.8689,-9.3283 -11.831,-23.2973 -20.8855,-41.8167 L 477.1708,52.4754 511.7981,17.8481 707.2764,213.3265 682.4323,238.1707 518.8963,74.6347 625.3719,295.231 602.0749,318.528 379.1128,208.412 545.6519,374.951 Z" />
  <path
     id="path4"
     style="fill:#ffffff;fill-rule:evenodd;stroke:#ffffff;stroke-width:4;stroke-linecap:butt;stroke-linejoin:miter;stroke-dasharray:none"
     d="M 16.619,304.1518 V 166.5485 h 60.9859 c 12.2678,0 21.5887,1.2489 27.963,3.7153 6.374,2.4665 11.467,6.8228 15.2784,13.0686 3.8118,6.2459 5.7016,13.1647 5.7016,20.7238 0,9.7693 -3.1711,18.0012 -9.481,24.6955 -6.3102,6.6945 -16.0475,10.9224 -29.2442,12.7482 4.8368,2.3063 8.4884,4.6125 10.9865,6.8547 5.3173,4.8685 10.3459,10.9863 15.0545,18.3215 l 23.7989,37.4757 H 114.9208 L 96.7275,275.5165 c -5.2852,-8.2959 -9.6733,-14.6061 -13.1006,-18.9941 -3.4594,-4.3883 -6.5342,-7.4313 -9.2569,-9.1928 -2.6906,-1.7297 -5.4773,-2.9469 -8.2958,-3.6516 -2.05,-0.4164 -5.4133,-0.6406 -10.1217,-0.6406 H 34.8763 v 61.1144 z m 18.2573,-76.8733 h 39.0773 c 8.3279,0 14.798,-0.8649 19.4746,-2.5946 4.6763,-1.6976 8.2318,-4.4523 10.6342,-8.2638 2.4344,-3.7797 3.6516,-7.8798 3.6516,-12.3318 0,-6.5022 -2.3383,-11.8834 -7.0469,-16.0796 -4.7084,-4.1958 -12.1397,-6.2779 -22.2934,-6.2779 H 34.8763 Z m 186.0656,44.5864 17.4887,2.3063 c -2.7224,10.1537 -7.8155,18.0652 -15.2465,23.6707 -7.431,5.6052 -16.9123,8.424 -28.4751,8.424 -14.542,0 -26.0731,-4.4844 -34.5932,-13.453 -8.5201,-8.9365 -12.7803,-21.5246 -12.7803,-37.6999 0,-16.7201 4.2922,-29.7244 12.9084,-38.9492 8.6162,-9.2568 19.7949,-13.8693 33.5362,-13.8693 13.2925,0 24.1509,4.5164 32.5749,13.5811 8.4242,9.0646 12.6521,21.8128 12.6521,38.2444 0,0.993 -0.032,2.4985 -0.0961,4.4842 h -74.2787 c 0.6406,10.9224 3.7153,19.3147 9.2888,25.1121 5.5412,5.7974 12.4917,8.7123 20.7879,8.7123 6.1818,0 11.4667,-1.6336 15.823,-4.9006 4.3883,-3.2672 7.8474,-8.4883 10.4099,-15.6631 z m -55.349,-27.0978 h 55.5412 c -0.7367,-8.392 -2.8828,-14.6701 -6.374,-18.866 -5.3492,-6.5024 -12.3318,-9.7693 -20.8839,-9.7693 -7.7517,0 -14.2538,2.5943 -19.5387,7.7834 -5.2532,5.1888 -8.168,12.1396 -8.7446,20.8519 z m 94.2021,59.3847 v -99.7432 h 15.1824 v 14.0933 c 3.107,-4.8685 7.2711,-8.8084 12.4599,-11.755 5.1891,-2.979 11.0826,-4.4524 17.7129,-4.4524 7.3672,0 13.4209,1.5375 18.1292,4.5805 4.7087,3.0747 8.0399,7.3349 9.9615,12.8441 7.9439,-11.6272 18.2257,-17.4246 30.9096,-17.4246 9.9295,0 17.585,2.7227 22.9019,8.1998 5.3493,5.4774 8.0397,13.9014 8.0397,25.2723 v 68.3852 H 378.18 v -62.78 c 0,-6.7264 -0.5766,-11.5951 -1.6656,-14.5738 -1.0891,-2.9789 -3.0748,-5.3492 -5.9896,-7.175 -2.8829,-1.8256 -6.2782,-2.7224 -10.1537,-2.7224 -7.0467,0 -12.8764,2.338 -17.5207,6.9825 -4.6446,4.6764 -6.9508,12.1397 -6.9508,22.3895 v 57.8792 h -16.9121 v -64.7339 c 0,-7.4951 -1.3774,-13.1324 -4.1321,-16.8801 -2.7544,-3.7477 -7.2708,-5.6372 -13.5167,-5.6372 -4.7407,0 -9.1287,1.2489 -13.1647,3.7474 -4.0359,2.4984 -6.9505,6.15 -8.7763,10.9865 -1.7938,4.8047 -2.6906,11.7553 -2.6906,20.8199 v 51.6974 z m 153.7466,-49.8716 c 0,-18.4176 5.1251,-32.0627 15.4069,-40.9351 8.5521,-7.367 19.0261,-11.0506 31.358,-11.0506 13.6769,0 24.8876,4.4844 33.5999,13.4529 8.6805,8.9365 13.0365,21.3324 13.0365,37.1234 0,12.8123 -1.9219,22.8699 -5.7654,30.2049 -3.8437,7.3349 -9.449,13.0365 -16.8162,17.1042 -7.3349,4.068 -15.3746,6.086 -24.0548,6.086 -13.9655,0 -25.2403,-4.4524 -33.8565,-13.3889 -8.6161,-8.9365 -12.9084,-21.8129 -12.9084,-38.5968 z m 17.2968,0.032 c 0,12.7483 2.7864,22.2934 8.3599,28.6033 5.6052,6.3419 12.6201,9.5131 21.1082,9.5131 8.392,0 15.3745,-3.1712 20.9801,-9.5451 5.5731,-6.374 8.3599,-16.0793 8.3599,-29.1158 0,-12.2998 -2.8188,-21.6207 -8.424,-27.9306 -5.6055,-6.3423 -12.5881,-9.5131 -20.916,-9.5131 -8.4881,0 -15.503,3.1388 -21.1082,9.449 -5.5735,6.3099 -8.3599,15.823 -8.3599,28.5392 z m 123.1894,49.8396 -37.6359,-99.7432 h 18.0973 l 21.3324,59.737 c 2.3062,6.4381 4.4521,13.1326 6.406,20.0832 1.5055,-5.2532 3.5875,-11.5631 6.3102,-18.9621 l 22.1649,-60.8581 h 17.3608 l -37.7643,99.7432 z m 136.8669,-32.2869 17.4886,2.3063 c -2.7224,10.1537 -7.8154,18.0652 -15.2464,23.6707 -7.431,5.6052 -16.9123,8.424 -28.4751,8.424 -14.5421,0 -26.0731,-4.4844 -34.5932,-13.453 -8.5201,-8.9365 -12.7803,-21.5246 -12.7803,-37.6999 0,-16.7201 4.2922,-29.7244 12.9084,-38.9492 8.6162,-9.2568 19.7949,-13.8693 33.5362,-13.8693 13.2925,0 24.1508,4.5164 32.5748,13.5811 8.4243,9.0646 12.6522,21.8128 12.6522,38.2444 0,0.993 -0.032,2.4985 -0.0961,4.4842 H 634.585 c 0.6407,10.9224 3.7154,19.3147 9.2889,25.1121 5.5412,5.7974 12.4917,8.7123 20.7879,8.7123 6.1818,0 11.4667,-1.6336 15.823,-4.9006 4.3883,-3.2672 7.8474,-8.4883 10.4099,-15.6631 z m -55.349,-27.0978 h 55.5412 c -0.7367,-8.392 -2.8828,-14.6701 -6.374,-18.866 -5.3492,-6.5024 -12.3318,-9.7693 -20.884,-9.7693 -7.7516,0 -14.2537,2.5943 -19.5386,7.7834 -5.2532,5.1888 -8.168,12.1396 -8.7446,20.8519 z M 141.9542,518.853 V 397.3929 H 96.5991 v -16.1433 h 108.968 v 16.1433 H 160.2116 V 518.853 Z m 124.1507,-12.492 c -6.2779,5.3492 -12.3315,9.0966 -18.1292,11.3068 -5.7975,2.2102 -12.0116,3.2993 -18.6738,3.2993 -10.9545,0 -19.3785,-2.6587 -25.2723,-8.0076 -5.8935,-5.3173 -8.8404,-12.1397 -8.8404,-20.4356 0,-4.8688 1.1211,-9.3208 3.3312,-13.3568 2.2422,-4.036 5.1568,-7.2388 8.7444,-9.6732 3.6195,-2.4344 7.6552,-4.2923 12.1716,-5.5415 3.3313,-0.8646 8.36,-1.6974 15.0543,-2.5302 13.6451,-1.6016 23.7347,-3.5555 30.1728,-5.7977 0.0641,-2.3063 0.0961,-3.7794 0.0961,-4.388 0,-6.8548 -1.6013,-11.6912 -4.8045,-14.51 -4.3242,-3.8118 -10.7622,-5.7013 -19.2823,-5.7013 -7.9756,0 -13.8694,1.4094 -17.6488,4.1958 -3.8118,2.7867 -6.5985,7.7193 -8.4243,14.8303 L 198.072,447.745 c 1.5055,-7.0786 3.9719,-12.8123 7.431,-17.1683 3.4594,-4.3563 8.4561,-7.6875 14.9905,-10.0576 6.5021,-2.3383 14.0933,-3.5234 22.6777,-3.5234 8.5201,0 15.4707,0.9929 20.8199,3.0109 5.317,2.018 9.2568,4.5162 11.755,7.5592 2.4985,3.043 4.2602,6.8865 5.2852,11.531 0.5445,2.8829 0.8328,8.0717 0.8328,15.5347 v 22.4215 c 0,15.6631 0.3524,25.5606 1.0571,29.7564 0.6726,4.1961 2.0817,8.1998 4.1317,12.0436 h -17.6808 c -1.6976,-3.5555 -2.7867,-7.7193 -3.2672,-12.492 z m -1.3453,-37.4757 c -6.1498,2.4984 -15.3746,4.6122 -27.6744,6.3419 -6.9826,0.993 -11.9154,2.1141 -14.798,3.3633 -2.8828,1.2492 -5.093,3.075 -6.6625,5.4451 -1.5696,2.4024 -2.3701,5.061 -2.3701,8.0079 0,4.4521 1.6974,8.1997 5.1248,11.1787 3.4274,2.9786 8.424,4.4841 14.9905,4.4841 6.5021,0 12.2995,-1.4094 17.3925,-4.2599 5.0607,-2.8188 8.8084,-6.6946 11.1787,-11.5951 1.8258,-3.8118 2.7224,-9.417 2.7224,-16.8163 z m 42.889,49.9677 v -99.7433 h 15.1824 v 15.2785 c 3.8758,-7.0787 7.4633,-11.755 10.7623,-13.9972 3.2992,-2.2742 6.9188,-3.3953 10.8584,-3.3953 5.7016,0 11.499,1.7937 17.3925,5.3492 l -6.0216,15.5988 c -4.1,-2.3063 -8.1998,-3.4594 -12.2998,-3.4594 -3.6834,0 -6.9826,1.1211 -9.8975,3.3313 -2.9148,2.2101 -4.9966,5.2849 -6.2458,9.2247 -1.8899,5.9897 -2.8188,12.5561 -2.8188,19.6988 v 52.1139 z m 61.0824,8.2638 16.3355,2.3063 c 0.6726,5.0607 2.5945,8.7443 5.7336,11.0826 4.1959,3.1071 9.9295,4.6763 17.2004,4.6763 7.8154,0 13.8693,-1.5692 18.1292,-4.6763 4.2602,-3.1071 7.1431,-7.4951 8.6485,-13.1006 0.8646,-3.4274 1.281,-10.6342 1.2169,-21.6207 -7.3989,8.7123 -16.5917,13.0686 -27.6102,13.0686 -13.7092,0 -24.3431,-4.9329 -31.8385,-14.8303 -7.5271,-9.8654 -11.2748,-21.7165 -11.2748,-35.5218 0,-9.5131 1.7297,-18.2894 5.1571,-26.3291 3.4273,-8.0399 8.424,-14.2217 14.9581,-18.61 6.5344,-4.388 14.2217,-6.5661 23.0621,-6.5661 11.7553,0 21.4605,4.8047 29.0838,14.4138 v -12.2998 h 15.567 v 86.1302 c 0,15.535 -1.5696,26.5215 -4.7407,32.9916 -3.1388,6.47 -8.1677,11.5951 -14.9901,15.3428 -6.8548,3.7474 -15.2788,5.6372 -25.2723,5.6372 -11.8834,0 -21.4606,-2.6586 -28.7635,-8.0076 -7.3349,-5.3172 -10.8584,-13.3568 -10.6021,-24.0871 z m 13.8373,-59.8331 c 0,13.0365 2.5943,22.5496 7.7834,28.5392 5.2208,5.9899 11.7232,9.0006 19.5386,9.0006 7.7834,0 14.2858,-2.9787 19.5707,-8.9365 5.2532,-5.9576 7.8795,-15.3105 7.8795,-28.0588 0,-12.1717 -2.7224,-21.3644 -8.1357,-27.5462 -5.4131,-6.1821 -11.9475,-9.2568 -19.5707,-9.2568 -7.5271,0 -13.9014,3.0427 -19.1863,9.1287 -5.2532,6.0857 -7.8795,15.1183 -7.8795,27.1298 z m 164.1886,19.2824 17.4887,2.3062 c -2.7224,10.1537 -7.8154,18.0652 -15.2465,23.6708 -7.431,5.6052 -16.9123,8.424 -28.4751,8.424 -14.542,0 -26.0731,-4.4845 -34.5932,-13.453 -8.5201,-8.9365 -12.7802,-21.5246 -12.7802,-37.6999 0,-16.7202 4.2922,-29.7244 12.9084,-38.9492 8.6161,-9.2568 19.7949,-13.8693 33.5361,-13.8693 13.2925,0 24.1509,4.5164 32.5749,13.581 8.4243,9.0647 12.6521,21.8129 12.6521,38.2445 0,0.993 -0.032,2.4985 -0.0961,4.4841 h -74.2787 c 0.6406,10.9225 3.7153,19.3147 9.2888,25.1121 5.5412,5.7975 12.4917,8.7123 20.7879,8.7123 6.1818,0 11.4667,-1.6336 15.823,-4.9005 4.3883,-3.2672 7.8474,-8.4883 10.4099,-15.6631 z m -55.349,-27.0978 h 55.5412 c -0.7367,-8.392 -2.8828,-14.6702 -6.374,-18.866 -5.3492,-6.5024 -12.3318,-9.7693 -20.8839,-9.7693 -7.7516,0 -14.2538,2.5942 -19.5387,7.7833 -5.2531,5.1889 -8.168,12.1397 -8.7446,20.852 z m 130.9091,44.2981 2.3062,14.9264 c -4.7406,0.993 -9.0005,1.5055 -12.7162,1.5055 -6.1177,0 -10.8584,-0.9609 -14.2534,-2.9149 -3.3633,-1.9539 -5.7337,-4.4841 -7.111,-7.6552 -1.3774,-3.1711 -2.05,-9.8334 -2.05,-19.9871 v -57.4628 h -12.4917 v -13.0686 h 12.4917 V 394.446 l 16.9123,-10.1537 v 34.8174 h 16.9121 v 13.0686 h -16.9121 v 58.4237 c 0,4.8365 0.2883,7.9436 0.8969,9.3209 0.5766,1.3774 1.5375,2.4665 2.8825,3.2993 1.3454,0.8005 3.2673,1.2169 5.7657,1.2169 1.8578,0 4.324,-0.2242 7.367,-0.6727 z" />
</svg>
