<?xml version="1.0" encoding="UTF-8" standalone="no"?>
<svg
   xmlns:dc="http://purl.org/dc/elements/1.1/"
   xmlns:cc="http://creativecommons.org/ns#"
   xmlns:rdf="http://www.w3.org/1999/02/22-rdf-syntax-ns#"
   xmlns:svg="http://www.w3.org/2000/svg"
   xmlns="http://www.w3.org/2000/svg"
   xmlns:sodipodi="http://sodipodi.sourceforge.net/DTD/sodipodi-0.dtd"
   xmlns:inkscape="http://www.inkscape.org/namespaces/inkscape"
   inkscape:version="1.0 (4035a4fb49, 2020-05-01)"
   sodipodi:docname="5.svg"
   viewBox="0 0 7256.6929 7256.6929"
   id="svg50"
   height=""
   width=""
   version="1.1">
  <metadata
     id="metadata56">
    <rdf:RDF>
      <cc:Work
         rdf:about="">
        <dc:format>image/svg+xml</dc:format>
        <dc:type
           rdf:resource="http://purl.org/dc/dcmitype/StillImage" />
        <dc:title></dc:title>
      </cc:Work>
    </rdf:RDF>
  </metadata>
  <defs
     id="defs54" />
  <sodipodi:namedview
     inkscape:current-layer="svg50"
     inkscape:window-maximized="0"
     inkscape:window-y="0"
     inkscape:window-x="0"
     inkscape:cy="3628.3464"
     inkscape:cx="3628.3464"
     inkscape:zoom="0.034097919"
     showgrid="false"
     id="namedview52"
     inkscape:window-height="480"
     inkscape:window-width="820"
     inkscape:pageshadow="2"
     inkscape:pageopacity="0"
     guidetolerance="10"
     gridtolerance="10"
     objecttolerance="10"
     borderopacity="1"
     bordercolor="#666666"
     pagecolor="#ffffff" />
  <path
     id="path2"
     style="fill:#4b4a4f;fill-rule:evenodd;stroke:#1b1918;stroke-width:0.5669;stroke-linecap:butt;stroke-linejoin:miter;stroke-dasharray:none"
     d="M -1e-4,0 V 7256.693 H 7256.693 V 0 Z" />
  <path
     id="path4"
     style="fill:#ff8080;fill-rule:evenodd;stroke:#1b1918;stroke-width:50;stroke-linecap:butt;stroke-linejoin:miter;stroke-dasharray:none;stroke-miterlimit:4"
     d="M 1727.3568,1210.2194 H 5627.281 c 204.4435,0 371.7159,167.2727 371.7159,371.7158 v 3899.9243 c 0,204.4434 -167.2724,371.7158 -371.7159,371.7158 H 1727.3568 c -204.4431,0 -371.7159,-167.2724 -371.7159,-371.7158 V 1581.9352 c 0,-204.4431 167.2728,-371.7158 371.7159,-371.7158 z" />
  <path
     id="path6"
     style="fill:#ff8080;fill-rule:evenodd;stroke:#1b1918;stroke-width:50;stroke-linecap:butt;stroke-linejoin:miter;stroke-dasharray:none;stroke-miterlimit:4"
     d="m 2507.3416,2138.8907 h 2339.9547 c 122.6658,0 223.0293,100.3634 223.0293,223.0293 v 2339.9547 c 0,122.6659 -100.3635,223.0293 -223.0293,223.0293 H 2507.3416 c -122.6659,0 -223.0293,-100.3634 -223.0293,-223.0293 V 2361.92 c 0,-122.6659 100.3634,-223.0293 223.0293,-223.0293 z" />
  <path
     id="path8"
     style="fill:none;stroke:#1b1918;stroke-width:50;stroke-linecap:butt;stroke-linejoin:miter;stroke-dasharray:none;stroke-miterlimit:4"
     d="M 2507.3399,1210.2193 V 281.5481" />
  <path
     id="path10"
     style="fill:none;stroke:#1b1918;stroke-width:50;stroke-linecap:butt;stroke-linejoin:miter;stroke-dasharray:none;stroke-miterlimit:4"
     d="M 4847.298,1210.2193 V 281.5481" />
  <path
     id="path12"
     style="fill:none;stroke:#1b1918;stroke-width:50;stroke-linecap:butt;stroke-linejoin:miter;stroke-dasharray:none;stroke-miterlimit:4"
     d="M 3064.5427,1210.2193 V 281.5481" />
  <path
     id="path14"
     style="fill:none;stroke:#1b1918;stroke-width:50;stroke-linecap:butt;stroke-linejoin:miter;stroke-dasharray:none;stroke-miterlimit:4"
     d="M 4290.0953,1210.2193 V 281.5481" />
  <path
     id="path16"
     style="fill:none;stroke:#1b1918;stroke-width:50;stroke-linecap:butt;stroke-linejoin:miter;stroke-dasharray:none;stroke-miterlimit:4"
     d="M 3677.319,1210.2193 V 281.5481" />
  <path
     id="path18"
     style="fill:none;stroke:#1b1918;stroke-width:50;stroke-linecap:butt;stroke-linejoin:miter;stroke-dasharray:none;stroke-miterlimit:4"
     d="m 5998.9971,4701.8764 h 928.6712" />
  <path
     id="path20"
     style="fill:none;stroke:#1b1918;stroke-width:50;stroke-linecap:butt;stroke-linejoin:miter;stroke-dasharray:none;stroke-miterlimit:4"
     d="m 5998.997,2361.9184 h 928.6713" />
  <path
     id="path22"
     style="fill:none;stroke:#1b1918;stroke-width:50;stroke-linecap:butt;stroke-linejoin:miter;stroke-dasharray:none;stroke-miterlimit:4"
     d="m 5998.9971,4144.6737 h 928.6712" />
  <path
     id="path24"
     style="fill:none;stroke:#1b1918;stroke-width:50;stroke-linecap:butt;stroke-linejoin:miter;stroke-dasharray:none;stroke-miterlimit:4"
     d="m 5998.9971,2919.1211 h 928.6712" />
  <path
     id="path26"
     style="fill:none;stroke:#1b1918;stroke-width:50;stroke-linecap:butt;stroke-linejoin:miter;stroke-dasharray:none;stroke-miterlimit:4"
     d="m 5998.9971,3531.8974 h 928.6712" />
  <path
     id="path28"
     style="fill:none;stroke:#1b1918;stroke-width:50;stroke-linecap:butt;stroke-linejoin:miter;stroke-dasharray:none;stroke-miterlimit:4"
     d="m 426.9696,4701.8764 h 928.6713" />
  <path
     id="path30"
     style="fill:none;stroke:#1b1918;stroke-width:50;stroke-linecap:butt;stroke-linejoin:miter;stroke-dasharray:none;stroke-miterlimit:4"
     d="m 426.9696,2361.9184 h 928.6713" />
  <path
     id="path32"
     style="fill:none;stroke:#1b1918;stroke-width:50;stroke-linecap:butt;stroke-linejoin:miter;stroke-dasharray:none;stroke-miterlimit:4"
     d="m 426.9696,4144.6737 h 928.6713" />
  <path
     id="path34"
     style="fill:none;stroke:#1b1918;stroke-width:50;stroke-linecap:butt;stroke-linejoin:miter;stroke-dasharray:none;stroke-miterlimit:4"
     d="m 426.9696,2919.1211 h 928.6713" />
  <path
     id="path36"
     style="fill:none;stroke:#1b1918;stroke-width:50;stroke-linecap:butt;stroke-linejoin:miter;stroke-dasharray:none;stroke-miterlimit:4"
     d="m 426.9696,3531.8974 h 928.6713" />
  <path
     id="path38"
     style="fill:none;stroke:#1b1918;stroke-width:50;stroke-linecap:butt;stroke-linejoin:miter;stroke-dasharray:none;stroke-miterlimit:4"
     d="M 2507.3399,6782.2467 V 5853.5755" />
  <path
     id="path40"
     style="fill:none;stroke:#1b1918;stroke-width:50;stroke-linecap:butt;stroke-linejoin:miter;stroke-dasharray:none;stroke-miterlimit:4"
     d="M 4847.298,6782.2468 V 5853.5755" />
  <path
     id="path42"
     style="fill:none;stroke:#1b1918;stroke-width:50;stroke-linecap:butt;stroke-linejoin:miter;stroke-dasharray:none;stroke-miterlimit:4"
     d="M 3064.5427,6782.2467 V 5853.5755" />
  <path
     id="path44"
     style="fill:none;stroke:#1b1918;stroke-width:50;stroke-linecap:butt;stroke-linejoin:miter;stroke-dasharray:none;stroke-miterlimit:4"
     d="M 4290.0953,6782.2467 V 5853.5755" />
  <path
     id="path46"
     style="fill:none;stroke:#1b1918;stroke-width:50;stroke-linecap:butt;stroke-linejoin:miter;stroke-dasharray:none;stroke-miterlimit:4"
     d="M 3677.319,6782.2467 V 5853.5755" />
  <path
     id="path48"
     style="fill:#ff8080;fill-rule:evenodd;stroke:#1b1918;stroke-width:50;stroke-linecap:butt;stroke-linejoin:miter;stroke-dasharray:none;stroke-miterlimit:4"
     d="m 4208.0848,3867.4392 c 0,234.6443 -107.9362,408.2814 -324.2787,520.9106 -101.3663,53.0297 -213.9956,79.7791 -337.888,79.7791 -81.1868,0 -161.9048,-11.2629 -241.6839,-34.2581 -112.6293,-32.8501 -168.944,-80.2482 -168.944,-142.6637 0,-58.6613 30.973,-87.7572 93.3885,-87.7572 47.8675,0 107.4674,31.4424 178.7993,94.327 75.086,68.5163 142.6637,102.7744 203.2021,102.7744 145.9488,0 257.1704,-79.7791 334.1336,-239.3374 34.7275,-72.2704 52.0911,-150.6418 52.0911,-234.6443 0,-130.9317 -39.8894,-238.3988 -119.6685,-321.9324 -79.7791,-83.0642 -179.2684,-124.8307 -299.4066,-124.8307 -109.8136,0 -209.3029,34.7272 -297.9984,104.6514 l -29.0959,-20.649 39.8894,-892.1182 h 665.9212 c 41.2974,0 68.9856,-12.2015 82.5948,-37.0738 h 53.4991 l -31.4425,220.0966 h -712.3807 l -22.0564,506.8321 c 84.4719,-46.9289 185.8382,-70.3936 304.0991,-70.3936 159.0891,0 294.7135,56.3148 406.8737,168.9443 113.5678,115.445 170.3517,251.5388 170.3517,407.3429 z" />
</svg>
