<?xml version="1.0" encoding="UTF-8" standalone="no"?>
<svg
   xmlns:dc="http://purl.org/dc/elements/1.1/"
   xmlns:cc="http://creativecommons.org/ns#"
   xmlns:rdf="http://www.w3.org/1999/02/22-rdf-syntax-ns#"
   xmlns:svg="http://www.w3.org/2000/svg"
   xmlns="http://www.w3.org/2000/svg"
   xmlns:sodipodi="http://sodipodi.sourceforge.net/DTD/sodipodi-0.dtd"
   xmlns:inkscape="http://www.inkscape.org/namespaces/inkscape"
   inkscape:version="1.0 (4035a4fb49, 2020-05-01)"
   sodipodi:docname="0.svg"
   viewBox="0 0 725.66931 725.66931"
   id="svg33"
   height=""
   width=""
   version="1.1">
  <metadata
     id="metadata39">
    <rdf:RDF>
      <cc:Work
         rdf:about="">
        <dc:format>image/svg+xml</dc:format>
        <dc:type
           rdf:resource="http://purl.org/dc/dcmitype/StillImage" />
        <dc:title></dc:title>
      </cc:Work>
    </rdf:RDF>
  </metadata>
  <defs
     id="defs37" />
  <sodipodi:namedview
     inkscape:current-layer="svg33"
     inkscape:window-maximized="0"
     inkscape:window-y="0"
     inkscape:window-x="0"
     inkscape:cy="362.83466"
     inkscape:cx="362.83466"
     inkscape:zoom="0.79650605"
     showgrid="false"
     id="namedview35"
     inkscape:window-height="480"
     inkscape:window-width="881"
     inkscape:pageshadow="2"
     inkscape:pageopacity="0"
     guidetolerance="10"
     gridtolerance="10"
     objecttolerance="10"
     borderopacity="1"
     bordercolor="#666666"
     pagecolor="#ffffff" />
  <g
     id="Layer1000">
    <g
       id="Layer1001">
      <g
         id="Layer1002">
        <g
           id="Layer1003">
          <path
             id="path2"
             style="fill:#ffffff;fill-rule:evenodd"
             d="m 530.9953,255.7207 c 0,-4.722 3.8296,-8.553 8.5515,-8.553 4.722,0 8.5538,3.8483 8.5538,8.553 v 328.1069 c 0,14.4856 -5.9519,27.6721 -15.5024,37.2399 -9.5496,9.5504 -22.7542,15.5018 -37.2398,15.5018 l -265.1362,-3e-4 c -14.4861,0 -27.7072,-5.9513 -37.2404,-15.5018 C 183.4313,611.5167 177.48,598.3325 177.48,583.8273 V 255.7207 c 0,-4.722 3.831,-8.553 8.5521,-8.553 4.7219,0 8.553,3.8483 8.553,8.553 v 328.1069 c 0,9.7651 4.0274,18.6914 10.4774,25.1408 6.4499,6.4508 15.3774,10.4947 25.1416,10.4947 h 265.1376 c 9.7642,0 18.672,-4.0457 25.1234,-10.4947 6.4681,-6.4681 10.4942,-15.3774 10.4942,-25.1235 V 255.7207 Z" />
          <path
             id="path4"
             style="fill:#ffffff;fill-rule:evenodd"
             d="m 299,561.7324 c 0,4.722 -3.831,8.5521 -8.5529,8.5521 -4.722,0 -8.553,-3.8301 -8.553,-8.5521 V 257.93 c 0,-4.722 3.831,-8.553 8.553,-8.553 4.7219,0 8.5529,3.831 8.5529,8.553 z" />
          <path
             id="path6"
             style="fill:#ffffff;fill-rule:evenodd"
             d="m 371.3427,561.7324 c 0,4.722 -3.8302,8.5521 -8.5521,8.5521 -4.722,0 -8.553,-3.8301 -8.553,-8.5521 V 257.93 c 0,-4.722 3.831,-8.553 8.553,-8.553 4.7219,0 8.5521,3.831 8.5521,8.553 z" />
          <path
             id="path8"
             style="fill:#ffffff;fill-rule:evenodd"
             d="m 443.7027,561.7324 c 0,4.722 -3.8296,8.5521 -8.5516,8.5521 -4.7228,0 -8.553,-3.8301 -8.553,-8.5521 V 257.93 c 0,-4.722 3.8302,-8.553 8.553,-8.553 4.722,0 8.5516,3.831 8.5516,8.553 v 303.8024 z" />
          <path
             id="path10"
             style="fill:#ffffff;fill-rule:evenodd"
             d="m 294.0111,141.9329 c 0,4.722 -3.8311,8.553 -8.553,8.553 -4.7214,0 -8.5521,-3.831 -8.5521,-8.553 0,-14.5221 5.9332,-27.7072 15.4845,-37.2577 9.5505,-9.5513 22.7361,-15.4845 37.2577,-15.4845 h 66.2842 c 14.5043,0 27.6899,5.9513 37.239,15.5018 9.5505,9.5505 15.5024,22.7716 15.5024,37.2404 0,4.722 -3.8302,8.553 -8.5521,8.553 -4.722,0 -8.5522,-3.831 -8.5522,-8.553 0,-9.7642 -4.0266,-18.6913 -10.4774,-25.1415 -6.4513,-6.4508 -15.3773,-10.4956 -25.1416,-10.4956 l -66.2836,3e-4 c -9.7823,0 -18.6913,4.0266 -25.1594,10.4774 -6.4695,6.4681 -10.4964,15.3771 -10.4964,25.1594 z" />
          <path
             id="path12"
             style="fill:#ffffff;fill-rule:evenodd"
             d="m 163.9372,166.5218 h 397.7045 c 8.3917,0 16.0537,3.4387 21.6136,8.9986 l 0.0352,0.036 c 5.5598,5.559 8.9985,13.221 8.9985,21.6136 v 22.0949 c 0,4.7214 -3.831,8.5521 -8.5529,8.5521 h -0.2319 -441.6614 c -4.7219,0 -8.5529,-3.831 -8.5529,-8.5521 V 219.0511 197.17 c 0,-8.3744 3.4387,-16.0546 8.9985,-21.6136 l 0.036,-0.036 c 5.5591,-5.5591 13.2384,-8.9986 21.6128,-8.9986 z m 397.7054,17.1059 H 163.9372 c -3.7239,0 -7.1272,1.5151 -9.5505,3.9555 l -0.036,0.036 c -2.4412,2.4225 -3.9555,5.8087 -3.9555,9.5505 v 13.5419 h 424.7706 v -13.5419 c 0,-3.7239 -1.5151,-7.1272 -3.9546,-9.5505 l -0.0369,-0.036 c -2.4219,-2.4406 -5.8081,-3.9555 -9.5317,-3.9555 z" />
        </g>
      </g>
    </g>
    <g
       id="Layer1004" />
    <g
       id="Layer1005" />
    <g
       id="Layer1006" />
    <g
       id="Layer1007" />
    <g
       id="Layer1008" />
    <g
       id="Layer1009" />
    <g
       id="Layer1010" />
    <g
       id="Layer1011" />
    <g
       id="Layer1012" />
    <g
       id="Layer1013" />
    <g
       id="Layer1014" />
    <g
       id="Layer1015" />
    <g
       id="Layer1016" />
    <g
       id="Layer1017" />
    <g
       id="Layer1018" />
  </g>
</svg>
