<?xml version="1.0" encoding="UTF-8" standalone="no"?>
<svg
   xmlns:dc="http://purl.org/dc/elements/1.1/"
   xmlns:cc="http://creativecommons.org/ns#"
   xmlns:rdf="http://www.w3.org/1999/02/22-rdf-syntax-ns#"
   xmlns:svg="http://www.w3.org/2000/svg"
   xmlns="http://www.w3.org/2000/svg"
   xmlns:sodipodi="http://sodipodi.sourceforge.net/DTD/sodipodi-0.dtd"
   xmlns:inkscape="http://www.inkscape.org/namespaces/inkscape"
   inkscape:version="1.0 (4035a4fb49, 2020-05-01)"
   sodipodi:docname="2.svg"
   viewBox="0 0 725.66931 725.66931"
   id="svg11"
   height=""
   width=""
   version="1.1">
  <metadata
     id="metadata17">
    <rdf:RDF>
      <cc:Work
         rdf:about="">
        <dc:format>image/svg+xml</dc:format>
        <dc:type
           rdf:resource="http://purl.org/dc/dcmitype/StillImage" />
        <dc:title></dc:title>
      </cc:Work>
    </rdf:RDF>
  </metadata>
  <defs
     id="defs15" />
  <sodipodi:namedview
     inkscape:current-layer="svg11"
     inkscape:window-maximized="1"
     inkscape:window-y="-8"
     inkscape:window-x="-8"
     inkscape:cy="413.05399"
     inkscape:cx="362.83466"
     inkscape:zoom="0.79650605"
     showgrid="false"
     id="namedview13"
     inkscape:window-height="746"
     inkscape:window-width="1304"
     inkscape:pageshadow="2"
     inkscape:pageopacity="0"
     guidetolerance="10"
     gridtolerance="10"
     objecttolerance="10"
     borderopacity="1"
     bordercolor="#666666"
     pagecolor="#ffffff" />
  <path
     id="path2"
     style="fill:#ffffff;fill-rule:evenodd"
     d="m 501.4589,664.592 c -3.3402,-0.4338 -9.3406,-0.7986 -11.4062,-3.0624 -4.8766,-5.3444 3.2401,-12.6454 5.9658,-19.2785 6.0342,-14.6857 6.6662,-16.2072 9.2103,-34.1819 1.3317,-9.4072 1.7097,-30.8862 0.2215,-41.3009 -0.3202,-2.2425 -0.4351,-4.6913 -0.6602,-6.7428 L 497.053,524.37 c -0.6467,-1.9255 -1.0848,-3.2305 -1.747,-5.2326 -0.7376,-2.2298 -1.2746,-3.5913 -2.0179,-5.4543 -0.3624,-0.9078 -0.713,-1.8634 -1.0721,-2.6698 -0.3551,-0.7973 -0.6433,-1.2438 -1.0576,-2.1897 l -2.3481,-5.1224 c -0.9272,-1.8521 -1.4487,-2.9229 -2.4393,-4.5716 -2.0585,-3.4269 -2.71,-5.0756 -5.3173,-8.5238 0.236,0.4586 2.0944,2.6515 2.7842,3.5064 l 11.1084,16.7712 c 4.6675,8.9882 4.6661,8.725 8.7092,18.731 4.232,10.4731 7.7175,27.7225 8.9733,38.8789 2.1108,18.7552 1.7248,46.2267 -0.8988,65.5747 -0.8516,6.2787 -3.7348,15.5327 -6.241,21.1324 -1.2746,2.8477 -3.3115,6.5416 -4.0301,9.3916 z m 26.935,-191.2775 c 0.0496,-1.7646 0.4653,-1.9233 0.4653,-4.2467 1.8906,0.2145 3.4152,0.672 5.1569,1.1471 1.4742,0.4016 3.0934,0.9904 4.079,2.0369 -1.8831,-0.7161 -7.5092,0.815 -9.7012,1.0627 z M 298.4143,662.6007 c -3.5436,-1.8374 -8.0532,-1.7333 -7.2084,-7.9048 0.1732,-1.2629 1.3695,-4.6119 1.8889,-5.944 4.6382,-11.8925 8.4782,-20.8649 12.1379,-33.9791 6.4862,-23.2443 8.2533,-31.531 11.8099,-57.5862 l 2.0524,-21.2998 c 0.1744,-5.6477 1.405,-15.9487 1.3841,-21.4355 l 3.2706,-57.8193 c 0.3854,0.0749 2.6217,0.9626 3.1859,1.2663 -0.0501,1.7869 -0.2927,1.1266 -0.4415,3.0351 l -0.5573,18.0566 c -0.2488,2.1694 -0.416,3.7884 -0.395,6.6338 l -0.6642,14.1637 c -0.3782,2.4853 -0.121,4.5703 -0.2668,7.2242 -0.6776,12.337 -2.4344,29.574 -2.7951,40.9651 l -1.9038,19.9431 c -2.7422,28.3633 -9.248,63.2316 -19.9027,89.8453 -0.5359,1.3385 -1.7757,3.513 -1.5949,4.8355 z M 452.0912,447.0925 c -1.3143,0.6361 -5.2774,1.6359 -6.7363,1.7565 1.3921,2.6558 3.1094,5.6148 4.834,8.1953 1.8793,2.8114 3.6358,4.9817 5.4016,7.6335 -12.1519,2.8288 -47.8267,3.3038 -62.1689,1.1995 -2.1999,-0.3227 -6.5376,-0.7341 -8.5752,-0.7341 -1.3922,-5.9801 -4.2675,-12.1971 -6.9744,-17.6926 -1.4882,-3.0217 -6.8489,-13.8799 -8.8451,-15.3503 0.1651,1.978 2.1201,5.8125 2.8519,7.8489 0.8651,2.4063 1.8397,5.2495 2.6699,7.5688 l 4.8161,16.127 c 2.7939,10.8771 5.3949,22.0671 7.4081,34.0124 1.6565,9.8299 5.8424,35.6272 5.9867,46.1381 0.038,2.7511 0.5924,6.8449 0.8642,9.3743 l 1.9322,39.4882 c -0.037,9.9291 0.3623,21.0211 -0.4422,30.7424 -0.2764,3.3388 0.3003,6.7876 -0.1518,10.0873 -1.6338,11.9218 -0.6994,21.6663 -4.0895,37.3308 -1.4,6.4694 -3.2783,9.0329 -8.541,11.9383 -10.8035,5.9637 -31.8416,5.7047 -46.3526,5.7792 l -19.8837,-1.0595 c -4.76,-0.626 -12.9658,-0.1969 -15.1824,-5.7631 -2.4537,-6.162 6.5643,-22.9012 9.8071,-31.0093 l 4.9707,-15.5061 c 0.742,-2.9674 1.5023,-5.2512 2.1006,-8.1378 1.2224,-5.8972 2.3806,-11.0827 3.5653,-17.3778 3.2371,-17.2037 7.9709,-57.64 8.0922,-74.7475 l 0.4651,-9.7737 c 0.007,-6.2228 0.9718,-13.5513 0.948,-19.9946 -0.0126,-3.4156 -0.0221,-6.8413 -0.0176,-10.2562 0.005,-3.2783 0.4841,-5.8771 0.4818,-9.7575 l -3e-4,-31.1814 c 5e-4,-6.8785 -0.4653,-12.7569 -0.4653,-20.0097 -1.2744,1.8458 -2.9071,8.6123 -3.1464,10.3442 -0.9006,6.5128 1.3286,6.7424 -5.6894,3.6116 -17.3493,-7.7409 -31.6215,-22.1216 -40.0343,-39.0846 -7.1011,-14.3179 -11.9493,-29.883 -13.5361,-46.5008 l -1.3689,-18.1782 0.8677,-18.7108 c 0.2154,-2.0077 0.5444,-4.3125 0.5444,-5.9728 2.8266,-0.6583 12.1719,-5.1791 13.4964,-6.9768 -4.956,0.4134 -10.5655,2.6334 -15.4713,3.6071 -22.2802,4.4211 -45.7959,7.217 -69.1685,3.3131 -9.8908,-1.6521 -20.183,-4.9358 -28.923,-9.2407 -7.4606,-3.6741 -12.2581,-7.3851 -19.0729,-11.6415 -5.5595,-3.7122 -24.2532,-25.2123 -20.6471,-36.0063 1.0709,-3.2067 5.3108,-4.93 8.2086,-6.2206 17.628,-7.8511 16.2757,-8.6144 13.1687,-25.5236 -1.5169,-8.2554 -2.7768,-16.5712 -3.5002,-25.3549 -0.2022,-2.4554 0.1532,-4.7556 -0.2208,-7.2251 -0.6275,-4.1449 0.004,-15.8316 0.5315,-19.8745 l 1.5246,-12.9025 c 0.7177,-4.27 1.4063,-7.9569 2.4225,-12.0055 0.9852,-3.9244 1.9496,-7.4093 3.2184,-11.2091 2.1825,-6.5379 5.8205,-13.1453 9.7202,-18.6692 l 6.3888,-8.0394 c 9.3464,-9.7049 20.3966,-18.6805 32.5471,-24.6967 4.8732,-2.4131 9.6333,-4.7602 14.8784,-6.5302 5.5531,-1.8742 10.3801,-3.5137 16.6538,-4.7551 28.5229,-5.6431 58.3068,-1.3603 84.0463,10.9767 -0.1771,2.133 -0.7637,4.7225 -0.9149,6.9991 -0.3335,5.0301 -0.9598,9.4025 -0.9473,14.876 0.0163,7.0811 0.4443,14.8072 1.812,21.4582 0.4551,2.2112 1.1603,4.1682 1.8984,6.0126 0.8247,2.0607 1.474,3.1028 2.8017,4.6397 0,-2.323 -0.6779,-5.256 -0.8885,-7.4862 -1.2102,-12.8042 -1.3136,-26.4452 0.5625,-39.3775 1.3259,-9.1395 3.513,-18.2851 6.3165,-26.7269 0.7637,-2.3002 1.368,-3.9058 2.2526,-6.1251 2.3277,-5.841 4.9067,-11.2413 8.3238,-16.3422 5.3481,-7.983 5.9292,-10.8981 13.2977,-5.0082 1.6524,1.3208 2.4707,2.88 3.99,4.3868 7.6589,7.595 15.685,19.8909 20.2964,29.5018 8.2331,17.1591 11.4737,34.5309 11.4737,54.6142 2e-4,20.2926 -4.4681,36.8474 -11.9641,54.5886 -1.2406,2.9372 -3.2167,5.1853 -4.6196,7.9507 -0.6664,1.3143 -0.2808,0.8976 -0.4572,2.7908 l -2.0478,14.2493 c 0.0114,1.9742 0.36,1.6408 0.475,3.7235 0.6666,12.0727 -0.5482,24.8655 0.4389,36.7934 0.2193,2.6504 -0.1227,5.6734 0.0222,8.3549 l 0.9322,15.3566 c 0.4357,8.7526 2.1628,21.0467 3.3984,29.6445 2.7284,18.9838 4.8714,23.9959 9.436,40.3609 0.8612,3.0865 0.7132,3.6177 2.8639,5.5119 1.5533,1.3674 2.9896,2.1401 5.2412,2.6664 -0.7511,-3.2126 -3.0136,-13.365 -4.1883,-15.8234 6.4802,0 10.6311,0.0988 16.0965,-1.1244 12.0471,-2.6965 19.5073,-7.8267 30.2663,-11.6191 6.2555,-2.2045 11.298,-5.1148 17.5256,-7.6052 25.6217,-10.246 55.6933,-9.3304 73.1476,14.093 8.0201,10.7625 13.4756,19.8737 15.8899,34.3743 1.567,9.4121 1.465,22.174 0.2798,31.5411 -1.2549,9.9182 -2.9509,19.7214 -5.5068,28.4681 l -11.8107,38.4515 c -1.3796,8.1673 -3.6885,16.234 6.5331,15.8539 2.6691,-0.0992 4.8933,-0.825 7.4347,-0.9558 7.0814,-0.3646 11.9655,-0.0791 16.2594,3.7606 2.3293,2.083 4.5073,4.6729 5.9371,7.5602 1.9408,3.9192 3.4745,7.4369 5.422,11.332 3.8252,7.6497 6.7074,15.6566 9.8148,23.6942 10.2002,26.3826 22.2489,84.0802 22.1439,112.3563 -0.0628,16.9819 2.0848,32.8351 -9.0369,41.231 -3.1384,2.3692 -7.226,4.0735 -11.7147,5.0407 -12.8945,2.7798 -49.5356,3.1705 -63.8823,1.1302 -11.4243,-1.6246 -10.4879,-4.7065 -6.434,-12.8073 6.9701,-13.9281 11.4841,-29.1756 13.303,-45.3358 0.2908,-2.5813 0.7005,-5.0561 0.927,-7.4505 0.2516,-2.6659 0.2734,-4.9814 0.5767,-7.8 0.8083,-7.5024 0.3583,-16.767 0.3995,-24.7379 0.0174,-3.4042 -0.4929,-4.8711 -0.4814,-7.8961 0.0608,-16.1254 -5.2639,-41.7579 -11.4615,-55.5539 l -5.2765,-11.4778 c -0.911,-1.8372 -1.8747,-3.4829 -2.9921,-5.3847 -3.0841,-5.2458 -6.2573,-10.382 -9.9067,-15.2244 -1.3087,-1.7365 -2.2365,-3.0549 -3.5899,-4.7875 -0.8065,-1.0319 -1.0484,-1.2277 -1.869,-2.3195 -4.8294,-6.4261 -12.7019,-10.6056 -17.3442,-16.1642 -4.0629,-4.8653 -14.2242,-16.1666 -16.6633,-21.6365 z M 185.1922,91.4285 c -0.838,1.1415 -3.7832,2.8259 -5.1179,3.7214 l -15.7159,14.5365 c -0.9166,0.9208 -0.8974,0.9914 -1.702,2.0209 l -9.206,13.5986 c -0.718,1.2234 -0.7456,1.7347 -1.3014,2.8887 -0.8656,1.6332 -1.4421,3.4442 -2.3271,5.1193 -0.6279,1.1916 -1.0827,2.4982 -1.7015,3.8817 -0.6894,1.5424 -1.1594,2.6635 -1.7347,4.3155 -3.2883,9.4395 -5.6422,18.9664 -6.3519,29.4838 -1.2455,18.471 -0.8211,18.276 0.0299,33.9766 0.0902,1.6663 0.3905,3.4835 0.6562,5.394 1.2827,9.2184 2.2852,16.3288 4.5442,25.2411 2.0567,8.1141 1.9883,7.6937 -7.5352,14.0623 -6.2793,4.1987 -11.7723,4.0663 -15.1849,8.5501 -4.1096,5.3991 -0.7938,12.2443 1.8112,18.3082 8.2624,19.2334 23.4118,33.3244 42.3513,41.42 17.7297,7.5783 29.9118,9.9029 50.1341,9.902 24.5558,-7e-4 40.5414,-5.0685 42.8163,-5.1193 0,2.5493 -0.4103,2.7302 -0.4804,5.1042 -0.0582,1.9557 0.1639,4.0655 -0.0528,5.9975 -2.3502,20.9347 3.1765,53.7473 11.2427,71.7335 1.6052,3.5798 5.9699,11.9757 8.3687,15.3667 1.67,2.3612 3.366,4.6211 5.1823,6.9175 4.425,5.5932 9.6553,10.1183 15.1525,14.633 1.3523,1.1107 2.1275,1.58 3.4737,2.5764 2.3386,1.7317 4.902,3.2734 7.3961,4.7042 l 6.6804,3.5806 c 1.2443,0.8413 0.2695,-0.1799 1.2112,1.091 -0.838,0.4872 0.0152,-1.1128 -0.3666,0.6586 -0.5983,2.7742 -0.3731,9.5314 -0.6322,11.8416 -0.2474,2.2057 -0.3844,3.7275 -0.3819,6.5989 l -2.315,33.5205 c -2.8677,37.3756 -7.9338,85.881 -21.7703,120.1753 l -7.0503,21.2774 c -1.0678,4.7686 -2.6133,9.5247 -0.1809,14.5683 2.6154,5.4236 7.2747,5.5744 9.8917,7.9716 -0.0878,3.2588 -6.3957,18.2867 9.8874,22.0258 12.4056,2.8489 35.3321,3.0965 49.2376,2.9249 2.5767,-0.0318 2.9567,-0.4506 5.5635,-0.4869 8.2126,-0.1127 21.7274,-2.4371 28.5491,-6.3563 7.1366,-4.1008 10.2674,-15.4307 11.3466,-23.5593 0.4329,-3.2609 0.9642,-7.4352 1.0622,-10.573 0.1241,-3.9549 0.9318,-7.3058 0.9318,-11.1688 0.5298,-6.4618 1.6815,-14.7718 1.8752,-21.393 0.6986,-23.8558 0.9653,-57.2198 -2.1456,-79.7943 -3.7602,-27.2841 -3.9832,-32.5786 -10.9981,-60.2078 -0.7824,-3.0817 -1.9624,-6.2613 -2.6945,-9.4053 l 8.7739,0.5337 c 7.1327,0.79 37.0589,1.3672 45.0847,0.27 2.099,-0.2869 6.2044,-0.6275 8.5202,-0.7875 6.8177,-0.471 6.1302,-1.5121 16.1657,10.7949 1.4702,1.8027 2.7133,3.276 4.0993,5.2088 18.8671,26.31 27.6547,58.2039 27.6547,93.3483 0,12.4882 -0.7361,23.9591 -2.828,34.4038 -2.3912,11.9395 -2.6785,11.4301 -6.8109,21.1127 -0.8931,2.0925 -2.0938,4.7819 -3.3309,6.3811 l -3.7259,8.8743 c -5.8399,15.6164 8.0547,16.4222 16.6942,18.3192 -1.0583,3.6011 -3.6792,10.4815 -0.5312,15.2246 6.1179,9.2172 37.8927,6.9151 50.3301,6.9151 7.1465,-0.008 14.2641,0.1704 20.8749,-0.5347 2.9591,-0.316 6.4607,-0.7622 9.3455,-1.3583 3.1054,-0.6415 5.8376,-1.5905 8.8741,-2.297 l 2.0055,-1.2503 c 3.7908,-1.9024 6.2084,-3.7 9.1208,-6.7032 6.574,-6.7781 7.4895,-16.3388 7.4895,-27.4164 -0.052,-45.7703 -7.0212,-78.7914 -17.9842,-116.0511 -2.1257,-7.2258 -5.4408,-14.9351 -7.905,-21.8802 -1.3799,-3.8879 -2.9586,-6.8434 -4.428,-10.465 L 562.6382,480.956 c -3.2533,-4.4972 -8.1237,-8.3685 -14.436,-8.3685 -0.5519,-6.1733 -12.1136,-10.5162 -17.222,-10.7043 -0.1569,-1.7112 1.6365,-6.2834 2.3966,-8.3099 0.981,-2.6172 2.2439,-5.8183 3.1361,-8.4984 0.9872,-2.9653 1.9219,-5.2994 2.906,-8.2635 3.6757,-11.0694 7.7819,-25.5633 8.7434,-37.331 1.046,-12.797 0.8487,-19.164 -0.3826,-32.115 -0.7074,-7.4387 -1.8369,-12.7037 -4.3901,-18.4149 -1.2654,-2.831 -2.2333,-5.0652 -3.5587,-7.6108 l -11.7526,-17.1018 c -1.1499,-1.294 -1.4685,-1.9469 -2.793,-3.257 -19.1253,-18.9233 -45.1146,-20.8943 -69.6443,-12.6257 -2.6752,0.902 -5.4303,2.0765 -7.9715,3.1983 -2.6877,1.1866 -5.6438,1.8827 -8.5052,3.1295 -8.0058,3.4875 -23.6758,11.6497 -31.8768,13.7319 -7.4449,1.8901 -11.3947,2.2268 -21.043,2.2268 l -2.2124,-11.7496 c -0.8297,-4.104 -1.335,-7.7269 -2.041,-11.9207 -1.284,-7.631 -2.7413,-16.7824 -3.2065,-25.1825 -0.3401,-6.1348 -1.3658,-12.9673 -1.3669,-19.5762 -4e-4,-2.9398 -0.5046,-3.8671 -0.492,-6.9541 l -0.004,-35.3964 c 0.0741,-2.4746 0.5038,-3.5031 0.4869,-6.4939 -0.0135,-2.3181 -0.0533,-4.6934 -0.0246,-7.0059 0.0329,-2.6878 0.5069,-3.5072 0.4944,-6.4858 -0.009,-2.3354 -0.0397,-4.6856 -0.0369,-7.0185 0.006,-5.1262 2.4816,-3.8968 7.4731,-13.935 1.6435,-3.3048 2.8861,-5.9487 4.2471,-9.7145 9.4948,-26.2684 6.9608,-60.7437 -1.8611,-85.2861 -4.8834,-13.5856 -12.1809,-26.0206 -20.6738,-36.1044 l -6.4851,-7.4768 c -0.8524,-0.7789 -1.0301,-0.7958 -1.8233,-1.4342 -2.0848,-1.6781 -2.479,-2.6663 -5.9936,-4.711 -10.1232,-5.8902 -15.2286,3.0306 -20.2764,11.3477 -4.6072,7.5915 -12.0626,28.7197 -12.7548,37.0421 -7.4519,-3.9431 -24.16,-8.7826 -31.9961,-10.3552 -26.3449,-5.2876 -60.3049,-2.7038 -84.9715,9.7368 -1.479,0.7457 -2.4512,0.9829 -3.8848,1.6999 -1.3678,0.6836 -1.7638,1.1249 -3.2474,1.872 l -6.8695,3.8341 c -1.2939,0.8603 -2.0366,1.6564 -3.5317,2.055 z" />
  <path
     id="path4"
     style="fill:none;stroke:#ffffff;stroke-width:0.5669;stroke-linecap:butt;stroke-linejoin:miter;stroke-dasharray:none"
     d="m 505.2288,608.0692 c -2.5441,17.9748 -3.1762,19.4961 -9.2103,34.1819 -2.7258,6.633 -10.8422,13.9339 -5.9658,19.2784 2.0656,2.2637 8.066,2.6288 11.4063,3.0625 0.7186,-2.8499 2.7553,-6.544 4.03,-9.3917 2.5061,-5.5996 5.3896,-14.8536 6.2411,-21.1323 2.6234,-19.3479 3.0095,-46.8196 0.8986,-65.5747 -1.2558,-11.1563 -4.7413,-28.4057 -8.9731,-38.8789 -4.0433,-10.006 -4.0419,-9.7427 -8.7095,-18.731 L 483.838,494.1122 c -0.4374,-0.542 -1.3445,-1.6217 -2.0097,-2.4565 1.9885,2.7717 2.7048,4.4138 4.5428,7.4738 0.9907,1.6489 1.512,2.7196 2.4392,4.5717 l 2.3482,5.1225 c 0.4141,0.9459 0.7024,1.3924 1.0576,2.1895 0.3589,0.8065 0.7095,1.762 1.0721,2.6699 0.7432,1.863 1.2801,3.2245 2.0179,5.4542 0.6622,2.0021 1.1002,3.3072 1.747,5.2327 l 7.7369,35.6554 c 0.2251,2.0517 0.3402,4.5002 0.6602,6.7427 1.4882,10.4148 1.1103,31.8938 -0.2214,41.3011 z m -205.2195,49.6959 c 10.6545,-26.6137 17.1603,-61.4818 19.9026,-89.8453 l 1.9037,-19.9431 c 0.3609,-11.391 2.1175,-28.6279 2.7953,-40.9649 0.1457,-2.6541 -0.1114,-4.7389 0.2667,-7.2244 l 0.6642,-14.1636 c -0.021,-2.8454 0.1462,-4.4645 0.3948,-6.6339 l 0.5576,-18.0567 c 0.1485,-1.9083 0.3912,-1.2481 0.4414,-3.035 -0.5641,-0.3036 -2.8007,-1.1914 -3.1859,-1.2663 l -3.2706,57.8194 c 0.021,5.4868 -1.2096,15.7879 -1.3842,21.4356 l -2.0523,21.2996 c -3.5566,26.0552 -5.3237,34.342 -11.8099,57.5864 -3.6596,13.1142 -7.4997,22.0864 -12.138,33.9791 -0.5193,1.332 -1.7155,4.6809 -1.8887,5.944 -0.845,6.1713 3.6646,6.0673 7.2082,7.9047 -0.1806,-1.3227 1.059,-3.4971 1.5951,-4.8356 z m 86.7636,-160.1076 c -2.0131,-11.9455 -4.6142,-23.1353 -7.408,-34.0126 l -4.8161,-16.1269 c -0.8302,-2.3193 -1.8048,-5.1625 -2.6699,-7.5688 -0.7319,-2.0364 -2.687,-5.8708 -2.852,-7.8489 1.9962,1.4704 7.3571,12.3285 8.8453,15.3502 2.7068,5.4955 5.5819,11.7128 6.974,17.6927 2.0379,0 6.3754,0.4114 8.5754,0.7339 14.3422,2.1045 50.017,1.6297 62.1689,-1.1993 -1.7657,-2.6518 -3.5223,-4.822 -5.4014,-7.6334 -1.7249,-2.5807 -3.4421,-5.5395 -4.8342,-8.1955 1.459,-0.1205 5.4221,-1.1203 6.7362,-1.7564 2.4392,5.47 12.6006,16.7712 16.6635,21.6366 4.6423,5.5584 12.5147,9.7381 17.344,16.1643 0.8207,1.0916 1.0625,1.2875 1.8692,2.3193 1.3533,1.7328 2.2811,3.0509 3.5898,4.7874 3.6493,4.8424 6.8224,9.9788 9.9068,15.2246 1.1174,1.9018 2.0809,3.5473 2.992,5.3847 l 5.2764,11.4777 c 6.1977,13.796 11.5223,39.4286 11.4616,55.554 -0.0113,3.0249 0.4989,4.4918 0.4813,7.8959 -0.0411,7.971 0.4088,17.2355 -0.3994,24.738 -0.3033,2.8187 -0.3251,5.1341 -0.5768,7.8001 -0.2265,2.3944 -0.6361,4.869 -0.927,7.4503 -1.8187,16.1603 -6.3328,31.4078 -13.303,45.3359 -4.0538,8.1008 -4.9904,11.1826 6.4341,12.8075 14.3467,2.0401 50.9876,1.6494 63.8824,-1.1305 4.4887,-0.9672 8.5763,-2.6714 11.7145,-5.0406 11.1217,-8.3959 8.9742,-24.2492 9.0371,-41.231 0.1049,-28.2762 -11.9437,-85.9737 -22.1439,-112.3563 -3.1077,-8.0376 -5.9896,-16.0444 -9.815,-23.6942 -1.9474,-3.8951 -3.4812,-7.4129 -5.4218,-11.3321 -1.4298,-2.8871 -3.608,-5.4771 -5.9372,-7.56 -4.2939,-3.8398 -9.178,-4.1253 -16.2595,-3.7607 -2.5413,0.1309 -4.7656,0.8566 -7.4344,0.9558 -10.2218,0.3801 -7.9129,-7.6867 -6.5333,-15.8539 l 11.8108,-38.4514 c 2.5557,-8.7468 4.2517,-18.5499 5.5066,-28.468 1.1854,-9.3674 1.2872,-22.1293 -0.2798,-31.5414 -2.4143,-14.5007 -7.8698,-23.6118 -15.8899,-34.3741 -17.4543,-23.4235 -47.5259,-24.3391 -73.1474,-14.093 -6.2278,2.4903 -11.2703,5.4006 -17.5258,7.6051 -10.7589,3.7925 -18.2191,8.9226 -30.2661,11.6192 -5.4655,1.2232 -9.6165,1.1242 -16.0965,1.1242 1.1747,2.4585 3.437,12.6111 4.1882,15.8236 -2.2516,-0.5264 -3.6879,-1.2991 -5.2413,-2.6666 -2.1506,-1.8941 -2.0027,-2.4253 -2.8638,-5.5117 -4.5647,-16.3652 -6.7077,-21.3772 -9.436,-40.3611 -1.2356,-8.5977 -2.9628,-20.8919 -3.3985,-29.6444 l -0.9323,-15.3567 c -0.1448,-2.6813 0.1973,-5.7044 -0.0221,-8.3548 -0.987,-11.9279 0.2279,-24.7207 -0.4388,-36.7934 -0.1151,-2.0827 -0.4637,-1.7493 -0.4751,-3.7236 l 2.0478,-14.2492 c 0.1766,-1.8933 -0.2092,-1.4766 0.4572,-2.7907 1.4029,-2.7655 3.3792,-5.0137 4.6196,-7.9507 7.4962,-17.7414 11.9645,-34.296 11.9642,-54.5887 0,-20.0832 -3.2406,-37.455 -11.4738,-54.6143 -4.6114,-9.6108 -12.6374,-21.9067 -20.2963,-29.5016 -1.5194,-1.5069 -2.3375,-3.0662 -3.9901,-4.3869 -7.3684,-5.8898 -7.9495,-2.9749 -13.2976,5.0083 -3.4171,5.1009 -5.9961,10.5012 -8.3239,16.342 -0.8844,2.2193 -1.4888,3.8251 -2.2524,6.1251 -2.8035,8.4419 -4.9907,17.5876 -6.3168,26.727 -1.8759,12.9323 -1.7725,26.5734 -0.5623,39.3775 0.2106,2.2303 0.8883,5.163 0.8883,7.4863 -1.3274,-1.5369 -1.9769,-2.5792 -2.8015,-4.6397 -0.7381,-1.8445 -1.4434,-3.8016 -1.8983,-6.0126 -1.3677,-6.6512 -1.7958,-14.3773 -1.8122,-21.4583 -0.0125,-5.4734 0.614,-9.8458 0.9473,-14.8759 0.1514,-2.2768 0.7379,-4.8662 0.9151,-6.9993 -25.7395,-12.3369 -55.5234,-16.6198 -84.0464,-10.9766 -6.2737,1.2413 -11.1008,2.8808 -16.6539,4.7551 -5.2449,1.77 -10.0051,4.1171 -14.8784,6.5302 -12.1505,6.0162 -23.2005,14.9919 -32.5469,24.6968 l -6.389,8.0394 c -3.8996,5.5239 -7.5376,12.1311 -9.7203,18.6692 -1.2685,3.7996 -2.2331,7.2845 -3.2181,11.2091 -1.0163,4.0484 -1.7048,7.7354 -2.4225,12.0053 l -1.5248,12.9024 c -0.5275,4.0431 -1.1591,15.7298 -0.5315,19.8746 0.3742,2.4695 0.0187,4.7698 0.2208,7.2252 0.7234,8.7837 1.9834,17.0994 3.5003,25.3548 3.107,16.9092 4.4594,17.6726 -13.1687,25.5237 -2.8978,1.2906 -7.1376,3.0138 -8.2085,6.2206 -3.6063,10.7941 15.0876,32.294 20.6469,36.0063 6.8148,4.2565 11.6125,7.9673 19.073,11.6416 8.74,4.3047 19.0323,7.5886 28.923,9.2406 23.3725,3.9039 46.8884,1.1081 69.1685,-3.3131 4.9059,-0.9737 10.5154,-3.1938 15.4715,-3.6071 -1.3247,1.7977 -10.6699,6.3184 -13.4966,6.9769 0,1.6603 -0.3289,3.9648 -0.5443,5.9726 l -0.8677,18.7109 1.3689,18.1781 c 1.5868,16.6181 6.4349,32.1831 13.536,46.5009 8.4129,16.9631 22.6851,31.3438 40.0342,39.0847 7.0181,3.1308 4.7889,2.9009 5.6895,-3.6117 0.2392,-1.7319 1.872,-8.4985 3.1464,-10.3441 0,7.2527 0.4657,13.1312 0.4652,20.0097 l 5e-4,31.1814 c 0.002,3.8804 -0.4773,6.4792 -0.4818,9.7574 -0.005,3.4149 0.005,6.8406 0.0175,10.2561 0.0238,6.4434 -0.9411,13.7718 -0.9482,19.9947 l -0.4648,9.7736 c -0.1214,17.1076 -4.8552,57.5438 -8.0924,74.7476 -1.1846,6.2952 -2.3428,11.4806 -3.5651,17.3778 -0.5984,2.8865 -1.3587,5.1704 -2.1008,8.1377 l -4.9705,15.5064 c -3.2429,8.1079 -12.261,24.847 -9.8073,31.009 2.2167,5.5664 10.4227,5.1372 15.1826,5.7631 l 19.8836,1.0596 c 14.5109,-0.0746 35.549,0.1845 46.3527,-5.7793 5.2625,-2.9052 7.1411,-5.4689 8.5408,-11.9381 3.3902,-15.6645 2.4559,-25.4092 4.0896,-37.3309 0.4521,-3.2998 -0.1248,-6.7487 0.1519,-10.0873 0.8045,-9.7212 0.4051,-20.8134 0.4422,-30.7423 l -1.9324,-39.4883 c -0.2718,-2.5294 -0.826,-6.6232 -0.864,-9.3742 -0.1446,-10.5112 -4.3305,-36.3084 -5.9868,-46.1381 z" />
  <g
     id="Layer1000">
    <path
       id="path6"
       style="fill:#02d402;fill-rule:evenodd"
       d="m 503.8733,357.7691 v 9.2745 h -44.2786 v 5.2183 l -19.7465,-9.8556 19.7465,-9.8555 v 5.2183 z" />
    <path
       id="path8"
       style="fill:#02d402;fill-rule:evenodd"
       d="m 459.6836,377.4802 v 9.2746 h 44.2786 v 5.2183 l 19.7465,-9.8556 -19.7465,-9.8556 v 5.2183 z" />
  </g>
</svg>
