<?xml version="1.0" encoding="UTF-8" standalone="no"?>
<svg
   xmlns:dc="http://purl.org/dc/elements/1.1/"
   xmlns:cc="http://creativecommons.org/ns#"
   xmlns:rdf="http://www.w3.org/1999/02/22-rdf-syntax-ns#"
   xmlns:svg="http://www.w3.org/2000/svg"
   xmlns="http://www.w3.org/2000/svg"
   xmlns:sodipodi="http://sodipodi.sourceforge.net/DTD/sodipodi-0.dtd"
   xmlns:inkscape="http://www.inkscape.org/namespaces/inkscape"
   inkscape:version="1.0 (4035a4fb49, 2020-05-01)"
   sodipodi:docname="1ёё.svg"
   viewBox="0 0 725.66931 725.66931"
   id="svg82"
   height=""
   width=""
   version="1.1">
  <metadata
     id="metadata88">
    <rdf:RDF>
      <cc:Work
         rdf:about="">
        <dc:format>image/svg+xml</dc:format>
        <dc:type
           rdf:resource="http://purl.org/dc/dcmitype/StillImage" />
        <dc:title></dc:title>
      </cc:Work>
    </rdf:RDF>
  </metadata>
  <defs
     id="defs86" />
  <sodipodi:namedview
     inkscape:current-layer="svg82"
     inkscape:window-maximized="0"
     inkscape:window-y="0"
     inkscape:window-x="0"
     inkscape:cy="362.83466"
     inkscape:cx="362.83466"
     inkscape:zoom="0.79650605"
     showgrid="false"
     id="namedview84"
     inkscape:window-height="480"
     inkscape:window-width="820"
     inkscape:pageshadow="2"
     inkscape:pageopacity="0"
     guidetolerance="10"
     gridtolerance="10"
     objecttolerance="10"
     borderopacity="1"
     bordercolor="#666666"
     pagecolor="#ffffff" />
  <g
     id="Layer1000">
    <g
       id="Layer1001">
      <path
         id="path2"
         style="fill:#ff8080;fill-rule:evenodd;stroke:#000000;stroke-width:0.5669;stroke-linecap:butt;stroke-linejoin:miter;stroke-dasharray:none"
         d="M 463.5857,112.98 30.0562,438.9189 278.5852,590.086 693.3338,213.1293 Z" />
      <path
         id="path4"
         style="fill:#ff5555;fill-rule:evenodd;stroke:#000000;stroke-width:0.5669;stroke-linecap:butt;stroke-linejoin:miter;stroke-dasharray:none"
         d="M 278.5852,614.0251 V 590.086 L 30.0562,438.9189 v 23.9392 z" />
      <path
         id="path6"
         style="fill:#ffaaaa;fill-rule:evenodd;stroke:#000000;stroke-width:0.5669;stroke-linecap:butt;stroke-linejoin:miter;stroke-dasharray:none"
         d="M 278.5852,590.086 693.3338,213.1293 v 20.416 L 278.5852,614.0251 Z" />
    </g>
    <path
       id="path9"
       style="fill:#ffe680;fill-rule:evenodd;stroke:#000000;stroke-width:0.5669;stroke-linecap:butt;stroke-linejoin:miter;stroke-dasharray:none"
       d="M 452.071,389.2823 301.8229,524.8296 110.9025,416.2963 267.375,295.218 Z m 5.4829,-0.375 L 301.8229,528.6251 106.7784,416.5309 267.2346,292.2662 Z" />
    <path
       id="path11"
       style="fill:#ffe680;fill-rule:evenodd;stroke:#000000;stroke-width:0.5669;stroke-linecap:butt;stroke-linejoin:miter;stroke-dasharray:none"
       d="m 224.7935,364.6898 c 31.4017,-24.5015 82.4908,-7.0316 112.5571,36.3641 27.297,-5.4689 35.1553,9.2056 10.8891,15.6932 8.1731,12.3397 12.3245,23.5307 11.5297,33.3081 -1.1558,2.9349 -3.4351,4.111 -7.0459,3.2027 l -27.5432,-11.85 -8.3088,-7.2195 -1.7615,0.4804 c 0.4672,1.1044 3.9563,3.5897 8.1668,6.4055 0.405,4.998 -1.6325,7.3318 -5.925,7.2061 -3.9089,-3.9011 -8.475,-7.309 -14.092,-9.9284 l -5.8231,-7.6296 c -2.8039,-9.2898 -11.0438,-15.861 -24.0965,-20.0262 l -19.8143,2.1583 c -5.8151,-3.7459 -12.1887,-6.8404 -19.2845,-9.0918 -2.6756,-6.1371 -6.9321,-11.9582 -12.8108,-17.4547 l 1.2812,-13.2912 c -41.9412,-4.906 -46.633,48.5153 29.0727,71.9537 2.6942,2.4006 1.3547,4.9661 -1.6896,4.4308 -80.456,-24.0251 -88.54,-79.2627 -25.3014,-84.7115 z m 114.9388,67.4951 c 1.4373,0 2.6023,0.9679 2.6023,2.1619 0,1.194 -1.165,2.1619 -2.6023,2.1619 -1.4373,0 -2.6023,-0.9679 -2.6023,-2.1619 0,-1.194 1.165,-2.1619 2.6023,-2.1619 z m 8.6074,-26.332 c 2.786,0 5.0442,1.3777 5.0442,3.0777 0,1.7 -2.2582,3.0778 -5.0442,3.0778 -2.786,0 -5.0443,-1.3778 -5.0443,-3.0778 0,-1.7 2.2583,-3.0777 5.0443,-3.0777 z" />
    <path
       id="path13"
       style="fill:#ffb380;fill-rule:evenodd;stroke:#000000;stroke-width:0.5669;stroke-linecap:butt;stroke-linejoin:miter;stroke-dasharray:none"
       d="m 199.4619,443.043 3.0995,-7.9503 5.5245,0.8807 -5.6047,18.4959 -13.6915,10.8891 -6.0052,-0.16 -2.242,-4.724 1.6015,-6.8858 z" />
    <path
       id="path15"
       style="fill:none;stroke:#000000;stroke-width:0.5669;stroke-linecap:butt;stroke-linejoin:miter;stroke-dasharray:none"
       d="m 416.1843,228.4379 42.9341,16.3158" />
    <path
       id="path17"
       style="fill:#ffb380;fill-rule:evenodd;stroke:#000000;stroke-width:0.5669;stroke-linecap:butt;stroke-linejoin:miter;stroke-dasharray:none"
       d="m 456.747,283.2797 5.2847,2.1616 2.1929,-8.4829 7.5264,-11.9301 49.2418,-29.6252 -39.7939,-17.5348 -36.4703,18.8375 -16.2278,7.4863 -4.698,7.0047 32.2458,11.925 2.2016,6.347 0.2097,4.3673 z" />
    <path
       id="path19"
       style="fill:none;stroke:#000000;stroke-width:0.5669;stroke-linecap:butt;stroke-linejoin:miter;stroke-dasharray:none"
       d="M 471.7511,265.0283 428.7997,249.1149" />
    <path
       id="path21"
       style="fill:#ffb380;fill-rule:evenodd;stroke:#000000;stroke-width:0.5669;stroke-linecap:butt;stroke-linejoin:miter;stroke-dasharray:none"
       d="m 457.9795,263.8278 -43.5092,-15.9131 1.714,-19.4768 2.4021,-1.9215 40.6743,15.8534 z m -30.3843,-11.1126 17.0959,6.2017 c 0.855,-12.6206 -13.2239,-22.3706 -17.0959,-6.2017 z" />
    <path
       id="path23"
       style="fill:#ffccaa;fill-rule:evenodd;stroke:#000000;stroke-width:0.5669;stroke-linecap:butt;stroke-linejoin:miter;stroke-dasharray:none"
       d="m 470.5502,241.0081 -0.8807,-1.3611 3.7633,0.0799 4.0033,2.5623 0.1603,1.9215 -3.2828,3.0426 -15.8506,8.4733 0.3581,-5.9933 16.0529,-6.9638 -1.6014,-1.9215 z" />
    <path
       id="path25"
       style="fill:#ffb380;fill-rule:evenodd;stroke:#000000;stroke-width:0.5669;stroke-linecap:butt;stroke-linejoin:miter;stroke-dasharray:none"
       d="m 513.0676,317.7922 27.0626,-36.5107 7.6867,5.9249 -25.7819,35.2297 134.5134,-111.4539 -35.8702,-21.7782 -7.5264,-9.6082 -83.9107,-36.3505 -28.504,-2.7224 -33.3079,-12.3302 c -47.3442,27.6211 -93.477,56.2813 -134.8336,89.0348 l -8.9676,-0.6406 c 44.3866,-35.7797 92.2537,-67.7299 140.9186,-98.803 l 37.9519,12.6505 28.0238,4.3236 88.2342,35.5499 8.0067,10.2488 38.1123,22.8993 0.9606,10.5688 -123.3038,104.408 -16.0135,12.6506 -9.448,-0.6406 -3.8432,-3.2026 z" />
    <path
       id="path27"
       style="fill:#ffb380;fill-rule:evenodd;stroke:#000000;stroke-width:0.5669;stroke-linecap:butt;stroke-linejoin:miter;stroke-dasharray:none"
       d="m 390.7229,210.9832 -14.7325,-39.2331 5.2844,-5.4447 15.8534,43.7169 -0.3203,8.8076 -14.5723,19.8567 -8.487,-1.7614 15.6932,-20.3373 z" />
    <path
       id="path29"
       style="fill:#ffb380;fill-rule:evenodd;stroke:#000000;stroke-width:0.5669;stroke-linecap:butt;stroke-linejoin:miter;stroke-dasharray:none"
       d="m 446.5787,290.1823 -42.5658,65.5634 6.5655,4.6438 41.4749,-66.7763 5.2854,-11.45 1.1212,-8.3271 -0.2097,-4.3673 -2.2125,-6.3789 -10.5037,-4.0948 c -20.5353,-8.0055 -49.3182,-17.2905 -70.4755,-23.7675 l -5.8744,-0.7849 -4.3237,1.6012 -4.0033,4.4838 -4.1635,9.7683 -0.9609,7.3661 0.8009,2.7224 c 26.6215,13.4129 54.5135,24.5388 83.2701,34.1087 l 4.6663,-2.2733 z" />
    <path
       id="path31"
       style="fill:#ffb380;fill-rule:evenodd;stroke:#000000;stroke-width:0.5669;stroke-linecap:butt;stroke-linejoin:miter;stroke-dasharray:none"
       d="m 456.0486,263.1218 1.9309,0.706 11.5919,5.8342 1.9368,5.0149 -1.4332,14.2646 -4.7542,-2.0103 1.063,-10.0125 -1.6012,-4.1635 -6.5324,-3.2864 z" />
    <path
       id="path33"
       style="fill:none;stroke:#000000;stroke-width:0.5669;stroke-linecap:butt;stroke-linejoin:miter;stroke-dasharray:none"
       d="m 452.1567,281.4974 c 2.4594,-30.7979 -16.1166,-0.1147 -10.8654,12.2519" />
    <path
       id="path35"
       style="fill:#ffb380;fill-rule:evenodd;stroke:#000000;stroke-width:0.5669;stroke-linecap:butt;stroke-linejoin:miter;stroke-dasharray:none"
       d="m 440.3653,287.6497 c 0.1487,-3.5985 0.9273,-6.9657 2.2251,-10.143 l 73.2925,29.8896 -7.745,7.8787 c -38.4984,-15.6925 -29.2742,-11.9328 -67.7726,-27.6253 z" />
    <path
       id="path37"
       style="fill:#ffb380;fill-rule:evenodd;stroke:#000000;stroke-width:0.5669;stroke-linecap:butt;stroke-linejoin:miter;stroke-dasharray:none"
       d="M 207.2413,438.7609 C 316.2626,376.4887 401.7234,336.2163 514.1614,285.0484 l 3.6829,6.5653 C 409.7498,339.3824 305.4979,391.5164 204.2357,448.6796 Z" />
    <path
       id="path39"
       style="fill:#ffb380;fill-rule:evenodd;stroke:#000000;stroke-width:0.5669;stroke-linecap:butt;stroke-linejoin:miter;stroke-dasharray:none"
       d="m 216.9758,460.8339 0.6406,12.0103 2.7224,2.562 3.4428,-1.9217 -0.8006,-14.5723 -2.6422,-5.765 -18.9763,-15.6133 -7.126,-0.0799 -3.2026,3.683 0.8703,14.2036 3.7215,-2.8809 -0.2705,-8.2392 2.5379,0.0635 4.1901,0.296 z" />
    <path
       id="path41"
       style="fill:#ffb380;fill-rule:evenodd;stroke:#000000;stroke-width:0.5669;stroke-linecap:butt;stroke-linejoin:miter;stroke-dasharray:none"
       d="m 502.9759,323.8782 -8.4873,20.8176 -0.6405,3.0426 2.242,1.1209 4.3235,-0.9606 -0.3203,-3.2029 13.0283,-23.7036 -0.054,-3.2 10.1439,-13.6855 -2.6209,-0.7258 -10.8891,9.2879 z" />
    <path
       id="path43"
       style="fill:none;stroke:#000000;stroke-width:0.5669;stroke-linecap:butt;stroke-linejoin:miter;stroke-dasharray:none"
       d="m 433.5894,292.396 c -0.7181,-15.8586 4.3993,-26.2001 14.3576,-32.2374" />
    <path
       id="path45"
       style="fill:none;stroke:#000000;stroke-width:0.5669;stroke-linecap:butt;stroke-linejoin:miter;stroke-dasharray:none"
       d="m 427.8951,290.3132 c -0.718,-15.8585 4.3993,-26.2 14.3576,-32.2373" />
    <path
       id="path47"
       style="fill:none;stroke:#000000;stroke-width:0.5669;stroke-linecap:butt;stroke-linejoin:miter;stroke-dasharray:none"
       d="m 421.8672,288.1087 c -0.718,-15.8585 4.3994,-26.2 14.3576,-32.2373" />
    <path
       id="path49"
       style="fill:none;stroke:#000000;stroke-width:0.5669;stroke-linecap:butt;stroke-linejoin:miter;stroke-dasharray:none"
       d="m 416.5889,286.1783 c -0.7181,-15.8586 4.3993,-26.2001 14.3576,-32.2374" />
    <path
       id="path51"
       style="fill:none;stroke:#000000;stroke-width:0.5669;stroke-linecap:butt;stroke-linejoin:miter;stroke-dasharray:none"
       d="m 410.6588,284.0094 c -0.718,-15.8586 4.3993,-26.2001 14.3576,-32.2374" />
    <path
       id="path53"
       style="fill:none;stroke:#000000;stroke-width:0.5669;stroke-linecap:butt;stroke-linejoin:miter;stroke-dasharray:none"
       d="m 405.3141,282.0547 c -0.718,-15.8586 4.3993,-26.2 14.3576,-32.2374" />
    <path
       id="path55"
       style="fill:none;stroke:#000000;stroke-width:0.5669;stroke-linecap:butt;stroke-linejoin:miter;stroke-dasharray:none"
       d="m 398.996,279.5396 c -0.7181,-15.8586 5.5161,-25.5876 15.4743,-31.6249" />
    <path
       id="path57"
       style="fill:none;stroke:#000000;stroke-width:0.5669;stroke-linecap:butt;stroke-linejoin:miter;stroke-dasharray:none"
       d="m 393.545,277.3094 c -0.718,-15.8585 5.5948,-25.3859 15.553,-31.4232" />
    <path
       id="path59"
       style="fill:none;stroke:#000000;stroke-width:0.5669;stroke-linecap:butt;stroke-linejoin:miter;stroke-dasharray:none"
       d="m 388.2052,275.064 c -0.7181,-15.8585 5.3321,-24.9891 15.2903,-31.0264" />
    <path
       id="path61"
       style="fill:none;stroke:#000000;stroke-width:0.5669;stroke-linecap:butt;stroke-linejoin:miter;stroke-dasharray:none"
       d="m 382.5576,272.622 c -0.718,-15.8585 5.0731,-24.4567 15.0313,-30.494" />
    <path
       id="path63"
       style="fill:none;stroke:#000000;stroke-width:0.5669;stroke-linecap:butt;stroke-linejoin:miter;stroke-dasharray:none"
       d="m 376.7435,270.0321 c -0.718,-15.8585 5.2893,-23.6418 15.2475,-29.6791" />
    <path
       id="path65"
       style="fill:none;stroke:#000000;stroke-width:0.5669;stroke-linecap:butt;stroke-linejoin:miter;stroke-dasharray:none"
       d="m 372.036,267.877 c -0.718,-15.8586 4.4659,-23.2107 14.4242,-29.248" />
    <path
       id="path67"
       style="fill:none;stroke:#000000;stroke-width:0.5669;stroke-linecap:butt;stroke-linejoin:miter;stroke-dasharray:none"
       d="m 365.3554,264.7245 c 0.9636,-14.0971 5.4251,-21.7093 15.3834,-27.7463" />
    <path
       id="path69"
       style="fill:none;stroke:#000000;stroke-width:0.5669;stroke-linecap:butt;stroke-linejoin:miter;stroke-dasharray:none"
       d="m 359.6779,261.9552 c -0.3031,-12.4802 5.4224,-20.6903 15.3806,-26.7276" />
    <path
       id="path71"
       style="fill:#ffb380;fill-rule:evenodd;stroke:#000000;stroke-width:0.5669;stroke-linecap:butt;stroke-linejoin:miter;stroke-dasharray:none"
       d="m 297.9611,263.0906 4.8041,-1.4412 14.4164,-28.9018 7.0851,-8.0193 3.4796,-3.4329 0.9608,1.4412 -1.6072,3.3527 -14.0862,19.5466 2.402,3.0426 5.2845,-1.7614 6.7033,-10.535 5.3343,-7.6012 2.3746,-7.8058 -2.5168,-3.7476 -4.3617,-1.9588 -4.6059,1.3182 -8.8528,8.5517 -18.4156,35.5499 z" />
    <path
       id="path73"
       style="fill:#ffb380;fill-rule:evenodd;stroke:#000000;stroke-width:0.5669;stroke-linecap:butt;stroke-linejoin:miter;stroke-dasharray:none"
       d="m 318.0558,231.7584 6.2109,-7.0301 36.1065,16.9346 -3.6966,8.7621 z" />
    <path
       id="path75"
       style="fill:#ffb380;fill-rule:evenodd;stroke:#000000;stroke-width:0.5669;stroke-linecap:butt;stroke-linejoin:miter;stroke-dasharray:none"
       d="m 522.8784,321.2835 6.2191,-8.4982 32.2071,13.1343 v 5.9249 l -5.4444,2.8826 z" />
    <path
       id="path77"
       style="fill:none;stroke:#000000;stroke-width:0.5669;stroke-linecap:butt;stroke-linejoin:miter;stroke-dasharray:none"
       d="m 186.3075,458.0724 2.4822,-0.3203 7.4463,-5.765 2.8526,-7.6189" />
    <path
       id="path79"
       style="fill:none;stroke:#000000;stroke-width:0.5669;stroke-linecap:butt;stroke-linejoin:miter;stroke-dasharray:none"
       d="M 464.2248,276.9582 458.337,274.75" />
  </g>
</svg>
