<?xml version="1.0" encoding="UTF-8" standalone="no"?>
<svg
   xmlns:dc="http://purl.org/dc/elements/1.1/"
   xmlns:cc="http://creativecommons.org/ns#"
   xmlns:rdf="http://www.w3.org/1999/02/22-rdf-syntax-ns#"
   xmlns:svg="http://www.w3.org/2000/svg"
   xmlns="http://www.w3.org/2000/svg"
   xmlns:sodipodi="http://sodipodi.sourceforge.net/DTD/sodipodi-0.dtd"
   xmlns:inkscape="http://www.inkscape.org/namespaces/inkscape"
   inkscape:version="1.0 (4035a4fb49, 2020-05-01)"
   sodipodi:docname="3.svg"
   viewBox="0 0 725.66931 725.66931"
   id="svg139"
   height=""
   width=""
   version="1.1">
  <metadata
     id="metadata145">
    <rdf:RDF>
      <cc:Work
         rdf:about="">
        <dc:format>image/svg+xml</dc:format>
        <dc:type
           rdf:resource="http://purl.org/dc/dcmitype/StillImage" />
        <dc:title></dc:title>
      </cc:Work>
    </rdf:RDF>
  </metadata>
  <defs
     id="defs143" />
  <sodipodi:namedview
     inkscape:current-layer="svg139"
     inkscape:window-maximized="1"
     inkscape:window-y="-8"
     inkscape:window-x="-8"
     inkscape:cy="362.83466"
     inkscape:cx="362.83466"
     inkscape:zoom="0.79650605"
     showgrid="false"
     id="namedview141"
     inkscape:window-height="746"
     inkscape:window-width="1304"
     inkscape:pageshadow="2"
     inkscape:pageopacity="0"
     guidetolerance="10"
     gridtolerance="10"
     objecttolerance="10"
     borderopacity="1"
     bordercolor="#666666"
     pagecolor="#ffffff" />
  <g
     id="Layer1000">
    <path
       id="path2"
       style="fill:#ff5555;fill-rule:evenodd;stroke:#000000;stroke-width:0.5669;stroke-linecap:butt;stroke-linejoin:round;stroke-dasharray:none"
       d="M 677.3699,240.3987 243.9032,376.9493 247.5896,527.9781 671.1187,368.2976 Z" />
    <path
       id="path4"
       style="fill:#ff2a2a;fill-rule:evenodd;stroke:#000000;stroke-width:0.5669;stroke-linecap:butt;stroke-linejoin:round;stroke-dasharray:none"
       d="M 244.5267,402.5018 676.3113,262.0446" />
    <path
       id="path6"
       style="fill:#ffb380;fill-rule:evenodd;stroke:#000000;stroke-width:0.5669;stroke-linecap:butt;stroke-linejoin:round;stroke-dasharray:none"
       d="m 307.2945,356.9898 -13.4664,4.2324 0.3269,25.1363 2.298,1.6774 13.1069,-4.2837 -2.2654,-1.6681 z" />
    <path
       id="path8"
       style="fill:#ff5555;fill-rule:evenodd;stroke:#000000;stroke-width:0.5669;stroke-linecap:butt;stroke-linejoin:round;stroke-dasharray:none"
       d="M 243.9032,376.9493 247.5896,527.9781 70.5165,437.4277 62.5501,299.7627 Z" />
    <path
       id="path10"
       style="fill:#ff8080;fill-rule:evenodd;stroke:#000000;stroke-width:0.5669;stroke-linecap:butt;stroke-linejoin:round;stroke-dasharray:none"
       d="M 243.9032,376.9493 62.5501,299.7627 483.9563,190.5505 677.3699,240.3987 Z" />
    <path
       id="path12"
       style="fill:#ff5555;fill-rule:evenodd;stroke:#000000;stroke-width:0.5669;stroke-linecap:butt;stroke-linejoin:round;stroke-dasharray:none"
       d="m 88.8312,289.8045 -2.7819,3.8687 180.342,76.192 -0.1,-5.3591 z" />
    <path
       id="path14"
       style="fill:none;stroke:#000000;stroke-width:0.5669;stroke-linecap:butt;stroke-linejoin:round;stroke-dasharray:none"
       d="m 266.3913,369.8652 15.1645,-4.7769 4.4572,4.7945 -14.0492,4.7975 z" />
    <path
       id="path16"
       style="fill:#ff2a2a;fill-rule:evenodd;stroke:#000000;stroke-width:0.5669;stroke-linecap:butt;stroke-linejoin:round;stroke-dasharray:none"
       d="m 271.9638,374.6803 -4.9706,-4.2945 1.8427,23.8365 3.5563,-3.3507 z" />
    <path
       id="path18"
       style="fill:none;stroke:#000000;stroke-width:0.5669;stroke-linecap:butt;stroke-linejoin:round;stroke-dasharray:none"
       d="m 459.694,196.8384 2.6156,-3.3377 8.9175,-2.3892 4.0961,1.6764 z" />
    <path
       id="path20"
       style="fill:#ff5555;fill-rule:evenodd;stroke:#000000;stroke-width:0.5669;stroke-linecap:butt;stroke-linejoin:round;stroke-dasharray:none"
       d="m 462.3096,193.5007 -2.6156,3.3377 190.6483,52.0748 -1.3656,-4.6292 z" />
    <path
       id="path22"
       style="fill:none;stroke:#000000;stroke-width:0.5669;stroke-linecap:butt;stroke-linejoin:round;stroke-dasharray:none"
       d="m 650.3423,248.9132 -1.3656,-4.6292 10.4509,-3.2357 1.4526,4.5453 3.1036,4.5266 -8.7347,2.7565 z" />
    <path
       id="path24"
       style="fill:#ff2a2a;fill-rule:evenodd;stroke:#000000;stroke-width:0.5669;stroke-linecap:butt;stroke-linejoin:round;stroke-dasharray:none"
       d="m 651.3307,249.4467 3.9184,3.43 v 14.1294 l -4.0878,3.2197 z" />
    <path
       id="path26"
       style="fill:#ff8080;fill-rule:evenodd;stroke:#000000;stroke-width:0.5669;stroke-linecap:butt;stroke-linejoin:round;stroke-dasharray:none"
       d="m 285.7959,389.0776 -16.659,5.4192 4.4965,4.0946 12.6785,-4.2837 z" />
    <path
       id="path28"
       style="fill:#ff2a2a;fill-rule:evenodd;stroke:#000000;stroke-width:0.5669;stroke-linecap:butt;stroke-linejoin:round;stroke-dasharray:none"
       d="m 268.8359,394.2223 4.7975,4.3691 v 119.5668 l -4.5012,1.6976 z" />
    <path
       id="path30"
       style="fill:#ff2a2a;fill-rule:evenodd;stroke:#000000;stroke-width:0.5669;stroke-linecap:butt;stroke-linejoin:round;stroke-dasharray:none"
       d="m 645.0433,377.8823 6.0284,-107.3654 3.5123,2.8269 -5.5617,103.0388 z" />
    <path
       id="path32"
       style="fill:#ffb380;fill-rule:evenodd;stroke:#000000;stroke-width:0.5669;stroke-linecap:butt;stroke-linejoin:round;stroke-dasharray:none"
       d="m 136.8756,390.4043 c -1.5376,5.572 -2.8254,8.0037 -0.1088,15.1889 8.0928,6.1678 17.3755,8.6155 26.1547,11.5859 1.9778,-3.6397 2.4291,-11.0663 0.9791,-14.9345 z m 30.227,7.1686 -31.1984,-11.7662 c -5.0482,6.7185 -5.1581,14.617 -2.8953,21.5649 8.5238,8.4295 18.0754,12.1428 30.8393,14.2202 5.4902,-2.3706 6.2155,-11.8253 3.2544,-24.0189 z" />
    <path
       id="path34"
       style="fill:#ffb380;fill-rule:evenodd;stroke:#000000;stroke-width:0.5669;stroke-linecap:butt;stroke-linejoin:round;stroke-dasharray:none"
       d="m 135.9902,386.8356 2.5011,10.0846 24.3292,10.7938 0.6853,-8.2238 z" />
    <path
       id="path36"
       style="fill:#ffb380;fill-rule:evenodd;stroke:#000000;stroke-width:0.5669;stroke-linecap:butt;stroke-linejoin:round;stroke-dasharray:none"
       d="m 133.7798,382.4426 -0.0855,-7.7954 35.123,14.906 -0.1715,7.1961 -5.14,2.7409 -32.0386,-14.7346 z" />
    <path
       id="path38"
       style="fill:none;stroke:#000000;stroke-width:0.5669;stroke-linecap:butt;stroke-linejoin:round;stroke-dasharray:none"
       d="M 286.3119,394.3077 V 513.1058" />
    <path
       id="path40"
       style="fill:none;stroke:#000000;stroke-width:0.5669;stroke-linecap:butt;stroke-linejoin:round;stroke-dasharray:none"
       d="m 286.013,369.8828 v 16.329 l -13.6208,4.6598" />
    <path
       id="path42"
       style="fill:none;stroke:#000000;stroke-width:0.5669;stroke-linecap:butt;stroke-linejoin:round;stroke-dasharray:none"
       d="m 663.9838,250.1202 0.2321,14.2336 -8.9668,2.6523" />
    <path
       id="path44"
       style="fill:#ff8080;fill-rule:evenodd;stroke:#000000;stroke-width:0.5669;stroke-linecap:butt;stroke-linejoin:round;stroke-dasharray:none"
       d="m 651.0717,270.5169 3.5123,2.8269 9.8101,-3.4651 -3.2554,-2.57 z" />
    <path
       id="path46"
       style="fill:none;stroke:#000000;stroke-width:0.5669;stroke-linecap:butt;stroke-linejoin:round;stroke-dasharray:none"
       d="m 664.3941,269.8787 -5.8813,103.1719" />
    <path
       id="path48"
       style="fill:#ff8080;fill-rule:evenodd;stroke:#000000;stroke-width:0.5669;stroke-linecap:butt;stroke-linejoin:round;stroke-dasharray:none"
       d="m 266.2913,364.5061 12.8686,-4.3889 -177.3819,-73.782 -12.9468,3.4693 z" />
    <path
       id="path50"
       style="fill:#ff8080;fill-rule:evenodd;stroke:#000000;stroke-width:0.5669;stroke-linecap:butt;stroke-linejoin:round;stroke-dasharray:none"
       d="m 648.9767,244.284 10.4509,-3.2357 -188.2005,-49.9368 -8.9175,2.3892 z" />
    <path
       id="path52"
       style="fill:#ffb380;fill-rule:evenodd;stroke:#000000;stroke-width:0.5669;stroke-linecap:butt;stroke-linejoin:round;stroke-dasharray:none"
       d="m 308.687,389.6278 1.0003,34.507 -8.3953,2.7415 -5.6539,-3.7693 v -29.983 z" />
    <path
       id="path54"
       style="fill:none;stroke:#000000;stroke-width:0.5669;stroke-linecap:butt;stroke-linejoin:round;stroke-dasharray:none"
       d="m 301.1205,396.7218 -5.4824,-3.5978 v 29.983 l 5.6539,3.7693 z" />
    <path
       id="path56"
       style="fill:#ffb380;fill-rule:evenodd;stroke:#000000;stroke-width:0.5669;stroke-linecap:butt;stroke-linejoin:round;stroke-dasharray:none"
       d="m 488.3995,300.0518 -9.9629,3.015 v 23.4754 l 1.7214,1.2557 9.9723,-3.4874 -1.7308,-1.1392 z" />
    <path
       id="path58"
       style="fill:#ffb380;fill-rule:evenodd;stroke:#000000;stroke-width:0.5669;stroke-linecap:butt;stroke-linejoin:round;stroke-dasharray:none"
       d="m 478.191,333.4979 0.5139,26.5561 4.1122,3.4269 8.9092,-3.2554 -0.1714,-27.5845 -3.4434,-1.9654 z" />
    <path
       id="path60"
       style="fill:none;stroke:#000000;stroke-width:0.5669;stroke-linecap:butt;stroke-linejoin:round;stroke-dasharray:none"
       d="m 491.5606,333.5833 -8.8554,2.9964 -4.5142,-3.0818" />
    <path
       id="path62"
       style="fill:#ff9955;fill-rule:evenodd;stroke:#000000;stroke-width:0.5669;stroke-linecap:butt;stroke-linejoin:round;stroke-dasharray:none"
       d="m 478.191,333.4979 4.5142,3.0818 0.1119,26.9012 -4.1122,-3.4269 z" />
    <path
       id="path64"
       style="fill:#ffb380;fill-rule:evenodd;stroke:#000000;stroke-width:0.5669;stroke-linecap:butt;stroke-linejoin:round;stroke-dasharray:none"
       d="m 645.625,250.4507 -8.6932,2.6871 v 21.6726 l 2.0857,1.3469 8.703,-2.8767 -2.0955,-1.2536 z" />
    <path
       id="path66"
       style="fill:#ffb380;fill-rule:evenodd;stroke:#000000;stroke-width:0.5669;stroke-linecap:butt;stroke-linejoin:round;stroke-dasharray:none"
       d="m 645.6116,280.3855 -8.7875,2.8622 -1.0946,24.3814 3.5978,1.1993 6.5107,-1.5422 1.2386,-24.1556 z" />
    <path
       id="path68"
       style="fill:none;stroke:#000000;stroke-width:0.5669;stroke-linecap:butt;stroke-linejoin:round;stroke-dasharray:none"
       d="m 640.5265,285.527 6.5501,-2.3964" />
    <path
       id="path70"
       style="fill:#ff9955;fill-rule:evenodd;stroke:#000000;stroke-width:0.5669;stroke-linecap:butt;stroke-linejoin:round;stroke-dasharray:none"
       d="m 636.7873,284.0584 3.7392,1.4686 -1.1992,23.3014 -3.5978,-1.1993 z" />
    <path
       id="path72"
       style="fill:none;stroke:#000000;stroke-width:0.5669;stroke-linecap:butt;stroke-linejoin:round;stroke-dasharray:none"
       d="m 301.1205,396.7218 7.7105,-2.1416" />
    <path
       id="path74"
       style="fill:#ff5555;fill-rule:evenodd;stroke:#000000;stroke-width:0.5669;stroke-linecap:butt;stroke-linejoin:round;stroke-dasharray:none"
       d="m 266.2913,364.5061 0.1,5.3591 15.1645,-4.7769 -2.3959,-4.9711 z" />
    <path
       id="path76"
       style="fill:#ff5555;fill-rule:evenodd;stroke:#000000;stroke-width:0.5669;stroke-linecap:butt;stroke-linejoin:round;stroke-dasharray:none"
       d="m 660.8802,245.5936 -1.4526,-4.5453 -10.4509,3.2357 1.3656,4.6292 z" />
    <path
       id="path78"
       style="fill:none;stroke:#000000;stroke-width:0.5669;stroke-linecap:butt;stroke-linejoin:round;stroke-dasharray:none"
       d="m 297.4431,363.9586 c 0.7568,-0.1789 1.3699,0.2897 1.3699,1.0465 0,0.7569 -0.6131,1.5152 -1.3699,1.6937 -0.7569,0.1789 -1.3703,-0.2894 -1.3703,-1.0462 0,-0.7569 0.6134,-1.5152 1.3703,-1.694 z" />
    <path
       id="path80"
       style="fill:none;stroke:#000000;stroke-width:0.5669;stroke-linecap:butt;stroke-linejoin:round;stroke-dasharray:none"
       d="m 304.1002,361.866 c 0.7569,-0.1785 1.3703,0.2897 1.3703,1.0466 0,0.7568 -0.6134,1.5151 -1.3703,1.694 -0.7568,0.1788 -1.3702,-0.2897 -1.3702,-1.0466 0,-0.7568 0.6134,-1.5151 1.3702,-1.694 z" />
    <path
       id="path82"
       style="fill:none;stroke:#000000;stroke-width:0.5669;stroke-linecap:butt;stroke-linejoin:round;stroke-dasharray:none"
       d="m 300.8273,378.2506 c 0.7569,-0.1786 1.3703,0.2897 1.3703,1.0465 0,0.7569 -0.6134,1.5152 -1.3703,1.694 -0.7568,0.1789 -1.3702,-0.2897 -1.3702,-1.0465 0,-0.7569 0.6134,-1.5152 1.3702,-1.694 z" />
    <path
       id="path84"
       style="fill:none;stroke:#000000;stroke-width:0.5669;stroke-linecap:butt;stroke-linejoin:round;stroke-dasharray:none"
       d="m 481.1275,305.8401 c 0.5256,-0.1241 0.9513,0.201 0.9513,0.7265 0,0.5256 -0.4257,1.052 -0.9513,1.1761 -0.5255,0.1242 -0.9513,-0.2009 -0.9513,-0.7265 0,-0.5255 0.4258,-1.0519 0.9513,-1.1761 z" />
    <path
       id="path86"
       style="fill:none;stroke:#000000;stroke-width:0.5669;stroke-linecap:butt;stroke-linejoin:round;stroke-dasharray:none"
       d="m 486.0309,304.458 c 0.5253,-0.1242 0.9513,0.2009 0.9513,0.7265 0,0.5255 -0.426,1.0519 -0.9513,1.1761 -0.5255,0.1241 -0.9516,-0.201 -0.9516,-0.7266 0,-0.5255 0.4261,-1.0519 0.9516,-1.176 z" />
    <path
       id="path88"
       style="fill:none;stroke:#000000;stroke-width:0.5669;stroke-linecap:butt;stroke-linejoin:round;stroke-dasharray:none"
       d="m 483.6747,319.4152 c 0.5256,-0.1241 0.9513,0.201 0.9513,0.7266 0,0.5255 -0.4257,1.0519 -0.9513,1.1761 -0.5255,0.1241 -0.9513,-0.201 -0.9513,-0.7266 0,-0.5255 0.4258,-1.0519 0.9513,-1.1761 z" />
    <path
       id="path90"
       style="fill:none;stroke:#000000;stroke-width:0.5669;stroke-linecap:butt;stroke-linejoin:round;stroke-dasharray:none"
       d="m 643.0116,254.2657 c 0.3997,-0.0946 0.7237,0.1528 0.7237,0.5525 0,0.4 -0.324,0.8002 -0.7237,0.8949 -0.3997,0.0944 -0.7237,-0.1531 -0.7237,-0.5528 0,-0.3996 0.324,-0.8002 0.7237,-0.8946 z" />
    <path
       id="path92"
       style="fill:none;stroke:#000000;stroke-width:0.5669;stroke-linecap:butt;stroke-linejoin:round;stroke-dasharray:none"
       d="m 639.6701,255.1654 c 0.4,-0.0943 0.7237,0.1531 0.7237,0.5528 0,0.3997 -0.3237,0.8002 -0.7237,0.8946 -0.3997,0.0944 -0.7237,-0.1531 -0.7237,-0.5527 0,-0.3997 0.324,-0.8003 0.7237,-0.8947 z" />
    <path
       id="path94"
       style="fill:none;stroke:#000000;stroke-width:0.5669;stroke-linecap:butt;stroke-linejoin:round;stroke-dasharray:none"
       d="m 641.3822,269.8761 c 0.3997,-0.0944 0.7237,0.1531 0.7237,0.5528 0,0.3997 -0.324,0.8002 -0.7237,0.8946 -0.3996,0.0944 -0.7236,-0.1528 -0.7236,-0.5528 0,-0.3996 0.324,-0.8002 0.7236,-0.8946 z" />
    <path
       id="path96"
       style="fill:none;stroke:#000000;stroke-width:0.5669;stroke-linecap:butt;stroke-linejoin:round;stroke-dasharray:none"
       d="m 136.4077,378.301 c 0.5678,0.1508 1.0278,0.7524 1.0278,1.3439 0,0.5916 -0.46,0.9485 -1.0278,0.7977 -0.5678,-0.1508 -1.0276,-0.7523 -1.0276,-1.3439 0,-0.5916 0.4598,-0.9485 1.0276,-0.7977 z" />
    <path
       id="path98"
       style="fill:none;stroke:#000000;stroke-width:0.5669;stroke-linecap:butt;stroke-linejoin:round;stroke-dasharray:none"
       d="m 165.8775,390.6641 c 0.5678,0.1508 1.0276,0.7523 1.0276,1.3439 0,0.5916 -0.4598,0.9484 -1.0276,0.7976 -0.5678,-0.151 -1.0278,-0.7523 -1.0278,-1.3439 0,-0.5916 0.46,-0.9487 1.0278,-0.7976 z" />
    <path
       id="path100"
       style="fill:none;stroke:#000000;stroke-width:0.5669;stroke-linecap:butt;stroke-linejoin:round;stroke-dasharray:none"
       d="m 140.7359,394.1768 c 0.5678,0.1508 1.0278,0.7523 1.0278,1.3439 0,0.5916 -0.46,0.9484 -1.0278,0.7976 -0.5678,-0.1508 -1.0278,-0.7523 -1.0278,-1.3439 0,-0.5916 0.46,-0.9484 1.0278,-0.7976 z" />
    <path
       id="path102"
       style="fill:none;stroke:#000000;stroke-width:0.5669;stroke-linecap:butt;stroke-linejoin:round;stroke-dasharray:none"
       d="m 160.5464,403.0866 c 0.5678,0.1508 1.0276,0.7523 1.0276,1.3439 0,0.5916 -0.4598,0.9485 -1.0276,0.7977 -0.5678,-0.1511 -1.0278,-0.7523 -1.0278,-1.3439 0,-0.5916 0.46,-0.9488 1.0278,-0.7977 z" />
    <path
       id="path104"
       style="fill:none;stroke:#000000;stroke-width:0.5669;stroke-linecap:butt;stroke-linejoin:round;stroke-dasharray:none"
       d="M 163.2991,401.9752 136.8756,390.4043" />
    <path
       id="path106"
       style="fill:none;stroke:#000000;stroke-width:0.5669;stroke-linecap:butt;stroke-linejoin:round;stroke-dasharray:none"
       d="m 133.7798,382.4426 34.1148,14.7076" />
    <path
       id="path108"
       style="fill:#ffb380;fill-rule:evenodd;stroke:#000000;stroke-width:0.5669;stroke-linecap:butt;stroke-linejoin:round;stroke-dasharray:none"
       d="m 167.8946,397.1502 -34.1148,-14.7076 -2.3126,2.313 4.523,2.08 0.8854,3.5687 26.4235,11.5709 c 0.3326,-2.7233 1.8846,-4.3116 4.5955,-4.825 z" />
    <path
       id="path110"
       style="fill:none;stroke:#000000;stroke-width:0.5669;stroke-linecap:butt;stroke-linejoin:round;stroke-dasharray:none"
       d="m 286.013,386.2118 -0.2171,2.8658" />
    <path
       id="path112"
       style="fill:none;stroke:#000000;stroke-width:0.5669;stroke-linecap:butt;stroke-linejoin:round;stroke-dasharray:none"
       d="m 664.2159,264.3538 -3.0772,2.9549" />
    <path
       id="path114"
       style="fill:#ff2a2a;fill-rule:evenodd;stroke:#000000;stroke-width:0.5669;stroke-linecap:butt;stroke-linejoin:round;stroke-dasharray:none"
       d="m 268.8364,394.5942 3.5558,-3.7226 13.6208,-4.6598 -0.2171,2.8658 z" />
    <path
       id="path116"
       style="fill:#ff2a2a;fill-rule:evenodd;stroke:#000000;stroke-width:0.5669;stroke-linecap:butt;stroke-linejoin:round;stroke-dasharray:none"
       d="m 664.2159,264.3538 -8.9668,2.6523 -4.0878,3.2197 9.9774,-2.9171 z" />
    <path
       id="path118"
       style="fill:#ffb380;fill-rule:evenodd;stroke:#000000;stroke-width:0.5669;stroke-linecap:butt;stroke-linejoin:miter;stroke-dasharray:none"
       d="m 293.5616,385.6949 0.1681,14.6696 h 4.1249 v -2.5311 l -2.3465,-0.0938 v -10.3935 l 13.9745,-4.0839 0.3413,11.382 -0.9598,1.078 0.0638,2.2037 2.7045,-2.9914 -0.4371,-14.9137 z" />
    <path
       id="path120"
       style="fill:#ffb380;fill-rule:evenodd;stroke:#000000;stroke-width:0.5669;stroke-linecap:butt;stroke-linejoin:round;stroke-dasharray:none"
       d="m 309.5597,383.7523 -13.1068,4.2835 v -2.437 l 13.013,-4.2213 z" />
    <path
       id="path122"
       style="fill:#000000;fill-rule:evenodd;stroke:#000000;stroke-width:0.5669;stroke-linecap:butt;stroke-linejoin:miter;stroke-dasharray:none"
       d="m 307.8303,396.0618 -5.6148,1.5936 v 2.672 l 5.6148,-1.5044 z" />
    <path
       id="path124"
       style="fill:#ffb380;fill-rule:evenodd;stroke:#000000;stroke-width:0.5669;stroke-linecap:butt;stroke-linejoin:miter;stroke-dasharray:none"
       d="m 477.0006,325.6106 0.6259,14.3201 3.0982,-0.1709 -0.5159,-1.8499 -1.2608,-0.0505 -0.5653,-10.4162 12.6261,-3.6898 0.546,8.8877 0.005,0.942 0.0229,3.6425 1.264,-0.5621 -0.9774,-15.8375 z" />
    <path
       id="path126"
       style="fill:#ffb380;fill-rule:evenodd;stroke:#000000;stroke-width:0.5669;stroke-linecap:butt;stroke-linejoin:round;stroke-dasharray:none"
       d="m 490.1304,324.3104 -9.9723,3.4875 v -1.8893 l 9.9238,-3.2672 z" />
    <path
       id="path128"
       style="fill:#ffb380;fill-rule:evenodd;stroke:#000000;stroke-width:0.5669;stroke-linecap:butt;stroke-linejoin:miter;stroke-dasharray:none"
       d="m 635.3048,274.4195 0.115,14.6183 2.9132,-0.2549 -0.4708,-1.6665 -0.6676,-0.0266 0.0556,-10.6951 10.4808,-3.3191 0.0703,11.4117 -0.8113,0.3257 -0.0805,1.5704 1.9534,-0.9312 -0.1097,-15.3717 z" />
    <path
       id="path130"
       style="fill:#ffb380;fill-rule:evenodd;stroke:#000000;stroke-width:0.5669;stroke-linecap:butt;stroke-linejoin:round;stroke-dasharray:none"
       d="m 639.0176,276.1574 8.7029,-2.8769 0.1032,-1.9689 -8.8061,2.8687 z" />
    <path
       id="path132"
       style="fill:#000000;fill-rule:evenodd;stroke:#000000;stroke-width:0.5669;stroke-linecap:butt;stroke-linejoin:miter;stroke-dasharray:none"
       d="m 484.0775,341.2216 -0.0572,-3.7233 6.3031,-2.1362 -0.0703,3.797 z" />
    <path
       id="path134"
       style="fill:#000000;fill-rule:evenodd;stroke:#000000;stroke-width:0.5669;stroke-linecap:butt;stroke-linejoin:miter;stroke-dasharray:none"
       d="m 641.8273,286.6796 3.8747,-1.3209 -0.2053,3.0277 -3.7559,1.1092 z" />
    <path
       id="path136"
       style="fill:none;stroke:#000000;stroke-width:0.5669;stroke-linecap:butt;stroke-linejoin:miter;stroke-dasharray:none"
       d="M 244.5267,402.5018 63.8229,321.7513" />
  </g>
</svg>
