<?xml version="1.0" encoding="UTF-8" standalone="no"?>
<svg
   xmlns:dc="http://purl.org/dc/elements/1.1/"
   xmlns:cc="http://creativecommons.org/ns#"
   xmlns:rdf="http://www.w3.org/1999/02/22-rdf-syntax-ns#"
   xmlns:svg="http://www.w3.org/2000/svg"
   xmlns="http://www.w3.org/2000/svg"
   xmlns:sodipodi="http://sodipodi.sourceforge.net/DTD/sodipodi-0.dtd"
   xmlns:inkscape="http://www.inkscape.org/namespaces/inkscape"
   inkscape:version="1.0 (4035a4fb49, 2020-05-01)"
   sodipodi:docname="256.svg"
   viewBox="0 0 725.66931 725.66931"
   id="svg4"
   height=""
   width=""
   version="1.1">
  <metadata
     id="metadata10">
    <rdf:RDF>
      <cc:Work
         rdf:about="">
        <dc:format>image/svg+xml</dc:format>
        <dc:type
           rdf:resource="http://purl.org/dc/dcmitype/StillImage" />
        <dc:title></dc:title>
      </cc:Work>
    </rdf:RDF>
  </metadata>
  <defs
     id="defs8" />
  <sodipodi:namedview
     inkscape:current-layer="svg4"
     inkscape:window-maximized="1"
     inkscape:window-y="-8"
     inkscape:window-x="-8"
     inkscape:cy="362.83466"
     inkscape:cx="362.83466"
     inkscape:zoom="0.79650605"
     showgrid="false"
     id="namedview6"
     inkscape:window-height="746"
     inkscape:window-width="1304"
     inkscape:pageshadow="2"
     inkscape:pageopacity="0"
     guidetolerance="10"
     gridtolerance="10"
     objecttolerance="10"
     borderopacity="1"
     bordercolor="#666666"
     pagecolor="#ffffff" />
  <path
     id="path2"
     style="fill:#ffffff;fill-rule:evenodd;stroke:#000000;stroke-width:2.9999;stroke-linecap:butt;stroke-linejoin:miter;stroke-dasharray:none"
     d="M 206.8903,190.2892 V 28.7887 h 55.6379 c 12.556,0 22.1422,0.752 28.7589,2.2932 9.2477,2.143 17.1425,6.0148 23.6837,11.5787 8.5334,7.2178 14.8867,16.3907 19.0973,27.5935 4.248,11.2028 6.3533,24.022 6.3533,38.4203 0,12.2553 -1.4287,23.1199 -4.2857,32.5933 -2.8571,9.4734 -6.5412,17.3304 -11.0149,23.5332 -4.511,6.2031 -9.3982,11.09 -14.7365,14.624 -5.3007,3.5713 -11.7292,6.2778 -19.2478,8.1201 -7.5563,1.8419 -16.2025,2.7442 -25.9769,2.7442 z m 21.4279,-18.9471 h 34.4356 c 10.6387,0 18.9845,-0.9773 25.037,-2.9698 6.0525,-1.9925 10.8643,-4.7744 14.4734,-8.3832 5.0375,-5.0751 8.9847,-11.9171 11.8043,-20.4882 2.8194,-8.5715 4.248,-18.9471 4.248,-31.165 0,-16.9169 -2.7819,-29.9242 -8.308,-39.0217 -5.5265,-9.0975 -12.2556,-15.1875 -20.1878,-18.2702 -5.7141,-2.2181 -14.9244,-3.3083 -27.631,-3.3083 h -33.8715 z m 218.8304,-18.9467 20.5257,2.7065 c -3.1952,11.9171 -9.1726,21.2026 -17.8943,27.7815 -8.7216,6.5786 -19.8493,9.887 -33.4204,9.887 -17.0672,0 -30.6009,-5.2631 -40.6007,-15.7893 -9.9998,-10.4885 -14.9995,-25.2626 -14.9995,-44.2471 0,-19.6237 5.0375,-34.8866 15.15,-45.7135 10.1126,-10.8643 23.2325,-16.2777 39.36,-16.2777 15.6013,0 28.3453,5.3005 38.2325,15.9395 9.887,10.639 14.8493,25.6008 14.8493,44.8864 0,1.1653 -0.0377,2.9321 -0.1128,5.263 h -87.1787 c 0.7518,12.8192 4.3608,22.6687 10.9021,29.473 6.5035,6.8043 14.6613,10.2254 24.3978,10.2254 7.2555,0 13.4586,-1.9173 18.5711,-5.7518 5.1503,-3.8344 9.2104,-9.962 12.2179,-18.3829 z m -64.9613,-31.8039 h 65.1867 c -0.8646,-9.8495 -3.3832,-17.2179 -7.4809,-22.1426 -6.2782,-7.6314 -14.4734,-11.4658 -24.5109,-11.4658 -9.0975,0 -16.729,3.045 -22.9317,9.1352 -6.1654,6.09 -9.5862,14.2478 -10.2632,24.4732 z M 492.298,190.2892 V 28.7887 h 19.8493 V 190.2892 Z M 337.2636,427.6154 c -7.3684,6.2781 -14.4734,10.6764 -21.2777,13.2704 -6.8046,2.5939 -14.0976,3.8721 -21.9169,3.8721 -12.8568,0 -22.7441,-3.1204 -29.6612,-9.3983 -6.9171,-6.2405 -10.3756,-14.2478 -10.3756,-23.9845 0,-5.7141 1.3158,-10.9397 3.9098,-15.6764 2.6314,-4.7367 6.0522,-8.496 10.2628,-11.3531 4.248,-2.857 8.9847,-5.0374 14.2855,-6.5038 3.9095,-1.0148 9.8118,-1.9922 17.6686,-2.9698 16.0149,-1.8797 27.8567,-4.1726 35.413,-6.8043 0.0751,-2.7068 0.1128,-4.436 0.1128,-5.1503 0,-8.045 -1.8797,-13.7214 -5.639,-17.0297 -5.0751,-4.4736 -12.6314,-6.6914 -22.6312,-6.6914 -9.3606,0 -16.278,1.654 -20.7139,4.9246 -4.4736,3.2706 -7.7443,9.0598 -9.887,17.4056 l -19.398,-2.7068 c 1.7668,-8.3081 4.6616,-15.0373 8.7216,-20.1498 4.0601,-5.1126 9.9247,-9.0224 17.5935,-11.8044 7.6315,-2.7442 16.541,-4.1351 26.6162,-4.1351 9.9998,0 18.1574,1.1653 24.4355,3.5336 6.2405,2.3684 10.8644,5.3008 13.7968,8.8722 2.9322,3.5714 4.9998,8.0824 6.2028,13.5334 0.6392,3.3835 0.9774,9.4734 0.9774,18.2328 v 26.3151 c 0,18.3833 0.4135,29.9994 1.2407,34.9243 0.7894,4.9246 2.4435,9.6239 4.8495,14.1349 H 341.098 c -1.9925,-4.1729 -3.2706,-9.0601 -3.8344,-14.6613 z m -1.5789,-43.9841 c -7.2179,2.9322 -18.0448,5.4133 -32.4805,7.4435 -8.1955,1.1653 -13.9847,2.4812 -17.3682,3.9472 -3.3834,1.4661 -5.9774,3.6091 -7.8193,6.391 -1.8423,2.8194 -2.782,5.9398 -2.782,9.3983 0,5.2254 1.9925,9.6236 6.0149,13.1199 4.0226,3.4962 9.8869,5.2631 17.5938,5.2631 7.6314,0 14.4357,-1.654 20.4131,-4.9998 5.9397,-3.3083 10.338,-7.8571 13.1199,-13.6088 2.143,-4.4737 3.1955,-11.0526 3.1955,-19.7365 z m 50.1117,58.6454 V 280.7762 h 19.8493 v 161.5005 z m 50.1117,0 V 280.7762 h 19.8493 V 442.2767 Z M 137.7751,694.2643 V 532.7637 h 21.9543 l 84.7353,126.7645 V 532.7637 h 20.5259 V 694.2643 H 243.036 L 158.3011,567.5 v 126.7643 z m 163.1172,0 V 532.7637 h 60.976 c 10.7141,0 18.9094,0.5264 24.586,1.5415 7.9322,1.3158 14.5863,3.8344 19.9619,7.5186 5.3759,3.7216 9.699,8.9096 12.9696,15.5636 3.2706,6.6541 4.8872,13.9848 4.8872,21.9921 0,13.6839 -4.3608,25.3 -13.1198,34.7737 -8.7217,9.5111 -24.5486,14.2478 -47.4052,14.2478 h -41.4278 v 65.8633 z m 21.4279,-84.8104 h 41.7285 c 13.8342,0 23.6087,-2.5563 29.4356,-7.7065 5.7894,-5.1503 8.6839,-12.3682 8.6839,-21.729 0,-6.7292 -1.6917,-12.5184 -5.1126,-17.3305 -3.4211,-4.8118 -7.9322,-8.0073 -13.496,-9.5485 -3.6088,-0.9399 -10.2628,-1.4286 -19.9245,-1.4286 h -41.3149 z m 244.055,28.1574 21.4283,5.4133 c -4.4737,17.5561 -12.5187,30.9016 -24.1348,40.112 -11.6164,9.2103 -25.8267,13.8345 -42.6308,13.8345 -17.3681,0 -31.5031,-3.534 -42.4051,-10.639 -10.9021,-7.0677 -19.1725,-17.3305 -24.8491,-30.7511 -5.6767,-13.4586 -8.5337,-27.8567 -8.5337,-43.27 0,-16.8041 3.1955,-31.4655 9.6239,-43.9841 6.4284,-12.5184 15.5636,-22.0295 27.4053,-28.5333 11.8421,-6.5035 24.8868,-9.7364 39.0972,-9.7364 16.1648,0 29.736,4.0975 40.7134,12.3304 11.0146,8.233 18.6837,19.7742 23.0069,34.6609 l -20.977,4.9624 c -3.7216,-11.7289 -9.1726,-20.3003 -16.2779,-25.6386 -7.1051,-5.3759 -16.0521,-8.045 -26.8416,-8.045 -12.3681,0 -22.7438,2.9699 -31.0518,8.9096 -8.3081,5.9397 -14.1727,13.947 -17.5184,23.9471 -3.3834,10.0372 -5.0752,20.3754 -5.0752,31.0141 0,13.7217 1.9925,25.714 5.9775,35.9394 3.9846,10.2628 10.1877,17.8942 18.6086,22.9694 8.4208,5.0751 17.5183,7.5937 27.3302,7.5937 11.9545,0 22.0297,-3.4585 30.3001,-10.3382 8.2706,-6.9171 13.8719,-17.1422 16.804,-30.7511 z" />
</svg>
