<?xml version="1.0" encoding="UTF-8" standalone="no"?>
<svg
   xmlns:dc="http://purl.org/dc/elements/1.1/"
   xmlns:cc="http://creativecommons.org/ns#"
   xmlns:rdf="http://www.w3.org/1999/02/22-rdf-syntax-ns#"
   xmlns:svg="http://www.w3.org/2000/svg"
   xmlns="http://www.w3.org/2000/svg"
   xmlns:sodipodi="http://sodipodi.sourceforge.net/DTD/sodipodi-0.dtd"
   xmlns:inkscape="http://www.inkscape.org/namespaces/inkscape"
   inkscape:version="1.0 (4035a4fb49, 2020-05-01)"
   sodipodi:docname="323234.svg"
   viewBox="0 0 7256.6929 7256.6929"
   id="svg40"
   height=""
   width=""
   version="1.1">
  <metadata
     id="metadata46">
    <rdf:RDF>
      <cc:Work
         rdf:about="">
        <dc:format>image/svg+xml</dc:format>
        <dc:type
           rdf:resource="http://purl.org/dc/dcmitype/StillImage" />
        <dc:title></dc:title>
      </cc:Work>
    </rdf:RDF>
  </metadata>
  <defs
     id="defs44" />
  <sodipodi:namedview
     inkscape:current-layer="svg40"
     inkscape:window-maximized="0"
     inkscape:window-y="0"
     inkscape:window-x="0"
     inkscape:cy="3628.3464"
     inkscape:cx="3628.3464"
     inkscape:zoom="0.019912652"
     showgrid="false"
     id="namedview42"
     inkscape:window-height="480"
     inkscape:window-width="820"
     inkscape:pageshadow="2"
     inkscape:pageopacity="0"
     guidetolerance="10"
     gridtolerance="10"
     objecttolerance="10"
     borderopacity="1"
     bordercolor="#666666"
     pagecolor="#ffffff" />
  <g
     id="Layer1000">
    <path
       id="path2"
       style="fill:#ffaaee;fill-rule:evenodd"
       d="m 930.1643,5467.4308 -132.7759,732.7263 h 265.5519 z M 64.6622,6332.9331 797.3884,6465.709 v -265.5519 z m 1731.0044,0 -732.7263,132.7759 V 6200.1571 Z M 930.1643,7198.4352 797.3884,6465.709 h 265.5519 z m 132.776,-998.2781 H 797.3884 v 265.5519 h 265.5519 z" />
    <path
       id="path4"
       style="fill:#ffffff;fill-rule:evenodd"
       d="m 930.1642,5629.921 -107.8485,595.1636 h 215.697 z m -703.0121,703.0122 595.1636,107.8484 v -215.697 z m 1406.0243,0 -595.1637,107.8484 v -215.697 z M 930.1642,7035.9453 822.3157,6440.7816 h 215.697 z m 107.8485,-810.8607 h -215.697 v 215.697 h 215.697 z" />
  </g>
  <g
     id="Layer1001">
    <path
       id="path7"
       style="fill:#ffaaee;fill-rule:evenodd"
       d="m 493.4038,4601.9283 -66.388,366.3631 h 132.776 z m -432.7511,432.7511 366.3631,66.3879 v -132.7759 z m 865.5022,0 -366.3631,66.3879 v -132.7759 z m -432.7511,432.751 -66.388,-366.3631 h 132.776 z m 66.388,-499.139 h -132.776 v 132.7759 h 132.776 z" />
    <path
       id="path9"
       style="fill:#ffffff;fill-rule:evenodd"
       d="m 493.4037,4683.1734 -53.9242,297.5818 H 547.328 Z m -351.506,351.5061 297.5818,53.9242 v -107.8485 z m 703.0121,0 -297.5818,53.9242 v -107.8485 z m -351.5061,351.506 -53.9242,-297.5818 H 547.328 Z M 547.328,4980.7552 H 439.4795 v 107.8485 H 547.328 Z" />
  </g>
  <g
     id="Layer1002">
    <path
       id="path12"
       style="fill:#ffaaee;fill-rule:evenodd"
       d="m 2228.4175,6329.9369 -66.3879,366.3632 h 132.7759 z m -432.751,432.7512 366.3631,66.3879 v -132.7759 z m 865.5021,0 -366.3631,66.3879 v -132.7759 z m -432.7511,432.751 -66.3879,-366.3631 h 132.7759 z m 66.388,-499.139 h -132.7759 v 132.7759 h 132.7759 z" />
    <path
       id="path14"
       style="fill:#ffffff;fill-rule:evenodd"
       d="m 2228.4175,6411.182 -53.9242,297.5818 h 107.8485 z m -351.506,351.5061 297.5818,53.9242 v -107.8485 z m 703.0121,0 -297.5818,53.9242 v -107.8485 z m -351.5061,351.506 -53.9242,-297.5818 h 107.8485 z m 53.9243,-405.4303 h -107.8485 v 107.8485 h 107.8485 z" />
  </g>
  <g
     id="Layer1003">
    <g
       id="Layer1004">
      <path
         id="path17"
         style="fill:#ffaaee;fill-rule:evenodd"
         d="M 844.5301,1760.347 C 719.7344,1181.8601 1090.451,819.3743 1090.451,819.3743 c 357.4806,-370.7166 2424.5063,731.6452 1833.5621,1113.3731 819.2914,1012.1575 1432.7033,1484.6459 2198.4949,1988.3889 765.7916,503.8542 967.3333,398.9679 1290.4451,982.5712 C 6657.428,6706.1264 4843.7754,6685.5495 4650.242,6388.5759 4061.4111,6432.3989 3147.0214,6454.8666 3291.8378,5086.3408 2293.2499,4363.26 1533.3533,3051.6819 844.5301,1760.4582 Z" />
      <path
         id="path19"
         style="fill:#808080;fill-rule:evenodd"
         d="m 5713.4539,4597.6381 c 722.1965,373.3081 609.8874,1108.5487 126.0831,1484.8505 -382.355,297.1199 -931.1873,264.1898 -1139.6484,6.586 C 3424.4891,6527.0457 3383.4327,5272.4067 3552.956,4956.2774 2265.2396,4121.3485 1735.876,2921.0444 1136.3189,1872.8177 987.4562,1543.5162 954.2135,1065.7295 1359.0834,953.9167 c 264.3508,-72.7458 885.628,252.9634 1347.4471,755.298 43.1754,46.8506 25.2961,164.9502 -66.7499,201.3231 760.0747,1147.3166 1785.4268,2021.3126 3073.5406,2687.1006 z" />
      <path
         id="path21"
         style="fill:#000000;fill-rule:evenodd"
         d="m 2640.1641,1911.6145 -5.0052,-18.0187 c -37.2607,14.9043 -73.4092,20.132 -113.8955,19.4646 -40.7087,-1.5572 -85.1992,-7.5634 -139.0326,-16.1278 -107.7781,-17.0176 -249.1465,-40.375 -465.37,-33.9239 216.1123,0 356.4796,29.3637 462.5893,52.4987 52.9437,11.5675 98.3239,21.8003 140.5898,25.8044 11.57,1.3278 23.3325,2.0308 35.0212,2.0308 30.5533,0 60.9583,-4.6607 90.1059,-13.7231 z M 4712.3062,6100.834 h -16.0166 c -30.6984,-46.715 -69.2938,-102.7729 -103.6627,-161.6115 -36.5934,-62.6203 -68.2928,-128.355 -81.1951,-189.6405 17.0176,59.5059 52.2763,122.1262 91.8728,181.1873 37.2607,55.613 78.6368,108.0005 112.672,152.1573 -1.1122,5.8949 -2.4469,11.6787 -3.6704,17.5737 z M 1145.1742,1889.8142 c -2.447,-2.7807 -4.7827,-5.5613 -7.1185,-8.6757 5.9123,-5.3113 12.6909,-9.6043 20.0168,-12.6809 8.5272,-3.6215 17.3702,-6.6415 26.3645,-8.9011 21.2092,-5.2068 42.9489,-9.026 64.6302,-11.3175 21.8133,-2.4979 44.5435,-4.4866 66.5635,-5.7654 20.4656,-1.5572 38.1505,-2.2246 49.8293,-2.8919 -11.5675,2.5582 -29.1413,5.4501 -49.3844,8.6756 -20.2432,3.3368 -43.1557,7.0073 -65.6234,11.6788 -22.3564,4.6714 -44.0455,10.2328 -61.9529,16.7951 -8.8981,3.3368 -16.6839,6.896 -22.9126,10.6777 -4.9866,2.6906 -9.4628,6.4008 -13.0721,10.8562 -2.3319,-2.7403 -4.909,-5.6795 -7.351,-8.3472 z" />
    </g>
  </g>
  <g
     id="Layer1005">
    <path
       id="path25"
       style="fill:#ffaaee;fill-rule:evenodd"
       d="m 4290.95,23.14 -88.5173,488.4841 h 177.0346 z m -577.0014,577.0015 488.4841,88.5172 V 511.6241 Z m 1154.0028,0 -488.4841,88.5172 V 511.6241 Z M 4290.95,1177.1428 4202.4327,688.6587 h 177.0346 z m 88.5173,-665.5187 h -177.0346 v 177.0346 h 177.0346 z" />
    <path
       id="path27"
       style="fill:#ffffff;fill-rule:evenodd"
       d="m 4290.9499,131.4668 -71.8989,396.7757 h 143.7979 z m -468.6746,468.6747 396.7757,71.899 v -143.798 z m 937.3493,0 -396.7757,71.899 v -143.798 z m -468.6747,468.6747 -71.8989,-396.7757 h 143.7979 z m 71.899,-540.5737 H 4219.051 v 143.798 h 143.7979 z" />
  </g>
  <g
     id="Layer1006">
    <path
       id="path30"
       style="fill:#ffaaee;fill-rule:evenodd"
       d="m 6598.9553,2331.1459 -88.5172,488.4841 h 177.0346 z m -577.0013,577.0015 488.4841,88.5172 V 2819.63 Z m 1154.0028,0 -488.4841,88.5172 V 2819.63 Z m -577.0015,577.0013 -88.5172,-488.4841 h 177.0346 z m 88.5174,-665.5187 h -177.0346 v 177.0346 h 177.0346 z" />
    <path
       id="path32"
       style="fill:#ffffff;fill-rule:evenodd"
       d="m 6598.9553,2439.4727 -71.899,396.7757 h 143.798 z m -468.6747,468.6747 396.7757,71.899 v -143.798 z m 937.3494,0 -396.7757,71.899 v -143.798 z m -468.6747,468.6747 -71.899,-396.7757 h 143.798 z m 71.899,-540.5737 h -143.798 v 143.798 h 143.798 z" />
  </g>
  <g
     id="Layer1007">
    <path
       id="path35"
       style="fill:#ffaaee;fill-rule:evenodd"
       d="m 6021.9541,23.1397 -177.0345,976.9683 h 354.0692 z m -1154.0028,1154.003 976.9683,177.0345 V 1000.108 Z m 2308.0058,0 -976.9683,177.0345 V 1000.108 Z m -1154.003,1154.0027 -177.0345,-976.9682 h 354.0692 z M 6198.9888,1000.108 h -354.0692 v 354.0692 h 354.0692 z" />
    <path
       id="path37"
       style="fill:#ffffff;fill-rule:evenodd"
       d="m 6021.954,239.7933 -143.7979,793.5515 h 287.5959 z m -937.3494,937.3495 793.5515,143.7979 v -287.5959 z m 1874.6989,0 -793.5515,143.7979 v -287.5959 z m -937.3495,937.3494 -143.7979,-793.5515 h 287.5959 z m 143.798,-1081.1474 h -287.5959 v 287.5959 h 287.5959 z" />
  </g>
</svg>
