<?xml version="1.0" encoding="UTF-8" standalone="no"?>
<svg
   xmlns:dc="http://purl.org/dc/elements/1.1/"
   xmlns:cc="http://creativecommons.org/ns#"
   xmlns:rdf="http://www.w3.org/1999/02/22-rdf-syntax-ns#"
   xmlns:svg="http://www.w3.org/2000/svg"
   xmlns="http://www.w3.org/2000/svg"
   xmlns:sodipodi="http://sodipodi.sourceforge.net/DTD/sodipodi-0.dtd"
   xmlns:inkscape="http://www.inkscape.org/namespaces/inkscape"
   inkscape:version="1.0 (4035a4fb49, 2020-05-01)"
   sodipodi:docname="0.svg"
   viewBox="0 0 725.66931 725.66931"
   id="svg4"
   height=""
   width=""
   version="1.1">
  <metadata
     id="metadata10">
    <rdf:RDF>
      <cc:Work
         rdf:about="">
        <dc:format>image/svg+xml</dc:format>
        <dc:type
           rdf:resource="http://purl.org/dc/dcmitype/StillImage" />
        <dc:title></dc:title>
      </cc:Work>
    </rdf:RDF>
  </metadata>
  <defs
     id="defs8" />
  <sodipodi:namedview
     inkscape:current-layer="svg4"
     inkscape:window-maximized="0"
     inkscape:window-y="0"
     inkscape:window-x="0"
     inkscape:cy="362.83466"
     inkscape:cx="362.83466"
     inkscape:zoom="0.79650605"
     showgrid="false"
     id="namedview6"
     inkscape:window-height="480"
     inkscape:window-width="881"
     inkscape:pageshadow="2"
     inkscape:pageopacity="0"
     guidetolerance="10"
     gridtolerance="10"
     objecttolerance="10"
     borderopacity="1"
     bordercolor="#666666"
     pagecolor="#ffffff" />
  <path
     id="path2"
     style="fill:#ffffff;fill-rule:evenodd;stroke:#ffffff;stroke-width:4;stroke-linecap:butt;stroke-linejoin:miter;stroke-dasharray:none"
     d="M 153.8736,284.5152 V 97.5359 h 135.0116 v 21.9363 H 178.6824 v 57.4514 h 103.1519 v 21.9363 H 178.6824 v 63.7193 h 114.6422 v 21.936 z m 258.2716,0 v -17.1921 c -8.5742,13.3618 -21.1962,20.0646 -37.8657,20.0646 -10.7942,0 -20.7177,-2.9595 -29.7271,-8.9224 -9.053,-5.9193 -16.0603,-14.2323 -21.0655,-24.8522 -4.9616,-10.6632 -7.4425,-22.8937 -7.4425,-36.7344 0,-13.4924 2.263,-25.7225 6.746,-36.734 4.5267,-10.9682 11.2727,-19.4117 20.2821,-25.244 8.9661,-5.8757 19.0639,-8.7918 30.1623,-8.7918 8.1827,0 15.4512,1.7408 21.8057,5.1791 6.3545,3.4384 11.5337,7.9651 15.5379,13.4925 V 97.5359 h 22.9806 v 186.9793 z m -72.598,-67.5928 c 0,17.3226 3.656,30.2492 11.0115,38.8234 7.3122,8.5742 15.9734,12.8396 25.9405,12.8396 10.0541,0 18.5846,-4.0914 25.6356,-12.2737 7.0073,-8.1827 10.533,-20.6741 10.533,-37.4742 0,-18.4543 -3.569,-32.0337 -10.7506,-40.6949 -7.1379,-8.6615 -15.9734,-12.9702 -26.4627,-12.9702 -10.228,0 -18.7589,4.1348 -25.6356,12.4477 -6.8333,8.3132 -10.2717,21.4138 -10.2717,39.3023 z m 130.3543,-93.272 V 97.5359 h 22.9807 v 26.1145 z m 0,160.8648 V 148.9814 h 22.9807 v 135.5338 z m 107.8962,-20.4998 3.1337,20.2822 c -6.4415,1.3492 -12.2301,2.0457 -17.279,2.0457 -8.3129,0 -14.7547,-1.306 -19.368,-3.9608 -4.5701,-2.6549 -7.7908,-6.0933 -9.6626,-10.4024 -1.8714,-4.3087 -2.7855,-13.3618 -2.7855,-27.1588 v -78.0821 h -16.9741 v -17.7578 h 16.9741 v -33.5137 l 22.9807,-13.797 v 47.3107 h 22.9807 v 17.7578 H 554.817 v 79.3877 c 0,6.5721 0.3919,10.7939 1.2186,12.6657 0.7835,1.8715 2.0894,3.3514 3.9172,4.4827 1.8282,1.0884 4.4397,1.6542 7.8344,1.6542 2.5243,0 5.8757,-0.3049 10.0105,-0.9141 z M 123.8205,576.2568 V 389.2775 h 37.0826 l 44.2205,132.3568 c 4.0912,12.3171 7.0506,21.5444 8.9224,27.6813 2.1324,-6.7901 5.4838,-16.8005 10.0105,-29.9883 l 45.0036,-130.0498 h 33.1221 V 576.2568 H 278.4181 V 419.8314 l -54.5792,156.4254 h -22.2843 l -53.97,-159.2979 v 159.2979 z m 303.7108,-16.9744 c -8.5309,7.2685 -16.7568,12.3607 -24.6346,15.3639 -7.878,3.0034 -16.3216,4.483 -25.3746,4.483 -14.885,0 -26.3321,-3.6123 -34.3404,-10.8809 -8.0084,-7.2249 -12.0125,-16.4955 -12.0125,-27.7683 0,-6.6157 1.5232,-12.6656 4.5263,-18.1497 3.0468,-5.4838 7.0073,-9.8362 11.8822,-13.1442 4.9183,-3.3077 10.402,-5.832 16.5389,-7.5295 4.5267,-1.1753 11.3601,-2.307 20.4564,-3.4383 18.5414,-2.1764 32.2514,-4.8313 40.9995,-7.8781 0.0873,-3.1338 0.1306,-5.1358 0.1306,-5.9626 0,-9.3143 -2.176,-15.8864 -6.5284,-19.7166 -5.876,-5.1792 -14.6241,-7.7471 -26.2014,-7.7471 -10.8375,0 -18.8459,1.9151 -23.9817,5.7017 -5.1796,3.7865 -8.9661,10.4893 -11.4471,20.1515 l -22.4581,-3.1338 c 2.0454,-9.6189 5.3967,-17.4096 10.0974,-23.3289 4.7006,-5.9193 11.4903,-10.4457 20.3691,-13.6664 8.8354,-3.1774 19.1508,-4.7876 30.8151,-4.7876 11.5773,0 21.0222,1.3493 28.2908,4.0911 7.2249,2.7419 12.5783,6.1369 15.973,10.2717 3.3951,4.1348 5.789,9.3577 7.1816,15.6688 0.7398,3.9169 1.1317,10.9679 1.1317,21.1089 v 30.4669 c 0,21.2832 0.4789,34.7323 1.4362,40.434 0.9141,5.7017 2.8292,11.1421 5.6148,16.3649 h -24.0254 c -2.3067,-4.8313 -3.7866,-10.4893 -4.4394,-16.9744 z m -1.8282,-50.923 c -8.3565,3.3947 -20.8912,6.2672 -37.6047,8.6175 -9.4883,1.3493 -16.1907,2.8729 -20.1079,4.57 -3.9172,1.6976 -6.9203,4.1785 -9.053,7.3992 -2.1328,3.2644 -3.2208,6.8767 -3.2208,10.8812 0,6.0496 2.3067,11.1421 6.9637,15.1896 4.657,4.0479 11.447,6.0936 20.3694,6.0936 8.8351,0 16.7132,-1.9151 23.6335,-5.7886 6.8767,-3.8303 11.9689,-9.0968 15.19,-15.7558 2.4806,-5.1795 3.6992,-12.796 3.6992,-22.8501 z m 58.5398,119.865 V 440.723 h 20.8916 v 17.8012 c 4.9183,-6.8767 10.4893,-12.0562 16.7132,-15.4945 6.1805,-3.4384 13.71,-5.1792 22.5455,-5.1792 11.5776,0 21.762,2.9595 30.5974,8.9224 8.8355,5.9193 15.4946,14.3192 20.0213,25.1134 4.4827,10.8372 6.746,22.6758 6.746,35.6024 0,13.7973 -2.481,26.2451 -7.4425,37.3439 -4.9619,11.0551 -12.1868,19.5423 -21.6751,25.4613 -9.4446,5.8759 -19.4117,8.8354 -29.8573,8.8354 -7.6605,0 -14.5372,-1.6102 -20.5871,-4.8309 -6.0932,-3.2211 -11.0551,-7.2686 -14.9723,-12.1868 v 66.1128 z m 20.8916,-118.9076 c 0,17.366 3.5257,30.2056 10.533,38.5189 7.0509,8.3129 15.5815,12.4914 25.5919,12.4914 10.1847,0 18.8895,-4.3091 26.1144,-12.9266 7.2686,-8.6179 10.8812,-21.9363 10.8812,-39.9988 0,-17.2353 -3.5256,-30.1186 -10.6199,-38.6928 -7.0943,-8.5742 -15.5382,-12.8396 -25.3747,-12.8396 -9.7491,0 -18.367,4.57 -25.8531,13.6667 -7.5295,9.14 -11.2728,22.3712 -11.2728,39.7808 z" />
</svg>
