<?xml version="1.0" encoding="UTF-8" standalone="no"?>
<svg
   xmlns:dc="http://purl.org/dc/elements/1.1/"
   xmlns:cc="http://creativecommons.org/ns#"
   xmlns:rdf="http://www.w3.org/1999/02/22-rdf-syntax-ns#"
   xmlns:svg="http://www.w3.org/2000/svg"
   xmlns="http://www.w3.org/2000/svg"
   xmlns:sodipodi="http://sodipodi.sourceforge.net/DTD/sodipodi-0.dtd"
   xmlns:inkscape="http://www.inkscape.org/namespaces/inkscape"
   inkscape:version="1.0 (4035a4fb49, 2020-05-01)"
   sodipodi:docname="3443.svg"
   viewBox="0 0 7256.6929 7256.6929"
   id="svg48"
   height=""
   width=""
   version="1.1">
  <metadata
     id="metadata54">
    <rdf:RDF>
      <cc:Work
         rdf:about="">
        <dc:format>image/svg+xml</dc:format>
        <dc:type
           rdf:resource="http://purl.org/dc/dcmitype/StillImage" />
        <dc:title></dc:title>
      </cc:Work>
    </rdf:RDF>
  </metadata>
  <defs
     id="defs52" />
  <sodipodi:namedview
     inkscape:current-layer="svg48"
     inkscape:window-maximized="1"
     inkscape:window-y="-8"
     inkscape:window-x="-8"
     inkscape:cy="3628.3464"
     inkscape:cx="3628.3464"
     inkscape:zoom="0.079650608"
     showgrid="false"
     id="namedview50"
     inkscape:window-height="746"
     inkscape:window-width="1304"
     inkscape:pageshadow="2"
     inkscape:pageopacity="0"
     guidetolerance="10"
     gridtolerance="10"
     objecttolerance="10"
     borderopacity="1"
     bordercolor="#666666"
     pagecolor="#ffffff" />
  <g
     id="Layer1000">
    <path
       id="path2"
       style="fill:#fd6ad2;fill-rule:evenodd"
       d="m 3641.0168,358.8333 1687.621,1226.1322 1687.6041,1226.1317 -644.6013,1983.912 -644.6182,1983.9119 H 3641.0168 1555.0113 L 910.3926,4795.0092 265.7917,2811.0972 1953.3954,1584.9655 Z" />
    <path
       id="path4"
       style="fill:#7f3a70;fill-rule:evenodd"
       d="M 5015.4386,5770.8592 1417.1683,3156.5449 h 1671.9362 l 2775.7585,0 L 2266.5898,5770.8592 3641.0142,1540.8317 Z M 5474.6309,6398.605 674.1755,2910.8499 H 6607.8586 L 1807.4004,6398.605 3641.0171,755.3187 Z m -2966.8502,-2155.5513 77.3145,-237.9518 206.4802,150.0181 -77.3145,237.9489 z m 353.0287,-1086.5088 79.8302,-245.695 h 255.225 l -79.8302,245.6979 z m 1305.1817,0 -79.8302,-245.6979 h 255.2279 l 79.8331,245.6979 z m 401.7735,1236.524 -77.3145,-237.9489 206.4831,-150.021 77.3145,237.9518 z m -1129.1616,526.2651 202.4112,-147.0586 202.4112,147.0615 -202.4112,147.0585 z" />
  </g>
  <g
     id="Layer1001">
    <g
       id="Layer1002">
      <path
         id="path7"
         style="fill:#dad8db;fill-rule:evenodd"
         d="m 5151.5945,878.3442 304.1235,129.9149 c 29.0602,12.4048 24.2708,54.9463 -6.8303,60.478 -331.307,58.838 -1360.5278,260.0772 -1965.2241,585.184 -32.732,17.5933 -71.4496,17.3711 -102.6502,-2.8238 -83.1368,-53.7766 -267.1101,-141.1109 -464.0475,-27.4091 L 2711.273,1267.4079 c 0,0 1157.8024,-554.7557 2295.8,-428.1111 49.7804,5.5541 98.4487,19.365 144.5215,39.0474 z" />
      <path
         id="path9"
         style="fill:#c38c66;fill-rule:evenodd"
         d="M 2588.2523,2288.4691 5159.354,6741.7478 c 56.7963,98.3742 182.5967,132.0823 280.9709,75.286 98.3742,-56.7964 132.0824,-182.5968 75.286,-280.971 L 2944.5092,2082.7841 Z" />
      <path
         id="path11"
         style="fill:#b6b1b7;fill-rule:evenodd"
         d="m 2999.6297,3000.9956 -359.9561,-623.4622 356.2695,-205.6923 359.9561,623.4622 z" />
      <path
         id="path13"
         style="fill:#dad8db;fill-rule:evenodd"
         d="m 2958.2948,2312.3464 -178.1285,102.8425 c -147.5739,85.2019 -336.2618,34.6324 -421.4564,-112.9289 l -359.9634,-623.4748 c -56.7963,-98.3742 -23.0882,-224.1746 75.286,-280.9709 L 2430.302,1192.122 c 98.3742,-56.7964 224.1746,-23.0883 280.971,75.2859 l 359.956,623.4622 c 85.2019,147.5739 34.6397,336.2745 -112.9342,421.4763 z" />
      <path
         id="path15"
         style="fill:#dad8db;fill-rule:evenodd"
         d="m 441.6342,3597.6411 -39.5571,328.3277 c -3.7871,31.3693 35.4496,48.4923 55.7907,24.3238 216.6087,-257.5013 905.4973,-1048.213 1489.3963,-1409.342 31.6021,-19.5501 50.7685,-53.1916 48.8795,-90.3095 -5.0035,-98.887 11.3495,-301.8796 208.2868,-415.5815 l -205.6965,-356.2671 c 0,0 -1059.3337,725.3085 -1518.6551,1774.1656 -20.0802,45.8881 -32.4537,94.9416 -38.4446,144.683 z" />
      <path
         id="path17"
         style="fill:#c8c5c9;fill-rule:evenodd"
         d="m 1947.2574,2540.9488 c 31.6022,-19.5501 50.7613,-53.2042 48.8747,-90.3179 -5.0161,-98.8797 11.3495,-301.8796 208.2869,-415.5815 l -51.4213,-89.0642 C 1929.4885,2111.07 1078.3625,2785.9743 600.4077,3784.4803 897.8751,3444.791 1458.7817,2843.0602 1947.2574,2540.9488 Z" />
      <path
         id="path19"
         style="fill:#c8c5c9;fill-rule:evenodd"
         d="m 3381.0055,1651.0739 c 31.2006,20.1949 69.9182,20.417 102.655,2.8322 505.874,-271.9767 1307.439,-456.8748 1750.3494,-544.6205 -1103.7006,-85.3369 -2113.761,314.3042 -2368.4785,425.3349 l 51.4213,89.0642 c 196.95,-113.7091 380.9286,-26.3947 464.0528,27.3892 z" />
      <path
         id="path21"
         style="fill:#c8c5c9;fill-rule:evenodd"
         d="m 2471.6315,1880.791 -308.5348,-534.398 -89.0642,51.4213 c -98.3742,56.7963 -132.0823,182.5967 -75.286,280.9709 l 359.9561,623.4622 c 85.2019,147.5739 273.8952,198.1235 421.4565,112.929 l 178.1284,-102.8426 c 147.5739,-85.2018 198.1235,-273.8951 112.9289,-421.4564 l -178.1284,102.8425 c -147.5613,85.1946 -336.2619,34.6324 -421.4565,-112.9289 z" />
      <path
         id="path23"
         style="fill:#b57f5f;fill-rule:evenodd"
         d="m 3153.891,3268.1841 -154.2638,-267.1927 356.2695,-205.6923 154.2638,267.1927 z" />
    </g>
    <path
       id="path26"
       style="fill:#000000;fill-rule:evenodd"
       d="m 3371.3468,2737.6395 196.4735,340.3022 -0.013,0.01 1984.358,3437.0088 c 68.4453,118.5507 27.8149,270.1854 -90.7358,338.6307 -118.5508,68.4453 -270.1854,27.8149 -338.6307,-90.7358 L 2659.9973,2497.1547 c -132.6621,12.8684 -266.86,-50.8449 -337.8422,-173.7898 l -132.0349,-228.691 c -112.9282,82.6946 -158.9515,213.1309 -151.8209,353.8308 2.6686,52.6532 -24.2728,100.7849 -68.8328,128.3445 -104.9196,64.8913 -205.3325,138.4899 -301.8128,215.2846 -104.8788,83.48 -206.1353,171.7965 -304.6697,262.6542 -183.2814,169.0032 -358.5265,347.8799 -527.5136,531.1374 -31.5651,34.2305 -62.9537,68.6569 -94.1461,103.2745 -36.708,40.8536 -73.0946,81.9018 -109.1617,123.0884 l -37.3808,42.6866 c -35.1819,40.5867 -70.0629,81.4189 -104.6134,122.4899 -4.1761,4.964 -8.8638,9.2693 -13.9321,12.8816 l -46.6861,53.3122 19.8168,-41.3991 c -13.8587,3.0162 -28.6379,1.9844 -42.6841,-3.5221 -31.6545,-12.4091 -50.5852,-44.0165 -46.5128,-77.8175 l 39.5571,-328.3276 c 6.4823,-53.8036 19.9233,-106.8682 41.6866,-156.5659 212.5999,-485.4862 559.2492,-924.3071 937.916,-1291.7653 132.7118,-128.7841 272.2268,-251.7543 417.2093,-366.5885 48.2778,-38.2387 98.1764,-77.0384 148.8005,-113.0688 -42.9878,-111.8684 0.5241,-241.5308 107.588,-303.3442 l 356.2696,-205.6924 c 107.0639,-61.8134 241.1121,-34.6642 316.4984,58.4993 56.5116,-25.8244 115.0574,-49.6356 172.3074,-72.3244 171.9409,-68.1416 348.1934,-127.4799 526.0796,-178.0196 507.5617,-144.2055 1060.9159,-225.0024 1587.6595,-166.3764 53.9211,6.0013 106.5977,20.8929 156.434,42.1815 l 304.1236,129.9149 c 31.3147,13.3772 49.2222,45.5858 44.1318,79.2096 -2.2581,14.9163 -8.7568,28.2284 -18.3,38.7193 l 45.8158,3.5425 -69.6416,13.7968 c -5.6383,2.5636 -11.6816,4.4569 -18.0365,5.5859 -52.0751,9.2498 -104.1093,18.893 -156.0839,28.909 l -57.9725,11.4849 c -54.134,10.7244 -108.3087,21.8011 -162.4754,33.2599 -45.1385,9.6168 -90.2102,19.4938 -135.2026,29.617 -243.1992,54.7185 -485.7341,117.0466 -723.7356,191.2718 -127.9522,39.9038 -255.0648,83.4363 -379.7997,132.5244 -114.7466,45.1566 -228.6909,95.3172 -337.3482,153.7346 -46.1473,24.8103 -101.301,24.0761 -145.566,-4.5613 -118.2802,-76.5222 -254.2474,-101.8838 -382.3233,-45.4405 l 132.0218,228.6686 c 70.9834,122.9468 59.0631,271.0244 -18.4102,379.4827 z" />
    <g
       id="Layer1003">
      <path
         id="path28"
         style="fill:#dad8db;fill-rule:evenodd"
         d="m 5151.5945,878.3442 304.1235,129.9149 c 29.0602,12.4048 24.2708,54.9463 -6.8303,60.478 -331.307,58.838 -1360.5278,260.0772 -1965.2241,585.184 -32.732,17.5933 -71.4496,17.3711 -102.6502,-2.8238 -83.1368,-53.7766 -267.1101,-141.1109 -464.0475,-27.4091 L 2711.273,1267.4079 c 0,0 1157.8024,-554.7557 2295.8,-428.1111 49.7804,5.5541 98.4487,19.365 144.5215,39.0474 z" />
      <path
         id="path30"
         style="fill:#c38c66;fill-rule:evenodd"
         d="M 2588.2523,2288.4691 5159.354,6741.7478 c 56.7963,98.3742 182.5967,132.0823 280.9709,75.286 98.3742,-56.7964 132.0824,-182.5968 75.286,-280.971 L 2944.5092,2082.7841 Z" />
      <path
         id="path32"
         style="fill:#b6b1b7;fill-rule:evenodd"
         d="m 2999.6297,3000.9956 -359.9561,-623.4622 356.2695,-205.6923 359.9561,623.4622 z" />
      <path
         id="path34"
         style="fill:#dad8db;fill-rule:evenodd"
         d="m 2958.2948,2312.3464 -178.1285,102.8425 c -147.5739,85.2019 -336.2618,34.6324 -421.4564,-112.9289 l -359.9634,-623.4748 c -56.7963,-98.3742 -23.0882,-224.1746 75.286,-280.9709 L 2430.302,1192.122 c 98.3742,-56.7964 224.1746,-23.0883 280.971,75.2859 l 359.956,623.4622 c 85.2019,147.5739 34.6397,336.2745 -112.9342,421.4763 z" />
      <path
         id="path36"
         style="fill:#dad8db;fill-rule:evenodd"
         d="m 441.6342,3597.6411 -39.5571,328.3277 c -3.7871,31.3693 35.4496,48.4923 55.7907,24.3238 216.6087,-257.5013 905.4973,-1048.213 1489.3963,-1409.342 31.6021,-19.5501 50.7685,-53.1916 48.8795,-90.3095 -5.0035,-98.887 11.3495,-301.8796 208.2868,-415.5815 l -205.6965,-356.2671 c 0,0 -1059.3337,725.3085 -1518.6551,1774.1656 -20.0802,45.8881 -32.4537,94.9416 -38.4446,144.683 z" />
      <path
         id="path38"
         style="fill:#c8c5c9;fill-rule:evenodd"
         d="m 1947.2574,2540.9488 c 31.6022,-19.5501 50.7613,-53.2042 48.8747,-90.3179 -5.0161,-98.8797 11.3495,-301.8796 208.2869,-415.5815 l -51.4213,-89.0642 C 1929.4885,2111.07 1078.3625,2785.9743 600.4077,3784.4803 897.8751,3444.791 1458.7817,2843.0602 1947.2574,2540.9488 Z" />
      <path
         id="path40"
         style="fill:#c8c5c9;fill-rule:evenodd"
         d="m 3381.0055,1651.0739 c 31.2006,20.1949 69.9182,20.417 102.655,2.8322 505.874,-271.9767 1307.439,-456.8748 1750.3494,-544.6205 -1103.7006,-85.3369 -2113.761,314.3042 -2368.4785,425.3349 l 51.4213,89.0642 c 196.95,-113.7091 380.9286,-26.3947 464.0528,27.3892 z" />
      <path
         id="path42"
         style="fill:#c8c5c9;fill-rule:evenodd"
         d="m 2471.6315,1880.791 -308.5348,-534.398 -89.0642,51.4213 c -98.3742,56.7963 -132.0823,182.5967 -75.286,280.9709 l 359.9561,623.4622 c 85.2019,147.5739 273.8952,198.1235 421.4565,112.929 l 178.1284,-102.8426 c 147.5739,-85.2018 198.1235,-273.8951 112.9289,-421.4564 l -178.1284,102.8425 c -147.5613,85.1946 -336.2619,34.6324 -421.4565,-112.9289 z" />
      <path
         id="path44"
         style="fill:#b57f5f;fill-rule:evenodd"
         d="m 3153.891,3268.1841 -154.2638,-267.1927 356.2695,-205.6923 154.2638,267.1927 z" />
    </g>
  </g>
</svg>
