<svg xmlns="http://www.w3.org/2000/svg" viewBox="0 0 4535.433 4535.433">
    <g fill-rule="evenodd">
        <path fill="#fefefe" d="M1597.186 1161.221c3.792 2.296 2.35 2.72 14.477-1.243 40.007-13.083 96.432-13.336 125.734 7.221 41.914 12.407 78.253 51.096 101.345 75.547 12.584 13.336 60.852 81.17 63.434 104.816l29.46 72.862c29.186 100.942 17.36 121.362 13.773 195.7l-100.122-6.613c-1.243 9.982-7.208 43.861-9.81 57.498-2.399 19.662 51.888 24.205 75.574 48.622-12.331 35.765-56.083 75.042-93.85 90.441-63.243 25.784-100.819 4.591-152.345-13.752 7.952 16.328 62.205 45.835 91.316 54.58 43.006 12.926 87.954 9.21 125.966-9.23 59.472-28.858 106.1-90.974 128.25-166.398l4.174-9.476.813-13.869c.396-.833.929-1.913 1.188-2.5l7.078-27.424c.137-6.982-.307-2.951 1.127-8.99.15-.636 1.066-1.142 1.203-2.563.13-1.414.99-1.605 1.462-2.418 1.537-9.285-2.063-6.04 6.203-9.824-6.92-11.027-1.865-19.007-2.965-32.268-.922-11.108-3.204-5.595-1.94-16.963 2.268-20.503.41-7.454 5.37-13.11l-.54 1.1c-.526-70.458-7.037-130.279-28.045-196.309l-19.922-50.754c-.198-1.285-.854-1.585-1.264-2.385-30.176-60.654-97.17-137.437-155.754-167.73-88.726-45.883-192.175-20.838-231.39 45.432zM749.092 1511.87c-5.582 67.089 22.689 132.873 36.865 192.96l2.89 5.008 2.944 5.807c6.573 6.06 1.784-.01 5.063 9.264.396 1.114.765 4.448 1.025 5.52l13.609 34.174 3.177 5.171 3.32 7.816c5.452 0 3.566-1.175 4.256 5.028l16.896 31.304c.621.704 3.026 3.06 3.511 3.6l3.648 4.585c1.271 7.296-2.958 1.838 4.516 10.03 10.153 10.91 27.335 49.674 78.219 86.416 157.305 113.588 247.787-68.23 248.914-163.085-13.144 30.935-15.037 52.08-35.054 81.362-51.452 75.253-128.72 73.02-196.76 21.185-11.983-9.127-22.456-16.963-28.188-28.782 9.148-16.643 42.194-51.199 45.337-66.29-2.125-6.47-24.876-42.427-31.461-48.794l-70.485 38.785c-13.856-15.324-24.151-48.446-34.652-69.631-11.013-38.587-22.6-70.71-28.735-114.838-4.003-28.803-15.01-115.302 1.612-135.825-.854-14.354 1.08-17.893 4.537-32.063 2.473-10.118 3.634-15.679 6.955-25.544a275.315 275.315 0 0 1 10.446-26.494c5.28-11.642 5.978-14.17 14.92-20.223 7.844-33.244 61.413-67.041 111.36-63.209 25.47 1.954 48.596 12.42 66.441 23.564 23.051 14.388 29.705 22.989 46.67 39.215l3.292-3.136c-8.984-26.31-64.261-76.422-90.277-92.634-88.03-54.88-173.722 23.092-203.598 121.765-10.596 35.014-27.485 121.171-21.213 157.988z"/>
        <path fill="#f8b6d1" d="M2731.701 2720.805c36.182 40.677-2.275 88.473 17.06 127.545 35.58 5.718 36.626-34.774 29.001-48.616l-12.359-15.57c34.72 10.22 27.458 74.584-16.82 70.56-24.547-28.892 3.58-78.642-12.974-123.535l-10.603-4.174c-6.634 4.25-5.144 4.215-13.534 8.977l1.257-32.041c-48.015-5.623-71.4-106.695-47.79-136.147 44.019-3.43 74.14 66.762 64.665 111.353-6.477 30.45 12.072 20.196 2.097 41.648zm94.431-31.598c-11.553 53.781-8.294 66.188 7.358 114.654 15.604 48.315-16.26 92.647-36.134 73.02-10.562-10.426-7.044-42.933 4.038-47.455-1.858 15.098-5.459 28.564-2.268 45.8 41.64 2.207 34.842-53.09 25.011-81.811-14.565-42.536-11.942-61.836-3.327-105.697l-8.198-3.245 9.824-27.246c-42.255-35.007-32.827-181.36 15.87-132.122 17.163 17.353 27.123 52.674 23.345 84.948-2.541 21.718-6.6 26.774-16.294 40.711-10.535 15.153-2.76 20.441-1.36 39.564zm-92.846-137.465c11.184 43.67 8.554 58.194 33.798 91.637 8.253 10.945 19.84 16.97 22.552 41.51 2.617 23.632-5.493 40.719-29.104 37.679-7.187-15.734-9.612-32.076 12.687-34.857l-7.85 12.858c-3.163 8.014-1.694 6.989-.704 14.928 11.45-1.367 14.026-1.6 16.459-14.928 4.891-26.877-11.02-40.95-25.682-59.274-15.44-19.307-31.003-58.502-27.587-89.464-17.264-4.591-.594-5.192-15.27-18.166-4.29-3.792-10.548-5.24-17.687-12.045-9.326-8.881-18.515-21.807-25.64-34.521-69.809-124.615 2.992-118.876 47.994-37.897 7.665 13.794 15.105 32.882 15.987 51.622 1.81 38.6 3.381 21.814 15.48 50.187zm-311.405-174.91c-13.569 82.966-66.885 146.093-114.865 203.208-15.352 18.269-41.716 39.366-52.415 54.246 80.275-17.046 157.708-143.478 165.674-149.34 6.702 95.682 1.606 170.081-38.327 243.476-113.635 208.832-406.977 205.662-352.151-37.95 9.407-41.792 26.89-69.133 37.24-102.466-34.74 5.213-63.482 16.533-103.086 19.642-212.268 16.629-253.71-162.702-113.342-333.699 55.161-67.191 85.98-75.69 128.037-113.614 2.48-13.029 4.871-.315-1.352-16.267-4.755-6.853-12.086-11.04-20.36-17.135-8.738-6.442-13.534-11.074-21.78-18.302-9.277-8.123-30.689-32.903-37.93-35.95l-9.121-2.944c-24.165 36.523-123.78 97.99-173.032 118.718-76.88 32.349-145.677 47.297-238.168 52.995l47.325 141.373c13.158 50.092 24.041 103.695 32.82 157.599 32.65 200.428 50.003 427.999 196.145 565.47 57.627 54.205 150.227 108.492 257.693 123.215 1.674-20.845-3.785-80.269 9.906-97.758 13.282 62.908 27.834 119.271 37.658 187.433 30.252 209.774 32.103 431.511 3.942 640.097-16.731 123.903-46.259 256.1-85.454 366.074-9.68 27.17-19.778 56.207-28.113 85.515-9.169 32.24 4.734 39.913 50.68 53.125 95.482 27.451 307.88 23.557 401.743-11.49 126.835-47.36 81.546-474.184 67.445-574.34-23.618-167.703-71.687-394.673-127.087-554.513-15.632-45.104-47.913-126.711-53.371-173.496 23.57 14.531 37.145 45.617 56.568 73.443 64.343 1.032 193.699-84.265 246.94-134.575 9.127-8.622 53.535-56.664 58.782-68.49-39.093 103.777-140.717 162.313-161.698 185.76l50.2 129.86c90.537 251.812 121.65 519.507 56.822 782.87-12.018 48.821-26.351 92.757-42.57 138.121-11.525 32.26-45.548 109.407-41.914 143.102 79.49 57.996 311.61 33.394 417.13 11.013 83.165-17.64 99.001-36.319 113.758-123.036 34.618-203.407-41.203-630.955-99.09-834.67-25.005-87.988-31.878-111.865-116.84-120.036l1.374 53.822c-51.164-30.717-33.962-106.585-22.081-168.154 11.717-60.743 26.7-120.133 40.793-179.51 56.78-239.24 107.296-518.036-89.088-687.065-32.253-27.758-89.805-61.63-149.55-67.916-77.563-8.15-121.308 20.899-183.677 34.897 4.147 25.675 8.602 38.444-2.213 57.641z"/>
        <path fill="#ef428b" d="M2752.49 2296.276c11.936 12.865 30.533 23.352 43.309 34.235 15.822 13.48 26.603 26.788 40.26 40.588 3.443-10.172 10.63-15.05 19.006-21.568 8.486-6.606 15.755-12.796 24.178-19.245 50.7-38.799 94.677-69.577 156.24-97.642 60.975-27.792 201.043-72.733 273.714-35.854-12.77 23.201-180.739 161.185-229.177 351.263-54.47 213.723 68.633 347.123 241.522 382.588 68.736 14.094 21.33.348 145.63-65.874 267.879-142.698 357.917 26.03 162.06 95.032-39.284 13.835-83.562 19.703-128.393 19.71-51.909.014-88.282-11.423-133.646-14.6-85.365 81.683-163.775 217.372-182.563 345.32-19.115 130.127 20.742 254.605 102.554 349.951 26.105 30.423 71.407 68.634 107.24 89.854 17.033 10.09 70.882 39.81 91.166 42.556 12.222 1.66 29.425-15.133 38.307-22.368 38.894-31.666 66.672-61.057 92.873-107.562 34.918-61.986 45.596-139.644 18.65-213.545-10.67-29.261-32.71-65.006-49.23-81.3-19.204-18.931-32.247-31.632-55.591-44.66-10.275-5.732-13.849-6.572-20.318-14.58 122.004-45.924 226.471-89.306 322.323-158.48 81.409-58.74 179.174-147.166 212.753-272.47 56.014-209.036-123.453-381.515-342.13-348.107-98.085 14.99-151.429 61.72-174.978 68.306 24.854-48.33 60.865-80.679 100.531-169.514 29.692-66.502 53.938-140.198 50.83-224.838-13.015-355.076-563.989-464.537-876.235 7.59-10.767 16.287-41.688 76.449-50.884 85.214z"/>
        <path fill="#f8b6d1" d="M1253.602 1924.224c27.239 17.373 42.392 37.26 80.268 54.04 95.688 42.379 182.057-17.196 216.961-104.46 6.074-15.18 10.446-39.42 18.822-52.093 14.805 25.94 74.871 370.775-83.513 371.957-114.62.854-208.196-180.288-232.538-269.444zm-1.353-114.804l2.473 7.133c11.239 54.634 7.208 24.52 43.28 46.094-32.806 25.525-78.587-16.512-45.753-53.227zm172.54 30.955c26.884-14.45 27.424-25.66 27.93-63.803 32.075 19.13 17.817 78.069-27.93 63.803zm-180.09-91.308c22.915-40.07 136.708-64.466 174.81-27.04-32.671 2.322-62.643 1.277-94.712 6.148-33.825 5.13-51.922 13.998-80.097 20.892zm320.24-952.964c.526 122.073-103.578 262.66-198.091 329.06-27.95 19.634-77.85 51.444-114.599 63.037-14.354-16.588-43.69-162.244-198.098-230.126-27.847-12.243-80.05-32.206-113.458-29.39l-57.77-3.267c2.076 33.36 3.873 101.94-8.226 130.592-7.133-12.639-10.234-50.433-13.637-68.134-8.492-44.141-5.52-57.286-23.385-59.513-49.641-7.208-188.903 50.502-211.735 74.973-4.448 27.144 15.255 92.293 23.802 118.644 15.556 47.919 34.85 79.393 41.675 99.67-19.143-10.78-48.322-58.556-62.11-85.822-8.69-17.196-15.378-32.52-21.356-52.305-2.842-9.394-5.575-19.11-7.57-28.968-5.554-27.416-2.725-20.427-11.498-24.43-13.54 11.053-52.974 48.868-56.342 64.581-7.659 62.13 46.805 202.328 87.96 266.876l9.668 18.364c13.67 30.716 57.524 49.06 103.107 43.697l8.39-61.986c-64.022 1.23-111.49-44.558-112.973-87.455-7.276-8.028-5.705-14.108-3.19-27.13l6.346 9.9c11.628 37.855 59.595 82.222 117.12 72.076l12.769-29.104c-.15-1.284-.219-2.753-.52-3.846-.28-1.011-.642-2.46-.942-3.443-.287-.923-2.665-4.469-3.423-5.282-24.103-7.679-38.389-28.912-48.281-53.835-4.776-12.045-8.267-26.42-9.47-40.158-1.352-15.467 3.888-33.517 2.412-45.159 4.79-6.627 1.326-5.274 9.019-7.262l1.468 20.25c-2.726 43.416 32.097 95.025 69.146 99.718 31.318-34.337 54.621-72.87 123.863-80.603 148.355-16.567 253.628 236.569 266.978 350.115l6.961 29.412c-.232 19.54 5.042 47.072 6.313 68.777 1.414 24.24-1.387 55.113.656 77.221.075.806.157 1.612.246 2.398l-4.16 23.051c-21.89 130.367-88.583 305.96-252.973 187.256-50.884-36.742-68.066-75.506-78.219-86.417-1.441 13.425-2.603 6.074-4.338 18.556 10.521 38.101 81.635 128.166 103.299 150.719 151.224 157.455 333.766 220.78 572.98 195.235 144.276-15.412 256.19-71.899 349.48-168.413 42.849-44.326 72.062-89.546 104.992-152.045 17.182-32.608 74.584-163.638 63.55-194.19-2.158-4.57 3.895-.936-6.729-6.23-4.318-2.146-6.893-2.645-12.352-3.451l-11.307-1.045c-22.149 75.424-68.777 137.54-128.249 166.398-38.012 18.44-82.96 22.156-125.966 9.23-29.111-8.745-83.364-38.252-91.316-54.58-20.748-16.445-45.849-41.504-58.099-64.507l-5.199-4.878-5.807-7.714c-117.215-157.714-156.628-540.814 40.138-634.938 121.15-57.948 203.666 10.002 228.671 14.504 7.228-10.528 14.381-20.687 23.16-34.09 2.002-11.082-.41-2.884 2.18-10.324 1.748-5.021 2.664-4.66 4.509-7.085 3.58-87.756-2.521-43.157-6.484-88.05 46.13 25.798 45.057 123.371 1.906 157.948 4.885 11.73 27.854 33.155 37.33 39.68 37.999-10.296 97.874-60.497 95.783-101.823 9.087-100.348 28.34-120.358 10.043-252.672-16.465-118.992-46.805-162.19-56.964-213.71 14.278 33.853 60.21 76.183 85.03 197.997 29.848 146.455-23.072 212.096-24.93 243.236 9.148 39.427 1.353 70.622-18.098 98.954-26.972 39.283-51.123 41.634-70.19 56.158 4.836 13.746 21.69 40.842 29.834 59.288 26.296-2.33 53.829-17.94 71.264-31.079 27.697-20.878 25.886-24.806 44.503-57.941 12.004 65.265-50.317 106.865-107.37 112.63l-1.736 19.615c.41.8 1.066 1.1 1.264 2.385l19.922 50.754c21.008 66.03 27.52 125.85 28.045 196.308l25.217-7.276 13.445-7.207c5.5-45.153 9.216-175.294-2.2-215.643l-13.302 8.506c4.653-12.414 14.812-26.713 21.48-39.42 50.761-96.802 81.833-212.794 76.579-324.824-7.365-156.786-71.264-307.218-155.83-419.282-19.183-25.435-33.325-39.509-53.623-59.998-54.444-54.963-83.787-58.016-115.897 30.723-46.252 127.812-29.712 281.51-24.26 420.58-16.41-11.395-28.052-56.664-32.472-74.475-5.923-23.89-2.138-19.423-20.414-30.046-47.81-27.793-125.318-60.73-180.656-70.97-.622 16.369 1.325 41.012-6.689 52.469z"/>
        <path fill="#ef428b" d="M2699.537 2265.908l38.026 21.131c8.567-36.728 82.523-140.252 103.606-165.209 41.689-49.347 81.703-90.646 136.987-130.312 362.823-260.303 829.62-61.276 701.577 364.244-29.378 97.628-56.466 119.217-84.627 181.934 51.922-9.155 89.115-42.61 196.397-32.944 193.5 17.429 333.056 195.113 270.476 393.662-50.857 161.35-207.151 275.9-345.21 346.242-24.636 12.557-50.085 25.285-77.003 36.653-9.64 4.072-71.926 27.512-78.28 34.85 8.451 8.198 16.157 13.589 24.643 21.596 23.973 22.627 44.065 46.703 59.69 80.67 70.307 152.831-8.52 296.861-125.29 381.284 8.758 8.17 21.91 8.997 36.748 11.498 135.566 22.86 176.114-12.448 272.464-28.141l-66.973 72.405c-230.468 270.687 410.161 345.551 437.127 74.379-21.76 7.05-48.862 24.731-73.956 34.726-25.975 10.358-54.259 18.474-83.725 20.708-67.35 5.103-125.837-24.376-141.414-71.947 129.827-20.27 228.159-100.204 188.37-253.13-40.2 8.336-46.252 21.255-113.772 22.915-116.97 2.883-265.687-66.208-214.461-170.409 53.48-108.77 304.724.219 336.759 115.924 37.8-11.573 99.2-75.943 118.595-104.856 117.591-175.287-19.6-374.11-148.328-420.382 5.958-12.181 22.908-21.54 34.597-30.818 75.288-59.793 148.478-139.092 194.286-226.766 205.99-394.222-58.064-745.792-401.682-562.308-27.369 14.614-51.465 28.394-75.459 45.023-12.502 8.67-21.63 15.413-35.294 24.854-12.618 8.711-22.408 17.224-36.427 24.213 12.085-32.964 34.945-68.99 50.706-103.58 15.147-33.243 29.022-72.97 37.979-112.145 21.315-93.283 14.094-179.235-28.599-252.29-69.835-119.483-229.73-190.084-428.368-174.951-238.714 18.18-455.846 156.8-576.771 335.604-74.14 109.639-83.179 163.147-103.394 195.673zM1272.294 1138.553c20.393-6.224 56.924-30.703 72.453-42.112 64.554-47.441 117.604-106.469 153.09-184.428 50.009-109.85 40.472-266.63-24.336-359.892-109.024-156.902-351.086-105.444-448.229 34.337-14.442 20.79-29.07 46.874-38.163 75.404-11.648 36.544-12.42 81.362-18.863 91.207-54.02-57.109-75.376-95.367-156.492-144.058C441.232 386.584 2.732 849.679 215.375 1289.012c49.771 102.834 137.841 227.107 214.741 309.794 7.885 8.478 28.408 30.962 33.176 40.144-88.87 2.384-148.273-45.856-199.246-80.111 28.059 120.57 229.82 233.986 257.16 154.353 12.742-37.124-13.902-93.788-25.38-123.036-58.495-149.065-94.055-363.758-5.13-502.487 123.13-192.107 440.651-273.475 646.702-122.558 97.874 71.694 116.067 150.719 134.896 173.442z"/>
        <path fill="#ea80b0" d="M2365.763 3263.54l85.433-33.737c78.267 171.543 135.204 397.522 136.523 587.566.697 99.951-8.458 173.421-27.376 266.807-3.873 19.102-30.573 105.253-29.316 111.873-4.31-93.229-1.53-171.003-12.18-261.164-15.974-135.142-33.539-222.475-61.05-349.863-13.07-60.483-67.78-273.495-92.034-321.483zm-357.008 763.207c-10.433 52.387-62.041 287.637-90.223 333.036l-44.83.396c-67.944 0-167.834-7.734-202.67-44.94-1.182-25.825 21.309-70.936 30.129-92.922 99.418-247.95 134.083-454.124 134.083-735.743 0-50.406-2.8-94.451-3.88-143.71-1.032-47.529-8.936-88.2-10.139-136.064 30.15 12.127 56.616 27.376 90.803 38.416 126.302 40.787 97.69-5.609 112.098 109.618 24.315 194.519 20.196 493.381-15.371 671.913zm52.27-2419.893c-1.298 13.581-3.99 39.782-10.883 50.61l3.198 4.708c13.814 18.808 21.985 24.37 19.69 59.99-11-20.557-12.783-29.301-32.254-40.164 11.033 30.552-46.369 161.582-63.55 194.19-32.93 62.499-62.144 107.72-104.994 152.045-93.29 96.514-205.203 153-349.48 168.413-239.213 25.545-421.755-37.78-572.98-195.235-21.663-22.553-92.777-112.618-103.298-150.72-11.054 9.524-10.685 29.262-11.313 46.403-3.273-3.512-2.528-.588-6.28-8.786-.416-.902-2.076-6.606-2.342-7.788-5.637-24.786 1.913-37.446 8.587-55.728-11.457-5.015-17.537-24.172-20.946-36.572l-10.248 1.654c-12.92.328-24.096 4.625-31.01 15.973l46.375 88.822c30.86 52.073 88.535 131.883 134.78 172.615l36.523 30.3c9.196 7.754 9.838 9.223 20.407 16.348 65.081 43.882 103.948 68.736 179.837 94.144 72.493 24.274 142.972 35.492 238.482 35.492l26.323 63.892c7.973 24.233 16.308 45.453 23.106 70.45 20.98 77.133 33.449 149.73 45.534 228.46 4.387 28.571 8.84 51.547 13.418 80.139 13.896 86.758 23.844 145.71 50.72 226.614 33.784 101.707 55.339 127.955 117.667 206.44l49.927 43.636c13.473 10.63 15.25 6.463 18.651 28.127 8.24 52.442 8.007 132.895 12.646 174.467 6.279 56.295 2.658 160.277 2.931 227.783l-10.077 130.257c-3.983 92.969-35.574 225.372-59.458 311.44-19.813 71.394-47.591 135.996-74.25 203.079-7.514 18.924-20.652 47.94-20.352 73.6 1.114 94.349 212.801 90.168 280.997 90.168-8.594 36.892-8.533 47.728 15.755 71.12 16.697 16.082 43.799 25.811 68.4 31.837 38.45 9.414 89.943 17.257 133.134 17.223 21.378-.02 28.27 4.38 50.037 3.635l94.09-6.3c54.607-5.847 116.948-12.064 164.341-36.133 29.111-14.778 34.488-27.376 48.924-54.656 10.78 7.228 13.343 11.8 27.355 19.43 97.389 53.016 379.513 22.716 482.32-10.924 144.96-47.42 96.152-369.88 88.507-483.099-6.996-103.667-49.094-320.73-72.261-422.26-8.472-37.145-33.053-125.482-45.22-155.262-10.781-26.378-20.851-40.507-42.434-57.805-19.313-15.488-39.74-23.55-71.058-25.886-23.878-1.777-17.114-7.652-12.298-29.466l66.072-281.55c6.292-26.44 11.102-57.198 16.45-83.794 5.385-26.747 10.263-59.889 13.064-87.175 9.25-90.1 12.727-193.03-10.815-275.43-24.288-85.009-31.065-78.696-62.137-138.448-9.134-4.578-17.428-17.442-23.276-26.078-13.657-13.8-24.438-27.109-40.26-40.588-12.776-10.883-31.373-21.37-43.308-34.235l-14.928-9.237-38.026-21.13-32.233-12.312c-37.262-13.746-90.55-16.472-136.85-8.137-23.953 4.311-41.293 8.383-61.617 15.229-17.982 6.06-42.003 15.55-61.221 19.635 11.19 44.496 17.312 38.368 14.265 96.507 10.815-19.197 6.36-31.966 2.213-57.64 62.369-14 106.114-43.048 183.676-34.898 59.746 6.285 117.298 40.158 149.551 67.916 196.384 169.029 145.868 447.826 89.088 687.066-14.094 59.376-29.076 118.766-40.793 179.509-11.88 61.569-29.083 137.437 22.08 168.154l-1.372-53.822c84.961 8.17 91.834 32.048 116.839 120.037 57.887 203.714 133.708 631.262 99.09 834.669-14.757 86.717-30.593 105.396-113.758 123.036-105.52 22.381-337.64 46.983-417.13-11.013-3.634-33.695 30.389-110.841 41.914-143.102 16.219-45.364 30.552-89.3 42.57-138.12 64.828-263.364 33.715-531.06-56.821-782.87l-50.201-129.861c20.98-23.447 122.605-81.983 161.697-185.76-5.246 11.826-49.654 59.868-58.781 68.49-53.242 50.31-182.597 135.607-246.94 134.575-19.423-27.826-32.998-58.912-56.568-73.443 5.458 46.785 37.74 128.392 53.37 173.496 55.4 159.84 103.47 386.81 127.088 554.513 14.101 100.156 59.39 526.98-67.445 574.34-93.864 35.047-306.261 38.941-401.744 11.49-45.945-13.212-59.848-20.885-50.68-53.125 8.336-29.308 18.433-58.344 28.114-85.515 39.195-109.973 68.722-242.17 85.454-366.074 28.161-208.586 26.31-430.323-3.942-640.097-9.824-68.162-24.376-124.525-37.658-187.433-13.69 17.49-8.232 76.913-9.906 97.758-107.466-14.723-200.066-69.01-257.693-123.214-146.142-137.472-163.495-365.043-196.145-565.471-8.779-53.904-19.662-107.507-32.82-157.599l-47.325-141.373c92.49-5.698 161.288-20.646 238.168-52.995 49.251-20.728 148.867-82.195 173.032-118.718l9.12 2.944c-.082-14.238 8.424-20.53 17.21-27.703 5.787-9.756 12.407-15.42 18.48-22.887 85.912-105.471 159.123-285.11 169.548-415.012z"/>
        <path fill="#ef428b" d="M2191.666 1054.452c-8.178 14.046-8.78 42.529-13.685 59.93-5.083 18.029-11.081 35.054-18.05 52.12-6.975 17.1-15.788 35.3-24.076 49.43-46.607 79.406-21.233 10.281-17.776 175.58.977 46.832-1.319 92.107-5.097 138.387 5.896 3.812 13.247 7.249 18.713 15.734l-21.11-4.332c.163 8.684-.213 16.868-1.183 24.95-1.585 13.145.82 17.811-10.036 20.483 26.084 10.063 41.258 13.37 50.782 38.675 3.416 4.38 4.673-6.955 3.054 8.417l-5.78-6.224c-17.544-10.494-21.849-14.142-44.96-20.523-10.426 129.902-83.637 309.54-169.549 415.012-6.073 7.467-12.693 13.13-18.48 22.887 11.225.601 11.225 7.665 32.431 28.523 32.465 31.932 72.453 56.336 117.796 72.507l-11.423 9.845c-78.902 49.661-128.46 75.636-191.095 159.676-92.375 123.937-86.991 265.597 88.514 258.67 58.4-2.31 121.212-85.789 146.777-133.694 37.74-70.717 52.838-193.91 9.189-262.763-6.99-11.026-15.509-15.556-17.982-26.111 74.14-8.861 152.516-23.092 194.635-63.148 67.868-64.561 12.256-149.721-1.114-191.922 47.414 4.987 60.968 18.836 117.318 4.133 35.061-9.14 63.776-27.607 85.795-47.919 23.611-21.773 41.606-40.602 60.585-73.074 14.067-24.062 14.771-22.23 13.056-54.068-5.069-94.444-42.877-181.53-95.326-245.676-27.73-33.913-100.661-108.99-142.466-128.166 15.297-29.193 164.732-127.539 134.726-384.822-6.723-57.695-21.623-94.882-33.702-144.297l-13.268 14.853c-4.563 6.77-7.378 10.78-12.27 17.75-43.417 61.794-115.616 143.012-171.898 188.95-12.891 10.52-20.215 20.577-34.918 27.389z"/>
        <path fill="#c01b74" d="M4078.519 3639.95c-191.321 66.298-347.212-40.977-295.679-121.97 32.137-50.508 133.325-21.868 179.106 1.955 42.31 22.019 110.164 75.349 116.573 120.016zm-689.901-694.682c13.582-23.318 104.098-70.615 140.717-85.16 171.297-68.019 234.055-4.045 140.41 56.957-71.975 46.895-229.26 50.242-281.127 28.203zm456.358-678.308zm-1177.672-13.363l32.233 12.311c20.215-32.526 29.254-86.034 103.394-195.673 120.925-178.805 338.057-317.424 576.771-335.604 198.638-15.133 358.532 55.468 428.368 174.952 42.693 73.054 49.914 159.006 28.599 252.289-8.957 39.174-22.832 78.902-37.979 112.146-15.761 34.59-38.62 70.615-50.706 103.579 14.019-6.99 23.809-15.502 36.427-24.213 13.664-9.441 22.792-16.184 35.294-24.854 23.994-16.63 48.09-30.41 75.459-45.023 343.618-183.484 607.672 168.086 401.682 562.308-45.808 87.674-118.998 166.973-194.286 226.766-11.69 9.277-28.64 18.637-34.597 30.818 128.727 46.273 265.92 245.095 148.328 420.382-19.396 28.913-80.794 93.283-118.595 104.856-32.035-115.705-283.279-224.695-336.76-115.924-51.225 104.2 97.492 173.292 214.462 170.409 67.52-1.66 73.573-14.58 113.772-22.914 39.789 152.925-58.543 232.859-188.37 253.129 15.577 47.57 74.065 77.05 141.414 71.947 29.466-2.234 57.75-10.35 83.725-20.708 25.094-9.995 52.196-27.676 73.956-34.726-26.966 271.172-667.595 196.308-437.127-74.38l66.973-72.404c-96.35 15.693-136.898 51-272.464 28.14-14.839-2.5-27.99-3.326-36.749-11.497 116.772-84.422 195.598-228.453 125.291-381.283-15.625-33.968-35.717-58.044-59.69-80.671-8.486-8.007-16.192-13.398-24.643-21.596 6.354-7.338 68.64-30.778 78.28-34.85 26.918-11.368 52.367-24.096 77.003-36.653 138.059-70.341 294.353-184.892 345.21-346.242 62.58-198.549-76.976-376.233-270.476-393.662-107.282-9.667-144.475 23.789-196.397 32.944 28.16-62.717 55.25-84.306 84.627-181.934 128.044-425.52-338.754-624.547-701.577-364.244-55.284 39.666-95.298 80.965-136.987 130.312-21.083 24.957-95.039 128.481-103.606 165.21l14.928 9.236c9.196-8.765 40.117-68.927 50.884-85.214 312.246-472.127 863.22-362.666 876.235-7.59 3.108 84.64-21.138 158.336-50.83 224.838-39.666 88.835-75.677 121.185-100.531 169.514 23.55-6.586 76.893-53.317 174.979-68.306 218.676-33.408 398.144 139.07 342.129 348.107-33.58 125.304-131.344 213.73-212.753 272.47-95.852 69.174-200.319 112.556-322.323 158.48 6.47 8.008 10.043 8.848 20.318 14.58 23.344 13.028 36.387 25.729 55.591 44.66 16.52 16.294 38.56 52.039 49.23 81.3 26.946 73.9 16.268 151.56-18.65 213.545-26.2 46.505-53.98 75.896-92.873 107.562-8.882 7.235-26.085 24.028-38.307 22.368-20.284-2.747-74.133-32.466-91.165-42.556-35.833-21.22-81.136-59.431-107.24-89.854-81.813-95.346-121.67-219.824-102.555-349.951 18.788-127.948 97.198-263.637 182.563-345.32 45.364 3.177 81.737 14.614 133.646 14.6 44.831-.01 89.109-5.875 128.392-19.71 195.858-69.002 105.82-237.73-162.06-95.032-124.3 66.222-76.893 79.968-145.629 65.874-172.888-35.465-295.993-168.865-241.522-382.588 48.438-190.078 216.408-328.062 229.177-351.263-72.671-36.879-212.74 8.062-273.714 35.854-61.563 28.065-105.54 58.843-156.24 97.642-8.423 6.449-15.692 12.639-24.178 19.245-8.376 6.518-15.563 11.396-19.006 21.568 5.848 8.636 14.142 21.5 23.276 26.078 10.337-15.14 89.744-72.89 113.376-87.005 15.037-8.977 27.95-16.116 44.729-25.442 56.63-31.46 126.37-61.207 212.766-61.207-9.407 14.047-23.215 26.884-33.415 40.09l-49.606 64.001c-97.499 132.04-168.926 333.214-71.4 488.066 31.447 49.934 70.723 80.077 120.337 110.212 20.605 12.516 84.306 38.751 114.27 39.42-2.589 9.695-33.954 47.394-42.426 57.812-21.958 26.98-61.378 95.422-75.479 128.345-11.314 26.419-18.18 47.147-27.854 75.725-51.86 153.301-13.581 318.244 78.868 439.887 37.52 49.367 87.783 88.794 140.205 120.412 40.233 24.267 92.538 45.979 146.893 56.924 52.394 10.555 53.398 6.763 91.459 12.16 27.068 3.84 68.162-5.793 95.954-5.793-22.43 33.497-56.404 83.855-40.985 144.577 18.44 72.637 92.716 110.752 158.59 128.761 123.05 33.634 276.406 10.084 362.577-90.502 35.157-41.033 42.255-96.925 41.333-153.233-.663-40.848-14.368-2.76-111.62 42.836-34.105 15.993-120.242 42.153-155.966 11.095 50.057-11.662 102.93-51.998 130.36-93.502 27.068-40.943 34.924-81.375 33.47-133.823-.527-19.096-6.402-32.493-6.798-50.01 68.312-45.747 123.541-99.74 153.28-177.507 23.229-60.756 22.143-129.479 1.729-191.355-5.643-17.107-9.51-24.76-16.082-40.725-17.026-41.381-48.2-71.36-68.71-98.353-8.648-11.382-50.084-46.484-63.53-50.07 3.69-13.842 29.248-29.023 40.904-39.291l118.814-138.463c15.576-23.324 28.79-45.507 41.866-71.742 82.87-166.282 104.487-373.262-7.748-529.105-34.767-48.267-74.686-74.727-126.992-100.217-113.273-55.188-254.167-7.89-357.528 46.806.766-9.169 26.351-79.066 32.507-114.51 13.834-79.647 11.634-180.677-30.518-251.688-18.14-30.553-40.015-62.93-65.894-84.463-34.215-28.462-42.16-37.576-85.372-61.651-172.56-96.146-432.338-65.758-608.048 22.237-34.863 17.463-64.274 34.215-95.346 55.011l-85.399 64.958c-90.755 84.121-170.962 185.52-219.4 301.841-6.183 14.839-20.448 41.203-20.202 54.901zM1272.294 1138.553c-18.829-22.723-37.022-101.748-134.896-173.442-206.05-150.917-523.571-69.55-646.703 122.558-88.924 138.729-53.364 353.422 5.13 502.487 11.479 29.248 38.123 85.912 25.381 123.036-27.34 79.633-229.101-33.783-257.16-154.353 50.973 34.255 110.377 82.495 199.246 80.11-4.768-9.181-25.291-31.665-33.176-40.143-76.9-82.687-164.97-206.96-214.74-309.794C2.731 849.68 441.231 386.584 811.754 609.011c81.116 48.69 102.472 86.95 156.492 144.058 6.443-9.845 7.215-54.663 18.863-91.207 9.093-28.53 23.72-54.614 38.163-75.403 97.143-139.782 339.205-191.24 448.229-34.338 64.807 93.263 74.345 250.042 24.335 359.892-35.485 77.96-88.535 136.987-153.09 184.428-15.528 11.41-52.059 35.888-72.452 42.112zm-559.93-611.6c41.38-28.134 100.866-33.374 152.536-11.423 51.178 21.739 71.872 58.023 107.097 83.171-1.38 7.433-23.44 65.744-27.136 70.998-22.682-15.7-43.15-45.61-104.775-85.584-66.406-43.075-89.04-37.972-127.722-57.163zm261.73 67.103c-18.316-62.157-93.795-201.904 2.262-283.785 78.97-67.315 186.49 32.165 205.367 122.258-35.328 25.756-108.887 20.345-196.964 149.994zm-475.932 570.24c-.375-15.427 5.603-25.436 11.765-37.255 2.992-5.732 5.732-10.986 9.455-17.244 5.302-8.922 4.94-9.544 13.159-15.091 3.368-15.714 42.802-53.529 56.342-64.583 2.61-2.507 2.248-2.042 6.067-5.096l30.99-21.692c22.832-24.471 162.094-82.18 211.735-74.973 10.432-6.9 89.949-9.68 103.018.321 33.408-2.815 85.61 17.148 113.458 29.391 154.408 67.882 183.744 213.539 198.098 230.126 36.75-11.593 86.65-43.403 114.599-63.038 94.513-66.4 198.617-206.986 198.091-329.06l2.549-77.494c-5.398-8.355-9.114-52.394-12.906-67.335-25.948-102.247-79.53-184.189-182.672-217.822-55.632-18.139-82.044-10.549-138.804-11.457-1.148-52.565 6.914-107.405 21.896-153.5 11.922-36.653 41.012-95.742 64.07-110.855 63.346 15.953 89.061 100.99 90.393 181.723 71.114 18.193 114.53 69.48 143.102 126.985 33.053 66.522 36.195 151.743 32.636 233.494.758.615 1.79 1.455 2.261 1.852l7.215 6.271 3.545-.717c8.458-3.006 8.28 5.923 9.264-30.716 2.084-77.249-2.52-143.054-33.818-214.639-34.46-78.82-77.87-105.594-143.402-139.713-9.851-152.761-78.314-165.394-94.205-184.195 130.1-117.946 329.838-67.547 457.363 60.75 18.282 18.39 16.294 17.598 17.872 49.995 4.516 92.573-8.697 195.496-76.463 247.289 4.031 6.859 33.825 31.953 41.942 35.068l3.573-14.368c-2.808-15.385-3.915-9.011-11.382-20.7 9.66-16.752 15.003-15.051 31.85-49.457 30.6-62.498 32.63-130.278 31.68-199.068 13.869 9.284 37.18 51.103 44.202 65.115 11.396 22.743 25.435 50.14 32.493 77.324 1.011.956 47.222 30.86 48.035 31.235-1.038-10.378-5.322-23.795-9.004-33.094-24.288-61.296-36.332-98.564-77.836-156.054-36.203-50.147-90.476-102.37-143.505-133.824-110.69-65.648-249.433-92.272-362.987-25.142-18.289 10.808-39.864 25.381-54.081 39.468-63.448 62.881-111.026 161.657-111.026 259.86-18.275-21.022-20.53-49.443-76.312-90.756-30.703-22.73-81.327-39.987-130.497-22.504-38.142 13.561-68.442 46.757-83.451 83.609-28.872 70.901-10.447 107.322-10.447 146.6-10.562-2.46-14.832-6.102-23.83-9.58-63.734-24.601-130.434-17.434-187.768 18.495-16.936 10.61-18.842 21.145-47.495 16.513-46.806-7.577-136.748 10.46-174.83 25.12-112.678 43.39-230.713 142.699-281.064 256.88-100.286 227.442-77.918 404.614 59.465 618.802 35.963 56.07 59.765 84.524 98.017 135.88 5.992 8.048 11.362 13.227 16.24 20.51-18.296-4.264-28.776-14.498-42.775-24.056-63.796-43.553-104.549-117.919-104.877-90.926-.533 44.36 9.435 96.931 26.385 136.017 62.854 144.898 258.206 240.886 313.777 148.095 40.5-67.643-27.909-168.256-52.224-269.328-5.404-22.443-11.436-47.208-15.31-71.564-1.96-12.311-4.126-28.223-4.632-38.812-.902-18.733-3.033-27.458-3.512-43.267-.744-24.315 4.578-131.542 24.513-153.814z"/>
        <path fill="#f8b6d1" d="M1835.244 3486.574c0 281.619-34.665 487.793-134.083 735.743-8.82 21.985-31.31 67.097-30.129 92.921 34.836 37.207 134.726 44.94 202.67 44.94l44.83-.395c28.182-45.399 79.79-280.649 90.223-333.036 35.566-178.532 39.686-477.394 15.371-671.913-14.408-115.227 14.204-68.831-112.098-109.618-34.187-11.04-60.654-26.289-90.803-38.416 1.202 47.865 9.107 88.535 10.139 136.065 1.08 49.258 3.88 93.303 3.88 143.71z"/>
        <path fill="#c01b74" d="M2218.535 2223.523c24.76 12.216 113.854 15.59 151.286 65.136 80.603 106.68-104.87 306.11-199.95 364.708-11.668 7.194-27.102 12.004-32.847 23.53 88.248 5.8 131.555 4.372 202.525-50.994 10.521-8.205 14.32-10.398 23.516-19.936 6.804-7.07 13.213-15.809 24.663-21.37-3.266 127.005-110.459 262.776-236.774 260.685-132.683-2.186-96.07-150.302-54.068-238.078 11.314-23.632 38.437-62.314 44.633-82.373-35.457 8.609-75.158 32.056-113.806 36.066 13.33-18.16 34.167-29.753 62.977-70.198 42.672-59.902 65.99-132.73 62.867-210.505-2.118-52.75-12.905-68.422-26.467-110.137 13.93-7.973 71.756-15.905 93.761-23.892 30.225-10.972 55.407-24.772 75.001-41.75 64.2-55.598 35.478-128.42 22.183-178.415 62.97 1.38 97.308-1.544 143.41-30.3 59.471-37.097 75.957-73.641 91.902-84.312-9.633 131.261-120.583 269.676-218.976 341.568-32.82 23.987-110.67 65.635-115.836 70.567zM1969.13 429.188c3.608 10.985 15.973 23.604 25.156 27.922 21.199.102 39.433-8.759 69.979-6.217 123.296 10.24 238.543 143.586 296.799 242.751 8.656 14.744 49.9 88.83 48.534 102.561-3.006 30.259-164.137 216.135-216.114 246.147l-1.817 12.1-1.872 17.162c14.702-6.812 22.026-16.868 34.918-27.39 56.28-45.937 128.48-127.155 171.897-188.95 4.892-6.968 7.707-10.979 12.27-17.75l13.268-14.852c12.079 49.415 26.98 86.602 33.702 144.297 30.006 257.283-119.429 355.629-134.725 384.822 41.804 19.177 114.735 94.253 142.466 128.167 52.448 64.144 90.256 151.23 95.325 245.675 1.715 31.837 1.011 30.006-13.055 54.068-18.98 32.472-36.975 51.301-60.586 73.074-22.02 20.312-50.734 38.778-85.795 47.92-56.35 14.702-69.904.853-117.318-4.134 13.37 42.2 68.982 127.36 1.114 191.922-42.12 40.056-120.495 54.287-194.635 63.148 2.473 10.555 10.993 15.085 17.982 26.112 43.649 68.852 28.55 192.045-9.19 262.762-25.564 47.905-88.377 131.385-146.776 133.694-175.505 6.927-180.889-134.732-88.514-258.67 62.635-84.04 112.193-110.015 191.095-159.676l11.423-9.845c-45.343-16.171-85.33-40.575-117.796-72.507-21.206-20.858-21.206-27.922-32.431-28.523-8.786 7.173-17.292 13.466-17.21 27.703 7.242 3.047 28.654 27.827 37.931 35.95 8.246 7.228 13.042 11.86 21.78 18.303 8.274 6.094 15.605 10.282 20.36 17.134l13.609 5.35c-6.094 10.773.191 4.604-12.257 10.917-42.057 37.924-72.876 46.423-128.037 113.615-140.368 170.996-98.926 350.327 113.342 333.698 39.604-3.109 68.346-14.43 103.087-19.642-10.35 33.333-27.834 60.674-37.241 102.465-54.826 243.613 238.516 246.783 352.151 37.951 39.933-73.395 45.03-147.794 38.327-243.475-7.966 5.861-85.399 132.293-165.674 149.339 10.699-14.88 37.063-35.977 52.415-54.246 47.98-57.115 101.297-120.242 114.865-203.209 3.047-58.14-3.075-52.011-14.265-96.507-18.276-25.244-58.16-63.94-92.887-66.823v-6.689c25.128-5.848 96.924-71.168 117.413-89.744 31.79-28.824 88.269-107.684 108.71-148.574 75.192-150.452 70.69-304.286-3.362-442.23-10.084-18.78-20.803-34.433-32.82-50.713-27.266-36.933-99.978-119.518-129.8-127.477 20.339-30.375 32.097-35.512 61.57-85.453 71.639-121.397 68.141-245.58 41.777-375.428-6.778-33.388-24.062-81.88-37.46-112.904-5.534-12.817-8.601-23.024-14.606-35.513-45.01-93.467-113.294-190.323-195.892-251.838-10.658-7.939-18.555-14.101-29.077-21.042-55.263-36.455-121.362-61.119-191.485-47.721-17.647 3.368-24.636 7.945-40.568 11.013z"/>
        <path fill="#ef428b" d="M2218.535 2223.523c5.165-4.933 83.015-46.58 115.836-70.567 98.393-71.892 209.343-210.307 218.976-341.568-15.945 10.671-32.43 47.215-91.903 84.312-46.101 28.756-80.439 31.68-143.408 30.3 13.294 49.996 42.016 122.817-22.184 178.416-19.594 16.977-44.776 30.777-75 41.75-22.006 7.986-79.832 15.918-93.762 23.89 13.562 41.716 24.35 57.389 26.467 110.138 3.122 77.775-20.195 150.603-62.867 210.505-28.81 40.445-49.648 52.039-62.977 70.198 38.648-4.01 78.349-27.457 113.806-36.066-6.196 20.059-33.32 58.741-44.633 82.373-42.002 87.776-78.615 235.892 54.068 238.078 126.315 2.091 233.508-133.68 236.774-260.685-11.45 5.561-17.859 14.3-24.663 21.37-9.196 9.537-12.995 11.73-23.516 19.936-70.97 55.366-114.277 56.793-202.525 50.993 5.745-11.525 21.179-16.335 32.848-23.529 95.08-58.597 280.552-258.028 199.95-364.708-37.433-49.545-126.528-52.92-151.287-65.136zM1598.224 707.247c20.653 9.34 56.794 17.387 80.925 26.72 25.503 9.865 54.874 27.437 79.202 34.562-3.28-93.488 2.774-150.8 18.426-237.443-8.117-3.116-37.91-28.21-41.941-35.068 67.765-51.793 80.978-154.716 76.462-247.289-1.578-32.397.41-31.604-17.872-49.996-127.525-128.296-327.263-178.695-457.363-60.749 15.891 18.801 84.354 31.434 94.205 184.195 65.532 34.119 108.942 60.893 143.403 139.713 31.297 71.585 35.901 137.39 33.818 214.639-.984 36.64-.807 27.71-9.265 30.716zM1994.284 457.11c12.284 19.566 30.04 36.325 43.718 55.072 73.177 100.293 124.512 216.271 147.228 341.063 13.049 71.66 8.943 115.938 8.253 189.108 51.977-30.013 213.108-215.89 216.114-246.148 1.366-13.732-39.878-87.817-48.534-102.56-58.256-99.166-173.503-232.511-296.8-242.752-30.545-2.542-48.78 6.32-69.978 6.217z"/>
        <path fill="#ea80b0" d="M1780.35 516.718l-3.573 14.368c-15.652 86.642-21.705 143.955-18.426 237.443-24.329-7.126-53.699-24.697-79.203-34.563-24.13-9.332-60.27-17.38-80.924-26.72l-3.545.718-28.585-7.898 1.394 18.542-2.549 77.495c8.014-11.457 6.067-36.1 6.689-52.47 55.338 10.242 132.846 43.178 180.656 70.97 18.276 10.624 14.49 6.156 20.414 30.047 4.42 17.811 16.062 63.08 32.472 74.475-5.452-139.07-21.992-292.768 24.26-420.58 32.11-88.74 61.453-85.686 115.897-30.723 20.298 20.49 34.44 34.563 53.624 59.998 84.565 112.064 148.464 262.496 155.829 419.282 5.254 112.03-25.818 228.022-76.58 324.824-6.667 12.707-16.826 27.006-21.479 39.42l13.302-8.506c11.416 40.35 7.7 170.49 2.2 215.643l-13.445 7.207c26.508-2.637 29.753-2.405 54.204 4.209 3.778-46.28 6.074-91.555 5.097-138.387-3.457-165.299-28.83-96.174 17.776-175.58 8.288-14.13 17.1-32.33 24.076-49.43 6.969-17.066 12.967-34.091 18.05-52.12 4.905-17.401 5.507-45.884 13.684-59.93l1.818-12.1c.69-73.17 4.796-117.447-8.253-189.107-22.716-124.792-74.051-240.77-147.228-341.063-13.678-18.747-31.434-35.506-43.717-55.072-9.183-4.318-21.548-16.936-25.156-27.922-8.184-2.788-5.301-1.886-11.9-8.02-.814-.377-47.025-30.28-48.036-31.236-53.214-8.206-64.357 3.887-88.104 36.735-9.128 12.625-17.914 28.277-23.946 42.83-5.93 14.278-10.337 34.828-16.793 47.221z"/>
        <path fill="#f8b6d1" d="M2365.763 3263.54c24.254 47.987 78.964 261 92.033 321.482 27.512 127.388 45.077 214.72 61.05 349.863 10.651 90.16 7.87 167.935 12.181 261.164-1.257-6.62 25.443-92.77 29.316-111.873 18.918-93.386 28.073-166.856 27.376-266.807-1.319-190.044-58.256-416.023-136.523-587.566z"/>
        <path fill="#ef428b" d="M1567.488 718.608l-1.394-18.541 28.585 7.897-7.215-6.272a223.888 223.888 0 0 0-2.261-1.85c3.56-81.752.417-166.973-32.636-233.496-28.571-57.504-71.988-108.79-143.102-126.984-1.332-80.733-27.047-165.77-90.393-181.723-23.058 15.113-52.148 74.202-64.07 110.855-14.982 46.095-23.044 100.935-21.896 153.5 56.76.908 83.172-6.682 138.804 11.457 103.142 33.633 156.724 115.575 182.672 217.822 3.792 14.941 7.508 58.98 12.906 67.335zM974.094 594.056l10.665-11.533c88.077-129.649 161.636-124.238 196.964-149.995-18.876-90.092-126.397-189.572-205.367-122.257-96.057 81.88-20.578 221.628-2.262 283.785z"/>
        <path fill="#fefefe" d="M1635.513 1241.305c-41.64 57.497-8.793 136.638 29.35 175.32 18.364 18.624 41.517 39.51 72.52 47.55 42.01 10.905 71.203-6.25 82.243-36.003 5.008-13.726 6.675-28.988 6.457-45.125.246-42.666-31.127-85.331-50.536-107.2-21.63-24.363-55.1-49.695-104.938-49.654-15.98 1.817-25.08 8.943-35.096 15.112z"/>
        <path fill="#ef428b" d="M4078.519 3639.95c-6.409-44.666-74.263-97.996-116.573-120.015-45.781-23.823-146.969-52.463-179.106-1.954-51.533 80.992 104.358 188.267 295.679 121.97z"/>
        <path fill="#c01b74" d="M1429.4 2153.305c6.963-20.503 23.954-40.145 47.551-46.512 29.794-8.034 65.552 4.844 70.403 24.547 15.044-35.26 20.27-61.48 22.006-104.836.778-19.566.382-90.714-5.35-111.155l-3.983-9.496c-30.948 78.43-154.32 151.279-256.334 82.256 3.942 19.437 40.09 76.019 51.595 92.333 17.25 24.445 47.461 60.9 74.113 72.863z"/>
        <path fill="#fefefe" d="M993.531 1328.72c-37.978 36.024-24.137 84.483.069 127.64 18.227 32.493 51.99 69.747 89.518 84.135 23.898 9.162 55.448 7.044 65.62-12.065 11.055-20.749-54.593-171.379-69.951-180.54-4.673-1.81-4.85-1.319-8.93-3.99-5.171-3.389-2.883-2.692-5.814-6.477-26.405-8.99-37.61-18.234-70.512-8.704z"/>
        <path fill="#ef428b" d="M3388.618 2945.268c51.868 22.04 209.152 18.692 281.127-28.203 93.645-61.002 30.887-124.976-140.41-56.957-36.62 14.545-127.135 61.842-140.717 85.16z"/>
        <path fill="#ea80b0" d="M498.162 1164.295c6.907 22.641 8.465 44.681 20.243 78.984 9.387 27.335 18.884 46.32 29.282 70.957 13.22 31.31 58.42 94.444 82.215 118.26 10.624 10.63 15.338 13.965 26.617 23.502 39.947 33.777 24.595 25.674 41.354 109.01 5.814 28.94 12.462 55.079 19.088 81.15 7.112 27.963 18.809 54.819 24.09 80.39 17.25-6.77 23.071-18.124 47.796-16.71l-2.89-5.008c-16.205-6.934-20.817-44.851-25.545-61.986-9.564-34.651-23.27-88.965-27.505-125.625-4.359-37.747-28.29-28.503-45.59-64.015l2.29-1.742-24.227-11.068c-22.053-12.4-42.193-44.982-35.211-60.449l-9.667-18.364c-41.156-64.548-95.62-204.746-87.961-266.875-8.22 5.547-7.857 6.169-13.159 15.091-3.723 6.258-6.463 11.512-9.455 17.244-6.162 11.82-12.14 21.828-11.765 37.255zM1547.354 2131.34c-9.237 19.498-21.855 35.061-47.885 39.31-24.52 4.004-56.978-3.196-70.068-17.345-26.651-11.963-56.862-48.418-74.113-72.863-11.505-16.314-47.652-72.896-51.594-92.333 102.014 69.023 225.385-3.826 256.333-82.256l3.983 9.496c5.732 20.441 6.128 91.589 5.35 111.155-1.736 43.356-6.962 69.577-22.006 104.836zm-293.752-207.116c24.342 89.156 117.919 270.298 232.538 269.444 158.384-1.182 98.318-346.017 83.513-371.957-8.376 12.673-12.748 36.912-18.822 52.093-34.904 87.264-121.273 146.838-216.96 104.46-37.877-16.78-53.03-36.667-80.27-54.04z"/>
        <path fill="#7fd2f4" d="M1670.609 1226.193c49.838-.041 83.308 25.292 104.938 49.654 19.41 21.869 50.782 64.534 50.536 107.2 5.458 6.579 2.05-3.71 5.424 11.812.834 3.833.28 11.122.219 15.331 19.833-18.508 12.707-2.528 33.141-24.076l37.528-26.05-.219-12.502c-2.582-23.646-50.85-91.48-63.434-104.816-23.092-24.451-62.266-65.013-104.18-77.42l10.747 14.253c-16.117 1.55-4.496.43-11.246 2.862-20.543 7.406-1.441 5.78-37.54 28.906-5.145 3.293 0 .608-6.362 3.846-7.836 3.99-10.869 3.252-19.552 11zm-76.606-61.774c-11.186 12.355-18.29 28.42-27.164 47.235-7.645 16.213-17.982 40.896-21.33 60.962 11.602-6.036 39.204-25.7 64.488-30.726 8.975-1.784 18.128-5.054 25.516-.585 10.016-6.17 19.116-13.295 35.096-15.112 8.683-7.748 11.716-7.01 19.553-11 6.36-3.238 1.216-.553 6.36-3.846 36.1-23.126 16.998-21.5 37.541-28.906 6.75-2.432-4.87-1.312 11.246-2.862l-10.747-14.253c-47.575-22.224-92.787-12.921-140.56-.907zm232.08 218.628c-.731 16.417-.695 26.649-4.717 39.854l24.932 98.977 2.132 35.738 5.834-.827c14.99-9.578 75.896-17.571 97.143-26.364-2.043-36.646-8.506-73.389-19.771-110l-30.68-78.56.729 2.799.491 2.898.219 12.502-37.528 26.05c-20.434 21.548-13.308 5.568-33.141 24.076.062-4.209.615-11.498-.219-15.331-3.375-15.522.034-5.233-5.425-11.812zM1179.038 1686.944c3.812 58.509-41.285 118.438-78.45 134.18-28.989 12.27-60.156 2.875-83.036-11.13-24.417-14.948-39.59-34.74-54.273-47.052-1.824 3.956-5.998 8.725-10.384 15.188-11.28 16.594-28.366 39.12-34.952 51.103 5.732 11.819 16.205 19.655 28.188 28.782 68.04 51.834 145.308 54.068 196.76-21.185 19.013-27.813 33.455-71.824 39.112-105.533l-.136-36.278-2.419-29.8zM1754.949 1759.09l-7.857 2.89-9.729 3.531-5.178 1.011c-2.576.417.54.28-14.088 1.49-4.044.334-12.687-.608-16.758-1.005-22.717-4.884-21.842-4.31-22.717-4.884-34.487-11.13-61.5-30.963-82.87-46.902 12.249 23.004 48.356 60.654 69.104 77.099 51.526 18.343 89.102 39.536 152.345 13.752 37.767-15.399 81.519-54.676 93.85-90.44l-79.858-41.723c-6.716 9.298-17.777 35.854-27.99 48.07-11.321 13.533-29.364 30.709-48.254 37.11z"/>
        <path fill="#ef428b" d="M712.364 526.952c38.682 19.191 61.316 14.088 127.722 57.163C901.71 624.09 922.18 654 944.861 669.7c3.696-5.254 25.756-63.565 27.136-70.998-35.225-25.148-55.92-61.432-107.097-83.172-51.67-21.95-111.155-16.71-152.536 11.423z"/>
        <path fill="#7fd2f4" d="M827.305 1684.574c23.84-3.345 63.728-16.385 83.519-15.741-11.184-43.977-30.778-88.323-31.318-139.679-7.733-8.71-6.456-17.96-7.016-30.826-7.659 5.814-20.12 3.867-30.948-.28-7.078-2.712-3.922-1.79-6.737-3.272-.656-.342-1.468-.854-2.118-1.21-.649-.355-1.455-.88-2.104-1.236-.888-.485-3.395-1.933-4.318-2.384-11.771-5.766-18.76-5.111-32.765-5.248l4.25-52.21c-7.307 23.536-3.806 107.174.197 135.977 6.135 44.127 18.345 77.522 29.358 116.109zm-29.556-252.085l-4.25 52.21c14.006.136 20.995-.52 32.766 5.247.923.45 3.43 1.9 4.318 2.384.65.355 1.455.881 2.104 1.237.65.355 1.462.867 2.118 1.209 2.815 1.482-.341.56 6.737 3.272 10.828 4.147 23.29 6.094 30.948.28.56 12.865-.717 22.115 7.016 30.826-.157-33.012-1.591-59.164 4.571-91.89 2.548-13.52 6.313-27.033 10.808-38.975 4.482-11.908 11.216-23.603 17.278-33.008-2.275-9.066-3.382-6.905-17.182-10.6-33.606-9.005-42.16-20.715-64.883-21.378l6.32-4.987.64-2.387.967-2.85 1.877-4.329c-7.733 8.06-13.124 18.147-18.405 29.789a275.206 275.206 0 0 0-10.446 26.494c-3.32 9.865-4.482 15.426-6.955 25.545-3.457 14.169-4.115 17.323-6.347 31.91zm38.669-104.173l-6.32 4.987c22.723.663 31.277 12.373 64.883 21.378 13.8 3.695 14.907 1.534 17.183 10.6 10.966-13.363 16.887-21.62 32.922-30.502 11.867-6.572 35.349-14.299 48.445-6.06 32.903-9.53 58.092 7.707 84.497 16.698l-7.576-10.733-4.912-7.782c-16.964-16.226-28.27-23.843-51.322-38.231-17.845-11.143-40.97-21.61-66.44-23.564-49.948-3.832-103.518 29.965-111.36 63.21z"/>
        <path fill="#ea80b0" d="M2022.944 1051.043c6.805-8.28 6.826-18.87 8.486-30.382l4.693 5.233c1.858-31.14 54.779-96.78 24.93-243.236-24.82-121.814-70.751-164.144-85.03-197.996 10.159 51.52 40.5 94.717 56.964 213.709 18.296 132.314-.956 152.324-10.043 252.672z"/>
        <path fill="#ef428b" d="M1780.35 516.718c6.456-12.393 10.863-32.943 16.793-47.222 6.032-14.552 14.818-30.204 23.945-42.83 23.748-32.847 34.891-44.94 88.105-36.734-7.058-27.185-21.097-54.58-32.493-77.324-7.023-14.012-30.333-55.83-44.202-65.115.95 68.79-1.08 136.57-31.68 199.068-16.847 34.406-22.19 32.705-31.85 49.457 7.467 11.689 8.574 5.315 11.382 20.7z"/>
        <path fill="#fdfbb1" d="M2727.855 2551.831l5.431-.089 15.434-.73c-12.1-28.374-13.671-11.588-15.481-50.188-.882-18.74-8.322-37.829-15.987-51.622-45.002-80.979-117.803-86.718-47.994 37.896 7.125 12.715 16.314 25.64 25.64 34.522 7.14 6.805 13.397 8.253 17.688 12.045 14.675 12.974-1.995 13.575 15.269 18.166z"/>
        <path fill="#7fd2f4" d="M2820.81 2687.718l5.322 1.49 17.866 1.12c-1.4-19.123-9.176-24.41 1.36-39.564 9.694-13.937 13.752-18.993 16.293-40.711 3.778-32.274-6.182-67.595-23.344-84.948-48.698-49.238-58.126 97.115-15.87 132.122l-9.825 27.246zM2725.006 2727.015l6.695-6.21c9.975-21.452-8.574-11.198-2.097-41.647 9.476-44.592-20.646-114.783-64.664-111.354-23.611 29.453-.226 130.524 47.79 136.147l-1.258 32.041c8.39-4.762 6.9-4.727 13.534-8.977z"/>
        <path fill="#9de2f9" d="M1845.287 1609.511l100.122 6.613c3.908-28.564 6.108-57.135 5.998-85.7-21.247 8.794-87.988 17.614-102.977 27.192-.328 17.237-1.428 34.542-3.143 51.895z"/>
        <path fill="#f67033" d="M1429.4 2153.305c13.09 14.149 45.55 21.35 70.069 17.346 26.03-4.25 38.648-19.813 47.885-39.31-4.85-19.704-40.609-32.582-70.403-24.548-23.597 6.367-40.588 26.01-47.55 46.512z"/>
        <path fill="#9de2f9" d="M827.304 1684.573c8.512 23.448 19.922 46.225 34.03 68.36l70.485-38.784-21.275-46.416c-17.6.868-59.759 13.295-83.24 16.84z"/>
        <path fill="#ea80b0" d="M588.883 1030.123c8.773 4.004 5.944-2.985 11.499 24.431 1.995 9.859 4.727 19.574 7.57 28.968 5.977 19.785 12.666 35.109 21.356 52.305 13.787 27.266 42.966 75.042 62.109 85.822-6.825-20.277-26.119-51.751-41.675-99.67-8.547-26.351-28.25-91.5-23.802-118.644l-30.99 21.692c-3.819 3.054-3.457 2.59-6.067 5.096z"/>
        <path fill="#fefefe" d="M1660.6 1509.546c16.765-53.46-50.03-93.488-69.986-67.041-20.278 26.87 24.3 90.899 69.986 67.041z"/>
        <path fill="#f8b6d1" d="M689.606 1451.462l-2.288 1.742c17.298 35.512 41.23 26.268 45.59 64.015 4.235 36.66 17.94 90.974 27.504 125.625 4.728 17.135 9.34 55.052 25.545 61.986-14.176-60.087-42.447-125.871-36.865-192.96-.69-.547-1.66-2.35-1.92-1.804l-13.09-61.405z"/>
        <path fill="#fefefe" d="M972.427 1522.309c-27.703 21.67 29.316 86.362 56.412 66.918 25.77-18.494-28.476-88.767-56.412-66.918z"/>
        <path fill="#ea80b0" d="M940.693 928.683c-13.07-10.002-92.586-7.221-103.018-.321 17.865 2.227 14.893 15.372 23.385 59.513 3.403 17.701 6.504 55.495 13.637 68.134 12.1-28.653 10.302-97.231 8.225-130.592zM1244.7 1749.067c28.175-6.894 46.273-15.761 80.097-20.892 32.07-4.871 62.041-3.826 94.711-6.149-38.101-37.425-151.894-13.028-174.808 27.04z"/>
        <path d="M2033.636 1594.208c-8.266 3.785-4.666.54-6.203 9.824.93 12.85-2.706 7.638 3.901 9.53l29.691-6.708 41.436.225c23.112 6.381 27.417 10.03 44.961 20.523l2.726-2.193c-9.524-25.305-24.698-28.612-50.782-38.675l-35.444-.027z"/>
        <path fill="#ea80b0" d="M748.354 1745.699c6.64 11.6 11.04 25.858 16.082 38.73 19.635-7.365 24.875-16.902 50.229-14.655l-3.177-5.171-20.53-29.665c-.39-.97-2.337-4.071-2.59-5.766-.245-1.66-.956-1.947-1.44-2.917-15.53 3.587-32.302 5.882-38.574 19.444zM2063.922 1586.706l35.444.027c10.856-2.671 8.451-7.337 10.036-20.482.97-8.082 1.346-16.267 1.182-24.95-9.483-1.011-16.943-1.633-26.555-1.032-3.02.185-10.31.964-13.09 1.688-12.715 3.32-5.282 1.175-9.456 4.673l8.417 1.96z"/>
        <path fill="#aed0ea" d="M2733.286 2551.742l-5.431.09c-3.416 30.961 12.147 70.156 27.587 89.463 14.662 18.323 30.573 32.397 25.682 59.274-2.433 13.329-5.008 13.561-16.459 14.928-.99-7.94-2.46-6.914.704-14.928l7.85-12.858c-22.3 2.78-19.874 19.123-12.687 34.857 23.611 3.04 31.72-14.047 29.104-37.678-2.712-24.54-14.3-30.566-22.552-41.511-25.244-33.442-22.614-47.967-33.798-91.637z"/>
        <path d="M764.436 1784.429c-16.089 14.839-26.726 30.436-26.726 61.514l14.675-22.08c5.971-8.083 11.218-14.798 20.537-18.016 6.914-11.348 18.09-15.645 31.01-15.973.738-.547 1.715-2.391 2.18-1.674.484.745 1.769-1.243 2.431-1.496 5.022-1.927 4.304-1.667 9.606-2.72l-.164-6.394-3.32-7.816c-25.354-2.247-30.594 7.29-50.229 14.655z"/>
        <path fill="#f8b6d1" d="M2033.636 1594.208l30.286-7.502 5.978-38.115-8.417-1.96c-13.725-.192-15.235 3.292-28.728 6.701l1.346-21.466c-4.96 5.657-3.102-7.392-5.37 13.11-1.264 11.37 1.018 5.856 1.94 16.964 1.1 13.261-3.955 21.241 2.965 32.268zM2031.334 1613.563c-3.607 5.445 3.594 3.84-7.693 4.44l-7.078 27.424c-.26.587-.792 1.667-1.188 2.5 20.748 1.319 21.103 7.18 34.767 9.537 6.894-10.828 9.585-37.029 10.884-50.61z"/>
        <path d="M2014.562 1661.796c2.254 8.533.67 5.903 7.132 10.521 5.459.806 8.034 1.305 12.352 3.45 10.624 5.295 4.57 1.66 6.73 6.23 19.47 10.864 21.254 19.609 32.253 40.166 2.296-35.622-5.875-41.183-19.69-59.991l-3.197-4.708c-13.664-2.357-14.019-8.218-34.767-9.537zM2033.561 1532.966l.54-1.1-1.346 21.466c13.493-3.409 15.003-6.893 28.728-6.702 4.174-3.498-3.259-1.353 9.456-4.673 2.78-.724 10.07-1.503 13.09-1.687 9.612-.601 17.073.02 26.555 1.031l21.11 4.332c-5.465-8.485-12.816-11.922-18.712-15.734-24.451-6.613-27.696-6.846-54.204-4.209z"/>
        <path fill="#fdfbb1" d="M2826.132 2689.207l-5.322-1.49c-8.615 43.862-11.238 63.162 3.327 105.698 9.831 28.721 16.63 84.019-25.011 81.812-3.19-17.237.41-30.703 2.268-45.801-11.082 4.522-14.6 37.029-4.038 47.454 19.874 19.628 51.738-24.704 36.134-73.02-15.652-48.465-18.91-60.872-7.358-114.653z"/>
        <path d="M741.05 1726.549c-14.51 23.064-16.703 15.68-16.703 39.201 13.11-9.612 3.108-10.09 24.007-20.051 6.272-13.562 23.044-15.857 38.573-19.444l5.568.01-.704-10.617-2.944-5.807c-24.725-1.414-30.546 9.94-47.796 16.71z"/>
        <path fill="#ea80b0" d="M1252.25 1809.42c-32.835 36.715 12.946 78.751 45.752 53.227-36.072-21.575-32.041 8.54-43.28-46.094z"/>
        <path fill="#fdfbb1" d="M2725.006 2727.015l10.603 4.174c16.554 44.893-11.573 94.643 12.974 123.535 44.278 4.024 51.54-60.34 16.82-70.56l12.36 15.57c7.624 13.842 6.578 54.334-29.002 48.616-19.335-39.072 19.122-86.868-17.06-127.545z"/>
        <path fill="#ea80b0" d="M1424.79 1840.375c45.746 14.265 60.004-44.674 27.928-63.803-.505 38.143-1.045 49.354-27.929 63.803z"/>
        <path d="M835.126 1824.792c-6.674 18.282-14.224 30.942-8.587 55.728.266 1.182 1.926 6.886 2.343 7.788 3.75 8.198 3.006 5.274 6.279 8.786.628-17.141.26-36.879 11.313-46.402 1.735-12.482 2.897-5.131 4.338-18.556-7.474-8.191-3.245-2.733-4.516-10.03-11.02.834-5.199-1.611-11.17 2.686z"/>
        <path fill="#f8b6d1" d="M814.18 1788.22c3.409 12.4 9.49 31.557 20.946 36.572 5.971-4.297.15-1.852 11.17-2.685l-3.648-4.584c-.485-.54-2.89-2.897-3.511-3.6l-16.896-31.305zM786.927 1726.255c.485.97 1.196 1.257 1.442 2.917.252 1.695 2.2 4.796 2.589 5.766l20.53 29.665-13.61-34.174c-.259-1.072-.628-4.406-1.024-5.52-3.28-9.27 1.51-3.204-5.063-9.264l.704 10.617z"/>
        <path fill="#694d58" d="M628.693 1274.2c-.02-1.188-.485-9.352-.424-9.612 1.954-8.772-1.332-1.892 3.58-7.618l-6.346-9.899c-2.515 13.022-4.086 19.102 3.19 27.13z"/>
        <path fill="#ea80b0" d="M1978.646 2160.335c12.448-6.313 6.163-.144 12.257-10.918l-13.61-5.35c6.224 15.954 3.833 3.24 1.353 16.268z"/>
        <path fill="#8c6876" d="M701.514 1148.22c9.886 6.975 3.02 1.517 10.487 12.987l-1.468-20.25c-7.693 1.989-4.23.636-9.019 7.263zM803.932 1789.874l10.248-1.653 8.061-5.603c-.69-6.203 1.196-5.028-4.256-5.028l.164 6.395c-5.302 1.052-4.584.792-9.606 2.719-.662.253-1.947 2.24-2.432 1.496-.464-.717-1.441 1.127-2.18 1.674zM2023.641 1618.003c11.287-.6 4.086 1.005 7.693-4.44-6.606-1.893-2.972 3.32-3.901-9.531-.471.813-1.332 1.004-1.462 2.418-.137 1.421-1.052 1.927-1.202 2.562-1.435 6.04-.991 2.009-1.128 8.991z"/>
        <path fill="#7fd2f4" d="M1601.558 1722.935l3.655-.697c-5.848-2.398-2.33-2.063-9.462-7.016z"/>
        <path fill="#8c6876" d="M2010.387 1671.272l11.307 1.045c-6.463-4.618-4.878-1.988-7.132-10.521zM761.738 1299.943l4.557-8.45-9.442-4.12c.758.812 3.136 4.358 3.423 5.28.3.984.663 2.433.943 3.444.3 1.093.369 2.562.519 3.846z"/>
        <path fill="#694d58" d="M1887.72 1060.696c.574-.895 1.517-3.156 1.763-2.644.26.533 1.981-2.972 2.862-5.465 2.146-6.094 1.039-4.297 2.064-9.298-1.845 2.425-2.76 2.063-4.51 7.084-2.589 7.44-.177-.758-2.179 10.323z"/>
        <path fill="#7fd2f4" d="M1601.558 1722.935l5.2 4.878 5.964 1.161-7.508-6.736z"/>
        <path fill="#694d58" d="M2147.422 1627.602l5.78 6.224c1.619-15.372.362-4.038-3.054-8.417z"/>
        <path fill="#dff9fe" stroke="#dff9fe" stroke-width=".567" d="M917.943 1829.232c-20.69-22.581-39.946-47.675-56.61-76.298l70.485-38.785c12.1 18.357 22.393 34.37 31.462 48.793zM1845.287 1609.511c-2.1 20.75-8.17 42.079-14.094 64.398l79.848 41.753c14.944-32.401 26.664-65.528 34.368-99.537z"/>
        <path d="M972.427 1522.309c27.936-21.849 82.182 48.424 56.412 66.918-27.096 19.444-84.115-45.248-56.412-66.918zm-215.574-234.936l9.442 4.12-4.557 8.45-12.769 29.104c-57.525 10.146-105.492-34.22-117.12-72.077-4.912 5.726-1.626-1.154-3.58 7.618-.061.26.403 8.424.424 9.613 1.482 42.897 48.95 88.685 112.973 87.455l-8.39 61.986c-45.583 5.363-89.437-12.98-103.107-43.697-6.983 15.468 13.158 48.049 35.211 60.449l24.226 11.068 44.476-2.801 13.09 61.405c.26-.547 1.23 1.257 1.92 1.803-6.272-36.817 10.617-122.974 21.213-157.988 29.876-98.673 115.569-176.646 203.598-121.765 26.016 16.212 81.293 66.324 90.277 92.634l14.607 23.14c15.358 9.161 81.006 159.791 69.952 180.54-10.173 19.109-41.723 21.227-65.62 12.065-37.529-14.388-71.292-51.642-89.52-84.135-24.205-43.157-38.046-91.616-.068-127.64-13.097-8.24-36.578-.513-48.445 6.06-24.164 13.383-40.725 38.333-50.2 63.509-4.496 11.942-8.26 25.456-10.809 38.976-6.162 32.725-4.728 58.877-4.57 91.89-.458 92.134 57.019 236.042 138.045 280.839 22.88 14.005 54.048 23.4 83.035 11.13 37.166-15.742 82.277-76.546 78.465-135.054l.232-20.68.321 10.787 2.098 19.013.3 36.107c-.19-1.667-.314 1.018 0 0 .274-.888.991-5.486 1.264-7.01.396-2.247 1.203-6.579 1.701-9.4.615-3.41.533-3.54.403-6.832-.102-2.59.294-5.035.13-7.884-.273-4.66-.341-9.729-.362-14.778-.048-9.83.314-20.106.444-29.527.15-10.842.068-20.564-.32-27.24-1.272-21.704-6.546-49.237-6.314-68.776-.505-.806-.26-1.107-1.55-6.552-.834-3.511-1.613-6.811-1.62-6.845-.655-3.444-3.36-12.407-3.791-16.014-13.35-113.547-118.623-366.683-266.978-350.116-69.242 7.734-92.545 46.266-123.863 80.603-37.05-4.693-71.872-56.302-69.146-99.719-7.467-11.47-.6-6.012-10.487-12.987 1.476 11.642-3.764 29.692-2.411 45.159 1.202 13.739 4.693 28.113 9.469 40.158 9.892 24.923 24.178 46.156 48.281 53.836zM1660.6 1509.546c-45.685 23.858-90.263-40.171-69.986-67.041 19.956-26.447 86.751 13.582 69.986 67.041zm233.809-466.258c-1.025 5.001.082 3.205-2.064 9.299-.88 2.493-2.603 5.998-2.862 5.465-.246-.512-1.189 1.75-1.763 2.644-8.779 13.404-15.932 23.563-23.16 34.091-25.005-4.502-107.52-72.452-228.671-14.504-196.766 94.124-157.353 477.224-40.138 634.938 16.417 14.648 64.733 44.681 82.871 46.902 24.07 6.367 38.26 7.781 58.741 3.388l8.84-3.21 8.746-3.212c18.89-6.401 36.933-23.577 48.253-37.11 23.38-27.957 33.026-58.912 39.598-93.318 5.315-38.047 7.693-67.308 3.498-106.783-5.718-33.75-13.677-66.673-24.608-98.516-.615-1.79-2.016 4.837-2.064 4.81-11.04 29.753-40.233 46.907-82.242 36.004-31.004-8.041-54.157-28.927-72.521-47.55-38.143-38.683-70.99-117.824-29.35-175.321-33.258-2.726-63.25 7.781-90.004 31.31 3.348-20.065 13.685-44.748 21.33-60.96 8.874-18.816 17.653-38.683 30.347-50.434 39.215-66.27 142.664-91.315 231.39-45.432 58.584 30.293 125.578 107.077 155.754 167.73l1.736-19.614c57.053-5.766 119.374-47.366 107.37-112.631-18.617 33.135-16.806 37.063-44.503 57.941-17.435 13.138-44.968 28.75-71.264 31.079-8.143-18.446-24.998-45.542-29.835-59.288 19.068-14.524 43.219-16.874 70.191-56.158 19.45-28.332 27.246-59.527 18.098-98.954l-4.693-5.233c-1.66 11.512-1.681 22.102-8.486 30.382 2.09 41.326-57.784 91.527-95.783 101.823-9.476-6.525-32.445-27.95-37.33-39.68 43.15-34.576 44.223-132.15-1.906-157.947 3.963 44.892 10.064.294 6.484 88.05z"/>
    </g>
</svg>
