<svg xmlns="http://www.w3.org/2000/svg" viewBox="0 0 595.276 841.89">
    <g fill-rule="evenodd">
        <path stroke="#1b1918" stroke-width=".567" d="M80.076 304.402v65.4h314.4v-65.4z"/>
        <path fill="#ad7b48" stroke="#1b1918" stroke-width=".567" d="M9.327 162.055h447.927l129.361-93.377-431.358-1.158z"/>
        <path fill="#ad7b48" stroke="#1b1918" stroke-width=".567" d="M457.254 162.32v354.47l129.361-93.735V68.586z"/>
        <path fill="#ad7b48" d="M118.285 342.175l-.527 1.145c-2.673 5.545-4.464 9.509-5.36 11.866-1.395 3.7-2.172 5.847-2.357 6.466-.54 1.725-1.251 2.581-2.12 2.581-.62 0-1.146-.276-1.58-.843-.382-.5-.58-1.027-.58-1.593 0-2.2 2.818-9.179 8.468-20.94-1.027-.763-1.528-1.54-1.528-2.304 0-.593.25-1.106.764-1.54.435-.37.909-.554 1.41-.554.368 0 .829.092 1.421.277 4.202-7.994 6.664-13.09 7.375-15.277-.632.356-1.462.87-2.462 1.54-.566.357-1.067.54-1.515.54-.487 0-.882-.25-1.198-.736a1.989 1.989 0 0 1-.303-1.041c0-1.198 1.04-2.502 3.121-3.885 1.686-1.106 3.24-2.028 4.675-2.765.237-.62.382-1.04.435-1.278.25-.974.527-1.633.803-1.962.29-.33.724-.5 1.317-.5 1.212 0 1.817.671 1.817 2.015a53.864 53.864 0 0 1 4.715-1.16c1.37-.25 2.529-.381 3.477-.381 2.502 0 4.61.948 6.334 2.857 1.62 1.804 2.437 3.82 2.437 6.071 0 3.885-1.62 7.77-4.86 11.655-2.779 3.306-6.216 5.874-10.325 7.73-3.556 1.568-7.098 2.358-10.654 2.358-.843 0-1.91-.118-3.2-.342zm10.773-23.56c-.856 2.555-2.24 5.82-4.175 9.798-2.37 4.833-3.911 7.993-4.596 9.495 1.409.276 2.41.421 2.976.421 2.937 0 6.36-1.185 10.272-3.556 3.793-2.317 6.756-5.188 8.89-8.612 1.316-2.094 1.975-3.938 1.975-5.57 0-1.463-.5-2.569-1.488-3.293-.988-.738-2.49-1.107-4.504-1.107-1.515 0-3.055.198-4.623.593a23.42 23.42 0 0 0-4.727 1.83zm36.11 20.662c-5.86 1.16-10.76 2.529-14.71 4.096-2.37 3.463-4.978 7.638-7.81 12.498l-2.054 3.582c-.356.645-.909 1.58-1.66 2.778-.83 1.423-1.685 2.134-2.594 2.134-.487 0-.895-.198-1.238-.58-.33-.342-.5-.71-.5-1.119 0-.724.961-2.765 2.897-6.137 1.054-1.83 2.647-4.412 4.78-7.757.83-1.29 1.476-2.344 1.976-3.16a32.022 32.022 0 0 0-4.254 1.501c-.619.277-1.132.422-1.54.422-.514 0-.91-.224-1.199-.699a1.671 1.671 0 0 1-.303-1c0-.87.303-1.488.922-1.844 1-.619 2.805-1.33 5.4-2.12 1.935-.62 3.463-1.186 4.595-1.7.54-.67 1.95-2.633 4.241-5.899.988-1.41 3.753-4.754 8.336-10.022a139.998 139.998 0 0 1 10.193-10.772c2.028-1.95 3.582-2.924 4.662-2.924.672 0 1.251.263 1.739.803.408.488.618 1.028.618 1.62 0 .725-.355 1.989-1.08 3.78a167.235 167.235 0 0 0-3.542 10.153c-.974 3.187-1.633 5.637-1.962 7.336.46 0 .764-.013.922-.04.75-.026 1.356-.04 1.844-.04 1.487 0 2.238.567 2.238 1.7 0 .487-.158.974-.474 1.448-.33.474-.685.764-1.106.87-.145.052-.566.065-1.265.065-1.461 0-2.541.092-3.265.277-.62 1.83-1.594 6.492-2.924 14.012-.698 4.991-1.027 8.046-1 9.179 0 1.857-.554 2.779-1.673 2.779-.87 0-1.554-.448-2.055-1.357-.355-.619-.54-1.448-.54-2.502 0-3.556.646-8.336 1.923-14.355a332.358 332.358 0 0 0 1.462-7.006zm1.067-4.161c.237-.75.816-2.74 1.75-5.992.225-.843.818-2.529 1.752-5.044.936-2.608 1.686-4.688 2.24-6.256-1.647 1.107-3.32 2.569-5.018 4.399-6.058 6.532-10.338 11.866-12.84 16.014.961-.237 3.002-.817 6.137-1.738.908-.264 2.897-.725 5.979-1.383zm37.374-18.411c-5.149.79-9.916 1.804-14.315 3.042-.935.33-1.646.5-2.16.5-.592 0-1.093-.263-1.514-.803a1.69 1.69 0 0 1-.382-1.08c0-1.093.803-1.896 2.397-2.41 4.267-1.29 9.284-2.475 15.079-3.555 7.243-1.317 14.223-1.976 20.9-1.976 2.265 0 3.779.145 4.556.422.724.263 1.08.75 1.08 1.461 0 1.212-.882 1.91-2.66 2.12-1.541.146-3.872.264-6.993.343-6.203.21-10.443.593-12.735 1.16.645.25.962.658.962 1.198 0 .566-.409 1.448-1.225 2.66-4.9 7.15-9.561 15.263-14.013 24.35-3.397 6.887-5.886 13.011-7.453 18.358-.356 1.62-.975 2.436-1.857 2.436-.79 0-1.462-.421-2.002-1.238-.356-.54-.54-1.106-.54-1.699 0-2.37 2.265-8.125 6.782-17.29 2.884-5.888 5.545-10.853 7.981-14.882.988-1.646 3.332-5.465 7.059-11.458zm31.646 18.74c-2.028 1.975-4.504 4.267-7.401 6.861-1.646 1.462-3.108 2.647-4.399 3.556-1.343.974-2.739 1.462-4.2 1.462-1.476 0-2.595-.777-3.359-2.318a5.894 5.894 0 0 1-.619-2.66c0-3.24 1.317-7.27 3.938-12.09 2.33-4.293 5.557-8.468 9.666-12.51 4.096-4.043 6.98-6.058 8.679-6.058.408 0 .763.158 1.08.46.276.317.421.685.421 1.12 0 .724-.263 1.317-.777 1.778-.408.355-1.014.777-1.804 1.264-1.449.909-3.227 2.397-5.36 4.477-3.398 3.346-6.098 6.954-8.1 10.839-2.212 4.293-3.318 7.322-3.318 9.1 0 .382.119.737.343 1.04.316.435.724.659 1.237.659.975 0 2.647-.935 5.018-2.818 2.831-2.187 5.123-4.228 6.861-6.137 5.097-5.505 8.916-9.956 11.458-13.38 2.449-3.319 4.503-5.966 6.176-7.955 1.422-1.672 2.515-2.502 3.28-2.502.513 0 .947.263 1.316.777.277.408.421.883.421 1.423 0 .908-.487 1.988-1.461 3.252-6.967 9.166-11.59 15.408-13.855 18.727a114.21 114.21 0 0 0-8.902 15.869c-2.91 6.242-4.675 10.39-5.281 12.485-.592 1.922-1.146 3.147-1.66 3.66-.513.514-1.092.778-1.738.778-1.211 0-1.817-.58-1.817-1.739 0-1.264.817-3.832 2.437-7.73 1.896-4.61 4.227-9.192 6.98-13.749 2.33-3.858 3.924-6.505 4.74-7.94zm33.885 10.259c1.396 0 2.094.553 2.094 1.686 0 .856-.645 1.501-1.95 1.936-2.225.79-3.344 2.225-3.344 4.28 0 1.646.645 2.936 1.936 3.858 1.106.777 2.502 1.16 4.2 1.16 3.412 0 6.388-.989 8.93-2.977 1.593-1.264 2.396-2.858 2.396-4.78 0-1.186-.237-2.253-.698-3.214-.487-.974-1.238-2.212-2.238-3.7-1.541-2.318-2.845-4.425-3.899-6.335-1.185-2.107-1.778-4.188-1.778-6.216 0-4.82 2.384-9.324 7.138-13.512a33.94 33.94 0 0 1 8.323-5.333c2.516-1.107 4.939-1.66 7.283-1.66 1.515 0 2.805.396 3.859 1.186 1.277.948 1.923 2.238 1.923 3.871 0 2.582-1.384 5.36-4.162 8.337-2.621 2.805-5.69 5.096-9.18 6.874-1.75.87-3.068 1.304-3.976 1.304-.593 0-1.12-.237-1.58-.725-.304-.342-.461-.71-.461-1.119 0-.961.842-1.725 2.541-2.318 3.108-1.106 5.86-2.66 8.244-4.675 3.082-2.568 4.623-4.82 4.623-6.742 0-.751-.303-1.357-.922-1.818-.488-.356-1.067-.54-1.739-.54-1.764 0-3.977.685-6.65 2.041-3.582 1.83-6.413 4.188-8.468 7.072-1.791 2.502-2.687 4.926-2.687 7.296 0 1.725.475 3.503 1.436 5.334.79 1.462 1.817 3.12 3.055 4.978 1.185 1.778 2.186 3.424 3.003 4.938.961 1.805 1.435 3.49 1.435 5.057 0 3.042-1.738 5.729-5.228 8.073-2.963 1.962-6.321 2.937-10.061 2.937-3.688 0-6.572-1.014-8.666-3.029-1.567-1.528-2.357-3.306-2.357-5.307 0-2.24.75-4.123 2.252-5.637a8.789 8.789 0 0 1 3.226-2.08c.856-.343 1.568-.501 2.147-.501zm41.68-13.643l1.542-.277c5.65-1.067 9.587-1.607 11.813-1.607 1.606 0 2.41.659 2.41 1.976 0 .83-.316 1.382-.962 1.672-.434.198-1.185.33-2.238.382-6.651.408-11.708 1.198-15.171 2.358-1.37 2.027-3.372 5.82-6.006 11.364-1.514 3.24-2.7 6.23-3.542 8.982.592-.21 1.172-.408 1.738-.619 3.806-1.29 6.611-2.12 8.415-2.502 2.397-.461 4.649-.698 6.756-.698 1.396 0 2.423.171 3.095.5.593.277.882.817.882 1.607s-.355 1.317-1.08 1.567c-.342.106-1.132.171-2.396.198-6.822.355-12.906 2.041-18.24 5.03-.685.382-1.277.58-1.778.58-.71 0-1.356-.369-1.923-1.12-.487-.618-.737-1.25-.737-1.883 0-.645.816-3.015 2.45-7.098 2.449-6.203 5.768-12.998 9.995-20.373 1.251-2.239 3.648-6.005 7.177-11.3.79-1.237 1.567-2.449 2.318-3.634-1.04-.25-1.554-.935-1.554-2.041 0-.83.408-1.422 1.238-1.818 1.33-.619 3.911-1.224 7.717-1.804 5.69-.882 10.51-1.317 14.473-1.317 2.24 0 3.359.593 3.359 1.765 0 .83-.382 1.514-1.16 2.08-.381.277-1 .422-1.843.422h-2.173c-1.844 0-4.517.198-8.02.58-3.03.329-5.637.816-7.823 1.461.25.382.382.698.382.922 0 .435-.605 1.436-1.817 3.003l-1.83 2.858c-2.622 3.898-4.439 6.835-5.466 8.784zm42.986-15.356c-5.15.79-9.917 1.804-14.315 3.042-.935.33-1.647.5-2.16.5-.593 0-1.093-.263-1.515-.803a1.69 1.69 0 0 1-.382-1.08c0-1.093.804-1.896 2.397-2.41 4.267-1.29 9.285-2.475 15.08-3.555 7.242-1.317 14.222-1.975 20.899-1.975 2.265 0 3.78.144 4.556.42.725.264 1.08.751 1.08 1.463 0 1.211-.882 1.91-2.66 2.12-1.54.145-3.872.263-6.993.342-6.202.21-10.443.593-12.735 1.16.646.25.962.658.962 1.198 0 .566-.409 1.448-1.225 2.66-4.899 7.15-9.56 15.263-14.012 24.35-3.398 6.887-5.887 13.011-7.454 18.358-.356 1.62-.974 2.436-1.857 2.436-.79 0-1.462-.421-2.002-1.238-.355-.54-.54-1.106-.54-1.698 0-2.37 2.266-8.126 6.783-17.292 2.884-5.887 5.544-10.851 7.98-14.881.988-1.646 3.332-5.465 7.06-11.458zM9.327 162.055h447.927v354.61H9.327z"/>
        <g stroke="#1b1918" stroke-width=".567">
            <path fill="#1b1918" d="M164.93 227.973l-33.817 35.093L316.548 441.76l33.818-35.093z"/>
            <path fill="#e30016" d="M166.995 223.897L354.05 406.336l-39.094 40.082L127.9 263.98zm.206 22.71c-.086.09-.044.223.126.39.123.118.74.561 1.852 1.34 1.112.78 2.07 1.54 2.865 2.29a32.827 32.827 0 0 0-2.969-1.475 60.46 60.46 0 0 0-2.75-1.088c-.965-.358-1.634-.625-2.026-.808-.392-.184-.69-.381-.908-.594-.673-.657-.59-1.424.267-2.302 2.203-2.26 4.321-3.287 6.36-3.09.821.083 2.001.37 3.533.87 1.526.491 3.16 1.143 4.905 1.941a49.096 49.096 0 0 1 5.434 2.99 30.645 30.645 0 0 1 5.092 3.997c1.55 1.513 2.76 3.13 3.622 4.861.862 1.717 1.34 3.418 1.422 5.09.081 1.673-.22 3.33-.906 4.973-.685 1.642-1.741 3.2-3.181 4.677-2.19 2.246-4.96 3.793-8.324 4.641-3.35.849-6.897 1.028-10.634.53-3.73-.491-7.42-1.595-11.05-3.29-3.639-1.702-6.77-3.841-9.404-6.41-.49-.477-.825-.91-1.01-1.29-.18-.389-.179-.799.004-1.231.183-.419.573-.941 1.17-1.554.737-.755 1.402-1.314 1.983-1.678.587-.357 1.322-.716 2.211-1.07 6.053-2.367 14.584-4.456 25.612-6.261a31.368 31.368 0 0 0-3.741-2.468 59.562 59.562 0 0 0-4.209-2.179 38.662 38.662 0 0 0-3.587-1.494c-1.026-.35-1.612-.457-1.758-.307zm13.987 6.897c-.02.02-.139.197-.357.516a5.26 5.26 0 0 1-.608.787c-.299.306-.874.582-1.724.828-.857.253-2.425.635-4.718 1.148-2.292.512-4.282.988-5.964 1.419-1.689.424-3.792 1.042-6.315 1.846-.804.266-1.34.434-1.634.518a40.81 40.81 0 0 0-1.406.42c-.643.197-1.172.399-1.58.599-.4.206-.68.384-.833.541-.338.347-.387.778-.145 1.28.242.513.72 1.112 1.42 1.796 1.81 1.765 4.041 3.304 6.706 4.615a32.778 32.778 0 0 0 8.363 2.806c2.917.562 5.62.622 8.128.187 2.502-.441 4.54-1.468 6.106-3.074 1.791-1.837 2.492-3.903 2.12-6.204-.378-2.294-1.846-4.695-4.412-7.197a49.139 49.139 0 0 0-3.147-2.83zm12.467 40.772l-1.301 1.334c-1.654-.06-2.873-.213-3.67-.458-.789-.253-1.65-.894-2.598-1.924-3.719.369-6.245-.09-7.558-1.37-.749-.731-1.183-1.633-1.318-2.72-.128-1.094.033-2.239.501-3.441.463-1.209 1.208-2.34 2.23-3.389.83-.85 2.031-1.524 3.605-2.008 1.573-.483 3.25-.732 5.025-.754 1.767-.03 3.43.185 4.995.636 1.558.444 2.783 1.095 3.654 1.944.626.61 1.023 1.184 1.198 1.726.168.549.086.987-.252 1.334-.26.265-.707.426-1.352.474.404.593.578 1.109.523 1.533-.055.424-.398.966-1.035 1.619-.624.64-1.557 1.296-2.798 1.97a16.81 16.81 0 0 1-3.887 1.535l.01.712.299.292c.224.219.509.377.832.48.331.097.641.174.937.21.297.05.95.13 1.96.265zm1-9.234a80.168 80.168 0 0 0-4.59-.958c-1.306-.226-2.497-.325-3.586-.311-1.082.02-1.98.22-2.715.591-1.78 1.159-2.726 1.802-2.846 1.925-.856.877-.668 1.91.557 3.105.571.557 2.002.997 4.305 1.33.386-.844.854-1.556 1.412-2.127.816-.837 1.815-1.522 3.012-2.055 1.196-.532 2.676-1.028 4.451-1.5zm15.882 18.743c-4.882.323-7.825.998-8.82 2.019-.558.571-.605 1.083-.136 1.54.381.372 1.084.66 2.101.855 1.011.202 2.681.424 5.003.67l-1.334 1.368c-3.703.026-6.467-.04-8.277-.2-1.817-.165-3.045-.553-3.684-1.177-1.09-1.061-.93-2.314.47-3.75a5.797 5.797 0 0 1 1.419-1.059c.54-.282 1.143-.532 1.805-.748.67-.224 1.64-.512 2.933-.87 1.293-.373 2.76-.774 4.408-1.212-1.133-.348-2.83-.516-5.08-.494a31.774 31.774 0 0 0-3.897.196 121.71 121.71 0 0 0-3.757.531c-1.369.22-2.322.325-2.86.332-.537.006-.943-.123-1.221-.395-.429-.418-.385-1.239.123-2.482.51-1.243 1.348-2.457 2.502-3.64.71-.729 1.35-1.22 1.924-1.47.562-.249 1.46-.515 2.7-.793 2.285-.52 4.09-.777 5.394-.793 1.304-.003 2.269.287 2.874.878.429.418.696.825.815 1.22.113.402.023.753-.276 1.059-.132.136-.299.238-.527.309a3.44 3.44 0 0 1-.663.136c-.208.022-.652.055-1.304.083-4.365.283-6.886.772-7.556 1.46-.379.387-.435.703-.183.95.156.152.714.192 1.675.133.953-.066 2.202-.162 3.734-.29 1.537-.119 3.237-.147 5.107-.09 1.876.065 3.848.288 5.923.68 1.192.193 2.016.518 2.479.97.218.212.137.704-.223 1.495a7.491 7.491 0 0 1-1.433 2.081c-.285.293-1.002.456-2.158.498zm16.54-3.877l4.606-4.722 2.94 2.867-4.606 4.722-5.727 4.878-1.83-1.786zm7.436 14.13l.857.836c1.943-.575 3.445-.85 4.527-.816 1.083.034 1.995.406 2.723 1.115.735.717.937 1.246.618 1.573-.16.163-.863.313-2.125.463-1.255.143-2.268.31-3.032.508a141.762 141.762 0 0 1 1.803 2.223c-2.123.665-4.476 1.171-7.053 1.526-.347-.392-.64-.718-.872-.984-.232-.266-.464-.532-.71-.81-.238-.273-.531-.6-.879-.991-1.842.46-3.457.903-4.83 1.344-1.372.44-2.562.912-3.564 1.422-.995.503-1.828 1.099-2.485 1.772-.896.919-.98 1.74-.252 2.45.504.491 1.436.87 2.777 1.128 1.34.259 3.233.497 5.695.722l-1.294 1.327c-7.389.388-11.94-.254-13.655-1.927-.599-.584-.857-1.286-.766-2.1.09-.829.49-1.606 1.2-2.335.479-.49 1.152-.975 2.013-1.45.874-.474 2.237-1.137 4.102-1.987-.343-.016-.666-.039-.982-.041-.316-.016-.605-.02-.867-.037-.263-.003-.538-.02-.841-.036a18.868 18.868 0 0 0-.895-.036l1.348-1.381c2.536.19 6.228-.22 11.088-1.228-.197-.205-.368-.398-.538-.577a23.044 23.044 0 0 0-.606-.605c-.789-.77-1.42-1.293-1.908-1.555a7.26 7.26 0 0 0-.575-.31c-.19-.09-.305-.163-.359-.216-.054-.053-.042-.121.031-.196.425-.435 1.334-.823 2.735-1.157 1.16-.317 2.111-.463 2.858-.438a4.248 4.248 0 0 1 2.146.672c.69.421 1.546 1.137 2.567 2.132zm33.492 25.177c.454.257.901.52 1.361.783.46.264.9.547 1.349.85.447.304.847.628 1.208.98.77.75 1.263 1.564 1.476 2.449.213.884.17 1.759-.136 2.616a6.348 6.348 0 0 1-1.47 2.324c-1.048 1.075-2.446 2.114-4.188 3.124-1.756 1.01-3.694 1.868-5.823 2.594a37.203 37.203 0 0 1-6.54 1.56c-3.02.414-5.993.236-8.906-.548-2.907-.777-5.146-1.938-6.711-3.465-1.157-1.128-1.873-2.437-2.14-3.932-.267-1.496-.066-3.091.606-4.773.678-1.69 1.806-3.35 3.386-4.97 2.124-2.177 4.846-3.784 8.167-4.807a34.575 34.575 0 0 1 10.305-1.54c3.542-.01 6.76.353 9.653 1.09 2.892.736 4.914 1.659 6.07 2.787.946.922 1.389 1.925 1.328 2.995-.06 1.07-.493 2.466-1.319 4.184-1.271-1.174-2.492-2.073-3.67-2.704-1.17-.637-2.501-1.165-4.006-1.597zm-8.97-.849c-1.901.084-4.095.455-6.587 1.105-2.479.648-4.761 1.45-6.82 2.39-2.065.947-3.485 1.818-4.262 2.614-1.931 1.98-1.974 3.876-.13 5.675 1.292 1.26 3.802 2.01 7.543 2.258 3.74.25 7.56-.114 11.453-1.097 3.9-.977 6.832-2.472 8.79-4.48 1.44-1.476 1.571-2.781.4-3.923-.905-.882-2.358-1.597-4.355-2.15-2.003-.56-4.237-.76-6.722-.608-.887.064-2.879.405-5.95 1.035 1.453-1.013 3.673-1.955 6.64-2.819zm1.61 24.581L262 361.56c3.835-.202 7.3-.541 10.379-1.003 3.086-.47 5.535-.842 7.34-1.127 1.804-.285 3.22-.35 4.245-.201 1.016.155 1.978.667 2.883 1.55.449.438.514.834.176 1.181-.272.279-.861.515-1.76.7-.898.187-1.912.287-3.04.301-1.486.012-3.137.22-4.953.64-1.823.412-4.04 1.052-6.658 1.898 1.259.139 2.74.282 4.422.435 1.675.148 3.028.299 4.045.44 1.01.15 1.927.38 2.751.692.824.312 1.528.747 2.114 1.318.374.365.546.665.535.907-.017.25-.215.561-.586.942-.99 1.014-2.196 1.762-3.622 2.243-1.433.475-3.109.792-5.037.93-1.933.145-4.158.166-6.7.077a5.846 5.846 0 0 0 1.19 1.666c1.538 1.5 4.755 2.34 9.637 2.52l-1.4 1.437c-1.89-.077-3.713-.196-5.456-.329-1.742-.146-3.27-.39-4.586-.742-1.322-.347-2.336-.872-3.058-1.575a5.828 5.828 0 0 1-.757-.912c-.24-.353-.446-.7-.611-1.034-.173-.327-.38-.768-.622-1.323a17.348 17.348 0 0 0-.58-1.23c-.535-.309-.826-.487-.88-.54-.463-.451-.822-1.173-1.083-2.157-1.272.419-2.816 1.05-4.661 1.893-1.845.83-3.329 1.467-4.46 1.918a14.593 14.593 0 0 1-3.672.892c-.658.008-1.05-.054-1.185-.187-.572-.557-.366-1.34.622-2.353.857-.878 1.923-1.617 3.199-2.218a22.614 22.614 0 0 1 3.928-1.44 64.622 64.622 0 0 1 4.21-.94c1.455-.267 2.52-.502 3.183-.679 5.627-1.562 10.253-3.038 13.9-4.435-6.68.736-11.595 1.147-14.746 1.233zm7.143 8.878c2.66-.1 4.788-.322 6.377-.658 1.595-.342 2.638-.772 3.143-1.29.478-.49.472-.973-.018-1.451-.667-.65-2.13-1.015-4.403-1.094-2.273-.08-4.951.19-8.036.806 1.08.853 1.78 1.456 2.08 1.816.293.352.583.98.857 1.87zm13.779 9.681l-.485.497c-.763.782-1.17 1.58-1.207 2.394-.043.821.248 1.53.874 2.14.646.631 1.473 1.145 2.466 1.516 1 .377 2.091.646 3.27.812 1.185.174 2.692.316 4.515.435l-1.188 1.218c-3.255.343-6.018.357-8.273.03-2.25-.322-4.054-1.14-5.415-2.467-1.177-1.148-1.672-2.52-1.47-4.116.209-1.589 1.083-3.179 2.642-4.778 1.36-1.395 2.922-2.342 4.683-2.841 1.755-.506 3.985-.669 6.689-.487 1.857.125 3.494.447 4.92.987 1.424.526 2.528 1.178 3.31 1.942.626.61.984 1.237 1.066 1.875.088.644-.146 1.252-.704 1.823-.816.837-1.945 1.37-3.38 1.589-1.437.22-3.192.114-5.275-.31-2.082-.439-4.43-1.189-7.038-2.259zm1.458-1.1c1.656.699 3.24 1.116 4.76 1.258 1.522.142 2.798.086 3.817-.142 1.019-.241 1.674-.505 1.96-.797.298-.306.308-.589.03-.861-.246-.239-.78-.468-1.616-.686-.836-.218-1.772-.347-2.8-.395a12.32 12.32 0 0 0-3.177.288 7.93 7.93 0 0 0-2.974 1.335zm24.931 18.395c-4.882.323-7.825.998-8.82 2.019-.557.571-.605 1.083-.135 1.54.38.372 1.083.66 2.1.855 1.012.203 2.681.424 5.003.67l-1.334 1.368c-3.703.026-6.466-.04-8.277-.2-1.817-.165-3.045-.553-3.684-1.176-1.089-1.062-.93-2.315.47-3.75a5.802 5.802 0 0 1 1.419-1.06c.54-.282 1.143-.532 1.806-.748a64.31 64.31 0 0 1 2.933-.87c1.292-.373 2.76-.774 4.407-1.212-1.133-.348-2.83-.516-5.08-.494a31.769 31.769 0 0 0-3.897.197c-1.147.141-2.395.318-3.757.53-1.368.22-2.322.325-2.86.332-.537.007-.942-.123-1.221-.395-.429-.418-.385-1.239.124-2.482.508-1.243 1.347-2.456 2.502-3.64.71-.729 1.349-1.22 1.924-1.47.561-.249 1.459-.515 2.699-.793 2.285-.519 4.09-.777 5.394-.793 1.304-.003 2.269.287 2.875.878.428.418.695.825.815 1.22.112.402.023.753-.276 1.059a1.2 1.2 0 0 1-.527.309c-.228.07-.442.113-.664.136-.208.022-.652.055-1.303.083-4.366.283-6.887.772-7.557 1.459-.378.388-.435.704-.183.95.156.153.715.193 1.675.134.954-.066 2.203-.162 3.734-.289 1.537-.12 3.238-.148 5.107-.09a39.27 39.27 0 0 1 5.924.678c1.192.194 2.016.52 2.478.97.218.213.137.705-.223 1.496a7.492 7.492 0 0 1-1.433 2.081c-.285.293-1.002.457-2.158.498zm30.642-.692c.359.19.643.388.861.6.436.425.786 1.033 1.038 1.823s.309 1.616.179 2.471c-1.522.308-4.003.823-7.435 1.538-3.44.722-6.007 1.258-7.703 1.622-1.71.364-3.466.75-5.29 1.148-1.816.406-3.21.733-4.181.98.205.293.182.576-.064.828-.152.156-.574.276-1.266.358-.691.082-1.163-.005-1.414-.251-.293-.285-.402-.91-.34-1.885.069-.968.296-1.65.667-2.03.186-.192.593-.405 1.242-.662.649-.243 1.673-.572 3.08-.98a330.48 330.48 0 0 1 4.688-1.321c1.722-.472 3.825-1.063 6.323-1.76 4.87-1.345 8.073-2.178 9.615-2.48zm-34.614 15.79c-.394-.384-.616-.946-.652-1.672-.05-.725.244-1.407.868-2.047.81-.83 1.95-1.563 3.4-2.193 1.451-.63 2.411-.716 2.88-.258.287.279.487.673.587 1.169.093.503.067 1.034-.087 1.614a3.418 3.418 0 0 1-.882 1.544c-.71.728-1.785 1.34-3.217 1.828-1.439.495-2.407.494-2.897.016z"/>
        </g>
        <g stroke="#1b1918" stroke-width=".567">
            <path fill="#1b1918" d="M36.412 447.04v46.481h43.633V447.04z"/>
            <path fill="#e30016" d="M27.231 442.808H90.25v56.016H27.231zm13.408 38.68L39.039 459v-9.406H45.5V459l-1.482 22.488zm-1.363 10.552v-5.928h5.987v5.928zm17.834-10.552L55.51 459v-9.406h6.461V459l-1.482 22.488zm-1.364 10.552v-5.928h5.988v5.928zm17.835-10.552L71.98 459v-9.406h6.462V459l-1.482 22.488zm-1.364 10.552v-5.928h5.988v5.928z"/>
        </g>
        <path fill="#ad7b48" stroke="#1b1918" stroke-width=".567" d="M6.225 159.348h451.82l130.486-93.825-435.107-1.163zm0 0h451.82V189.2H6.225zm451.82 0l130.486-93.64v29.853L458.045 189.2z"/>
    </g>
</svg>
