<?xml version="1.0" encoding="UTF-8" standalone="no"?>
<svg
   xmlns:dc="http://purl.org/dc/elements/1.1/"
   xmlns:cc="http://creativecommons.org/ns#"
   xmlns:rdf="http://www.w3.org/1999/02/22-rdf-syntax-ns#"
   xmlns:svg="http://www.w3.org/2000/svg"
   xmlns="http://www.w3.org/2000/svg"
   xmlns:sodipodi="http://sodipodi.sourceforge.net/DTD/sodipodi-0.dtd"
   xmlns:inkscape="http://www.inkscape.org/namespaces/inkscape"
   inkscape:version="1.0 (4035a4fb49, 2020-05-01)"
   sodipodi:docname="1.svg"
   viewBox="0 0 725.66931 725.66931"
   id="svg40"
   height=""
   width=""
   version="1.1">
  <metadata
     id="metadata46">
    <rdf:RDF>
      <cc:Work
         rdf:about="">
        <dc:format>image/svg+xml</dc:format>
        <dc:type
           rdf:resource="http://purl.org/dc/dcmitype/StillImage" />
        <dc:title></dc:title>
      </cc:Work>
    </rdf:RDF>
  </metadata>
  <defs
     id="defs44" />
  <sodipodi:namedview
     inkscape:current-layer="svg40"
     inkscape:window-maximized="0"
     inkscape:window-y="0"
     inkscape:window-x="0"
     inkscape:cy="362.83466"
     inkscape:cx="362.83466"
     inkscape:zoom="0.79650605"
     showgrid="false"
     id="namedview42"
     inkscape:window-height="480"
     inkscape:window-width="820"
     inkscape:pageshadow="2"
     inkscape:pageopacity="0"
     guidetolerance="10"
     gridtolerance="10"
     objecttolerance="10"
     borderopacity="1"
     bordercolor="#666666"
     pagecolor="#ffffff" />
  <g
     id="Layer1000">
    <path
       id="path2"
       style="fill:#ffffff;fill-rule:evenodd"
       d="m 618.0024,261.078 c 22.6085,26.9866 42.9437,57.1178 57.4288,89.2989 l 0.324,-0.1522 3.723,9.578 c 7.7423,18.9593 13.4422,38.8341 15.9741,59.184 0.3523,2.8332 0.6105,5.6767 0.8549,8.5207 1.4315,16.6708 0.7381,33.4479 -2.7669,49.8379 -6.7198,31.4243 -23.1086,58.6584 -47.5294,79.5143 -13.7727,11.7624 -29.5407,21.0155 -46.3396,27.7351 -0.5672,2.9899 -0.8572,6.0236 -1.0803,9.0581 -0.6026,8.2077 -0.8422,16.4386 -1.1344,24.6617 l -0.4017,11.2986 -468.5301,0.8611 -0.4031,-11.3402 c -0.2925,-8.2231 -0.5317,-16.454 -1.1344,-24.6617 -0.2231,-3.0345 -0.5131,-6.0682 -1.08,-9.0581 -16.799,-6.7196 -32.567,-15.973 -46.3396,-27.7351 -24.4208,-20.8559 -40.8093,-48.09 -47.5294,-79.5143 -3.1861,-14.8995 -4.0306,-30.142 -3.1082,-45.3286 0.2645,-4.3517 0.6032,-8.7015 1.1424,-13.0289 2.603,-20.8842 8.5447,-41.2662 16.5804,-60.6069 l 3.1703,-8.155 0.2984,0.1403 c 14.4976,-32.1769 34.8427,-62.3033 57.4549,-89.2888 1.6087,-18.6103 0.8388,-37.2898 1.2268,-55.94 0.334,-16.06 1.5727,-31.904 5.6098,-47.5093 3.6164,-13.9782 12.5308,-45.3322 22.108,-55.419 l 3.3293,-3.5065 4.8333,-0.1434 c 61.1496,-1.8161 122.3167,-3.0521 183.4895,-3.7131 20.1308,-0.2177 40.2627,-0.3566 60.3949,-0.3566 45.2631,0 90.5256,0.5596 135.7762,1.6146 18.89,0.4405 37.7807,0.8997 56.6617,1.6393 l 4.7665,0.1868 3.2847,3.4591 c 9.578,10.0865 18.4919,41.4414 22.1083,55.4196 4.0374,15.6062 5.2761,31.4513 5.61,47.5121 0.3875,18.6494 -0.3818,37.328 1.2269,55.9375 z" />
    <g
       id="Layer1001">
      <path
         id="path4"
         style="fill:#808080;fill-rule:evenodd;stroke:#000000;stroke-width:4.1391;stroke-linecap:butt;stroke-linejoin:miter;stroke-dasharray:none"
         d="m 125.7751,161.3873 c -8.9772,34.7321 -3.1511,69.3942 -6.8623,105.2749 -122.8081,144.3235 -87.4332,271.8697 9.4838,277.3999 9.5513,48.485 9.731,26.1702 11.4536,74.6552 l 445.8777,-0.8195 c 1.7231,-48.485 1.9028,-26.1702 11.454,-74.6552 96.9171,-5.5302 132.1516,-133.2177 9.4839,-277.3999 -3.7112,-35.8806 2.1149,-70.5428 -6.8624,-105.2749 -5.5878,-21.5674 -13.7246,-44.4516 -19.2566,-50.2776 0,0 -85.8424,-3.3492 -191.9787,-3.2451 -106.1367,-0.1041 -243.5363,4.0646 -243.5363,4.0646 -5.532,5.826 -13.6688,28.7102 -19.2567,50.2776 z" />
      <path
         id="path6"
         style="fill:#808080;fill-rule:evenodd"
         d="m 56.205,367.0185 278.0854,130.927 C 276.0151,658.0492 -32.521,595.2595 56.205,367.0185 Z" />
      <path
         id="path8"
         style="fill:#808080;fill-rule:evenodd"
         d="M 669.3735,366.1991 391.2882,497.126 c 58.2753,160.1037 366.8114,97.314 278.0853,-130.9269 z" />
    </g>
    <path
       id="path11"
       style="fill:#000000;fill-rule:evenodd"
       d="m 118.224,267.5383 c 0.8129,0 1.6169,0 2.4298,-0.0884 6.0486,-9.3328 11.1668,-19.3553 15.1368,-29.7667 -5.0729,9.7778 -11.2241,19.0146 -18.243,27.4989 l 0.6803,2.3151 z" />
    <path
       id="path13"
       style="fill:#666666;fill-rule:evenodd;stroke:#000000;stroke-width:0.7892;stroke-linecap:butt;stroke-linejoin:miter;stroke-dasharray:none"
       d="m 140.1784,483.2599 a 31.76,39.3257 -30.266 0 1 -7.6102,49.9729 31.76,39.3257 -30.266 1 1 7.6102,-49.9729 z" />
    <path
       id="path15"
       style="fill:#4d4d4d;fill-rule:evenodd;stroke:#000000;stroke-width:0.3861;stroke-linecap:butt;stroke-linejoin:miter;stroke-dasharray:none"
       d="m 119.7244,499.4122 a 15.564,19.272 -30.266 0 1 -3.7292,24.4897 15.564,19.272 -30.266 1 1 3.7292,-24.4897 z" />
    <path
       id="path17"
       style="fill:#000000;fill-rule:evenodd"
       d="m 331.6322,144.6821 c -14.2757,-2.7674 -25.6512,-18.2139 -33.6207,-31.2527 -0.7452,0.1332 -1.4768,0.1861 -2.222,0.2796 -0.3658,0.6381 -0.7418,1.3031 -1.0888,1.939 9.2999,12.6393 22.0591,27.5138 36.9336,29.0307 z" />
    <path
       id="path19"
       style="fill:#000000;fill-rule:evenodd"
       d="m 188.6605,118.5785 c 14.1297,-0.1331 35.5366,1.7431 56.5048,2.2088 19.4116,0.4392 38.7297,-0.3193 51.3557,-5.1888 0.7316,-0.878 1.4102,-1.7696 1.9958,-2.6608 -1.0644,0 -2.1289,-0.1728 -3.2062,-0.306 -11.8279,5.109 -30.5741,6.4129 -50.1321,6.4927 -20.8883,0.1332 -42.402,-1.2241 -56.518,-0.5322 z" />
    <path
       id="path21"
       style="fill:none;stroke:#000000;stroke-width:4.1443;stroke-linecap:butt;stroke-linejoin:miter;stroke-dasharray:none"
       d="M 334.2903,497.9455 C 276.0149,658.0492 -32.5211,595.2594 56.2049,367.0187" />
    <path
       id="path23"
       style="fill:#000000;fill-rule:evenodd"
       d="m 333.7277,499.4646 c -0.4241,-0.7333 -0.8572,-1.4491 -1.3077,-2.1472 5.6906,-12.8832 6.3621,-29.9545 6.4857,-43.9066 1.2107,13.5898 1.9883,31.2975 -2.7127,45.3556 -0.8218,0.2563 -1.6436,0.495 -2.4653,0.6982 z" />
    <path
       id="path25"
       style="fill:#000000;fill-rule:evenodd"
       d="m 607.0621,266.6997 c -0.813,0 -1.6169,0 -2.4299,-0.0884 -6.0486,-9.3328 -11.1668,-19.3552 -15.1367,-29.7665 5.0729,9.7778 11.224,19.0144 18.2429,27.4988 l -0.6803,2.315 z" />
    <path
       id="path27"
       style="fill:#666666;fill-rule:evenodd;stroke:#000000;stroke-width:0.7892;stroke-linecap:butt;stroke-linejoin:miter;stroke-dasharray:none"
       d="m 585.4002,482.4404 a 31.76,39.3257 30.266 0 0 7.6102,49.9729 31.76,39.3257 30.266 1 0 -7.6102,-49.9729 z" />
    <path
       id="path29"
       style="fill:#4d4d4d;fill-rule:evenodd;stroke:#000000;stroke-width:0.3861;stroke-linecap:butt;stroke-linejoin:miter;stroke-dasharray:none"
       d="m 605.8542,498.5928 a 15.564,19.272 30.266 0 0 3.7291,24.4896 15.564,19.272 30.266 1 0 -3.7291,-24.4896 z" />
    <path
       id="path31"
       style="fill:#000000;fill-rule:evenodd"
       d="m 393.9464,143.8627 c 14.2757,-2.7675 25.6512,-18.214 33.6207,-31.2528 0.7452,0.1332 1.4768,0.1861 2.222,0.2796 0.3658,0.6381 0.7418,1.3031 1.0888,1.939 -9.2999,12.6393 -22.0591,27.5138 -36.9336,29.0307 z" />
    <path
       id="path33"
       style="fill:none;stroke:#000000;stroke-width:4.1443;stroke-linecap:butt;stroke-linejoin:miter;stroke-dasharray:none"
       d="m 391.2883,497.126 c 58.2753,160.1037 366.8113,97.3139 278.0854,-130.9268" />
    <path
       id="path35"
       style="fill:#000000;fill-rule:evenodd"
       d="m 391.8736,498.7052 c 0.4241,-0.7333 0.8572,-1.449 1.3076,-2.1472 -5.6906,-12.8832 -6.3621,-29.9545 -6.4857,-43.9066 -1.2107,13.5898 -1.9882,31.2975 2.7128,45.3557 0.8218,0.2562 1.6435,0.4949 2.4653,0.6981 z" />
    <path
       id="path37"
       style="fill:#000000;fill-rule:evenodd"
       d="m 536.916,117.7556 c -14.1297,-0.1331 -35.5367,1.7431 -56.5049,2.2088 -19.4115,0.4392 -38.7296,-0.3193 -51.3557,-5.1888 -0.7316,-0.878 -1.4102,-1.7696 -1.9958,-2.6608 1.0645,0 2.129,-0.1728 3.2062,-0.306 11.828,5.109 30.5741,6.4129 50.1321,6.4927 20.8884,0.1332 42.402,-1.2241 56.5181,-0.5322 z" />
  </g>
</svg>
