<svg xmlns="http://www.w3.org/2000/svg" viewBox="0 0 64 64">
    <path fill="#666" fill-rule="evenodd" stroke="#000" stroke-linecap="round" stroke-linejoin="round" stroke-width=".76" d="M58.082 32.373c3.147 2.95 2.818 3.188 3.628 4.577.502 1.606.666 2.008-.662 4.322-5.624 1.747-6.596.422-8.247.74-1.47.224-7.097-1.38-8.63-2.56-1.945-1.603-1.727-3.332-1.617-4.724 1.472-5.144 4.642-4.34 6.982-6.389 2.681 1.875 4.253.885 8.546 4.034z" paint-order="markers fill stroke"/>
    <path fill="#333" fill-rule="evenodd" stroke="#000" stroke-width=".747" d="M47.344 42.983c-2.066-1.553-5.05-2.937-4.233-6.21 1.36-5.443 2.897-4.49 6.559-6.528 6.787 2.791 10.385 4.907 11.307 9.202.515 2.401-1.756 1.03-3.248 3.24-.793.075-1.878.008-3.696-.552z"/>
    <path fill="#333" fill-rule="evenodd" stroke="#000" stroke-linecap="round" stroke-linejoin="round" stroke-width=".528" d="M50.8 30.949c.934.742.61 1.403.12 1.657-.542.219-1.56.318-2.405-.068-.549-.49-.61-1.04-.111-1.524.77-.415 1.647-.345 2.396-.065z" paint-order="markers fill stroke"/>
    <g stroke-width=".929" transform="matrix(1.51729 0 0 1.5319 -99.49 -1511.114)">
        <ellipse cx="35.004" cy="1019.856" fill="#4d4d4d" stroke="#000" stroke-linecap="round" stroke-linejoin="round" rx="3.286" ry="5.159" transform="matrix(.99381 -.11108 .06343 .99799 0 0)"/>
        <ellipse cx="35.004" cy="1019.856" fill="#333" stroke="#000" stroke-linecap="round" stroke-linejoin="round" rx=".835" ry="1.311" transform="matrix(.99381 -.11108 .06343 .99799 0 0)"/>
        <path d="M99.35 1012.617l.125-.025a3.613 3.613 0 0 1-.045-.638c0-.245.016-.526.045-.826.03-.297.069-.58.11-.818a4.22 4.22 0 0 1 .145-.628c-.04.113-.107.297-.194.617-.064.235-.13.513-.187.81a8.85 8.85 0 0 0-.123.835c-.031.334-.024.554-.001.69 0 .001.125-.018.126-.017zm.597.246l.084.053c.189-.3.457-.65.952-.949a4.438 4.438 0 0 1 1.25-.482c-.266.059-.81.16-1.297.395-.535.258-.871.61-1.073.93zm.256 1.713l-.04.133c.075.024.194.064.38.188.14.094.295.22.474.384.33.301.97.964 1.149 1.155-.25-.267-.685-.823-1.049-1.25a4.93 4.93 0 0 0-.436-.464c-.181-.163-.324-.243-.437-.278l-.04.132zm-.666.587c0 .011-.121.04-.122.05a2.104 2.104 0 0 1-.02.188 3.158 3.158 0 0 1-.065.307c-.053.208-.133.45-.236.704-.1.25-.212.48-.319.666-.06.106-.117.192-.168.262a.972.972 0 0 1-.165.181 1.45 1.45 0 0 0 .179-.17 2.94 2.94 0 0 0 .196-.246 5.44 5.44 0 0 0 .39-.64c.13-.246.238-.488.314-.698a2.95 2.95 0 0 0 .098-.321c.022-.09.032-.162.036-.217 0-.013-.118-.055-.118-.066zm-.857-1.536l.02-.098c-.34-.066-.737-.066-1.246.018-.456.075-.881.17-1.1.184.219-.014.656-.06 1.11-.084a4.46 4.46 0 0 1 1.197.08l.02-.099zm.156 1.078l-.071-.098c-.099.067-.217.193-.371.42-.117.17-.235.37-.361.588-.129.222-.239.416-.35.595-.145.235-.246.364-.323.434.082-.075.187-.18.363-.407.132-.17.258-.346.411-.556.15-.206.284-.385.414-.537.174-.204.281-.288.353-.337zm.125-1.849l.091-.102c-.28-.25-.515-.492-1.028-1.13a32.837 32.837 0 0 0-1.047-1.255c.262.287.511.677.937 1.334.415.64.693 1.019.956 1.254z"/>
    </g>
    <path fill="#016c62" fill-rule="evenodd" d="M45.339 54.342c.255.042 1.52-.326 1.775-.324.523-.036.97-.08 1.468-.246.437-.096 1.411-.396 1.843-.512.644-.157 1.312-.465 1.905-.758.372-.175 1.31-.809 1.636-1.06.24-.096 1.337-.632 1.458-.838.056.185 2.273-1.206 2.08-1.121.336.118-3.057 4.285-4.174 4.453-.41.479-2.404 1.678-3.148 1.829-.47.129-1.423.416-1.9.518-.373.088-4.143.894-4.528.924-.732.406-5.898-.768-6.074-.878 1.93-.192 5.363-.803 4.678-1.912 1.644-.05 1.675.005 2.981-.075z" paint-order="stroke fill markers"/>
    <path fill="#ff8080" stroke="#000" stroke-linecap="round" stroke-miterlimit="10" stroke-width=".711" d="M25.142 49.286c-9.509-10.769-4.239-24.531-12.311-31.75-5.254-.61-6.974-3.273-7.894-4.498-3.27-1.95-3.428-3.392-3.184-5.045.729-2.6 5.467-1.168 10.325-.357 3.431.339 4.136.209 6.687.57 1.195.186 2.505.707 4.333 2.164 2.949.973 5.176 2.209 7.135 6.814 3.075 3.485 3.647 5.193 4.546 9.016 2.771 2.21 6.641 8.571 7.556 10.13-.075-.697.01-.263-.075-.697 5.114-5.122 9.836-3.61 13.048-1.505 2.086 1.876 4.116 2.87 5.354 7.09-1.237 8.725-6.104 12.46-10.666 14.788-6.766 2.46-10.213.88-13.32.188-2.398-.633-8.069-2.772-11.534-6.91z" paint-order="markers fill stroke"/>
    <path fill="#ff2a2a" fill-rule="evenodd" d="M42.653 35.65c1.848-2.299 6.286-3.709 8.657-2.985 1.41.275 4.509 1.802 5.63 3.09.994.524 3.088 3.812 3.319 5.26.245.358-3.864 3.526-4.39 3.712.355-.67.457-.97.168-1.44-.01-.57-.519-1.216-1.245-1.238-1.158-.688-2.74-1.149-3.083-1.524.15-2.89-1.793-3.97-4.523-3.757-1.717-1.03-3.833-1.668-4.533-1.117z" paint-order="stroke fill markers"/>
    <path fill="#ffd5d5" fill-rule="evenodd" stroke="#fff" stroke-linecap="round" stroke-width=".02" d="M17.657 17.316c1.823.941 4.447 2.828 6.115 5.118 2.487 3.615 3.735 7.633 4.479 11.726.604 2.418 1.22 4.839 2.138 7.163 1.381 4.545 7.798 10.484 7.684 10.79-3.265.14-7.863-5.821-9.237-9.263-.782-2.038-1.347-3.771-2.058-6.706-1.583-8.587-3.545-11.665-6.195-15.483-.576-.739-1.804-2.091-2.926-3.345z" paint-order="stroke fill markers"/>
    <path fill="#ffd5d5" fill-rule="evenodd" d="M18.592 9.706a7.358 7.358 0 0 1 4.082 2.845c-3.51-1.755-3.602-1.86-8.967-2.92 1.636-.028 2.833-.283 4.885.075zm8.014 3.644c1.368 1.407 1.882 1.865 2.257 3.773-1.092-.677-1.922-1.612-2.818-2.418-1.141-1.172-1.79-2.008-2.724-3.274.89.381 2.441 1.281 3.285 1.92z" paint-order="stroke fill markers"/>
    <path fill="#f55" fill-rule="evenodd" stroke="#000" stroke-linecap="round" stroke-width=".539" d="M12.89 17.448c-.438.006-2.669-.623-3.118-.9-.168.657-.379 2.947-.226 3.62.186.82.231 1.257.373 1.81.199.768.206 1.07.305 1.944.08.69-.157 2.29-.394 2.615-.581.793-1.014.48-1.325-.162-.715-1.473-.17-2.067-.121-3.407.053-1.448.255-1.503-.038-3.269-.283-1.71-.52-2.666-.662-3.745-.821-.551-1.04-1.184-1.72-1.772"/>
    <path fill="#faa" fill-rule="evenodd" d="M30.66 51.795c-1.756-.765-2.208-1.711-3.067-2.396-4.479-4.616-7.828-9.264-7.737-17.11-.373-4.351-1.872-9.574-3.277-12.152 2.972 1.07 5.375 6.996 5.694 8.172.722 1.943 1.352 4.878 1.615 6.247.448 2.592.736 3.468 1.407 5.46 1.264 3.143 3.12 5.896 5.117 8.264.602.975 4.235 3.758 3.817 3.876-1.011.456-2.465.005-3.57-.363z" paint-order="stroke fill markers"/>
    <path fill="#ff8080" d="M19.67 22.25c.334.672.746 1.505.817 1.991a2.177 2.177 0 0 1-.299 1.403c-.241.392-.72.88-.877 1.143-.16.263-.19.499-.206.748-.018.25-.027.619.074.8.1.183.342.412.55.518.21.106.495.162.67.083.174-.078.348-.331.434-.557a2.177 2.177 0 0 0 .117-.806c-.003-.32-.059-.816.049-1.116.107-.3.538-.865.629-.878.09-.013.209.039.327.091"/>
    <path fill="#ffd5d5" fill-rule="evenodd" d="M31.654 21.38c.623 1.073 1.044 2.106 1.253 3.29-1.362-1.326-2.377-2.837-3.752-5.985 1.4.97 1.843 1.783 2.5 2.695zm7.883 16.937c1.662 1.366 3.067 1.873 4.475 1.94.461-1.05 1.388-1.582 1.832-1.706 2.073-.499 2.854 1.415 1.627 2.51-.384.163-1.562.406-2.1.228-1.641-.21-2.587-.505-3.895-1.158-.929-.603-1.161-.824-1.94-1.814z" paint-order="stroke fill markers"/>
    <path fill="#ffd5d5" fill-rule="evenodd" stroke="#fff" stroke-linecap="round" stroke-width=".02" d="M9.342 24.342c-.02.34-.051.705-.122.988-.064.256-.026.559-.292.578-.114-.151-.162-.494-.178-.705-.042-.448-.069-.85.008-1.256.076-.278.158-.441.301-.499.406.259.26.584.283.894z" paint-order="stroke fill markers"/>
    <path fill="none" stroke="#f55" stroke-linecap="round" stroke-width=".539" d="M51.73 40.276c-1.537.591-2.074.569-3.634.826-1.662.103-6.469.47-2.874-3.15 1.328-.984 2.266-1.585 4.805-1.954 5.064-.707 4.126 1.927 3.932 2.513-.843 1.033-.875 1.032-2.23 1.765z"/>
    <path fill="#f55" stroke="#000" stroke-linecap="round" stroke-width=".518" d="M33.806 55.11c.325.676.673 1.4.917 1.8.243.399.521.66.733.65.21-.01.559-.118.859-.275.3-.157.594-.376.799-.546a5.51 5.51 0 0 0 .45-.423" paint-order="markers fill stroke"/>
    <path fill="#f55" fill-rule="evenodd" d="M36.752 54.276c.126.024 4.37.028 4.493.056.1.011 6.09.064 6.188.083 1.086.482.356.805-.826 1.252-.606.085-3.127.116-3.459.093-.696-.038-4.49.07-4.888-.247.237-.35-3.18-1.19-2.724-1.238z" paint-order="markers fill stroke"/>
    <path fill="#f55" fill-rule="evenodd" d="M43.877 56.981c-2.18.1-4.271-.346-5.713-.79-.852-.254-.83.06-.95.104-.11.032-2.487-.448-3.062-1.05-.067-.217-.388-.507-.93-.802-2.916-1.586-4.63-2.636-6.907-6.055 3.311 3.564 7.216 5.58 8.915 5.89 1.135.025 4.009 1.22 4.27 1.232.567.115 5.156.185 5.285.25 3.375-.278 11.793-5.574 11.848-5.361-1.51 1.876-2.371 2.657-5.378 4.542-.566.356-3.42 2.017-7.377 2.04z" paint-order="markers fill stroke"/>
    <path fill="none" stroke="#f55" stroke-linecap="round" stroke-width=".518" d="M47.036 36.507c.02.196-.385.433-1.502 1.057-.967.43-3.372-1.13-2.428-2.355.668-.603 1.164-.635 1.236-.636"/>
    <path fill="none" stroke="#000" stroke-linecap="round" stroke-width=".539" d="M49.705 35.76c.052.088-.474.448-2.078.587-1.41-.514-4.873-1.845-2.617-2.772 2.431-.268 3.742 1.014 4.696 2.185zm5.927 5.135c-.512-.058-2.427-.1-1.96-1.618.464-.984.596-1.87 1.07-2.113.76-.349 1.428.615 1.776 1.092.765.854.875 1.056.655 1.882-.269.322-.232.726-1.54.757zm-1.53-6.98c2.07.564 2.444 1.875 2.13 2.578-.444.433-1.613.408-1.772.317-.768-.46-.801-.986-2.418-1.23-1.366-2.15.923-1.964 2.06-1.666z"/>
    <path fill="#faa" fill-rule="evenodd" d="M29.02 25.383c1.228 1.863 2.013 3.455 2.55 5.96.723 2.739.63 5.077 1.38 7.51.324 1.16.89 3.011 1.66 4.285.792 1.659 3.404 4.807 6.822 6.1.21.294.431.605.582.773.165.187.33.292.468.283a1.54 1.54 0 0 0 .523-.17c.178-.091.348-.211.466-.305.068-.053.105-.09.152-.133 1.142.136 2.306.188 2.907.16.918.021 2.348-.313 2.645-.41 1.37-.475 3.577-1.168 5.62-2.785 1.386-.955 2.578-1.858.932-1.668-.828.52-3.414 2.322-6.85 3.787-2.985.85-6.192.4-7.743-.273-.568-.246-2.675-1.432-3.17-1.923-2.427-1.904-4.082-5.767-4.681-8.69-.672-3.916-.83-4.603-1.29-6.746-.509-1.67-1.38-4.294-3.673-7.097.331.827-.688-.826.7 1.342z" paint-order="stroke fill markers"/>
    <path fill="none" stroke="#000" stroke-width=".518" d="M51.642 34.808c.021.245-.014.793-.236.827-.223.034-.736.07-1.033.023-.298-.047-.525-.166-.87-.402a14.034 14.034 0 0 1-1.105-.843c-.285-.248-.406-.415-.465-.603-.058-.188-.09-.491-.025-.702a.968.968 0 0 1 .595-.62c.351-.128.962-.206 1.462-.202.502.004.922.088 1.191.177.27.089.406.196.518.352.111.157.25.467.197.651-.053.186-.269.527-.29.71-.021.182.04.384.061.63z"/>
    <path fill="#ffd5d5" fill-rule="evenodd" d="M44.699 37.007c-.478-.12-.59-.224-.775-.349-.274-.222-.389-.373-.389-.71.711.253.94.68 1.164 1.06zm-24.547-9.716c-.022.336-.024.7-.288.743-.254-.037-.327-.197-.325-.523.05-.507.1-.662.304-.745.329.028.244.266.309.525z"/>
    <path fill="#f55" fill-rule="evenodd" d="M19.673 15.645c1.412.806 3.626 2.515 5.022 4.087 1.856 2.045 2.902 3.665 4.308 5.938 1.229 1.928 2.047 3.624 2.586 6.216.724 2.834.63 5.252 1.382 7.77.324 1.2 1.001 2.983 1.772 4.3.793 1.717 3.298 5.106 6.723 6.446.21.303.431.624.582.8.166.191.332.3.47.292a1.54 1.54 0 0 0 .522-.177c.18-.093.35-.217.468-.314.067-.056.105-.095.151-.14 1.144.143 2.31.195 2.912.168.92.022 2.352-.324 2.65-.425 1.372-.491 3.581-1.208 5.629-2.882 1.996-1.669 2.484-1.664 2.34 1.23l.265-.2c1.496-1.366 1.862-2.73 1.857-5.29.032-.088-1.157.249-2.657 1.748-.83.539-4.12 3.29-7.686 4.489-2.178.63-6.249.33-7.802-.365-.569-.254-2.57-1.449-3.066-1.958-2.431-1.969-4.369-5.75-4.97-8.773-.672-4.052-.736-4.813-1.197-7.031-.599-2.535-1.861-4.774-3.223-6.948-1.396-2.123-2.162-3.15-3.981-5.124-1.128-1.407-3.86-3.346-5.057-3.857z" paint-order="stroke fill markers"/>
    <path fill="#03000b" fill-rule="evenodd" d="M53.866 33.532c-1.158.404-1.505-.06-1.626.011-.289.112-.406.136-.363-.211.145-.197.017-.532-.024-.745.393.133 1.807.783 2.014.945zm-5.95.294c-1.16.402-1.05-.274-1.173-.205-.288.112-.99.022-.947-.324.145-.197.378-.523.337-.738.393.133 1.8-.173 2.006-.01z"/>
    <path fill="#ffd5d5" fill-rule="evenodd" d="M35.88 56.455c-.064.29-.445.273-.652.169-.145-.092-.444-.51-.277-.63.482-.356.92-.189.928.461z"/>
    <path fill="none" stroke="#000" stroke-linecap="round" stroke-width=".539" d="M58.87 39.12c-.28.127-.663.105-1.203-.184-.243-.094-1.78-.865-1.66-2.128.416-.519.9-1.042 1.67-.474.497.54 2.297 2.022 1.192 2.786z"/>
    <path fill="#03000b" fill-rule="evenodd" d="M57.718 36.22c-.576-.099-.996.026-1.118.097-.288.112-.413.055-.37-.292.145-.196.127-.858.085-1.072.393.134 1.196 1.104 1.403 1.267z"/>
    <path fill="none" stroke="#000" stroke-linecap="round" stroke-width=".345" d="M59.825 40.153c-.083.609-.533.79-1.058.614-.214-.09-.452-.45-.442-.863.178-.363.286-.525.602-.607.5.072.858.342.898.856z" paint-order="markers fill stroke"/>
    <path fill="none" stroke="#000" stroke-linecap="round" stroke-width=".345" d="M58.608 41.03c-.064.362-.353.783-.935.56-.174-.09-.477-.411-.66-.823-.003-.422.288-.623.615-.699.572.107 1.01.654.98.962zm-2.714.373c.093-.333.299-.573.76-.475.179.081.515.352.72.755.263.538-.067 1.063-.796.957-.576-.079-.697-.928-.683-1.237z" paint-order="markers fill stroke"/>
    <path fill="none" stroke="#f55" stroke-linecap="round" stroke-width=".355" d="M54.612 42.265c.095-.341.416-.656.892-.555.185.084.392.21.603.624.452.986-.196 1.285-.61 1.35-.677.054-1.033-.883-.886-1.419z" paint-order="markers fill stroke"/>
    <path fill="#f55" fill-rule="evenodd" d="M20.195 14.193c-.071.166-.144.339-.445.39a.596.596 0 0 1-.594-.235c.021.32.377.442.759.377.2-.034.385-.17.46-.459a.706.706 0 0 0-.176-.679c-.142-.14-.548-.23-.631-.162.146.055.403.117.514.27.07.097.142.342.112.498z" color="#000" font-family="sans-serif" font-weight="400" overflow="visible" paint-order="markers fill stroke" style="line-height:normal;font-variant-ligatures:normal;font-variant-position:normal;font-variant-caps:normal;font-variant-numeric:normal;font-variant-alternates:normal;font-feature-settings:normal;text-indent:0;text-align:start;text-decoration-line:none;text-decoration-style:solid;text-decoration-color:#000;text-transform:none;text-orientation:mixed;white-space:normal;shape-padding:0;isolation:auto;mix-blend-mode:normal;solid-color:#000;solid-opacity:1"/>
    <path fill="none" stroke="#000" stroke-width=".386" d="M54.75 41.993c.072-.217.588-.373.815-.255.189.088.4.274.575.664.146.307.186.866-.042.971" paint-order="markers fill stroke"/>
    <path fill="#f55" fill-rule="evenodd" d="M35.972 30.88c.427 1.235 2.427 4.692 2.952 5.204-.671-.392-2.31-3.098-3.19-4.99-.396-.757-1.159-3.137-1.257-4.71.314.248.453.389.56.493.111 1.267.682 3.412.935 4.003z" paint-order="markers fill stroke"/>
    <path fill="#ff2a2a" fill-rule="evenodd" d="M34.763 43.965c.794 1.717 3.3 5.106 6.723 6.445.21.303.432.625.583.8.165.192.33.3.47.292a1.54 1.54 0 0 0 .523-.176c.179-.094.347-.218.467-.315.067-.055.105-.095.152-.139 1.143.141 2.31.195 2.91.167.92.021 2.353-.323 2.65-.425 1.373-.49 3.582-1.208 5.63-2.881 1.996-1.67 2.486-1.665 2.34 1.23l.264-.2c1.498-1.366 1.863-2.73 1.857-5.29.033-.09-1.155.247-2.657 1.748-.83.538-4.12 3.289-7.685 4.488-2.177.63-6.249.331-7.801-.366-.57-.253-2.572-1.447-3.066-1.956-2.432-1.97-4.391-5.747-4.992-8.77-.064 1.018.457 3.128 1.633 5.348z" paint-order="stroke fill markers"/>
    <path fill="#faa" fill-rule="evenodd" d="M42.19 50.993c-.26-.384-.293-.694.23-.455.223.358.08.946-.23.455zm-4.657-21.338c1.46 1.921 2.978 4.279 4.263 6.408.15.253.527.838.632 1.144-.32-.232-.502-.543-.787-.761-1.611-1.684-1.886-1.614-3.108-3.016-.007-1.202-.292-3.04-2.572-5.034-.357-.667-.465-.98-.402-.995.701.715 1.35 1.484 1.974 2.254z" paint-order="markers fill stroke"/>
    <path fill="#ffd5d5" fill-rule="evenodd" d="M36.15 29.094c.716.618.9 1.03 1.354 1.75.313.643.708 1.948.595 2.298-.345-.191-.782-.758-.978-1.015a8.193 8.193 0 0 1-.612-1.148c-.296-.84-.406-1.606-.359-1.885z" paint-order="stroke fill markers"/>
    <path fill="#050000" fill-rule="evenodd" d="M53.79 36.206c.88.63.726 1.246.542 1.947-.333 1.386-1.68 1.917-2.579 2.418l-.046-.598c1.04-.528 1.843-.946 2.18-2.393.037-1.046-.989-1.302-1.58-1.379-.46-.023-1.616-.197-4.387.542a4.386 4.386 0 0 1-.68-.07 2.92 2.92 0 0 1-.507-.152c.023-.024.092-.165.148-.31a579.31 579.31 0 0 0-2.463-1.377c-.275.011-.861.251-1.174.627-.366-.086-.674.216-.674.216.16-.974.658-1.19 1.244-1.509.869.711 2.41 1.432 2.758 1.614.462.315.996.33 1.163.389 1.056-.231 2.69-.491 2.732-.496.232-.028 1.62-.595 3.323.53zm4.679 3.208c.065.08-.17.856-.237.776-.004.136-.889-.054-.912-.086-.069-.077-.03-1.197.039-1.12.117.042 1.044.367 1.11.43zm1.282.162c-.28-.047-.61-.261-.67-.457.118.042.283-.395.348-.33.138.254.38.512.32.787z" paint-order="markers fill stroke"/>
    <path fill="#faa" fill-rule="evenodd" d="M29.96 37.76c-.724-2.267-1.17-5.895-1.954-7.996-2.064-5.867-3.537-8.237-6.08-10.395 3.22 1.243 5.63 4.329 8.182 9.768.992 2.72 1.147 3.332 1.303 5.421.151 1.91-.605 4.487-1.45 3.203z" paint-order="stroke fill markers"/>
    <path fill="#f55" fill-rule="evenodd" d="M13.325 16.32c-.513.282.354 1.1 1.24 2.061 1.588 1.663 2.695 4.365 3.098 5.854.187.674.838 2.665 1.192 5.451.413 3.258.947 8.79 2.932 12.164l.639 1.288c-.56-.687-.813-1.267-1.157-1.765-.97-1.505-1.28-2.7-1.798-5.2-.347-1.676-.599-3.443-.907-5.63-.4-2.839-.852-4.663-.983-5.131-.475-1.702-1.293-3.682-1.43-3.973-.7-1.504-1.4-2.348-1.436-2.39-.39-.46-1.024-1.226-1.75-1.847-.402-.031-.93-.199-1.134-.238a27.145 27.145 0 0 1-2.278-1.003c-.139-.2-2.638-1.182-2.855-1.404-.101-.143-.476-.428-.952-1.052.715-.395 2.2.511 3.543.998 1.946.704 3.83 1.663 4.036 1.816z" paint-order="markers fill stroke"/>
    <path fill="#ff2a2a" fill-rule="evenodd" d="M20.382 38.451c.422 1.789 2.13 5.005 3.22 6.74.703.965 4.382 5.305 6.308 6.81 1.278.82 2.843 1.791 4.955 2.251.837.208 1.72.298 4.325.378 2.809.086 3.198.465 5.393.738-1.763.152-3.842.185-5.376.082 1.046.399 2.35.379 3.073.47 2.505-.16 4.827-.04 7.506-1.012 3.49-1.551 4.77-2.169 6.538-4.002.071-.075.152-.19.223-.272.299-.349.587-.722.957-1.152.271-.35.665-.993.988-1.695.449-.795.793-1.613 1.192-2.83.363-1.105.767-3.07.605-4.038-.367-1.468-3.49 3.065-5.185 4.446-2.738 2.064-5.45 4.29-9.16 4.354-1.675.096-2.982-.073-4.54-.517-1.973-.87-3.35-1.81-5.182-3.788.854 1.65 2.335 3.75 4.94 4.712 1.37.407 2.489.854 4.717.758 3.77.188 7.587-2 10.24-4.397 1.347-1.195 1.555.053 1.336 1.504l-.23-.377c.015.48-.48 1.713-1.448 2.37-1.501 1.316-2.93 2.043-4.774 2.922-1.23.43-1.178.53-3.56 1.043-1.59.197-1.879.051-4.048-.01a78.307 78.307 0 0 0-5.285-.11c-2.698-.069-4.884-.404-7.156-1.621-1.697-.731-6.315-5.982-7.129-7.294-1.147-1.395-2.733-4.84-3.443-6.463z" paint-order="stroke fill markers"/>
    <path fill-rule="evenodd" d="M59.21 43.58c-1.545.798-1.711.46-2.92 1.19-1.595 1.144-3.48 2.838-5.487 3.569 2.447-1.553 3.933-2.583 5.142-3.79.883-.768 2.593-1.035 2.974-1.414 1.185-1.267 1.253-2.072 1.284-2.883l.453 1.622c-.292.836-.449 1.09-1.445 1.705z" paint-order="markers fill stroke"/>
    <path fill="#ff8080" d="M31.46 33.691c.023.507.048 1.053-.062 1.676-.109.622-.35 1.394-.566 1.956-.213.563-.416.941-.55 1.302-.135.36-.208.697-.294 1.081-.085.384-.166.742-.272 1.059-.107.318-.248.612-.367.98-.12.368-.22.807-.21 1.192.008.384.216.907.422.97.206.063.427.012.677-.225.25-.237.348-.54.363-1.027.015-.489-.09-1.038-.087-1.47.004-.433.137-.782.308-1.116.172-.333.4-.685.533-.99.134-.303.203-.646.315-.846.112-.2.284-.35.456-.501"/>
    <path fill="#f55" d="M31.273 35.346c-.107.608-.346 1.377-.558 1.933-.212.555-.413.929-.553 1.301-.139.37-.212.715-.298 1.1a10.81 10.81 0 0 1-.269 1.045c-.102.308-.244.606-.367.982-.121.376-.226.825-.216 1.234.005.213.064.448.148.65.043.1.093.193.15.269a.431.431 0 0 0 .215.166c.249.076.53.002.8-.254.278-.262.387-.61.403-1.113.015-.509-.092-1.063-.088-1.473.003-.407.126-.734.294-1.06.167-.325.318-.689.538-.996.15-.21.27-.557.529-.569.252-.01.468.363.562.505.096-.115-.302-.696-.614-.71-.326-.017-.51.415-.709.675-.225.295-.352.64-.53.982-.175.341-.318.713-.323 1.17-.004.454.103 1 .088 1.468-.014.473-.1.726-.322.939-.231.216-.392.247-.555.197a.249.249 0 0 1-.088-.079 1.035 1.035 0 0 1-.118-.215 1.654 1.654 0 0 1-.128-.558c-.008-.361.088-.792.204-1.15.118-.36.258-.652.368-.978.108-.327.19-.69.275-1.074a7.684 7.684 0 0 1 .29-1.065c.13-.35.332-.73.55-1.299.218-.569.459-1.344.57-1.98.113-.639.047-1.48-.108-1.746a10.562 10.562 0 0 1-.139 1.703z" color="#000" font-family="sans-serif" font-weight="400" overflow="visible" style="line-height:normal;font-variant-ligatures:normal;font-variant-position:normal;font-variant-caps:normal;font-variant-numeric:normal;font-variant-alternates:normal;font-feature-settings:normal;text-indent:0;text-align:start;text-decoration-line:none;text-decoration-style:solid;text-decoration-color:#000;text-transform:none;text-orientation:mixed;white-space:normal;shape-padding:0;isolation:auto;mix-blend-mode:normal;solid-color:#000;solid-opacity:1"/>
    <path fill="#ffd5d5" fill-rule="evenodd" d="M29.555 43.09c-.15-.39.036-.883.273-1.098.283.737-.02 1.242-.273 1.097zm.843-3.463c-.083-.349.268-1.052.41-1.238.118.334-.234.959-.411 1.238z" paint-order="markers fill stroke"/>
    <path fill-rule="evenodd" d="M55.056 50.865c-1.423 1.1-3.365 2.189-5.188 2.459 2.686-.96 4.664-2.497 4.717-2.543.754-.639 2.439-1.648 2.577-3.437.062.027.242.841-.085 1.438-.31.564-.916 1.32-2.021 2.083z" paint-order="markers fill stroke"/>
    <path fill="#ff8080" stroke="#ff2a2a" stroke-linecap="round" stroke-width=".286" d="M51.973 49.497c.101.094.209.192.29.334.081.14.145.329.173.519.028.188.02.365-.018.565-.038.199-.109.431-.113.642-.005.21.047.474.142.678.096.204.325.506.446.54.12.032.358.005.459-.087.101-.093.181-.256.208-.466a2.138 2.138 0 0 0-.064-.722c-.06-.256-.171-.587-.17-.785 0-.199.076-.392.127-.614.05-.222.083-.496.075-.707-.009-.21-.078-.462-.07-.539.006-.077.048-.129.091-.181"/>
    <path fill="#ffd5d5" fill-rule="evenodd" d="M52.82 50.094c-.212-.066-.323-.366-.298-.548.499.001.427.513.298.548zm.086 2.098c-.182-.129-.328-.449-.123-.614.442.075.317.71.124.614z" paint-order="markers fill stroke"/>
    <path fill="#ff2a2a" fill-rule="evenodd" d="M10.156 14.35c1.078.458 4.124 1.617 4.468 2.467-.47-.025-3.116-1.337-4.286-1.854a8.697 8.697 0 0 0-.361-.153c-.843-.325-3.81-1.343-4.23-1.305-.251-.277-.322-.397-.56-.754.591.238 3.891 1.141 4.97 1.598z" paint-order="markers fill stroke"/>
    <path fill="#ffd5d5" fill-rule="evenodd" stroke="#fff" stroke-linecap="round" stroke-width=".013" d="M8.517 17.32c-.33-.232-.243-.719-.063-.84.257-.02.267.812.064.84z" paint-order="stroke fill markers"/>
    <path fill="#faa" fill-rule="evenodd" d="M9.502 8.57c-1.465-.598-2.857-1.008-4.093-1.145-1.744-.193-3.004.078-3.206 1.087-.048-1.328 1.145-1.658 2.28-1.67 1.595-.016 3.319.387 4.496.577.868.334 2.422 1.233 3.227 1.55-.03.144-1.13.362-1.655.133z" paint-order="markers fill stroke"/>
    <path fill="#faa" fill-rule="evenodd" d="M32.298 20.544c.596 1.004.988 1.59 1.27 3.529-.502-1.548-.543-1.829-1.3-3.065-1.154-1.689-1.94-2.53-2.689-3.13 1.34.411 2.21 1.814 2.719 2.667zM29.4 16.608c-.55-1.335-1.47-2.543-2.273-3.209-1.245-1.035-2.597-1.986-4.013-2.257-1.107-.557-2.17-1.344-3.572-1.822-2.19-.727-4.567-.106-8.417-.772-.768-.105-2.167-.945-2.235-1.138 1.772.28 2.8.574 4.58.687 2.437.155 3.686.225 5.421.469 2.513.524 3.92 2.038 4.051 2.107 4.03.985 5.912 3.754 6.811 6.345.118.302-.115.148-.353-.41z" paint-order="markers fill stroke"/>
    <path fill="#f55" fill-rule="evenodd" d="M9.986 9.04c-3.36-1.592-7.44-2.057-7.79-.16-.206-2.574 5.344-1.226 7.019-.484.592.328 1.593.746 2.46.987-.03.146-1.163-.113-1.689-.341zm.752-.59c3.828.66 6.436.145 8.168.661 2.176.469 3.983 1.7 4.621 2.896.989 1.721 4.675 5.304 5.313 5.39.64.088 2.277 1.938 3.315 3.682.596 1.003 2.052 4.147 2.113 6.92-1.168-4.15-1.951-5.933-2.493-6.809-1.276-2.063-2.532-3.237-2.868-3.265-.463-.038-1.457-.95-2.132-1.53-1.18-1.056-3.255-3.08-3.734-4.151-.61-1.136-2.085-2.103-3.486-2.58-2.19-.729-3.558-.385-6.946-.616-.769-.104-1.804-.405-1.871-.597z" paint-order="markers fill stroke"/>
    <path fill="#faa" fill-rule="evenodd" d="M19.306 16.251c-1.254-.813-2.486-1.828-4.09-3.376-1.23-1.188-3.123-2.09-5.414-2.775 2.092.146 4.015.594 5.434 1.857 1.47 1.305 2.883 2.771 4.07 4.294z" paint-order="stroke fill markers"/>
    <path fill="#ffd5d5" fill-rule="evenodd" d="M19.707 14.083c-.142.121-.449.05-.27-.183.281-.215.46.021.27.183zm1.694.63c-.142.12-.448.05-.269-.183.281-.215.46.02.27.183zm1.727 1.32c-.154.137-.485.056-.291-.209.304-.245.496.023.291.208zm1.923 1.472c-.153.162-.485.067-.291-.247.304-.29.496.028.291.247zm1.734 1.923c-.153.162-.485.066-.29-.248.303-.289.495.028.29.248zm1.54 2.128c-.195.214-.609.088-.367-.323.381-.38.623.036.366.323zm1.563 2.407c-.193.213-.608.087-.366-.323.38-.38.622.036.366.323zm1.39 2.39c-.246.182-.687-.126-.356-.527.48-.312.683.279.355.527zm.893 2.297c-.344-.094-.69-.678-.16-.654.65.213.619.776.16.654zm.91 2.523c-.336-.118-.637-.717-.112-.653.634.257.561.808.112.654zm.474 2.524c-.336-.119-.637-.719-.112-.654.633.258.561.808.112.654zm1.004 2.053c-.336-.118-.637-.718-.112-.654.634.258.561.809.112.654zm.494 2.267c-.296-.124-.562-.754-.1-.686.56.27.496.848.1.686zm.852 2.327c-.335-.118-.636-.718-.111-.654.634.257.561.808.112.654zm1.49 1.895c-.335-.119-.636-.719-.111-.654.634.257.561.807.112.654zm1.38 1.973c-.336-.118-.636-.718-.111-.654.634.258.56.809.112.654zm1.688 1.478c-.152-.268.181-.758.534-.398.256.523-.326.756-.534.398zm2.172 1.015c-.153-.269.18-.758.533-.4.255.524-.325.756-.533.4zm2.875.24c-.066-.29.304-.707.514-.293.096.558-.42.68-.513.292zm2.985-.5c-.067-.29.303-.707.513-.293.096.558-.42.679-.513.293zm2.56-.83c-.063-.232.285-.567.482-.234.09.448-.394.544-.482.234zm2.18-1.112c-.063-.232.285-.567.483-.234.09.448-.395.545-.483.234zm1.655-1.91c-.05-.194.221-.475.375-.196.07.374-.307.456-.375.196z" paint-order="markers fill stroke"/>
    <path fill="#ffd5d5" fill-rule="evenodd" d="M17.06 16.879c-.368.123-1.398-.576-1.663-1.06a2.444 2.444 0 0 1 1.663 1.06z"/>
    <path fill="#f55" fill-rule="evenodd" d="M22.06 14.984c-.102.186-.21.38-.554.438-.347.058-.56-.128-.632-.265-.022.36.357.498.795.425.23-.039.457-.192.583-.516.127-.322.043-.604-.096-.763-.139-.16-.579-.258-.683-.182.156.062.435.131.537.303a.85.85 0 0 1 .05.56zm1.974 1.286c-.093.192-.187.395-.581.455-.395.06-.673-.134-.778-.276.028.374.493.517.993.441a.714.714 0 0 0 .601-.535.766.766 0 0 0-.23-.793c-.186-.166-.717-.268-.825-.19.192.065.528.136.672.315.093.114.187.4.148.583zm1.848 1.525c-.09.216-.183.441-.57.508a.758.758 0 0 1-.761-.307c.029.417.483.578.973.493.256-.045.493-.224.59-.598a.933.933 0 0 0-.227-.885c-.182-.186-.701-.301-.808-.214.187.073.517.153.658.352.091.128.183.446.145.651zm.075 2.042c-.004.568.574.905 1.074.948.31.026.715-.145.948-.58a1.26 1.26 0 0 0 .03-1.165c-.15-.285-.708-.585-.86-.508.311.163.758.63.719.965-.088.736-.424 1.025-.909 1.008-.484-.017-.867-.431-1.003-.668zm1.51 2.18c-.004.568.587.906 1.1.949.316.027.73-.145.968-.582a1.142 1.142 0 0 0-.04-1.17c-.163-.236-.665-.534-.809-.51.276.147.706.687.694.993-.03.724-.398.992-.893.975-.497-.017-.882-.42-1.02-.657zm1.437 2.035c-.094.553.442 1.017.943 1.176a.995.995 0 0 0 1.057-.343c.304-.37.32-.819.213-1.132-.106-.311-.63-.735-.796-.695.251.205.62.773.56 1.069-.143.696-.57.915-1.061.784-.491-.13-.817-.597-.917-.859zm1.28 2.18c-.117.55.433 1.074.957 1.287a1.037 1.037 0 0 0 1.126-.24c.334-.343.368-.795.265-1.122-.102-.327-.638-.81-.815-.787.258.234.672.69.574 1.155-.146.696-.661.845-1.174.663-.513-.182-.835-.681-.931-.956zm3.153 3.464c.378-.296.407-.802.3-1.183-.107-.38-.679-1.02-.87-1.03 1.1 1.164.568 1.87.218 2.027-.792.355-1.564-.687-1.659-1.296-.105.27.25 1.172.7 1.447.449.275.915.346 1.312.035zm.865 2.49c.358-.318.356-.824.227-1.199-.128-.373-.739-.976-.93-.975 1.168 1.095.678 1.832.34 2.01-.77.403-1.603-.592-1.735-1.194-.088.274.32 1.155.785 1.401.465.248.935.292 1.313-.042zm.614 2.58c.346-.332.325-.839.18-1.206-.145-.37-.778-.946-.97-.938 1.213 1.046.753 1.804.422 1.995-.752.434-1.625-.526-1.782-1.12-.077.277.366 1.139.842 1.366.475.229.945.253 1.31-.096zm1.009 1.043c-.096-.247-.677-.853-.867-.837 1.247 1.004.438 1.592.238 1.703-.759.422-1.634-.46-1.81-1.05-.068.279.405 1.126.887 1.337.484.213.955.22 1.297-.132.31-.294.376-.713.256-1.021zm.588 2.094c-.096-.247-.677-.853-.868-.837 1.248 1.004.439 1.592.24 1.703-.76.422-1.635-.46-1.81-1.051-.07.28.404 1.127.886 1.338.484.213.954.22 1.297-.132.31-.295.376-.713.256-1.021zm1 2.326c-.096-.247-.676-.854-.867-.838 1.247 1.006.438 1.594.24 1.705-.76.421-1.636-.462-1.81-1.051-.069.28.403 1.126.885 1.338.484.211.955.22 1.298-.134.31-.294.377-.711.255-1.02zm1.32 1.918c-.105-.26-.736-.895-.945-.88 1.359 1.057.479 1.674.26 1.791-.826.443-1.78-.485-1.972-1.104-.075.293.44 1.184.966 1.406.528.222 1.041.23 1.415-.14.337-.31.41-.748.277-1.073zm1.366 1.975c-.107-.246-.755-.852-.968-.836 1.393 1.004.49 1.592.267 1.703-.848.421-1.825-.461-2.021-1.051-.075.28.45 1.127.991 1.34.539.21 1.065.218 1.447-.134.346-.295.42-.713.285-1.022zm.72.613c1.609.603.925 1.4.75 1.553-.713.623-1.88.087-2.24-.42.009.29.758.948 1.337.994.577.046 1.083-.1 1.346-.548.246-.382.196-.803-.002-1.034-.23-.347-.992-.622-1.19-.545zm2.43.917c1.755.501 1.093 1.39.92 1.565-.706.711-1.988.246-2.41-.256.032.303.882.93 1.498.93.617.002 1.142-.191 1.385-.682.23-.42.143-.858-.085-1.083-.273-.345-1.104-.57-1.309-.474zm2.629.278c1.825-.01 1.44 1.029 1.323 1.245-.48.88-1.84.794-2.386.43.116.281 1.108.645 1.7.474.592-.172 1.042-.505 1.138-1.045.102-.468-.104-.864-.386-1.015-.358-.254-1.22-.24-1.39-.089zm2.678-.29c1.763-.474 1.654.63 1.594.869-.24.973-1.578 1.233-2.198 1.02.183.243 1.234.344 1.764.028.529-.316.88-.753.835-1.3-.019-.477-.318-.808-.63-.884-.411-.155-1.24.08-1.365.267zm2.39-.903c1.697-.67 1.714.438 1.682.683-.128.994-1.029 1.296-1.501 1.313.092.162.699.151 1.188-.223.491-.374.79-.847.683-1.384-.072-.474-.407-.769-.725-.808-.427-.107-1.223.217-1.327.42zm1.695-1.14c1.633-.637 1.822.418 1.827.65.021.945-.852 1.232-1.334 1.248.122.153.738.144 1.182-.212.444-.356.677-.805.486-1.316-.15-.45-.537-.73-.869-.769-.452-.101-1.216.208-1.291.4z" color="#000" font-family="sans-serif" font-weight="400" overflow="visible" paint-order="markers fill stroke" style="line-height:normal;font-variant-ligatures:normal;font-variant-position:normal;font-variant-caps:normal;font-variant-numeric:normal;font-variant-alternates:normal;font-feature-settings:normal;text-indent:0;text-align:start;text-decoration-line:none;text-decoration-style:solid;text-decoration-color:#000;text-transform:none;text-orientation:mixed;white-space:normal;shape-padding:0;isolation:auto;mix-blend-mode:normal;solid-color:#000;solid-opacity:1"/>
    <path fill="#f55" d="M20.506 24.785c-.117.657-.702 1.302-1.236 1.844-.314.45-.523 1.176-.24 1.766a1.25 1.25 0 0 0 1.451.737c.681-.178.669-1.26.607-1.912-.138-.916.392-1.538 1.127-1.387-.424-.375-1.126.06-1.33.752-.184.63.28 1.729-.351 2.247-.64.38-1.396-.352-1.42-.862-.022-.537.027-.918.403-1.291.669-.595 1.255-1.446 1.201-2.199-.05-.82-.632-2.086-1.293-2.261.468.25 1.217 1.81 1.081 2.566z" color="#000" font-family="sans-serif" font-weight="400" overflow="visible" style="line-height:normal;font-variant-ligatures:normal;font-variant-position:normal;font-variant-caps:normal;font-variant-numeric:normal;font-variant-alternates:normal;font-feature-settings:normal;text-indent:0;text-align:start;text-decoration-line:none;text-decoration-style:solid;text-decoration-color:#000;text-transform:none;text-orientation:mixed;white-space:normal;shape-padding:0;isolation:auto;mix-blend-mode:normal;solid-color:#000;solid-opacity:1"/>
</svg>
