<?xml version="1.0" encoding="UTF-8" standalone="no"?>
<svg
   xmlns:dc="http://purl.org/dc/elements/1.1/"
   xmlns:cc="http://creativecommons.org/ns#"
   xmlns:rdf="http://www.w3.org/1999/02/22-rdf-syntax-ns#"
   xmlns:svg="http://www.w3.org/2000/svg"
   xmlns="http://www.w3.org/2000/svg"
   xmlns:sodipodi="http://sodipodi.sourceforge.net/DTD/sodipodi-0.dtd"
   xmlns:inkscape="http://www.inkscape.org/namespaces/inkscape"
   inkscape:version="1.0 (4035a4fb49, 2020-05-01)"
   sodipodi:docname="set_target.svg"
   viewBox="0 0 725.66931 725.66931"
   id="svg6"
   height=""
   width=""
   version="1.1">
  <metadata
     id="metadata12">
    <rdf:RDF>
      <cc:Work
         rdf:about="">
        <dc:format>image/svg+xml</dc:format>
        <dc:type
           rdf:resource="http://purl.org/dc/dcmitype/StillImage" />
        <dc:title />
      </cc:Work>
    </rdf:RDF>
  </metadata>
  <defs
     id="defs10" />
  <sodipodi:namedview
     inkscape:current-layer="svg6"
     inkscape:window-maximized="1"
     inkscape:window-y="-8"
     inkscape:window-x="-8"
     inkscape:cy="340.20399"
     inkscape:cx="362.83466"
     inkscape:zoom="0.79650605"
     showgrid="false"
     id="namedview8"
     inkscape:window-height="746"
     inkscape:window-width="1304"
     inkscape:pageshadow="2"
     inkscape:pageopacity="0"
     guidetolerance="10"
     gridtolerance="10"
     objecttolerance="10"
     borderopacity="1"
     bordercolor="#666666"
     pagecolor="#ffffff"
     inkscape:document-rotation="0" />
  <path
     d="m 242.90762,541.48103 32.4892,-19.3839 c 15.8345,26.6643 22.2506,52.5553 19.3384,77.7637 -2.9122,25.2084 -14.5155,48.005 -34.855,68.3446 -21.0221,21.022 -42.4084,33.8538 -64.2038,38.4497 -21.7502,4.6411 -44.1829,2.2293 -67.2982,-7.1443 -23.16041,-9.4187 -44.046413,-23.3882 -62.702213,-42.044 -20.3395,-20.3396 -34.2177,-41.9533 -41.5894,-64.8864 -7.3712,-22.9335 -7.8263,-45.5023 -1.365,-67.7076 6.4613,-22.2054 18.3372,-41.908 35.5371,-59.1079 19.5661,-19.5662 40.952503,-31.0329 64.204213,-34.3542 23.297,-3.3674 46.5491,1.3194 69.8009,14.1055 l -19.3844,31.3968 c -18.7011,-9.6918 -35.6736,-13.4687 -50.7351,-11.3299 -15.10681,2.0928 -29.166713,9.6918 -42.225913,22.751 -14.9706,14.9706 -23.9342,31.1237 -26.8012,48.3689 -2.8666,17.2456 -0.273,34.0364 7.7811,50.1895 8.0534,16.2444 18.519,30.8051 31.3964,43.6825 16.608303,16.6083 33.535613,28.712 50.735513,36.2653 17.2452,7.5986 33.9899,9.3279 50.3256,5.2784 16.3353,-4.0498 30.3956,-12.0127 42.2719,-23.889 14.4698,-14.4698 22.4779,-30.8507 24.1616,-49.1879 1.6381,-18.3828 -3.9586,-37.5395 -16.8817,-57.5608 z m 43.6373,-48.1871 c -26.1639,-26.164 -38.2676,-52.8283 -36.2661,-80.0387 1.6841,-22.6145 11.3307,-42.7266 28.8493,-60.2452 19.4296,-19.4296 41.7254,-28.9853 66.843,-28.621 25.0259,0.3639 48.8236,11.785 71.2564,34.2177 18.201,18.2011 29.7587,35.2189 34.7189,51.0994 4.9593,15.8805 5.0958,31.9428 0.4091,48.1872 -4.6412,16.1987 -13.1957,30.4864 -25.5267,42.8174 -19.8392,19.8392 -42.181,29.5314 -67.1164,29.0762 -24.9351,-0.4547 -49.3241,-12.6496 -73.1675,-36.493 z m 24.6168,-24.5255 c 18.1098,18.1098 35.628,27.7107 52.5097,28.7571 16.9725,1.0468 31.442,-4.4134 43.5004,-16.4718 11.9215,-11.9215 17.3364,-26.3457 16.2444,-43.3635 -1.1377,-16.9729 -10.966,-34.7185 -29.4857,-53.2382 -17.473,-17.4729 -34.7185,-26.71 -51.6454,-27.7111 -16.9722,-1.0464 -31.3964,4.3685 -43.227,16.1991 -12.0584,12.0584 -17.5642,26.4822 -16.5631,43.4092 1.0464,16.8816 10.6021,34.3546 28.6667,52.4192 z m 209.5387,-67.9355 -195.4784,-195.4784 38.768,-38.7679 184.6037,92.1419 c 17.1539,8.6001 29.8948,15.1523 38.2676,19.6117 -4.8689,-9.3283 -11.831,-23.2973 -20.8855,-41.8167 l -88.9119,-183.010803 34.6273,-34.6273 195.47834,195.478403 -24.8441,24.8442 -163.53604,-163.536 106.47564,220.5963 -23.297,23.297 -222.96214,-110.116 166.5391,166.539 z"
     style="opacity:0.3;fill:#ffffff;fill-opacity:1;fill-rule:evenodd;stroke:#ffffff;stroke-width:4;stroke-linecap:butt;stroke-linejoin:miter;stroke-dasharray:none"
     id="path2-0" />
  <path
     id="path4"
     style="fill:#ffffff;stroke:#ffffff;stroke-width:4;stroke-linecap:butt;stroke-linejoin:miter;stroke-dasharray:none;fill-opacity:1"
     d="m 189.432,233.8617 21.6822,-1.9488 c 1.0151,8.7703 3.4107,15.9573 7.187,21.6011 3.776,5.6032 9.623,10.1509 17.5408,13.6429 7.9177,3.4514 16.8505,5.1973 26.7579,5.1973 8.8109,0 16.5662,-1.2994 23.3064,-3.9385 6.7403,-2.6393 11.7346,-6.2532 15.0234,-10.8414 3.289,-4.5881 4.9538,-9.5825 4.9538,-14.9422 0,-5.4409 -1.5837,-10.1914 -4.7506,-14.2923 -3.1671,-4.0604 -8.405,-7.4713 -15.7138,-10.2728 -4.6693,-1.7867 -15.0234,-4.629 -31.0618,-8.4863 -16.0384,-3.8574 -27.2452,-7.471 -33.6606,-10.8817 -8.3236,-4.3852 -14.4955,-9.8263 -18.5558,-16.2822 -4.1009,-6.4559 -6.1311,-13.7239 -6.1311,-21.723 0,-8.8515 2.5172,-17.0941 7.5115,-24.7278 4.9944,-7.6739 12.2624,-13.4804 21.8855,-17.4594 9.5825,-3.9793 20.2612,-5.9689 31.9958,-5.9689 12.912,0 24.3215,2.071 34.1883,6.2529 9.8666,4.1417 17.4595,10.2728 22.7787,18.3938 5.3192,8.0801 8.1615,17.2565 8.5674,27.4887 l -22.1698,1.7053 c -1.1775,-11.0035 -5.1973,-19.3275 -12.0591,-24.9307 -6.8621,-5.6441 -17.013,-8.4456 -30.4124,-8.4456 -13.9677,0 -24.1591,2.558 -30.5339,7.674 -6.3748,5.1162 -9.5825,11.2878 -9.5825,18.5153 0,6.253 2.2739,11.4098 6.7807,15.4701 4.4666,4.0198 16.0387,8.2021 34.7976,12.4248 18.7588,4.2633 31.6304,7.9583 38.6141,11.1254 10.1103,4.6696 17.6221,10.5568 22.4538,17.7438 4.8319,7.1464 7.2275,15.3887 7.2275,24.7277 0,9.2982 -2.6391,17.9876 -7.9583,26.1893 -5.3192,8.2021 -12.9121,14.5769 -22.86,19.1245 -9.9479,4.5477 -21.1138,6.8213 -33.5792,6.8213 -15.7541,0 -28.9505,-2.3142 -39.5887,-6.9026 -10.6786,-4.5882 -19.0026,-11.4908 -25.0526,-20.7485 -6.0905,-9.2168 -9.2576,-19.652 -9.5822,-31.3055 z m 253.6106,15.1047 22.1698,2.9233 c -3.4515,12.8716 -9.9074,22.9006 -19.3275,30.0065 -9.42,7.1056 -21.4387,10.6786 -36.0966,10.6786 -18.434,0 -33.0514,-5.6846 -43.852,-17.0535 -10.8006,-11.3286 -16.2008,-27.2857 -16.2008,-47.7907 0,-21.1952 5.4408,-37.6804 16.3632,-49.3741 10.9222,-11.7346 25.0932,-17.5814 42.5121,-17.5814 16.8505,0 30.6153,5.7252 41.294,17.216 10.6786,11.4908 16.0384,27.6511 16.0384,48.4809 0,1.2586 -0.0406,3.1669 -0.1216,5.6843 h -94.1602 c 0.8119,13.8459 4.7101,24.4843 11.7752,31.8334 7.0242,7.3494 15.8354,11.0443 26.3517,11.0443 7.8364,0 14.536,-2.0707 20.0582,-6.2124 5.5627,-4.1417 9.9479,-10.76 13.1961,-19.8552 z m -70.1631,-34.3508 h 70.4069 c -0.934,-10.6382 -3.6544,-18.5965 -8.0801,-23.9157 -6.7808,-8.2425 -15.6325,-12.384 -26.4736,-12.384 -9.8263,0 -18.0689,3.2888 -24.7683,9.8666 -6.6592,6.5778 -10.3541,15.389 -11.0849,26.4331 z m 165.9475,56.1549 2.9234,18.9215 c -6.0095,1.2586 -11.4097,1.9083 -16.1198,1.9083 -7.7553,0 -13.7645,-1.2181 -18.0686,-3.695 -4.2633,-2.4769 -7.268,-5.6846 -9.0139,-9.7041 -1.7461,-4.0198 -2.5988,-12.4654 -2.5988,-25.3369 v -72.843 H 480.1139 V 163.455 h 15.8354 V 132.19 l 21.4387,-12.8713 v 44.1363 h 21.439 v 16.5663 h -21.439 v 74.061 c 0,6.1314 0.3657,10.0698 1.137,11.816 0.7308,1.7458 1.9491,3.1263 3.6544,4.1819 1.7054,1.0151 4.1415,1.5432 7.3086,1.5432 2.355,0 5.4816,-0.2843 9.339,-0.8529 z M 85.608,562.0618 V 408.0923 H 28.1129 v -20.4641 h 138.134 v 20.4641 H 108.752 v 153.9695 z m 157.3801,-15.8355 c -7.9586,6.7808 -15.6325,11.5313 -22.9819,14.3331 -7.3491,2.8018 -15.2263,4.1822 -23.6718,4.1822 -13.8867,0 -24.5654,-3.3701 -32.0364,-10.1508 -7.4712,-6.7402 -11.2067,-15.389 -11.2067,-25.9053 0,-6.1719 1.421,-11.8156 4.2227,-16.9319 2.8423,-5.116 6.5373,-9.1763 11.0849,-12.2621 4.5882,-3.0861 9.7044,-5.4411 15.4293,-7.0245 4.223,-1.0965 10.5976,-2.1521 19.084,-3.2077 17.297,-2.0302 30.0872,-4.5071 38.2487,-7.3494 0.0811,-2.9234 0.1219,-4.7911 0.1219,-5.5627 0,-8.6891 -2.0305,-14.8204 -6.0908,-18.3935 -5.4814,-4.8319 -13.6429,-7.2275 -24.4435,-7.2275 -10.1103,0 -17.5813,1.7867 -22.3727,5.3192 -4.8316,3.5326 -8.3642,9.7855 -10.6787,18.7994 l -20.9514,-2.9234 c 1.9083,-8.9733 5.0349,-16.2413 9.4201,-21.7635 4.3852,-5.5222 10.7192,-9.745 19.0023,-12.7497 8.2426,-2.9639 17.8657,-4.4662 28.7476,-4.4662 10.8006,0 19.6115,1.2585 26.3925,3.8165 6.7402,2.558 11.7343,5.7252 14.9015,9.5825 3.1671,3.8574 5.4003,8.7299 6.6997,14.6175 0.6902,3.6544 1.0556,10.2322 1.0556,19.6928 v 28.4224 c 0,19.8553 0.4467,32.402 1.3399,37.7209 0.8527,5.3193 2.6394,10.3947 5.2379,15.2672 h -22.4133 c -2.1521,-4.5071 -3.5325,-9.7855 -4.1414,-15.8355 z m -1.7053,-47.5064 c -7.7962,3.1672 -19.4899,5.847 -35.0819,8.0396 -8.8515,1.2586 -15.1044,2.6799 -18.7588,4.2633 -3.6544,1.5835 -6.4559,3.898 -8.4456,6.9027 -1.9896,3.0452 -3.0047,6.4154 -3.0047,10.1508 0,5.6441 2.1521,10.3947 6.4967,14.1707 4.3444,3.7763 10.6787,5.6846 19.0024,5.6846 8.2425,0 15.5919,-1.7864 22.0478,-5.4003 6.4154,-3.573 11.166,-8.486 14.1707,-14.6984 2.3145,-4.832 3.4515,-11.9376 3.4515,-21.3172 z m 54.3682,63.3419 v -126.44 h 19.2461 v 19.3677 c 4.913,-8.9733 9.4606,-14.9014 13.6429,-17.7437 4.1822,-2.8828 8.7704,-4.3038 13.7647,-4.3038 7.2275,0 14.5766,2.2736 22.0479,6.7807 l -7.6337,19.7739 c -5.197,-2.9233 -10.3944,-4.3852 -15.5917,-4.3852 -4.6695,0 -8.8517,1.4213 -12.5467,4.2228 -3.6947,2.8018 -6.334,6.6997 -7.9177,11.6941 -2.3956,7.5928 -3.5731,15.9165 -3.5731,24.9712 v 66.0623 z m 77.4315,10.4757 20.7079,2.9236 c 0.8527,6.4154 3.2887,11.0846 7.268,14.0488 5.3192,3.9385 12.5873,5.9281 21.8044,5.9281 9.9071,0 17.5813,-1.9896 22.9816,-5.9281 5.4003,-3.9384 9.0547,-9.5011 10.963,-16.607 1.0964,-4.3444 1.6243,-13.4805 1.5429,-27.4074 -9.3796,11.0441 -21.0328,16.5663 -35.0005,16.5663 -17.3784,0 -30.8588,-6.253 -40.36,-18.7997 -9.542,-12.5059 -14.2925,-27.5292 -14.2925,-45.0295 0,-12.0591 2.1926,-23.1845 6.5372,-33.3762 4.3447,-10.1914 10.6787,-18.0281 18.9618,-23.5908 8.2834,-5.5627 18.0281,-8.3236 29.2348,-8.3236 14.9015,0 27.2044,6.0905 36.8683,18.2715 v -15.5917 h 19.7334 v 109.1835 c 0,19.6926 -1.9897,33.6197 -6.0095,41.8218 -3.979,8.2018 -10.3538,14.6985 -19.0026,19.4491 -8.689,4.7505 -19.368,7.1464 -32.0363,7.1464 -15.0639,0 -27.2044,-3.3701 -36.462,-10.1512 -9.2982,-6.7402 -13.7648,-16.9316 -13.4399,-30.5339 z m 17.5407,-75.8478 c 0,16.5257 3.2891,28.5852 9.8669,36.178 6.6183,7.5929 14.8609,11.4095 24.7683,11.4095 9.8665,0 18.1091,-3.776 24.8088,-11.3284 6.6591,-7.5523 9.9884,-19.4085 9.9884,-35.5688 0,-15.4293 -3.4512,-27.0828 -10.3133,-34.9192 -6.8621,-7.8366 -15.1452,-11.7346 -24.8088,-11.7346 -9.542,0 -17.6221,3.8574 -24.3218,11.5722 -6.6589,7.7148 -9.9885,19.165 -9.9885,34.3913 z m 208.1348,24.4435 22.1697,2.9233 c -3.4514,12.8716 -9.9074,22.9006 -19.3274,30.0065 -9.4201,7.1056 -21.4388,10.6786 -36.0967,10.6786 -18.434,0 -33.0514,-5.6846 -43.852,-17.0535 -10.8005,-11.3286 -16.2008,-27.2857 -16.2008,-47.7907 0,-21.1952 5.4408,-37.6804 16.3632,-49.3741 10.9222,-11.7346 25.0932,-17.5813 42.5121,-17.5813 16.8505,0 30.6153,5.7251 41.294,17.2159 10.6786,11.4908 16.0384,27.6511 16.0384,48.4809 0,1.2586 -0.0405,3.1669 -0.1216,5.6843 h -94.1601 c 0.8118,13.8459 4.71,24.4843 11.7751,31.8334 7.0242,7.3494 15.8354,11.0444 26.3517,11.0444 7.8364,0 14.5361,-2.0708 20.0582,-6.2125 5.5627,-4.1417 9.9479,-10.76 13.1962,-19.8552 z m -70.1632,-34.3508 h 70.4069 c -0.934,-10.6382 -3.6544,-18.5964 -8.0801,-23.9157 -6.7808,-8.2425 -15.6325,-12.384 -26.4736,-12.384 -9.8263,0 -18.0689,3.2888 -24.7683,9.8666 -6.6592,6.5778 -10.3541,15.389 -11.0849,26.4331 z m 165.9475,56.1549 2.9234,18.9215 c -6.0094,1.2586 -11.4097,1.9083 -16.1198,1.9083 -7.7553,0 -13.7645,-1.2181 -18.0686,-3.695 -4.2633,-2.4769 -7.268,-5.6846 -9.0139,-9.7041 -1.7461,-4.0198 -2.5988,-12.4654 -2.5988,-25.3369 v -72.843 h -15.8354 v -16.5663 h 15.8354 v -31.265 l 21.4387,-12.8713 v 44.1363 h 21.439 v 16.5663 h -21.439 v 74.061 c 0,6.1314 0.3657,10.0698 1.137,11.816 0.7308,1.7458 1.9491,3.1263 3.6544,4.1819 1.7054,1.0151 4.1415,1.5432 7.3086,1.5432 2.355,0 5.4816,-0.2843 9.339,-0.8529 z" />
</svg>
