<?xml version="1.0" encoding="UTF-8" standalone="no"?>
<svg
   xmlns:dc="http://purl.org/dc/elements/1.1/"
   xmlns:cc="http://creativecommons.org/ns#"
   xmlns:rdf="http://www.w3.org/1999/02/22-rdf-syntax-ns#"
   xmlns:svg="http://www.w3.org/2000/svg"
   xmlns="http://www.w3.org/2000/svg"
   xmlns:sodipodi="http://sodipodi.sourceforge.net/DTD/sodipodi-0.dtd"
   xmlns:inkscape="http://www.inkscape.org/namespaces/inkscape"
   inkscape:version="1.0 (4035a4fb49, 2020-05-01)"
   sodipodi:docname="3.svg"
   viewBox="0 0 725.66931 725.66931"
   id="svg4"
   height=""
   width=""
   version="1.1">
  <metadata
     id="metadata10">
    <rdf:RDF>
      <cc:Work
         rdf:about="">
        <dc:format>image/svg+xml</dc:format>
        <dc:type
           rdf:resource="http://purl.org/dc/dcmitype/StillImage" />
        <dc:title></dc:title>
      </cc:Work>
    </rdf:RDF>
  </metadata>
  <defs
     id="defs8" />
  <sodipodi:namedview
     inkscape:current-layer="svg4"
     inkscape:window-maximized="0"
     inkscape:window-y="0"
     inkscape:window-x="0"
     inkscape:cy="362.83466"
     inkscape:cx="362.83466"
     inkscape:zoom="0.79650605"
     showgrid="false"
     id="namedview6"
     inkscape:window-height="480"
     inkscape:window-width="820"
     inkscape:pageshadow="2"
     inkscape:pageopacity="0"
     guidetolerance="10"
     gridtolerance="10"
     objecttolerance="10"
     borderopacity="1"
     bordercolor="#666666"
     pagecolor="#ffffff" />
  <path
     id="path2"
     style="fill:#ffffff;fill-rule:evenodd;stroke:#000000;stroke-width:2.9999;stroke-linecap:butt;stroke-linejoin:miter;stroke-dasharray:none"
     d="M 64.7841,309.9949 V 126.699 h 36.3521 l 43.3494,129.7491 c 4.0107,12.0748 6.912,21.1201 8.7466,27.1361 2.0908,-6.656 5.3759,-16.4693 9.8132,-29.3973 L 207.163,126.699 h 32.4692 v 183.2959 h -23.296 V 156.651 L 162.8323,309.9949 H 140.9868 L 88.0801,153.8348 V 309.9949 Z M 267.2802,243.563 c 0,-24.5333 6.8266,-42.7094 20.5225,-54.5281 11.3919,-9.8133 25.344,-14.7201 41.7708,-14.7201 18.2185,0 33.152,5.9735 44.7573,17.9201 11.5626,11.9041 17.3654,28.4159 17.3654,49.4507 0,17.0665 -2.5603,30.4639 -7.6802,40.2347 -5.12,9.7707 -12.5867,17.3653 -22.4,22.784 -9.7707,5.4187 -20.48,8.1065 -32.0425,8.1065 -18.6027,0 -33.6215,-5.9306 -45.0987,-17.8347 -11.4774,-11.9038 -17.1946,-29.056 -17.1946,-51.4131 z m 23.04,0.0425 c 0,16.9815 3.7119,29.696 11.1359,38.1013 7.4667,8.4481 16.8105,12.672 28.1174,12.672 11.1787,0 20.48,-4.2239 27.9465,-12.7145 7.4239,-8.4906 11.1362,-21.4189 11.1362,-38.7842 0,-16.384 -3.7548,-28.8 -11.2216,-37.2053 -7.4664,-8.4478 -16.768,-12.672 -27.8611,-12.672 -11.3069,0 -20.6507,4.1814 -28.1174,12.5867 -7.424,8.4053 -11.1359,21.0773 -11.1359,38.016 z m 164.0959,66.3894 -50.1335,-132.8641 h 24.1066 l 28.4162,79.5733 c 3.0719,8.5762 5.9307,17.4934 8.5332,26.752 2.0055,-6.9974 4.7786,-15.4027 8.4052,-25.2584 l 29.5254,-81.0669 h 23.1254 l -50.304,132.8641 z m 182.3145,-43.0081 23.296,3.0722 c -3.6267,13.5252 -10.4109,24.0638 -20.3094,31.5306 -9.8986,7.4667 -22.5281,11.2212 -37.9307,11.2212 -19.3706,0 -34.7307,-5.9732 -46.08,-17.9201 -11.3494,-11.9038 -17.024,-28.6718 -17.024,-50.2185 0,-22.2719 5.7174,-39.5947 17.1946,-51.8826 11.4775,-12.3307 26.3679,-18.4748 44.6721,-18.4748 17.7066,0 32.1706,6.016 43.3919,18.0907 11.2215,12.0748 16.8534,29.056 16.8534,50.944 0,1.3227 -0.0426,3.3282 -0.1282,5.9735 h -98.9438 c 0.8532,14.5493 4.9492,25.7278 12.3732,33.4505 7.3814,7.7227 16.6402,11.6053 27.6908,11.6053 8.2346,0 15.2748,-2.1759 21.0773,-6.5279 5.8453,-4.352 10.4533,-11.3068 13.8668,-20.8641 z m -73.728,-36.0958 h 73.984 c -0.9814,-11.1787 -3.8401,-19.5415 -8.4907,-25.1309 -7.1254,-8.6612 -16.4267,-13.0133 -27.8189,-13.0133 -10.3252,0 -18.9864,3.456 -26.0266,10.368 -6.9973,6.912 -10.8799,16.1708 -11.6478,27.7762 z M 107.7917,595.9894 V 412.6935 h 24.9173 l 96.1708,143.8719 V 412.6935 h 23.2959 V 595.9894 H 227.2584 L 131.0879,452.1175 v 143.8719 z m 185.1309,0 V 412.6935 h 69.2054 c 12.1597,0 21.4611,0.5973 27.9039,1.7493 9.0026,1.4933 16.5547,4.352 22.6559,8.5334 6.1013,4.2239 11.0081,10.1117 14.7201,17.6638 3.7119,7.5521 5.5465,15.872 5.5465,24.9599 0,15.5307 -4.9493,28.7147 -14.8907,39.4668 -9.8985,10.7946 -27.8611,16.1708 -53.8027,16.1708 h -47.0185 v 74.7519 z m 24.3199,-96.2561 h 47.3601 c 15.7011,0 26.7945,-2.9013 33.408,-8.7466 6.5704,-5.8453 9.8558,-14.0374 9.8558,-24.6614 0,-7.6374 -1.9199,-14.2078 -5.8025,-19.6693 -3.8826,-5.4613 -9.0029,-9.0879 -15.3173,-10.8372 -4.0961,-1.0666 -11.6481,-1.6214 -22.6134,-1.6214 h -46.8907 z m 276.9919,31.9575 24.3202,6.1438 c -5.0775,19.9253 -14.2081,35.072 -27.3921,45.5256 -13.1839,10.4533 -29.3119,15.7011 -48.384,15.7011 -19.7121,0 -35.7548,-4.0105 -48.128,-12.0745 -12.3732,-8.0215 -21.7599,-19.6693 -28.2028,-34.9016 -6.4425,-15.2745 -9.6851,-31.6159 -9.6851,-49.1091 0,-19.072 3.6267,-35.712 10.9225,-49.9201 7.2961,-14.2081 17.6641,-25.0027 31.104,-32.3838 13.4402,-7.3814 28.2455,-11.0509 44.3735,-11.0509 18.3464,0 33.7493,4.6508 46.2079,13.9947 12.5013,9.3441 21.2054,22.4427 26.1119,39.3386 l -23.8079,5.6322 c -4.2239,-13.3121 -10.4106,-23.04 -18.4746,-29.0988 -8.064,-6.1013 -18.2188,-9.1307 -30.4642,-9.1307 -14.0371,0 -25.8131,3.3707 -35.2426,10.1121 -9.4294,6.7413 -16.0852,15.8292 -19.8827,27.1785 -3.8398,11.3922 -5.76,23.1254 -5.76,35.2001 0,15.5733 2.2614,29.1841 6.7841,40.7894 4.5227,11.6479 11.5625,20.3094 21.1201,26.0694 9.5573,5.76 19.8825,8.6185 31.0184,8.6185 13.568,0 25.0027,-3.9252 34.3894,-11.7332 9.3866,-7.8508 15.7442,-19.4562 19.072,-34.9013 z" />
</svg>
