<?xml version="1.0" encoding="UTF-8" standalone="no"?>
<svg
   xmlns:dc="http://purl.org/dc/elements/1.1/"
   xmlns:cc="http://creativecommons.org/ns#"
   xmlns:rdf="http://www.w3.org/1999/02/22-rdf-syntax-ns#"
   xmlns:svg="http://www.w3.org/2000/svg"
   xmlns="http://www.w3.org/2000/svg"
   xmlns:sodipodi="http://sodipodi.sourceforge.net/DTD/sodipodi-0.dtd"
   xmlns:inkscape="http://www.inkscape.org/namespaces/inkscape"
   inkscape:version="1.0 (4035a4fb49, 2020-05-01)"
   sodipodi:docname="infinite_enchantment_capacity.svg"
   viewBox="0 0 725.66931 725.66931"
   id="svg4"
   height=""
   width=""
   version="1.1">
  <metadata
     id="metadata10">
    <rdf:RDF>
      <cc:Work
         rdf:about="">
        <dc:format>image/svg+xml</dc:format>
        <dc:type
           rdf:resource="http://purl.org/dc/dcmitype/StillImage" />
        <dc:title />
      </cc:Work>
    </rdf:RDF>
  </metadata>
  <defs
     id="defs8" />
  <sodipodi:namedview
     inkscape:current-layer="svg4"
     inkscape:window-maximized="1"
     inkscape:window-y="-8"
     inkscape:window-x="-8"
     inkscape:cy="129.26055"
     inkscape:cx="410.70738"
     inkscape:zoom="0.79650605"
     showgrid="false"
     id="namedview6"
     inkscape:window-height="746"
     inkscape:window-width="1304"
     inkscape:pageshadow="2"
     inkscape:pageopacity="0"
     guidetolerance="10"
     gridtolerance="10"
     objecttolerance="10"
     borderopacity="1"
     bordercolor="#666666"
     pagecolor="#ffffff"
     inkscape:document-rotation="0" />
  <path
     id="path2"
     style="fill:#fe68d5;fill-rule:evenodd;stroke:#1b1918;stroke-width:4;stroke-linecap:round;stroke-linejoin:round;stroke-dasharray:none;fill-opacity:1"
     d="m 362.6526,327.9795 c 24.9787,-22.4123 43.4555,-38.493 55.4306,-48.4169 11.8047,-10.0939 23.7815,-18.9905 36.0981,-26.5179 12.1467,-7.6977 25.6626,-14.8834 40.7178,-21.5552 24.1231,-10.7792 48.0745,-15.2268 71.6843,-13.8576 23.7798,1.5392 45.6787,8.383 65.6947,20.7 20.0175,12.1467 36.2699,27.7151 48.5886,46.7056 12.317,19.1605 19.5024,39.6919 21.5552,61.5891 2.7382,26.1759 -2.2245,52.0103 -14.7132,77.5009 -12.6603,25.4906 -30.9655,46.0203 -55.2589,61.5891 -24.1231,15.5684 -51.1532,21.8986 -80.9229,18.8188 -23.2661,-2.3948 -45.6784,-8.0397 -67.0637,-17.2779 -21.3849,-9.2383 -39.6901,-19.5038 -54.575,-30.6236 -15.0551,-11.2928 -29.7679,-23.9514 -43.9674,-38.1527 -14.1996,-14.3698 -21.8986,-21.8972 -23.2679,-22.9245 -8.041,8.0411 -17.4496,17.4496 -28.399,28.0571 -10.7792,10.7792 -23.6098,21.7269 -38.3227,33.0198 -14.5415,11.1194 -32.6764,21.3849 -54.0617,30.6235 -21.3849,9.2383 -44.1391,14.8835 -68.0909,17.2779 -29.768,3.0802 -56.7998,-3.25 -80.9212,-18.8188 C 68.5623,470.1478 50.2571,449.6181 37.5971,424.1271 25.1084,398.6365 20.1475,372.8022 22.8839,346.6263 c 2.3948,-22.2406 9.7519,-42.9406 22.0703,-62.1028 12.317,-18.9891 28.5707,-34.5575 48.5868,-46.5339 20.016,-11.975 41.915,-18.8189 65.6947,-20.358 23.6095,-1.3689 47.391,3.0783 71.1707,13.8575 15.0552,6.6722 28.5708,13.8576 40.7174,21.5553 12.3184,7.5277 24.2934,16.424 36.0982,26.5179 11.9764,9.9235 30.4532,26.0042 55.4306,48.4165 z m -33.532,33.7036 c -29.426,-24.9787 -53.0358,-43.6272 -70.9991,-55.9442 -17.7929,-12.3184 -34.9009,-21.385 -51.3249,-27.0316 -20.358,-7.3557 -38.8349,-9.4085 -55.4306,-6.3301 -16.424,3.2514 -30.6235,9.9236 -42.2566,20.3594 -11.8047,10.2641 -20.3594,22.2405 -26.1759,35.7565 -5.6449,13.5142 -8.383,26.3462 -8.383,38.6646 0.3419,18.6471 6.5018,35.5845 18.4768,50.8113 11.9764,15.2251 27.2019,25.8326 45.6784,32.3344 18.3066,6.3302 36.4418,7.1858 54.575,2.9084 27.0315,-6.3301 47.7329,-14.7131 62.1041,-25.3206 14.3698,-10.4359 39.0065,-32.5061 73.7358,-66.2084 z m 67.5773,0 c 22.7542,22.4109 40.3758,39.0066 52.6938,49.784 12.317,10.7778 24.4637,19.3325 36.6104,25.6627 11.9764,6.5018 27.3735,11.8047 46.022,16.082 18.3052,4.2774 36.7821,3.4218 55.0886,-2.9084 18.4769,-6.5018 33.702,-17.1093 45.6787,-32.3344 11.9751,-15.2268 18.1349,-32.1642 18.4769,-50.8113 0.6839,-16.2538 -4.2773,-33.3617 -14.7132,-51.1547 -10.6075,-17.7915 -26.0042,-30.9655 -46.1919,-39.0065 -20.1878,-8.2113 -44.1392,-7.6977 -71.8547,1.7108 -16.766,5.9883 -33.8736,15.2269 -51.6669,27.7152 -17.6212,12.4886 -41.0594,30.9655 -70.1437,55.2603 z" />
</svg>
