<?xml version="1.0" encoding="UTF-8" standalone="no"?>
<svg
   xmlns:dc="http://purl.org/dc/elements/1.1/"
   xmlns:cc="http://creativecommons.org/ns#"
   xmlns:rdf="http://www.w3.org/1999/02/22-rdf-syntax-ns#"
   xmlns:svg="http://www.w3.org/2000/svg"
   xmlns="http://www.w3.org/2000/svg"
   xmlns:sodipodi="http://sodipodi.sourceforge.net/DTD/sodipodi-0.dtd"
   xmlns:inkscape="http://www.inkscape.org/namespaces/inkscape"
   inkscape:version="1.0 (4035a4fb49, 2020-05-01)"
   sodipodi:docname="3.svg"
   viewBox="0 0 725.66931 725.66931"
   id="svg105"
   height=""
   width=""
   version="1.1">
  <metadata
     id="metadata111">
    <rdf:RDF>
      <cc:Work
         rdf:about="">
        <dc:format>image/svg+xml</dc:format>
        <dc:type
           rdf:resource="http://purl.org/dc/dcmitype/StillImage" />
        <dc:title></dc:title>
      </cc:Work>
    </rdf:RDF>
  </metadata>
  <defs
     id="defs109" />
  <sodipodi:namedview
     inkscape:current-layer="svg105"
     inkscape:window-maximized="0"
     inkscape:window-y="0"
     inkscape:window-x="0"
     inkscape:cy="362.83466"
     inkscape:cx="362.83466"
     inkscape:zoom="0.79650605"
     showgrid="false"
     id="namedview107"
     inkscape:window-height="480"
     inkscape:window-width="881"
     inkscape:pageshadow="2"
     inkscape:pageopacity="0"
     guidetolerance="10"
     gridtolerance="10"
     objecttolerance="10"
     borderopacity="1"
     bordercolor="#666666"
     pagecolor="#ffffff" />
  <g
     id="Layer1000">
    <path
       id="path2"
       style="fill:#ffffff;fill-rule:evenodd"
       d="M 131.875,40.3239 V 685.3754 H 593.3895 V 40.3239 Z" />
    <g
       id="Layer1001">
      <path
         id="path4"
         style="fill:#fefefe;fill-rule:evenodd"
         d="M 301.3145,180.7717 H 423.1419 V 58.9442 H 301.3145 Z" />
      <path
         id="path6"
         style="fill:#000000;fill-rule:evenodd"
         d="m 344.4958,73.3004 c -4.4882,1.4116 -10.5014,5.3446 -13.6149,7.9049 -10.882,8.9483 -17.0163,21.0613 -18.3005,35.4712 -0.3418,3.8349 0.2911,6.7729 0.3319,10.2879 l -6.9566,6.4977 c 0.4446,1.1307 3.2154,5.6508 4.0538,7.1475 l 12.2166,21.2788 c 0.9257,-0.3576 8.4109,-3.1771 8.721,-3.1457 0.3408,0.0345 2.7222,1.9351 3.3884,2.3989 12.352,8.5984 28.3436,10.7124 43.0202,6.3264 4.0287,-1.2039 8.9341,-3.4687 12.3062,-5.7559 l 3.6323,-2.5447 9.1265,2.8061 16.4287,-28.3085 c -0.5945,-0.836 -5.8467,-4.6621 -7.0758,-6.0914 0.2569,-3.3587 0.8235,-6.2792 0.5007,-9.8292 -0.8846,-9.734 -2.4346,-16.3119 -7.7101,-24.5825 -9.6258,-15.0903 -22.9997,-19.1543 -23.4527,-19.5809 -0.4658,-0.8032 -2.0116,-8.0548 -2.2112,-9.4392 l -32.7128,0.0069 z" />
      <path
         id="path8"
         style="fill:#fefefe;fill-rule:evenodd"
         d="m 347.1969,75.4425 c -15.5431,5.3534 -26.7287,18.0527 -30.4355,33.467 -0.7061,2.9352 -1.1658,6.0902 -1.2464,9.3234 -0.0431,1.7334 -0.0419,3.5556 0.0228,5.288 0.0626,1.6711 0.4619,3.2833 0.6051,4.8868 l -6.6152,6.1609 13.6661,23.6506 c 1.231,-0.2353 5.4479,-1.9461 7.2125,-2.5836 1.3252,-0.4789 1.1559,-0.3213 2.0991,0.4391 14.5164,11.7029 34.0167,14.2244 51.0081,5.772 2.8056,-1.3955 5.7909,-3.2791 8.0734,-5.1129 1.6162,-1.2984 0.7677,-1.2231 4.812,0.0283 1.7147,0.5307 3.5315,1.176 5.3107,1.5561 0.5137,-1.6355 13.2006,-22.5294 13.5375,-23.8822 -0.5333,-0.2943 -6.4719,-5.2329 -6.5784,-5.5341 -0.1173,-0.3321 0.5472,-4.35 0.6175,-5.1999 0.1612,-1.95 0.0863,-4.1146 0.0475,-6.0794 -0.335,-16.9117 -12.0106,-33.6031 -26.7809,-40.2146 -0.8682,-0.3887 -3.6671,-1.4231 -4.2839,-1.8363 l -2.1102,-8.8027 -27.4095,-0.0338 z" />
      <path
         id="path10"
         style="fill:#000000;fill-rule:evenodd"
         d="m 360.4008,86.9669 c -5.5271,0.0046 -12.2082,2.7989 -15.5517,4.963 -13.096,8.4769 -18.7456,24.2641 -13.4056,39.2222 0.4921,1.3785 1.1271,2.5083 1.5459,3.7311 l -5.036,2.9822 c 0.4413,1.0398 1.3711,2.4334 1.9248,3.5155 l 5.2743,-2.98 c 1.9471,2.5109 2.243,3.2677 4.7734,5.582 10.7431,9.8253 26.2629,11.7844 39.1979,4.3373 3.3704,-1.9406 6.0116,-4.3013 8.4918,-7.1293 0.7045,-0.8034 1.5981,-2.3121 2.3029,-2.978 l 5.1736,3.0157 c 0.5171,-1.2593 1.2835,-2.2802 1.8847,-3.5026 -0.6978,-0.654 -4.0488,-2.4368 -5.0687,-2.9816 2.3581,-5.3724 3.7982,-9.7968 3.4272,-17.1278 -0.2928,-5.7854 -2.644,-11.7904 -5.0592,-15.4563 -2.8088,-4.2637 -5.9084,-7.4571 -10.2678,-10.2287 -3.5284,-2.2432 -9.9098,-4.9407 -15.5491,-4.9671 l 0.003,-5.2791 h -4.0611 z" />
      <path
         id="path12"
         style="fill:#fefefe;fill-rule:evenodd"
         d="m 338.2104,131.8431 9.6213,-5.4492 c -0.4079,-1.4027 -1.784,-2.8831 -2.2766,-4.2978 l 14.6406,-0.6434 -3.8795,6.1024 c -0.6962,1.12 -1.3427,2.0485 -1.9864,3.0922 -0.5518,0.895 -1.3838,2.3507 -2.0509,3.0762 l -2.3526,-3.9016 c -2.5181,1.6885 -7.8435,4.2788 -9.5263,5.5681 2.702,3.3447 4.416,5.552 8.7401,7.9176 13.1152,7.1743 27.8841,2.8425 35.3892,-8.0181 -0.1889,-0.2202 -0.0971,-0.1398 -0.4074,-0.3794 l -4.2297,-2.4634 c -1.5235,-0.9248 -3.3095,-1.991 -4.8508,-2.7958 l -2.3723,4.0918 c -0.6738,-0.725 -1.5444,-2.2198 -2.0355,-3.0006 l -3.9671,-6.19 c -0.7257,-1.1413 -1.4646,-2.0816 -2.0018,-3.133 l 14.6515,0.7128 -2.2733,4.0313 c 3.0987,1.8293 6.4296,3.6798 9.5508,5.4621 1.8137,-2.338 3.0855,-9.4989 2.7605,-13.471 -0.7388,-9.0301 -5.2014,-16.3535 -12.3657,-20.9824 -3.7176,-2.402 -7.0595,-3.5102 -12.5269,-4.2134 l -7e-4,11.87 4.77,-0.0218 c -0.3931,1.1068 -1.1104,2.2476 -1.6831,3.3121 l -4.915,9.7172 c -0.5346,-0.4779 -2.9088,-5.3446 -3.4172,-6.3276 l -3.3666,-6.7062 4.5456,0.0148 0.006,-11.8626 c -5.51,0.7377 -8.7747,1.8318 -12.5357,4.2105 -3.4378,2.1744 -6.1358,4.9607 -8.2788,8.3809 -4.4241,7.0603 -5.2904,15.1486 -2.5773,23.2832 0.3775,1.1317 0.8945,2.0565 1.2012,3.0141 z" />
    </g>
    <g
       id="Layer1002">
      <path
         id="path15"
         style="fill:#d9dadb;fill-rule:evenodd"
         d="m 157.0612,222.7077 v 21.3828 h 144.3351 v -21.3828 z" />
      <path
         id="path17"
         style="fill:#d9dadb;fill-rule:evenodd"
         d="m 326.6517,222.7077 v 21.3828 h 84.2247 v -21.3828 z" />
      <path
         id="path19"
         style="fill:#d9dadb;fill-rule:evenodd"
         d="M 430.1074,222.8744 V 369.4097 H 568.0973 V 222.8744 Z" />
      <path
         id="path21"
         style="fill:#d9dadb;fill-rule:evenodd"
         d="m 410.9304,253.8936 v 21.3827 h -144.335 v -21.3827 z" />
      <path
         id="path23"
         style="fill:#d9dadb;fill-rule:evenodd"
         d="m 241.34,253.8936 v 21.3827 h -84.2247 v -21.3827 z" />
      <path
         id="path25"
         style="fill:#d9dadb;fill-rule:evenodd"
         d="m 157.1304,285.3785 v 21.3827 h 144.3351 v -21.3827 z" />
      <path
         id="path27"
         style="fill:#d9dadb;fill-rule:evenodd"
         d="m 326.7209,285.3785 v 21.3827 h 84.2247 v -21.3827 z" />
      <path
         id="path29"
         style="fill:#d9dadb;fill-rule:evenodd"
         d="m 410.9996,316.5643 v 21.3828 h -144.335 v -21.3828 z" />
      <path
         id="path31"
         style="fill:#d9dadb;fill-rule:evenodd"
         d="m 241.4092,316.5643 v 21.3828 h -84.2247 v -21.3828 z" />
      <path
         id="path33"
         style="fill:#d9dadb;fill-rule:evenodd"
         d="m 157.1845,348.0492 v 21.3828 h 144.335 v -21.3828 z" />
      <path
         id="path35"
         style="fill:#d9dadb;fill-rule:evenodd"
         d="m 326.7749,348.0492 v 21.3828 h 84.2247 v -21.3828 z" />
      <path
         id="path37"
         style="fill:#d9dadb;fill-rule:evenodd"
         d="m 361.0243,379.5341 v 21.3827 h -94.3597 v -21.3827 z" />
      <path
         id="path39"
         style="fill:#d9dadb;fill-rule:evenodd"
         d="m 241.4092,379.5341 v 21.3827 h -84.2247 v -21.3827 z" />
      <path
         id="path41"
         style="fill:#d9dadb;fill-rule:evenodd"
         d="m 157.1845,411.019 v 21.3827 h 144.335 V 411.019 Z" />
      <path
         id="path43"
         style="fill:#d9dadb;fill-rule:evenodd"
         d="m 326.7749,411.019 v 21.3827 h 84.2247 V 411.019 Z" />
      <path
         id="path45"
         style="fill:#d9dadb;fill-rule:evenodd"
         d="m 436.3035,411.019 v 21.3827 h 130.975 V 411.019 Z" />
      <path
         id="path47"
         style="fill:#d9dadb;fill-rule:evenodd"
         d="m 470.5044,379.5341 v 21.3827 h -84.2247 v -21.3827 z" />
      <path
         id="path49"
         style="fill:#d9dadb;fill-rule:evenodd"
         d="m 241.4092,442.5039 v 21.3827 h -84.2247 v -21.3827 z" />
      <path
         id="path51"
         style="fill:#d9dadb;fill-rule:evenodd"
         d="m 157.1845,473.9888 v 21.3827 h 144.335 v -21.3827 z" />
      <path
         id="path53"
         style="fill:#d9dadb;fill-rule:evenodd"
         d="m 326.7749,473.9888 v 21.3827 h 84.2247 v -21.3827 z" />
      <path
         id="path55"
         style="fill:#d9dadb;fill-rule:evenodd"
         d="m 436.3035,473.9888 v 21.3827 h 130.975 v -21.3827 z" />
      <path
         id="path57"
         style="fill:#d9dadb;fill-rule:evenodd"
         d="m 568.0973,379.5341 v 21.3827 h -72.3375 v -21.3827 z" />
      <path
         id="path59"
         style="fill:#d9dadb;fill-rule:evenodd"
         d="m 361.0243,442.5039 v 21.3827 h -94.3597 v -21.3827 z" />
      <path
         id="path61"
         style="fill:#d9dadb;fill-rule:evenodd"
         d="m 470.5044,442.5039 v 21.3827 h -84.2247 v -21.3827 z" />
      <path
         id="path63"
         style="fill:#d9dadb;fill-rule:evenodd"
         d="m 568.0973,442.5039 v 21.3827 h -72.3375 v -21.3827 z" />
      <path
         id="path65"
         style="fill:#d9dadb;fill-rule:evenodd"
         d="m 361.0243,504.9367 v 21.3828 h -94.3597 v -21.3828 z" />
      <path
         id="path67"
         style="fill:#d9dadb;fill-rule:evenodd"
         d="m 241.4092,504.9367 v 21.3828 h -84.2247 v -21.3828 z" />
      <path
         id="path69"
         style="fill:#d9dadb;fill-rule:evenodd"
         d="m 157.1845,536.4216 v 21.3827 h 144.335 v -21.3827 z" />
      <path
         id="path71"
         style="fill:#d9dadb;fill-rule:evenodd"
         d="m 326.7749,536.4216 v 21.3827 h 84.2247 v -21.3827 z" />
      <path
         id="path73"
         style="fill:#d9dadb;fill-rule:evenodd"
         d="m 436.3035,536.4216 v 21.3827 h 130.975 v -21.3827 z" />
      <path
         id="path75"
         style="fill:#d9dadb;fill-rule:evenodd"
         d="m 470.5044,504.9367 v 21.3828 h -84.2247 v -21.3828 z" />
      <path
         id="path77"
         style="fill:#d9dadb;fill-rule:evenodd"
         d="m 568.0973,504.9367 v 21.3828 h -72.3375 v -21.3828 z" />
      <path
         id="path79"
         style="fill:#d9dadb;fill-rule:evenodd"
         d="m 361.0243,568.1939 v 21.3827 h -94.3597 v -21.3827 z" />
      <path
         id="path81"
         style="fill:#d9dadb;fill-rule:evenodd"
         d="m 241.4092,568.1939 v 21.3827 h -84.2247 v -21.3827 z" />
      <path
         id="path83"
         style="fill:#d9dadb;fill-rule:evenodd"
         d="m 157.1845,599.6788 v 21.3827 h 144.335 v -21.3827 z" />
      <path
         id="path85"
         style="fill:#d9dadb;fill-rule:evenodd"
         d="m 326.7749,599.6788 v 21.3827 h 84.2247 v -21.3827 z" />
      <path
         id="path87"
         style="fill:#d9dadb;fill-rule:evenodd"
         d="m 436.3035,599.6788 v 21.3827 h 130.975 v -21.3827 z" />
      <path
         id="path89"
         style="fill:#d9dadb;fill-rule:evenodd"
         d="m 470.5044,568.1939 v 21.3827 h -84.2247 v -21.3827 z" />
      <path
         id="path91"
         style="fill:#d9dadb;fill-rule:evenodd"
         d="m 568.0973,568.1939 v 21.3827 h -72.3375 v -21.3827 z" />
      <path
         id="path93"
         style="fill:#d9dadb;fill-rule:evenodd"
         d="m 361.0243,636.7971 v 21.3828 h -94.3597 v -21.3828 z" />
      <path
         id="path95"
         style="fill:#d9dadb;fill-rule:evenodd"
         d="m 241.4092,636.7971 v 21.3828 h -84.2247 v -21.3828 z" />
      <path
         id="path97"
         style="fill:#d9dadb;fill-rule:evenodd"
         d="m 470.5044,636.7971 v 21.3828 h -84.2247 v -21.3828 z" />
      <path
         id="path99"
         style="fill:#d9dadb;fill-rule:evenodd"
         d="m 568.0973,636.7971 v 21.3828 h -72.3375 v -21.3828 z" />
    </g>
    <path
       id="path102"
       style="fill:#1b1918;fill-rule:evenodd"
       d="m 267.5367,200.8324 3.8061,-0.3422 c 0.1783,1.5398 0.5986,2.8012 1.2617,3.7919 0.6627,0.9837 1.6891,1.7822 3.079,2.395 1.3898,0.6058 2.9579,0.9125 4.6973,0.9125 1.5465,0 2.908,-0.2282 4.0912,-0.6916 1.1832,-0.4632 2.0597,-1.0976 2.6371,-1.9029 0.5774,-0.8057 0.8696,-1.6821 0.8696,-2.6229 0,-0.9553 -0.278,-1.7893 -0.8339,-2.509 -0.5559,-0.7129 -1.4754,-1.3116 -2.7584,-1.8034 -0.8198,-0.3135 -2.6374,-0.8124 -5.4527,-1.4896 -2.8154,-0.6772 -4.7826,-1.3116 -5.9088,-1.9103 -1.461,-0.7699 -2.5444,-1.7248 -3.2573,-2.8581 -0.7198,-1.1333 -1.0764,-2.4092 -1.0764,-3.8132 0,-1.554 0.442,-3.0008 1.3187,-4.3407 0.8768,-1.3473 2.1527,-2.3664 3.8418,-3.0651 1.6821,-0.6985 3.5566,-1.0477 5.6166,-1.0477 2.2666,0 4.2695,0.3634 6.0015,1.0976 1.732,0.7271 3.0648,1.8034 3.9985,3.2289 0.9338,1.4185 1.4327,3.0291 1.5041,4.8255 l -3.8917,0.2993 c -0.2069,-1.9315 -0.9124,-3.3928 -2.1169,-4.3764 -1.2047,-0.9907 -2.9866,-1.4825 -5.3388,-1.4825 -2.4516,0 -4.2409,0.449 -5.36,1.347 -1.1188,0.8983 -1.6821,1.9817 -1.6821,3.2502 0,1.0979 0.3991,2.003 1.1906,2.7156 0.7838,0.7058 2.8154,1.44 6.1081,2.1812 3.293,0.7484 5.5525,1.397 6.7785,1.9528 1.7747,0.8198 3.0934,1.8533 3.9415,3.115 0.8482,1.2544 1.2688,2.7012 1.2688,4.3407 0,1.6322 -0.4634,3.1575 -1.3972,4.5972 -0.9334,1.4398 -2.2666,2.5589 -4.0127,3.3571 -1.7461,0.7983 -3.7063,1.1974 -5.8946,1.1974 -2.7655,0 -5.082,-0.4062 -6.9495,-1.2116 -1.8745,-0.8056 -3.3355,-2.0171 -4.3976,-3.6422 -1.0693,-1.618 -1.6251,-3.4498 -1.6821,-5.4955 z m 51.6611,-0.9051 4.0626,1.0264 c -0.8481,3.3284 -2.3734,5.8589 -4.5759,7.6051 -2.2025,1.7464 -4.8966,2.6229 -8.0827,2.6229 -3.293,0 -5.9729,-0.6699 -8.0399,-2.0172 -2.0671,-1.3399 -3.6352,-3.2856 -4.7115,-5.8303 -1.0763,-2.5517 -1.618,-5.2815 -1.618,-8.2037 0,-3.1862 0.606,-5.9658 1.8246,-8.3395 1.2189,-2.3735 2.9509,-4.1766 5.1962,-5.4097 2.2451,-1.233 4.7186,-1.8462 7.4126,-1.8462 3.0651,0 5.6381,0.777 7.7193,2.338 2.0883,1.5608 3.5425,3.7491 4.3623,6.5716 l -3.9773,0.9408 c -0.7056,-2.2238 -1.7391,-3.8489 -3.0864,-4.8611 -1.347,-1.0191 -3.0435,-1.5253 -5.089,-1.5253 -2.3451,0 -4.3124,0.5632 -5.8876,1.6894 -1.5752,1.1262 -2.6869,2.6442 -3.3213,4.5403 -0.6415,1.9029 -0.9624,3.863 -0.9624,5.8801 0,2.6017 0.3779,4.8754 1.1333,6.814 0.7557,1.946 1.9318,3.3928 3.5283,4.3551 1.5964,0.9621 3.3213,1.4397 5.1817,1.4397 2.2666,0 4.1769,-0.6556 5.745,-1.9601 1.5681,-1.3113 2.63,-3.2502 3.1861,-5.8303 z m 9.0734,10.7413 v -30.6201 h 11.5609 c 2.0316,0 3.5852,0.0998 4.6615,0.2919 1.5041,0.2498 2.7655,0.7271 3.7849,1.4256 1.0193,0.7058 1.8388,1.6894 2.459,2.9509 0.6199,1.2617 0.9267,2.6515 0.9267,4.1697 0,2.5946 -0.8269,4.7968 -2.4877,6.5931 -1.6535,1.8031 -4.6542,2.7014 -8.9878,2.7014 h -7.8548 v 12.4875 z m 4.0627,-16.0798 h 7.9117 c 2.6229,0 4.4762,-0.4847 5.5809,-1.4613 1.0976,-0.9765 1.6466,-2.3451 1.6466,-4.1198 0,-1.2759 -0.3208,-2.3735 -0.9694,-3.2857 -0.6486,-0.9125 -1.5041,-1.5182 -2.5588,-1.8105 -0.6843,-0.1783 -1.946,-0.271 -3.7778,-0.271 h -7.8332 z m 22.4949,6.8851 v -3.7633 h 11.6322 v 3.7633 z m 28.8241,9.1947 h -3.7633 v -23.963 c -0.9054,0.8694 -2.0957,1.732 -3.564,2.5943 -1.4684,0.8626 -2.7941,1.5112 -3.9629,1.9389 v -3.6351 c 2.1025,-0.9837 3.9416,-2.181 5.5168,-3.5924 1.5752,-1.4043 2.6941,-2.7655 3.35,-4.0912 h 2.4234 z m 21.6892,0 v -7.3128 H 392.042 v -3.4642 l 13.9844,-19.8431 h 3.0793 v 19.8431 h 4.1482 v 3.4642 h -4.1482 v 7.3128 z m 0,-10.777 V 186.114 l -9.6009,13.7776 z m 11.9818,-15.8661 v -3.5924 h 19.8006 v 2.9081 c -1.946,2.0741 -3.8846,4.8325 -5.7949,8.2752 -1.9173,3.4427 -3.3928,6.9851 -4.4405,10.6273 -0.7483,2.5589 -1.233,5.3743 -1.4397,8.4249 h -3.8489 c 0.0426,-2.4092 0.5131,-5.3243 1.4182,-8.7384 0.9054,-3.4214 2.1954,-6.7144 3.8846,-9.8861 1.6895,-3.1717 3.4855,-5.8447 5.3887,-8.0186 z m 37.6838,26.6431 h -3.7633 v -23.963 c -0.9054,0.8694 -2.0956,1.732 -3.564,2.5943 -1.4683,0.8626 -2.7941,1.5112 -3.9628,1.9389 v -3.6351 c 2.1024,-0.9837 3.9415,-2.181 5.5168,-3.5924 1.5752,-1.4043 2.694,-2.7655 3.3499,-4.0912 h 2.4234 z" />
  </g>
</svg>
