<svg xmlns="http://www.w3.org/2000/svg" viewBox="0 0 725.669 725.669">
    <path fill="#dedede" fill-rule="evenodd" stroke="#000" stroke-width=".567" d="M668.267 130.883l48.33 35.531c-22.162 44.587-53.223 73.796-92.943 88.044-5.65-19.078-13.762-34.749-23.606-49.46z"/>
    <path fill="#1a1a1a" fill-rule="evenodd" stroke="#000" stroke-width=".567" d="M348.25 337.847C235.114 444.024 95.33 564.134 12.905 695.038c7.06 21.63 23.815 27.723 50.912 17.238 2.623-80.221 256.171-287.385 314.393-346.896z"/>
    <path fill="#ffd42b" fill-rule="evenodd" stroke="#000" stroke-width=".567" d="M568.89 164.7C521.7 224.85 453.69 292.536 378.21 365.38l-29.962-27.533 97.592-106.203c20.127-21.756 32.086-42.419 38.71-62.37l40.89-44.498z"/>
    <path fill="#dedede" fill-rule="evenodd" stroke="#000" stroke-width=".567" d="M503.558 14.187c-16.627-3.294-30.55-2.797-42.354.673l22.628 20.794z"/>
    <path fill="#7e1212" fill-rule="evenodd" stroke="#000" stroke-width=".567" d="M600.048 204.997l68.214-74.28-98.193-90.232c-26.072-14.238-47.972-22.625-66.51-26.298l-19.727 21.467 48.866 44.904-25.352 27.589 61.543 56.554c11.483 13.897 22.062 26.685 31.16 40.296z"/>
    <path fill="none" stroke="#000" stroke-width=".567" d="M532.698 80.558l37.074-40.346"/>
    <path fill="#fff" fill-opacity=".502" fill-rule="evenodd" d="M517.703 117.665L580.13 49.73l27.287 25.075-62.427 67.934zM358.895 347.63l98.858-107.58c22.78-23.233 35.627-61.742 59.503-92.462l5.442 5.368c-22.505 32.389-31.368 62.42-58.685 92.845l-98.859 107.581z"/>
    <path fill="#ff2a2a" fill-rule="evenodd" stroke="#000" stroke-width=".567" d="M716.596 166.414l-4.727-3.475c-21.836 40.828-49.359 70.8-90.104 85.534l1.89 5.985c42.148-14.816 71.83-45.855 92.941-88.044zM477.913 12.084l-9.034 9.83-7.676-7.054c5.15-1.514 10.704-2.462 16.71-2.776z"/>
</svg>
