<?xml version="1.0" encoding="UTF-8" standalone="no"?>
<svg
   xmlns:dc="http://purl.org/dc/elements/1.1/"
   xmlns:cc="http://creativecommons.org/ns#"
   xmlns:rdf="http://www.w3.org/1999/02/22-rdf-syntax-ns#"
   xmlns:svg="http://www.w3.org/2000/svg"
   xmlns="http://www.w3.org/2000/svg"
   xmlns:sodipodi="http://sodipodi.sourceforge.net/DTD/sodipodi-0.dtd"
   xmlns:inkscape="http://www.inkscape.org/namespaces/inkscape"
   inkscape:version="1.0 (4035a4fb49, 2020-05-01)"
   sodipodi:docname="123.svg"
   viewBox="0 0 725.66931 725.66931"
   id="svg199"
   height=""
   width=""
   version="1.1">
  <metadata
     id="metadata205">
    <rdf:RDF>
      <cc:Work
         rdf:about="">
        <dc:format>image/svg+xml</dc:format>
        <dc:type
           rdf:resource="http://purl.org/dc/dcmitype/StillImage" />
        <dc:title></dc:title>
      </cc:Work>
    </rdf:RDF>
  </metadata>
  <defs
     id="defs203" />
  <sodipodi:namedview
     inkscape:current-layer="svg199"
     inkscape:window-maximized="0"
     inkscape:window-y="0"
     inkscape:window-x="0"
     inkscape:cy="362.83466"
     inkscape:cx="362.83466"
     inkscape:zoom="0.79650605"
     showgrid="false"
     id="namedview201"
     inkscape:window-height="480"
     inkscape:window-width="820"
     inkscape:pageshadow="2"
     inkscape:pageopacity="0"
     guidetolerance="10"
     gridtolerance="10"
     objecttolerance="10"
     borderopacity="1"
     bordercolor="#666666"
     pagecolor="#ffffff" />
  <g
     id="Layer1000">
    <path
       id="path2"
       style="fill:none;stroke:#ffffff;stroke-width:4;stroke-linecap:butt;stroke-linejoin:miter;stroke-dasharray:none"
       d="m 427.1799,659.6583 -11.1054,-2.2562 -4.5312,-3.0946 v -11.9139 l 2.5527,-1.9856 0.8507,-11.9139 c -4.1944,-4.2131 -7.3412,-9.6852 -9.6448,-16.1686 l -2.2692,-16.7363 3.6876,-6.808 -3.1204,-21.5581 0.8507,-10.4955 -1.9856,-3.6876 -0.8507,-6.2408 3.9711,-9.0771 1.702,-19.4308 0.5671,-11.2044 -3.4039,5.9567 -6.5244,35.7417 -1.4184,18.4383 -8.51,43.1163 5.6731,6.2403 1.4184,25.5298 7.3751,10.2119 8.9588,4.7867 3.7853,4.7492 c 7.8673,3.3793 8.9558,7.9346 9.066,12.8935 -5.2542,3.5182 -12.0358,6.4166 -19.2972,6.0849 -21.3965,-0.9778 -21.9894,1.6106 -42.6306,-8.4537 -3.7555,-1.8308 -5.8559,-2.4138 -7.1413,-6.0961 -3.5036,-10.0367 -4.6168,-18.7107 -8.6852,-31.0271 -4.5476,-13.7706 -3.2838,-8.2159 -2.6183,-21.9689 0.4506,-9.3196 1.1378,-15.7708 1.9797,-24.4946 l 6.5414,-45.4633 c 0.4664,-20.1209 6.3568,-41.3358 6.6035,-59.5842 l 2.1467,-24.3282 c 2.8761,-14.4749 3.6026,-19.6494 1.8104,-34.4593 -0.7705,-6.365 -0.3656,-19.1349 -3.0226,-23.4523 -5.0404,-8.1906 -1.8748,-12.4459 -1.8748,-21.7638 -2.6289,1.2614 -1.8309,0.945 -5.5296,0.914 l -1.0892,-5.6415 c 2.1491,-0.778 1.3927,-0.5062 2.6851,-2.0424 l 3.9331,-7.4131 c -1.6557,-2.4725 -2.8386,-3.9489 -5.2554,-6.0915 -0.3796,-0.3368 -2.5908,-2.8427 -2.6628,-3.0102 -0.9345,-2.1555 -0.4394,-1.5585 -0.6972,-4.0303 -0.999,-9.5716 -3.3185,-8.4086 -7.6124,-14.135 L 324.5731,313.032 c -11.3825,-19.0787 -2.5111,-12 -0.6082,-32.6542 0.6398,-6.9468 0.8507,-13.7313 3.0279,-19.6651 l 1.279,-3.4491 c 0.5812,-1.5379 0.8882,-2.1994 1.4313,-3.2968 10.1065,-20.4156 4.5792,-16.8863 7.2678,-24.8806 2.3406,-6.9603 7.1882,-14.8018 11.017,-21.1311 1.7389,-2.8743 2.1103,-3.7977 3.643,-6.7575 3.0372,-5.8659 10.9156,-11.6462 16.185,-15.9636 5.7428,-4.7052 13.7483,-7.6586 20.5311,-10.6712 8.3172,-3.6946 7.3897,-1.146 12.9796,-8.7678 3.1726,-4.3261 4.809,-8.7812 10.6578,-10.144 0,-13.0528 -4.7275,3.196 -4.7275,-26.4748 3.0238,-2.0248 0.6621,-1.5526 4.7275,-1.8912 -3.8773,-8.0811 3.2868,-22.8676 9.6929,-28.1289 2.1414,-1.7582 5.6403,-3.5779 8.5984,-4.6396 20.8082,-7.4682 31.2228,10.038 36.5503,11.9661 -0.1541,6.9163 -1.5948,6.0738 0.0808,14.0999 0.542,2.596 0.4752,4.5786 1.0201,7.4922 0.8348,4.468 0.1394,3.5557 3.6272,3.9372 0,6.2642 -0.5098,4.7731 -3.0461,8.3652 -3.7572,5.3204 0.017,2.9071 -1.2409,8.1402 -2.2597,9.3994 -16.789,19.7601 -10.3437,29.2619 1.8074,2.6646 2.7079,5.0035 4.878,6.5344 7.081,4.9958 11.5185,6.7599 16.7979,16.2957 10.9326,19.746 3.7016,12.7406 5.3134,25.8246 0.3667,2.9763 1.5408,5.1985 2.2673,9.145 1.5022,8.1684 -0.3081,12.0756 -0.4757,18.3534 -0.1816,6.7745 1.385,13.6329 2.3423,20.4373 2.1789,15.4808 5.157,46.7458 2.9394,60.5088 -1.3504,8.3805 -1.1348,12.0809 0.1418,19.6171 2.3646,13.9645 0.8642,25.268 -1.8479,39.1897 -1.3,6.6732 -3.5422,10.997 -3.5422,18.2051 -2.8913,0.6738 -3.6342,1.4712 -5.6731,2.8363 0,5.0321 0.0996,10.1487 0.0375,15.1662 -0.1565,12.6556 -2.3172,26.1303 -4.8377,38.6565 l -15.4614,71.5281 c -4.4908,20.7238 -5.2003,17.304 -2.749,37.6863 0.6732,5.5981 -5.369,7.9363 -2.9118,23.6386 1.0423,6.6609 -0.4382,7.6791 -0.5525,12.832 8.8931,2.0717 7.5643,5.7416 7.5643,16.0743 l 13.2375,9.4555 c 3.933,-0.9163 2.5298,-1.6487 7.5292,-1.9322 10.4984,-0.5953 12.2572,1.1747 20.8369,5.7141 v 7.5643 c -6.0545,4.0543 -17.2572,9.5007 -27.3871,9.489 -17.9989,-0.0205 -16.5406,-1.1173 -32.182,-4.7615 -1.9146,1.8162 -2.3007,2.5158 -3.7818,4.7275 -4.3209,0 -8.3137,-0.4488 -12.2245,-0.9093 z" />
    <g
       id="Layer1001">
      <path
         id="path4"
         style="fill:none;stroke:#ffffff;stroke-width:2.0001;stroke-linecap:butt;stroke-linejoin:miter;stroke-dasharray:none"
         d="M 281.5917,44.8979 V 680.8361 H 264.6369 V 44.8979 Z" />
      <g
         id="Layer1002">
        <path
           id="path6"
           style="fill:none;stroke:#ffffff;stroke-width:2.0001;stroke-linecap:butt;stroke-linejoin:miter;stroke-dasharray:none"
           d="m 281.5914,124.39 h -8.4773" />
        <path
           id="path8"
           style="fill:none;stroke:#ffffff;stroke-width:2.0001;stroke-linecap:butt;stroke-linejoin:miter;stroke-dasharray:none"
           d="m 281.5911,52.8471 h -4.2386" />
        <path
           id="path10"
           style="fill:none;stroke:#ffffff;stroke-width:2.0001;stroke-linecap:butt;stroke-linejoin:miter;stroke-dasharray:none"
           d="m 281.5914,60.7965 h -4.2389" />
        <path
           id="path12"
           style="fill:none;stroke:#ffffff;stroke-width:2.0001;stroke-linecap:butt;stroke-linejoin:miter;stroke-dasharray:none"
           d="m 281.5914,68.7456 h -4.2389" />
        <path
           id="path14"
           style="fill:none;stroke:#ffffff;stroke-width:2.0001;stroke-linecap:butt;stroke-linejoin:miter;stroke-dasharray:none"
           d="m 281.5914,76.6947 h -4.2389" />
        <path
           id="path16"
           style="fill:none;stroke:#ffffff;stroke-width:2.0001;stroke-linecap:butt;stroke-linejoin:miter;stroke-dasharray:none"
           d="m 281.5914,84.6438 h -4.2389" />
        <path
           id="path18"
           style="fill:none;stroke:#ffffff;stroke-width:2.0001;stroke-linecap:butt;stroke-linejoin:miter;stroke-dasharray:none"
           d="m 281.5914,92.5933 h -4.2389" />
        <path
           id="path20"
           style="fill:none;stroke:#ffffff;stroke-width:2.0001;stroke-linecap:butt;stroke-linejoin:miter;stroke-dasharray:none"
           d="m 281.5914,100.5424 h -4.2389" />
        <path
           id="path22"
           style="fill:none;stroke:#ffffff;stroke-width:2.0001;stroke-linecap:butt;stroke-linejoin:miter;stroke-dasharray:none"
           d="m 281.5914,108.4915 h -4.2389" />
        <path
           id="path24"
           style="fill:none;stroke:#ffffff;stroke-width:2.0001;stroke-linecap:butt;stroke-linejoin:miter;stroke-dasharray:none"
           d="m 281.5911,116.4409 h -4.2386" />
        <path
           id="path26"
           style="fill:none;stroke:#ffffff;stroke-width:2.0001;stroke-linecap:butt;stroke-linejoin:miter;stroke-dasharray:none"
           d="m 281.5911,52.8471 h -4.2386" />
      </g>
      <g
         id="Layer1003">
        <path
           id="path29"
           style="fill:none;stroke:#ffffff;stroke-width:2.0001;stroke-linecap:butt;stroke-linejoin:miter;stroke-dasharray:none"
           d="m 281.5914,203.8825 h -8.4773" />
        <path
           id="path31"
           style="fill:none;stroke:#ffffff;stroke-width:2.0001;stroke-linecap:butt;stroke-linejoin:miter;stroke-dasharray:none"
           d="m 281.5911,132.3395 h -4.2386" />
        <path
           id="path33"
           style="fill:none;stroke:#ffffff;stroke-width:2.0001;stroke-linecap:butt;stroke-linejoin:miter;stroke-dasharray:none"
           d="m 281.5914,140.289 h -4.2389" />
        <path
           id="path35"
           style="fill:none;stroke:#ffffff;stroke-width:2.0001;stroke-linecap:butt;stroke-linejoin:miter;stroke-dasharray:none"
           d="m 281.5914,148.2381 h -4.2389" />
        <path
           id="path37"
           style="fill:none;stroke:#ffffff;stroke-width:2.0001;stroke-linecap:butt;stroke-linejoin:miter;stroke-dasharray:none"
           d="m 281.5914,156.1872 h -4.2389" />
        <path
           id="path39"
           style="fill:none;stroke:#ffffff;stroke-width:2.0001;stroke-linecap:butt;stroke-linejoin:miter;stroke-dasharray:none"
           d="m 281.5914,164.1363 h -4.2389" />
        <path
           id="path41"
           style="fill:none;stroke:#ffffff;stroke-width:2.0001;stroke-linecap:butt;stroke-linejoin:miter;stroke-dasharray:none"
           d="m 281.5914,172.0857 h -4.2389" />
        <path
           id="path43"
           style="fill:none;stroke:#ffffff;stroke-width:2.0001;stroke-linecap:butt;stroke-linejoin:miter;stroke-dasharray:none"
           d="m 281.5914,180.0348 h -4.2389" />
        <path
           id="path45"
           style="fill:none;stroke:#ffffff;stroke-width:2.0001;stroke-linecap:butt;stroke-linejoin:miter;stroke-dasharray:none"
           d="m 281.5914,187.9839 h -4.2389" />
        <path
           id="path47"
           style="fill:none;stroke:#ffffff;stroke-width:2.0001;stroke-linecap:butt;stroke-linejoin:miter;stroke-dasharray:none"
           d="m 281.5911,195.9334 h -4.2386" />
        <path
           id="path49"
           style="fill:none;stroke:#ffffff;stroke-width:2.0001;stroke-linecap:butt;stroke-linejoin:miter;stroke-dasharray:none"
           d="m 281.5911,132.3395 h -4.2386" />
      </g>
      <g
         id="Layer1004">
        <path
           id="path52"
           style="fill:none;stroke:#ffffff;stroke-width:2.0001;stroke-linecap:butt;stroke-linejoin:miter;stroke-dasharray:none"
           d="m 281.5914,283.3746 h -8.4773" />
        <path
           id="path54"
           style="fill:none;stroke:#ffffff;stroke-width:2.0001;stroke-linecap:butt;stroke-linejoin:miter;stroke-dasharray:none"
           d="m 281.5911,211.8316 h -4.2386" />
        <path
           id="path56"
           style="fill:none;stroke:#ffffff;stroke-width:2.0001;stroke-linecap:butt;stroke-linejoin:miter;stroke-dasharray:none"
           d="m 281.5914,219.7811 h -4.2389" />
        <path
           id="path58"
           style="fill:none;stroke:#ffffff;stroke-width:2.0001;stroke-linecap:butt;stroke-linejoin:miter;stroke-dasharray:none"
           d="m 281.5914,227.7302 h -4.2389" />
        <path
           id="path60"
           style="fill:none;stroke:#ffffff;stroke-width:2.0001;stroke-linecap:butt;stroke-linejoin:miter;stroke-dasharray:none"
           d="m 281.5914,235.6792 h -4.2389" />
        <path
           id="path62"
           style="fill:none;stroke:#ffffff;stroke-width:2.0001;stroke-linecap:butt;stroke-linejoin:miter;stroke-dasharray:none"
           d="m 281.5914,243.6283 h -4.2389" />
        <path
           id="path64"
           style="fill:none;stroke:#ffffff;stroke-width:2.0001;stroke-linecap:butt;stroke-linejoin:miter;stroke-dasharray:none"
           d="m 281.5914,251.5778 h -4.2389" />
        <path
           id="path66"
           style="fill:none;stroke:#ffffff;stroke-width:2.0001;stroke-linecap:butt;stroke-linejoin:miter;stroke-dasharray:none"
           d="m 281.5914,259.5269 h -4.2389" />
        <path
           id="path68"
           style="fill:none;stroke:#ffffff;stroke-width:2.0001;stroke-linecap:butt;stroke-linejoin:miter;stroke-dasharray:none"
           d="m 281.5914,267.476 h -4.2389" />
        <path
           id="path70"
           style="fill:none;stroke:#ffffff;stroke-width:2.0001;stroke-linecap:butt;stroke-linejoin:miter;stroke-dasharray:none"
           d="m 281.5911,275.4255 h -4.2386" />
        <path
           id="path72"
           style="fill:none;stroke:#ffffff;stroke-width:2.0001;stroke-linecap:butt;stroke-linejoin:miter;stroke-dasharray:none"
           d="m 281.5911,211.8316 h -4.2386" />
      </g>
      <g
         id="Layer1005">
        <path
           id="path75"
           style="fill:none;stroke:#ffffff;stroke-width:2.0001;stroke-linecap:butt;stroke-linejoin:miter;stroke-dasharray:none"
           d="m 281.5914,362.867 h -8.4773" />
        <path
           id="path77"
           style="fill:none;stroke:#ffffff;stroke-width:2.0001;stroke-linecap:butt;stroke-linejoin:miter;stroke-dasharray:none"
           d="m 281.5911,291.324 h -4.2386" />
        <path
           id="path79"
           style="fill:none;stroke:#ffffff;stroke-width:2.0001;stroke-linecap:butt;stroke-linejoin:miter;stroke-dasharray:none"
           d="m 281.5914,299.2735 h -4.2389" />
        <path
           id="path81"
           style="fill:none;stroke:#ffffff;stroke-width:2.0001;stroke-linecap:butt;stroke-linejoin:miter;stroke-dasharray:none"
           d="m 281.5914,307.2226 h -4.2389" />
        <path
           id="path83"
           style="fill:none;stroke:#ffffff;stroke-width:2.0001;stroke-linecap:butt;stroke-linejoin:miter;stroke-dasharray:none"
           d="m 281.5914,315.1717 h -4.2389" />
        <path
           id="path85"
           style="fill:none;stroke:#ffffff;stroke-width:2.0001;stroke-linecap:butt;stroke-linejoin:miter;stroke-dasharray:none"
           d="m 281.5914,323.1208 h -4.2389" />
        <path
           id="path87"
           style="fill:none;stroke:#ffffff;stroke-width:2.0001;stroke-linecap:butt;stroke-linejoin:miter;stroke-dasharray:none"
           d="m 281.5914,331.0703 h -4.2389" />
        <path
           id="path89"
           style="fill:none;stroke:#ffffff;stroke-width:2.0001;stroke-linecap:butt;stroke-linejoin:miter;stroke-dasharray:none"
           d="m 281.5914,339.0194 h -4.2389" />
        <path
           id="path91"
           style="fill:none;stroke:#ffffff;stroke-width:2.0001;stroke-linecap:butt;stroke-linejoin:miter;stroke-dasharray:none"
           d="m 281.5914,346.9685 h -4.2389" />
        <path
           id="path93"
           style="fill:none;stroke:#ffffff;stroke-width:2.0001;stroke-linecap:butt;stroke-linejoin:miter;stroke-dasharray:none"
           d="m 281.5911,354.9179 h -4.2386" />
        <path
           id="path95"
           style="fill:none;stroke:#ffffff;stroke-width:2.0001;stroke-linecap:butt;stroke-linejoin:miter;stroke-dasharray:none"
           d="m 281.5911,291.324 h -4.2386" />
      </g>
      <g
         id="Layer1006">
        <path
           id="path98"
           style="fill:none;stroke:#ffffff;stroke-width:2.0001;stroke-linecap:butt;stroke-linejoin:miter;stroke-dasharray:none"
           d="m 281.5914,442.3591 h -8.4773" />
        <path
           id="path100"
           style="fill:none;stroke:#ffffff;stroke-width:2.0001;stroke-linecap:butt;stroke-linejoin:miter;stroke-dasharray:none"
           d="m 281.5911,370.8161 h -4.2386" />
        <path
           id="path102"
           style="fill:none;stroke:#ffffff;stroke-width:2.0001;stroke-linecap:butt;stroke-linejoin:miter;stroke-dasharray:none"
           d="m 281.5914,378.7656 h -4.2389" />
        <path
           id="path104"
           style="fill:none;stroke:#ffffff;stroke-width:2.0001;stroke-linecap:butt;stroke-linejoin:miter;stroke-dasharray:none"
           d="m 281.5914,386.7147 h -4.2389" />
        <path
           id="path106"
           style="fill:none;stroke:#ffffff;stroke-width:2.0001;stroke-linecap:butt;stroke-linejoin:miter;stroke-dasharray:none"
           d="m 281.5914,394.6638 h -4.2389" />
        <path
           id="path108"
           style="fill:none;stroke:#ffffff;stroke-width:2.0001;stroke-linecap:butt;stroke-linejoin:miter;stroke-dasharray:none"
           d="m 281.5914,402.6129 h -4.2389" />
        <path
           id="path110"
           style="fill:none;stroke:#ffffff;stroke-width:2.0001;stroke-linecap:butt;stroke-linejoin:miter;stroke-dasharray:none"
           d="m 281.5914,410.5623 h -4.2389" />
        <path
           id="path112"
           style="fill:none;stroke:#ffffff;stroke-width:2.0001;stroke-linecap:butt;stroke-linejoin:miter;stroke-dasharray:none"
           d="m 281.5914,418.5114 h -4.2389" />
        <path
           id="path114"
           style="fill:none;stroke:#ffffff;stroke-width:2.0001;stroke-linecap:butt;stroke-linejoin:miter;stroke-dasharray:none"
           d="m 281.5914,426.4605 h -4.2389" />
        <path
           id="path116"
           style="fill:none;stroke:#ffffff;stroke-width:2.0001;stroke-linecap:butt;stroke-linejoin:miter;stroke-dasharray:none"
           d="m 281.5911,434.41 h -4.2386" />
        <path
           id="path118"
           style="fill:none;stroke:#ffffff;stroke-width:2.0001;stroke-linecap:butt;stroke-linejoin:miter;stroke-dasharray:none"
           d="m 281.5911,370.8161 h -4.2386" />
      </g>
      <g
         id="Layer1007">
        <path
           id="path121"
           style="fill:none;stroke:#ffffff;stroke-width:2.0001;stroke-linecap:butt;stroke-linejoin:miter;stroke-dasharray:none"
           d="m 281.5914,521.8516 h -8.4773" />
        <path
           id="path123"
           style="fill:none;stroke:#ffffff;stroke-width:2.0001;stroke-linecap:butt;stroke-linejoin:miter;stroke-dasharray:none"
           d="m 281.5911,450.3086 h -4.2386" />
        <path
           id="path125"
           style="fill:none;stroke:#ffffff;stroke-width:2.0001;stroke-linecap:butt;stroke-linejoin:miter;stroke-dasharray:none"
           d="m 281.5914,458.258 h -4.2389" />
        <path
           id="path127"
           style="fill:none;stroke:#ffffff;stroke-width:2.0001;stroke-linecap:butt;stroke-linejoin:miter;stroke-dasharray:none"
           d="m 281.5914,466.2071 h -4.2389" />
        <path
           id="path129"
           style="fill:none;stroke:#ffffff;stroke-width:2.0001;stroke-linecap:butt;stroke-linejoin:miter;stroke-dasharray:none"
           d="m 281.5914,474.1562 h -4.2389" />
        <path
           id="path131"
           style="fill:none;stroke:#ffffff;stroke-width:2.0001;stroke-linecap:butt;stroke-linejoin:miter;stroke-dasharray:none"
           d="m 281.5914,482.1053 h -4.2389" />
        <path
           id="path133"
           style="fill:none;stroke:#ffffff;stroke-width:2.0001;stroke-linecap:butt;stroke-linejoin:miter;stroke-dasharray:none"
           d="m 281.5914,490.0548 h -4.2389" />
        <path
           id="path135"
           style="fill:none;stroke:#ffffff;stroke-width:2.0001;stroke-linecap:butt;stroke-linejoin:miter;stroke-dasharray:none"
           d="m 281.5914,498.0039 h -4.2389" />
        <path
           id="path137"
           style="fill:none;stroke:#ffffff;stroke-width:2.0001;stroke-linecap:butt;stroke-linejoin:miter;stroke-dasharray:none"
           d="m 281.5914,505.953 h -4.2389" />
        <path
           id="path139"
           style="fill:none;stroke:#ffffff;stroke-width:2.0001;stroke-linecap:butt;stroke-linejoin:miter;stroke-dasharray:none"
           d="m 281.5911,513.9025 h -4.2386" />
        <path
           id="path141"
           style="fill:none;stroke:#ffffff;stroke-width:2.0001;stroke-linecap:butt;stroke-linejoin:miter;stroke-dasharray:none"
           d="m 281.5911,450.3086 h -4.2386" />
      </g>
      <g
         id="Layer1008">
        <path
           id="path144"
           style="fill:none;stroke:#ffffff;stroke-width:2.0001;stroke-linecap:butt;stroke-linejoin:miter;stroke-dasharray:none"
           d="m 281.5914,601.3436 h -8.4773" />
        <path
           id="path146"
           style="fill:none;stroke:#ffffff;stroke-width:2.0001;stroke-linecap:butt;stroke-linejoin:miter;stroke-dasharray:none"
           d="m 281.5911,529.8006 h -4.2386" />
        <path
           id="path148"
           style="fill:none;stroke:#ffffff;stroke-width:2.0001;stroke-linecap:butt;stroke-linejoin:miter;stroke-dasharray:none"
           d="m 281.5914,537.7501 h -4.2389" />
        <path
           id="path150"
           style="fill:none;stroke:#ffffff;stroke-width:2.0001;stroke-linecap:butt;stroke-linejoin:miter;stroke-dasharray:none"
           d="m 281.5914,545.6992 h -4.2389" />
        <path
           id="path152"
           style="fill:none;stroke:#ffffff;stroke-width:2.0001;stroke-linecap:butt;stroke-linejoin:miter;stroke-dasharray:none"
           d="m 281.5914,553.6483 h -4.2389" />
        <path
           id="path154"
           style="fill:none;stroke:#ffffff;stroke-width:2.0001;stroke-linecap:butt;stroke-linejoin:miter;stroke-dasharray:none"
           d="m 281.5914,561.5974 h -4.2389" />
        <path
           id="path156"
           style="fill:none;stroke:#ffffff;stroke-width:2.0001;stroke-linecap:butt;stroke-linejoin:miter;stroke-dasharray:none"
           d="m 281.5914,569.5469 h -4.2389" />
        <path
           id="path158"
           style="fill:none;stroke:#ffffff;stroke-width:2.0001;stroke-linecap:butt;stroke-linejoin:miter;stroke-dasharray:none"
           d="m 281.5914,577.496 h -4.2389" />
        <path
           id="path160"
           style="fill:none;stroke:#ffffff;stroke-width:2.0001;stroke-linecap:butt;stroke-linejoin:miter;stroke-dasharray:none"
           d="m 281.5914,585.4451 h -4.2389" />
        <path
           id="path162"
           style="fill:none;stroke:#ffffff;stroke-width:2.0001;stroke-linecap:butt;stroke-linejoin:miter;stroke-dasharray:none"
           d="m 281.5911,593.3945 h -4.2386" />
        <path
           id="path164"
           style="fill:none;stroke:#ffffff;stroke-width:2.0001;stroke-linecap:butt;stroke-linejoin:miter;stroke-dasharray:none"
           d="m 281.5911,529.8006 h -4.2386" />
      </g>
      <g
         id="Layer1009">
        <path
           id="path167"
           style="fill:none;stroke:#ffffff;stroke-width:2.0001;stroke-linecap:butt;stroke-linejoin:miter;stroke-dasharray:none"
           d="m 281.5914,680.8361 h -8.4773" />
        <path
           id="path169"
           style="fill:none;stroke:#ffffff;stroke-width:2.0001;stroke-linecap:butt;stroke-linejoin:miter;stroke-dasharray:none"
           d="m 281.5911,609.2931 h -4.2386" />
        <path
           id="path171"
           style="fill:none;stroke:#ffffff;stroke-width:2.0001;stroke-linecap:butt;stroke-linejoin:miter;stroke-dasharray:none"
           d="m 281.5914,617.2426 h -4.2389" />
        <path
           id="path173"
           style="fill:none;stroke:#ffffff;stroke-width:2.0001;stroke-linecap:butt;stroke-linejoin:miter;stroke-dasharray:none"
           d="m 281.5914,625.1917 h -4.2389" />
        <path
           id="path175"
           style="fill:none;stroke:#ffffff;stroke-width:2.0001;stroke-linecap:butt;stroke-linejoin:miter;stroke-dasharray:none"
           d="m 281.5914,633.1408 h -4.2389" />
        <path
           id="path177"
           style="fill:none;stroke:#ffffff;stroke-width:2.0001;stroke-linecap:butt;stroke-linejoin:miter;stroke-dasharray:none"
           d="m 281.5914,641.0899 h -4.2389" />
        <path
           id="path179"
           style="fill:none;stroke:#ffffff;stroke-width:2.0001;stroke-linecap:butt;stroke-linejoin:miter;stroke-dasharray:none"
           d="m 281.5914,649.0393 h -4.2389" />
        <path
           id="path181"
           style="fill:none;stroke:#ffffff;stroke-width:2.0001;stroke-linecap:butt;stroke-linejoin:miter;stroke-dasharray:none"
           d="m 281.5914,656.9884 h -4.2389" />
        <path
           id="path183"
           style="fill:none;stroke:#ffffff;stroke-width:2.0001;stroke-linecap:butt;stroke-linejoin:miter;stroke-dasharray:none"
           d="m 281.5914,664.9375 h -4.2389" />
        <path
           id="path185"
           style="fill:none;stroke:#ffffff;stroke-width:2.0001;stroke-linecap:butt;stroke-linejoin:miter;stroke-dasharray:none"
           d="m 281.5911,672.887 h -4.2386" />
        <path
           id="path187"
           style="fill:none;stroke:#ffffff;stroke-width:2.0001;stroke-linecap:butt;stroke-linejoin:miter;stroke-dasharray:none"
           d="m 281.5911,609.2931 h -4.2386" />
      </g>
    </g>
    <g
       id="Layer1010">
      <path
         id="path191"
         style="fill:#00ff00;fill-rule:evenodd"
         d="m 236.2144,680.8359 -13.3937,-26.8353 h 26.7874 z" />
      <path
         id="path193"
         style="fill:#00ff00;fill-rule:evenodd"
         d="m 242.5164,71.7333 h -12.604 v 582.2673 h 12.604 z" />
      <path
         id="path195"
         style="fill:#00ff00;fill-rule:evenodd"
         d="m 236.2144,44.898 -13.3937,26.8353 h 26.7874 z" />
    </g>
  </g>
</svg>
