<?xml version="1.0" encoding="UTF-8" standalone="no"?>
<svg
   xmlns:dc="http://purl.org/dc/elements/1.1/"
   xmlns:cc="http://creativecommons.org/ns#"
   xmlns:rdf="http://www.w3.org/1999/02/22-rdf-syntax-ns#"
   xmlns:svg="http://www.w3.org/2000/svg"
   xmlns="http://www.w3.org/2000/svg"
   xmlns:sodipodi="http://sodipodi.sourceforge.net/DTD/sodipodi-0.dtd"
   xmlns:inkscape="http://www.inkscape.org/namespaces/inkscape"
   inkscape:version="1.0 (4035a4fb49, 2020-05-01)"
   sodipodi:docname="Espeon.svg"
   viewBox="0 0 725.66931 725.66931"
   id="svg31"
   height=""
   width=""
   version="1.1">
  <metadata
     id="metadata37">
    <rdf:RDF>
      <cc:Work
         rdf:about="">
        <dc:format>image/svg+xml</dc:format>
        <dc:type
           rdf:resource="http://purl.org/dc/dcmitype/StillImage" />
        <dc:title></dc:title>
      </cc:Work>
    </rdf:RDF>
  </metadata>
  <defs
     id="defs35" />
  <sodipodi:namedview
     inkscape:current-layer="svg31"
     inkscape:window-maximized="1"
     inkscape:window-y="-8"
     inkscape:window-x="-8"
     inkscape:cy="362.83466"
     inkscape:cx="362.83466"
     inkscape:zoom="0.79650605"
     showgrid="false"
     id="namedview33"
     inkscape:window-height="746"
     inkscape:window-width="1304"
     inkscape:pageshadow="2"
     inkscape:pageopacity="0"
     guidetolerance="10"
     gridtolerance="10"
     objecttolerance="10"
     borderopacity="1"
     bordercolor="#666666"
     pagecolor="#ffffff" />
  <g
     id="Layer1000">
    <path
       id="path2"
       style="fill:#5d7d99;fill-rule:evenodd;stroke:#000000;stroke-width:2.0001;stroke-linecap:round;stroke-linejoin:round;stroke-dasharray:none"
       d="m 404.7758,438.9047 48.1451,15.3509 c 42.0164,-11.6372 81.4427,-27.8791 118.9638,-47.5102 l 59.1702,-37.5228 -37.4633,-16.1087 -189.9395,35.9647 z" />
    <path
       id="path4"
       style="fill:#5d7d99;fill-rule:evenodd;stroke:#000000;stroke-width:2.0001;stroke-linecap:round;stroke-linejoin:round;stroke-dasharray:none"
       d="m 174.1888,194.0819 6.0846,55.8138 27.5591,93.408 17.4075,10.2989 21.6275,-3.2985 23.9769,-37.089 -80.1719,-135.9918 z" />
    <path
       id="path6"
       style="fill:#ddc2d0;fill-rule:evenodd;stroke:#000000;stroke-width:2.0001;stroke-linecap:round;stroke-linejoin:round;stroke-dasharray:none"
       d="m 215.1144,381.7667 c -8.4322,48.3915 10.3063,87.7255 52.8233,119.1332 61.2946,7.1652 100.9238,-1.9189 126.2514,-21.7284 -3.5653,21.1235 -1.4289,40.6923 5.9939,58.8173 8.8247,-13.7374 12.8312,-27.9811 13.8609,-41.3973 22.7614,48.1751 59.3825,69.8202 99.6528,84.4802 -7.0519,-66.2962 -36.0287,-121.6451 -96.655,-149.104 2.4836,-10.9746 2.8862,-21.743 0.3744,-32.2187 67.7031,-22.6017 133.9756,-29.107 199.6794,-29.2214 l -47.5782,37.0889 c 44.3425,-16.0901 78.7865,-41.3537 102.6495,-76.4253 L 624.2137,343.554 C 563.0912,327.1117 488.2167,320.2217 403.929,323.5107 380.4183,304.3066 355.2617,290.7012 326.755,288.4833 290.2053,244.1793 249.0418,201.4148 200.5036,161.1077 c -0.4593,-15.8698 -4.3486,-30.7716 -10.3029,-43.6447 -32.5251,41.5627 -16.5732,83.6952 -9.9273,132.4327 l -0.3744,-52.4484 c 29.9475,38.1373 53.7216,78.8731 74.1773,121.0062 -10.9729,8.4781 -18.9582,18.2248 -25.3395,28.7123 -67.5774,-14.959 -121.4435,-5.2656 -160.8534,32.3529 31.3119,11.6713 64.5932,14.8056 98.9035,13.4871 l -16.3739,25.4403 c 22.348,-6.1519 45.9748,-19.7879 64.7014,-36.6794 z" />
    <path
       id="path8"
       style="fill:none;stroke:#000000;stroke-width:2.0001;stroke-linecap:round;stroke-linejoin:round;stroke-dasharray:none"
       d="m 215.1144,381.7667 c 1.848,-11.9715 8.7827,-28.1505 16.6247,-39.1234" />
    <path
       id="path10"
       style="fill:none;stroke:#000000;stroke-width:2.0001;stroke-linecap:round;stroke-linejoin:round;stroke-dasharray:none"
       d="m 254.0763,318.4535 c 21.1331,-16.1773 45.0527,-26.7804 72.6787,-29.9702" />
    <path
       id="path12"
       style="fill:#9d3648;fill-rule:evenodd;stroke:#000000;stroke-width:2.0001;stroke-linecap:round;stroke-linejoin:round;stroke-dasharray:none"
       d="m 294.0815,370.1124 c 9.3361,0 16.9051,7.569 16.9051,16.9051 0,9.3361 -7.569,16.9051 -16.9051,16.9051 -9.3361,0 -16.9051,-7.569 -16.9051,-16.9051 0,-9.3361 7.569,-16.9051 16.9051,-16.9051 z" />
    <path
       id="path14"
       style="fill:none;stroke:#000000;stroke-width:2.0001;stroke-linecap:round;stroke-linejoin:round;stroke-dasharray:none"
       d="m 343.3373,406.6899 c -11.1513,7.4875 -20.4438,16.1779 -27.3485,26.4117" />
    <path
       id="path16"
       style="fill:none;stroke:#000000;stroke-width:2.0001;stroke-linecap:round;stroke-linejoin:round;stroke-dasharray:none"
       d="m 259.7939,391.4233 c -2.4655,4.8714 -3.8418,10.8319 -4.3085,17.7015" />
    <path
       id="path18"
       style="fill:#000000;fill-rule:evenodd;stroke:#000000;stroke-width:0.5;stroke-linecap:round;stroke-linejoin:round;stroke-dasharray:none"
       d="m 251.4602,470.7564 12.7378,6.8372 c -6.0999,2.4705 -10.6348,0.9334 -12.7378,-6.8372 z" />
    <path
       id="path20"
       style="fill:#584779;fill-rule:evenodd;stroke:#000000;stroke-width:2.0001;stroke-linecap:round;stroke-linejoin:round;stroke-dasharray:none"
       d="m 243.4982,431.8924 c -23.3646,-9.1735 -28.1471,-42.5267 -4.121,-76.4253 6.0942,24.2323 7.5181,49.6953 4.121,76.4253 z" />
    <path
       id="path22"
       style="fill:#ffffff;fill-rule:evenodd"
       d="m 242.5761,376.7044 c -14.9069,10.6297 -16.6106,29.038 1.4193,35.1401 0.247,-12.1532 0.002,-23.206 -1.4193,-35.1401 z" />
    <path
       id="path24"
       style="fill:#584779;fill-rule:evenodd;stroke:#000000;stroke-width:2.0001;stroke-linecap:round;stroke-linejoin:round;stroke-dasharray:none"
       d="m 387.9216,423.6517 c -32.7465,-0.2436 -59.1656,10.3589 -77.925,34.0922 36.88,30.6969 75.9507,1.2138 77.925,-34.0922 z" />
    <path
       id="path26"
       style="fill:#ffffff;fill-rule:evenodd"
       d="m 359.0745,431.8935 c -5.4213,-5.47 -38.7359,8.5981 -32.0318,18.1699 11.3405,16.7929 39.0486,-0.746 32.0318,-18.1699 z" />
    <path
       id="path28"
       style="fill:#ffffff;fill-rule:evenodd;stroke:#000000;stroke-width:2.0001;stroke-linecap:round;stroke-linejoin:round;stroke-dasharray:none"
       d="m 287.8256,375.557 a 5.0353,5.0353 0 0 1 5.0354,5.0353 5.0353,5.0353 0 1 1 -5.0354,-5.0353 z" />
  </g>
</svg>
