<?xml version="1.0" encoding="UTF-8" standalone="no"?>
<svg
   xmlns:dc="http://purl.org/dc/elements/1.1/"
   xmlns:cc="http://creativecommons.org/ns#"
   xmlns:rdf="http://www.w3.org/1999/02/22-rdf-syntax-ns#"
   xmlns:svg="http://www.w3.org/2000/svg"
   xmlns="http://www.w3.org/2000/svg"
   xmlns:sodipodi="http://sodipodi.sourceforge.net/DTD/sodipodi-0.dtd"
   xmlns:inkscape="http://www.inkscape.org/namespaces/inkscape"
   inkscape:version="1.0 (4035a4fb49, 2020-05-01)"
   sodipodi:docname="Flareon.svg"
   viewBox="0 0 725.66931 725.66931"
   id="svg65"
   height=""
   width=""
   version="1.1">
  <metadata
     id="metadata71">
    <rdf:RDF>
      <cc:Work
         rdf:about="">
        <dc:format>image/svg+xml</dc:format>
        <dc:type
           rdf:resource="http://purl.org/dc/dcmitype/StillImage" />
        <dc:title></dc:title>
      </cc:Work>
    </rdf:RDF>
  </metadata>
  <defs
     id="defs69" />
  <sodipodi:namedview
     inkscape:current-layer="svg65"
     inkscape:window-maximized="1"
     inkscape:window-y="-8"
     inkscape:window-x="-8"
     inkscape:cy="362.83466"
     inkscape:cx="362.83466"
     inkscape:zoom="0.79650605"
     showgrid="false"
     id="namedview67"
     inkscape:window-height="746"
     inkscape:window-width="1304"
     inkscape:pageshadow="2"
     inkscape:pageopacity="0"
     guidetolerance="10"
     gridtolerance="10"
     objecttolerance="10"
     borderopacity="1"
     bordercolor="#666666"
     pagecolor="#ffffff" />
  <g
     id="Layer1000">
    <path
       id="path2"
       style="fill:#f4e19f;fill-rule:evenodd;stroke:#000000;stroke-width:2.0001;stroke-linecap:round;stroke-linejoin:miter;stroke-dasharray:none"
       d="m 190.2176,388.9469 22.2534,123.6324 5.6521,19.4278 -13.4233,-9.5371 13.0697,32.8505 -0.3529,20.4878 18.0147,12.3632 10.2442,16.2488 15.5422,1.7665 8.4777,7.7711 -1.766,7.4176 22.9603,-1.413 -0.3535,21.9008 13.7762,-14.4827 24.7264,28.9655 -3.8856,-15.5423 34.6171,18.3678 30.0249,-14.1292 44.8613,-13.7762 37.4425,-13.7762 -16.6017,-3.1791 27.1989,-11.3037 -6.3581,-2.4725 14.1292,-10.5972 -9.1841,-0.7065 16.6022,-9.1841 42.3882,-46.2738 -11.6567,0.7066 20.1343,-34.6171 -13.7762,5.2986 0.3535,-6.3581 11.3032,-20.1343 -3.8856,-15.5428 0.3535,-29.3184 -8.0237,-23.9825 2.3722,-46.6646 -13.4233,14.4827 -1.766,-9.8906 -5.6521,16.6022 -4.6428,-31.0022 -117.3988,-75.0998 -26.3172,7.549 5.6521,-14.8357 -26.6659,13.4547 z" />
    <path
       id="path4"
       style="fill:#000000;fill-rule:evenodd;stroke:#000000;stroke-width:2.0001;stroke-linecap:round;stroke-linejoin:miter;stroke-dasharray:none"
       d="m 173.8407,451.942 c -7.911,-12.7301 -7.3642,-26.8321 2.1521,-42.3882 16.6712,18.3021 16.5014,32.5637 -2.1521,42.3882 z" />
    <path
       id="path6"
       style="fill:#ec804d;fill-rule:evenodd;stroke:#000000;stroke-width:2.0001;stroke-linecap:round;stroke-linejoin:miter;stroke-dasharray:none"
       d="m 177.4502,443.0745 c -18.7608,39.8174 2.9248,63.2098 47.6867,69.7638 3.452,8.231 10.3243,13.6107 19.4284,17.1321 88.9507,22.6784 169.4992,-49.2889 156.4834,-133.8766 36.6196,-4.4592 88.3078,-3.899 110.9152,-42.7412 31.901,-46.7634 58.3704,-113.3359 93.9167,-174.1895 l -33.1597,17.7061 2.4725,-13.4227 c -38.8502,25.4948 -81.8381,48.9208 -128.2245,70.6471 l 4.2391,-14.4828 -18.3683,12.0102 3.179,-16.2492 c -34.6314,34.123 -66.6291,69.3745 -94.6669,106.3241 -5.3819,9.6808 -7.1351,19.9346 -9.8907,29.6715 l -1.5236,-119.7939 19.8919,-34.57 34.617,-153.3039 -10.5971,9.1841 1.766,-8.1246 c -32.9616,28.6696 -65.1792,61.6995 -93.4307,96.9627 l -5.4748,-12.8924 -5.2986,14.4828 -6.6235,-8.4782 c -1.8381,32.5482 -14.6157,67.8301 -36.1182,110.2097 -3.1566,6.0222 -4.379,13.9952 -4.2391,23.3134 l -43.4476,95.727 c -5.6959,12.6334 -6.3138,33.1682 -3.5326,58.9904 z" />
    <path
       id="path8"
       style="fill:none;stroke:#000000;stroke-width:2.0001;stroke-linecap:round;stroke-linejoin:miter;stroke-dasharray:none"
       d="m 401.0487,396.0938 -26.6221,0.7102" />
    <path
       id="path10"
       style="fill:#000000;fill-rule:evenodd;stroke:#000000;stroke-width:2.0001;stroke-linecap:round;stroke-linejoin:miter;stroke-dasharray:none"
       d="m 383.6107,356.5354 -15.5428,30.3779 C 487.5996,365.6106 494.7267,363.6454 566.233,220.5392 450.2606,267.3443 369.827,309.8483 346.1676,378.0827 Z" />
    <path
       id="path12"
       style="fill:#c199aa;fill-rule:evenodd;stroke:#000000;stroke-width:2.0001;stroke-linecap:round;stroke-linejoin:miter;stroke-dasharray:none"
       d="m 247.3134,530.6416 c 2.3902,-11.0377 -4.8426,-19.3055 -22.1765,-17.8033 4.9814,9.7476 13.6118,15.7788 22.1765,17.8033 z" />
    <path
       id="path14"
       style="fill:#000000;fill-rule:evenodd;stroke:#000000;stroke-width:2.0001;stroke-linecap:round;stroke-linejoin:miter;stroke-dasharray:none"
       d="m 196.5731,483.5252 c -5.7456,11.8607 -13.0932,9.9222 -21.9009,-4.592 7.3001,3.5843 14.6008,5.2462 21.9009,4.592 z" />
    <path
       id="path16"
       style="fill:#f4e19f;fill-rule:evenodd;stroke:#000000;stroke-width:2.0001;stroke-linecap:round;stroke-linejoin:miter;stroke-dasharray:none"
       d="m 203.6382,299.9304 c -83.5288,102.6277 49.0127,168.9193 102.0851,87.9559 54.8336,-47.519 57.2607,-152.53 -2.4725,-169.9066 27.1284,68.307 -68.7748,55.7067 -99.6126,81.9507 z" />
    <path
       id="path18"
       style="fill:none;stroke:#000000;stroke-width:2.0001;stroke-linecap:round;stroke-linejoin:miter;stroke-dasharray:none"
       d="m 303.2508,217.9797 c 9.0971,7.181 13.8643,14.6018 14.4832,22.2538" />
    <path
       id="path20"
       style="fill:none;stroke:#000000;stroke-width:2.0001;stroke-linecap:round;stroke-linejoin:miter;stroke-dasharray:none"
       d="m 305.7233,387.8863 c 6.5194,-15.8188 6.8451,-29.1609 1.5903,-40.2702" />
    <path
       id="path22"
       style="fill:none;stroke:#000000;stroke-width:2.0001;stroke-linecap:round;stroke-linejoin:miter;stroke-dasharray:none"
       d="M 229.0738,569.8032 217.7695,555.3205" />
    <path
       id="path24"
       style="fill:none;stroke:#000000;stroke-width:2.0001;stroke-linecap:round;stroke-linejoin:miter;stroke-dasharray:none"
       d="m 249.5616,587.465 -14.1303,0.7065" />
    <path
       id="path26"
       style="fill:none;stroke:#000000;stroke-width:2.0001;stroke-linecap:round;stroke-linejoin:miter;stroke-dasharray:none"
       d="m 291.3314,603.3607 -0.4417,16.6018" />
    <path
       id="path28"
       style="fill:none;stroke:#000000;stroke-width:2.0001;stroke-linecap:round;stroke-linejoin:miter;stroke-dasharray:none"
       d="m 389.7952,645.0424 -22.0728,-2.6498" />
    <path
       id="path30"
       style="fill:none;stroke:#000000;stroke-width:2.0001;stroke-linecap:round;stroke-linejoin:miter;stroke-dasharray:none"
       d="m 437.2924,630.2964 -24.971,-1.5919" />
    <path
       id="path32"
       style="fill:none;stroke:#000000;stroke-width:2.0001;stroke-linecap:round;stroke-linejoin:miter;stroke-dasharray:none"
       d="m 455.4973,614.3109 -6.969,-0.0892" />
    <path
       id="path34"
       style="fill:none;stroke:#000000;stroke-width:2.0001;stroke-linecap:round;stroke-linejoin:miter;stroke-dasharray:none"
       d="m 481.2832,589.231 -7.4988,-0.2659" />
    <path
       id="path36"
       style="fill:none;stroke:#000000;stroke-width:2.0001;stroke-linecap:round;stroke-linejoin:miter;stroke-dasharray:none"
       d="m 528.6169,534.4797 -11.2076,4.6785" />
    <path
       id="path38"
       style="fill:none;stroke:#000000;stroke-width:2.0001;stroke-linecap:round;stroke-linejoin:miter;stroke-dasharray:none"
       d="m 534.975,505.1612 -7.8518,5.3851" />
    <path
       id="path40"
       style="fill:none;stroke:#000000;stroke-width:2.0001;stroke-linecap:round;stroke-linejoin:miter;stroke-dasharray:none"
       d="m 542.7461,463.126 -5.0257,12.626" />
    <path
       id="path42"
       style="fill:none;stroke:#000000;stroke-width:2.0001;stroke-linecap:round;stroke-linejoin:miter;stroke-dasharray:none"
       d="m 535.0759,409.8251 -2.8308,26.0113" />
    <path
       id="path44"
       style="fill:none;stroke:#000000;stroke-width:2.0001;stroke-linecap:round;stroke-linejoin:miter;stroke-dasharray:none"
       d="m 516.6067,384.3548 -0.0812,9.9751" />
    <path
       id="path46"
       style="fill:none;stroke:#000000;stroke-width:2.0001;stroke-linecap:round;stroke-linejoin:miter;stroke-dasharray:none"
       d="m 368.2479,285.8018 -6.616,3.6185" />
    <path
       id="path48"
       style="fill:none;stroke:#000000;stroke-width:2.0001;stroke-linecap:round;stroke-linejoin:miter;stroke-dasharray:none"
       d="m 432.8397,251.621 -4.4457,9.0112" />
    <path
       id="path50"
       style="fill:none;stroke:#000000;stroke-width:2.0001;stroke-linecap:round;stroke-linejoin:miter;stroke-dasharray:none"
       d="m 271.4112,163.3122 1.9123,12.5442" />
    <path
       id="path52"
       style="fill:none;stroke:#000000;stroke-width:2.0001;stroke-linecap:round;stroke-linejoin:miter;stroke-dasharray:none"
       d="m 282.1846,161.7218 0.8528,3.5379" />
    <path
       id="path54"
       style="fill:none;stroke:#000000;stroke-width:2.0001;stroke-linecap:round;stroke-linejoin:miter;stroke-dasharray:none"
       d="m 373.8493,72.8837 -3.3868,5.8332" />
    <path
       id="path56"
       style="fill:#ffffff;fill-rule:evenodd"
       d="m 173.5801,440.963 c 3.3088,-3.5379 2.5569,-9.0693 -0.1767,-13.953 -2.2077,4.8895 -2.0902,9.535 0.1767,13.953 z" />
    <path
       id="path58"
       style="fill:#000000;fill-rule:evenodd;stroke:#000000;stroke-width:2.0001;stroke-linecap:round;stroke-linejoin:miter;stroke-dasharray:none"
       d="m 321.2356,428.9538 c -38.3568,-0.4074 -61.0453,0.3856 -74.1802,37.6194 31.0941,35.9788 77.527,14.1212 74.1802,-37.6194 z" />
    <path
       id="path60"
       style="fill:#0e4762;fill-rule:evenodd"
       d="m 305.428,466.9262 c -4.5472,-15.4211 -40.1672,-9.8362 -43.1833,5.8288 5.2825,16.8415 43.9047,10.9449 43.1833,-5.8288 z" />
    <path
       id="path62"
       style="fill:#ffffff;fill-rule:evenodd"
       d="m 305.0755,455.7992 c 12.0332,-1.6298 14.0491,-21.0362 1.766,-23.6674 -12.0203,4.3123 -11.4703,19.384 -1.766,23.6674 z" />
  </g>
</svg>
