<?xml version="1.0" encoding="UTF-8" standalone="no"?>
<svg
   xmlns:dc="http://purl.org/dc/elements/1.1/"
   xmlns:cc="http://creativecommons.org/ns#"
   xmlns:rdf="http://www.w3.org/1999/02/22-rdf-syntax-ns#"
   xmlns:svg="http://www.w3.org/2000/svg"
   xmlns="http://www.w3.org/2000/svg"
   xmlns:sodipodi="http://sodipodi.sourceforge.net/DTD/sodipodi-0.dtd"
   xmlns:inkscape="http://www.inkscape.org/namespaces/inkscape"
   inkscape:version="1.0 (4035a4fb49, 2020-05-01)"
   sodipodi:docname="Glaceon.svg"
   viewBox="0 0 725.66931 725.66931"
   id="svg49"
   height=""
   width=""
   version="1.1">
  <metadata
     id="metadata55">
    <rdf:RDF>
      <cc:Work
         rdf:about="">
        <dc:format>image/svg+xml</dc:format>
        <dc:type
           rdf:resource="http://purl.org/dc/dcmitype/StillImage" />
        <dc:title></dc:title>
      </cc:Work>
    </rdf:RDF>
  </metadata>
  <defs
     id="defs53" />
  <sodipodi:namedview
     inkscape:current-layer="svg49"
     inkscape:window-maximized="1"
     inkscape:window-y="-8"
     inkscape:window-x="-8"
     inkscape:cy="362.83466"
     inkscape:cx="362.83466"
     inkscape:zoom="0.79650605"
     showgrid="false"
     id="namedview51"
     inkscape:window-height="746"
     inkscape:window-width="1304"
     inkscape:pageshadow="2"
     inkscape:pageopacity="0"
     guidetolerance="10"
     gridtolerance="10"
     objecttolerance="10"
     borderopacity="1"
     bordercolor="#666666"
     pagecolor="#ffffff" />
  <g
     id="Layer1000">
    <path
       id="path2"
       style="fill:#376771;fill-rule:evenodd;stroke:#000000;stroke-width:2.0001;stroke-linecap:round;stroke-linejoin:round;stroke-dasharray:none"
       d="m 318.6808,381.9319 h 18.5615 v 38.7913 h -18.5615 z" />
    <path
       id="path4"
       style="fill:#376771;fill-rule:evenodd"
       d="m 423.7794,383.5885 c 2.5363,-5.8418 0.4888,-13.5292 -8.3294,-26.1618 l -3.6492,7.8155 7.2991,7.9303 z" />
    <path
       id="path6"
       style="fill:#224a4c;fill-rule:evenodd"
       d="m 339.2235,382.7145 -4.438,4.3309 c -6.9283,7.6673 -5.1809,18.3374 2.3514,31.0103 l 26.0703,5.1185 10.428,-23.9838 z" />
    <path
       id="path8"
       style="fill:#ffffff;fill-rule:evenodd"
       d="m 350.7979,411.8078 c 6.4976,-4.1612 7.0096,-13.9454 -1.6685,-17.9357 -7.0525,4.4551 -5.7755,13.2366 1.6685,17.9357 z" />
    <path
       id="path10"
       style="fill:#224a4c;fill-rule:evenodd"
       d="m 406.3778,371.4522 7.6452,-6.9049 c 4.0749,2.0059 8.494,9.0615 9.3705,18.403 l -7.8394,15.614 -14.39,-4.1707 z" />
    <path
       id="path12"
       style="fill:#ffffff;fill-rule:evenodd"
       d="m 414.5117,387.0939 c 5.3569,-4.3536 7.3073,-11.6652 -0.3127,-16.4753 -5.1879,4.0565 -6.4264,14.6693 0.3127,16.4753 z" />
    <path
       id="path14"
       style="fill:#bfe4dd;fill-rule:evenodd;stroke:#000000;stroke-width:2.0001;stroke-linecap:round;stroke-linejoin:round;stroke-dasharray:none"
       d="m 339.8579,448.6309 c 17.3108,1.5897 32.5679,-2.4233 46.8197,-9.1763 30.2846,-15.5723 42.7109,-31.1446 34.6205,-46.7163 l -0.6161,-4.3075 c 6.6073,-7.0374 4.8757,-16.6412 -4.0692,-28.4653 l -10.4614,-73.1814 c 9.9645,-29.2138 15.0527,-59.2039 15.5635,-91.7547 -29.0725,-57.7876 -61.0224,-94.4549 -95.1006,-115.5386 -8.8906,39.6923 -8.4902,80.8519 3.7539,123.8806 12.4143,25.0784 28.2452,47.7953 46.2207,68.423 -45.2395,-15.503 -86.488,-6.2743 -114.2092,25.009 -20.3213,-12.7492 -42.5211,-24.3746 -68.4054,-33.7855 -50.3592,9.5742 -95.2122,24.3494 -135.5596,43.3793 28.1979,26.6788 69.2667,47.5651 119.7098,64.2346 27.7143,-4.0408 50.2912,-9.0274 71.325,-14.1819 2.0746,18.159 8.4902,33.8398 18.3526,47.55 17.9477,26.0558 41.6016,40.2642 72.0558,44.631 z m 76.7549,-88.6654 c 12.5859,15.6246 10.1336,27.148 -4.8101,35.2642 -3.3301,-12.6886 -2.1478,-24.5235 4.8101,-35.2642 z m -51.9439,42.8767 c -14.0255,26.5262 -47.5014,19.7121 -41.9194,-18.9788 17.4792,3.6965 31.1124,10.2779 41.9194,18.9788 z" />
    <path
       id="path16"
       style="fill:#52b1c5;fill-rule:evenodd;stroke:#000000;stroke-width:2.0001;stroke-linecap:round;stroke-linejoin:round;stroke-dasharray:none"
       d="m 366.2353,203.7895 -3.3371,-54.641 c 13.9423,15.9211 26.2387,33.02 36.2884,51.7213 -0.0133,22.377 -2.2121,43.3882 -6.6741,62.983 z" />
    <path
       id="path18"
       style="fill:#52b1c5;fill-rule:evenodd;stroke:#000000;stroke-width:2.0001;stroke-linecap:round;stroke-linejoin:round;stroke-dasharray:none"
       d="m 195.0129,339.7684 c -21.2773,-7.5203 -43.0968,-16.672 -65.4864,-27.5295 25.3338,-7.1943 48.9121,-12.3399 70.9088,-15.6417 16.7591,6.9762 37.1724,16.6242 59.0216,27.3208 z" />
    <path
       id="path20"
       style="fill:none;stroke:#000000;stroke-width:2.0001;stroke-linecap:round;stroke-linejoin:round;stroke-dasharray:none"
       d="m 259.4569,323.918 8.5507,5.4224" />
    <path
       id="path22"
       style="fill:none;stroke:#000000;stroke-width:2.0001;stroke-linecap:round;stroke-linejoin:round;stroke-dasharray:none"
       d="m 392.5125,263.8528 2.5053,7.7177" />
    <path
       id="path24"
       style="fill:none;stroke:#000000;stroke-width:2.0001;stroke-linecap:round;stroke-linejoin:round;stroke-dasharray:none"
       d="M 249.4495,356.4499 287.82,343.5229" />
    <path
       id="path26"
       style="fill:#52b1c5;fill-rule:evenodd;stroke:#000000;stroke-width:2.0001;stroke-linecap:round;stroke-linejoin:round;stroke-dasharray:none"
       d="m 536.8341,481.376 -19.1869,-50.0528 c -3.5212,-9.129 -11.4937,-20.4858 -21.6896,-32.9519 -24.0026,-6.7737 -49.3427,-15.3648 -72.7867,-27.7054 -1.5512,-3.7369 -3.8535,-7.3703 -6.7182,-10.9262 -13.0084,19.6756 -49.8599,24.9347 -110.6969,15.6909 10.602,71.033 66.8327,110.625 126.8008,132.2232 11.1885,22.546 18.9819,46.1368 22.9413,70.9088 -26.5218,-0.1999 -52.8683,-2.1617 -78.8333,-7.9252 C 323.5453,516.2506 297.9775,449.0049 294.911,371.2593 l -9.1763,-6.2567 c 8.1383,-32.1889 20.0848,-62.7717 38.7911,-90.5125 l 19.6043,16.2673 -4.5881,-21.6897 c 10.4715,1.9031 19.8388,4.9104 28.3631,8.7595 l -0.3714,-8.8213 c 34.0516,11.3014 53.2555,26.4393 66.168,43.8592 l -7.4012,32.1164 c 12.5878,15.4203 39.8253,31.1579 74.6621,47.1331 36.4718,19.9549 68.3612,41.3583 94.2669,64.6521 10.3706,30.5513 12.8469,57.4591 8.7589,81.3362 -22.3846,-10.8953 -44.7704,-29.1476 -67.1543,-56.7269 z" />
    <path
       id="path28"
       style="fill:none;stroke:#000000;stroke-width:2.0001;stroke-linecap:round;stroke-linejoin:round;stroke-dasharray:none"
       d="M 261.43,296.2094 297.5884,327.04" />
    <path
       id="path30"
       style="fill:#439297;fill-rule:evenodd;stroke:#000000;stroke-width:2.0001;stroke-linecap:round;stroke-linejoin:round;stroke-dasharray:none"
       d="m 595.2295,456.7667 c -12.8728,-11.0787 -28.8253,-20.3099 -52.8254,-24.712 -3.3478,17.2276 -3.991,34.7939 -2.89,52.5789 17.8531,22.9344 39.9363,39.9262 64.4736,53.4693 4.1152,-23.5385 2.5091,-49.984 -8.7582,-81.3362 z" />
    <path
       id="path32"
       style="fill:none;stroke:#000000;stroke-width:2.0001;stroke-linecap:round;stroke-linejoin:round;stroke-dasharray:none"
       d="M 523.006,412.033 495.9576,398.3713" />
    <path
       id="path34"
       style="fill:#439297;fill-rule:evenodd;stroke:#000000;stroke-width:2.0001;stroke-linecap:round;stroke-linejoin:round;stroke-dasharray:none"
       d="m 434.2308,511.088 c -22.7755,-5.3613 -48.8995,-9.1618 -70.1445,-7.2909 -0.9245,23.7838 4.0464,45.8354 12.5783,66.8403 27.1751,6.0549 53.3091,8.1516 78.8333,7.9252 -3.5136,-21.6588 -9.827,-43.9702 -21.2671,-67.4746 z" />
    <path
       id="path36"
       style="fill:none;stroke:#000000;stroke-width:2.0001;stroke-linecap:round;stroke-linejoin:round;stroke-dasharray:none"
       d="m 294.911,371.2593 10.8448,4.1713" />
    <path
       id="path38"
       style="fill:none;stroke:#000000;stroke-width:2.0001;stroke-linecap:round;stroke-linejoin:round;stroke-dasharray:none"
       d="m 416.4527,359.7397 9.8478,-14.7582" />
    <path
       id="path40"
       style="fill:none;stroke:#000000;stroke-width:2.0001;stroke-linecap:round;stroke-linejoin:round;stroke-dasharray:none"
       d="m 367.9051,277.8272 c 62.5239,30.8426 55.4903,63.3594 33.2123,94.5009" />
    <path
       id="path42"
       style="fill:none;stroke:#000000;stroke-width:2.0001;stroke-linecap:round;stroke-linejoin:round;stroke-dasharray:none"
       d="m 344.1301,290.7574 c 10.3044,46.6741 21.6632,73.0975 49.9746,84.3144" />
    <path
       id="path44"
       style="fill:none;stroke:#000000;stroke-width:2.0001;stroke-linecap:round;stroke-linejoin:round;stroke-dasharray:none"
       d="m 393.5693,435.7354 c -8.4341,1.533 -16.6014,1.4573 -24.4781,-0.3449" />
    <path
       id="path46"
       style="fill:#224a4c;fill-rule:evenodd;stroke:#224a4c;stroke-width:0.5;stroke-linecap:round;stroke-linejoin:round;stroke-dasharray:none"
       d="m 401.6774,417.6376 c 6.4061,1.8104 12.4156,-0.8626 10.8978,-8.4725 z" />
  </g>
</svg>
