<?xml version="1.0" encoding="UTF-8" standalone="no"?>
<svg
   xmlns:dc="http://purl.org/dc/elements/1.1/"
   xmlns:cc="http://creativecommons.org/ns#"
   xmlns:rdf="http://www.w3.org/1999/02/22-rdf-syntax-ns#"
   xmlns:svg="http://www.w3.org/2000/svg"
   xmlns="http://www.w3.org/2000/svg"
   xmlns:sodipodi="http://sodipodi.sourceforge.net/DTD/sodipodi-0.dtd"
   xmlns:inkscape="http://www.inkscape.org/namespaces/inkscape"
   inkscape:version="1.0 (4035a4fb49, 2020-05-01)"
   sodipodi:docname="Jolteon.svg"
   viewBox="0 0 725.66931 725.66931"
   id="svg51"
   height=""
   width=""
   version="1.1">
  <metadata
     id="metadata57">
    <rdf:RDF>
      <cc:Work
         rdf:about="">
        <dc:format>image/svg+xml</dc:format>
        <dc:type
           rdf:resource="http://purl.org/dc/dcmitype/StillImage" />
        <dc:title></dc:title>
      </cc:Work>
    </rdf:RDF>
  </metadata>
  <defs
     id="defs55" />
  <sodipodi:namedview
     inkscape:current-layer="svg51"
     inkscape:window-maximized="1"
     inkscape:window-y="-8"
     inkscape:window-x="-8"
     inkscape:cy="362.83466"
     inkscape:cx="362.83466"
     inkscape:zoom="0.79650605"
     showgrid="false"
     id="namedview53"
     inkscape:window-height="746"
     inkscape:window-width="1304"
     inkscape:pageshadow="2"
     inkscape:pageopacity="0"
     guidetolerance="10"
     gridtolerance="10"
     objecttolerance="10"
     borderopacity="1"
     bordercolor="#666666"
     pagecolor="#ffffff" />
  <g
     id="Layer1000">
    <path
       id="path2"
       style="fill:#f6d16e;fill-rule:evenodd;stroke:#000000;stroke-width:2.0001;stroke-linecap:round;stroke-linejoin:miter;stroke-dasharray:none"
       d="m 298.7643,279.9453 -57.651,-27.4847 c 15.0768,-27.2034 33.4562,-54.4069 55.3984,-81.6108 56.0066,-41.2922 115.9477,-69.0936 177.9638,-89.7869 -5.6577,19.5772 -19.7635,44.7855 -48.5939,79.8103 l 20.2744,-8.3668 c -8.5166,15.4087 -20.7692,29.3232 -35.7215,42.1577 z" />
    <path
       id="path4"
       style="fill:none;stroke:#000000;stroke-width:2.0001;stroke-linecap:round;stroke-linejoin:miter;stroke-dasharray:none"
       d="m 425.8816,160.8732 -9.8151,10.7813" />
    <path
       id="path6"
       style="fill:none;stroke:#000000;stroke-width:2.0001;stroke-linecap:round;stroke-linejoin:miter;stroke-dasharray:none"
       d="m 378.7774,298.1705 -13.0364,0.4043" />
    <path
       id="path8"
       style="fill:#ffffff;fill-rule:evenodd;stroke:#000000;stroke-width:2.0001;stroke-linecap:round;stroke-linejoin:miter;stroke-dasharray:none"
       d="m 215.2079,417.2163 170.846,-73.0738 34.151,-18.644 -7.0799,16.7344 138.7028,-26.389 -79.4886,55.6743 37.6525,-5.1489 -27.6763,18.3434 90.7521,26.0674 -124.5426,15.4471 13.1945,8.3673 -21.5617,5.1488 29.6068,37.6525 -33.7905,-7.0798 51.8123,76.9139 C 455.0034,532.4474 419.3038,512.5603 379.6561,485.7631 l 19.6307,51.1691 -15.1255,-12.873 24.7801,74.0177 -75.3051,-67.5814 0.3216,33.1473 -25.4232,-37.9741 -19.3092,106.5208 C 272.1043,593.599 258.9307,553.3183 253.8256,509.5774 l -71.1214,78.2018 c 10.7429,-36.969 24.0124,-73.0943 42.4798,-107.4871 l -28.9632,10.6203 27.0322,-34.1125 -13.5161,1.6089 14.8034,-16.4129 -51.1686,5.471 z" />
    <path
       id="path10"
       style="fill:none;stroke:#000000;stroke-width:2.0001;stroke-linecap:round;stroke-linejoin:miter;stroke-dasharray:none"
       d="m 362.8404,358.9017 h -8.5273" />
    <path
       id="path12"
       style="fill:none;stroke:#000000;stroke-width:2.0001;stroke-linecap:round;stroke-linejoin:miter;stroke-dasharray:none"
       d="m 472.3392,371.5182 -27.5148,5.2301" />
    <path
       id="path14"
       style="fill:none;stroke:#000000;stroke-width:2.0001;stroke-linecap:round;stroke-linejoin:miter;stroke-dasharray:none"
       d="M 448.5249,426.2272 434.044,417.9417" />
    <path
       id="path16"
       style="fill:none;stroke:#000000;stroke-width:2.0001;stroke-linecap:round;stroke-linejoin:miter;stroke-dasharray:none"
       d="m 435.974,470.316 -9.0104,-8.6076" />
    <path
       id="path18"
       style="fill:none;stroke:#000000;stroke-width:2.0001;stroke-linecap:round;stroke-linejoin:miter;stroke-dasharray:none"
       d="m 379.6561,485.7631 -4.8263,-5.3893" />
    <path
       id="path20"
       style="fill:none;stroke:#000000;stroke-width:2.0001;stroke-linecap:round;stroke-linejoin:miter;stroke-dasharray:none"
       d="m 308.5347,525.6687 -4.5043,-8.286" />
    <path
       id="path22"
       style="fill:none;stroke:#000000;stroke-width:2.0001;stroke-linecap:round;stroke-linejoin:miter;stroke-dasharray:none"
       d="m 253.8256,509.5774 -1.7685,-14.5612" />
    <path
       id="path24"
       style="fill:none;stroke:#000000;stroke-width:2.0001;stroke-linecap:round;stroke-linejoin:miter;stroke-dasharray:none"
       d="m 225.184,480.2921 6.1161,-10.5381" />
    <path
       id="path26"
       style="fill:none;stroke:#000000;stroke-width:2.0001;stroke-linecap:round;stroke-linejoin:miter;stroke-dasharray:none"
       d="m 223.253,456.7999 9.9781,-10.5386" />
    <path
       id="path28"
       style="fill:#f6d16e;fill-rule:evenodd;stroke:#000000;stroke-width:2.0001;stroke-linecap:round;stroke-linejoin:miter;stroke-dasharray:none"
       d="m 153.5795,365.0966 c -30.2603,-27.4292 -24.4483,-50.7731 15.125,-58.8927 24.4853,-47.1115 37.509,-54.0284 72.4088,-53.7433 30.2457,-24.2171 56.2693,-42.291 77.0754,-52.778 l -21.0791,36.0436 22.205,-8.3672 -16.0908,19.6307 18.0223,-0.3221 39.9853,62.7547 27.5158,20.1936 -17.2175,4.0231 33.7102,24.3777 -42.3995,0.885 17.8607,22.2857 -14.4011,-0.9658 26.3891,14.1603 -65.6505,-4.8273 10.6198,14.4818 -20.5964,-7.4019 11.2635,33.4689 -36.6868,-13.1945 4.8273,15.4471 -22.8491,-13.1945 6.1146,37.3309 -26.0674,-26.7111 -9.6546,24.1364 -13.194,-34.1126 c -42.5912,-10.0292 -68.1132,-28.3735 -77.236,-54.7085 z" />
    <path
       id="path30"
       style="fill:#f6d16e;fill-rule:evenodd;stroke:#000000;stroke-width:2.0001;stroke-linecap:round;stroke-linejoin:miter;stroke-dasharray:none"
       d="m 327.9309,306.2156 -31.86,-32.5031 c 24.7052,-26.3929 51.7792,-49.2342 80.776,-69.1904 72.9624,-25.0672 147.1061,-38.2028 216.099,-44.6517 l -88.6601,90.3493 33.1468,4.8273 c -52.4389,22.8593 -105.3595,36.57 -158.6552,43.1235 l 18.0218,9.0109 c -23.0189,1.5237 -45.9823,1.4216 -68.8683,-0.9658 z" />
    <path
       id="path32"
       style="fill:none;stroke:#000000;stroke-width:2.0001;stroke-linecap:round;stroke-linejoin:miter;stroke-dasharray:none"
       d="m 504.2858,250.2197 -4.5096,4.5096" />
    <path
       id="path34"
       style="fill:#000000;fill-rule:evenodd"
       d="m 356.3239,263.1822 c -14.0279,3.5015 -28.3298,8.7097 -46.7841,18.0621 23.0442,-24.4774 49.2571,-45.7867 79.1671,-63.3978 63.2285,-19.3145 116.2376,-32.4978 158.011,-38.9399 -27.4998,30.9711 -60.5716,60.7478 -100.0846,89.1432 l -121.6459,21.8833 c 11.787,-7.22 22.1242,-16.5267 31.3365,-26.7509 z" />
    <path
       id="path36"
       style="fill:none;stroke:#000000;stroke-width:2.0001;stroke-linecap:round;stroke-linejoin:miter;stroke-dasharray:none"
       d="m 153.5795,365.0966 4.0824,-7.8953 c 21.8916,21.1759 44.1024,25.611 63.6606,19.0021" />
    <path
       id="path38"
       style="fill:#000000;fill-rule:evenodd"
       d="m 154.2251,330.5486 c 0.4744,6.7325 -14.3393,7.8315 -13.1142,-1.4479 z" />
    <path
       id="path40"
       style="fill:#000000;fill-rule:evenodd"
       d="m 273.4588,305.9519 c -31.5549,-7.6428 -54.585,1.3131 -69.8341,25.4233 44.3456,22.2404 59.7611,12.4083 69.8341,-25.4233 z" />
    <path
       id="path42"
       style="fill:#ffffff;fill-rule:evenodd"
       d="m 239.8561,309.6563 c -6.9884,-3.1055 -17.5216,2.9031 -16.2518,11.1029 5.6938,6.0791 21.5004,-4.3899 16.2518,-11.1029 z" />
    <path
       id="path44"
       style="fill:#5a3778;fill-rule:evenodd"
       d="m 257.207,333.6287 c 0.8976,-14.3942 -31.3112,-11.8891 -28.9642,0.4019 6.2888,10.0462 23.5876,8.754 28.9642,-0.4019 z" />
    <path
       id="path46"
       style="fill:#f6d16e;fill-rule:evenodd"
       d="m 326.8425,307.806 -32.3576,-30.4972 5.1746,-4.6419 29.9022,30.597 z" />
    <path
       id="path48"
       style="fill:none;stroke:#000000;stroke-width:2.0001;stroke-linecap:round;stroke-linejoin:miter;stroke-dasharray:none"
       d="m 413.125,342.2329 -4.6599,2.1431" />
  </g>
</svg>
