<?xml version="1.0" encoding="UTF-8" standalone="no"?>
<svg
   xmlns:dc="http://purl.org/dc/elements/1.1/"
   xmlns:cc="http://creativecommons.org/ns#"
   xmlns:rdf="http://www.w3.org/1999/02/22-rdf-syntax-ns#"
   xmlns:svg="http://www.w3.org/2000/svg"
   xmlns="http://www.w3.org/2000/svg"
   xmlns:sodipodi="http://sodipodi.sourceforge.net/DTD/sodipodi-0.dtd"
   xmlns:inkscape="http://www.inkscape.org/namespaces/inkscape"
   inkscape:version="1.0 (4035a4fb49, 2020-05-01)"
   sodipodi:docname="Leafeon.svg"
   viewBox="0 0 725.66931 725.66931"
   id="svg69"
   height=""
   width=""
   version="1.1">
  <metadata
     id="metadata75">
    <rdf:RDF>
      <cc:Work
         rdf:about="">
        <dc:format>image/svg+xml</dc:format>
        <dc:type
           rdf:resource="http://purl.org/dc/dcmitype/StillImage" />
        <dc:title></dc:title>
      </cc:Work>
    </rdf:RDF>
  </metadata>
  <defs
     id="defs73" />
  <sodipodi:namedview
     inkscape:current-layer="svg69"
     inkscape:window-maximized="1"
     inkscape:window-y="-8"
     inkscape:window-x="-8"
     inkscape:cy="504.82929"
     inkscape:cx="294.67587"
     inkscape:zoom="2.2528593"
     showgrid="false"
     id="namedview71"
     inkscape:window-height="746"
     inkscape:window-width="1304"
     inkscape:pageshadow="2"
     inkscape:pageopacity="0"
     guidetolerance="10"
     gridtolerance="10"
     objecttolerance="10"
     borderopacity="1"
     bordercolor="#666666"
     pagecolor="#ffffff" />
  <g
     id="Layer1000">
    <path
       id="path2"
       style="fill:#fbe9b9;fill-rule:evenodd;stroke:#000000;stroke-width:2.0001;stroke-linecap:round;stroke-linejoin:round;stroke-dasharray:none"
       d="m 111.6892,503.8157 c 42.9223,8.512 58.6551,26.6651 60.1281,62.9911 16.6733,25.0005 57.1202,34.5754 80.9884,40.0852 67.0384,-6.8807 107.3462,-39.8854 126.391,-93.6683 8.6047,-11.5148 19.4826,-19.8462 33.5402,-23.7241 -4.0034,-5.0633 -12.2204,-7.2078 -23.3147,-7.3624 42.4498,-27.2804 81.0793,-48.1197 91.6233,-61.7643 l -6.5443,-11.8617 18.8154,1.6362 -20.0429,-16.7704 21.2697,4.9087 c 21.5827,-25.5446 36.5004,-53.5343 41.7214,-85.079 l -17.5885,-4.9087 23.3153,-13.0886 c 8.7303,-56.1203 8.7377,-110.4949 6.5443,-164.4312 -26.2266,36.9568 -66.4849,76.0723 -121.0735,117.3924 l 11.0436,21.2697 -27.8141,-6.9536 c -64.4158,55.1649 -71.7115,124.2928 -85.4877,191.8365 5.1146,-27.5055 10.1352,-55.0277 17.8414,-82.0465 -0.0136,-10.8031 -3.6478,-25.6349 -11.2971,-32.0741 l -70.3536,-65.4448 c 4.1815,33.7523 -10.7251,65.9154 -39.267,96.9407 0.6771,-22.9288 -8.4483,-41.8345 -29.0415,-56.0374 9.6553,26.0782 4.6656,48.7764 -6.9531,69.9441 -9.6263,-49.5488 -8.6474,-99.4754 12.2705,-150.1145 l -27.4047,-5.3174 32.7222,-15.9523 c 1.3622,-17.6182 23.0012,-54.1928 49.4931,-95.3045 -55.1507,31.4557 -106.5825,66.4126 -143.1614,115.3468 l 8.1805,21.6791 -22.4966,-1.6362 c -26.1147,30.3778 -18.957,90.269 -13.0892,163.613 l 14.7254,-7.363 -10.2261,26.1784 10.6349,-5.3174 -4.09,17.1792 c 18.1711,20.1647 35.1388,36.4187 51.1288,49.4931 -12.5599,-0.3661 -23.8428,1.1854 -33.1315,5.7262 z" />
    <path
       id="path4"
       style="fill:none;stroke:#000000;stroke-width:2.0001;stroke-linecap:round;stroke-linejoin:round;stroke-dasharray:none"
       d="m 143.9049,497.3382 c 8.7142,4.8141 13.7496,10.0177 17.2793,15.3778" />
    <path
       id="path6"
       style="fill:none;stroke:#000000;stroke-width:2.0001;stroke-linecap:round;stroke-linejoin:round;stroke-dasharray:none"
       d="m 212.211,508.7293 2.045,13.498" />
    <path
       id="path8"
       style="fill:none;stroke:#000000;stroke-width:2.0001;stroke-linecap:round;stroke-linejoin:round;stroke-dasharray:none"
       d="m 282.6672,505.7636 c -3.2125,4.973 -5.3787,10.296 -5.3175,16.3611" />
    <path
       id="path10"
       style="fill:none;stroke:#000000;stroke-width:2.0001;stroke-linecap:round;stroke-linejoin:round;stroke-dasharray:none"
       d="m 389.4222,482.1372 c -9.7166,3.0474 -16.6975,6.3328 -20.1412,9.9237" />
    <path
       id="path12"
       style="fill:none;stroke:#000000;stroke-width:2.0001;stroke-linecap:round;stroke-linejoin:round;stroke-dasharray:none"
       d="m 149.6348,444.2096 3.0678,10.8383" />
    <path
       id="path14"
       style="fill:none;stroke:#000000;stroke-width:2.0001;stroke-linecap:round;stroke-linejoin:round;stroke-dasharray:none"
       d="m 186.1333,385.6052 c -14.9882,23.0996 -20.553,44.984 -13.1801,65.354" />
    <path
       id="path16"
       style="fill:none;stroke:#000000;stroke-width:2.0001;stroke-linecap:round;stroke-linejoin:round;stroke-dasharray:none"
       d="m 222.1279,371.6985 c -14.7885,19.6298 -16.5268,38.9065 -11.1345,57.9909" />
    <path
       id="path18"
       style="fill:none;stroke:#000000;stroke-width:2.0001;stroke-linecap:round;stroke-linejoin:round;stroke-dasharray:none"
       d="m 324.4541,345.862 c 3.4376,14.6989 -5.613,28.1993 -18.5656,42.9242 -10.6757,14.3018 -15.773,30.5553 -15.5429,48.6744" />
    <path
       id="path20"
       style="fill:none;stroke:#000000;stroke-width:2.0001;stroke-linecap:round;stroke-linejoin:round;stroke-dasharray:none"
       d="m 359.8773,437.6616 -9.4043,22.2962" />
    <path
       id="path22"
       style="fill:#d1995c;fill-rule:evenodd;stroke:#000000;stroke-width:0.5;stroke-linecap:round;stroke-linejoin:round;stroke-dasharray:none"
       d="m 250.1633,585.9426 c -4.0683,9.8303 -10.043,10.3825 -18.2019,0.3067 z" />
    <path
       id="path24"
       style="fill:#b47a38;fill-rule:evenodd;stroke:#000000;stroke-width:2.0001;stroke-linecap:round;stroke-linejoin:round;stroke-dasharray:none"
       d="m 345.4709,512.3178 c -28.8733,-32.9596 -48.0944,-17.9639 -59.5146,35.7905 38.7544,17.1495 57.3008,3.2335 59.5146,-35.7905 z" />
    <path
       id="path26"
       style="fill:none;stroke:#000000;stroke-width:2.0001;stroke-linecap:round;stroke-linejoin:round;stroke-dasharray:none"
       d="m 285.9563,548.1083 -1.6869,9.8168" />
    <path
       id="path28"
       style="fill:#b47a38;fill-rule:evenodd;stroke:#000000;stroke-width:2.0001;stroke-linecap:round;stroke-linejoin:round;stroke-dasharray:none"
       d="m 171.7845,505.7747 c 10.7703,-22.9907 24.0642,0.4861 38.6542,47.8576 -24.8464,1.4915 -39.9887,-11.1686 -38.6542,-47.8576 z" />
    <path
       id="path30"
       style="fill:none;stroke:#000000;stroke-width:2.0001;stroke-linecap:round;stroke-linejoin:round;stroke-dasharray:none"
       d="m 210.4387,553.6323 1.8403,4.908" />
    <path
       id="path32"
       style="fill:#7e562f;fill-rule:evenodd"
       d="m 315.5655,545.764 c 13.0849,-1.9918 15.0037,-38.7754 -2.0456,-43.3576 -14.5251,6.9592 -13.1572,39.05 2.0456,43.3576 z" />
    <path
       id="path34"
       style="fill:#7e562f;fill-rule:evenodd"
       d="m 195.5129,545.9687 c 10.8804,-10.0703 -1.98,-36.4497 -10.6349,-39.8811 -5.7212,17.1804 -0.5516,29.7923 10.6349,39.8811 z" />
    <path
       id="path36"
       style="fill:#ffffff;fill-rule:evenodd"
       d="m 305.5738,535.5688 c 11.158,-2.1093 11.3423,-20.7256 0.6857,-28.1517 -9.6992,10.3492 -9.5292,20.8035 -0.6857,28.1517 z" />
    <path
       id="path38"
       style="fill:#ffffff;fill-rule:evenodd"
       d="m 183.5516,530.8364 c 5.7318,-8.3512 3.8816,-22.4286 -5.1127,-26.5872 -7.9852,7.4774 -3.3313,24.9738 5.1127,26.5872 z" />
    <path
       id="path40"
       style="fill:#77c79c;fill-rule:evenodd;stroke:#000000;stroke-width:2.0001;stroke-linecap:round;stroke-linejoin:round;stroke-dasharray:none"
       d="m 343.0456,372.2767 66.0565,43.5351 27.3397,37.0594 c 15.9313,-9.2077 30.8367,-19.9835 44.6037,-32.4983 l -6.5443,-11.8617 18.8154,1.6362 -20.0429,-16.7704 21.2697,4.9087 c 21.7138,-24.4742 36.4361,-52.4292 41.7214,-85.079 l -17.5885,-4.9087 23.3153,-13.0886 c 7.8516,-54.7506 9.5243,-109.5661 6.5443,-164.4312 -33.4883,44.4751 -73.242,84.076 -121.0735,117.3924 l 11.0436,21.2697 -27.8141,-6.9536 c -33.8327,28.9321 -56.0653,65.7435 -67.6463,109.79 z" />
    <path
       id="path42"
       style="fill:#b47938;fill-rule:evenodd;stroke:#000000;stroke-width:2.0001;stroke-linecap:round;stroke-linejoin:round;stroke-dasharray:none"
       d="m 430.8449,407.8025 c -25.8618,9.6059 -49.4715,17.5255 -70.9676,29.8591 15.6759,-64.9323 61.2213,-120.9042 121.8917,-170.5668 -19.8623,62.541 -33.6516,119.5141 -50.9241,140.7077 z" />
    <path
       id="path44"
       style="fill:#77c79c;fill-rule:evenodd;stroke:#000000;stroke-width:2.0001;stroke-linecap:round;stroke-linejoin:round;stroke-dasharray:none"
       d="m 81.9217,408.9639 50.8833,-26.4295 50.0305,-17.0345 c -5.7379,-43.4195 -3.999,-86.7814 15.5683,-130.0092 l -27.4047,-5.3174 32.7222,-15.9523 c 9.1779,-34.7189 27.6823,-65.6786 49.4931,-95.3045 -48.4462,25.7561 -96.5511,57.4857 -143.1614,115.3468 l 8.1805,21.6791 -22.4966,-1.6362 C 74.3608,278.6604 76.1337,333.6695 81.9217,408.9639 Z" />
    <path
       id="path46"
       style="fill:#b47938;fill-rule:evenodd;stroke:#000000;stroke-width:2.0001;stroke-linecap:round;stroke-linejoin:round;stroke-dasharray:none"
       d="m 149.6348,444.2096 c -41.8853,-29.9778 -51.6464,-85.2324 -20.4517,-166.4768 -11.1617,50.7701 2.6912,111.3168 20.4517,166.4768 z" />
    <path
       id="path48"
       style="fill:#77c79c;fill-rule:evenodd;stroke:#000000;stroke-width:2.0001;stroke-linecap:round;stroke-linejoin:round;stroke-dasharray:none"
       d="M 233.8913,388.984 C 337.8544,285.4112 212.3483,211.4643 171.377,280.9113 c 24.2886,-67.1473 70.0641,-90.6488 134.7106,-78.1705 105.7403,55.0351 21.6328,157.937 -45.1323,199.0387 -19.0962,20.6965 -27.3299,41.8166 -23.52,66.8771 -18.7709,-25.0054 -21.8597,-51.3947 -3.544,-79.6726 z" />
    <path
       id="path50"
       style="fill:#fbe9b9;fill-rule:evenodd"
       d="m 181.6674,364.3707 -48.1488,16.2863 0.7099,3.2699 47.8483,-16.3153 z" />
    <path
       id="path52"
       style="fill:#fbe9b9;fill-rule:evenodd"
       d="m 112.9699,391.1756 -30.1659,15.8793 0.329,3.6862 30.9041,-15.4737 z" />
    <path
       id="path54"
       style="fill:#fbe9b9;fill-rule:evenodd"
       d="m 375.2104,391.9034 -30.9159,-20.2748 -0.8261,3.0777 30.4279,20.007 z" />
    <path
       id="path56"
       style="fill:#fbe9b9;fill-rule:evenodd"
       d="m 434.2905,453.011 -26.3633,-35.6211 3.3429,-1.2695 25.6281,35.3026 z" />
    <path
       id="path58"
       style="fill:none;stroke:#000000;stroke-width:2.0001;stroke-linecap:round;stroke-linejoin:round;stroke-dasharray:none"
       d="m 547.9843,240.6969 c -17.975,5.8393 -34.1963,12.9933 -47.8087,22.1052" />
    <path
       id="path60"
       style="fill:none;stroke:#000000;stroke-width:2.0001;stroke-linecap:round;stroke-linejoin:round;stroke-dasharray:none"
       d="m 161.7037,212.4914 c 28.1226,-31.7865 59.0279,-62.8773 91.5107,-93.5749" />
    <path
       id="path62"
       style="fill:none;stroke:#000000;stroke-width:2.0001;stroke-linecap:round;stroke-linejoin:round;stroke-dasharray:none"
       d="m 481.769,267.0948 c 38.2819,-46.3641 56.8537,-91.5899 66.7669,-136.3166" />
    <path
       id="path64"
       style="fill:none;stroke:#000000;stroke-width:2.0001;stroke-linecap:round;stroke-linejoin:round;stroke-dasharray:none"
       d="m 129.1831,277.7328 c 4.2693,-16.6548 11.2082,-32.9744 19.8407,-49.0844" />
    <path
       id="path66"
       style="fill:none;stroke:#000000;stroke-width:2.0001;stroke-linecap:round;stroke-linejoin:round;stroke-dasharray:none"
       d="m 137.1936,202.9121 -0.0321,33.5081" />
  </g>
</svg>
