<?xml version="1.0" encoding="UTF-8" standalone="no"?>
<svg
   xmlns:dc="http://purl.org/dc/elements/1.1/"
   xmlns:cc="http://creativecommons.org/ns#"
   xmlns:rdf="http://www.w3.org/1999/02/22-rdf-syntax-ns#"
   xmlns:svg="http://www.w3.org/2000/svg"
   xmlns="http://www.w3.org/2000/svg"
   xmlns:sodipodi="http://sodipodi.sourceforge.net/DTD/sodipodi-0.dtd"
   xmlns:inkscape="http://www.inkscape.org/namespaces/inkscape"
   inkscape:version="1.0 (4035a4fb49, 2020-05-01)"
   sodipodi:docname="Sylveon.svg"
   viewBox="0 0 725.66931 725.66931"
   id="svg59"
   height=""
   width=""
   version="1.1">
  <metadata
     id="metadata65">
    <rdf:RDF>
      <cc:Work
         rdf:about="">
        <dc:format>image/svg+xml</dc:format>
        <dc:type
           rdf:resource="http://purl.org/dc/dcmitype/StillImage" />
        <dc:title></dc:title>
      </cc:Work>
    </rdf:RDF>
  </metadata>
  <defs
     id="defs63" />
  <sodipodi:namedview
     inkscape:current-layer="svg59"
     inkscape:window-maximized="1"
     inkscape:window-y="-8"
     inkscape:window-x="-8"
     inkscape:cy="362.83466"
     inkscape:cx="362.83466"
     inkscape:zoom="0.79650605"
     showgrid="false"
     id="namedview61"
     inkscape:window-height="746"
     inkscape:window-width="1304"
     inkscape:pageshadow="2"
     inkscape:pageopacity="0"
     guidetolerance="10"
     gridtolerance="10"
     objecttolerance="10"
     borderopacity="1"
     bordercolor="#666666"
     pagecolor="#ffffff" />
  <g
     id="Layer1000">
    <path
       id="path2"
       style="fill:#ffffff;fill-rule:evenodd;stroke:#000000;stroke-width:2.0001;stroke-linecap:round;stroke-linejoin:round;stroke-dasharray:none"
       d="m 231.3881,331.0039 6.3841,-0.841 17.4229,13.2505 -1.1658,41.4667 -43.63,-7.437 z" />
    <path
       id="path4"
       style="fill:#f19cae;fill-rule:evenodd;stroke:#000000;stroke-width:2.0001;stroke-linecap:round;stroke-linejoin:round;stroke-dasharray:none"
       d="m 239.4442,472.7841 -90.4825,-37.5976 8.347,-26.8457 c -20.8793,-7.1571 -24.7415,-14.0484 0.3303,-17.8486 -32.5013,-34.8143 -29.5286,-42.9693 8.9245,-24.4591 -26.1471,-60.0535 -38.8573,-149.9418 -6.2802,-196.334 2.6444,-1.2783 4.4089,0.6116 5.9494,3.3054 9.7741,-32.8125 24.0514,-53.0152 42.6386,-61.1482 31.4149,7.4014 56.615,179.8985 14.8734,256.4904 l 67.0977,23.4677 c 26.8447,-99.0117 132.2215,-180.5336 204.2667,-177.8243 6.4511,9.097 1.6075,30.0003 -30.7393,79.657 13.8446,8.4934 -3.3145,32.907 -54.6947,74.8945 l -74.8724,50.0455 -12.8907,17.8487 -0.4138,18.9129 z" />
    <path
       id="path6"
       style="fill:#647bb1;fill-rule:evenodd;stroke:#000000;stroke-width:2.0001;stroke-linecap:round;stroke-linejoin:round;stroke-dasharray:none"
       d="m 191.5203,231.8407 c 19.1819,-4.846 18.4978,103.1233 4.2969,133.8641 -15.6135,-34.7743 -20.4191,-77.0521 -4.2969,-133.8641 z" />
    <path
       id="path8"
       style="fill:#ffffff;fill-rule:evenodd;stroke:#000000;stroke-width:2.0001;stroke-linecap:round;stroke-linejoin:round;stroke-dasharray:none"
       d="m 162.6514,356.5689 -28.0604,-8.9921 c -95.5964,-47.1593 60.4427,-215.1975 135.5165,-219.1406 5.4327,10.3212 -4.4398,28.1863 -28.9209,49.25 26.5878,-10.7505 51.3628,-12.2775 65.6101,-0.9919 10.2468,19.2803 -95.5229,50.7906 -147.7466,107.4211 -5.0289,5.3623 -9.3068,10.7285 -12.6543,16.2966 3.6593,19.1344 8.9625,37.881 16.2556,56.1569 z" />
    <path
       id="path10"
       style="fill:#ffffff;fill-rule:evenodd;stroke:#000000;stroke-width:2.0001;stroke-linecap:round;stroke-linejoin:round;stroke-dasharray:none"
       d="m 383.6444,441.2548 -8.5957,-7.302 -34.5175,14.4417 c 33.4046,30.3405 80.8273,35.3869 134.3392,14.4937 22.8671,-12.379 42.5971,-28.6631 62.6039,-45.5318 27.972,-23.5847 60.2584,-43.8254 90.3875,-65.738 45.3774,-9.172 33.4032,-25.2287 -0.1619,-21.1197 12.8907,-14.1724 17.8497,-24.4661 10.9089,-28.9439 -39.9317,4.3509 -86.1081,27.4039 -125.2158,62.3561 -18.4158,16.459 -35.9896,32.3083 -56.5351,47.9143 -21.34,18.5662 -45.7037,28.4912 -73.2135,29.4296 z" />
    <path
       id="path12"
       style="fill:none;stroke:#000000;stroke-width:2.0001;stroke-linecap:round;stroke-linejoin:round;stroke-dasharray:none"
       d="m 159.0501,284.1154 c -14.5651,15.1473 -23.2254,32.7256 -22.8066,54.0427" />
    <path
       id="path14"
       style="fill:#f2a5b4;fill-rule:evenodd;stroke:#000000;stroke-width:2.0001;stroke-linecap:round;stroke-linejoin:round;stroke-dasharray:none"
       d="m 164.8905,191.3009 -19.4761,21.5054 c 32.792,-5.3677 47.8589,12.0497 46.4677,42.7935 l 16.2371,-11.0828 c 6.8454,-30.8777 -7.2685,-51.9768 -43.2287,-53.2161 z" />
    <path
       id="path16"
       style="fill:#89cff3;fill-rule:evenodd;stroke:#000000;stroke-width:2.0001;stroke-linecap:round;stroke-linejoin:round;stroke-dasharray:none"
       d="m 241.1866,177.6862 c 23.5317,-19.763 33.9029,-36.3554 28.9209,-49.25 -20.8148,0.5181 -48.8153,13.3299 -89.0668,47.4881 l 49.1921,55.1044 c 48.0667,-26.7922 82.8216,-45.1845 76.5639,-54.3344 -14.4207,-11.0573 -36.6392,-10.1938 -65.6101,0.9919 z" />
    <path
       id="path18"
       style="fill:#647bb1;fill-rule:evenodd;stroke:#000000;stroke-width:2.0001;stroke-linecap:round;stroke-linejoin:round;stroke-dasharray:none"
       d="m 181.0407,175.9243 -16.1502,15.3766 c 38.0544,1.8264 49.352,22.7687 43.2287,53.2161 l 22.1136,-13.4883 c 3.3604,-39.3245 -16.6294,-59.4153 -49.1921,-55.1044 z" />
    <path
       id="path20"
       style="fill:#89cff3;fill-rule:evenodd;stroke:#000000;stroke-width:2.0001;stroke-linecap:round;stroke-linejoin:round;stroke-dasharray:none"
       d="m 638.6088,301.5548 c -20.9018,1.8114 -48.5705,10.3008 -69.014,22.8456 l 33.3702,44.8028 24.8968,-17.5848 c 39.1907,-8.1316 40.363,-23.5697 -0.1619,-21.1197 13.5678,-14.2138 17.6263,-24.0553 10.9089,-28.9439 z" />
    <path
       id="path22"
       style="fill:#647bb1;fill-rule:evenodd;stroke:#000000;stroke-width:2.0001;stroke-linecap:round;stroke-linejoin:round;stroke-dasharray:none"
       d="m 585.4252,381.3678 -36.214,-44.9162 19.4751,-11.565 c 27.8351,4.3754 36.4164,21.8702 34.2787,44.3166 z" />
    <path
       id="path24"
       style="fill:#f2a5b4;fill-rule:evenodd;stroke:#000000;stroke-width:2.0001;stroke-linecap:round;stroke-linejoin:round;stroke-dasharray:none"
       d="m 549.2112,336.4516 -19.7475,14.0654 c 28.1904,-1.2227 44.9781,13.4269 38.7394,43.0533 l 17.2221,-12.2025 c 5.3157,-25.7958 -5.9959,-41.6532 -36.214,-44.9162 z" />
    <path
       id="path26"
       style="fill:#ffffff;fill-rule:evenodd;stroke:#000000;stroke-width:2.0001;stroke-linecap:round;stroke-linejoin:round;stroke-dasharray:none"
       d="m 420.49,370.0706 c -29.3361,-5.2413 -61.559,-2.1417 -98.8284,15.5346 -1.3506,-39.2012 -12.201,-67.9991 -32.0614,-86.9291 -37.4692,11.8523 -53.6464,99.5369 -26.1122,118.3295 18.7821,3.7052 35.3151,-2.7119 50.5713,-14.8735 -1.4017,14.9389 0.6306,29.7934 7.6023,44.2906 56.9129,11.8882 103.6135,-32.0495 98.8284,-76.3521 z" />
    <path
       id="path28"
       style="fill:#ffffff;fill-rule:evenodd;stroke:#000000;stroke-width:2.0001;stroke-linecap:round;stroke-linejoin:round;stroke-dasharray:none"
       d="m 148.9617,435.1865 c -5.5941,17.1266 -9.1694,34.9872 -9.9159,53.8762 23.4532,55.8565 108.1587,88.9839 176.8334,27.4343 4.6441,-18.8715 5.8249,-39.6318 5.619,-61.1483 -23.2693,-43.6734 -49.97,-34.0827 -82.054,17.4354 -4.5213,-62.0087 -50.4813,-89.6284 -90.4825,-37.5976 z" />
    <path
       id="path30"
       style="fill:#ffffff;fill-rule:evenodd;stroke:#000000;stroke-width:2.0001;stroke-linecap:round;stroke-linejoin:round;stroke-dasharray:none"
       d="m 266.2099,516.8253 c -19.4027,-5.5921 -38.2193,1.4002 -55.859,33.714 -11.8818,-18.4702 -25.2477,-30.9991 -40.6553,-35.3665 -21.6728,25.6674 -13.9145,61.4816 19.5011,87.5902 11.7474,-7.1521 17.8912,-15.9857 20.8234,-25.7813 4.6377,11.0653 13.4313,19.0135 25.1202,24.7895 30.2951,-19.042 38.6755,-48.2762 31.0696,-84.9459 z" />
    <path
       id="path32"
       style="fill:#f2a5b4;fill-rule:evenodd;stroke:#000000;stroke-width:2.0001;stroke-linecap:round;stroke-linejoin:round;stroke-dasharray:none"
       d="m 210.3509,550.5393 c -4.7187,-8.1015 -10.8109,-15.7019 -18.6857,-22.6867 -14.7035,6.2542 -11.9087,53.9967 13.987,59.0406 1.7245,-2.8688 3.1386,-6.2382 4.3679,-9.9115 1.1843,3.4664 3.1181,6.617 5.5721,9.5477 22.6647,-1.8044 33.4152,-49.4479 12.8357,-60.3962 -7.9047,7.8557 -13.962,15.9857 -18.077,24.4061 z" />
    <path
       id="path34"
       style="fill:none;stroke:#000000;stroke-width:2.0001;stroke-linecap:round;stroke-linejoin:round;stroke-dasharray:none"
       d="m 207.2153,507.6599 c 8.2275,9.2339 17.6772,13.7861 28.5486,12.8837" />
    <path
       id="path36"
       style="fill:none;stroke:#000000;stroke-width:2.0001;stroke-linecap:round;stroke-linejoin:round;stroke-dasharray:none"
       d="m 230.6825,492.0424 8.2635,2.6439" />
    <path
       id="path38"
       style="fill:#89cff3;fill-rule:evenodd;stroke:#000000;stroke-width:2.0001;stroke-linecap:round;stroke-linejoin:round;stroke-dasharray:none"
       d="m 208.3736,471.1376 c 5.6256,-40.3534 -19.6091,-69.5222 -45.4479,-14.8739 4.5288,38.3117 27.5872,38.4831 45.4479,14.8739 z" />
    <path
       id="path40"
       style="fill:#89cff3;fill-rule:evenodd;stroke:#000000;stroke-width:2.0001;stroke-linecap:round;stroke-linejoin:round;stroke-dasharray:none"
       d="m 302.5743,490.9691 c 4.5232,-43.0543 -20.2177,-57.8813 -40.8202,-11.4031 3.9011,33.8769 23.1459,38.2337 40.8202,11.4031 z" />
    <path
       id="path42"
       style="fill:#ffffff;fill-rule:evenodd"
       d="m 194.3261,467.3365 c -10.2083,-3.7907 -2.7938,-31.0252 6.1148,-30.9047 8.8656,9.7295 5.8979,25.8023 -6.1148,30.9047 z" />
    <path
       id="path44"
       style="fill:#ffffff;fill-rule:evenodd"
       d="m 273.6534,487.003 c 12.4829,-4.6397 15.8878,-26.1541 5.1228,-30.0782 -10.9928,5.0949 -13.9095,21.1266 -5.1228,30.0782 z" />
    <path
       id="path46"
       style="fill:none;stroke:#000000;stroke-width:2.0001;stroke-linecap:round;stroke-linejoin:round;stroke-dasharray:none"
       d="m 166.5635,366.0331 c 11.591,7.5574 18.2134,11.5135 20.9887,15.5345" />
    <path
       id="path48"
       style="fill:none;stroke:#000000;stroke-width:2.0001;stroke-linecap:round;stroke-linejoin:round;stroke-dasharray:none"
       d="m 157.639,390.4922 7.9326,1.8179" />
    <path
       id="path50"
       style="fill:none;stroke:#000000;stroke-width:2.0001;stroke-linecap:round;stroke-linejoin:round;stroke-dasharray:none"
       d="m 223.7447,368.3467 -4.6272,8.263" />
    <path
       id="path52"
       style="fill:none;stroke:#000000;stroke-width:2.0001;stroke-linecap:round;stroke-linejoin:round;stroke-dasharray:none"
       d="m 464.3698,293.6471 c -10.6375,13.7427 -23.1864,26.5289 -37.3478,38.5086" />
    <path
       id="path54"
       style="fill:#647bb1;fill-rule:evenodd;stroke:#000000;stroke-width:2.0001;stroke-linecap:round;stroke-linejoin:round;stroke-dasharray:none"
       d="m 321.6616,385.6052 c -1.6654,-20.2762 43.1628,-77.3749 79.0834,-89.8084 2.2751,21.3271 -33.8164,79.776 -79.0834,89.8084 z" />
    <path
       id="path56"
       style="fill:#f2a5b4;fill-rule:evenodd;stroke:#000000;stroke-width:2.0001;stroke-linecap:round;stroke-linejoin:round;stroke-dasharray:none"
       d="m 321.6616,385.6052 c -0.3263,-18.2709 -3.5428,-35.4974 -9.3598,-51.787 -25.443,6.3386 -36.8051,68.9271 -14.3207,78.5717 6.3101,-2.9222 11.444,-6.4596 16.0782,-10.2578 -0.824,7.6169 -0.5837,15.1768 0.722,22.6797 35.8137,8.3405 69.083,-30.8622 55.096,-54.9156 -13.2889,1.5771 -29.5575,7.1122 -48.2157,15.709 z" />
  </g>
</svg>
