<?xml version="1.0" encoding="UTF-8" standalone="no"?>
<svg
   xmlns:dc="http://purl.org/dc/elements/1.1/"
   xmlns:cc="http://creativecommons.org/ns#"
   xmlns:rdf="http://www.w3.org/1999/02/22-rdf-syntax-ns#"
   xmlns:svg="http://www.w3.org/2000/svg"
   xmlns="http://www.w3.org/2000/svg"
   xmlns:sodipodi="http://sodipodi.sourceforge.net/DTD/sodipodi-0.dtd"
   xmlns:inkscape="http://www.inkscape.org/namespaces/inkscape"
   inkscape:version="1.0 (4035a4fb49, 2020-05-01)"
   sodipodi:docname="Umbreon.svg"
   viewBox="0 0 725.66931 725.66931"
   id="svg35"
   height=""
   width=""
   version="1.1">
  <metadata
     id="metadata41">
    <rdf:RDF>
      <cc:Work
         rdf:about="">
        <dc:format>image/svg+xml</dc:format>
        <dc:type
           rdf:resource="http://purl.org/dc/dcmitype/StillImage" />
        <dc:title></dc:title>
      </cc:Work>
    </rdf:RDF>
  </metadata>
  <defs
     id="defs39" />
  <sodipodi:namedview
     inkscape:current-layer="svg35"
     inkscape:window-maximized="1"
     inkscape:window-y="-8"
     inkscape:window-x="-8"
     inkscape:cy="362.83466"
     inkscape:cx="362.83466"
     inkscape:zoom="0.79650605"
     showgrid="false"
     id="namedview37"
     inkscape:window-height="746"
     inkscape:window-width="1304"
     inkscape:pageshadow="2"
     inkscape:pageopacity="0"
     guidetolerance="10"
     gridtolerance="10"
     objecttolerance="10"
     borderopacity="1"
     bordercolor="#666666"
     pagecolor="#ffffff" />
  <g
     id="Layer1000">
    <path
       id="path2"
       style="fill:#454d50;fill-rule:evenodd;stroke:#000000;stroke-width:2.0001;stroke-linecap:butt;stroke-linejoin:miter;stroke-dasharray:none"
       d="m 374.7464,567.3251 h 161.3602 l 3.4133,-22.0301 8.6882,-6.517 c 26.4099,-9.527 50.6186,-25.663 71.2319,-52.5645 15.4061,-13.31 24.2463,-31.2513 25.5861,-54.4917 L 621.7519,408.4495 C 613.91,401.2343 609.5828,390.5326 609.1849,375.8678 579.3411,276.0925 418.4519,289.4569 379.7097,368.42 l -7.7574,80.0589 8.3786,39.7199 c 4.2652,39.9413 1.7357,64.8349 -5.5845,79.1263 z" />
    <path
       id="path4"
       style="fill:#e4c986;fill-rule:evenodd;stroke:#000000;stroke-width:2.0001;stroke-linecap:butt;stroke-linejoin:miter;stroke-dasharray:none"
       d="m 529.0115,342.1208 c -10.4596,15.8733 37.8528,52.5401 49.8398,43.5348 0.244,-16.9542 -25.8037,-51.0501 -49.8398,-43.5348 z m -21.1219,-14.646 c -26.2466,31.7222 63.5364,97.8312 87.8183,74.163 16.8529,-32.8819 -50.7049,-96.0167 -87.8183,-74.163 z" />
    <path
       id="path6"
       style="fill:#cf6b49;fill-rule:evenodd;stroke:#000000;stroke-width:2.0001;stroke-linecap:butt;stroke-linejoin:miter;stroke-dasharray:none"
       d="m 468.3255,438.2614 c 26.6407,58.3197 66.6608,48.5469 97.4391,8.0689 -31.7091,-21.5422 -64.0712,-27.076 -97.4391,-8.0689 z" />
    <path
       id="path8"
       style="fill:#454d50;fill-rule:evenodd;stroke:#000000;stroke-width:2.0001;stroke-linecap:butt;stroke-linejoin:miter;stroke-dasharray:none"
       d="m 380.0625,236.4233 c 34.141,29.3053 67.3738,52.2304 99.8579,69.9521 14.0869,-2.34 31.0974,-1.5612 48.2561,1.3042 -17.048,-49.0911 -37.1829,-93.8832 -76.4317,-133.9389 -42.7861,-49.7986 -123.4305,-69.9803 -188.3593,-93.4009 25.2915,59.485 65.7376,110.6628 116.677,156.0835 z" />
    <path
       id="path10"
       style="fill:#000000;fill-rule:evenodd;stroke:#000000;stroke-width:2.0001;stroke-linecap:butt;stroke-linejoin:miter;stroke-dasharray:none"
       d="m 479.9204,306.3754 c 16.5038,-2.5445 32.5104,-1.5481 48.2561,1.3042" />
    <path
       id="path12"
       style="fill:#e4c986;fill-rule:evenodd;stroke:#000000;stroke-width:2.0001;stroke-linecap:butt;stroke-linejoin:miter;stroke-dasharray:none"
       d="m 380.0625,236.4233 c -11.7525,-10.6248 -23.1429,-21.516 -33.9477,-32.8331 8.6544,-37.9916 33.73,-56.2763 71.3482,-59.5132 13.8542,9.2267 24.569,18.9845 33.7151,29.0088 -42.9193,4.3122 -67.0811,23.8615 -71.1156,63.3375 z" />
    <path
       id="path14"
       style="fill:#000000;fill-rule:evenodd;stroke:#000000;stroke-width:2.0001;stroke-linecap:butt;stroke-linejoin:miter;stroke-dasharray:none"
       d="M 423.5185,383.447 379.4433,371.1841" />
    <path
       id="path16"
       style="fill:#000000;fill-rule:evenodd;stroke:#000000;stroke-width:2.0001;stroke-linecap:butt;stroke-linejoin:miter;stroke-dasharray:none"
       d="m 422.2781,412.6153 -48.7533,19.6375" />
    <path
       id="path18"
       style="fill:#454d50;fill-rule:evenodd;stroke:#000000;stroke-width:2.0001;stroke-linecap:butt;stroke-linejoin:miter;stroke-dasharray:none"
       d="M 379.4433,371.1841 C 276.0088,330.5091 148.373,381.1858 65.4205,419.1324 202.4631,479.064 248.9008,484.656 373.5248,432.2528 Z" />
    <path
       id="path20"
       style="fill:#e4c986;fill-rule:evenodd;stroke:#000000;stroke-width:2.0001;stroke-linecap:butt;stroke-linejoin:miter;stroke-dasharray:none"
       d="M 224.739,467.85 C 199.7722,436.3117 188.6089,402.8425 208.3216,367.1571 l 49.2149,-8.8027 c -22.2572,36.9502 -9.7747,71.8456 15.969,106.3131 -16.3968,2.9986 -32.4015,5.0797 -48.7665,3.1825 z" />
    <path
       id="path22"
       style="fill:#454d50;fill-rule:evenodd"
       d="m 367.9309,367.8244 -2.0566,67.0312 15.787,-6.7887 8.9828,-52.5742 z" />
    <path
       id="path24"
       style="fill:#cf6b49;fill-rule:evenodd;stroke:#000000;stroke-width:2.0001;stroke-linecap:butt;stroke-linejoin:miter;stroke-dasharray:none"
       d="m 609.1849,375.8678 c 0.2121,15.3498 4.5337,26.0646 12.567,32.5817 2.2705,-12.2311 -1.1804,-23.248 -12.567,-32.5817 z" />
    <path
       id="path26"
       style="fill:#000000;fill-rule:evenodd;stroke:#000000;stroke-width:0.5;stroke-linecap:butt;stroke-linejoin:miter;stroke-dasharray:none"
       d="m 510.8241,426.6765 c -14.1077,5.2033 2.6793,40.4833 17.6352,40.9984 9.7722,-8.4439 4.7747,-37.4148 -17.6352,-40.9984 z" />
    <path
       id="path28"
       style="fill:#000000;fill-rule:evenodd"
       d="m 620.8971,440.4869 c 9.9425,7.3729 14.3172,2.8321 14.0715,-7.577 z" />
    <path
       id="path30"
       style="fill:#000000;fill-rule:evenodd;stroke:#000000;stroke-width:2.0001;stroke-linecap:round;stroke-linejoin:round;stroke-dasharray:none"
       d="m 623.7717,482.1738 c -9.3931,0.7407 -19.0451,5.8844 -28.938,15.1254" />
    <path
       id="path32"
       style="fill:#ffffff;fill-rule:evenodd"
       d="m 492.0831,437.8612 c 10.7618,-6.0945 21.1559,1.9979 22.125,9 -10.7617,6.0945 -21.1558,-1.9979 -22.125,-9 z" />
  </g>
</svg>
