<?xml version="1.0" encoding="UTF-8" standalone="no"?>
<svg
   xmlns:dc="http://purl.org/dc/elements/1.1/"
   xmlns:cc="http://creativecommons.org/ns#"
   xmlns:rdf="http://www.w3.org/1999/02/22-rdf-syntax-ns#"
   xmlns:svg="http://www.w3.org/2000/svg"
   xmlns="http://www.w3.org/2000/svg"
   xmlns:sodipodi="http://sodipodi.sourceforge.net/DTD/sodipodi-0.dtd"
   xmlns:inkscape="http://www.inkscape.org/namespaces/inkscape"
   inkscape:version="1.0 (4035a4fb49, 2020-05-01)"
   sodipodi:docname="Vaporeon.svg"
   viewBox="0 0 725.66931 725.66931"
   id="svg67"
   height=""
   width=""
   version="1.1">
  <metadata
     id="metadata73">
    <rdf:RDF>
      <cc:Work
         rdf:about="">
        <dc:format>image/svg+xml</dc:format>
        <dc:type
           rdf:resource="http://purl.org/dc/dcmitype/StillImage" />
        <dc:title></dc:title>
      </cc:Work>
    </rdf:RDF>
  </metadata>
  <defs
     id="defs71" />
  <sodipodi:namedview
     inkscape:current-layer="svg67"
     inkscape:window-maximized="1"
     inkscape:window-y="-8"
     inkscape:window-x="-8"
     inkscape:cy="362.83466"
     inkscape:cx="362.83466"
     inkscape:zoom="0.79650605"
     showgrid="false"
     id="namedview69"
     inkscape:window-height="746"
     inkscape:window-width="1304"
     inkscape:pageshadow="2"
     inkscape:pageopacity="0"
     guidetolerance="10"
     gridtolerance="10"
     objecttolerance="10"
     borderopacity="1"
     bordercolor="#666666"
     pagecolor="#ffffff" />
  <g
     id="Layer1000">
    <g
       id="Layer1001">
      <path
         id="path2"
         style="fill:#dfe6f2;fill-rule:evenodd;stroke:#000000;stroke-width:2.0001;stroke-linecap:round;stroke-linejoin:miter;stroke-dasharray:none"
         d="m 268.9605,361.7563 -33.1754,-14.1647 c 4.047,-3.6893 3.9789,-9.5742 1.8139,-16.5762 13.7511,-5.3244 22.0099,-16.6194 26.2381,-32.2938 14.099,-3.956 26.2165,-12.8625 36.1746,-27.1699 9.3032,2.5067 16.8916,3.3001 22.0535,1.666 l 12.7241,20.5358 z" />
      <path
         id="path4"
         style="fill:none;stroke:#000000;stroke-width:2.0001;stroke-linecap:round;stroke-linejoin:miter;stroke-dasharray:none"
         d="m 286.66,314.4026 5.3732,4.6807" />
      <path
         id="path6"
         style="fill:#dfe6f2;fill-rule:evenodd;stroke:#000000;stroke-width:2.0001;stroke-linecap:round;stroke-linejoin:miter;stroke-dasharray:none"
         d="m 349.5389,289.0972 -3.1485,-21.6676 c 2.9954,-0.5042 5.3792,-2.7209 7.3405,-6.1233 14.1755,10.5965 30.0715,10.4153 47.3533,1.5528 11.4593,13.2386 25.025,17.3485 40.2112,14.4389 2.8242,10.997 6.2158,17.4493 10.2821,18.5089 l -9.1953,22.9445 -21.2701,-7.6077 z" />
      <path
         id="path8"
         style="fill:none;stroke:#000000;stroke-width:2.0001;stroke-linecap:round;stroke-linejoin:miter;stroke-dasharray:none"
         d="m 406.3625,285.9919 -2.5021,7.3002" />
      <path
         id="path10"
         style="fill:#dfe6f2;fill-rule:evenodd;stroke:#000000;stroke-width:2.0001;stroke-linecap:round;stroke-linejoin:miter;stroke-dasharray:none"
         d="m 221.9931,465.8575 4.1489,7.1594 c 1.9317,6.8251 2.6133,14.0656 2.0613,21.7184 24.8072,3.6869 40.0925,22.1868 49.9933,49.061 20.5096,-5.8491 44.3878,2.2279 71.1076,22.047 27.5853,-17.8995 53.4591,-23.2436 77.3186,-13.8183 16.8053,-18.5849 37.275,-30.5278 60.7054,-37.1064 0.6914,-21.0786 10.3824,-37.7622 28.8782,-50.1478 -4.9868,-16.6612 -4.4846,-32.8651 5.4337,-48.2851 -5.6469,-6.8171 -8.8217,-13.4272 -9.5,-19.8298 l -9.9069,-11.6875 -53.8747,5.1234 -39.4352,72.8158 -35.2433,15.3702 -64.2768,-18.3201 -22.0465,-34.1565 z" />
      <path
         id="path12"
         style="fill:none;stroke:#000000;stroke-width:2.0001;stroke-linecap:round;stroke-linejoin:miter;stroke-dasharray:none"
         d="m 291.7567,450.0287 c -5.1924,2.9311 -9.922,6.9786 -13.2507,10.943" />
      <path
         id="path14"
         style="fill:none;stroke:#000000;stroke-width:2.0001;stroke-linecap:round;stroke-linejoin:miter;stroke-dasharray:none"
         d="m 316.5686,473.9989 c -7.5128,7.7936 -13.6788,16.4152 -18.5004,25.8645" />
      <path
         id="path16"
         style="fill:none;stroke:#000000;stroke-width:2.0001;stroke-linecap:round;stroke-linejoin:miter;stroke-dasharray:none"
         d="m 287.3553,518.4943 c -5.6356,7.6395 -8.9052,16.0072 -9.1587,25.302" />
      <path
         id="path18"
         style="fill:none;stroke:#000000;stroke-width:2.0001;stroke-linecap:round;stroke-linejoin:miter;stroke-dasharray:none"
         d="m 357.7019,485.4663 c -4.1728,19.0097 -6.6059,39.3254 -7.4664,60.8194" />
      <path
         id="path20"
         style="fill:none;stroke:#000000;stroke-width:2.0001;stroke-linecap:round;stroke-linejoin:miter;stroke-dasharray:none"
         d="m 398.6929,480.0866 c 12.21,18.1718 20.7907,38.2974 27.6177,59.3679" />
      <path
         id="path22"
         style="fill:none;stroke:#000000;stroke-width:2.0001;stroke-linecap:round;stroke-linejoin:miter;stroke-dasharray:none"
         d="m 430.1426,461.1867 23.4933,21.4442" />
      <path
         id="path24"
         style="fill:none;stroke:#000000;stroke-width:2.0001;stroke-linecap:round;stroke-linejoin:miter;stroke-dasharray:none"
         d="m 455.4217,430.9307 16.0692,8.2282" />
    </g>
    <g
       id="Layer1002">
      <path
         id="path27"
         style="fill:#367491;fill-rule:evenodd;stroke:#000000;stroke-width:2.0001;stroke-linecap:round;stroke-linejoin:miter;stroke-dasharray:none"
         d="M 274.5505,385.0299 C 226.5739,357.1915 157.5417,338.9657 71.4756,328.5166 c 32.1929,-1.7454 108.1206,0.5915 195.4673,27.9454 13.8511,-22.5962 26.1193,-47.6175 60.2392,-63.9647 -15.3496,-56.0011 -24.2411,-103.3943 -27.1699,-142.8357 22.1845,41.5694 37.2533,89.9009 52.4766,136.4707 34.4584,-0.5094 63.7665,7.3917 83.9935,26.2371 43.772,-49.9257 113.9679,-112.1605 174.5075,-123.5832 -72.1713,39.2212 -146.7592,107.5666 -165.0371,160.845 -20.2378,-22.622 -39.7949,-37.4106 -58.376,-40.9877 l -33.5355,33.5355 -40.3666,-18.6305 c -16.8166,12.5255 -29.7608,33.2238 -39.1241,61.4814 z" />
      <path
         id="path29"
         style="fill:none;stroke:#000000;stroke-width:2.0001;stroke-linecap:round;stroke-linejoin:miter;stroke-dasharray:none"
         d="m 329.0453,242.9744 22.9783,85.7013" />
      <path
         id="path31"
         style="fill:#f3edc5;fill-rule:evenodd;stroke:#000000;stroke-width:2.0001;stroke-linecap:round;stroke-linejoin:miter;stroke-dasharray:none"
         d="M 274.5505,385.0299 C 239.5162,352.8713 169.4414,335.006 71.4756,328.5166 c 16.4936,16.9691 30.0832,35.1493 41.6088,54.1886 58.1169,30.3504 80.7201,67.8671 91.6011,107.7479 28.5853,-23.8928 55.7707,-44.1085 81.0441,-59.3079 -5.3328,-14.8266 -9.3563,-30.0978 -11.1791,-46.1153 z" />
      <path
         id="path33"
         style="fill:none;stroke:#000000;stroke-width:2.0001;stroke-linecap:round;stroke-linejoin:miter;stroke-dasharray:none"
         d="m 113.0844,382.7052 c 60.1669,-5.0295 115.2376,-0.2567 164.6395,15.4149" />
      <path
         id="path35"
         style="fill:none;stroke:#000000;stroke-width:2.0001;stroke-linecap:round;stroke-linejoin:miter;stroke-dasharray:none"
         d="m 183.7389,442.905 c 29.6049,-18.1004 62.3395,-27.8553 96.9128,-32.7073" />
      <path
         id="path37"
         style="fill:#f3edc5;fill-rule:evenodd;stroke:#000000;stroke-width:2.0001;stroke-linecap:round;stroke-linejoin:miter;stroke-dasharray:none"
         d="m 444.7115,349.796 c -0.4178,-57.539 73.0215,-110.102 166.2783,-161.0098 -7.3443,18.1337 -11.8292,37.2219 -11.7213,57.8394 -49.4079,52.4025 -59.2712,106.2696 -41.6083,161.1559 -31.8642,-10.6003 -64.7749,-16.4795 -101.6086,-12.1734 -2.3204,-16.165 -6.2552,-30.8841 -11.3401,-45.8121 z" />
      <path
         id="path39"
         style="fill:none;stroke:#000000;stroke-width:2.0001;stroke-linecap:round;stroke-linejoin:miter;stroke-dasharray:none"
         d="M 451.4723,367.5702 C 469.4047,334.9647 529.2172,289.608 590.5408,256.3786" />
      <path
         id="path41"
         style="fill:none;stroke:#000000;stroke-width:2.0001;stroke-linecap:round;stroke-linejoin:miter;stroke-dasharray:none"
         d="m 453.22,376.5683 c 30.7508,-15.1017 63.1215,-21.0203 96.3561,-22.0437" />
    </g>
    <path
       id="path44"
       style="fill:#000000;fill-rule:evenodd;stroke:#000000;stroke-width:2.0001;stroke-linecap:round;stroke-linejoin:miter;stroke-dasharray:none"
       d="m 392.2353,346.149 v 51.8556 h 52.4762 V 346.149 Z" />
    <path
       id="path46"
       style="fill:#000000;fill-rule:evenodd;stroke:#000000;stroke-width:2.0001;stroke-linecap:round;stroke-linejoin:miter;stroke-dasharray:none"
       d="m 284.3326,373.6278 v 43.7827 h 59.1529 v -43.7827 z" />
    <path
       id="path48"
       style="fill:#8c657e;fill-rule:evenodd;stroke:#000000;stroke-width:2.0001;stroke-linecap:round;stroke-linejoin:miter;stroke-dasharray:none"
       d="m 340.0751,413.778 v 44.0931 H 409.319 V 413.778 Z" />
    <path
       id="path50"
       style="fill:#d4aecb;fill-rule:evenodd;stroke:#000000;stroke-width:2.0001;stroke-linecap:round;stroke-linejoin:miter;stroke-dasharray:none"
       d="m 399.3768,460.1882 -5.4069,-8.3034 c -10.7763,-4.0094 -20.6931,-3.3799 -28.105,6.6608 l 0.675,8.5512 21.1926,1.475 z" />
    <path
       id="path52"
       style="fill:#7bcfe1;fill-rule:evenodd;stroke:#000000;stroke-width:2.0001;stroke-linecap:round;stroke-linejoin:miter;stroke-dasharray:none"
       d="m 429.8858,350.3377 c 17.5667,34.6194 1.8933,51.3937 -31.6722,36.0197 0.4966,-22.8727 10.474,-35.5042 31.6722,-36.0197 z m -140.6627,29.1881 c -2.0946,37.0008 22.0719,43.2151 48.1297,20.8044 -8.0123,-19.1732 -22.7286,-28.1276 -48.1297,-20.8044 z m 155.0218,-31.0587 c 8.4925,24.0228 16.0039,53.9732 11.7236,81.4407 -15.5382,29.4612 -41.129,44.3897 -74.057,57.2893 -29.4161,-0.4145 -57.7352,-6.3106 -83.8386,-23.2882 -11.8152,-24.5401 -21.0837,-50.6815 -25.2302,-80.0432 0.2202,-29.4293 11.5786,-51.0961 39.1241,-61.4814 l 38.6828,1.1685 35.2193,-16.0735 c 27.736,-2.8921 45.5468,14.0666 58.376,40.9878 z m -48.5329,74.3011 c 5.3238,49.8745 -24.8622,60.872 -44.6897,10.2947 8.5737,-4.8451 15.5857,-11.1388 21.2621,-18.6755 7.4382,3.6733 15.2777,6.3955 23.4276,8.3808 z" />
    <path
       id="path54"
       style="fill:#ffffff;fill-rule:evenodd"
       d="m 311.6579,382.0875 c -7.1918,5.5759 -1.9956,18.2816 6.4425,16.4569 6.6477,-1.7524 5.1046,-19.0355 -6.4425,-16.4569 z" />
    <path
       id="path56"
       style="fill:#ffffff;fill-rule:evenodd"
       d="m 411.4145,359.4166 c -6.4824,6.6204 1.3069,20.395 8.8498,18.1643 5.3276,-2.1406 1.222,-22.684 -8.8498,-18.1643 z" />
    <path
       id="path58"
       style="fill:#533e73;fill-rule:evenodd"
       d="m 412.4971,387.7549 c 5.429,6.6989 23.1116,2.3575 21.4254,-8.3836 -5.0441,-6.1172 -21.4428,-0.4154 -21.4254,8.3836 z" />
    <path
       id="path60"
       style="fill:#533e73;fill-rule:evenodd"
       d="m 299.3155,403.3594 c 2.933,8.6592 17.8521,9.353 21.9691,1.0867 -4.7803,-5.3956 -14.6802,-9.8449 -21.9691,-1.0867 z" />
    <path
       id="path62"
       style="fill:#000000;fill-rule:evenodd"
       d="m 366.1825,400.589 c 2.6775,1.2208 4.9824,0.8769 6.7758,-1.604 -2.4828,-1.989 -4.7467,-1.507 -6.7758,1.604 z" />
    <path
       id="path64"
       style="fill:none;stroke:#000000;stroke-width:2.0001;stroke-linecap:round;stroke-linejoin:miter;stroke-dasharray:none"
       d="m 333.1598,434.2599 c 9.6141,6.0144 22.8859,-1.4585 39.1246,-19.8725 21.5165,9.5281 34.4804,11.8968 38.1931,6.5204" />
  </g>
</svg>
