<?xml version="1.0" encoding="UTF-8" standalone="no"?>
<svg
   xmlns:dc="http://purl.org/dc/elements/1.1/"
   xmlns:cc="http://creativecommons.org/ns#"
   xmlns:rdf="http://www.w3.org/1999/02/22-rdf-syntax-ns#"
   xmlns:svg="http://www.w3.org/2000/svg"
   xmlns="http://www.w3.org/2000/svg"
   xmlns:sodipodi="http://sodipodi.sourceforge.net/DTD/sodipodi-0.dtd"
   xmlns:inkscape="http://www.inkscape.org/namespaces/inkscape"
   version="1.1"
   width=""
   height=""
   id="svg6"
   viewBox="0 0 725.66931 725.66931"
   sodipodi:docname="mode_switch.svg"
   inkscape:version="1.0 (4035a4fb49, 2020-05-01)">
  <metadata
     id="metadata12">
    <rdf:RDF>
      <cc:Work
         rdf:about="">
        <dc:format>image/svg+xml</dc:format>
        <dc:type
           rdf:resource="http://purl.org/dc/dcmitype/StillImage" />
        <dc:title />
      </cc:Work>
    </rdf:RDF>
  </metadata>
  <defs
     id="defs10" />
  <sodipodi:namedview
     inkscape:document-rotation="0"
     pagecolor="#ffffff"
     bordercolor="#666666"
     borderopacity="1"
     objecttolerance="10"
     gridtolerance="10"
     guidetolerance="10"
     inkscape:pageopacity="0"
     inkscape:pageshadow="2"
     inkscape:window-width="1304"
     inkscape:window-height="746"
     id="namedview8"
     showgrid="false"
     inkscape:zoom="0.79650605"
     inkscape:cx="362.83466"
     inkscape:cy="362.83466"
     inkscape:window-x="-8"
     inkscape:window-y="-8"
     inkscape:window-maximized="1"
     inkscape:current-layer="svg6" />
  <path
     d="m 240.6954,496.7745 34.9493,-13.2913 c 10.8365,28.6713 12.6378,54.9731 5.4769,79.0096 -7.1612,24.0368 -22.3674,44.2345 -45.6556,60.5411 -24.0697,16.8537 -47.088,25.6727 -69.0914,26.4055 -21.967,0.7847 -43.3878,-5.4128 -64.2781,-18.5037 C 81.1696,617.7929 63.2383,600.6114 48.2815,579.2509 31.9749,555.9627 22.1763,532.5432 18.9371,508.9561 c -3.2389,-23.5868 0.1916,-45.6325 10.2919,-66.137 10.1,-20.5043 25.0409,-37.6433 44.7343,-51.4328 22.4028,-15.6866 45.1868,-23.177 68.3888,-22.4195 23.2542,0.721 45.0815,9.2734 65.5191,25.7096 l -24.2558,27.2326 c -16.5398,-12.6432 -32.4115,-19.2322 -47.4381,-19.7355 -15.0636,-0.5554 -30.0532,4.428 -45.0055,14.8977 -17.1405,12.0019 -28.638,26.1862 -34.3881,42.48 -5.7498,16.2937 -6.1071,33.0814 -1.0401,50.1867 5.0512,17.1934 12.7388,33.1624 23.0626,47.9064 13.3151,19.0159 27.7135,33.7022 43.1586,44.0061 15.4816,10.3562 31.4835,14.9133 48.0783,13.7748 16.5951,-1.1382 31.6469,-6.4756 45.2449,-15.997 16.5674,-11.6006 27.1739,-26.1701 31.9599,-43.7301 4.7493,-17.6119 2.5894,-37.2181 -6.5525,-58.9236 z m 121.2973,32.0741 -156.7184,-223.817 84.5046,-59.1707 c 14.8483,-10.3969 26.7164,-17.62 35.5684,-21.722 12.2696,-5.8739 23.9353,-8.8399 34.9606,-8.951 11.0615,-0.0588 22.0872,2.9357 33.0766,8.9833 10.9899,6.0478 20.3437,14.6383 28.114,25.7354 13.2787,18.9639 18.5073,39.2943 15.5616,60.9231 -2.8576,21.6445 -20.1949,43.5669 -51.8711,65.7468 l -57.413,40.201 63.9132,91.2774 z M 309.3902,390.5199 367.22,350.027 c 19.1726,-13.4247 30.2375,-26.4524 33.3148,-39.2443 3.0257,-12.7555 0.0331,-25.5676 -9.0503,-38.5401 -6.5299,-9.3257 -14.4925,-15.7074 -23.903,-19.0562 -9.4103,-3.349 -18.7631,-3.3999 -27.9693,-0.1369 -5.9135,2.1995 -15.6093,7.9794 -28.9987,17.3548 l -57.2567,40.0915 z m 201.0696,-72.7759 26.0698,-21.9809 c 9.1823,10.3413 18.7129,17.4105 28.6287,21.2596 9.8797,3.7969 21.4678,4.3789 34.7642,1.7459 13.2601,-2.6854 26.2905,-8.4707 39.0027,-17.3719 11.3054,-7.9161 20.0889,-16.5509 26.3663,-25.9929 6.277,-9.4422 9.4385,-18.5661 9.5363,-27.4081 0.0978,-8.842 -2.2534,-16.7459 -7.0688,-23.623 -4.8882,-6.9811 -11.1882,-11.6542 -18.9363,-14.0708 -7.7116,-2.3642 -17.497,-2.0348 -29.3918,0.9367 -7.5965,1.9029 -23.4354,7.5586 -47.4801,17.0188 -24.0447,9.4602 -41.6705,14.8917 -52.9665,16.2794 -14.62,1.8518 -27.4276,0.4154 -38.4379,-4.2202 -11.0622,-4.5992 -20.197,-12.101 -27.3837,-22.3646 -7.9526,-11.3574 -12.1281,-24.1953 -12.5781,-38.477 -0.4863,-14.3337 3.6226,-28.3138 12.395,-42.0653 8.7203,-13.715 20.6347,-25.8621 35.6913,-36.4047 16.5676,-11.6008 33.0678,-19.1945 49.4851,-22.6931 16.3813,-3.5506 31.632,-2.5053 45.7533,3.1356 14.0843,5.5889 25.9759,14.8094 35.6896,27.5735 l -26.9136,22.1063 c -11.397,-13.0609 -24.0334,-20.1295 -37.8722,-21.1541 -13.8755,-1.0765 -29.4174,4.4487 -46.61,16.487 -17.9219,12.5491 -28.7005,24.9879 -32.2838,37.2796 -3.5828,12.2919 -2.1538,23.093 4.3397,32.3667 5.6178,8.0231 13.1685,12.5967 22.5994,13.7575 9.3423,1.1449 27.9481,-3.8857 55.8116,-15.3212 27.9003,-11.3836 47.7354,-18.2067 59.5417,-20.4174 17.168,-3.0923 32.0958,-2.2868 44.7524,2.5935 12.6202,4.8283 23.0997,13.2522 31.4902,25.235 8.3539,11.9305 12.774,25.4509 13.3181,40.7537 0.5439,15.303 -3.4709,30.3042 -12.1494,45.077 -8.6784,14.7727 -20.963,27.7223 -36.9572,38.9216 -20.2145,14.1543 -39.2262,23.0407 -56.9981,26.7112 -17.8244,3.7073 -34.7063,2.3288 -50.7863,-4.1143 -16.0958,-6.3545 -29.5349,-16.8985 -40.4216,-31.5591 z"
     style="fill:#ffffff;fill-opacity:1;fill-rule:evenodd;stroke:#ffffff;stroke-width:4;stroke-linecap:butt;stroke-linejoin:miter;stroke-dasharray:none;opacity:0.3"
     id="path2" />
  <path
     d="M 108.4966,317.7556 V 161.3577 h 31.0176 l 36.9878,110.709 c 3.422,10.3028 5.8978,18.0207 7.4631,23.154 1.7838,-5.6795 4.587,-14.0528 8.3733,-25.0835 l 37.6432,-108.7795 h 27.7047 V 317.7556 H 237.8089 V 186.9143 L 192.1564,317.7556 H 173.5169 L 128.374,184.5113 v 133.2443 z m 172.7805,-56.6833 c 0,-20.9333 5.8249,-36.4419 17.511,-46.5262 9.7203,-8.3732 21.6249,-12.56 35.6411,-12.56 15.5452,0 28.287,5.0967 38.1892,15.2903 9.866,10.1571 14.8173,24.2462 14.8173,42.194 0,14.5622 -2.1844,25.9934 -6.5531,34.3304 -4.3688,8.3367 -10.7397,14.817 -19.1129,19.4406 -8.337,4.6233 -17.4748,6.9168 -27.3405,6.9168 -15.8729,0 -28.6874,-5.0601 -38.4806,-15.2175 -9.7931,-10.1571 -14.6715,-24.7921 -14.6715,-43.8684 z m 19.6591,0.0363 c 0,14.4893 3.1671,25.3383 9.5017,32.5102 6.3709,7.2083 14.3439,10.8122 23.9913,10.8122 9.5383,0 17.4745,-3.6039 23.8456,-10.8487 6.3346,-7.2448 9.5018,-18.2756 9.5018,-33.0925 0,-13.9797 -3.2037,-24.5739 -9.5746,-31.7458 -6.3709,-7.2082 -14.3073,-10.8122 -23.7728,-10.8122 -9.6474,0 -17.6204,3.5677 -23.9913,10.7396 -6.3346,7.1717 -9.5017,17.9842 -9.5017,32.4372 z m 182.2096,56.647 v -14.3802 c -7.1719,11.1764 -17.7296,16.7828 -31.6729,16.7828 -9.0286,0 -17.3291,-2.4755 -24.865,-7.4631 -7.5722,-4.9509 -13.4336,-11.9046 -17.6201,-20.7875 -4.1502,-8.9193 -6.2255,-19.1492 -6.2255,-30.7262 0,-11.2856 1.8933,-21.5155 5.643,-30.7261 3.7862,-9.1744 9.4288,-16.2369 16.965,-21.1153 7.4994,-4.9147 15.9455,-7.3539 25.2289,-7.3539 6.8443,0 12.924,1.4561 18.2393,4.3322 5.3149,2.876 9.6474,6.6622 12.9966,11.2858 v -56.2464 h 19.2223 v 156.3979 z m -60.7244,-56.5379 c 0,14.4896 3.0581,25.302 9.2107,32.4737 6.116,7.1719 13.3608,10.7396 21.6975,10.7396 8.4098,0 15.5452,-3.422 21.4429,-10.2662 5.8612,-6.8443 8.8101,-17.2925 8.8101,-31.3452 0,-15.4358 -2.9852,-26.7942 -8.992,-34.039 -5.9707,-7.2448 -13.3609,-10.8488 -22.1347,-10.8488 -8.5552,0 -15.6909,3.4583 -21.4429,10.4119 -5.7155,6.9534 -8.5916,17.9116 -8.5916,32.874 z m 186.3599,19.8411 19.8773,2.6212 c -3.0945,11.5407 -8.8829,20.5328 -17.329,26.9036 -8.4461,6.3712 -19.222,9.5746 -32.3646,9.5746 -16.5279,0 -29.6339,-5.0967 -39.3179,-15.2901 -9.6837,-10.1574 -14.5256,-24.4647 -14.5256,-42.8493 0,-19.0038 4.8782,-33.7845 14.6713,-44.2693 9.7931,-10.521 22.4986,-15.7634 38.1166,-15.7634 15.1081,0 27.4496,5.1332 37.0245,15.436 9.5745,10.3026 14.3801,24.7921 14.3801,43.4682 0,1.1285 -0.0366,2.8395 -0.1094,5.0967 h -84.4243 c 0.7283,12.4143 4.2231,21.9523 10.5577,28.5418 6.298,6.5894 14.1982,9.9022 23.627,9.9022 7.0263,0 13.0332,-1.8567 17.9844,-5.5698 4.9876,-3.7134 8.9193,-9.6477 11.8319,-17.8024 z m -62.9088,-30.799 h 63.127 c -0.837,-9.5383 -3.2763,-16.6737 -7.2445,-21.4429 -6.0797,-7.3903 -14.0162,-11.1036 -23.7364,-11.1036 -8.8101,0 -16.2003,2.9488 -22.2075,8.8466 -5.9703,5.8975 -9.2832,13.7976 -9.9386,23.6999 z M 53.6885,511.5419 73.129,509.7943 c 0.91,7.8636 3.0581,14.3073 6.4438,19.3677 3.3857,5.0241 8.6281,9.1015 15.7271,12.2324 7.0991,3.0945 15.1084,4.6598 23.9913,4.6598 7.8999,0 14.8533,-1.165 20.8968,-3.5314 6.0431,-2.3663 10.521,-5.6063 13.4699,-9.7202 2.9489,-4.1137 4.4413,-8.5916 4.4413,-13.3972 0,-4.8784 -1.4195,-9.1377 -4.2593,-12.8148 -2.8395,-3.6406 -7.5359,-6.6986 -14.0888,-9.2106 -4.1867,-1.6016 -13.4702,-4.1502 -27.8503,-7.6088 -14.3802,-3.4583 -24.4282,-6.6985 -30.1802,-9.7566 -7.4631,-3.9316 -12.9966,-8.81 -16.6371,-14.5987 -3.6771,-5.7883 -5.4973,-12.3049 -5.4973,-19.4768 0,-7.9365 2.257,-15.3267 6.7349,-22.1709 4.4779,-6.8805 10.9944,-12.0867 19.6225,-15.6543 8.5918,-3.5677 18.1664,-5.3516 28.6875,-5.3516 11.577,0 21.8069,1.8567 30.6536,5.6064 8.8466,3.7134 15.6543,9.2106 20.4233,16.4917 4.7693,7.2448 7.3176,15.4723 7.6816,24.6464 l -19.8774,1.529 c -1.0556,-9.8657 -4.6599,-17.3288 -10.8125,-22.3529 -6.1523,-5.0604 -15.2537,-7.5722 -27.2675,-7.5722 -12.5235,0 -21.6613,2.2935 -27.3771,6.8805 -5.7154,4.5871 -8.5915,10.1209 -8.5915,16.6009 0,5.6066 2.0387,10.2299 6.0798,13.8705 4.0045,3.6042 14.3801,7.3539 31.1992,11.1401 16.8194,3.8225 28.3601,7.1354 34.6218,9.9751 9.0649,4.1865 15.8,9.4655 20.1322,15.9092 4.3322,6.4074 6.4803,13.7976 6.4803,22.1709 0,8.337 -2.3663,16.1277 -7.1356,23.4816 -4.769,7.3539 -11.577,13.0694 -20.4962,17.1471 -8.9195,4.0773 -18.9309,6.116 -30.1074,6.116 -14.1253,0 -25.9571,-2.0752 -35.4954,-6.1889 -9.5746,-4.1139 -17.0376,-10.3028 -22.4623,-18.6032 -5.4607,-8.2641 -8.3004,-17.6204 -8.5915,-28.0686 z m 170.4506,50.2395 -34.2578,-113.3668 h 20.0959 l 18.0936,65.4208 6.4074,24.3552 c 0.2548,-1.2013 2.2207,-8.992 5.8612,-23.3722 l 17.9478,-66.4038 h 19.6954 l 17.0743,65.8213 5.57,21.5884 6.5166,-21.8798 19.5863,-65.5299 h 18.676 L 309.8375,561.7814 H 289.9602 L 271.9757,493.958 267.425,474.554 244.4896,561.7814 Z M 361.4967,427.2267 v -21.8432 h 19.2223 v 21.8432 z m 0,134.5547 V 448.4146 h 19.2223 v 113.3668 z m 90.2494,-17.147 2.6212,16.965 c -5.3881,1.1285 -10.2299,1.711 -14.453,1.711 -6.9534,0 -12.3414,-1.0922 -16.2005,-3.3128 -3.8226,-2.2207 -6.5166,-5.0967 -8.0819,-8.701 -1.5656,-3.6042 -2.3301,-11.1764 -2.3301,-22.7171 v -65.3114 h -14.1981 v -14.8535 h 14.1981 v -28.0321 l 19.2223,-11.5407 v 39.5728 h 19.222 v 14.8535 h -19.222 v 66.4036 c 0,5.4972 0.3274,9.0286 1.0194,10.5942 0.6551,1.5653 1.7472,2.8032 3.2762,3.7497 1.5291,0.9102 3.7134,1.3833 6.5532,1.3833 2.1115,0 4.9147,-0.2549 8.3732,-0.7645 z m 93.0161,-24.3553 18.7852,2.6212 c -2.075,12.924 -7.3174,23.0082 -15.8,30.3259 -8.4824,7.3173 -18.9306,10.9579 -31.2721,10.9579 -15.4724,0 -27.9233,-5.0602 -37.3159,-15.181 -9.4288,-10.1208 -14.1253,-24.6101 -14.1253,-43.4681 0,-12.2324 2.0387,-22.8992 6.0798,-32.0732 4.041,-9.1378 10.1936,-16.0186 18.494,-20.5693 8.2642,-4.5871 17.2562,-6.8806 27.0128,-6.8806 12.2686,0 22.3532,3.0946 30.1439,9.3198 7.827,6.2254 12.8511,15.0718 15.0355,26.5034 l -18.5669,2.8394 c -1.7838,-7.6087 -4.9147,-13.3242 -9.4655,-17.1833 -4.5141,-3.8225 -9.9751,-5.7521 -16.3825,-5.7521 -9.6837,0 -17.5473,3.4586 -23.6271,10.3757 -6.0431,6.9534 -9.0649,17.875 -9.0649,32.8739 0,15.2175 2.9123,26.2486 8.7373,33.1291 5.8612,6.8808 13.4699,10.3391 22.8262,10.3391 7.5725,0 13.8705,-2.2935 18.8944,-6.9168 5.0604,-4.5873 8.2641,-11.6864 9.6111,-21.261 z m 35.1675,41.5023 V 405.3835 h 19.2223 v 56.2828 c 8.9192,-10.4483 20.1685,-15.6544 33.7841,-15.6544 8.337,0 15.5818,1.6382 21.7707,4.9513 6.1523,3.3129 10.5576,7.8636 13.2151,13.6882 2.6575,5.8249 3.9682,14.3076 3.9682,25.3746 v 71.7554 h -19.222 v -71.6825 c 0,-9.5746 -2.0752,-16.5645 -6.1892,-20.933 -4.1502,-4.3688 -9.9751,-6.5531 -17.5473,-6.5531 -5.6429,0 -10.9582,1.4564 -15.9457,4.405 -4.9876,2.9489 -8.5187,6.9537 -10.6668,12.0138 -2.1115,5.0241 -3.1671,11.9775 -3.1671,20.8604 v 61.8894 z"
     style="fill:#ffffff;fill-rule:evenodd;stroke:#ffffff;stroke-width:4;stroke-linecap:butt;stroke-linejoin:miter;stroke-dasharray:none"
     id="path4" />
</svg>
