<?xml version="1.0" encoding="UTF-8" standalone="no"?>
<svg
   xmlns:dc="http://purl.org/dc/elements/1.1/"
   xmlns:cc="http://creativecommons.org/ns#"
   xmlns:rdf="http://www.w3.org/1999/02/22-rdf-syntax-ns#"
   xmlns:svg="http://www.w3.org/2000/svg"
   xmlns="http://www.w3.org/2000/svg"
   xmlns:xlink="http://www.w3.org/1999/xlink"
   xmlns:sodipodi="http://sodipodi.sourceforge.net/DTD/sodipodi-0.dtd"
   xmlns:inkscape="http://www.inkscape.org/namespaces/inkscape"
   inkscape:version="1.0 (4035a4fb49, 2020-05-01)"
   sodipodi:docname="123.svg"
   viewBox="0 0 725.66931 725.66931"
   id="svg93"
   height=""
   width=""
   version="1.1">
  <metadata
     id="metadata99">
    <rdf:RDF>
      <cc:Work
         rdf:about="">
        <dc:format>image/svg+xml</dc:format>
        <dc:type
           rdf:resource="http://purl.org/dc/dcmitype/StillImage" />
        <dc:title></dc:title>
      </cc:Work>
    </rdf:RDF>
  </metadata>
  <defs
     id="defs97" />
  <sodipodi:namedview
     inkscape:current-layer="svg93"
     inkscape:window-maximized="0"
     inkscape:window-y="0"
     inkscape:window-x="0"
     inkscape:cy="362.83466"
     inkscape:cx="362.83466"
     inkscape:zoom="0.79650605"
     showgrid="false"
     id="namedview95"
     inkscape:window-height="480"
     inkscape:window-width="820"
     inkscape:pageshadow="2"
     inkscape:pageopacity="0"
     guidetolerance="10"
     gridtolerance="10"
     objecttolerance="10"
     borderopacity="1"
     bordercolor="#666666"
     pagecolor="#ffffff" />
  <path
     id="path2"
     style="fill:none;stroke:#00ff00;stroke-width:10.0001;stroke-linecap:butt;stroke-linejoin:miter;stroke-dasharray:none"
     d="M 369.5347,95.1025 A 257.4897,257.4897 0 0 1 627.0244,352.5922 257.4897,257.4897 0 1 1 369.5347,95.1025 Z" />
  <g
     id="Layer1000">
    <g
       id="Layer1001">
      <defs
         id="defs10">
        <linearGradient
           id="grad1">
          <stop
             id="stop4"
             stop-opacity="1.0000"
             stop-color="#e000b3"
             offset="0%" />
          <stop
             id="stop6"
             stop-opacity="1.0000"
             stop-color="#ff8ae7"
             offset="100%" />
        </linearGradient>
        <linearGradient
           gradientUnits="objectBoundingBox"
           gradientTransform="rotate(180,0.5,0.5)"
           y2="1"
           x2="0"
           y1="0"
           x1="0"
           id="grad2"
           xlink:href="#grad1" />
      </defs>
      <path
         id="path12"
         style="fill:url(#grad2)"
         d="m 285.1436,567.6151 c 0,-13.7292 5.248,-23.6217 13.1224,-30.2843 3.625,-2.9341 7.731,-5.2656 12.1155,-6.8646 8.8834,-3.2284 18.7775,-4.0378 27.9636,-2.6248 4.1376,0.6067 8.0756,1.7155 11.7095,3.1301 3.2851,1.258 6.4038,2.9216 9.2825,4.9452 4.4418,3.1285 7.9758,6.9651 10.2981,11.6081 12.8199,-29.5778 84.694,-27.6595 84.2901,26.8516 -0.3026,39.1678 -42.903,75.6094 -84.9982,118.6138 -41.5898,-44.72 -83.8862,-84.6956 -83.7848,-125.3762 z" />
      <path
         id="path14"
         style="fill:#f6d5ff;fill-rule:evenodd"
         d="m 403.6544,536.7241 c 11.3071,-3.5325 24.5309,-0.0998 34.726,9.2874 6.8654,9.3888 10.1967,21.4008 8.6823,34.0195 -0.9092,-12.7201 -6.764,-22.714 -14.1331,-29.0725 -6.7639,-9.186 -17.5657,-15.3449 -29.2736,-14.2344 z" />
    </g>
  </g>
  <g
     id="Layer1002">
    <g
       id="Layer1003">
      <path
         id="path18"
         style="fill:#80e5ff;fill-rule:evenodd"
         d="m 522.7765,515.0397 c -1.4613,-42.1918 50.3656,-86.6778 68.0561,-128.62 21.3665,45.9301 74.934,79.7344 74.5752,128.1739 z" />
      <defs
         id="defs26">
        <linearGradient
           id="grad3">
          <stop
             id="stop20"
             stop-opacity="1.0000"
             stop-color="#80e5ff"
             offset="0%" />
          <stop
             id="stop22"
             stop-opacity="1.0000"
             stop-color="#18d0ff"
             offset="100%" />
        </linearGradient>
        <linearGradient
           gradientUnits="objectBoundingBox"
           gradientTransform="rotate(-2,0.5,0.5)"
           y2="1"
           x2="0"
           y1="0"
           x1="0"
           id="grad4"
           xlink:href="#grad3" />
      </defs>
      <path
         id="path28"
         style="fill:url(#grad4)"
         d="m 665.3049,514.3612 a 71.2002,67.3871 0 0 1 -71.2002,67.3871 71.2002,67.3871 0 1 1 71.2002,-67.3871 z" />
      <path
         id="path30"
         style="fill:#d5f6ff;fill-rule:evenodd"
         d="m 600.0982,412.3246 c 7.3582,15.4104 19.3515,28.5671 30.0753,42.1138 1.4972,1.8933 2.9679,3.7898 4.3933,5.6956 4.1642,4.4558 8.085,9.0301 11.5099,13.8773 4.7552,6.7219 8.6245,14.0582 10.836,22.4208 -1.1821,-8.609 -4.1079,-16.5255 -8.1333,-24.0833 -2.8899,-5.4258 -6.3179,-10.6131 -10.0032,-15.6833 -1.5942,-1.7677 -3.3372,-3.6111 -4.9795,-5.354 -11.9668,-12.5469 -25.0034,-24.47 -33.6842,-38.9743 z" />
    </g>
  </g>
  <g
     id="Layer1004">
    <g
       id="Layer1005">
      <defs
         id="defs40">
        <linearGradient
           id="grad5">
          <stop
             id="stop34"
             stop-opacity="1.0000"
             stop-color="#d85c0a"
             offset="0%" />
          <stop
             id="stop36"
             stop-opacity="1.0000"
             stop-color="#f4900c"
             offset="100%" />
        </linearGradient>
        <linearGradient
           gradientUnits="objectBoundingBox"
           gradientTransform="rotate(180,0.5,0.5)"
           y2="1"
           x2="0"
           y1="0"
           x1="0"
           id="grad6"
           xlink:href="#grad5" />
      </defs>
      <path
         id="path42"
         style="fill:url(#grad6)"
         d="m 565.699,139.2303 c -78.2372,50.1754 -65.8103,169.859 27.3772,169.232 95.803,-0.6457 101.5922,-129.1768 25.4651,-166.7694 12.7357,24.1582 18.7978,51.4091 -0.0483,68.1046 -7.3161,6.4801 1.583,-34.2738 -19.1831,-33.4191 12.8371,19.0645 -22.2336,40.81 -16.8483,13.294 -10.663,3.4795 -10.9141,25.6663 -17.6812,17.9822 -9.4044,-10.6833 -18.0071,-42.3088 0.9186,-68.4243 z" />
    </g>
  </g>
  <g
     id="Layer1006">
    <g
       id="Layer1007">
      <g
         id="Layer1008">
        <path
           id="path46"
           style="fill:#ffffff;fill-rule:evenodd"
           d="m 75.4056,143.4259 c 10.7971,-10.5273 114.7474,-16.2136 139.3344,1.7935 21.5147,17.742 8.9646,39.5171 3.8413,60.411 l -24.2985,52.0718 -23.3831,27.176 -7.8759,17.6265 c -5.1561,9.2484 -15.1266,13.6824 -32.5239,10.6895 -15.858,-21.0093 -10.8205,-17.6016 -14.7101,-20.3527 -3.8444,-9.3139 -12.6312,-15.9313 -11.5317,-27.9418 L 90.136,233.9355 75.8875,197.979 C 64.5835,172.4593 61.6031,160.976 75.404,143.4243 Z" />
        <path
           id="path48"
           style="fill:#6f87ac;fill-rule:evenodd"
           d="M 75.4056,143.4259 C 13.2883,217.1012 177.0492,220.6088 217.7267,173.4871 163.1844,195.716 46.5826,182.6263 75.4056,143.4259 Z" />
        <path
           id="path50"
           style="fill:#90a3c2;fill-rule:evenodd"
           d="m 214.7416,145.221 c 84.6565,63.9497 -83.9267,92.9987 -137.3881,52.4742 50.5512,26.3415 182.5821,-7.1695 137.3881,-52.4742 z" />
        <path
           id="path52"
           style="fill:#aabbd5;fill-rule:evenodd"
           d="m 75.8875,197.9774 c -11.9684,62.8721 112.6653,41.2748 140.9673,7.09 -27.073,20.072 -128.1443,22.349 -140.9673,-7.0884 z" />
        <path
           id="path54"
           style="fill:#7f99c1;fill-rule:evenodd"
           d="m 218.5813,205.6304 c 26.2808,68.5926 -100.8155,64.037 -127.4394,28.6513 31.0968,19.7445 118.1629,-4.4698 127.4394,-28.6498 z" />
        <path
           id="path56"
           style="fill:#a9bbd6;fill-rule:evenodd"
           d="m 90.136,233.9355 c -6.254,48.661 79.6143,49.1585 96.6202,25.8909 -38.2663,7.2256 -88.7567,-6.8373 -96.6202,-25.8893 z" />
        <path
           id="path58"
           style="fill:#c0d0e9;fill-rule:evenodd"
           d="m 194.2843,257.7022 c 6.176,26.5022 -48.923,36.769 -79.4443,16.9622 38.3318,6.9916 70.1398,-4.9611 79.4443,-16.9622 z" />
        <path
           id="path60"
           style="fill:#88a0c0;fill-rule:evenodd"
           d="m 104.2581,264.8997 c -9.0768,35.8505 46.2015,35.197 61.5901,21.956 -26.8563,2.8557 -61.6228,-8.9427 -61.5901,-21.956 z" />
        <path
           id="path62"
           style="fill:#c0d0e9;fill-rule:evenodd"
           d="m 170.8997,284.8782 c 2.0322,21.0935 -36.0688,25.4479 -55.1099,7.9633 25.3622,8.0007 47.8453,0.7844 55.1099,-7.9633 z" />
        <path
           id="path64"
           style="fill:#acbbd3;fill-rule:evenodd"
           d="m 118.9059,295.8437 c -3.3017,19.9581 30.724,16.6565 39.3626,8.6433 -16.3695,2.9819 -38.5501,-1.5721 -39.3626,-8.6433 z" />
        <path
           id="path66"
           style="fill:#c0d0e9;fill-rule:evenodd"
           d="m 163.0238,302.5047 c 3.7617,11.0201 -18.8618,17.795 -32.5239,10.6895 16.3664,1.3069 29.1583,-5.1716 32.5239,-10.6895 z" />
        <path
           id="path68"
           style="fill:#4a5f80;fill-rule:evenodd"
           d="m 77.4159,147.1299 c 6.6797,-10.3042 119.618,-16.5083 135.5477,0.9217 44.4314,48.6205 -163.084,41.5586 -135.5477,-0.9201 z" />
      </g>
    </g>
  </g>
  <g
     id="Layer1009">
    <g
       id="Layer1010">
      <defs
         id="defs79">
        <linearGradient
           id="grad7">
          <stop
             id="stop73"
             stop-opacity="1.0000"
             stop-color="#927f72"
             offset="0%" />
          <stop
             id="stop75"
             stop-opacity="1.0000"
             stop-color="#ac9d93"
             offset="100%" />
        </linearGradient>
        <linearGradient
           gradientUnits="objectBoundingBox"
           gradientTransform="rotate(-153,0.5,0.5)"
           y2="1"
           x2="0"
           y1="0"
           x1="0"
           id="grad8"
           xlink:href="#grad7" />
      </defs>
      <path
         id="path81"
         style="fill:url(#grad8);stroke:#6c5d53;stroke-width:4.1272;stroke-linecap:butt;stroke-linejoin:miter;stroke-dasharray:none"
         d="M 163.6776,561.1621 113.8048,559.59 70.8971,516.8586 63.096,479.1085 l 15.6022,-31.7207 13.3751,-31.9826 57.6739,-13.8929 52.6599,21.4959 15.323,38.5377 12.2585,41.6802 -27.5815,38.0121 z" />
      <path
         id="path83"
         style="fill:none;stroke:#6c5d53;stroke-width:4.1272;stroke-linecap:butt;stroke-linejoin:miter;stroke-dasharray:none"
         d="m 71.1763,517.1221 40.9566,-12.5859 38.1711,19.6618 12.8168,35.916 m -12.8168,-36.44 21.1762,-27.7873 36.2201,-6.8155 21.733,14.4169" />
      <path
         id="path85"
         style="fill:none;stroke:#6c5d53;stroke-width:4.1272;stroke-linecap:butt;stroke-linejoin:miter;stroke-dasharray:none"
         d="m 207.7003,489.3332 -31.7627,-25.1672 -5.0157,-21.2339 32.3211,-19.9239 m -32.0419,19.6619 -44.3004,-3.4078 -34.5498,-23.8571 m 33.1571,23.5936 -2.787,29.0989 48.4801,27.5269 m -48.4801,-27.7889 -10.5881,36.44 m -48.7577,-24.6432 58.789,-11.5348" />
    </g>
  </g>
  <path
     id="path89"
     style="fill:#000000;fill-rule:evenodd;stroke:#000000;stroke-width:0.5669;stroke-linecap:butt;stroke-linejoin:miter;stroke-dasharray:none"
     d="M 369.5348,19.1766 A 75.9262,75.9262 0 0 1 445.461,95.1028 75.9262,75.9262 0 1 1 369.5348,19.1766 Z" />
  <path
     id="path91"
     style="fill:#ffffff;fill-rule:evenodd"
     d="m 365.1259,118.8057 h 3.9821 c -0.0947,-3.6975 0.2843,-6.9923 1.114,-9.8603 0.9244,-3.2474 2.5838,-6.6133 5.0015,-10.145 1.3745,-2.0384 3.105,-4.0767 5.1434,-6.1151 1.1852,-1.1852 3.0101,-2.8681 5.4043,-4.9777 4.456,-3.9109 7.4664,-6.9451 9.0309,-9.1732 2.5835,-3.7924 3.8871,-8.2012 3.8871,-13.2023 0,-7.1348 -2.6311,-12.8234 -7.9169,-17.0898 -5.2619,-4.1244 -12.0645,-6.1866 -20.408,-6.1866 -8.4146,0 -15.6441,2.3465 -21.6646,7.0398 -5.5463,4.4325 -8.3197,9.5287 -8.3197,15.2646 0,2.8681 0.6874,5.1437 2.086,6.8028 1.2087,1.4933 2.797,2.2281 4.7404,2.2281 1.849,0.0946 3.437,-0.474 4.7407,-1.6592 1.4932,-1.3036 2.228,-2.963 2.228,-5.0014 0,-1.3037 -0.1897,-2.4177 -0.5451,-3.3421 -0.2843,-0.5451 -0.7112,-1.2563 -1.2563,-2.086 -0.5689,-0.7347 -0.9244,-1.3272 -1.114,-1.8014 -0.2844,-0.7347 -0.4267,-1.5641 -0.4267,-2.4888 0,-2.797 2.0384,-5.3804 6.1155,-7.7981 4.0768,-2.2992 8.5093,-3.4606 13.3209,-3.4606 5.9258,0 10.5003,1.8015 13.7477,5.4043 2.8681,3.2471 4.2902,7.4188 4.2902,12.515 0,4.4325 -1.351,8.9362 -4.0294,13.4634 -1.4695,2.6073 -4.0768,6.0678 -7.7746,10.4292 l -3.7451,4.7169 c -3.4132,4.4325 -5.6886,8.9835 -6.8026,13.6054 -0.6401,2.7734 -0.972,6.4471 -0.972,10.9746 z m 2.4888,13.7004 c -2.5835,0 -4.6222,0.7821 -6.0916,2.3465 -1.209,1.4933 -1.8015,3.2947 -1.8015,5.4043 0,2.1333 0.5925,3.9347 1.8015,5.4042 1.4694,1.6594 3.5081,2.4888 6.0916,2.4888 2.3942,0 4.3376,-0.8294 5.8073,-2.4888 1.3037,-1.4695 1.9435,-3.2709 1.9435,-5.4042 0,-2.1096 -0.6398,-3.911 -1.9435,-5.4043 -1.4697,-1.5644 -3.4131,-2.3465 -5.8073,-2.3465 z" />
</svg>
