<svg xmlns="http://www.w3.org/2000/svg" viewBox="0 0 725.669 725.669">
    <path fill="#ff7f2a" fill-rule="evenodd" stroke="#000" stroke-width=".567" d="M90.653 463.628l4.826-4.918 2.038 2 10.29-10.484 6.443 6.323 8.148-8.303-4.6-4.514 7.686-7.831 4.529 4.444 21.597-22.007 2.986-.636 3.505 2.425 17.551-17.885-11.772-11.553-26.508 27.011-1.557-1.527-3.009 3.066-2.595-2.546-39.56 40.312-1.49 3.216.184 2.125zm297.02-336.352l3.445-3.51 1.444 1.417 2.86-2.915 12.03 11.805L530.572 8.617l16.049 15.75 4.133 13.963 1.314-1.339 3.624 3.612 4.888-4.982 48.332 47.43-4.86 5.01 3.707 3.64-19.139 19.446 9.907 9.722 11.738-11.79 59.499 58.417-28.535 29.077-60.384 44.261-20.562-5.205-7.903 8.054-10.814-10.612-22.528 22.956 2.972 2.916-93.25 95.023 2.353 11.756 5.44 8.783 11.39 18.402 3.146 6.477.305 5.577-2.386 8.66-6.351 13.55-7.632 11.57-2.937 3.73-12.89 13.133-12.25 9.37-14.71 7.402-11.588 17.356 3.614 5.49 1.493 9.634 10.18 14.992 6.484 3.529 2.944 2.889.243 7.962 10.35 15.103 7.508 5.09 1.477 2.06.744 7.51 10.64 16.109 7.02 3.944 1.596 2.678.773 7.648 9.783 14.435 3.21 1.372 6.551 1.762 13.093-.376 13.132 6.663 5.16 14.955-.631 4.437-40.925 41.703-74.613-5.301-22.635-26.996 3.25-1.745-5.346-24.626-1.744-6.49-7.59-19.896-2.922-6.423-12.426-21.196-18.946-22.594-6.302 3.817-20.67-3.17-23.381-22.945.096 4.205-90.557 92.277-4.42 1.219-4.054-1.757-47.61-46.723-6.278 6.398-55.48-54.445-3.02-5.188-.123-7.01 3.094-5.077L77.8 480.802l-2.038-2 5.055-5.151-5.29-7.86-.367-9.25 3.916-7.048 41.5-42.289-2.49-2.444 2.944-3-1.472-1.445 26.556-27.06-.708-3.696 50.112-51.063 1.68-.24 2.25.764L311.617 204.72l-1.14-1.896 1.098-2.59 49.334-50.271 2.073-.3 2.276.455 6.583-6.708-2.293-2.25 15.862-16.163zm-11.825 343.317l-1.621-5.369 2.833-2.887 9.2-5.864 8.944-9.114.933-2.197-1.088-2.401-9.001-8.834-5.41-26.535 3-3.057 3.85-14.114 7.61-7.756 3.005 2.738 18.95-19.31 8.614 4.674 17.715 28.831.836 5.377-1.305 4.387-7.921 16.565-10.522 14.345-13.059 12.967-17.733 10.936zm6.761-303.306l12.06 11.778 6.625-6.75-12.032-11.807z"/>
    <path fill="none" stroke="#000" stroke-width=".567" d="M395.099 382.465l-46.025-45.166-35.94-16.714-2.55.164-36.945 37.647c-1.418.682-2.925.824-4.54.323l-14.72-14.445c-.621-1.572-.607-3.32-.048-5.215l152.89-155.795 5.075-.06M555.69 40.603l48.36 47.458"/>
    <path fill-opacity=".392" fill-rule="evenodd" stroke="#000" stroke-width=".567" d="M395.936 519.848l-10.18-14.992-1.493-9.633-3.614-5.49-16.002 16.305-1.337 30.823 59.439 107.29 26.44 13.754 42.295-39.679-13.132-6.663-13.093.376-6.55-1.762-3.21-1.372-9.784-14.435-.773-7.648-1.596-2.678-7.02-3.944-10.64-16.11-.728-7.352-1.493-2.218-7.508-5.09-10.35-15.102-.243-7.962-2.944-2.89z"/>
    <path fill="#ff7f2a" fill-rule="evenodd" stroke="#000" stroke-width=".567" d="M390.528 655.078a37.715 37.715 0 0 1 53.336-.502 37.715 37.715 0 1 1-53.336.502z"/>
    <path fill="none" stroke="#000" stroke-width=".567" d="M550.753 38.33l14.834 50.114L636.464 158l-76.182 77.63M489.787 50.175L618.41 176.4M609.742 185.23L481.12 59.006M371.84 143.41l36.176 35.502 19.529-19.9 2.403-.863 2.7.76 62.247 28.636 46.67 45.526M146.114 373.254l29.538 28.988L394.67 179.065l-29.454-28.905"/>
    <path fill="none" stroke="#000" stroke-width=".567" d="M199.449 319.02l4.969 4.877 2.887 1.135 2.684-.81L316.046 216.15l1.262-2.984.042-2.818-5.734-5.627M206.4 336.145L377.26 162.038l6.057 5.945-170.861 174.106a4.256 4.256 0 0 1-6 .057v0a4.256 4.256 0 0 1-.057-6.001z"/>
    <path fill-rule="evenodd" stroke="#000" stroke-width=".567" d="M225.654 316.922l10.247 10.055q1.811 1.778 3.59-.033v0q1.777-1.812-.034-3.59L229.21 313.3q-1.812-1.778-3.59.033v0q-1.777 1.812.034 3.59zM234.127 308.289l10.246 10.055q1.812 1.778 3.59-.034v0q1.777-1.811-.034-3.589l-10.247-10.055q-1.811-1.778-3.59.033v0q-1.777 1.812.035 3.59zM242.793 299.457l10.247 10.056q1.812 1.778 3.59-.034v0q1.777-1.812-.034-3.59l-10.247-10.055q-1.812-1.778-3.59.034v0q-1.777 1.811.034 3.59zM251.127 290.965l10.246 10.056q1.812 1.778 3.59-.034v0q1.778-1.811-.034-3.59l-10.246-10.055q-1.812-1.778-3.59.034v0q-1.778 1.812.034 3.59zM259.572 282.36l10.246 10.056q1.812 1.778 3.59-.034v0q1.777-1.811-.034-3.59l-10.247-10.055q-1.811-1.778-3.59.034v0q-1.777 1.812.035 3.59zM268.155 273.614l10.247 10.056q1.811 1.777 3.589-.034v0q1.778-1.812-.034-3.59l-10.246-10.055q-1.812-1.778-3.59.033v0q-1.778 1.812.034 3.59zM276.71 264.896l10.247 10.055q1.812 1.778 3.59-.033v0q1.777-1.812-.034-3.59l-10.247-10.055q-1.811-1.778-3.59.033v0q-1.777 1.812.035 3.59zM285.155 256.29l10.247 10.056q1.811 1.778 3.59-.033v0q1.777-1.812-.035-3.59l-10.246-10.055q-1.812-1.778-3.59.033v0q-1.777 1.812.034 3.59zM293.627 247.657l10.247 10.056q1.812 1.778 3.59-.034v0q1.777-1.811-.034-3.589l-10.247-10.056q-1.811-1.777-3.59.034v0q-1.777 1.812.034 3.59zM302.1 239.024l10.246 10.056q1.812 1.778 3.59-.034v0q1.778-1.811-.034-3.59l-10.247-10.055q-1.811-1.778-3.589.034v0q-1.778 1.811.034 3.59zM310.711 230.25l10.247 10.055q1.811 1.778 3.589-.034v0q1.778-1.811-.034-3.589l-10.246-10.056q-1.812-1.777-3.59.034v0q-1.778 1.812.034 3.59zM319.211 221.588l10.247 10.056q1.811 1.777 3.59-.034v0q1.777-1.812-.035-3.59l-10.246-10.055q-1.812-1.778-3.59.034v0q-1.778 1.811.034 3.589zM327.4 212.677l10.247 10.056q1.812 1.777 3.59-.034v0q1.777-1.812-.034-3.59l-10.247-10.055q-1.812-1.778-3.59.034v0q-1.777 1.811.034 3.589zM335.956 203.959l10.246 10.055q1.812 1.778 3.59-.033v0q1.778-1.812-.034-3.59l-10.246-10.055q-1.812-1.778-3.59.033v0q-1.778 1.812.034 3.59zM344.4 195.354l10.247 10.055q1.812 1.778 3.59-.033v0q1.777-1.812-.034-3.59l-10.247-10.055q-1.811-1.778-3.59.033v0q-1.777 1.812.035 3.59zM352.845 186.749l10.247 10.055q1.811 1.778 3.589-.033v0q1.778-1.812-.034-3.59l-10.246-10.055q-1.812-1.778-3.59.033v0q-1.778 1.812.034 3.59z"/>
    <path fill="none" stroke="#000" stroke-width=".567" d="M411.901 183.024l61.118 27.862 46.008 45.15M333.38 317.226v0q6.228 6.111 12.339-.116l94.538-96.334q6.11-6.227-.116-12.338v0q-6.228-6.111-12.339.116l-94.538 96.334q-6.11 6.227.116 12.338zM266.764 337.145a6.097 6.097 0 1 1 8.704 8.542 6.097 6.097 0 0 1-8.704-8.542zm2.214 2.173a2.995 2.995 0 1 1 4.275 4.196 2.995 2.995 0 0 1-4.275-4.196zM303.602 299.608a6.097 6.097 0 1 1 8.704 8.541 6.097 6.097 0 0 1-8.704-8.541zm2.214 2.173a2.995 2.995 0 1 1 4.275 4.195 2.995 2.995 0 0 1-4.275-4.195zM408.365 192.854a6.098 6.098 0 1 1 8.704 8.542 6.098 6.098 0 0 1-8.704-8.542zm2.215 2.173a2.995 2.995 0 1 1 4.275 4.195 2.995 2.995 0 0 1-4.275-4.195z"/>
    <path fill="#ff7f2a" fill-rule="evenodd" stroke="#000" stroke-width=".567" d="M518.453 215.74l-64.722 65.952-10.336 16.807-41.15 41.902-1.792-1.759-24.534 25-26.318 7.797-24.365 25.585 1.123 1.102-87.433 89.093-1.688 7.009 2.794 6.07 16.32 16.072 6.027 2.553 7.166-1.656 87.477-89.05 1.232 1.21 25.384-25.092 7.101-26.148 24.535-25.001-2.124-2.084 41.143-41.908 16.987-10.28 64.723-65.951z"/>
    <path fill="none" stroke="#000" stroke-width=".567" d="M473.152 261.902l17.55 17.222M468.8 266.337l17.55 17.222M459.448 275.866l17.55 17.223M402.246 340.4l10.904 10.702M393.926 345.293l14.82 14.545M378.74 360.767l14.821 14.544M433.137 308.945l10.898 10.698M440.501 301.446l10.896 10.697M326.359 398.126l30.663 30.092"/>
    <path fill="#ff7f2a" fill-rule="evenodd" stroke="#000" stroke-width=".567" d="M285.662 503.818l-33.825-33.195 6.157-6.274 33.825 33.195z"/>
    <path fill="none" stroke="#000" stroke-width=".567" d="M175.652 402.243l-17.551 17.884 103.941 102.004"/>
    <path fill-rule="evenodd" stroke="#000" stroke-width=".567" d="M276.533 464.285l15.096 14.815q2.571 2.523 5.094-.048v0q2.523-2.571-.048-5.094l-15.096-14.815q-2.571-2.523-5.094.048v0q-2.523 2.571.048 5.094zM291.209 449.33l15.096 14.815q2.571 2.524 5.094-.048v0q2.523-2.57-.048-5.094l-15.096-14.815q-2.571-2.523-5.094.048v0q-2.523 2.571.048 5.094zM305.746 434.517l15.096 14.815q2.571 2.523 5.094-.048v0q2.524-2.57-.047-5.094l-15.097-14.815q-2.57-2.523-5.094.048v0q-2.523 2.571.048 5.094zM320.224 419.764l15.097 14.815q2.57 2.523 5.094-.048v0q2.523-2.571-.048-5.095l-15.096-14.814q-2.571-2.524-5.095.047v0q-2.523 2.572.048 5.095z"/>
    <path fill="none" stroke="#000" stroke-width=".567" d="M238.927 487.22l30.619 30.047M413.326 369.69l-7.259-7.123-4.213 4.293 7.26 7.124zM425.873 356.906l-4.213 4.293-7.256-7.127.87-.886-2.124-2.084 3.34-3.403zM417.054 365.892l11.704-11.926M437.887 344.664l-9.38-9.205-4.213 4.293 9.38 9.205zM450.063 332.257l-9.378-9.203-4.213 4.293 9.378 9.202zM462.262 319.826l-9.375-9.2-4.213 4.292 9.375 9.2zM474.299 307.56l-4.213 4.293-7.7-7.557 5.312-3.214zM486.614 295.011l-5.86-5.75-4.213 4.292 5.86 5.751zM498.79 282.604l-5.86-5.75-4.213 4.292 5.86 5.75zM511.012 270.15l-5.86-5.751-4.213 4.293 5.86 5.75zM212.83 460.752v0q2.926 2.87 5.796-.055l30.325-30.9q2.87-2.925-.055-5.796v0q-2.925-2.87-5.795.055l-30.325 30.9q-2.87 2.925.055 5.796zM201.839 449.964v0q2.925 2.87 5.795-.054l30.325-30.9q2.87-2.925-.055-5.796v0q-2.925-2.87-5.795.055l-30.325 30.9q-2.87 2.925.055 5.795zM223.634 471.353v0q2.925 2.871 5.796-.054l30.324-30.9q2.87-2.925-.055-5.796v0q-2.925-2.87-5.795.055l-30.324 30.9q-2.87 2.925.054 5.796zM262.94 431.301v0q2.925 2.87 5.795-.054l30.325-30.9q2.87-2.926-.055-5.796v0q-2.925-2.87-5.795.054l-30.324 30.9q-2.87 2.926.054 5.796z"/>
    <path fill="none" stroke="#000" stroke-width=".567" d="M262.94 431.301v0q2.925 2.87 5.795-.054l30.325-30.9q2.87-2.926-.055-5.796v0q-2.925-2.87-5.795.054l-30.324 30.9q-2.87 2.926.054 5.796zM302.57 390.918v0q2.925 2.87 5.795-.054l30.325-30.9q2.87-2.925-.055-5.796v0q-2.925-2.87-5.795.055l-30.324 30.9q-2.87 2.925.054 5.795zM252.183 420.652v0q2.925 2.87 5.796-.055l30.324-30.9q2.87-2.925-.055-5.795v0q-2.925-2.87-5.795.054l-30.324 30.9q-2.87 2.925.054 5.796zM291.535 380.552v0q2.925 2.87 5.796-.054l30.324-30.9q2.87-2.925-.055-5.796v0q-2.925-2.87-5.795.055l-30.324 30.9q-2.87 2.925.054 5.795zM241.284 409.77v0q2.925 2.87 5.795-.054l30.324-30.9q2.87-2.925-.054-5.796v0q-2.925-2.87-5.796.055l-30.324 30.9q-2.87 2.925.055 5.795zM280.543 369.765v0q2.925 2.87 5.796-.054l30.324-30.9q2.87-2.926-.055-5.796v0q-2.925-2.87-5.795.055l-30.324 30.9q-2.87 2.925.054 5.795zM175.987 424.688l13.964 13.703q2.642 2.593 5.235-.049l66.62-67.886q2.593-2.642-.049-5.235l-13.964-13.704q-2.641-2.592-5.234.05l-66.621 67.886q-2.593 2.642.05 5.235z"/>
    <path fill="none" stroke="#000" stroke-width=".567" d="M240.897 363.503a6.098 6.098 0 1 1 8.704 8.542 6.098 6.098 0 0 1-8.704-8.542zm2.214 2.173a2.995 2.995 0 1 1 4.276 4.196 2.995 2.995 0 0 1-4.276-4.196zM187.84 417.567a6.098 6.098 0 1 1 8.705 8.542 6.098 6.098 0 0 1-8.704-8.542zm2.215 2.173a2.995 2.995 0 1 1 4.276 4.196 2.995 2.995 0 0 1-4.276-4.196zM115.218 570.977l-52.79-51.805-2.084-4.766 3.492-6.483M63.836 507.923l109.891 107.843 2.292-2.335L66.127 505.588zM95.948 512.997l72.721 71.366 34.908-35.572-60.22-59.097zm-2.972-2.917l51.366-25.069 62.036 60.927 1.285 1.261.225 2.674-36.483 37.175 15.54 15.25-2.292 2.335L74.762 496.79l2.29-2.334 15.922 15.626M66.127 505.588l8.635-8.798M77.052 494.456l37.198-37.907"/>
    <path fill="none" stroke="#000" stroke-width=".567" d="M131.753 569.99l.838.823 8.635-8.799-.839-.822zM142.453 580.491l.838.823 8.635-8.799-.838-.822zM153.379 569.357l8.634-8.798 1.146-2.37.006-2.433-.457-1.832-4.674-4.58-1.873-.013-2.116.55-1.894 1-8.634 8.798-.838-.822 8.634-8.799 2.492-1.183 2.43-.534 2.725.059 4.696 4.609.518 4.523-.128 1.875-1.195 1.975-8.634 8.798z"/>
    <path fill="none" stroke="#000" stroke-width=".567" d="M153.946 554.477a3.04 3.04 0 1 1 4.34 4.26 3.04 3.04 0 0 1-4.34-4.26zm-1.108-1.088a4.594 4.594 0 1 1 6.557 6.435 4.594 4.594 0 0 1-6.557-6.435zM192.619 546.685a2.343 2.343 0 1 1 3.345 3.283 2.343 2.343 0 0 1-3.345-3.283zm-.855-.839a3.54 3.54 0 1 1 5.054 4.96 3.54 3.54 0 0 1-5.054-4.96zM141.871 496.883a2.343 2.343 0 1 1 3.345 3.283 2.343 2.343 0 0 1-3.345-3.283zm-.854-.838a3.54 3.54 0 1 1 5.054 4.96 3.54 3.54 0 0 1-5.054-4.96zM120.475 537.066l8.634-8.798 1.145-2.371.006-2.432-.457-1.832-4.673-4.58-1.874-.013-2.115.55-1.894 1-8.634 8.798-.839-.822 8.635-8.799 2.492-1.183 2.43-.534 2.725.059 4.696 4.609.517 4.523-.127 1.875-1.195 1.974-8.634 8.799z"/>
    <path fill="none" stroke="#000" stroke-width=".567" d="M121.053 522.197a3.04 3.04 0 1 1 4.34 4.26 3.04 3.04 0 0 1-4.34-4.26zm-1.108-1.088a4.594 4.594 0 1 1 6.557 6.436 4.594 4.594 0 0 1-6.557-6.436zM77.8 480.802l19.717-20.092M90.653 463.628l-9.836 10.023M81.692 446.826l9.652 9.472 1.412-1.439-9.651-9.472zM87.827 440.576l9.651 9.471 1.413-1.439-9.652-9.471zM93.73 434.56l9.651 9.472 1.412-1.438-9.651-9.472zM99.725 428.451l9.652 9.472 1.412-1.439-9.652-9.471zM105.79 422.271l9.651 9.472 1.413-1.439-9.652-9.472zM111.785 416.162l9.652 9.472 1.412-1.44-9.652-9.471zM117.596 410.241l9.651 9.472 1.412-1.439-9.651-9.472zM120.576 407.204l9.652 9.472M121.03 401.76l14.737 14.462M374.341 465.602l-10.775-41.426"/>
    <path fill-opacity=".392" fill-rule="evenodd" stroke="#000" stroke-width=".567" d="M401.517 665.903c8.54-8.703 22.517-8.834 31.22-.294 8.702 8.54 8.833 22.518.293 31.22-8.54 8.702-22.518 8.833-31.22.293-8.702-8.54-8.833-22.517-.293-31.22zm-4.875-4.825c11.276-11.49 29.732-11.664 41.222-.388 11.49 11.276 11.663 29.732.388 41.222-11.276 11.49-29.732 11.663-41.222.388-11.49-11.276-11.663-29.732-.388-41.222z"/>
    <path fill="none" stroke="#000" stroke-width=".567" d="M405.21 669.527a16.903 16.903 0 0 1 23.902-.225 16.903 16.903 0 1 1-23.903.224z"/>
    <path fill="none" stroke="#000" stroke-width=".567" d="M407.084 671.366a14.277 14.277 0 0 1 20.19-.19 14.277 14.277 0 1 1-20.19.19z"/>
    <path fill-opacity=".392" fill-rule="evenodd" stroke="#000" stroke-width=".567" d="M331.062 566.648l-18.946-22.594 16.355-9.65 16.046 4.714 44.033 77.966-4.804 16.031-22.655 12.164-5.347-24.626-1.744-6.49-7.59-19.896-2.921-6.423z"/>
    <path fill="none" stroke="#000" stroke-width=".567" d="M373.267 461.41l-1.209-4.585-27.774 28.303.286 42.14 61.541 112.627 1.936 1.992 2.318-1.985-62.773-114.298.016-38.047zM575.655 231.727v0q3.09 3.033 6.122-.057l28.797-29.344q3.033-3.09-.058-6.122v0q-3.09-3.033-6.122.057l-28.797 29.344q-3.032 3.09.058 6.122z"/>
    <path fill="#ff7f2a" fill-rule="evenodd" stroke="#000" stroke-width=".567" d="M615.313 113.122a14.003 14.003 0 0 1 19.802-.186 14.003 14.003 0 1 1-19.802.186z"/>
    <path fill="none" stroke="#000" stroke-width=".567" d="M617.983 115.743a10.262 10.262 0 0 1 14.512-.137 10.262 10.262 0 1 1-14.512.137z"/>
    <path fill-opacity=".392" stroke="#000" stroke-width=".567" d="M617.983 115.743a10.262 10.262 0 0 1 14.512-.137 10.262 10.262 0 1 1-14.512.137z"/>
    <path fill="#ff7f2a" fill-rule="evenodd" stroke="#000" stroke-width=".567" d="M631.184 127.723c2.882-2.937 2.876-7.692-.06-10.574a7.45 7.45 0 0 0-10.536.1l-12.583 12.822 10.634 10.436z"/>
    <path fill="none" stroke="#000" stroke-width=".567" d="M555.69 40.603l48.36 47.458M392.562 125.183l12.03 11.806M387.674 127.276l13.473 13.223 6.306-6.426M62.428 519.172l52.79 51.805-4.501 4.587-55.29-54.26-2.672-5.77.237-4.583 2.117-3.478 54.472-55.506 4.67 4.582-50.415 51.374-3.492 6.483zM465.26 611.939l-33.484 13.188c-16.127.847-22.484-12.745-10.837-24.156l24.192-12.382"/>
    <path fill="none" stroke="#000" stroke-width=".567" d="M457.103 609.491l-26.17 10.55c-8.302-2.865-10.007-7.512-5.878-13.734l21.117-11.262M436.326 580.1l-20.16 10.352c-9.235-.87-12.325-5.376-7.43-14.606l17.605-10.864"/>
    <path fill="none" stroke="#000" stroke-width=".567" d="M442.43 583.53l-26.333 14.542c-16.463-3.623-21.884-11.752-12.397-25.965l21.242-15.625M421.41 553.028l-20.838 14.434c-15.527-1.224-22.217-7.845-14.94-22.995l19.781-16.59"/>
    <path fill="none" stroke="#000" stroke-width=".567" d="M405.607 534.228l-14.562 13.23c-4.697 9.48-.46 13.156 9.834 12.897l15.078-11.024M401.951 523.122l-14.628 12.261c-17.138 2.546-25.462-2.705-18.246-21.703l15.704-15.112"/>
    <path fill="none" stroke="#000" stroke-width=".567" d="M385.756 504.856l-11.699 11.582c-3.413 10.667.43 15.02 12.223 12.458l9.656-9.048M358.092 631.465l22.972-11.096c3.639-3.985 3.028-6.236-2.398-6.521l-22.003 11.039M354.537 616.16l19.336-9.98c2.877-3.718 2.158-5.91-2.165-6.57l-19.414 10.082M349.048 601.182l17.49-9.515c2.386-3.6 1.668-5.717-2.63-6.286l-17.273 9.478M342.358 585.916l15.818-8.66c2.696-3.24 1.433-5.119-2.58-6.052l-16.504 9.14M334.477 572.473l15.77-8.464c3.451-3.827 2.158-5.885-2.96-6.516l-16.225 9.155M325.134 559.578l18.11-9.572c2.487-3.46 1.608-5.643-2.984-6.42L320.666 554.8"/>
    <path fill-opacity=".392" fill-rule="evenodd" stroke="#000" stroke-width=".567" d="M95.948 512.997l72.721 71.366 34.908-35.572-60.22-59.097zm-2.972-2.917l51.366-25.069 62.036 60.927 1.285 1.261.225 2.674-36.483 37.175 15.54 15.25-2.292 2.335L74.762 496.79l2.29-2.334 15.922 15.626"/>
    <path fill-opacity=".392" fill-rule="evenodd" stroke="#000" stroke-width=".567" d="M142.453 580.491l.838.823 8.635-8.799-.838-.822zM131.753 569.99l.838.823 8.635-8.799-.839-.822zM153.379 569.357l8.634-8.798 1.146-2.37.006-2.433-.457-1.832-4.674-4.58-1.873-.013-2.116.55-1.894 1-8.634 8.798-.838-.822 8.634-8.799 2.492-1.183 2.43-.534 2.725.059 4.696 4.609.518 4.523-.128 1.875-1.195 1.975-8.634 8.798zM120.475 537.066l8.634-8.798 1.145-2.371.006-2.432-.457-1.832-4.673-4.58-1.874-.013-2.115.55-1.894 1-8.634 8.798-.839-.822 8.635-8.799 2.492-1.183 2.43-.534 2.725.059 4.696 4.609.517 4.523-.127 1.875-1.195 1.974-8.634 8.799z"/>
    <path fill="none" stroke="#000" stroke-width=".567" d="M98.848 537.7l.839.822 8.634-8.799-.838-.822zM109.53 548.218l.839.823 8.634-8.799-.838-.822z"/>
    <path fill-opacity=".392" fill-rule="evenodd" stroke="#000" stroke-width=".567" d="M98.848 537.7l.839.822 8.634-8.799-.838-.822zM109.53 548.218l.839.823 8.634-8.799-.838-.822z"/>
    <path fill-opacity=".392" fill-rule="evenodd" stroke="#000" stroke-width=".567" d="M63.836 507.923l109.891 107.843 2.292-2.335L66.127 505.588z"/>
    <path fill-opacity=".392" fill-rule="evenodd" stroke="#000" stroke-width=".567" d="M62.428 519.172l52.79 51.805-4.501 4.587-55.29-54.26-2.672-5.77.237-4.583 2.117-3.478 54.472-55.506 4.67 4.582-50.415 51.374-3.492 6.483zM141.871 496.883a2.343 2.343 0 1 1 3.345 3.283 2.343 2.343 0 0 1-3.345-3.283zm-.854-.838a3.54 3.54 0 1 1 5.054 4.96 3.54 3.54 0 0 1-5.054-4.96z"/>
    <path fill="none" stroke="#000" stroke-width=".567" d="M121.053 522.197a3.04 3.04 0 1 1 4.34 4.26 3.04 3.04 0 0 1-4.34-4.26zm-1.108-1.088a4.594 4.594 0 1 1 6.557 6.436 4.594 4.594 0 0 1-6.557-6.436z"/>
    <path fill-opacity=".392" fill-rule="evenodd" stroke="#000" stroke-width=".567" d="M153.946 554.477a3.04 3.04 0 1 1 4.34 4.26 3.04 3.04 0 0 1-4.34-4.26zm-1.108-1.088a4.594 4.594 0 1 1 6.557 6.435 4.594 4.594 0 0 1-6.557-6.435zM192.619 546.685a2.343 2.343 0 1 1 3.345 3.283 2.343 2.343 0 0 1-3.345-3.283zm-.855-.839a3.54 3.54 0 1 1 5.054 4.96 3.54 3.54 0 0 1-5.054-4.96zM266.764 337.145a6.097 6.097 0 1 1 8.704 8.542 6.097 6.097 0 0 1-8.704-8.542zm2.214 2.173a2.995 2.995 0 1 1 4.275 4.196 2.995 2.995 0 0 1-4.275-4.196zM303.602 299.608a6.097 6.097 0 1 1 8.704 8.541 6.097 6.097 0 0 1-8.704-8.541zm2.214 2.173a2.995 2.995 0 1 1 4.275 4.195 2.995 2.995 0 0 1-4.275-4.195zM240.897 363.503a6.098 6.098 0 1 1 8.704 8.542 6.098 6.098 0 0 1-8.704-8.542zm2.214 2.173a2.995 2.995 0 1 1 4.276 4.196 2.995 2.995 0 0 1-4.276-4.196zM187.84 417.567a6.098 6.098 0 1 1 8.705 8.542 6.098 6.098 0 0 1-8.704-8.542zm2.215 2.173a2.995 2.995 0 1 1 4.276 4.196 2.995 2.995 0 0 1-4.276-4.196zM408.365 192.854a6.098 6.098 0 1 1 8.704 8.542 6.098 6.098 0 0 1-8.704-8.542zm2.215 2.173a2.995 2.995 0 1 1 4.275 4.195 2.995 2.995 0 0 1-4.275-4.195zM212.83 460.752v0q2.926 2.87 5.796-.055l30.325-30.9q2.87-2.925-.055-5.796v0q-2.925-2.87-5.795.055l-30.325 30.9q-2.87 2.925.055 5.796zM201.839 449.964v0q2.925 2.87 5.795-.054l30.325-30.9q2.87-2.925-.055-5.796v0q-2.925-2.87-5.795.055l-30.325 30.9q-2.87 2.925.055 5.795zM223.634 471.353v0q2.925 2.871 5.796-.054l30.324-30.9q2.87-2.925-.055-5.796v0q-2.925-2.87-5.795.055l-30.324 30.9q-2.87 2.925.054 5.796z"/>
    <path fill="none" stroke="#000" stroke-width=".567" d="M262.94 431.301v0q2.925 2.87 5.795-.054l30.325-30.9q2.87-2.926-.055-5.796v0q-2.925-2.87-5.795.054l-30.324 30.9q-2.87 2.926.054 5.796z"/>
    <path fill-opacity=".392" fill-rule="evenodd" stroke="#000" stroke-width=".567" d="M262.94 431.301v0q2.925 2.87 5.795-.054l30.325-30.9q2.87-2.926-.055-5.796v0q-2.925-2.87-5.795.054l-30.324 30.9q-2.87 2.926.054 5.796zM302.57 390.918v0q2.925 2.87 5.795-.054l30.325-30.9q2.87-2.925-.055-5.796v0q-2.925-2.87-5.795.055l-30.325 30.9q-2.87 2.925.055 5.795zM252.183 420.652v0q2.925 2.87 5.796-.055l30.324-30.9q2.87-2.925-.055-5.795v0q-2.925-2.87-5.795.054l-30.324 30.9q-2.87 2.925.054 5.796zM291.535 380.552v0q2.925 2.87 5.796-.054l30.324-30.9q2.87-2.925-.055-5.796v0q-2.925-2.87-5.795.055l-30.324 30.9q-2.87 2.925.054 5.795zM241.284 409.77v0q2.925 2.87 5.795-.054l30.324-30.9q2.87-2.925-.054-5.796v0q-2.925-2.87-5.796.055l-30.324 30.9q-2.87 2.925.055 5.795zM280.543 369.765v0q2.925 2.87 5.796-.054l30.324-30.9q2.87-2.926-.055-5.796v0q-2.925-2.87-5.795.055l-30.324 30.9q-2.87 2.925.054 5.795zM413.326 369.69l-7.259-7.123-4.213 4.293 7.26 7.124zM425.873 356.906l-4.213 4.293-7.256-7.127.87-.886-2.124-2.084 3.34-3.403z"/>
    <path fill="none" stroke="#000" stroke-width=".567" d="M417.054 365.892l11.704-11.926"/>
    <path fill-opacity=".392" fill-rule="evenodd" stroke="#000" stroke-width=".567" d="M437.887 344.664l-9.38-9.205-4.213 4.293 9.38 9.205zM450.063 332.257l-9.378-9.203-4.213 4.293 9.378 9.202zM462.262 319.826l-9.375-9.2-4.213 4.292 9.375 9.2zM474.299 307.56l-4.213 4.293-7.7-7.557 5.312-3.214zM486.614 295.011l-5.86-5.75-4.213 4.292 5.86 5.751zM498.79 282.604l-5.86-5.75-4.213 4.292 5.86 5.75zM511.012 270.15l-5.86-5.751-4.213 4.293 5.86 5.75z"/>
    <path fill="#ff7f2a" fill-rule="evenodd" stroke="#000" stroke-width=".567" d="M117.799 443.732l7.685-7.831 118.98 116.713-7.71 7.856zM473.288 124.856l76.91-78.409 4.478 16.953-70.632 72.012c-2.902 2.958-7.698 3.003-10.656.1v0c-2.958-2.903-3.002-7.697-.1-10.656zM502.185 153.214l60.634-61.818 10.867 10.442-60.745 61.932c-2.902 2.958-7.698 3.003-10.656.1v0c-2.958-2.903-3.003-7.697-.1-10.656zM531.283 181.77l60.634-61.819 10.867 10.443-60.745 61.931c-2.902 2.959-7.698 3.004-10.656.1v0c-2.958-2.902-3.002-7.696-.1-10.655z"/>
    <path fill-opacity=".392" fill-rule="evenodd" stroke="#000" stroke-width=".567" d="M373.267 461.41l-1.209-4.585-27.774 28.303.286 42.14 61.541 112.627 1.936 1.992 2.318-1.985-62.773-114.298.016-38.047zM81.692 446.826l9.652 9.472 1.412-1.439-9.651-9.472zM87.827 440.576l9.651 9.471 1.413-1.439-9.652-9.471zM93.73 434.56l9.651 9.472 1.412-1.438-9.651-9.472zM99.725 428.451l9.652 9.472 1.412-1.439-9.652-9.471zM105.79 422.271l9.651 9.472 1.413-1.439-9.652-9.472zM111.785 416.162l9.652 9.472 1.412-1.44-9.652-9.471zM117.596 410.241l9.651 9.472 1.412-1.439-9.651-9.472z"/>
</svg>
