<svg xmlns="http://www.w3.org/2000/svg" viewBox="0 0 725.669 725.669">
    <path fill="#ffd42a" fill-rule="evenodd" stroke="#000" stroke-width=".567" d="M79.836 530.338l23.07-23.235-6.434-3.353-5.454-13.054-12.326-55.449-5.568-2.964-8.243 1.526-3.14 4.597 6.573 60.404 3.05 15.792zM304.275 673.653L430.06 546.966l2.107 2.092-125.785 126.687zM265.075 634.732l2.108 2.093 125.785-126.687-2.108-2.093z"/>
    <path fill="#ffd42a" fill-rule="evenodd" stroke="#000" stroke-width=".567" d="M365.685 537.616l37.093 36.828 19.052-19.19-37.052-36.868zm10.73 131.784l1.74-1.752-2.16-2.145-22.369 22.53-15.619.055-22.097-21.94-1.145 1.154 23.328 23.161-1.274 1.284.761.756 16.231-.397 2.355-2.372-1.663-1.651 20.219-20.364zm19.916-24.379l2.16 2.145 1.949-1.963-1.694-1.68 20.219-20.365 1.693 1.682 1.774-1.786-.056-15.462-1.26-1.25-.85.855-23.076-22.911-.928.935 20.57 20.422.066 18.664zm-213.858-2.086l4.967-5.002 18.525 18.393 33.166-33.404 1.483-8.95-.02-7.803-2.087-2.072c-4.573-3.712-5.121-8.662-1.396-13l11.508-11.591-1.405-1.396 20.235-20.38-.284-.281 20.336-20.482 1.733 1.72 9.662-9.732-.58-.575 10.594-10.67 28.429-22.099 18.603-7.134 33.077-9.562 54.039-54.427 7.218 7.167 2.253 5.846-1.883 1.896-3.794-3.766-61.048 61.486 3.951 3.923-2.092 2.108-1.064-.55-2.12 5.864 46.681 46.348.119 33.128-7.402 7.455 4.084 4.055-1.334 1.343 2.714 2.694-.81 23.05-3.074 3.07 1.436 1.425-20.219 20.364-1.62-1.609-1.948 1.963 1.607 1.595-20.272 20.417-1.475-1.465-1.805 1.818 1.489 1.478-20.219 20.363-1.383-1.373-4.106 4.136-22.048.866-2.924-2.903-1.595 1.607-23.379-23.16 1.57-1.58-60.5-60.07-2.794 10.58-2.427 4.848-32.225 32.456-8.87.714zm212.61-60.742l-.895.901-39.199-38.92.894-.901zm-37.074-49.919c13.402-3.017 20.069-15.355 17.094-27.52l5.403-5.442.272.272-2.712 7.98.2 4.437 4.364 4.333-19.052 19.19-1.046-1.04-1.284 1.293-3.382-3.358zm66.833 25.97l.094 26.448-5.876 5.918-14.175-14.074 19.052-19.19zm-128.594-12.593l-2.143-2.127 9.663-9.732 1.027 1.02 8.552-8.613 27.902 2.673a24.307 24.307 0 0 0 6.75 3.081l8.584 8.523-1.746 1.758 1.046 1.039-.894.9-13.91-13.745-27.428-2.305zm-19.537 81.577l-2.697 2.716 37.092 36.828 2.697-2.716zm-4.804.624L254 610.072l-3.67-4.996-.425-3.41c2.345-3.93 1.834-7.878-1.186-10.779l4.984-6.333L255 585.84l20.235-20.38.678.673-24.011 24.183-.056 12.223 22.758 22.597z"/>
    <path fill="#ffd42a" fill-rule="evenodd" stroke="#000" stroke-width=".567" d="M337.97 494.912a22.165 22.165 0 0 1 31.347-.112 22.165 22.165 0 1 1-31.346.112z"/>
    <path fill="none" stroke="#000" stroke-width=".567" d="M342.439 499.695a15.379 15.379 0 0 1 21.749-.077 15.379 15.379 0 1 1-21.749.077z"/>
    <path fill="#ffd42a" fill-rule="evenodd" stroke="#000" stroke-width=".567" d="M127.241 506.413l-6.807-3.373 13.175-13.27 22.636-10.535 17.388-12.456 58.365-58.784 10.423-19.865 5.417-5.764 4.95-.837 4.937 1.293 4.249 2.067-6.054 6.097-1.404-1.395-2.135-.35-2.64 1.198-3.232 4.315-5.306 11.094-4.79 6.412-61.501 61.942-14.816 11.172-22.248 10.356zM347.287 329.827l12.25 12.162L682.6 16.61 670.35 4.448zM362.514 344.945l12.25 12.163 323.063-325.38-12.25-12.163zM384.537 366.865l12.25 12.162L719.588 53.911l-12.25-12.163z"/>
    <path fill="#ff7f2a" fill-rule="evenodd" stroke="#000" stroke-width=".567" d="M74.969 600.2L32.36 643.115l-.572 3.933 2.752 3.882-7.69 7.745 19.758 19.617 5.937-5.98.765.759-5.546 5.585 33.114 32.878 2.928-2.949 16.136-7.294 26.663-26.855-4.478-4.446 11.482-11.565z"/>
    <path fill="#ffd42a" fill-rule="evenodd" stroke="#000" stroke-width=".567" d="M251.684 399.974l5.626 20.805-104.893 105.645 73.39 72.867-49.8 50.158-87.2-86.578.2-7.333-7.623-16.432.931-.938-3.646-6.655 24.848-25.027 7.295 3.006 1.426-1.435 15.867 8.558a18.03 18.03 0 0 1 1.506-2.295l10.49-3.03 12.006-12.092 1.063-.004 18.46-18.592 3.249-5.673.103-2.272-2.2-9.587 3.78-3.806 9.184 2.762 2.572-.192 4.407-2.478 27.137-27.332 3.11-6.12.323-1.195-2.268-10.282 3.845-3.873 6.19 2.222 5.016.639 4.67-2.426zM685.34 49.046L652.57 16.508 596.856 72.62l32.772 32.538zM652.159 127.529L634.606 110.1l55.713-56.112 17.552 17.428z"/>
    <path fill="none" stroke="#000" stroke-width=".567" d="M600.001 69.453l32.772 32.538M637.75 106.934l17.553 17.427M649.593 19.505l32.772 32.538M687.343 56.986l17.552 17.427"/>
    <path stroke="#000" stroke-width=".567" d="M622.309 64.975a2.413 2.413 0 0 1 3.412-.012 2.413 2.413 0 1 1-3.412.012zM627.387 70.016a2.413 2.413 0 0 1 3.412-.012 2.413 2.413 0 1 1-3.412.012zM633.974 53.226a2.413 2.413 0 0 1 3.413-.012 2.413 2.413 0 1 1-3.413.012zM639.052 58.267a2.413 2.413 0 0 1 3.412-.012 2.413 2.413 0 1 1-3.412.012zM645.046 42.074a2.413 2.413 0 0 1 3.413-.012 2.413 2.413 0 1 1-3.413.012zM650.124 47.116a2.413 2.413 0 0 1 3.412-.012 2.413 2.413 0 1 1-3.412.012z"/>
    <path fill="#ffd42a" fill-rule="evenodd" stroke="#000" stroke-width=".567" d="M443.917 355.014l-74.624-74.093 24.53-6.667 56.577 56.174zM361.682 290.483l-18.012 6.43 85.36 84.754 6.509-17.854zM499.37 236.35L466.6 203.812l-55.713 56.112 32.771 32.538zM466.188 314.833l-17.552-17.428 55.712-56.112 17.553 17.427z"/>
    <path fill="none" stroke="#000" stroke-width=".567" d="M414.03 256.757l32.772 32.538M451.78 294.238l17.553 17.427M463.623 206.809l32.771 32.538M501.373 244.29l17.552 17.427"/>
    <path fill="#ffd42a" fill-rule="evenodd" stroke="#000" stroke-width=".567" d="M346.354 493.114c10.084 8.025 21.19 7.751 33.11.86l63.508-63.964c7.47-10.871 8.08-22.279.147-34.355L326.363 279.73l-9.36.034-9.135 9.2L428.793 409.03c1.269 1.07 1.65 2.212.513 3.437l-67.536 68.02c-1.136.036-1.988-.403-2.707-1.067l-35.143-34.893-13.156 13.251 5.031 4.996-2.144 2.16 7.041 7.028 2.163-2.179 9.313 9.247-2.014 2.028 6.494 6.448 2.014-2.029z"/>
    <path fill="#ff7f2a" fill-rule="evenodd" stroke="#000" stroke-width=".567" d="M352.583 472.985l-90.175-89.533c-3.995-5.112-4.302-10.468-.946-15.117-.814-.838-.99-2.017-.616-3.489l2.792-2.812-.276-.274 7.265-7.305.27.268 1.059-1.066c-.986-2.745-.944-3.322 2.145-2.16l24.79-24.968c-.948-3.085-.771-3.334 2.216-2.233l1.014-1.021-.27-.268 4.342-4.374 2.978-2.999.27.268 3.116-3.137c1.59-1.062 2.943-.994 4.12-.094 4.353-3.177 8.761-2.758 13.204-.126l92.256 91.6c4.256 4.427 4.734 8.944 1.99 13.536l-57.047 57.456c-4.821 2.333-9.654 1.536-14.497-2.152z"/>
    <path fill="none" stroke="#000" stroke-width=".567" d="M263.585 370.81l55.713-56.113 14.278 14.177-55.712 56.112z"/>
    <path fill-rule="evenodd" stroke="#000" stroke-width=".567" d="M267.918 371.293l51.79-52.161 7.64 7.585-51.79 52.16z"/>
    <path fill="none" stroke="#000" stroke-width=".567" d="M264.692 371.908l55.713-56.112 9.905 9.834-55.713 56.113zM274.597 381.743l55.713-56.113 1.238 1.23-55.713 56.112zM297.453 373.832l23.452 23.285q1.396 1.386 2.783-.01v0q1.386-1.396-.01-2.783l-23.452-23.284q-1.396-1.387-2.783.01v0q-1.386 1.396.01 2.782zM308.491 362.715L331.943 386q1.396 1.386 2.782-.01v0q1.387-1.396-.01-2.783l-23.451-23.285q-1.397-1.386-2.783.01v0q-1.386 1.397.01 2.783zM319.948 351.176l23.451 23.285q1.397 1.386 2.783-.01v0q1.386-1.396-.01-2.782l-23.452-23.285q-1.396-1.386-2.782.01v0q-1.387 1.396.01 2.783zM261.462 368.335l55.242-55.638M270.627 354.455l-4.342 4.373 2.325 2.308 4.342-4.373zM264.16 360.957l2.331 2.313M274.1 351.497l1.095 1.086c.111.69.22 1.215-.177 2.1M261.565 364.121l2.055 2.04M298.89 326.529l1.095 1.087c.691.105 1.216.21 2.098-.193M306.193 318.633l-4.342 4.374 2.325 2.308 4.342-4.373zM308.309 316.497l2.33 2.314M312.49 312.832l2.055 2.04M280.621 382.208l1.884-1.896L324.1 421.61a1.34 1.34 0 0 1 .007 1.89v0a1.34 1.34 0 0 1-1.89.007zM328.697 333.788l1.883-1.896 41.595 41.299a1.34 1.34 0 0 1 .007 1.89v0a1.34 1.34 0 0 1-1.89.007z"/>
    <path fill="none" stroke="#000" stroke-width=".567" d="M371.068 471.121l.89-.896-47.548-47.209c-.216.43-.517.721-.89.896zM370.906 375.507c1.143.022 1.634-.583 1.63-1.66l5.882 5.84-42.44 42.744 42.015 41.715-2.171 2.187-42.963-42.657 42.971-43.28z"/>
    <path fill="none" stroke="#000" stroke-width=".567" d="M376.89 424.129l24.378-24.553 13.54 13.445-24.377 24.552z"/>
    <path fill="none" stroke="#000" stroke-width=".283" d="M314.857 435.527l68.948-69.442M386.918 369.23l-68.921 69.415"/>
    <path fill="#ffd42a" fill-rule="evenodd" stroke="#000" stroke-width=".567" d="M267.94 388.944l-6.123 14.65 51.74 51.37 10.363-10.438zM313.556 454.964l-51.739-51.37 8.456 13.981 40.49 40.202z"/>
    <path fill="#ffd42a" fill-rule="evenodd" stroke="#000" stroke-width=".567" d="M261.817 403.593l8.456 13.982-8.663 8.726-3.833-3.806-7.123-26.205 12.254-12.342 5.031 4.996z"/>
    <path fill="#ffd42a" fill-rule="evenodd" stroke="#000" stroke-width=".567" d="M261.61 426.3l-2.371-2.353-93.077 93.744 53.267 52.888 36.148-36.407 2.687 2.668 16.374-16.491 12.494-.36 10.424-6.495 19.535-28 1.74 1.726 9.73-9.8 2.62 2.603.987-.994-9.313-9.247-2.163 2.18-7.041-7.029 2.145-2.16-5.032-4.996-40.49-40.202zm20.276 86.743l2.12-.186 6.993-4.514 2.067-2.082 6.915-11.443z"/>
    <path fill="none" stroke="#000" stroke-width=".567" d="M315.796 462.773l7.06 7.01M318.269 465.228l-2.145 2.16M332.168 479.029l7.6 7.546M337.236 484.06l-2.014 2.03M333.759 480.608l-2.014 2.029M321.812 468.746l-2.166 2.17M228.458 561.477l13.264-13.36-21.16-78.583 30.813-31.033 16.175 16.06 11.064-11.144 22.196 22.038-56.63 57.045 14.033 14.391 48.73-49.084-4.111-4.082 8.345-8.286 1.433 1.391 6.45-6.495-5.41-5.402 2.146-2.16-45.522-45.198-8.664 8.726-2.371-2.354-52.939 53.318z"/>
    <path fill="none" stroke="#000" stroke-width=".567" d="M310.503 478.952l8.327 8.268 10.754-10.757-6.729-6.68-2.163 2.178-1.632-1.626zM317.475 471.93l8.327 8.268M314.781 474.644l8.343 8.282M312.61 476.83l8.334 8.275M321.465 471.183l6.724 6.676"/>
    <path fill="#ffd42a" fill-rule="evenodd" stroke="#000" stroke-width=".567" d="M266.521 430.388l-13.496 13.593 2.476 2.46 13.497-13.594z"/>
    <path fill="none" stroke="#000" stroke-width=".567" d="M253.288 444.243l-20.323 20.47 1.933 1.886 20.307-20.453zM299.981 494.818l6.962-7.011-4.111-4.082m9.154 9.092l-5.043-5.01"/>
    <path fill="#ffd42a" fill-rule="evenodd" stroke="#000" stroke-width=".567" d="M294.14 482.752l7.448 1.488 7.655-2.6 2.863-6.94-1.57-5.9-6.108-5.124-7.949 1.577-5.782 5.245-134.315 39.015-16.281 1.777-10.49 3.03c-4.993 6.449-3.518 12.959 4.207 16.064l7.002-1.535 3.51-2.06 8.52-3.154 2.621-1.007 3.469-2.467z"/>
    <path fill="none" stroke="#000" stroke-width=".567" d="M294.14 482.752l-3.443-12.255M270.697 476.307l3.269 12.027M275.863 474.806l3.287 12.095M184.298 501.404l2.222 11.126 83.724-23.166-3.255-11.98zM47.765 678.655l52.731-53.109"/>
    <path fill="#ffd42a" fill-rule="evenodd" stroke="#000" stroke-width=".567" d="M126.961 626.921l-16.07-15.955-12.45 12.54 16.07 15.955z"/>
    <path fill="#ffd42a" fill-rule="evenodd" stroke="#000" stroke-width=".567" d="M87.158 700.84l-3.574 4.578.532 7.553 5.385 5.346 7.082-.539 5.214-4.741.478-6.343-2.438-5.509 1.98-120.397 3.329-14.5.731-10.746-4.392-4.361-7.546-.61-4.931 4.967-.262 9.545 1.925 15.463z"/>
    <path fill="none" stroke="#000" stroke-width=".567" d="M87.264 700.944l12.679.346M100.212 678.376l-12.456-.421M100.126 683.647l-12.527-.423M174.793 504.165l2.934 10.798M179.39 502.83l2.952 10.862M101.31 611.584l-1.04 63.297-12.342.044 1.835-63.3zM89.908 606.655l11.468-.041M90.052 601.745l11.409-.041"/>
    <path fill-rule="evenodd" stroke="#000" stroke-width=".567" d="M253.2 405.655l.91 3.347-95.511 96.196-2.132-2.116z"/>
    <path fill="none" stroke="#000" stroke-width=".567" d="M168.798 499.185a2.45 2.45 0 0 1 3.465-.012 2.45 2.45 0 1 1-3.465.012zM245.264 422.171a2.45 2.45 0 0 1 3.465-.012 2.45 2.45 0 1 1-3.465.012z"/>
    <path fill="#ffd42a" fill-rule="evenodd" stroke="#000" stroke-width=".567" d="M196.206 569.9l-49.801 50.158-28.715-28.51 49.801-50.158z"/>
    <path fill="none" stroke="#000" stroke-width=".567" d="M117.69 591.548l49.801-50.158-1.765-1.752-49.8 50.158zM148.17 621.81l49.8-50.157-1.765-1.753-49.8 50.158zM155.004 619.83a2.636 2.636 0 0 1 3.727-.014 2.636 2.636 0 1 1-3.727.013zM172.022 636.726a2.636 2.636 0 0 1 3.727-.013 2.636 2.636 0 1 1-3.727.013zM213.27 595.182a2.636 2.636 0 0 1 3.728-.013 2.636 2.636 0 1 1-3.728.013zM196.252 578.285a2.636 2.636 0 0 1 3.728-.013 2.636 2.636 0 1 1-3.728.013zM114.494 579.608a2.636 2.636 0 0 1 3.728-.013 2.636 2.636 0 1 1-3.728.013zM155.762 538.083a2.636 2.636 0 0 1 3.727-.013 2.636 2.636 0 1 1-3.727.013zM105.284 564.256l34.712-34.96M133.181 530.114l-27.074 27.268M98.322 550.925l28.145-28.346M127.475 517.952l-32.463 32.695"/>
    <path fill-opacity=".392" fill-rule="evenodd" stroke="#000" stroke-width=".567" d="M79.836 530.338l23.07-23.235-6.434-3.353-5.454-13.054-12.326-55.449-5.568-2.964-8.243 1.526-3.14 4.597 6.573 60.404 3.05 15.792z"/>
    <path fill="#ffd42a" fill-rule="evenodd" stroke="#000" stroke-width=".567" d="M85.238 430.447l-6.546 4.8-5.568-2.964-8.243 1.526-3.14 4.597-7.715-.76-2.758-13.437 5.218-3.267 20.461-3.959 6.728 2.181z"/>
    <path fill="#ff2a2a" fill-rule="evenodd" stroke="#000" stroke-width=".567" d="M51.267 424.209c-2.194 5.55-.98 9.925 2.759 13.437z"/>
    <path fill="none" stroke="#000" stroke-width=".567" d="M57.223 420.799l2.314 13.998M75.953 417.176l2.37 14.145"/>
    <path fill="#ffd42a" fill-rule="evenodd" stroke="#000" stroke-width=".567" d="M123.566 514.167l-9.696-5.23 4.525-6.913 8.889 4.43z"/>
    <path fill="none" stroke="#000" stroke-width=".567" d="M171.18 516.774l51.198 50.834M356.658 292.277l77.127 76.578M130.661 528.696l-25.726 25.91M101.485 551.181l25.907-26.092"/>
    <path fill="#ffd42a" fill-rule="evenodd" stroke="#000" stroke-width=".567" d="M203.103 554.369l-20.76-20.611-11.189 11.27 20.76 20.61zM143.627 617.3l-22.55-22.389-13.294 12.969 22.76 22.598z"/>
    <path fill="none" stroke="#000" stroke-width=".567" d="M100.748 645.816l22.852 22.69M100.806 642.254l24.604 24.43M122.128 669.989l-22.144 22.303M31.79 647.047l10.865 15.443 10.656 10.58 4.42-4.453L47.05 658.01l42.764-43.071M47.05 658.01l-14.806-14.7M52.517 652.504l10.682 10.607M84.375 620.418l4.72 4.686"/>
    <path fill="none" stroke="#000" stroke-width=".567" d="M46.2 642.339l27.906-28.107c2.256-2.272 5.962-2.285 8.234-.029h0c2.273 2.256 2.286 5.962.03 8.234l-27.906 28.106c-2.257 2.273-5.962 2.286-8.235.03h0c-2.272-2.256-2.285-5.962-.03-8.234z"/>
    <path fill="#ffd42a" fill-rule="evenodd" stroke="#000" stroke-width=".567" d="M494.545 163.667l26.156-26.344 66.557 66.084-26.156 26.343z"/>
    <path fill="none" stroke="#000" stroke-width=".567" d="M498.756 159.426l3.139-3.162 66.557 66.084-3.139 3.161zM42.002 633.403l1.36-1.37 6.582 6.535-1.36 1.37zM63.938 611.31l1.36-1.37 6.582 6.534-1.36 1.37z"/>
    <path fill="#ff7f2a" fill-rule="evenodd" stroke="#000" stroke-width=".567" d="M50.84 670.618l-8.185-8.128-4.255 8.67 3.807 3.78z"/>
    <path fill="none" stroke="#000" stroke-width=".567" d="M53.745 639.637l1.66-1.673 4.11 4.08-1.66 1.673zM48.618 644.8l1.661-1.673 4.11 4.08-1.661 1.674zM59.028 634.315l1.661-1.672 4.11 4.08-1.661 1.673zM64.39 628.915l1.661-1.673 4.11 4.08-1.66 1.673zM69.57 623.699l1.66-1.673 4.11 4.08-1.661 1.673zM74.696 618.535l1.66-1.672 4.11 4.08-1.66 1.673zM240.85 594.81a3.063 3.063 0 0 1 4.33-.016 3.063 3.063 0 1 1-4.33.015z"/>
    <path fill="none" stroke="#000" stroke-width=".567" d="M239.022 592.995a5.638 5.638 0 0 1 7.974-.029 5.638 5.638 0 1 1-7.974.029z"/>
    <path fill="none" stroke="#000" stroke-width=".567" d="M237.11 591.097a8.332 8.332 0 0 1 11.783-.042 8.332 8.332 0 1 1-11.782.042zM350.012 506.868a5.197 5.197 0 0 1 7.35-.027 5.197 5.197 0 1 1-7.35.027zM306.996 675.126l7.77-7.824 23.327 23.161-7.769 7.825zM362.431 695.954l20.219-20.363-7.928-7.872-20.22 20.364zM406.674 651.394l20.219-20.364-7.928-7.872-20.219 20.364z"/>
    <path fill="#ffd42a" fill-rule="evenodd" stroke="#000" stroke-width=".567" d="M429.179 608.234l-.464 13.074 3.71-.013.119 4.044-7.69 7.745 6.982 6.933 10.62-10.696.215-35.15-10.342.037.05 14.015z"/>
    <path fill="none" stroke="#000" stroke-width=".567" d="M432.378 608.222l.047 13.073M354.837 542.234l7.695-7.75 65.429 64.964-7.695 7.75zM420.658 624.84l1.774-1.786-.056-15.462-1.26-1.25M276.71 627.228l-15.645-15.534M247.214 578.11l20.235-20.38 7.785 7.73-20.235 20.38zM255.742 606.409l76.205-76.751 7.365.621-79.553 80.119zM352.238 682.26l59.985-60.415-.39-11.199-71.407 71.919zM324.29 666.281l7.149-7.2 4.882 1.493 57.938-58.353 9.527 9.46-66.763 67.242z"/>
    <path fill="none" stroke="#000" stroke-width=".567" d="M318.523 665.34l12.01-12.097 5.736 1.51 59.098-59.52-.256-2.012-59.473-59.246 3.5-3.526 76.688 76.142-77.677 78.235z"/>
    <path fill="none" stroke="#000" stroke-width=".567" d="M396.728 600.941l8.43 8.37 1.177-1.185-8.43-8.37zM398.408 599.249l8.43 8.37 1.177-1.186-8.43-8.37zM400.089 597.556l8.43 8.37 1.177-1.185-8.43-8.37zM327.147 534.492l-13.02-.697-59.57 59.998.013 3.74 66.107 65.637"/>
    <path fill="#ffd42a" fill-rule="evenodd" stroke="#000" stroke-width=".567" d="M267.165 557.449l20.336-20.482 117.212 116.376-20.337 20.482z"/>
    <path fill="#ff7f2a" fill-rule="evenodd" stroke="#000" stroke-width=".567" d="M49.473 625.985l13.751-13.956-10.882-2.874-8.284-8.225-5.843 5.886 8.284 8.224z"/>
    <path fill="#ffd42a" fill-rule="evenodd" stroke="#000" stroke-width=".567" d="M40.079 604.939l2.31-2.328C32 590.565 31.502 579.03 44.333 568.184l10.828-6.339 11.278-2.665 13.825-6.197-1.26-2.581-12.556 5.245-11.912 2.733-11.526 6.91c-14.223 12.245-16.015 25.401-2.931 39.649z"/>
    <path fill="#ffd42a" fill-rule="evenodd" stroke="#000" stroke-width=".567" d="M80.697 553.87l-3.034-6.215 6.035-3.513 3.692 7.91z"/>
    <path fill="none" stroke="#000" stroke-width=".567" d="M116.057 505.597l9.255 4.947M117.226 503.81l9.054 4.727M80.817 545.82l3.365 7.103M79.201 546.76l3.185 6.651M82.714 527.439l17.132-17.255 5.142 5.105-17.133 17.255zM82.315 538.168l28.484-28.689M53.336 609.418l-1.828 1.84 5.738 3.286 3.185-3.21M48.702 623.147l3.222-3.245-3.326-5.712-1.83 1.843M297.453 373.832l23.452 23.285q1.396 1.386 2.783-.01v0q1.386-1.396-.01-2.783l-23.452-23.284q-1.396-1.387-2.783.01v0q-1.386 1.396.01 2.782zM308.491 362.715L331.943 386q1.396 1.386 2.782-.01v0q1.387-1.396-.01-2.783l-23.451-23.285q-1.397-1.386-2.783.01v0q-1.386 1.397.01 2.783zM319.948 351.176l23.451 23.285q1.397 1.386 2.783-.01v0q1.386-1.396-.01-2.782l-23.452-23.285q-1.396-1.386-2.782.01v0q-1.387 1.396.01 2.783zM386.283 433.455l24.378-24.553M391.406 428.295l-9.393-9.326M140.1 511.29l14.89.764 1.403 7.195M85.858 702.505l14.75.42M105.146 566.288l-5.496 14.969-2.097 117.854 2.39 2.179M99.65 581.257l-6.432-.174-4.566 117.814 8.9.215M88.652 698.897l-1.388 2.047M93.218 581.083l-4.472-16M293.403 480.126L157.13 518.789l-12.8 8M154.99 512.054l136.475-38.825"/>
    <path fill="#ff7f2a" fill-rule="evenodd" stroke="#000" stroke-width=".567" d="M376.427 400.022l6.8-6.85 28.067 27.867-6.801 6.85z"/>
    <path fill="#ff7f2a" fill-rule="evenodd" stroke="#000" stroke-width=".567" d="M379.324 399.97l4.028-4.058 26.634 26.444-4.028 4.057z"/>
    <path fill="#ff7f2a" fill-rule="evenodd" stroke="#000" stroke-width=".567" d="M370.51 397.678l.35-4.568 4.97-5.006 3.952-1.074 4.79 4.757-.631 3.533-5.075 5.11-4.326 1.25zm3.967-6.314c1.748-1.76 3.884-2.473 4.772-1.592.887.881.19 3.023-1.558 4.783-1.748 1.76-3.885 2.474-4.772 1.592-.887-.88-.19-3.022 1.558-4.783z"/>
    <path fill-opacity=".392" stroke="#000" stroke-width=".567" d="M370.906 375.507c1.143.022 1.634-.583 1.63-1.66l5.882 5.84-42.44 42.744 42.015 41.715-2.171 2.187-42.963-42.657 42.971-43.28z"/>
    <path fill-opacity=".392" d="M371.068 471.121l.89-.896-47.548-47.209c-.216.43-.517.721-.89.896z"/>
    <path fill="none" stroke="#000" stroke-width=".567" d="M513.881 144.192l3.139-3.161 66.557 66.083-3.139 3.161zM506.17 151.958l3.139-3.161 66.557 66.083-3.138 3.162zM134.026 518.989a2.729 2.729 0 0 1 3.859-.014 2.729 2.729 0 1 1-3.859.014zM300.088 472.183a2.599 2.599 0 0 1 3.675-.013 2.599 2.599 0 1 1-3.675.013zM95.246 557.81a2.562 2.562 0 0 1 3.623-.013 2.562 2.562 0 1 1-3.622.012zM91.785 707.312a2.172 2.172 0 0 1 3.071-.011 2.172 2.172 0 1 1-3.071.01zM152.417 526.424l-1.905-1.892M144.6 506.758l3.656 3.629M85.238 430.447l-6.915.874-18.786 3.476-5.511 2.849M376.667 495.475l4.111 4.109 6.885 3.564M271.907 627.852l2.107 2.092M313.803 664.056l2.107 2.093M311.106 666.772l2.108 2.092M394.188 583.094l2.108 2.093M421.83 555.255l2.107 2.092M382.63 516.334l2.108 2.093M377.501 666.999l20.336-20.482M298.896 528.955l4.872 4.837"/>
    <path fill-opacity=".392" fill-rule="evenodd" stroke="#000" stroke-width=".567" d="M61.741 438.406l-7.715-.76 5.51-2.849 18.787-3.476 6.915-.875-6.545 4.801-5.57-2.964-8.242 1.526zM117.69 591.548l49.801-50.158-1.765-1.752-49.8 50.158z"/>
</svg>
