<svg xmlns="http://www.w3.org/2000/svg" viewBox="0 0 725.669 725.669">
    <g stroke="#000" stroke-width=".567">
        <path fill="#ff7f2a" fill-rule="evenodd" d="M397.575 166.845l-11.077-15.357 5.374-3.877 1.243 1.749 70.213-50.613 4.762-.713 7.933-5.723 2.062-4.241 10.885-7.851c-5.161-6.51-3.556-16.464 3.592-29.237l38.466-27.746 12.642 17.527 44.477-32.049 28.661 39.735-43.29 31.144 2.01 2.786 10.951-7.9 16.994 3.24 24.836 34.308-3.24 16.993-10.458 7.544 1.797 2.49 43.204-31.163 29.01 40.218-51.103 36.86 3.028 4.198-.7 5.834-123.248 88.587-4.922-.797-3.627-5.027-10.334 7.454c.827 1.444.569 2.526-.508 3.331l-6.662 4.806 6.015 8.339 12.222-8.816 7.77 1.828 3.726 5.166-1.629 8.046-11.669 8.417 8.6 11.923-8.468 6.109-2.977-4.128-8.071 5.822 2.977 4.128-62.952 45.407-2.98-4.126-8.718 6.29 2.977 4.127-8.323 6.004-8.849-12.268-10.332 7.452-8.61-.52-4.026-5.582 2.666-7.72 10.29-7.523-6.26-8.678-4.317 3.114c-1.407 1.226-2.7 1.051-3.911-.175l-32.24 23.254 2.388 39.859-4.374 8.905-40.864 29.476-.273 6.718-23.199 16.734-8.04 9.655-5.959 9.627-.1 16.97 5.733 17.182 6.42 8.902 8.138-.19 2.195 3.044-.288 3.293-9.455 6.82-1.99 7.255-.325 13.838 4.044 12.51 5.39 7.471 8.493-.377 2.927 4.059-8.487 7.384-2.715 13.247 2.474 16.166 10.5 15.916 8.42 6.618 8.206-.87.965 1.337-2.572 5.571-7.256 7.828-47.342 18.161-41.028 9.611-18.222 2.345-4.35-5.836-6.407-11.507-7.49-21.172-4.744-22.522-2.772-24.645-1.016-22.406 1.064-32.742.458-9.865-1.017-13.85-1.237-11.73-14.803-24.312-12.777-7.894-7.706 5.524-11.59.192-10.234-5.731-7.32-10.147-25.915-1.712-35.273-49.257 6.869-24.307-8.098-11.453c-1.043-6.86 1.197-13.05 5.413-18.84l46.075-33.234-12.076-16.741 86.617-62.478 12.143 16.835 101.445-73.174-.997-1.383 5.857-4.226 11.112 15.405zm-104.961 293.81l7.782 1.749 39.711-28.644 3.172-6.004-2.233-38.286-24.392-2.32-22.554 16.268-.785 7.368 1.408 9.923 6.207 9.967 2.961 4.105 4.186 3.081 6.125 2.173 1.564 2.167-1.199 3.88-4.658 3.36-5.752-1.46-6.526-3.216-3.635-2.707-3.16-4.382-17.112 12.343 5.21 4.306 6.559 4.524z"/>
        <path fill="#ffd42a" fill-rule="evenodd" d="M464.154 216.473l128.77-92.883 47.577 65.96-.57 4.749-123.704 89.23-4.349-.892z"/>
        <path fill="none" d="M544.613 39.52l28.905 40.073M581.433 73.966l-7.915 5.627M488.97 80.219l54.7-39.456M536.773 45.744l56.15 77.846M573.518 79.593l41.093 56.97M622.926 130.566l-39.084-54.184M465.152 98.793l55.39 76.792M477.416 89.447l55.893 77.49M595.743 110.405l-109.758 79.17c-70.422 20.738-53.273-8.693-30.006-44.128l108.558-78.305z"/>
        <path fill="none" d="M449.028 176.686a5.09 5.09 0 0 1 7.105 1.15 5.09 5.09 0 1 1-7.105-1.15zM449.028 176.686l5.94 8.237M449.028 176.686l-9.71 7.004M454.983 184.942l-9.756 7.037M616.408 139.054l29.01 40.218M614.596 153.636l51.332-36.99"/>
        <path fill="#ffd42a" fill-rule="evenodd" d="M570.739 157.962c-1.735-11.367 8.273-18.31 18.29-13.193l41.224 57.152c6.016 8.876-8.589 22.27-18.29 13.193l-41.224-57.152zM529.322 187.837c-1.735-11.367 8.273-18.31 18.29-13.193l41.224 57.152c6.016 8.876-8.59 22.27-18.29 13.193l-41.224-57.152zM488.643 217.179c-1.735-11.367 8.273-18.31 18.29-13.193l41.224 57.152c6.016 8.876-8.59 22.27-18.29 13.193l-41.224-57.152z"/>
        <path fill="none" d="M346.598 311.541l39.399 54.621q1.23 1.705 2.935.476l108.48-78.248q1.704-1.23.475-2.935l-39.4-54.62q-1.229-1.706-2.934-.476l-108.48 78.248q-1.704 1.23-.475 2.934z"/>
        <path fill="none" d="M366.758 312.282l19.163 26.567q1.73 2.398 4.128.668l83.945-60.55q2.398-1.73.668-4.128L455.5 248.272q-1.73-2.398-4.127-.668l-83.946 60.55q-2.398 1.73-.668 4.128z"/>
        <path fill="#ff2a2a" fill-rule="evenodd" d="M376.25 313.38l11.498 15.94q1.038 1.438 2.476.4l74.7-53.88q1.438-1.038.4-2.477l-11.497-15.94q-1.038-1.439-2.477-.4l-74.699 53.88q-1.438 1.038-.4 2.477z"/>
        <path fill="none" d="M388.039 354.368a2.132 2.132 0 0 1 2.977.482 2.132 2.132 0 1 1-2.977-.482zM354.489 307.856a2.132 2.132 0 0 1 2.977.482 2.132 2.132 0 1 1-2.977-.482zM453.856 236.181a2.132 2.132 0 0 1 2.977.482 2.132 2.132 0 1 1-2.977-.482zM487.683 282.494a2.132 2.132 0 0 1 2.977.482 2.132 2.132 0 1 1-2.977-.482zM400.185 371.73l10.012 13.893M496.561 301.694l10.42 14.641M392.855 377.09l9.984 13.84M504.696 295.826L515.21 310.4M473.908 305.343l25.134 34.846M481.979 299.522l25.134 34.845M410.956 350.751l25.134 34.845M402.235 357.042l25.134 34.845M290.835 437.677l-5.958-9.233-6.8-13.469"/>
        <path fill="none" d="M294.1 403.418l-29.745 21.456.641 7.499 3.023 8.758 5.705 8.889"/>
        <path fill="none" d="M264.355 424.874l-19.001 13.706 39.57 54.858M296.84 469.268a5.487 5.487 0 0 1 7.661 1.24 5.487 5.487 0 1 1-7.66-1.24zM294.61 473.004l10.813 1.751"/>
        <path fill="none" d="M284.923 493.438l-10.814-14.994-58.343 42.083-3.622 8.783-1.457 13.533.255 86.481 1.614 25.761 8.983 35.59 6.19 15.755 38.873-9.273 41.367-14.973 8.082-5.128 5.351-7.46-6.892.731-8.42-6.618-10.5-15.916-2.474-16.166 2.715-13.247 8.487-7.384-2.927-4.059-8.494.377-5.39-7.472-4.043-12.509.325-13.838 1.99-7.255 9.455-6.82.288-3.293-2.195-3.044-8.137.19-6.421-8.902-5.732-17.181.1-16.97z"/>
        <path fill="none" d="M210.22 713.93l2.062-3.815 54.32-12.958 41.367-14.973 8.082-5.128 5.351-7.46"/>
        <path fill="none" d="M319.656 672.03l-19.112 8.218-28.316-1.733-9.468-5.932-3.69-5.893-.068-14.676 18.087-25.668 18.742-7.966M285.779 566.24l-18.477 5.322-7.645 4.954-15.648 15.634-1.786 14.05 5.057 7.01 6.032 3.502 14.363.86 11.643-.967 12.21-4.46 1.644-2.096-.275-2.735M285.19 553.273l.562 2.456-6.395 3.772-17.44 5.567-20.385-2.404-7.372-7.304-1.491-7.9 2.418-8.895 8.352-12.335 9.272-10.475 12.412-9.234 17.992-10.756M235.518 462.176a7.563 7.563 0 0 1 10.558 1.71 7.563 7.563 0 1 1-10.558-1.71zM232.733 466.021l14.414 4.588M200.374 487.526a7.563 7.563 0 0 1 10.558 1.71 7.563 7.563 0 1 1-10.558-1.71zM205.695 486.15l-1.791 15.02M245.354 438.58l-93.184 67.25M59.212 445.502l5.429-19.693 47.072 64.774-20.264-.39z"/>
        <path fill-rule="evenodd" d="M133.782 397.394l-29.255-40.558-2.494 1.728 29.288 40.605z"/>
        <path fill="#ffd42a" fill-rule="evenodd" d="M160.1 378.41l-34.313 24.75c-15.816 25.098-1.307 43.256 26.081 36.16l34.315-24.752z"/>
        <path fill-rule="evenodd" d="M273.998 351.226l6.32 8.764 10.463 3.811 61.51-44.367 2.528 3.505-62.34 44.966-13.479-4.3-5.655-7.84-109.954 79.31-4.327-.945 27.119-19.562z"/>
        <path fill="#ffd42a" fill-rule="evenodd" d="M163.163 382.655l20.227 28.042 187.272-135.081-20.227-28.042z"/>
        <path fill="#ffd42a" fill-rule="evenodd" d="M347.373 243.328l34.314-24.751c28.805-7.088 41.458 12.41 26.082 36.159l-34.315 24.751z"/>
        <path fill="none" d="M95.633 442.586c-.383-11.708 4.084-16.018 14.851-10.713l28.81 39.942 107.371-77.448c12.408-9.341 21.757-10.446 30.104-8.813l5.856 8.118-131.354 94.747c-7.328 4.3-14.674 4.278-22.037.75zM292.52 221.306l23.171 32.123 100.304-72.35-22.88-31.72"/>
        <path fill="none" d="M308.492 231.102l9.298 12.891 89.084-64.257-9.299-12.891"/>
        <path fill="#ff7f2a" fill-rule="evenodd" d="M322.36 203.085l6.1-4.4c-.777-6.75 2.037-7.903 7.288-5.257l9.707-7.002c-.844-6.643 1.645-7.865 6.734-4.857l6.402-4.618c6.22-4.487 14.98-3.068 19.467 3.151h0c4.487 6.22 3.068 14.98-3.152 19.468l-36.232 26.134c-6.22 4.487-14.98 3.069-19.467-3.152h0c-4.487-6.22-3.069-14.98 3.152-19.467z"/>
        <path fill="none" d="M323.02 220.552v0q6.355 8.81 15.165 2.456l34.36-24.785q8.81-6.355 2.455-15.164v0q-6.354-8.81-15.163-2.455l-34.361 24.785q-8.81 6.354-2.455 15.163z"/>
        <path fill="#ffd42a" fill-rule="evenodd" d="M343.716 194.464a9.051 9.051 0 0 1 12.636 2.046 9.051 9.051 0 1 1-12.636-2.046z"/>
        <path fill="#ff7f2a" fill-rule="evenodd" d="M345.543 196.997a5.929 5.929 0 0 1 8.276 1.34 5.929 5.929 0 1 1-8.276-1.34z"/>
        <path fill="#ffd42a" fill-rule="evenodd" d="M327.209 206.371a9.051 9.051 0 0 1 12.636 2.046 9.051 9.051 0 1 1-12.636-2.046z"/>
        <path fill="#ff7f2a" fill-rule="evenodd" d="M329.035 208.904a5.929 5.929 0 0 1 8.277 1.34 5.929 5.929 0 1 1-8.277-1.34z"/>
        <path fill="#ffd42a" fill-rule="evenodd" d="M360.271 182.523a9.051 9.051 0 0 1 12.636 2.046 9.051 9.051 0 1 1-12.636-2.046z"/>
        <path fill="#ff7f2a" fill-rule="evenodd" d="M362.098 185.056a5.929 5.929 0 0 1 8.276 1.34 5.929 5.929 0 1 1-8.276-1.34z"/>
        <path fill="none" d="M104.527 356.836l86.48-62.45M188.884 307.652l6.474 40.496q.483 3.018 3.5 2.536v0q3.019-.483 2.536-3.5l-6.474-40.497q-.482-3.019-3.5-2.536v0q-3.019.482-2.536 3.5zM172.137 319.731l6.475 40.497q.482 3.018 3.5 2.535v0q3.018-.482 2.536-3.5l-6.474-40.497q-.483-3.018-3.501-2.535v0q-3.018.482-2.536 3.5zM156.18 331.242l6.474 40.496q.482 3.019 3.5 2.536v0q3.018-.482 2.536-3.5l-6.474-40.497q-.483-3.018-3.5-2.536v0q-3.019.483-2.537 3.5zM143.587 338.653h0a3.065 3.065 0 0 1 3.501 2.535l6.474 40.498c.081.507.251 1.162-.125 1.462-.879.702-2.09 1.857-3.102 1.903-1.42.063-2.581-.973-2.809-2.4l-6.474-40.498a3.064 3.064 0 0 1 2.535-3.5zM206.226 295.143l6.474 40.496q.482 3.019 3.5 2.536v0q3.019-.482 2.536-3.5l-6.474-40.497q-.482-3.018-3.5-2.536v0q-3.019.483-2.536 3.5zM223.475 282.7l6.474 40.497q.483 3.019 3.5 2.536v0q3.019-.482 2.536-3.5l-6.474-40.497q-.482-3.018-3.5-2.536v0q-3.019.483-2.536 3.5zM590.74 125.164l-56.153-77.85M586.479 74.48l-10.951 7.9"/>
        <path fill="#ffd42a" fill-rule="evenodd" d="M352.063 199.453a3.853 3.853 0 0 0-5.377-.87c-1.726 1.244-2.083 3.698-.838 5.423l9.298 12.891 6.244-4.503zM368.619 187.512a3.853 3.853 0 0 0-5.378-.87c-1.726 1.244-2.082 3.698-.838 5.423l9.299 12.89 6.243-4.503z"/>
        <path fill="none" d="M386.498 151.488l11.077 15.357M328.46 198.685l7.288-5.257M345.455 186.426l6.734-4.857M227.73 706.43l1.801 4.587"/>
        <path fill-opacity=".392" fill-rule="evenodd" d="M284.923 493.438l-10.814-14.994-58.343 42.083-3.622 8.783-1.457 13.533.255 86.481 1.614 25.761 8.983 35.59 6.19 15.755 38.873-9.273 41.367-14.973 8.082-5.128 5.351-7.46-6.892.731-8.42-6.618-10.5-15.916-2.474-16.166 2.715-13.247 8.487-7.384-2.927-4.059-8.494.377-5.39-7.472-4.043-12.509.325-13.838 1.99-7.255 9.455-6.82.288-3.293-2.195-3.044-8.137.19-6.421-8.902-5.732-17.181.1-16.97z"/>
        <path fill="#ffd42a" fill-rule="evenodd" d="M335.627 211.46a3.853 3.853 0 0 0-5.378-.872c-1.725 1.245-2.082 3.699-.837 5.424l9.298 12.891 6.244-4.503z"/>
    </g>
</svg>
