<svg xmlns="http://www.w3.org/2000/svg" viewBox="0 0 725.669 725.669">
    <path fill="#ff7f2a" fill-rule="evenodd" stroke="#000" stroke-width=".567" d="M490.584 360.151l-3.529-9.876 11.326-8.434-4.665 6.998 4.301 5.777zM52.706 463.714l-11.293-37.178-14.447-3.678-17.533-23.546 4.388-3.267 23.5.573 17.331-12.905 8.717-.353 31.443-23.414 2.68-.064 2.397 3.218 58.937-43.888 15.428-11.489 2.165-3.658 210.266-162.142 9.505 1.39 21.754-16.198 4.338-12.951 69.76-51.947 8.753-42.893 11.911-8.817 17.452 23.436 8.23 5.863 17.643 23.692 1.334 25.605 1.416 1.902 13.699-5.445 33.005 44.324-9.34 11.816 69.713 93.558 10.058-3.285 10.183 13.675-5.666 9.335-13.057 10.859-3.748 8.69-6.661 4.96 4.16 5.893-1.28 8.74L540.4 383.07l-20.072 1.59-4.873-6.545-13.126 9.774 4.52 6.07-26.691 19.876-44.192-15.231-8.386-11.261-148.22 110.373-7.002 10.442-4.69 16.905 11.05 58.496 1.58 2.12 6.369 3.67 11 14.77 21.708 12.82 9.257 12.432-2.852 2.123 5.336 7.166-96.669 71.985-2.953.345-4.448-5.973-18.117 13.49-10.845-8.573-1.989-2.672-3.678-9.256-1.66-2.228-6.943-5.49-2.136-2.867-4.125-7.386-4.69-9.351-33.46-122.174-1.924-2.432-18.768-14.837H90.85l-27.488 7.965-9.152 5.11-6.945-.625-2.124-2.852.613-13.984 26.763-19.929-8.978-19.23-26.858 3.142-7.28-9.777 3.323-9.408zm196.038-.036l.21-18.343 38.755-28.859 13.744 1.36 16.77 22.521-54.842 40.839z"/>
    <path fill="#ff7f2a" fill-rule="evenodd" stroke="#000" stroke-width=".567" d="M261.44 430.98l-13.367 9.841 16.58 22.266 20.984-.452 3.035-2.26-4.084-5.484-6.922-2.12z"/>
    <path fill="none" stroke="#000" stroke-width=".567" d="M396.201 143.33l140.57-104.676-6.614-4.711-11.774-15.812-2.878 13.63-5.474 4.076-5.108 16.789-12.881 9.591M174.255 307.723l221.935-164.41"/>
    <path fill="#ff7f2a" fill-rule="evenodd" stroke="#000" stroke-width=".567" d="M538.388 39.806l17.082 22.94-372.318 277.247 10.316 13.852 9.505-2.19L428.777 183.51l18.306-5.334-11.992 8.93 33.869 45.482 11.992-8.93-8.841 15.45-134.327 100.027-4.03-5.41-9.608-.233-31.443 23.414-1.156 7.453 4.41 5.922L90.082 523.587l-7.352.162-2.463-2.086-7.75-14.736-8.977-19.23-10.834-23.983-11.293-37.178-4.555-16.5 63.03-46.936 74.367-55.377 2.164-3.658 210.266-162.142 9.504 1.39 21.755-16.199 4.338-12.95 69.76-51.947 8.753-42.893 11.911-8.817 17.451 23.436z"/>
    <path fill="none" stroke="#000" stroke-width=".567" d="M183.152 339.993l-18.632-25.021"/>
    <path fill="none" stroke="#000" stroke-width=".283" d="M209.903 301.294v0q1.933 2.596 4.529.663l48.7-36.264q2.596-1.933.663-4.53v0q-1.933-2.595-4.529-.662l-48.7 36.264q-2.596 1.933-.663 4.53zm76.926-57.283v0q1.933 2.596 4.529.663l48.7-36.264q2.596-1.933.663-4.53v0q-1.933-2.595-4.53-.662l-48.7 36.264q-2.595 1.934-.662 4.53zm74.179-55.238v0q1.934 2.596 4.53.663l48.7-36.264q2.596-1.933.662-4.53v0q-1.933-2.595-4.529-.662l-48.7 36.264q-2.596 1.933-.663 4.53z"/>
    <path fill="none" stroke="#000" stroke-width=".567" d="M444.933 119.06a5.47 5.47 0 1 1 6.534 8.776 5.47 5.47 0 0 1-6.534-8.775zm-1.552-2.084a8.069 8.069 0 1 1 9.638 12.944 8.069 8.069 0 0 1-9.638-12.944zM519.6 63.46a5.47 5.47 0 1 1 6.534 8.775 5.47 5.47 0 0 1-6.533-8.776zm-1.551-2.085a8.069 8.069 0 1 1 9.638 12.943 8.069 8.069 0 0 1-9.638-12.943z"/>
    <path fill-opacity=".392" fill-rule="evenodd" stroke="#000" stroke-width=".283" d="M209.903 301.294v0q1.933 2.596 4.529.663l48.7-36.264q2.596-1.933.663-4.53v0q-1.933-2.595-4.529-.662l-48.7 36.264q-2.596 1.933-.663 4.53zm76.926-57.283v0q1.933 2.596 4.529.663l48.7-36.264q2.596-1.933.663-4.53v0q-1.933-2.595-4.53-.662l-48.7 36.264q-2.595 1.934-.662 4.53zm74.179-55.238v0q1.934 2.596 4.53.663l48.7-36.264q2.596-1.933.662-4.53v0q-1.933-2.595-4.529-.662l-48.7 36.264q-2.596 1.933-.663 4.53z"/>
    <path fill="none" stroke="#000" stroke-width=".567" d="M123.977 431.32h0a3.133 3.133 0 0 1 4.373.64l20.583 27.641a3.133 3.133 0 0 1-.64 4.373h0a3.134 3.134 0 0 1-4.373-.64l-20.583-27.64a3.134 3.134 0 0 1 .64-4.373zm-1.891-2.538v0c2.692-2.005 6.533-1.443 8.538 1.249l20.809 27.944c2.004 2.692 1.442 6.533-1.25 8.538v0c-2.693 2.005-6.533 1.442-8.538-1.25l-20.809-27.944c-2.004-2.692-1.443-6.533 1.25-8.538zm-27.872 24.702l.001-.001a3.133 3.133 0 0 1 4.372.64l20.583 27.641a3.134 3.134 0 0 1-.64 4.372v.001a3.133 3.133 0 0 1-4.373-.64l-20.583-27.641a3.134 3.134 0 0 1 .64-4.372zm-1.89-2.54v0c2.691-2.005 6.532-1.442 8.537 1.25l20.809 27.944c2.005 2.692 1.442 6.533-1.25 8.538v0c-2.692 2.005-6.533 1.442-8.537-1.25l-20.81-27.944c-2.004-2.692-1.442-6.533 1.25-8.538zm59.312-40.22h.001a3.134 3.134 0 0 1 4.373.64l20.583 27.64a3.134 3.134 0 0 1-.64 4.373h-.001a3.134 3.134 0 0 1-4.373-.64l-20.583-27.64a3.134 3.134 0 0 1 .64-4.373zm-1.89-2.54v0c2.692-2.004 6.533-1.442 8.537 1.25l20.81 27.945c2.004 2.691 1.442 6.532-1.25 8.537v0c-2.693 2.005-6.533 1.443-8.538-1.25l-20.81-27.944c-2.004-2.692-1.442-6.532 1.25-8.537z"/>
    <path fill-opacity=".392" fill-rule="evenodd" stroke="#000" stroke-width=".567" d="M94.214 453.484l.001-.001a3.133 3.133 0 0 1 4.372.64l20.583 27.641a3.134 3.134 0 0 1-.64 4.372v.001a3.133 3.133 0 0 1-4.373-.64l-20.583-27.641a3.134 3.134 0 0 1 .64-4.372zm-1.89-2.54v0c2.691-2.005 6.532-1.442 8.537 1.25l20.809 27.944c2.005 2.692 1.442 6.533-1.25 8.538v0c-2.692 2.005-6.533 1.442-8.537-1.25l-20.81-27.944c-2.004-2.692-1.442-6.533 1.25-8.538zm31.653-19.624h0a3.133 3.133 0 0 1 4.373.64l20.583 27.641a3.133 3.133 0 0 1-.64 4.373h0a3.134 3.134 0 0 1-4.373-.64l-20.583-27.64a3.134 3.134 0 0 1 .64-4.373zm-1.891-2.538v0c2.692-2.005 6.533-1.443 8.538 1.249l20.809 27.944c2.004 2.692 1.442 6.533-1.25 8.538v0c-2.693 2.005-6.533 1.442-8.538-1.25l-20.809-27.944c-2.004-2.692-1.443-6.533 1.25-8.538zm29.55-18.058h.001a3.134 3.134 0 0 1 4.373.64l20.583 27.64a3.134 3.134 0 0 1-.64 4.373h-.001a3.134 3.134 0 0 1-4.373-.64l-20.583-27.64a3.134 3.134 0 0 1 .64-4.373zm-1.89-2.54v0c2.692-2.004 6.533-1.442 8.537 1.25l20.81 27.945c2.004 2.691 1.442 6.532-1.25 8.537v0c-2.693 2.005-6.533 1.443-8.538-1.25l-20.81-27.944c-2.004-2.692-1.442-6.532 1.25-8.537zM444.933 119.06a5.47 5.47 0 1 1 6.534 8.776 5.47 5.47 0 0 1-6.534-8.775zm-1.552-2.084a8.069 8.069 0 1 1 9.638 12.944 8.069 8.069 0 0 1-9.638-12.944zM519.6 63.46a5.47 5.47 0 1 1 6.534 8.775 5.47 5.47 0 0 1-6.533-8.776zm-1.551-2.085a8.069 8.069 0 1 1 9.638 12.943 8.069 8.069 0 0 1-9.638-12.943z"/>
    <path fill="none" stroke="#000" stroke-width=".567" d="M242.399 380.493a3.51 3.51 0 1 1 4.191 5.63 3.51 3.51 0 0 1-4.191-5.63zm-1.28-1.719a5.653 5.653 0 1 1 6.751 9.069 5.653 5.653 0 0 1-6.751-9.069z"/>
    <path fill-opacity=".392" fill-rule="evenodd" stroke="#000" stroke-width=".567" d="M242.399 380.493a3.51 3.51 0 1 1 4.191 5.63 3.51 3.51 0 0 1-4.191-5.63zm-1.28-1.719a5.653 5.653 0 1 1 6.751 9.069 5.653 5.653 0 0 1-6.751-9.069z"/>
    <path fill="none" stroke="#000" stroke-width=".567" d="M435.777 236.493a3.51 3.51 0 1 1 4.191 5.63 3.51 3.51 0 0 1-4.191-5.63zm-1.28-1.719a5.653 5.653 0 1 1 6.751 9.07 5.653 5.653 0 0 1-6.751-9.07z"/>
    <path fill-opacity=".392" fill-rule="evenodd" stroke="#000" stroke-width=".567" d="M435.777 236.493a3.51 3.51 0 1 1 4.191 5.63 3.51 3.51 0 0 1-4.191-5.63zm-1.28-1.719a5.653 5.653 0 1 1 6.751 9.07 5.653 5.653 0 0 1-6.751-9.07z"/>
    <path fill="none" stroke="#000" stroke-width=".567" d="M191.588 696.894l77.312-57.571 7.377-18.181-21.296-95.766c.87-10.162 4.37-18.218 9.749-24.765l-1.252-1.681 69.65-51.866 7.404-2.5 48.666-36.239M650.645 214.89L389.852 409.205l-52.068-70.07"/>
    <path fill="none" stroke="#000" stroke-width=".567" d="M358.406 335.15l228.143-169.887 12.85 17.257-228.143 169.887zm4.85-.66l220.248-164.007 9.91 13.308L373.167 347.8zm19.979 34.004L611.38 198.607l12.85 17.257L396.086 385.75zm4.851-.66l220.247-164.007 9.91 13.308-220.246 164.007z"/>
    <path fill-rule="evenodd" stroke="#000" stroke-width=".283" d="M541.306 108.015l42.526 57.11 1.641-1.222-42.526-57.11zm-8.682 6.465l42.527 57.11 1.641-1.223-42.527-57.11z"/>
    <path fill-rule="evenodd" stroke="#000" stroke-width=".567" d="M517.216 116.805c6.912-6.19 14.057-10.868 21.328-14.746-7.008 4.332-13.425 8.697-16.63 13.236l45.957 61.716-3.746 2.789z"/>
    <path fill="none" stroke="#000" stroke-width=".567" d="M482.058 222.835l-33.869-45.483"/>
    <path fill="none" stroke="#000" stroke-width=".283" d="M436.59 199.35l24.232 32.54q1.47 1.975 3.444.505v0q1.975-1.47.504-3.445l-24.23-32.54q-1.47-1.974-3.445-.504v0q-1.974 1.47-.504 3.445zm-114.11 84.973l24.232 32.54q1.47 1.974 3.444.504v0q1.975-1.47.504-3.445l-24.23-32.54q-1.47-1.974-3.445-.503v0q-1.974 1.47-.504 3.444z"/>
    <path fill="none" stroke="#000" stroke-width=".567" d="M300.626 404.946l55.404-41.256m-53.93 42.319l54.963-40.929m-81.152 254.415l21.36-15.905m-70.225 101.428l98.844-73.604m-145.484 12.623l7.513 10.09 65.409-16.88 5.341-4.886 6.046-13.71c-8.955-34.669-15.464-70.021-24.419-104.69l-8.055-6.849-11.108-4.231-11.36.161-38.193 8.549-11.208 19.6zm98.662-254.486a3.51 3.51 0 1 1 4.192 5.63 3.51 3.51 0 0 1-4.192-5.63zm-1.28-1.719a5.653 5.653 0 1 1 6.752 9.07 5.653 5.653 0 0 1-6.752-9.07z"/>
    <path fill-opacity=".392" fill-rule="evenodd" stroke="#000" stroke-width=".567" d="M279.068 389.551a3.51 3.51 0 1 1 4.192 5.63 3.51 3.51 0 0 1-4.192-5.63zm-1.28-1.719a5.653 5.653 0 1 1 6.752 9.07 5.653 5.653 0 0 1-6.752-9.07z"/>
    <path fill="none" stroke="#000" stroke-width=".567" d="M238.45 490.012a4.642 4.642 0 1 1 5.544 7.446 4.642 4.642 0 0 1-5.544-7.446zm-1.693-2.273a7.477 7.477 0 0 1 8.93 11.992 7.477 7.477 0 0 1-8.93-11.992z"/>
    <path fill-opacity=".392" fill-rule="evenodd" stroke="#000" stroke-width=".567" d="M238.45 490.012a4.642 4.642 0 1 1 5.544 7.446 4.642 4.642 0 0 1-5.544-7.446zm-1.693-2.273a7.477 7.477 0 0 1 8.93 11.992 7.477 7.477 0 0 1-8.93-11.992z"/>
    <path fill="none" stroke="#000" stroke-width=".567" d="M249.899 481.35l10.877 7.586 65.957-49.116-24.983-33.55-7.907-4.818-8.633 2.45-44.825 33.38-4.477 8.335 5.17 23.887zm7.122-6.557l6.36 6.403 54.843-40.839-16.771-22.522-13.744-1.359-38.755 28.86-.21 18.342zm-16.474-63.25l12.271 16.48m182.828-41l38.39 14.797 24.874-18.522 3.42 4.592"/>
    <path fill="none" stroke="#000" stroke-width=".283" d="M464.616 365.115a4.695 4.695 0 0 1 6.57.962 4.695 4.695 0 1 1-6.57-.962z"/>
    <path fill="none" stroke="#000" stroke-width=".283" d="M463.346 363.41a6.822 6.822 0 0 1 9.546 1.397 6.822 6.822 0 1 1-9.546-1.398zm19.182 6.89a4.695 4.695 0 0 1 6.57.96 4.695 4.695 0 1 1-6.57-.96z"/>
    <path fill="none" stroke="#000" stroke-width=".283" d="M481.258 368.593a6.822 6.822 0 0 1 9.546 1.397 6.822 6.822 0 1 1-9.546-1.397zm-16.426 14.883a4.695 4.695 0 0 1 6.57.962 4.695 4.695 0 1 1-6.57-.962z"/>
    <path fill="none" stroke="#000" stroke-width=".283" d="M463.562 381.77a6.822 6.822 0 0 1 9.546 1.397 6.822 6.822 0 1 1-9.546-1.397z"/>
    <path fill="none" stroke="#000" stroke-width=".567" d="M498.91 383.298l-8.327-23.147m.001 0l7.433-5.535 17.438 23.5-13.126 9.774-3.42-4.592zm85.777-29.541l6.317 8.482 37.439-27.879-6.317-8.482z"/>
    <path fill="none" stroke="#000" stroke-width=".567" d="M569.966 329.348l10.073 13.528 43.947-32.725-10.073-13.528z"/>
    <path fill="none" stroke="#000" stroke-width=".567" d="M567.083 335.475l4.845 6.508q4.901 6.581 11.483 1.68l44.239-32.943q6.581-4.9 1.68-11.482l-4.845-6.507q-4.901-6.581-11.482-1.68l-44.24 32.942q-6.581 4.901-1.68 11.482z"/>
    <path fill="none" stroke="#000" stroke-width=".567" d="M656.967 279.493l-24.921-33.455-9.611-1.626-117.365 87.396-11.354 17.031m5.677-8.515l32.221 43.27m-27.16-50.861l36.935 49.602m29.936-99.865l18.977 25.485m12.902-9.608l-18.976-25.484m29.875-22.247l37.159 49.901m-27.619-55.9l36.272 48.71m-153.352 42.239l109.873-81.817"/>
    <path fill="none" stroke="#000" stroke-width=".283" d="M650.45 235.47a4.695 4.695 0 0 1 6.57.961 4.695 4.695 0 1 1-6.57-.961z"/>
    <path fill="none" stroke="#000" stroke-width=".283" d="M649.18 233.764a6.822 6.822 0 0 1 9.546 1.397 6.822 6.822 0 1 1-9.546-1.397zm12.051 16.184a4.695 4.695 0 0 1 6.57.962 4.695 4.695 0 1 1-6.57-.962z"/>
    <path fill="none" stroke="#000" stroke-width=".283" d="M659.961 248.243a6.822 6.822 0 0 1 9.546 1.397 6.822 6.822 0 1 1-9.546-1.397z"/>
    <path fill-opacity=".393" fill-rule="evenodd" stroke="#000" stroke-width=".567" d="M249.899 481.35l10.877 7.586 65.957-49.116-24.983-33.55-7.907-4.818-8.633 2.45-44.825 33.38-4.477 8.335 5.17 23.887zm7.122-6.557l6.36 6.403 54.843-40.839-16.771-22.522-13.744-1.359-38.755 28.86-.21 18.342z"/>
    <path fill="none" stroke="#000" stroke-width=".567" d="M104.798 513.989l.724.971q.651.875 1.526.224l13.533-10.077q.875-.652.224-1.527l-.724-.972q-.652-.875-1.527-.223l-13.532 10.077q-.875.652-.224 1.527z"/>
    <path fill="none" stroke="#000" stroke-width=".567" d="M99.398 516.65l17.11-3.279 20.317 4.082 4.728 3.754 12.147 14.939 26.725 124.12 9.693 23.245 11.442 2.847 1.49 2m-22.625-28.093l-3.145 19.227m25.77 8.867l2.084 13.638 2.015 2.706 13.976 4.724m444.733-474.169l14.575 19.725"/>
    <path fill-opacity=".392" stroke="#000" stroke-width=".567" d="M300.626 404.946l55.404-41.256m-53.93 42.319l54.963-40.929m-81.152 254.415l21.36-15.905m-70.225 101.428l98.844-73.604m-145.484 12.623l7.513 10.09 65.409-16.88 5.341-4.886 6.046-13.71c-8.955-34.669-15.464-70.021-24.419-104.69l-8.055-6.849-11.108-4.231-11.36.161-38.193 8.549-11.208 19.6zm98.662-254.486a3.51 3.51 0 1 1 4.192 5.63 3.51 3.51 0 0 1-4.192-5.63zm-1.28-1.719a5.654 5.654 0 1 1 6.752 9.07 5.654 5.654 0 0 1-6.752-9.07z"/>
</svg>
