<?xml version="1.0" encoding="UTF-8" standalone="no"?>
<svg
   xmlns:dc="http://purl.org/dc/elements/1.1/"
   xmlns:cc="http://creativecommons.org/ns#"
   xmlns:rdf="http://www.w3.org/1999/02/22-rdf-syntax-ns#"
   xmlns:svg="http://www.w3.org/2000/svg"
   xmlns="http://www.w3.org/2000/svg"
   xmlns:sodipodi="http://sodipodi.sourceforge.net/DTD/sodipodi-0.dtd"
   xmlns:inkscape="http://www.inkscape.org/namespaces/inkscape"
   inkscape:version="1.0 (4035a4fb49, 2020-05-01)"
   sodipodi:docname="3.svg"
   viewBox="0 0 725.66931 725.66931"
   id="svg4"
   height=""
   width=""
   version="1.1">
  <metadata
     id="metadata10">
    <rdf:RDF>
      <cc:Work
         rdf:about="">
        <dc:format>image/svg+xml</dc:format>
        <dc:type
           rdf:resource="http://purl.org/dc/dcmitype/StillImage" />
        <dc:title></dc:title>
      </cc:Work>
    </rdf:RDF>
  </metadata>
  <defs
     id="defs8" />
  <sodipodi:namedview
     inkscape:current-layer="svg4"
     inkscape:window-maximized="0"
     inkscape:window-y="0"
     inkscape:window-x="0"
     inkscape:cy="362.83466"
     inkscape:cx="362.83466"
     inkscape:zoom="0.79650605"
     showgrid="false"
     id="namedview6"
     inkscape:window-height="480"
     inkscape:window-width="820"
     inkscape:pageshadow="2"
     inkscape:pageopacity="0"
     guidetolerance="10"
     gridtolerance="10"
     objecttolerance="10"
     borderopacity="1"
     bordercolor="#666666"
     pagecolor="#ffffff" />
  <path
     id="path2"
     style="fill:#ffffff;fill-rule:evenodd;stroke:#000000;stroke-width:2.9999;stroke-linecap:butt;stroke-linejoin:miter;stroke-dasharray:none"
     d="m 173.7116,252.7787 22.7841,-2.0478 c 1.0666,9.216 3.5841,16.7678 7.552,22.6985 3.968,5.8881 10.112,10.6667 18.432,14.3362 8.32,3.6266 17.7066,5.4612 28.1172,5.4612 9.2588,0 17.4081,-1.3654 24.4907,-4.1386 7.0827,-2.7734 12.3307,-6.5707 15.7867,-11.3921 3.456,-4.8212 5.2053,-10.0693 5.2053,-15.7014 0,-5.7172 -1.6639,-10.7093 -4.9921,-15.0185 -3.3279,-4.2668 -8.8319,-7.8506 -16.5118,-10.7947 -4.9068,-1.8773 -15.7867,-4.8639 -32.6401,-8.9175 -16.8534,-4.0532 -28.6294,-7.8505 -35.3707,-11.4346 -8.7466,-4.608 -15.232,-10.3252 -19.4987,-17.1091 -4.3092,-6.7842 -6.4426,-14.4216 -6.4426,-22.8269 0,-9.3013 2.6453,-17.9625 7.8934,-25.984 5.248,-8.064 12.8854,-14.1653 22.9972,-18.3467 10.0695,-4.1811 21.2907,-6.2719 33.6214,-6.2719 13.5681,0 25.5575,2.1761 35.9255,6.5707 10.368,4.352 18.3466,10.7946 23.936,19.328 5.5891,8.4906 8.5759,18.1332 9.0026,28.8853 l -23.296,1.7921 c -1.2373,-11.5628 -5.4615,-20.3094 -12.672,-26.1975 -7.2108,-5.9307 -17.8773,-8.8744 -31.9575,-8.8744 -14.6773,0 -25.3865,2.6878 -32.0851,8.064 -6.6988,5.3759 -10.0695,11.8613 -10.0695,19.4558 0,6.5707 2.3893,11.9895 7.1254,16.2562 4.6934,4.2239 16.8534,8.6184 36.5653,13.0558 19.7121,4.4801 33.2373,8.3627 40.5759,11.6906 10.624,4.9068 18.5174,11.0934 23.5948,18.6455 5.0774,7.5092 7.5946,16.1705 7.5946,25.984 0,9.7705 -2.7732,18.9012 -8.3625,27.5199 -5.5894,8.6187 -13.5681,15.3173 -24.0214,20.0959 -10.4533,4.7787 -22.1868,7.168 -35.2854,7.168 -16.5546,0 -30.4214,-2.4318 -41.6001,-7.2533 -11.2212,-4.8211 -19.9678,-12.0747 -26.3253,-21.8027 -6.3998,-9.6851 -9.728,-20.6506 -10.0693,-32.896 z m 266.4961,15.872 23.296,3.0722 c -3.6267,13.5252 -10.4108,24.0639 -20.3094,31.5306 -9.8986,7.4668 -22.5281,11.2212 -37.9307,11.2212 -19.3705,0 -34.7306,-5.9731 -46.08,-17.92 -11.3493,-11.9038 -17.024,-28.6719 -17.024,-50.2186 0,-22.2718 5.7175,-39.5946 17.1947,-51.8825 11.4774,-12.3307 26.3678,-18.4748 44.672,-18.4748 17.7066,0 32.1707,6.0159 43.3919,18.0907 11.2215,12.0747 16.8534,29.0559 16.8534,50.9439 0,1.3227 -0.0425,3.3282 -0.1281,5.9735 h -98.9439 c 0.8532,14.5494 4.9493,25.7278 12.3732,33.4505 7.3814,7.7227 16.6402,11.6053 27.6908,11.6053 8.2347,0 15.2748,-2.1758 21.0773,-6.5279 5.8453,-4.352 10.4533,-11.3068 13.8668,-20.8641 z m -73.728,-36.0958 h 73.984 c -0.9814,-11.1787 -3.8401,-19.5415 -8.4906,-25.1308 -7.1255,-8.6613 -16.4268,-13.0133 -27.819,-13.0133 -10.3252,0 -18.9864,3.456 -26.0265,10.368 -6.9974,6.912 -10.88,16.1708 -11.6479,27.7761 z m 174.3786,59.008 3.0719,19.8825 c -6.3147,1.3226 -11.9894,2.0055 -16.9387,2.0055 -8.1493,0 -14.464,-1.2802 -18.9867,-3.8826 -4.4799,-2.6028 -7.6374,-5.9735 -9.472,-10.1974 -1.8346,-4.2242 -2.7306,-13.0989 -2.7306,-26.6241 v -76.544 h -16.6399 v -17.4081 h 16.6399 v -32.8533 l 22.5281,-13.5252 v 46.3785 h 22.528 v 17.4081 h -22.528 v 77.8241 c 0,6.4426 0.3838,10.5812 1.1945,12.416 0.7682,1.8346 2.048,3.2851 3.8401,4.3946 1.792,1.0667 4.352,1.6214 7.6799,1.6214 2.4746,0 5.76,-0.2988 9.8135,-0.896 z M 82.0213,597.6533 V 414.3574 h 69.2053 c 12.1598,0 21.4611,0.5973 27.904,1.7493 9.0026,1.4933 16.5546,4.352 22.6559,8.5334 6.1013,4.2239 11.0081,10.1118 14.7201,17.6638 3.7119,7.5521 5.5465,15.8721 5.5465,24.9599 0,15.5308 -4.9493,28.7147 -14.8907,39.4668 -9.8986,10.7946 -27.8611,16.1708 -53.8027,16.1708 h -47.0185 v 74.7519 z m 24.3199,-96.2561 h 47.3601 c 15.7011,0 26.7945,-2.9012 33.408,-8.7466 6.5704,-5.8453 9.8558,-14.0374 9.8558,-24.6614 0,-7.6374 -1.9199,-14.2078 -5.8025,-19.6693 -3.8827,-5.4612 -9.0029,-9.0879 -15.3173,-10.8371 -4.0961,-1.0667 -11.6482,-1.6214 -22.6134,-1.6214 h -46.8907 z m 135.1681,29.8242 c 0,-24.5333 6.8266,-42.7093 20.5225,-54.5281 11.3919,-9.8133 25.344,-14.72 41.7708,-14.72 18.2185,0 33.152,5.9734 44.7573,17.92 11.5626,11.9041 17.3654,28.4159 17.3654,49.4507 0,17.0666 -2.5603,30.4639 -7.6802,40.2347 -5.12,9.7707 -12.5867,17.3653 -22.4,22.784 -9.7707,5.4187 -20.48,8.1065 -32.0425,8.1065 -18.6027,0 -33.6215,-5.9306 -45.0987,-17.8347 -11.4774,-11.9038 -17.1946,-29.056 -17.1946,-51.4131 z m 23.04,0.0425 c 0,16.9815 3.7119,29.696 11.1359,38.1013 7.4667,8.4481 16.8105,12.672 28.1174,12.672 11.1787,0 20.48,-4.2239 27.9465,-12.7145 7.4239,-8.4906 11.1362,-21.4189 11.1362,-38.7842 0,-16.3839 -3.7548,-28.8 -11.2216,-37.2053 -7.4664,-8.4478 -16.768,-12.672 -27.8611,-12.672 -11.3069,0 -20.6507,4.1814 -28.1174,12.5867 -7.424,8.4053 -11.1359,21.0773 -11.1359,38.016 z m 127.7864,-91.3065 v -25.6 h 22.528 v 25.6 z m 0,157.6959 V 464.7892 h 22.528 v 132.8641 z m 56.8746,0 V 464.7892 h 20.224 v 18.8589 c 9.728,-14.4641 23.8079,-21.6748 42.1974,-21.6748 8.0212,0 15.3601,1.4507 22.0587,4.3095 6.6985,2.8584 11.7334,6.6557 15.0613,11.3065 3.3279,4.6505 5.6747,10.1974 6.9973,16.5974 0.8107,4.1811 1.2373,11.4772 1.2373,21.888 v 81.5786 h -22.528 V 516.928 c 0,-9.1732 -0.8533,-16.0427 -2.6025,-20.5654 -1.7496,-4.5227 -4.864,-8.1493 -9.3013,-10.8799 -4.4374,-2.6881 -9.6855,-4.0533 -15.6589,-4.0533 -9.5573,0 -17.7919,3.0291 -24.7465,9.1307 -6.9548,6.0585 -10.4108,17.6213 -10.4108,34.6025 v 72.4907 z m 191.2748,-20.0959 3.0719,19.8824 c -6.3148,1.3227 -11.9894,2.0056 -16.9387,2.0056 -8.1494,0 -14.4641,-1.2802 -18.9868,-3.8827 -4.4798,-2.6027 -7.6374,-5.9734 -9.4719,-10.1973 -1.8346,-4.2242 -2.7307,-13.0989 -2.7307,-26.6241 v -76.544 H 578.789 v -17.4081 h 16.6399 v -32.8533 l 22.5281,-13.5252 v 46.3785 h 22.5281 v 17.4081 H 617.957 v 77.8241 c 0,6.4426 0.3838,10.5812 1.1945,12.416 0.7682,1.8346 2.0481,3.2851 3.8401,4.3946 1.7921,1.0666 4.3521,1.6214 7.6799,1.6214 2.4747,0 5.76,-0.2988 9.8136,-0.896 z" />
</svg>
