<svg xmlns="http://www.w3.org/2000/svg" viewBox="0 0 725.669 725.669">
    <path fill="#ff2a2a" fill-rule="evenodd" d="M250.248 206.74l10.805 75.163c-3.25 7.88-11.31 14.28-24.96 18.96 1.452 35.13 36.651 55.393 96.503 70.523l9.657 4.056c-1.633 60.52-19.75 139.614-68.081 170.468-24.926 15.911-68.584 21.887-96.54 10.672-22.988-9.222-49.473-31.887-51.27-58.836v-5.822c2.053-30.292 40.08-63.7 64.596-40.73 11.53 10.803 6.327 14.86 6.327 29.892-5.589-4.095-1.38-5.456-4.921-13.188-1.56-3.404-5.692-8.038-8.617-9.516-11.61-5.867-19.398 2.323-22.943 10.365-12.581 28.539 6.57 57.4 45.78 26.168 28.272-22.519 26.157-45.509 19.76-77.603-15.046-75.48-58.464-109.301-77.977-205.741-12.727-62.901 2.6-121.178 48.259-156.738 13.593-10.587 26.836-20.445 44.198-26.728 34.111-12.344 87.131-18.579 124.099-15.01 29.796 2.878 72.699 13.375 97.077 28.18 3.45 2.094 7.1 4.075 10.727 5.162l-3.715 8.986-6.256 29.226c-48.865-10.985-56.433-13.683-107.241-6.81l-3.162.32-40.077 17.986-41.821 40.75z"/>
    <path fill="#ff2a2a" fill-rule="evenodd" d="M472.727 46.438l-3.714 8.985-6.257 29.226c-7.468-1.455-15.922-5.529-24.368-7.567-9.504-2.294-17.094-3.06-27.047-3.991l-2.727-.112c-20.556.418-33.535 1.197-53.1 4.86l-3.16.32c-5.308 3.098-15.028 5.222-21.57 8.19-6.596 2.994-13.112 6.357-18.508 9.796l-3.525 1.357c-3.231 3.802-7.825 6.141-11.703 9.49-4.845 4.183-6.506 6.05-10.778 9.29-2.119 3.518-.32 2.09-4.544 4.72-5.225 10.436-12.088 13.156-20.732 32.924-5.068 11.591-8.836 28.611-10.102 42.261-1.592 17.17-.378 32.936 1.984 49.458 3.275 22.906 10.593 34.367 3.329 40.726-11.55 10.11-29.95 5.6-22.892 27.379 11.823 36.483 58.799 56.654 100.184 60.636l8.756 1.056c20.473 0 57.977-5.277 70.817-12.073-.336 15.087-4.362 23.552-4.547 55.86-.05 8.851 1.372 12.811 1.53 19.258l7.66-12.138c-1.973-14.592.221-61.286 7.073-70.056-10.642 1.33-23.607 5.6-35.48 7.715-33.031 5.885-66.63 6.305-97.781-7.285-10.585-4.618-19.157-11.475-29.56-17.263-8.495-7.982-23.249-19.084-21.064-36.905 19.372-13.426 28.736-8.55 24.321-29.875-7.402-35.752-10.41-70.549-.835-106.112 10.707-39.761 52.285-70.67 94.646-80.708 16.304-3.863 36.164-5.32 53.897-4.223 20.536 1.271 30.492 6.138 47.456 11.371.516 9.39-1.487 20.416 2.481 28.287 3.75-10.177-.067-33.422 16.792-68.548 3.96-8.254 7.934-12.937 11.315-18.9 20.837 2.484 45.87 50.223 51.42 75.05 8.22 36.779.736 81.18-15.55 106.065 3.711-2.76 1.34-1.443 5.747-3.049 1.48-2.157 6.487-8.346 8.869-10.728l9.14-31.427 2.806-13.864c0-38.1.197-62.01-21.403-95.597-6.168-9.592-33.26-47.571-46.784-32.294-1.626 1.837-4.765 6.346-6.38 8.739-2.668 3.956-3.162 6.034-6.112 9.696z"/>
    <path fill="#ff2a2a" fill-rule="evenodd" d="M549.25 157.608l-14.014 47.484c-.548 1.855-2.095 6.02-2.646 6.821-10.99 76.506-45.61 111.83-81.687 166.66l-33.19 47.776-7.66 12.138c-13.897 23.802-32.034 57.734-37.91 86.181-6.574 31.828-8.725 78.704 3.821 109.738 11.387 28.167 31.414 47.357 57.793 61.45 5.547 2.963 11.494 5.588 17.84 7.836 14.53 5.15 29.918 8.17 46.654 6.517l12.524-3.24c61.7-25.785 39.94-99.038 6.157-69.035 41.611-6.923 23.098 48.77-7.667 32.755-23.39-8.832-26.676-31.727-19.38-61.456 6.866-27.97 17.52-40.022 29.623-63.47 4.063-8.782 9.144-17.262 13.842-25.877 4.86-8.91 8.432-17.162 12.723-26.512 7.218-15.73 16.991-41.389 20.941-59.572l.822-1.806c6.274-30.394 13.212-59.74 14.972-91.746.718-18.712 2.787-43.839.15-62.277l-9.046-55.848c-1.644-10.328-16.99-61.119-20.506-66.231z"/>
    <path fill="#fff" fill-opacity=".2" fill-rule="evenodd" d="M543.5 664.332c-2.08 6.932-19.666 23.316-40.631 13.759-53.455-24.37-5.524-104.34 9.633-135.29 14.945-30.517 26.776-55.312 37.795-90.535 7.435-23.768 22.301-82.395 20.88-108.162-11.04 18.593-12.413 27.547-30.506 54.823-35.372 53.325-82.41 90.835-110.115 150.933-9.268 20.104-17.318 41.9-18.54 67.067-1.144 23.541 6.34 53.89 18.341 68.738 8.45 10.454 48.862 20.428 67.002 18.389 23.627-2.656 41.66-19.108 46.141-39.722z"/>
    <path fill="#fff" fill-opacity=".2" fill-rule="evenodd" d="M424.418 682.905c-8.017-18.876-15.184-29.332-15.866-55.36-1.581-60.313 36.01-113.05 68.155-153.75 35.495-44.941 63.814-68.651 90.507-129.819 5.468-12.53 5.913-14.989 6.278-30.407.265-11.157 1.76-28.037-1.978-36.983-5.398 12.044-2.47 31.66-17.879 62.856-9.527 19.29-19.1 34.507-30.668 49.331-12.447 15.95-25.4 28.303-39.094 40.89-18.477 16.986-40.747 42.663-56.819 62.39-31.08 38.148-58.987 98.1-38.373 147.775 7.218 17.395 22.425 36.807 35.737 43.077z"/>
    <path fill="#fff" fill-opacity=".2" fill-rule="evenodd" d="M541.46 201.185c3.129 116.055-173.736 242.292-162.135 387.952-2.3-28.927 30.505-81.693 49.396-104.47 23.14-27.901 50.374-55.913 76.342-80.62 24.33-23.148 48.695-64.22 57.139-98.316 8.96-36.178 4.119-109.706-11.602-135.973zM333.497 374.386c-41.385-3.982-88.36-24.153-100.184-60.636-7.058-21.78 11.342-17.27 22.892-27.38 7.264-6.358-.054-17.82-3.329-40.725-2.362-16.522-3.576-32.289-1.984-49.458 1.266-13.65 5.034-30.67 10.102-42.261 8.643-19.768 15.507-22.488 20.732-32.924-42.606-16.999-83.938-2.57-98.218 41.481-22.453 69.262 48.992 156.54 80.446 221.774 18.6 38.575 31.33 66.605 36.117 108.646l3.041 8.553c4.63-15.684 12.246-22.023 20.884-58.06 5.354-22.336 7.624-45.484 9.5-69.01z"/>
    <path fill="#fff" fill-opacity=".2" fill-rule="evenodd" d="M286.27 116.281c4.273-3.24 5.933-5.106 10.779-9.29 3.877-3.348 8.47-5.687 11.702-9.489-12.176-10.493-52.59-22.114-73.712-22.434-25.24-.383-55.668 6.41-67.324 29.314-25.737 50.57-13.35 110.904 5.503 160.784 18.282 48.374 43.37 82.74 58.397 134.818 13.354 46.273 33.65 83.318 6.18 135.197-3.158 5.964-7.39 10.93-9.288 16.72 28.973-3.479 48.567-18.213 61.123-32.83 5.703-6.64 5.703-5.764 5.369-16.848a154.611 154.611 0 0 0-2.165-21.743c-9.862-57.657-45.576-117.187-72.437-162.871-20.27-34.475-51.957-88.847-46.15-140.384 3.047-27.042 18.905-48.99 34.925-58.544 27.116-16.172 48.254-11.254 77.098-2.4z"/>
    <path fill="#fff" fill-opacity=".2" fill-rule="evenodd" d="M166.421 450.838c-15.297 2.854-42.44 29.036-26.248 60.192 11.729 22.57 47.585 45.904 80.014 41.337 10.19-1.55 4.01 1.602 12.436-13.282 14.136-24.579 18.823-49.856 14.004-78.623-2.363-14.1-8.876-27.242-10.668-36.012 1.269 21.522 3 34.784-6.457 54.155-14.706 30.124-61.607 56.054-75.891 22.034-10.255-24.423 9.7-44.605 12.81-49.801zM312.276 96.145c5.396-3.44 11.912-6.802 18.507-9.795 6.543-2.97 16.263-5.093 21.57-8.191-13.26-15.374-16.535-20.836-35.097-32.495-35.874-22.533-68.595-16.772-102.08 6.599-5.722 3.994-15.861 11.263-19.535 15.2l-15.547 17.522c15.183-3.45 30.068-17.918 69.084-12.077 19.86 2.974 51.176 12.726 63.098 23.237z"/>
    <path fill="#fff" fill-opacity=".2" fill-rule="evenodd" d="M355.515 77.84c19.564-3.664 32.543-4.443 53.1-4.86-1.99-13.158-4.762-30.759-12.034-41.724-3.617-5.453-4.172-5.47-12.497-6.408 3.78 8.762 12.289 21.98 14.424 36.087.343 2.265 2.034 12.243 2.001 12.244l-1.905.06c-.446.015-1.414-5.49-1.958-7.922-1.452-6.493-2.544-15.46-8.445-27.222-7.735-15.422-9.028-15.074-28.502-16.434-17.894-1.25-67.227.238-81.982 6.666 12.514 5.566 33.485 2.378 63.09 31.534 3.444 3.392 12.157 13.471 14.708 17.979z"/>
    <path fill="#fff" fill-opacity=".2" fill-rule="evenodd" d="M411.341 73.09c9.953.932 17.543 1.697 27.047 3.992 8.446 2.039 16.9 6.112 24.368 7.567l6.257-29.226C450.64 44.034 421.93 32.15 398.377 27.51c4.962 15.241 11.974 24.01 12.964 45.58z"/>
    <path fill-opacity=".2" fill-rule="evenodd" d="M472.727 46.438l-3.714 8.985-6.257 29.226c-7.468-1.455-15.922-5.529-24.368-7.567-9.504-2.294-17.094-3.06-27.047-3.991l-2.727-.112c-20.556.418-33.535 1.197-53.1 4.86-4.369.442-20.537 6.608-24.73 8.51-12.37 5.614-23.42 11.735-33.735 20.642-13.52 11.674-29.03 30.87-36.055 46.935-5.068 11.591-8.836 28.611-10.102 42.261-1.592 17.17-.379 32.936 1.984 49.458 3.275 22.906 10.593 34.367 3.329 40.726-11.55 10.11-29.95 5.6-22.892 27.379 11.823 36.483 58.799 56.654 100.184 60.636l8.756 1.056c20.473 0 57.977-5.277 70.817-12.073-.336 15.087-4.362 23.552-4.547 55.86-.05 8.851 1.372 12.811 1.53 19.258l7.66-12.138c-1.973-14.592.221-61.286 7.073-70.056-10.642 1.33-23.608 5.6-35.48 7.715-33.031 5.885-66.63 6.305-97.782-7.285-10.584-4.618-19.156-11.475-29.56-17.263-8.494-7.982-23.248-19.084-21.063-36.905 19.372-13.426 28.736-8.55 24.321-29.875-7.402-35.752-10.41-70.549-.835-106.112 10.707-39.761 52.285-70.67 94.646-80.708 16.304-3.863 36.164-5.32 53.897-4.223 20.536 1.271 30.492 6.138 47.456 11.371.516 9.39-1.487 20.416 2.481 28.287 3.75-10.177-.067-33.422 16.792-68.548 3.96-8.254 7.934-12.937 11.315-18.9 20.837 2.484 45.87 50.223 51.42 75.05 8.22 36.779.736 81.18-15.55 106.065 3.711-2.76 1.34-1.443 5.747-3.049 12.618-18.388 11.619-20.184 18.01-42.155l2.805-13.864c0-38.1.197-62.01-21.403-95.597-6.168-9.592-33.26-47.571-46.784-32.294-1.626 1.837-4.765 6.346-6.38 8.739-2.668 3.956-3.162 6.034-6.112 9.696z"/>
</svg>
