<svg xmlns="http://www.w3.org/2000/svg" viewBox="0 0 725.669 725.669">
    <path fill="#ff2a2a" fill-rule="evenodd" d="M261.892 359.983l-1.775-13.094c-6.439-77.88 8.881-102.002 31.525-134.856C345.53 133.847 469.688 132.3 521.97 157.84l17.58-49.712 4.502-9.838c-5.777-1.697-37.34-25.465-44.594-29.823-33.714-20.26-66.865-36.849-108.589-40.935-10.874-1.064-24.463-2.871-34.448-1.378L321.99 31c0 11.934 5.177 22.031 9.345 29.908-6.029-1.61-42.758-25.645-53.962-25.561-3.626.027-26.767 7.126-31.752 8.997-18.799 7.055-53.514 21.503-68.85 33.947-43.503 35.301-47.777 54.427-70.505 92.108-15.042 24.939-54.33 126.885-25.478 141.09 7.514 3.698 29.856.988 36.678 1.247 16.508.63 23.207 1.201 36.317 4.255-6.204 11.725-9.825 18.584-20.504 26.225-17.673 12.645-40.865 11.552-39.47 33.477.438 6.876 4.493 12.11 8.142 16.438 7.434 8.816 18.049 13.963 30.525 18.07 25.119 8.268 59.26 9.588 82.413-1.317 5.98-2.817 10.097-5.388 14.972-9.326 15.97-16.873 19.689-24.246 32.03-40.574z"/>
    <path fill="#ff2a2a" fill-rule="evenodd" d="M341.136 168.01l56.029-20.716c-7.81-18.704-39.733-39.633-57.617-49.733-23.779-13.43-45.204-23.407-74.715-31.666-21.905-6.13-19.834-8.631-39.55-.73-14.545 5.829-24.985 10.543-35.789 18.4-13.63 9.911-43.976 40.738-50.185 55.85 80.41-10.39 127.294-1.048 201.827 28.596zM260.117 346.889c-4.078-37.244-2.347-74.671 13.28-108.324 5.365-11.552 11.507-17.524 16.162-26.295-17.594-20.332-105.478-21.192-132.729-5.564 66.29 26.508 84.72 85.112 98.085 149.444z"/>
    <path fill="#ff2a2a" fill-rule="evenodd" d="M226.313 348.785c8.759 15.81 4.38 25.477-1.228 41.43 19.083-7.365 17.535-25.345 13.944-49.473-10.24-68.811-79.078-95.049-118.767-106.226-19.876 18.353-37.032 43.661-33.427 65.723 43.713-.392 116.42 6.924 139.478 48.546zM418.788 144.05l36.017-.893c-.089-18.386-1.617-66.754-15.202-89.631-9.28-11.79-70.143-15.716-89.193-14.385 25.178 16.96 60.024 63.257 68.378 104.908zM495.676 148.968c9.712 2.612 17.48 6.19 26.295 8.873l17.323-49.688c-10.168-2.582-37.948-28.191-58.145-37.194-2.01 11.762-2.019 26.438-3.687 39.1l-2.758 17.46c-4.454 26.245-11.477 12.719 20.972 21.449z"/>
    <path fill="#ff2a2a" fill-rule="evenodd" d="M298.743 202.693l12.288-13.048c-68.056-21.578-116.375-31.754-189.849-8.034-10.886 3.515-5.84.516-15.103 20.371-5.107 10.947-16.655 39.605-17.247 52.664 18.837-30.821 32.222-49.662 73.066-64.192 49.609-17.647 90.078-3.83 136.845 12.239z"/>
    <path fill="#ff2a2a" fill-rule="evenodd" d="M315.327 185.812l20.611-14.806c-64.67-27.987-128.313-38.979-200.657-25.959-3.165 3.91-15.921 26.631-16.925 31.31 60.543-20.476 127.03-17.098 196.971 9.455zM243.36 372.672l9.698-14.207c-14.596-84.364-47.805-130.751-99.685-149.415-11.422 5.528-24.895 15.164-29.314 22.342 87.957 27.122 122.8 76.258 119.302 141.28zM248.877 57.215c38.523 9.531 64.133 19.282 96.493 38.257 10.308 6.044 17.371 12.513 27.166 18.235-9.752-20.768-59.593-53.268-84.51-63.718-11.545-4.842-30.438.83-39.148 7.226zM456.984 143.322l11.003.85c3.53-22.894 9.404-51.073 7.825-75.789-7.297-6.735-19.932-11.183-30.303-14.408 8.025 28.566 13.693 58.243 11.475 89.347zM191.163 377.15l-11.104 30.947c27.206-5.583 38.53-15.568 41.598-32.895 2.22-12.537-9.901-25.364-10.394-25.12-13.659 6.78-25.73 16.523-20.1 27.068l-11.104 30.947c-23.188-.45-52.33-2.301-67.62-16.093-9.188-8.288-12.768-17.71-1.576-26.373 9.07-7.02 22.549-5.91 35.332-3.65-3.795 7.8-11.16 9.72-23.192 10.027 18.227 26.973 60.305 32.485 68.16 5.142z"/>
    <path fill="#ff2a2a" fill-rule="evenodd" d="M181.818 369.493c4.687-6.213 3.73-8.256 10.31-14.181 5.095-4.589 8.864-5.749 14.22-10.283-1.406-2.063-.525-.922-2.695-3.092l-15.992-12.083c-6.979-3.692-15.97-8.084-24.533-9.972-4.295 6.342-6.27 13.33-11.346 19.399-3.527 4.217-12.007 11.018-13.931 13.956 25.904 1.866 27.937 6.9 43.967 16.256z"/>
    <path fill="#fff" fill-opacity=".2" fill-rule="evenodd" d="M341.136 168.01l56.029-20.716c-7.81-18.704-39.733-39.633-57.617-49.733-23.779-13.43-45.204-23.407-74.715-31.666-21.905-6.13-19.834-8.631-39.55-.73-14.545 5.829-24.985 10.543-35.789 18.4-13.63 9.911-43.976 40.738-50.185 55.85 80.41-10.39 127.294-1.048 201.827 28.596zM260.117 346.889c-4.078-37.244-2.347-74.671 13.28-108.324 5.365-11.552 11.507-17.524 16.162-26.295-17.594-20.332-105.478-21.192-132.729-5.564 66.29 26.508 84.72 85.112 98.085 149.444z"/>
    <path fill="#fff" fill-opacity=".2" fill-rule="evenodd" d="M226.313 348.785c8.759 15.81 4.38 25.477-1.228 41.43 19.083-7.365 17.535-25.345 13.944-49.473-10.24-68.811-79.078-95.049-118.767-106.226-19.876 18.353-37.032 43.661-33.427 65.723 43.713-.392 116.42 6.924 139.478 48.546zM418.788 144.05l36.017-.893c-.089-18.386-1.617-66.754-15.202-89.631-9.28-11.79-70.143-15.716-89.193-14.385 25.178 16.96 60.024 63.257 68.378 104.908zM494.904 150.667c9.712 2.612 18.252 4.492 27.067 7.174l17.54-49.63c-10.168-2.582-38.165-28.25-58.362-37.252-2.01 11.762-2.019 26.438-3.687 39.1l-2.758 17.46c-4.454 26.245-12.25 14.418 20.2 23.148z"/>
    <path fill="#fff" fill-opacity=".2" fill-rule="evenodd" d="M298.743 202.693l12.288-13.048c-68.056-21.578-116.375-31.754-189.849-8.034-10.886 3.515-5.84.516-15.103 20.371-5.107 10.947-16.655 39.605-17.247 52.664 18.837-30.821 32.222-49.662 73.066-64.192 49.609-17.647 90.078-3.83 136.845 12.239z"/>
    <path fill="#fff" fill-opacity=".2" fill-rule="evenodd" d="M315.327 185.812l20.611-14.806c-64.67-27.987-128.313-38.979-200.657-25.959-3.165 3.91-15.921 26.631-16.925 31.31 60.543-20.476 127.03-17.098 196.971 9.455zM243.36 372.672l9.698-14.207c-14.596-84.364-47.805-130.751-99.685-149.415-11.422 5.528-24.895 15.164-29.314 22.342 87.957 27.122 122.8 76.258 119.302 141.28zM248.877 57.215c38.523 9.531 64.133 19.282 96.493 38.257 10.308 6.044 17.371 12.513 27.166 18.235-9.752-20.768-59.593-53.268-84.51-63.718-11.545-4.842-30.438.83-39.148 7.226zM456.984 143.322l11.003.85c3.53-22.894 9.404-51.073 7.825-75.789-7.297-6.735-19.932-11.183-30.303-14.408 8.025 28.566 13.693 58.243 11.475 89.347zM191.163 377.15l-11.104 30.947c27.206-5.583 38.53-15.568 41.598-32.895 2.22-12.537-9.901-25.364-10.394-25.12-13.659 6.78-25.73 16.523-20.1 27.068l-11.104 30.947c-23.188-.45-52.33-2.301-67.62-16.093-9.188-8.288-12.768-17.71-1.576-26.373 9.07-7.02 22.549-5.91 35.332-3.65-3.795 7.8-11.16 9.72-23.192 10.027 18.227 26.973 60.305 32.485 68.16 5.142z"/>
    <path fill="#fff" fill-opacity=".2" fill-rule="evenodd" d="M181.818 369.493c4.687-6.213 3.73-8.256 10.31-14.181 5.095-4.589 8.864-5.749 14.22-10.283-1.406-2.063-.525-.922-2.695-3.092l-15.992-12.083c-6.979-3.692-15.97-8.084-24.533-9.972-4.295 6.342-6.27 13.33-11.346 19.399-3.527 4.217-12.007 11.018-13.931 13.956 25.904 1.866 27.937 6.9 43.967 16.256z"/>
    <path fill="#ff2a2a" fill-rule="evenodd" d="M634.2 206.554l-7.079 74.748-1.113 2.324-10.378 25.692c-2.609-.114-6.247 9.712-8.6 20.785-3.704 17.43 1.29 27.859.975 30.24l-.19 6.844-1.4 63.817c-13.694 8.663-26.709 19.694-40.213 29.288-28.682 20.376-65.217 50.332-82.086 80.53-29.551 52.902 12.217 41.323 36.469 104.616 4.938 12.887 6.53 37.916 10.73 45.524 22.666 12.882 60.574 19.648 89.91 14.826 26.48-4.353 62.86-19.91 72.887-36.755l-.96-35.592c-1.288-20.774-6.792-45.042-13.432-62.932-3.81-10.268-8.792-18.003-11.997-25.605-2.578-6.117 3.496-20.43 7.216-26.902 24.045-58.334 34.72-127.156 15.48-188.168-7.97-25.274-12.056-51.354-22.12-75.077-7.102-16.74-24.296-53.806-35.835-63.005z"/>
    <path fill="#ff2a2a" fill-rule="evenodd" d="M273.398 238.565c-15.628 33.653-17.36 71.08-13.28 108.324l1.774 13.094c1.061 17.505 7.768 27.739 7.768 44.861l-31.038 15.694c-17.382 15.554 15.15 55.737 36.956 69.979 55.867 36.488 114.16 29.528 175.372 15.265-.438 5.264-2.114 11.531-2.99 17.573-9.868 68.152 4.542 144.077 56.062 193.054l6.734-12.591c-22.42-15.298-42.017-49.157-49.71-88.533-4.178-21.395-5.691-42.448-4.634-64.662l5.715-46.649c2.255-6.5 4.89-5.984 8.476-9.765-34.235 5.837-58.078 14.512-96.287 13.963-32.398-.466-62.636-9.206-85.485-23.322l-9.827-6.417c-8.251-5.48-40.191-30.898-32.117-49.013 3.096-6.294 10.524-7.564 21.774-14.362 28.3-17.101-13.914-47.336 5.258-146.141 12.542-72.295 102.153-119.347 167.686-115.299 15.239-.099 29.1.944 43.657 3.827 14.366 2.844 23.704 8.168 35.266 11.45-.958 16.21-.941 20.915 1.828 36.328 4.524-9.985 10.049-91.162 38.863-109.242 19.078 7.155 38.032 38.41 48.5 60.358 13.562 28.433 17.157 56.484 14.013 91.586-1.438 16.063-4.537 31.414-9.158 45.716-8.973 27.776-11.593 10.322-14.402 39.993-2.892 30.563-5.955 73.102-3.69 103.654l9.933-6.284 1.59-70.661c.92-12.749.477-38.414 6.436-48.658l1.19-2.367c4.114-9.303 6.413-14.223 10.377-25.692l1.113-2.324c6.086-31.6 7.838-39.577 7.08-74.748l-1.737-14.802c-1.476-31.634-29.575-80.295-56.503-100.73-18.246-13.847-20.768-6.84-31.909 7.269-11.202 23.22-13.881 36.823-22.082 59.55-8.814-2.683-16.582-6.26-26.294-8.873-11.063-2.977-27.228-6.242-38.692-5.646l-38.197.727-21.622 3.245c-51.113 10.71-101.29 42.866-123.767 91.271z"/>
    <path fill="#fff" fill-opacity=".2" fill-rule="evenodd" d="M627.121 281.302c20.215 16.832 32.194 39.842 42.498 64.108 7.14-16.45-4.439-58.23-9.957-74.57-5.826-17.253-15.325-37.01-25.3-52.433.76 35.17-1.156 31.295-7.24 62.895zM518.774 584.51c52.846-.37 54.852-1.293 95.69-37.567l-7.246-5.184c-68.843 87.237-70.683-27.773 34.366-34.928 6.108 5.248 9.65 12.433 14.106 20.048 4.007-3.513 4.332-5.509 6.46-12.145 11.244-35.083 20.423-65.184 23.336-103.105-68.091 26.057-158.976 106.14-166.712 172.881zM538.776 662.718c46.904-5.998 95.28-27.416 118.831-66.18 8.55-14.072 16.287-24.294 4.813-39.916-13.415 24.241-27.626 36.842-57.591 46.953-31.222 10.533-57.767 10.12-92.172 6.845 1.739 4.927 17.093 29.014 26.119 52.298z"/>
    <path fill="#fff" fill-opacity=".2" fill-rule="evenodd" d="M594.86 674.562c32.567 0 67.295-12.539 88.066-28.587 2.156-17.385-4.02-53.183-11.438-65.955-17.972 21.578-18.9 50.627-83.237 74.18-11.526 4.22-31.53 7.052-40.485 12.336 10.694 7.226 31.968 8.026 47.094 8.026zM497.014 588.085c4.17 8.71 8.322 16.88 19.415 18.789 42.67 7.346 109.84-3.186 134.842-39.099 12.52-17.983 9.439-16.315-.63-35.482l-8.175-10.446c-6.311 26.023-31.278 46.744-53.564 58.38-32.346 16.888-55.211 17.63-91.888 7.858z"/>
    <path fill="#fff" fill-opacity=".2" fill-rule="evenodd" d="M594.86 695.697c18.228 0 37.574-3.691 53.657-9.156 36.661-12.457 35.613-18.979 35.3-34.656-5.856 1.205-27.494 14.003-38.826 17.97-41.822 14.644-66.255 8.09-103.236.333 2.566 16.568 1.653 16.358 17.38 20.876 12.162 3.494 22.553 4.633 35.725 4.633zM615.63 309.318c13.444 7.629 29.25 64.415 33.817 78.043 23.245-24.99 19.224-36.002 10.095-54.646-6.365-12.996-24.519-43.665-33.534-49.088-3.964 11.468-6.263 16.388-10.378 25.69z"/>
    <path fill="#fff" fill-opacity=".2" fill-rule="evenodd" d="M685.567 406.482c2.19-17.24.385-34.936-4.408-53.68-47.796 97.143-163.258 130.992-193.065 215.295 2.835 5.228 8.803 8.764 16.992 13.168 44.508-90.483 108.271-141.178 180.481-174.783zM566.612 569.633c6.717 1.923 20.328-8.248 22.693-15.25-2.776-3.73-7.823-6.22-15.13-7.477 3.392-8.504 22.55-22.476 35.948-22.581 1.503 7.254 2.643 12.443 7.165 17.183l12.507-17.774c.612-1.31.993-2.134 1.2-3.627.395-2.86.12-2.378-.328-3.655-25.404-7.072-76.617 28.974-64.055 53.18z"/>
    <path fill="#fff" fill-opacity=".2" fill-rule="evenodd" d="M606.415 431.004c6.093-5.572 7.013-5.051 12.77-11.206 1.056-12.493-5.445-43.91-11.37-52.611z"/>
    <path fill-opacity=".2" fill-rule="evenodd" d="M261.892 359.983l-1.775-13.094c-6.439-77.88 8.881-102.002 31.525-134.856C345.53 133.847 469.688 132.3 521.97 157.84l17.58-49.712 4.502-9.838c-5.777-1.697-37.34-25.465-44.594-29.823-33.714-20.26-66.865-36.849-108.589-40.935-10.874-1.064-24.463-2.871-34.448-1.378L321.99 31c0 11.934 5.177 22.031 9.345 29.908-6.029-1.61-42.758-25.645-53.962-25.561-3.626.027-26.767 7.126-31.752 8.997-18.799 7.055-53.514 21.503-68.85 33.947-43.503 35.301-47.777 54.427-70.505 92.108-15.042 24.939-54.33 126.885-25.478 141.09 7.514 3.698 29.856.988 36.678 1.247 16.508.63 23.207 1.201 36.317 4.255-6.204 11.725-9.825 18.584-20.504 26.225-17.673 12.645-40.865 11.552-39.47 33.477.438 6.876 4.493 12.11 8.142 16.438 7.434 8.816 18.049 13.963 30.525 18.07 25.119 8.268 59.26 9.588 82.413-1.317 5.98-2.817 10.097-5.388 14.972-9.326 15.97-16.873 19.689-24.246 32.03-40.574zm79.244-191.972l56.029-20.718c-7.81-18.703-39.733-39.632-57.617-49.732-23.779-13.43-45.204-23.407-74.715-31.666-21.905-6.13-19.834-8.631-39.55-.73-14.545 5.829-24.985 10.543-35.789 18.4-13.63 9.911-43.976 40.738-50.185 55.85 80.41-10.39 127.294-1.048 201.827 28.596zm-81.019 178.878c-4.078-37.244-2.347-74.671 13.28-108.324 5.365-11.552 11.507-17.524 16.162-26.295-17.594-20.332-105.478-21.192-132.729-5.564 66.29 26.508 84.72 85.112 98.085 149.444zm-33.804 1.896c8.759 15.81 4.38 25.477-1.228 41.43 19.083-7.365 17.535-25.345 13.944-49.473-10.24-68.811-79.078-95.049-118.767-106.226-19.876 18.353-37.032 43.661-33.427 65.723 43.713-.392 116.42 6.924 139.478 48.546zm192.475-204.736l36.017-.892c-.089-18.386-1.617-66.755-15.202-89.631-9.28-11.79-70.143-15.717-89.193-14.385 25.178 16.96 60.024 63.257 68.378 104.908zm76.116 6.618c9.712 2.612 18.252 4.491 27.067 7.174l17.54-49.63c-10.168-2.582-38.165-28.25-58.362-37.252-2.01 11.762-2.019 26.438-3.687 39.1l-2.758 17.46c-4.454 26.245-12.25 14.418 20.2 23.148zm-196.16 52.026l12.287-13.048c-68.056-21.578-116.375-31.754-189.848-8.034-10.887 3.515-5.842.516-15.104 20.371-5.107 10.947-16.655 39.605-17.247 52.664 18.837-30.821 32.222-49.662 73.066-64.192 49.609-17.647 90.078-3.83 136.845 12.239zm16.583-16.88l20.611-14.807c-64.67-27.987-128.313-38.979-200.657-25.959-3.165 3.91-15.921 26.631-16.925 31.31 60.543-20.476 127.03-17.098 196.971 9.455zm-71.966 186.859l9.697-14.207c-14.596-84.364-47.805-130.751-99.685-149.415-11.422 5.528-24.895 15.164-29.314 22.342 87.957 27.122 122.8 76.258 119.302 141.28zm5.517-315.457c38.522 9.531 64.132 19.282 96.492 38.257 10.308 6.044 17.371 12.513 27.166 18.235-9.752-20.768-59.593-53.268-84.51-63.718-11.545-4.842-30.438.83-39.148 7.226zm208.106 86.107l11.003.85c3.53-22.894 9.404-51.073 7.825-75.789-7.297-6.735-19.932-11.183-30.303-14.408 8.025 28.566 13.693 58.243 11.475 89.347zM191.163 377.15l-11.104 30.946c27.206-5.582 38.53-15.568 41.598-32.894 2.22-12.537-9.901-25.364-10.394-25.12-13.659 6.78-25.73 16.523-20.1 27.068l-11.104 30.946c-23.188-.45-52.33-2.3-67.62-16.092-9.188-8.288-12.768-17.71-1.576-26.373 9.07-7.02 22.549-5.91 35.332-3.65-3.795 7.8-11.16 9.72-23.192 10.027 18.227 26.972 60.306 32.485 68.16 5.142zm-9.345-7.657c4.687-6.213 3.73-8.256 10.31-14.181 5.095-4.589 8.864-5.749 14.22-10.283-1.406-2.063-.525-.922-2.695-3.092l-15.992-12.083c-6.979-3.692-15.97-8.084-24.533-9.972-4.295 6.342-6.27 13.33-11.346 19.399-3.527 4.217-12.007 11.018-13.931 13.956 25.904 1.866 27.937 6.9 43.967 16.256zM634.2 206.554l.01.47.153 11.383c9.974 15.423 19.473 35.18 25.3 52.433 5.517 16.34 17.095 58.12 9.956 74.57-10.304-24.266-22.283-47.276-42.498-64.108l.024-.123h-.012l-1.033 2.549-.071-.089c9.021 5.457 27.153 36.09 33.513 49.076 9.129 18.644 13.15 29.655-10.096 54.646-4.524-13.501-20.078-69.351-33.439-77.809-.175-.06-.35-.13-.523-.21-.383.138-.768.874-1.15 2.074l.097.28.01-.01c12.03 22.214 28.126 51.337 30.758 81.093-7.073 9.427-14.51 17.217-22.406 22.938-3.203-13.959-6.776-48.116-14.788-55.374l-.097 6.423c.49.75.864 1.592 1.098 2.457 5.568 10.777 11.165 38.915 10.18 50.575-5.758 6.155-6.678 5.635-12.77 11.206l.034-1.601.002-.001-.037 1.602c-13.694 8.663-26.709 19.694-40.214 29.288-28.682 20.376-65.216 50.332-82.085 80.53-29.552 52.902 12.216 41.323 36.469 104.616 4.937 12.887 6.53 37.916 10.73 45.524 22.665 12.882 60.574 19.648 89.91 14.826 26.48-4.352 62.86-19.91 72.886-36.754l-.96-35.593c-1.287-20.774-6.791-45.041-13.43-62.932-3.812-10.268-8.794-18.003-11.998-25.605-2.579-6.117 3.496-20.43 7.216-26.902 24.044-58.334 34.72-127.156 15.48-188.168-7.971-25.274-12.056-51.354-22.12-75.077-7.102-16.74-24.297-53.805-35.835-63.005zM518.774 584.51c52.846-.37 54.852-1.293 95.69-37.567l-7.246-5.184c-68.843 87.237-70.683-27.773 34.366-34.928 6.108 5.248 9.65 12.433 14.106 20.048 4.007-3.513 4.332-5.509 6.46-12.145 11.244-35.083 20.423-65.184 23.336-103.105-68.091 26.057-158.976 106.14-166.712 172.881zm20.002 78.208c46.904-5.998 95.28-27.416 118.831-66.18 8.55-14.072 16.287-24.294 4.813-39.916-13.415 24.241-27.626 36.842-57.591 46.953-31.222 10.533-57.767 10.12-92.172 6.845 1.739 4.927 17.093 29.014 26.119 52.298zm56.084 11.844c32.567 0 67.295-12.539 88.067-28.587 2.155-17.385-4.02-53.183-11.44-65.955-17.971 21.578-18.898 50.627-83.236 74.18-11.526 4.22-31.53 7.052-40.485 12.336 10.694 7.226 31.968 8.026 47.094 8.026zm-97.846-86.477c4.17 8.71 8.323 16.88 19.415 18.789 42.67 7.346 109.84-3.186 134.842-39.099 12.52-17.983 9.439-16.315-.63-35.482l-8.175-10.446c-6.311 26.023-31.278 46.744-53.564 58.38-32.346 16.888-55.211 17.63-91.888 7.858zm97.846 107.612c18.228 0 37.574-3.691 53.658-9.156 36.66-12.457 35.612-18.979 35.3-34.656-5.857 1.205-27.495 14.003-38.827 17.97-41.822 14.643-66.255 8.09-103.236.333 2.566 16.568 1.653 16.358 17.38 20.876 12.162 3.494 22.553 4.633 35.725 4.633zm90.707-289.215c2.19-17.24.385-34.936-4.408-53.68-47.796 97.143-163.258 130.992-193.064 215.295 2.834 5.228 8.802 8.764 16.991 13.168 44.508-90.483 108.271-141.178 180.481-174.783zm-118.955 163.15c6.717 1.924 20.328-8.246 22.693-15.25-2.776-3.729-7.823-6.22-15.13-7.476 3.392-8.504 22.55-22.476 35.948-22.581 1.503 7.254 2.643 12.443 7.165 17.183l12.507-17.774c.612-1.31.993-2.134 1.2-3.627.395-2.86.12-2.378-.328-3.655-25.404-7.072-76.617 28.974-64.055 53.18z"/>
    <path fill="#fff" fill-opacity=".2" fill-rule="evenodd" d="M608.005 360.343c7.78 7.047 12.328 41.154 15.438 54.708 7.667-5.554 14.889-13.118 21.756-22.272-2.555-28.893-19.185-59.793-30.865-81.363-5.394 5.753-5.672 39.83-6.329 48.927z"/>
    <path fill-opacity=".2" fill-rule="evenodd" d="M273.398 238.565c-15.628 33.653-17.36 71.08-13.28 108.324l1.774 13.094c1.061 17.505 7.768 27.739 7.768 44.861l-31.038 15.694c-17.382 15.554 15.15 55.737 36.956 69.979 55.867 36.488 114.16 29.528 175.372 15.265-.438 5.264-2.114 11.531-2.99 17.573-9.868 68.152 4.542 144.077 56.062 193.054l6.734-12.591c-22.42-15.298-42.017-49.157-49.71-88.533-4.178-21.395-5.691-42.448-4.634-64.662l5.715-46.649c2.255-6.5 4.89-5.984 8.476-9.765-34.235 5.837-58.078 14.512-96.287 13.963-32.398-.466-62.636-9.206-85.485-23.322l-9.827-6.417c-8.251-5.48-40.191-30.898-32.117-49.013 3.096-6.294 10.524-7.564 21.774-14.362 28.3-17.101-13.914-47.336 5.258-146.141 12.542-72.295 102.153-119.347 167.686-115.299 15.239-.099 29.1.944 43.657 3.827 14.366 2.844 23.704 8.168 35.266 11.45-.958 16.21-.941 20.915 1.828 36.328 4.524-9.985 10.049-91.162 38.863-109.242 19.078 7.155 38.032 38.41 48.5 60.358 13.562 28.433 17.157 56.484 14.013 91.586-1.438 16.063-4.537 31.414-9.158 45.716-8.973 27.776-11.593 10.322-14.402 39.993-2.892 30.563-5.955 73.102-3.69 103.654l9.933-6.284 1.59-70.661c.92-12.749.477-38.414 6.436-48.658l1.19-2.367c4.114-9.303 6.413-14.223 10.377-25.692l1.113-2.324c6.086-31.6 7.838-39.577 7.08-74.748l-1.737-14.802c-1.476-31.634-29.575-80.295-56.503-100.73-18.246-13.847-20.768-6.84-31.909 7.269-11.202 23.22-13.881 36.823-22.082 59.55-8.814-2.683-16.582-6.26-26.294-8.873-11.063-2.977-27.228-6.242-38.692-5.646l-38.197.727-21.622 3.245c-51.113 10.71-101.29 42.866-123.767 91.271z"/>
</svg>
