<svg xmlns="http://www.w3.org/2000/svg" viewBox="0 0 725.669 725.669">
    <path fill="#ff2a2a" fill-rule="evenodd" d="M210.455 91.359zM100.8 168.32c12.749-8.538 27.072-24.432 50.83-41.516 12.676-9.116 46.942-32.676 58.825-35.445-8.232 12.294-54.595 55.408-67.609 92.077-15.144 42.67-8.906 46.181-17.037 81.086 6.184-2.239 21.54-31.297 28.85-42.336 5.803-8.765 24.958-35.205 32.71-40.397-2.17 9.32-5.193 15.264-8.414 24.293-11.882 33.306-36.16 88.994-53.514 117.717-4.61 7.63-8.135 14.276-12.735 21.896-4.153 6.877-10.051 14.762-11.906 22.725 8.147-1.898 25.172-9.813 32.704-13.468 5.363-2.602 10.141-4.207 16.064-7.022l74.745-44.927c4.503-4.778 3.68-4.718 10.284-7.12 1.56-2.916 26.659-23.115 38.373-36.169 3.594-4.005 33.031-37.69 38.07-40.386-5.314 25.134-13.406 44.19-14.41 72.467 5.993-5.151 11.557-15.343 17.482-23.628 35.018-48.961 91.507-112.703 153.704-128.932l26.807-9.469 4.032-9.683 9.803-29.929-4.04-6.491c-35.822-21.419-64.604-33.548-104.686-46.924-43.104-14.386-83.644-16.386-133.016-6.476-20.418 4.097-39.758 9.24-57.558 17.47-8.636 3.992-17.005 8.852-24.276 14.202-24.787 18.234-37.796 31.463-56.342 57.168-7.878 10.92-24.659 35.988-27.74 49.217z"/>
    <path fill="#ed4144" fill-rule="evenodd" d="M164.074 167.892l45.552-38.854c31.41-25.211 64.398-45.884 101.815-63.668l43.448-18.129c2.686-.93 4.7-1.435 7.209-2.36 5.607-2.066 3.873-.628 7.986-4.179-82.688-16.459-159.003 7.77-216.241 63.276l-19.485 21.3c18.225-13.231 75.515-48.67 104.454-52.927-18.73 22.345-64.513 69.08-74.738 95.54z"/>
    <path fill="#f37033" fill-rule="evenodd" d="M164.074 167.892c-6.471 4.701-22.795 47.708-23.814 59.162 5.367-12.752 46.075-57.976 58.687-64.958-4.956 33.318-34.877 110.336-51.364 143.45l-22.861 40.85c39.873-13.602 113.07-64.298 133.475-87.646 12.728-24.75 59.97-87.612 81.012-109.859 20.594-21.772 51.17-50.5 75.012-67.32 6.498-4.584 24.53-14.37 29.065-19.255-22.19-9.952-47.171-16.653-73.201-21.614-4.114 3.55-2.38 2.113-7.987 4.18-2.509.924-4.523 1.428-7.21 2.36L311.442 65.37c-37.417 17.784-70.406 38.457-101.815 63.667z"/>
    <path fill="#fdf6ae" fill-rule="evenodd" d="M258.197 258.75c14.576-7.545 52.595-51.523 67.416-64.872L310.01 252.43c41.026-48.912 66.613-81.391 125.191-111.42 22.325-11.444 36.48-13.035 59.553-21.228 4.929-6.727 6.216-20.368 7.703-28.43-19.468-9.316-36.627-19.741-59.172-29.037-4.534 4.885-22.567 14.671-29.065 19.255-23.841 16.82-54.418 45.548-75.012 67.32-21.043 22.247-68.284 85.11-81.012 109.86z"/>
    <path fill="#ff2a2a" fill-rule="evenodd" d="M504.419 83.663l-1.961 7.69c-1.487 8.062-2.774 21.703-7.703 28.43l-.132 9.983-26.807 9.47c9.527-.711 18.83 3.947 24.534 8.406.168 10.504.46 15.961 4.085 24.333 5.356-43.136 13.557-88.713 36.79-113.183 24.36 7.508 55.48 59.061 63.57 94.572 7.167 31.468 4.808 74.43-4.862 105.886-3.904 12.702-8.825 18.693-12.734 29.119 7.39-4.48 5.463-4.246 8.833-3.61 8.464-12.782 12.405-26.216 17.835-42.514 1.1-6.813 1.92-13.737 4.732-18.284 0-31.735 6.072-34.432-2.71-74.094-5.008-22.616-13.328-40.135-23.845-56.962-9.116-14.584-24.453-33.535-38.833-41.984-22.45-13.19-25.846 9.533-40.792 32.742zM469.906 680.07l-12.361-16.196c-23.753-35.657-25.231-66.013-30.243-104.436-2.092-16.044.72-69.696 6.31-81.348-7.541 1.757-12.636 4.142-20.448 6.486-44.765 13.433-111.414 13.225-152.074-7.103-21.33-10.665-43.19-25.79-54.54-47.427-25.095-47.847 12.897-31.931 28.914-55.853-.832-10.001-5.595-23.995-7.45-34.879-1.725-10.124-4.557-25.488-3.7-36.311 4.502-4.778 3.679-4.718 10.283-7.12-2.795 50.804 23.016 77.792 1.198 92.106-15.798 10.364-49.096 13.402-.63 59.562l20.296 13.223c35.413 26.096 96.489 27.613 141.586 19.221 13.914-2.59 35.806-9.368 48.231-9.91-2.953 44.844-14.832 68.126-1.97 127.275 5.41 24.88 17.812 56.449 35.825 76.023z"/>
    <path fill="#ff7f2a" fill-rule="evenodd" d="M544.574 673.676c-16.033-22.584-20.106-36.57-13.79-67.83 10.17-50.324 29.724-79.166 52.517-122.344l28.989-56.99c2.052 47.925-39.594 133.036-55.1 180.943-8.22 25.391-8.083 40.105-12.616 66.22zm61.293-431.43c16.629 82.954-34.01 143.758-80.696 196.56l-39.599 52.555c4.057-42.454 34.876-69.52 39.838-78.03-16.559 6.036-34.66 13.985-54.53 15.643l20.027-14.817c45.81-31.791 74.006-75.864 97.125-129.398-3.37-.636-1.442-.87-8.833 3.61-3.016 2.275-22.283 36.986-27.273 44.483-14.081 21.155-29.39 44.563-49.5 60.138-7.311 5.663-12.312 9.653-21.21 15.354-6.058 3.883-43.4 23.303-45.119 26.376 28.313 3.107 38.463-.203 64.122-3.037-3.14 8.265-13.989 24.07-21.82 45.087-19.965 53.57-17.197 118.723-9.634 174.439 15.024-28.483 22.757-90.067 43.419-112.898-2.032 35.39-11.532 53.492 3.76 99.862 8.385 25.421 29.975 57.98 44.054 69.54l.713-4.875c-6.464-42.037-4.649-57.832 8.58-96.807 4.715-13.89 10.147-26.738 15.247-40.492 13.464-36.313 32.288-78.303 37.518-116.394 3.552-25.873 3.915-46.854 3.933-76.877.01-15.53-1.597-25.405-1.924-38.48-.51-20.389-7.778-97.417-13.466-109.827-2.811 4.547-3.631 11.47-4.732 18.284z"/>
    <path fill="#62bc4d" fill-rule="evenodd" d="M588.032 284.759c-23.119 53.533-51.316 97.607-97.125 129.398l-20.028 14.818c19.87-1.66 37.972-9.608 54.53-15.644-4.961 8.51-35.78 35.576-39.837 78.03l39.599-52.554c46.686-52.803 97.325-113.607 80.696-196.562-5.43 16.298-9.371 29.732-17.835 42.514z"/>
    <path fill="#ff2a2a" fill-rule="evenodd" d="M605.867 242.245c-8.052 19.193-10.173 36.124-26.668 46.124-3.016 2.274-22.283 36.986-27.273 44.483-14.081 21.155-29.39 44.563-49.5 60.138-7.311 5.663-12.312 9.653-21.21 15.354-6.058 3.883-43.4 23.303-45.119 26.376 28.313 3.107 38.463-.203 64.123-3.037-3.14 8.265-13.99 24.07-21.822 45.087-19.964 53.57-17.196 118.723-9.633 174.439 15.024-28.483 22.757-90.068 43.419-112.898-2.032 35.39-11.532 53.492 3.76 99.862 8.385 25.421 29.975 57.98 44.054 69.54l.713-4.876c-6.464-42.036-4.649-57.831 8.58-96.806 4.715-13.89 10.147-26.738 15.247-40.492 14.11-38.058 31.917-75.598 37.518-116.394 3.552-25.873 3.915-46.854 3.933-76.877.01-15.53-1.597-25.405-1.924-38.48-.51-20.389-7.778-97.417-13.466-109.827-2.811 4.547-3.631 11.47-4.732 18.284z"/>
    <path fill="#662d8a" fill-rule="evenodd" d="M544.574 673.676c4.533-26.116 4.397-40.83 12.615-66.22 15.507-47.908 57.153-133.019 55.1-180.945l-28.988 56.991c-22.793 43.178-42.347 72.02-52.517 122.344-6.316 31.26-2.243 45.246 13.79 67.83z"/>
    <path fill="#ff7f2a" fill-rule="evenodd" d="M472.589 618.906c-3.16-20.753-6.35-92.496 12.983-127.545 8.483-15.38 23.516-33.694 38.377-50.933 11.44-13.27 23.86-27.605 35.158-42.025 10.116-12.911 19.224-26.416 26.983-40.576 7.027-12.824 12.836-26.166 16.911-40.496 5.194-16.872 7.377-35.004 5.666-54.767 4.151 58.83 7.52 116.565 3.63 164.137-14.315 28.01-27.796 54.442-40.93 78.89-6.768 12.598-13.957 24.547-19.416 36.663-8.275 18.363-15.86 37.982-19.834 57.355-2.6 12.675-11.666 39.25 9.17 69.297-33.829-45.922-23.445-104.512-20.998-149.9-36.132 35.345-33.717 52.32-47.7 99.9z"/>
    <path fill="none" d="M504.419 83.663l-1.961 7.69c-2.445 13.259-7.676 26.432-7.835 38.413l-26.807 9.47c9.527-.711 18.83 3.947 24.534 8.406.168 10.504.46 15.961 4.085 24.333 5.356-43.136 13.557-88.713 36.79-113.183 24.36 7.508 55.48 59.061 63.57 94.572 7.167 31.468 4.808 74.43-4.862 105.886-3.904 12.702-8.825 18.693-12.734 29.119 7.39-4.48 5.463-4.246 8.833-3.61 8.464-12.782 12.405-26.216 17.835-42.514 1.1-6.813 1.92-13.737 4.732-18.284 0-31.735 6.072-34.432-2.71-74.094-5.008-22.616-13.328-40.135-23.845-56.962-9.116-14.584-24.453-33.535-38.833-41.984-22.45-13.19-25.846 9.533-40.792 32.742zM469.906 680.07l-12.361-16.196c-23.753-35.657-25.231-66.013-30.243-104.436-2.092-16.044.72-69.696 6.31-81.348-7.541 1.757-12.636 4.142-20.448 6.486-44.765 13.433-111.414 13.225-152.074-7.103-21.33-10.665-43.19-25.79-54.54-47.427-25.095-47.847 12.897-31.931 28.914-55.853-.832-10.001-5.595-23.995-7.45-34.879-1.725-10.124-4.557-25.488-3.7-36.311 4.502-4.778 3.679-4.718 10.283-7.12-2.795 50.804 23.016 77.792 1.198 92.106-15.798 10.364-49.096 13.402-.63 59.562l20.296 13.223c35.413 26.096 96.489 27.613 141.586 19.221 13.914-2.59 35.806-9.368 48.231-9.91-2.953 44.844-14.832 68.126-1.97 127.275 5.41 24.88 17.812 56.449 35.825 76.023z"/>
</svg>
