<svg xmlns="http://www.w3.org/2000/svg" viewBox="0 0 725.669 725.669">
    <path fill="#ff2a2a" fill-rule="evenodd" d="M391.907 203.222l-46.533-.402-1.914.296c-25.266 2.164-48.21 8.191-68.004 18.017-30.685 15.232-38.984 28.935-48.805 35.575l-5.45 6.428c-21.241 30.569-28.712 36.433-35.593 82.274-6.976 46.471 8.372 90.976 8.372 110.013-4.16 2.786-8.92 6.712-12.74 9.037-6.253 3.805-34.877 5.993-15.11 42.412 11.132 20.51 27.507 33.566 47.424 45.133 35.3 20.501 78.086 19.57 118.266 14.052 14.75-2.025 24.903-5.899 38.19-8.995 0 16.687-7.23 48.045-3.146 79.376 3.254 24.96 7.33 48.137 17.034 68.268 4.83 10.018 9.158 18.523 15.144 26.599.132.177.259.346.384.51h13.711c-15.048-17.927-25.786-44.555-30.675-65.5-6.681-28.623-7.619-60.18-3.923-89.664 2.655-21.173-1.655-22.718 11.573-32.13-13.499 1.808-29.603 7.592-44.055 10.375-64.183 12.359-112.87 6.122-160.03-38.867-33.058-36.315-5.048-41.786 7.946-49.705 12.97-7.903 10.324-16.413 6.805-34.123-2.455-12.356-4.491-25.085-5.439-38.13-2.208-30.408 2.416-85.335 21.535-109.94 37.161-47.824 85.409-71.662 149.508-71.298 33.369.19 45.784 5.454 72.397 15.758-.773 11.844-.908 24.199 2.576 34.125 4.12-14.671 10.562-90.893 37.539-106.069 44.167 23.26 73.763 111.55 57.23 164.45l9.922.734 2.1-7.51.09-3.872c5.999-62.335-5.872-98.729-35.544-137.46-4.384-5.724-15.735-17.854-21.702-21.868-13.788-9.275-18.67-4.838-26.407 5.046-13.1 16.733-17.851 36.78-23.52 61.356-7.782-2.33-15.614-6.32-24.043-8.758-7.956-2.3-17.8-2.741-25.113-5.543z"/>
    <path fill="#ff2a2a" fill-rule="evenodd" d="M545.484 312.37l-3.174-70.62-23.475-52.281-32.817-37.376-14.822 2.94-15.429 25.829-14.345 39.942-49.215-12.182-48.633-1.902-53.514 11.396-38.78 24.244-24.63 23.648-5.449-2.872c-4.127-8.88-4.707-13.657-12.205-20.565-32.461-29.91-96.123-14.99-96.864 27.736-.34 19.6 11.13 24.34 25.83 36.048 9.248 7.368 27.46 20.363 24.894 37.908-6.37 43.537-97.327 35.094-119.499-6.814 5.642 1.314 9.199 3.653 14.92 5.042 20.966 5.092 36.54.402 55.855.402v-3.63c-106.099-8.83-134.75-150.976-34.515-203.312 25.102-13.106 46.438-15.333 74.156-12.388 8.602.913 16.249 4.527 23.875 5.162 4.544-9.472 8.568-18.327 19.883-23.675 17.142-8.102 18.85-1.342 32.744 1.895-13.2-27.515 20.2-89.393 79.95-96.194h21.771c14.066 1.531 29.229 6.054 45.304 14.489 5.226 2.742 12.08 6.675 16.756 10.466 26.36 21.374 39.47 47.678 39.47 89.389 3.713-4.273 5.121-12.497 12.604-25.509 4.968-8.64 7.942-14.207 14.997-21.3 40.486-40.7 135.174-13.092 168.063 56.211 3.985 8.399 7.198 16.482 10.37 25.928 13.219 39.348 12.956 91.02.658 129.646-6.069 19.06-15.096 32.259-25.219 47.378 12.502 0 26.125-1.337 35.631 2.479 46.735 18.755 57.3 82.968 55.127 128.22-.647 13.475-6.005 30.853-12.089 42.324-9.368 17.667-26.735 31.603-45.965 37.539-14.137 4.364-25.44 1.893-39.711.237 19.314 23.084 13.965 50.347-5.457 68.96-12.7 12.172-32.722 19.755-51.265 23.163l-21.948 4.127c29.786 14.866 50.585 1.445 62.999.216-30.926 57.594-102.6 49.257-116.249 16.814-5.077-12.068-3.29-24.771 7.536-32.548 4.911-3.528 5.7-2.204 10.148-6.929-33.88-10.734-68.229-44.25-67.204-90.415.976-43.935 27.08-78.865 65.61-93.968-4.6-13.73-33.943-34.929-19.345-75.396 9.71-26.914 28.08-40.23 63.307-41.175l9.472-6.11zM181.079 137.881z"/>
    <path fill-opacity=".2" fill-rule="evenodd" d="M539.972 437.901c31.28 7.864 26.092 37.437-15.554 19.187-11.913-5.22-18.466-9.724-23.19-19.275 11.373-2.894 27.141-2.828 38.744.088zM310.225 10.751h21.771c14.066 1.531 29.229 6.054 45.304 14.489 5.226 2.742 12.08 6.675 16.756 10.466 26.36 21.374 39.47 47.678 39.47 89.389 3.713-4.273 5.121-12.498 12.604-25.509 4.968-8.64 7.942-14.207 14.997-21.3 40.486-40.7 135.174-13.092 168.063 56.211 3.985 8.399 7.198 16.482 10.37 25.928 13.219 39.348 12.956 91.02.658 129.646-6.069 19.06-15.096 32.259-25.219 47.378 12.502 0 26.125-1.337 35.631 2.479 46.735 18.755 57.3 82.968 55.127 128.22-.647 13.475-6.005 30.853-12.089 42.324-9.368 17.667-26.735 31.603-45.965 37.539-14.137 4.364-25.44 1.893-39.711.237 19.314 23.084 13.965 50.347-5.457 68.96-12.7 12.172-32.722 19.755-51.265 23.163l-21.948 4.127c29.786 14.866 50.585 1.445 62.999.216-30.926 57.594-102.6 49.257-116.249 16.814-5.077-12.068-3.29-24.771 7.536-32.548 4.911-3.528 5.7-2.204 10.148-6.929-33.88-10.734-68.229-44.25-67.204-90.415.976-43.935 27.08-78.865 65.61-93.968-4.6-13.73-33.943-34.929-19.345-75.396 9.71-26.914 28.08-40.23 63.307-41.175l9.922.735c20.12 5.495 29.589 9.807 38.085 22.354-31.815-10.53-65.121-24.861-91.492 3.376-33.55 35.925-3.63 69.391 4.877 85.71 16.927.223 30.12-5.751 49.08-.066 33.004 9.897 24.575 49.938-21.19 32.019-16.293-6.38-21.395-17.3-30.18-23.653-24.196 14.717-45.969 35.589-54.725 64.335-10.91 35.817 1.842 71.785 20.974 88.519 21.536 18.837 25.259 16.774 42.641 13.254 29.402-5.952 70.754-23.318 54-60.925-7.848-17.615-23.47-22.541-32.083-29.649 27.034 3.011 53.328 8.753 73.369-8.353 14.202-12.122 22.477-29.857 10.11-46.034-2.497-3.265-2.324-2.85-5.556-5.262l-7.8-5.72c19.619-.697 36.027-2.854 48.735-13.604 10.648-9.007 20.11-21.566 21.236-42.518.534-9.942-.467-19.263-2.346-28.842-2.236-11.399-5.645-12.782-16.317-16.41-9.255-3.145-18.676-3-28.838-2.336l-25.374 1.272c-.405-.05-.982-.188-1.34-.25l-2.601-.71c42.126-36.894 51.602-95.466 44.251-151.09l-4.431-21.39c-.174-.39-.546-.992-.695-1.302-.15-.312-.464-.874-.734-1.288-14.03 23.272-9.686 26.413-34.557 42.493-5.374 3.474-10.897 5.075-15.652 9.157 6.1 6.57 31.907 20.135 12.544 53.08-3.308 5.63-13.652 17.297-18.439 21.462-3.03 2.636-19.98 15.701-23.452 14.86l.09-3.872c14.193-4.789 33.997-24.4 40.68-37.206 13.185-25.26-3.562-37.797-19.051-48.324l1.935-1.559c10.332-6.6 19.142-6.505 34-22.17 7.913-8.343 22.5-24.651 18.109-42.887C604.13 76.165 485.143 34.323 445.78 111.91c-7.03 13.857-10.193 30.927-17.558 44.094-4.351-42.519 3.087-56.72-21.463-89.44-11.908-15.87-39.926-37.323-71.436-40.309 6.257 9.484 22.002 17.911 28 50.917 5.65 31.081-3.138 42.114-10.916 66.736 63.862 2.537 47.702 54.659 39.5 59.314 1.714-16.393 9.067-30.13-3.504-43.874-10.679-11.677-23.645-10.654-41.63-12.642 8.028-20.092 16.791-32.242 14.52-59.793-2.265-27.486-20.913-65.823-49.942-62.176-11.17 1.404-20.937 3.694-29.985 8.095-15.646 7.61-31.371 21.776-37.256 40.544 63.211-3.435 88.451 45.276 61.032 98.715 24.227-2.46 47.848-.495 40.232 30.729l-1.914.296c-1.656-34.561-13.936-30.941-46.187-25.193 5.419-12.308 27.634-37.224 9.843-71.611-9.825-18.99-33.848-34.402-64.688-28.994-3.511 7.447-9.036 31.944-.246 39.453 6.328 5.406 20.062 16.95 22.246 26.491-16.168-11.585-23.186-21.896-37.51-27.572-20.457-8.106-35.523 1.251-42.037 16.665 8.23 8.406 18.308 7.833 27.98 21.045 23.667 32.336-15.205 57.266-32.42 26.943-8.157-14.37-5.259-27.66-3.248-43.94C43.156 95.285-27.672 270.816 86.566 323.272l39.712 14.817c.39.144 1.03.45 1.343.572.311.123.915.341 1.324.602-12.575 16.026-42.926 10.747-64.668 11.68 14.229 7.442 21.395 12.223 40.812 13.605 31.367 2.233 69.203-14.508 28.069-49.761-10.022-8.59-21.984-15.158-27.094-30.944-19.86-61.343 90.25-103.07 120.587-27.136l-5.45 6.428c-4.127-8.88-4.707-13.657-12.205-20.565-32.461-29.91-96.123-14.99-96.864 27.736-.34 19.6 11.13 24.34 25.83 36.048 9.249 7.368 27.46 20.363 24.894 37.908-6.37 43.537-97.327 35.095-119.499-6.814 5.642 1.314 9.199 3.653 14.92 5.043 20.966 5.091 36.54.402 55.855.402v-3.63c-11.988-.998-35.156-11.853-45.359-16.345C-3.53 291.085 1.334 176.825 79.617 135.95c25.102-13.106 46.438-15.333 74.156-12.388 8.602.913 16.249 4.527 23.875 5.162 4.544-9.472 8.568-18.327 19.883-23.675 17.142-8.102 18.85-1.342 32.744 1.895-13.2-27.515 20.2-89.393 79.95-96.194zm296.472 496.252c22.142-23.685 8.933-39.899-1.07-52.978 26.17.304 44.329-12.409 53.573-27.01 14.122-22.308 12.474-34.406 8.407-62.091 26.883 20.97 56.565 147.143-22.898 172.773-32.209 10.388-41.902.632-69.39-3.79 10.103 12.414 18.81 1.035 32.033 27.282 14.494 28.77-11.832 58.485-43.245 68.38-28.53 8.987-32.546 2.525-46.963 12.855 9.494 6.337 12.003 11.29 25.786 14.089 15.825 3.214 19.179 2.144 34.494-.14-2.393 4.128-.246 1.27-3.657 4.62l-12.236 7.776c-52.606 26.643-94.921-11.995-72.143-34.091 15.706-15.236 28.19-1.669 37.69-6.831-10.09-6.924-25.783-6.388-33.994-14.747 28.535-5.97 49.211-9.903 63.05-27.839 18.754-24.305 3.531-46.29-11.409-60.489 27.143-1.401 46.888-1.635 61.972-17.77zM181.08 137.88c10.969 3.902 17.826 8.94 24.617 17.218 33.635 40.994-38.113 48.353-24.617-17.218z"/>
    <path fill-opacity=".2" fill-rule="evenodd" d="M391.907 203.222l-46.533-.402-1.914.296c-25.266 2.164-48.21 8.191-68.004 18.017-30.685 15.232-38.984 28.935-48.805 35.575l-5.45 6.428c-21.241 30.569-28.712 36.433-35.593 82.274-6.976 46.471 8.372 90.976 8.372 110.013-4.16 2.786-8.92 6.712-12.74 9.037-6.253 3.805-34.877 5.993-15.11 42.412 11.132 20.51 27.507 33.566 47.424 45.133 35.3 20.501 78.086 19.57 118.266 14.052 14.75-2.025 24.903-5.899 38.19-8.995 0 16.687-7.23 48.045-3.146 79.376 3.254 24.96 7.33 48.137 17.034 68.268 4.83 10.018 9.158 18.523 15.144 26.599.132.177.259.346.384.51h13.711c-15.048-17.927-25.786-44.555-30.675-65.5-6.681-28.623-7.619-60.18-3.923-89.664 2.655-21.173-1.655-22.718 11.573-32.13-13.499 1.808-29.603 7.592-44.055 10.375-64.183 12.359-112.87 6.122-160.03-38.867-33.058-36.315-5.048-41.786 7.946-49.705 12.97-7.903 10.324-16.413 6.805-34.123-2.455-12.356-4.491-25.085-5.439-38.13-2.208-30.408 2.416-85.335 21.535-109.94 37.161-47.824 85.409-71.662 149.508-71.298 33.369.19 45.784 5.454 72.397 15.758-.773 11.844-.908 24.199 2.576 34.125 4.12-14.671 10.562-90.893 37.539-106.069 44.167 23.26 73.763 111.55 57.23 164.45l9.922.734 2.1-7.51.09-3.872c5.999-62.335-5.872-98.729-35.544-137.46-4.384-5.724-15.735-17.854-21.702-21.868-13.788-9.275-18.67-4.838-26.407 5.046-13.1 16.733-17.851 36.78-23.52 61.356-7.782-2.33-15.614-6.32-24.043-8.758-7.956-2.3-17.8-2.741-25.113-5.543z"/>
</svg>
