<svg xmlns="http://www.w3.org/2000/svg" viewBox="0 0 725.669 725.669">
    <path fill="#fff" d="M209.091 321.324h248.296v245.221H209.091z"/>
    <path fill="#ff2a2a" fill-rule="evenodd" d="M305.593 320.713c12.973-.967 8.934 3.741 25.944 8.092 68.186 49.921 135.557 146.411 49.622 213.287-12.67 8.433-15.749 11.736-29.933 18.023-13.055 5.787-24.384 8.267-40.48 7.494-4.03-.194-9.959-1.53-13.639-2.684-18.65-5.848-37.351-23.19-47.144-39.576l-7.76-14.782-8.178-20.292c-9.017-38.276-9.901-81.977 6.593-115.367 1.655-3.351-.862-23.463 1.18-26.903 10.737-18.086 43.948-26.563 63.795-27.292zM772.68 671.957v85.095H411.133c-.176-1.558-.34-3.121-.49-4.689l-3-39.85 1.902-41.02c.472-4.4 1.193-9.453 1.193-13.094 6.197-1.442 26.684-11.353 29.588-15.294-10.864.906-23.162 5.773-33.917 7.907-48.843 9.693-100.396 15.822-151.634 7.264-21.683-3.622-44.246-10.82-63.406-20.258-6.085-2.997-22.147-10.302-25.493-15.328 4.467-1.04 11.717-5.684 15.02-8.446 13.175-11.01 16.353-26.673 15.603-43.597-.163-3.682-.315-6.416-2.046-9.163-1.056 12.672-6.89 26.804-12.952 35-6.415 8.674-18.426 14.889-31.945 16.013-12.187-8.138-53.168-55.272-45.263-78.935 2.348-7.03 11.643-10.807 17.995-13.637 38.645-17.212 35.68-18.884 28.87-55.954-3.326-18.098-6.088-36.327-7.674-55.584-.443-5.383.335-10.425-.484-15.839-1.375-9.086.009-34.707 1.165-43.57l3.343-28.285c1.573-9.36 3.082-17.443 5.31-26.318 2.16-8.604 4.274-16.244 7.055-24.573 4.786-14.334 12.76-28.819 21.31-40.928l14.005-17.624c20.49-21.276 44.715-40.952 71.352-54.142 10.682-5.29 21.118-10.435 32.617-14.315 12.173-4.109 22.756-7.703 36.509-10.424 62.529-12.371 127.822-2.982 184.25 24.063-.389 4.676-1.675 10.353-2.006 15.344-.731 11.027-2.104 20.612-2.077 32.611.035 15.524.974 32.462 3.972 47.041.998 4.848 2.544 9.138 4.162 13.182 1.808 4.518 3.231 6.802 6.141 10.172 0-5.093-1.485-11.523-1.947-16.412-2.653-28.07-2.88-57.974 1.234-86.325 2.906-20.036 7.7-40.086 13.847-58.592 1.674-5.043 2.999-8.563 4.937-13.428 5.104-12.804 10.758-24.643 18.249-35.826 11.724-17.5 12.998-23.89 29.151-10.98 3.623 2.896 5.417 6.315 8.748 9.619 16.79 16.65 34.385 43.605 44.494 64.675 18.049 37.616 25.153 75.699 25.153 119.726 0 44.487-9.795 80.779-26.227 119.672-2.721 6.439-7.053 11.368-10.128 17.43-1.462 2.881-.616 1.968-1.002 6.117l-3.448 39.402c1.46 26.465-1.202 54.51.962 80.66.48 5.81-.27 12.437.048 18.316l2.044 33.665c.955 19.188 4.741 46.14 7.45 64.988 5.982 41.617 10.68 52.605 20.686 88.48 1.888 6.767 1.564 7.931 6.279 12.083 3.405 2.999 6.554 4.693 11.49 5.846-1.647-7.043-6.607-29.299-9.183-34.688 14.207 0 23.307.217 35.288-2.465 25.694-5.752 41.87-16.552 64.448-24.788z"/>
    <path fill="#ff2a2a" fill-rule="evenodd" d="M772.68 653.495v18.462c-22.577 8.236-38.753 19.037-64.447 24.788-11.981 2.682-21.081 2.465-35.288 2.465 2.576 5.39 7.536 27.645 9.182 34.688-4.935-1.153-8.084-2.847-11.489-5.845-4.715-4.153-4.391-5.317-6.279-12.084-10.007-35.875-14.705-46.863-20.686-88.48-2.709-18.849-6.495-45.8-7.45-64.988l-2.044-33.665c-.317-5.879.432-12.506-.048-18.317-2.873-34.719-2.546-85.052 2.486-120.06.386-4.15-.46-3.237 1.002-6.118 3.075-6.062 7.407-10.991 10.128-17.43 16.432-38.893 26.228-75.185 26.227-119.671 0-44.028-7.104-82.111-25.153-119.727-10.11-21.07-27.704-48.026-44.494-64.676-3.33-3.303-5.125-6.721-8.747-9.617-16.154-12.912-17.427-6.522-29.152 10.98-7.49 11.181-13.145 23.02-18.249 35.825-1.939 4.865-3.263 8.386-4.937 13.428-6.146 18.507-10.94 38.556-13.848 58.592-4.113 28.35-3.886 58.255-1.233 86.325.462 4.889 1.947 11.32 1.947 16.412-2.91-3.37-4.333-5.654-6.14-10.172-1.62-4.044-3.165-8.334-4.163-13.181-2.998-14.58-3.937-31.518-3.972-47.042-.027-11.999 1.346-21.584 2.077-32.611.331-4.991 1.617-10.668 2.005-15.344-56.427-27.045-121.72-36.434-184.25-24.063-13.752 2.72-24.334 6.315-36.508 10.424-11.5 3.88-21.935 9.025-32.618 14.315-26.636 13.19-50.86 32.866-71.351 54.142l-14.005 17.623c-8.55 12.11-16.524 26.596-21.31 40.929-2.78 8.33-4.895 15.97-7.055 24.573-2.228 8.875-3.738 16.957-5.31 26.318l-3.343 28.286c-1.156 8.862-2.54 34.483-1.165 43.57.82 5.413.04 10.456.484 15.838 1.585 19.257 4.348 37.486 7.673 55.584 6.812 37.07 9.776 38.743-28.869 55.954-6.352 2.83-15.648 6.608-17.995 13.637-7.905 23.664 33.076 70.797 45.263 78.935 13.52-1.124 25.53-7.339 31.945-16.013 6.062-8.196 11.896-22.328 12.951-35 1.732 2.748 1.883 5.48 2.047 9.163.75 16.924-2.428 32.587-15.602 43.598-3.304 2.76-10.554 7.405-15.02 8.445 3.345 5.026 19.407 12.331 25.492 15.328 19.16 9.437 41.724 16.636 63.406 20.258 51.238 8.558 102.79 2.429 151.634-7.264 10.755-2.133 23.053-7 33.917-7.907-2.904 3.94-23.39 13.852-29.588 15.294 0 3.64-.72 8.693-1.193 13.094l-1.902 41.02 3 39.85c.15 1.568.314 3.13.49 4.69h-19.176c-3.051-24.092-3.93-47.921-1.768-67.17.475-4.235-.012-8.86.116-13.148.154-5.205 1.053-5.6 1.053-11.19-4.987.112-40.031 11.222-93.864 11.224-44.332 0-71.038-5.095-109.905-21.708-41.521-17.748-74.732-48.639-92.844-90.803-5.712-13.294-12.98-28.3-3.971-40.137 7.48-9.83 19.523-9.538 33.288-18.743 20.878-13.961 21.028-13.04 16.52-30.828-4.953-19.538-7.15-35.125-9.963-55.334-.583-4.189-1.24-8.173-1.438-11.825-1.865-34.42-2.796-33.992-.065-74.485 1.555-23.057 6.716-43.942 13.924-64.636 1.262-3.621 2.292-6.079 3.803-9.46 1.356-3.034 2.354-5.898 3.73-8.51 1.94-3.672 3.204-7.642 5.102-11.223 1.218-2.53 1.279-3.65 2.853-6.332l20.181-29.812c1.765-2.256 1.722-2.412 3.732-4.43l34.452-31.867c2.926-1.964 9.383-5.656 11.22-8.16 3.278-.873 4.906-2.618 7.742-4.504l15.06-8.405c3.253-1.638 4.12-2.605 7.12-4.105 3.142-1.571 5.273-2.09 8.516-3.726 54.074-27.273 128.523-32.936 186.278-21.345 17.178 3.447 53.807 14.057 70.142 22.7 1.519-18.244 17.862-64.562 27.963-81.204 11.065-18.233 22.258-37.79 44.451-24.877 7.704 4.482 8.568 6.649 13.139 10.327 1.739 1.4 2.129 1.437 3.997 3.144l14.217 16.391c18.618 22.107 34.616 49.368 45.322 79.15 19.34 53.803 24.895 129.381 4.08 186.968-2.984 8.255-5.708 14.05-9.311 21.297-10.943 22.005-16.369 19.31-16.383 30.549-.025 20.183-1.418 39.2-2.016 59.2l.01 77.596c-.028 6.768 1.078 8.8 1.078 15.246.002 14.488 2.252 29.466 2.997 42.915 1.02 18.415 4.215 38.477 7.03 55.206 1.547 9.194 2.655 17.136 4.474 26.133l4.85 25.758c21.152 0 29.81-.738 46.131-4.882 14.404-3.657 39.318-15.87 57.68-24.513z"/>
    <path fill="#ff7f2a" fill-rule="evenodd" d="M232.07 420.249l38.618-46.196c45.249-26.565 87.253 26.927 92.999 73.184 1.19 39.768-2.886 78.456-33.851 107.374-16.082 10.12-28.939 8.43-44.082 4.887 1.898 2.587 6.943 4.268 10.833 5.487 3.68 1.154 9.61 2.49 13.639 2.684 16.096.774 27.425-1.706 40.48-7.493 14.184-6.288 17.262-9.59 29.933-18.023 35.87-39.336 33.235-139.163-20.143-190.063-67.752-64.606-122.493-3.407-128.427 68.159z"/>
    <path fill-opacity=".2" fill-rule="evenodd" d="M588.273 286.005c6.486-1.517 11.635-8.653 15.605-11.934 28.228-23.328 34.858-78.455 29.338-117.695-.569-4.047-1.2-8.136-1.828-11.435l-3.325-10.946c0 33.415-1.349 61.593-7.954 87.948-3.203 12.778-7.38 24.458-12.777 35.176-7.082 14.064-16.248 23.597-19.06 28.886zM137.318 550.261c.332.629.56 2.774 2.966 5.187.64.642 2.882 2.406 3.907 3.234 2.387 1.93 6.663 4.833 10.467 4.833 12.02 0 10.198-16.138 10.198-24.477-1.965 2.274-1.202 1.597-2.472 4.658-7.536 18.153-17.18 8.409-25.066 6.565z"/>
    <path fill-opacity=".2" fill-rule="evenodd" d="M772.68 653.495v18.462c-22.577 8.236-38.753 19.037-64.447 24.788-11.981 2.682-21.081 2.465-35.288 2.465 2.576 5.39 7.536 27.645 9.182 34.688-4.935-1.153-8.084-2.847-11.489-5.845-4.715-4.153-4.391-5.317-6.279-12.084-10.007-35.875-14.705-46.863-20.686-88.48-2.709-18.849-6.495-45.8-7.45-64.988l-2.044-33.665c-.317-5.879.432-12.506-.048-18.317-2.873-34.719-2.546-85.052 2.486-120.06.386-4.15-.46-3.237 1.002-6.118 3.075-6.062 7.407-10.991 10.128-17.43 16.432-38.893 26.228-75.185 26.227-119.671 0-44.028-7.104-82.111-25.153-119.727-10.11-21.07-27.704-48.026-44.494-64.676-3.33-3.303-5.125-6.721-8.747-9.617-16.154-12.912-17.427-6.522-29.152 10.98-7.49 11.181-13.145 23.02-18.249 35.825-1.939 4.865-3.263 8.386-4.937 13.428-6.146 18.507-10.94 38.556-13.848 58.592-4.113 28.35-3.886 58.255-1.233 86.325.462 4.889 1.947 11.32 1.947 16.412-2.91-3.37-4.333-5.654-6.14-10.172-1.62-4.044-3.165-8.334-4.163-13.181-2.998-14.58-3.937-31.518-3.972-47.042-.027-11.999 1.346-21.584 2.077-32.611.331-4.991 1.617-10.668 2.005-15.344-56.427-27.045-121.72-36.434-184.25-24.063-13.752 2.72-24.334 6.315-36.508 10.424-11.5 3.88-21.935 9.025-32.618 14.315-26.636 13.19-50.86 32.866-71.351 54.142l-14.005 17.623c-8.55 12.11-16.524 26.596-21.31 40.929-2.78 8.33-4.895 15.97-7.055 24.573-2.228 8.875-3.738 16.957-5.31 26.318l-3.343 28.286c-1.156 8.862-2.54 34.483-1.165 43.57.82 5.413.04 10.456.484 15.838 1.585 19.257 4.348 37.486 7.673 55.584 6.812 37.07 9.776 38.743-28.869 55.954-6.352 2.83-15.648 6.608-17.995 13.637-7.905 23.664 33.076 70.797 45.263 78.935 13.52-1.124 25.53-7.339 31.945-16.013 6.062-8.196 11.896-22.328 12.951-35 1.732 2.748 1.883 5.48 2.047 9.163.75 16.924-2.428 32.587-15.602 43.598-3.304 2.76-10.554 7.405-15.02 8.445 3.345 5.026 19.407 12.331 25.492 15.328 19.16 9.437 41.724 16.636 63.406 20.258 51.238 8.558 102.79 2.429 151.634-7.264 10.755-2.133 23.053-7 33.917-7.907-2.904 3.94-23.39 13.852-29.588 15.294 0 3.64-.72 8.693-1.193 13.094l-1.902 41.02 3 39.85c.15 1.568.314 3.13.49 4.69h-19.176c-3.051-24.092-3.93-47.921-1.768-67.17.475-4.235-.012-8.86.116-13.148.154-5.205 1.053-5.6 1.053-11.19-4.987.112-40.031 11.222-93.864 11.224-44.332 0-71.038-5.095-109.905-21.708-41.521-17.748-74.732-48.639-92.844-90.803-5.712-13.294-12.98-28.3-3.971-40.137 7.48-9.83 19.523-9.538 33.288-18.743 20.878-13.961 21.028-13.04 16.52-30.828-4.953-19.538-7.15-35.125-9.963-55.334-.583-4.189-1.24-8.173-1.438-11.825-1.865-34.42-2.796-33.992-.065-74.485 1.555-23.057 6.716-43.942 13.924-64.636 1.262-3.621 2.292-6.079 3.803-9.46 1.356-3.034 2.354-5.898 3.73-8.51 1.94-3.672 3.204-7.642 5.102-11.223 1.218-2.53 1.279-3.65 2.853-6.332l20.181-29.812c1.765-2.256 1.722-2.412 3.732-4.43l34.452-31.867c2.926-1.964 9.383-5.656 11.22-8.16 3.278-.873 4.906-2.618 7.742-4.504l15.06-8.405c3.253-1.638 4.12-2.605 7.12-4.105 3.142-1.571 5.273-2.09 8.516-3.726 54.074-27.273 128.523-32.936 186.278-21.345 17.178 3.447 53.807 14.057 70.142 22.7 1.519-18.244 17.862-64.562 27.963-81.204 11.065-18.233 22.258-37.79 44.451-24.877 7.704 4.482 8.568 6.649 13.139 10.327 1.739 1.4 2.129 1.437 3.997 3.144l14.217 16.391c18.618 22.107 34.616 49.368 45.322 79.15 19.34 53.803 24.895 129.381 4.08 186.968-2.984 8.255-5.708 14.05-9.311 21.297-10.943 22.005-16.369 19.31-16.383 30.549-.025 20.183-1.418 39.2-2.016 59.2l.01 77.596c-.028 6.768 1.078 8.8 1.078 15.246.002 14.488 2.252 29.466 2.997 42.915 1.02 18.415 4.215 38.477 7.03 55.206 1.547 9.194 2.655 17.136 4.474 26.133l4.85 25.758c21.152 0 29.81-.738 46.131-4.882 14.404-3.657 39.318-15.87 57.68-24.513z"/>
    <path fill-rule="evenodd" d="M357.743 510.043l4.613-20.658c1.216-10.862 3.214-19.14 1.493-27.73-7.985 17.02-30.942 19.496-50.427 8.524-12.895-7.26-23.749-19.908-30.933-33.977-20.86-40.846-.323-78.074 46.802-55.617-14.715-16.883-39.208-20.251-61.428-7.034-19.972 11.88-20.612 28.162-35.794 46.698 18.828-73.013 32.69-131.322 116.415-64.173 43.133 34.594 62.59 102.694 109.928 112.585 38.476 8.04 46.902-4.996 59.32-14.348-23.349 2.591-51.004 11.013-69.318-6.976 27.402-3.917 40.556-5.288 48.416-27.391-25.776 10.645-27.331 18.608-65.047 15.426-3.515-3.676-12.212-14.269-15.482-19.637 17.983-10.963 37.97-5.784 46.98-30.253-56.954 22.18-49.578 23.551-81.073-17.944-25.052-33.007-104.018-93.556-128.667-53.435-90.562 147.402 48.458 354.672 104.202 195.94z"/>
    <path fill="#fff" fill-rule="evenodd" d="M284.193 464.37c9.113 0 17.767 7.388 19.33 16.5 1.561 9.113-4.56 16.5-13.672 16.5-9.112 0-17.766-7.387-19.329-16.5-1.562-9.112 4.558-16.5 13.671-16.5zM323.614 378.45l38.524 86.198c11.402-31.625-8.659-75.777-38.524-86.199z"/>
    <path fill-rule="evenodd" d="M412.114 506.43c33.312 2.664 23.81 1.47 49.12 12.282-5.214-19.248-23.659-22.871-44.94-21.606zM419.265 514.833c-5.326-2.71-9.138-4.678-9.942-3.446l-3.454 5.294 8.89 8.497c11.314 8.052 17.324 20.63 21.802 34.027 3.457-18.844-3.213-37.208-17.296-44.372zM384.698 539.25l14.121 36.667c2.649-17.074 3.607-29.994-7.42-42.62z"/>
</svg>
