<svg xmlns="http://www.w3.org/2000/svg" viewBox="0 0 725.669 725.669">
    <path fill="#ff2a2a" fill-rule="evenodd" d="M305.593 320.713c12.973-.967 21.833-4.359 38.844-.008 57.382 14.674 79.713 88.194 71.56 144.026-4.225 28.935-11.29 59.036-34.838 77.362-12.67 8.432-15.749 11.735-29.933 18.023-13.055 5.787-24.384 8.267-40.48 7.493-4.03-.193-9.959-1.53-13.639-2.684-3.89-1.22-8.935-2.9-10.832-5.487-12.747-3.94-29.611-22.877-36.312-34.088l-9.598-15.014-6.34-20.06c-9.017-38.276-3.002-81.077 13.493-114.468 1.655-3.35 2.438-6.362 4.48-9.803 9.155-15.42 16.338-25.838 28.918-38.418 34.612-34.612 90.084-53.187 134.93-23.211l9.18 7.139c15.829 23.682 23.088 36.969 27.348 65.32l1.219 12.22c-3.6.056-4.427.873-8.098.958 0-19.13-11.37-57.85-25.937-68.957-3.658-2.79-4.813-4.65-8.14-7.162-25.933-19.575-71.095-15.609-97.242.005zm462.152 353.12v89.216H411.877c-.478-3.54-.891-7.101-1.233-10.686l-3.002-39.85 1.903-41.02c.472-4.4 1.193-9.453 1.193-13.094 6.197-1.442 26.684-11.353 29.588-15.294-10.864.906-23.162 5.773-33.917 7.907-48.843 9.693-100.396 15.822-151.634 7.264-21.683-3.622-44.246-10.82-63.406-20.258-6.085-2.997-22.147-10.302-25.493-15.328 4.467-1.04 11.717-5.684 15.02-8.446 13.175-11.01 16.353-26.673 15.603-43.597-.163-3.682-.315-6.416-2.046-9.163-1.056 12.672-6.89 26.804-12.952 35-6.415 8.674-18.426 14.889-31.945 16.013-12.187-8.138-53.168-55.272-45.263-78.935 2.348-7.03 11.643-10.807 17.995-13.637 38.645-17.212 35.68-18.884 28.87-55.954-3.326-18.098-6.088-36.327-7.674-55.584-.443-5.383.335-10.425-.484-15.839-1.375-9.086.009-34.707 1.165-43.57l3.343-28.285c1.573-9.36 3.082-17.443 5.31-26.318 2.16-8.604 4.274-16.244 7.055-24.573 4.786-14.334 12.76-28.819 21.31-40.928l14.005-17.624c20.49-21.276 44.715-40.952 71.352-54.142 10.682-5.29 21.118-10.435 32.617-14.315 12.173-4.109 22.756-7.703 36.509-10.424 62.529-12.371 127.822-2.982 184.25 24.063-.389 4.676-1.675 10.353-2.006 15.344-.731 11.027-2.104 20.612-2.077 32.611.035 15.524.974 32.462 3.972 47.041.998 4.848 2.544 9.138 4.162 13.182 1.808 4.518 3.231 6.802 6.141 10.172 0-5.093-1.485-11.523-1.947-16.412-2.653-28.07-2.88-57.974 1.234-86.325 2.906-20.036 7.7-40.086 13.847-58.592 1.674-5.043 2.999-8.563 4.937-13.428 5.104-12.804 10.758-24.643 18.249-35.826 11.724-17.5 12.998-23.89 29.151-10.98 3.623 2.896 5.417 6.315 8.748 9.619 16.79 16.65 34.385 43.605 44.494 64.675 18.049 37.616 25.153 75.699 25.153 119.726 0 44.487-9.795 80.779-26.227 119.672-2.721 6.439-7.053 11.368-10.128 17.43-1.462 2.881-.616 1.968-1.002 6.117l-3.448 39.402c1.46 26.465-1.202 54.51.962 80.66.48 5.81-.27 12.437.048 18.316l2.044 33.665c.955 19.188 4.741 46.14 7.45 64.988 5.982 41.617 10.68 52.605 20.686 88.48 1.888 6.767 1.564 7.931 6.279 12.083 3.405 2.999 6.554 4.693 11.49 5.846-1.647-7.043-6.607-29.299-9.183-34.688 14.207 0 23.307.217 35.288-2.465 23.784-5.324 39.413-14.974 59.512-22.912z"/>
    <path fill="#ff2a2a" fill-rule="evenodd" d="M767.745 655.826v18.007c-20.099 7.938-35.728 17.588-59.512 22.912-11.981 2.682-21.081 2.465-35.288 2.465 2.576 5.39 7.536 27.645 9.182 34.688-4.935-1.153-8.084-2.847-11.489-5.845-4.715-4.153-4.391-5.317-6.279-12.084-10.007-35.875-14.705-46.863-20.686-88.48-2.709-18.849-6.495-45.8-7.45-64.988l-2.044-33.666c-.317-5.878.432-12.505-.048-18.316-2.873-34.719-2.546-85.052 2.486-120.06.386-4.15-.46-3.237 1.002-6.118 3.075-6.062 7.407-10.991 10.128-17.43 16.432-38.893 26.228-75.185 26.227-119.672 0-44.028-7.104-82.11-25.153-119.726-10.11-21.07-27.704-48.026-44.494-64.676-3.33-3.303-5.125-6.722-8.747-9.617-16.154-12.912-17.427-6.522-29.152 10.98-7.49 11.181-13.145 23.02-18.249 35.825-1.939 4.865-3.263 8.385-4.937 13.428-6.146 18.507-10.94 38.556-13.848 58.592-4.113 28.35-3.886 58.255-1.233 86.325.462 4.889 1.947 11.32 1.947 16.412-2.91-3.37-4.333-5.654-6.14-10.172-1.62-4.044-3.165-8.334-4.163-13.182-2.998-14.58-3.937-31.517-3.972-47.04-.027-12 1.346-21.585 2.077-32.612.331-4.991 1.617-10.668 2.005-15.344-56.427-27.045-121.72-36.434-184.25-24.063-13.752 2.72-24.334 6.315-36.508 10.424-11.5 3.88-21.935 9.025-32.618 14.315-26.636 13.19-50.86 32.866-71.351 54.142l-14.005 17.623c-8.55 12.11-16.524 26.595-21.31 40.929-2.78 8.33-4.895 15.97-7.055 24.573-2.228 8.875-3.738 16.957-5.31 26.318l-3.343 28.286c-1.156 8.862-2.54 34.483-1.165 43.57.82 5.413.04 10.456.484 15.838 1.585 19.257 4.348 37.486 7.673 55.584 6.812 37.07 9.776 38.743-28.869 55.954-6.352 2.83-15.648 6.608-17.995 13.637-7.905 23.664 33.076 70.797 45.263 78.935 13.52-1.124 25.53-7.339 31.945-16.013 6.062-8.196 11.896-22.328 12.951-35 1.732 2.748 1.883 5.48 2.047 9.163.75 16.923-2.428 32.587-15.602 43.597-3.304 2.762-10.554 7.406-15.02 8.446 3.345 5.026 19.407 12.331 25.492 15.328 19.16 9.437 41.724 16.636 63.406 20.258 51.238 8.558 102.79 2.429 151.634-7.264 10.755-2.133 23.053-7 33.917-7.907-2.904 3.94-23.39 13.852-29.588 15.294 0 3.64-.72 8.693-1.193 13.094l-1.902 41.02 3 39.85c.343 3.585.756 7.146 1.234 10.686H392.76c-3.689-26.104-4.912-52.32-2.571-73.166.475-4.235-.012-8.86.116-13.148.154-5.205 1.053-5.6 1.053-11.19-4.987.112-40.031 11.222-93.864 11.223-44.332.001-71.038-5.095-109.905-21.708-41.521-17.747-74.732-48.638-92.844-90.802-5.712-13.294-12.98-28.3-3.971-40.137 7.48-9.83 19.523-9.538 33.288-18.743 20.878-13.961 21.028-13.04 16.52-30.828-4.953-19.538-7.15-35.126-9.963-55.335-.583-4.188-1.24-8.172-1.438-11.824-1.865-34.42-2.796-33.993-.065-74.485 1.555-23.057 6.716-43.942 13.924-64.636 1.262-3.622 2.292-6.079 3.803-9.46 1.356-3.034 2.354-5.898 3.73-8.51 1.94-3.672 3.204-7.642 5.102-11.223 1.218-2.53 1.279-3.65 2.853-6.332l20.181-29.812c1.765-2.257 1.722-2.412 3.732-4.43l34.452-31.868c2.926-1.963 9.383-5.655 11.22-8.158 3.278-.874 4.906-2.62 7.742-4.505l15.06-8.405c3.253-1.638 4.12-2.605 7.12-4.105 3.142-1.571 5.273-2.09 8.516-3.726 54.074-27.273 128.523-32.936 186.278-21.345 17.178 3.447 53.807 14.057 70.142 22.7 1.519-18.244 17.862-64.562 27.963-81.204 11.065-18.233 22.258-37.79 44.451-24.877 7.704 4.482 8.568 6.649 13.139 10.327 1.739 1.4 2.129 1.437 3.997 3.144l14.217 16.391c18.618 22.107 34.616 49.367 45.322 79.15 19.34 53.803 24.895 129.381 4.08 186.968-2.984 8.255-5.708 14.05-9.311 21.297-10.943 22.005-16.369 19.31-16.383 30.549-.026 20.183-1.418 39.2-2.016 59.2l.01 77.596c-.028 6.768 1.078 8.8 1.078 15.246.002 14.487 2.252 29.466 2.997 42.915 1.02 18.415 4.215 38.477 7.03 55.206 1.547 9.194 2.655 17.136 4.474 26.133l4.85 25.758c21.152 0 29.81-.738 46.131-4.882 13.15-3.339 35.058-13.807 52.746-22.182z"/>
    <path fill="#fff" fill-rule="evenodd" d="M277.331 347.467c-5.514 5.892-18.303 24.568-22.011 32.062-5.887 11.897-15.98 34.305-15.98 47.789 2.08-2.014 4.455-11.916 5.809-15.108 1.948-4.595 4.684-9.916 7.12-14.307 4.195-7.566 12.85-18.247 18.94-23.91 17.338-16.12 48.008-20.981 63.015-8.452 8.165 1.952 13.322 3.766 19.108 8.484 20.396 16.631 22.876 35.515 22.737 59.987-.037 6.307.879 7.812 1.039 13.165.89 29.748-4.118 53.643-19.087 78.925-2.03 3.43-3.417 5.34-5.853 8.43-6.662 8.454-12.122 13.92-21.812 20.019-16.081 10.12-28.938 8.429-44.081 4.887 1.897 2.586 6.943 4.267 10.833 5.487 3.679 1.154 9.609 2.49 13.638 2.684 16.096.773 27.425-1.707 40.48-7.493 14.184-6.288 17.262-9.591 29.933-18.024 65.19-43.677 103.54-211.65 5.999-239.094-11.298-4.585-42.792-3.079-61.286 5.18-6.738 3.007-11.264 5.084-22.038 14.358-11.622 10.006-22.577 20.622-26.503 24.931z"/>
    <path fill-rule="evenodd" d="M239.34 427.318c-2.896 2.81-5.164 6.662-4.948 10.375.32 5.535-.59 5.11-.77 10.579-1.156 35.233 3.547 28.187 4.61 49.73l2.133 12.333 9.598 15.014c6.7 11.212 23.565 30.148 36.312 34.089 15.143 3.542 28 5.233 44.081-4.887 9.69-6.099 15.15-11.565 21.812-20.018 2.436-3.09 3.822-5.002 5.853-8.431 14.968-25.282 19.977-49.177 19.087-78.925-.16-5.353-1.076-6.858-1.039-13.165-.134.215-.23.546-.286.703-.056.16-.206.522-.272.721l-1.303 4.786c-10.076 35.372-45.542 37.263-66.39 4.812-17.682-27.523-13.985-79.763 26.406-79.493-15.007-12.53-45.677-7.669-63.015 8.452-6.09 5.663-14.745 16.344-18.94 23.91-2.436 4.391-5.172 9.711-7.12 14.306-1.354 3.193-3.73 13.095-5.81 15.109z"/>
    <path fill="#ff7f2a" fill-rule="evenodd" d="M305.593 320.713c-9.432 6.487-20.312 18.26-28.262 26.754-5.514 5.892-18.303 24.568-22.011 32.062-5.887 11.896-15.98 34.305-15.98 47.789 2.08-2.014 4.455-11.916 5.809-15.109 1.948-4.595 4.684-9.915 7.12-14.306 4.195-7.566 12.85-18.247 18.94-23.91 17.338-16.12 48.008-20.981 63.015-8.452 8.165 1.952 13.322 3.766 19.108 8.484 20.396 16.631 22.876 35.515 22.737 59.987-.037 6.307.879 7.812 1.039 13.165.89 29.748-4.118 53.643-19.087 78.925-2.03 3.43-3.417 5.34-5.853 8.43-6.662 8.454-12.122 13.92-21.812 20.019-16.081 10.12-28.938 8.429-44.081 4.887 1.897 2.586 6.943 4.267 10.833 5.487 3.679 1.154 9.609 2.49 13.638 2.684 16.096.773 27.425-1.707 40.48-7.493 14.184-6.288 17.262-9.591 29.933-18.024 65.89-44.146 51.016-230.815-75.566-221.379z"/>
    <path fill="#fff" fill-rule="evenodd" d="M376.07 434.012c.138-24.472-2.342-43.356-22.738-59.987-5.786-4.718-10.943-6.532-19.108-8.484-40.39-.27-44.088 51.97-26.406 79.493 20.848 32.451 56.314 30.56 66.39-4.812l1.303-4.786c.066-.2.216-.562.272-.721.055-.157.152-.488.286-.703z"/>
    <path fill-rule="evenodd" d="M240.365 510.335l-.183-3.933c-1.063-21.543-5.09-22.971-3.935-58.205.18-5.47 1.016-4.669.695-10.204-.215-3.713-.498-7.865 2.397-10.675 0-13.484 10.094-35.893 15.98-47.79 3.709-7.493 16.499-26.169 22.012-32.06 7.95-8.495 18.83-20.268 28.262-26.755l8.584-6.815c26.146-15.613 71.309-19.58 97.24-.005 3.328 2.512 4.483 4.374 8.14 7.163 14.567 11.107 25.938 49.827 25.938 68.956 3.671-.084 4.497-.901 8.098-.958l-1.219-12.22c-4.208-28.006-13.34-54.424-36.528-72.458-44.846-29.976-100.318-11.401-134.93 23.21-12.58 12.58-19.763 23-28.918 38.42-2.042 3.44-2.825 6.45-4.48 9.802-16.495 33.39-22.51 76.192-13.493 114.468z"/>
    <path fill-opacity=".2" fill-rule="evenodd" d="M588.273 286.005c6.486-1.517 11.635-8.653 15.605-11.934 28.228-23.328 34.858-78.455 29.338-117.695-.569-4.047-1.2-8.136-1.828-11.435l-3.325-10.946c0 33.415-1.349 61.593-7.954 87.948-3.203 12.778-7.38 24.458-12.777 35.176-7.082 14.064-16.248 23.597-19.06 28.886z"/>
    <path fill="#fff" fill-rule="evenodd" d="M289.851 464.37c9.113 0 16.5 7.388 16.5 16.5 0 9.113-7.387 16.5-16.5 16.5-9.112 0-16.5-7.387-16.5-16.5 0-9.112 7.388-16.5 16.5-16.5z"/>
    <path fill-opacity=".2" fill-rule="evenodd" d="M137.318 550.261c.332.629.56 2.774 2.966 5.187.64.642 2.882 2.406 3.907 3.234 2.387 1.93 6.663 4.833 10.467 4.833 12.02 0 10.198-16.138 10.198-24.477-1.965 2.274-1.202 1.597-2.472 4.658-7.536 18.153-17.18 8.409-25.066 6.565z"/>
    <path fill-opacity=".2" fill-rule="evenodd" d="M767.745 655.826v18.007c-20.099 7.938-35.728 17.588-59.512 22.912-11.981 2.682-21.081 2.465-35.288 2.465 2.576 5.39 7.536 27.645 9.182 34.688-4.935-1.153-8.084-2.847-11.489-5.845-4.715-4.153-4.391-5.317-6.279-12.084-10.007-35.875-14.705-46.863-20.686-88.48-2.709-18.849-6.495-45.8-7.45-64.988l-2.044-33.666c-.317-5.878.432-12.505-.048-18.316-2.873-34.719-2.546-85.052 2.486-120.06.386-4.15-.46-3.237 1.002-6.118 3.075-6.062 7.407-10.991 10.128-17.43 16.432-38.893 26.228-75.185 26.227-119.672 0-44.028-7.104-82.11-25.153-119.726-10.11-21.07-27.704-48.026-44.494-64.676-3.33-3.303-5.125-6.722-8.747-9.617-16.154-12.912-17.427-6.522-29.152 10.98-7.49 11.181-13.145 23.02-18.249 35.825-1.939 4.865-3.263 8.385-4.937 13.428-6.146 18.507-10.94 38.556-13.848 58.592-4.113 28.35-3.886 58.255-1.233 86.325.462 4.889 1.947 11.32 1.947 16.412-2.91-3.37-4.333-5.654-6.14-10.172-1.62-4.044-3.165-8.334-4.163-13.182-2.998-14.58-3.937-31.517-3.972-47.04-.027-12 1.346-21.585 2.077-32.612.331-4.991 1.617-10.668 2.005-15.344-56.427-27.045-121.72-36.434-184.25-24.063-13.752 2.72-24.334 6.315-36.508 10.424-11.5 3.88-21.935 9.025-32.618 14.315-26.636 13.19-50.86 32.866-71.351 54.142l-14.005 17.623c-8.55 12.11-16.524 26.595-21.31 40.929-2.78 8.33-4.895 15.97-7.055 24.573-2.228 8.875-3.738 16.957-5.31 26.318l-3.343 28.286c-1.156 8.862-2.54 34.483-1.165 43.57.82 5.413.04 10.456.484 15.838 1.585 19.257 4.348 37.486 7.673 55.584 6.812 37.07 9.776 38.743-28.869 55.954-6.352 2.83-15.648 6.608-17.995 13.637-7.905 23.664 33.076 70.797 45.263 78.935 13.52-1.124 25.53-7.339 31.945-16.013 6.062-8.196 11.896-22.328 12.951-35 1.732 2.748 1.883 5.48 2.047 9.163.75 16.923-2.428 32.587-15.602 43.597-3.304 2.762-10.554 7.406-15.02 8.446 3.345 5.026 19.407 12.331 25.492 15.328 19.16 9.437 41.724 16.636 63.406 20.258 51.238 8.558 102.79 2.429 151.634-7.264 10.755-2.133 23.053-7 33.917-7.907-2.904 3.94-23.39 13.852-29.588 15.294 0 3.64-.72 8.693-1.193 13.094l-1.902 41.02 3 39.85c.343 3.585.756 7.146 1.234 10.686H392.76c-3.689-26.104-4.912-52.32-2.571-73.166.475-4.235-.012-8.86.116-13.148.154-5.205 1.053-5.6 1.053-11.19-4.987.112-40.031 11.222-93.864 11.223-44.332.001-71.038-5.095-109.905-21.708-41.521-17.747-74.732-48.638-92.844-90.802-5.712-13.294-12.98-28.3-3.971-40.137 7.48-9.83 19.523-9.538 33.288-18.743 20.878-13.961 21.028-13.04 16.52-30.828-4.953-19.538-7.15-35.126-9.963-55.335-.583-4.188-1.24-8.172-1.438-11.824-1.865-34.42-2.796-33.993-.065-74.485 1.555-23.057 6.716-43.942 13.924-64.636 1.262-3.622 2.292-6.079 3.803-9.46 1.356-3.034 2.354-5.898 3.73-8.51 1.94-3.672 3.204-7.642 5.102-11.223 1.218-2.53 1.279-3.65 2.853-6.332l20.181-29.812c1.765-2.257 1.722-2.412 3.732-4.43l34.452-31.868c2.926-1.963 9.383-5.655 11.22-8.158 3.278-.874 4.906-2.62 7.742-4.505l15.06-8.405c3.253-1.638 4.12-2.605 7.12-4.105 3.142-1.571 5.273-2.09 8.516-3.726 54.074-27.273 128.523-32.936 186.278-21.345 17.178 3.447 53.807 14.057 70.142 22.7 1.519-18.244 17.862-64.562 27.963-81.204 11.065-18.233 22.258-37.79 44.451-24.877 7.704 4.482 8.568 6.649 13.139 10.327 1.739 1.4 2.129 1.437 3.997 3.144l14.217 16.391c18.618 22.107 34.616 49.367 45.322 79.15 19.34 53.803 24.895 129.381 4.08 186.968-2.984 8.255-5.708 14.05-9.311 21.297-10.943 22.005-16.369 19.31-16.383 30.549-.026 20.183-1.418 39.2-2.016 59.2l.01 77.596c-.028 6.768 1.078 8.8 1.078 15.246.002 14.487 2.252 29.466 2.997 42.915 1.02 18.415 4.215 38.477 7.03 55.206 1.547 9.194 2.655 17.136 4.474 26.133l4.85 25.758c21.152 0 29.81-.738 46.131-4.882 13.15-3.339 35.058-13.807 52.746-22.182z"/>
    <path fill-rule="evenodd" d="M429.062 525.535c-5.109-4.698-11.838-7.196-19.374-7.686-4.652-.302-7.436 4.422-9.076 7.788 9.951.184 23.312 4.495 29.21 12.238 2.865 3.764 2.48 6.535 5.798 8.684-.548-9.21.199-12.65-4.725-19.03zM413.861 507.666c15.252-.188 19.842-1.647 33.547 12.419-2.107-14.675-12.613-24.002-28.033-21.994-1.9 3.08-4.17 6.782-5.514 9.575zM385.598 539.991c5.075 6.123 17.512 5.537 18.82 27.516 5.367-7.008 4.523-19.779-4.155-28.814-3.011-3.135-4-2.558-6.507-5.867-3.458 2.26-5.093 4.837-8.158 7.165zM414.473 303.46c4.2 3.027 8.214 6.305 12.95 9.743 13.726-9.494 21.392-25.34 25.625-47.911 8.484 9.985 7.084 21.834-.498 35.068-5.879 10.262-13.665 15.378-18.837 23.137l10.883 20.721c20.503-5.867 40.38-22.135 47.502-40.408 1.215 38.336-22.195 36.193-44.679 52.469l5.328 22.44c23.618-2.023 31.801-11.955 42.832-22.505-4.579 23.307-22.178 34.274-49.767 33.183-4.504-32.714-13.694-56.898-31.34-72.593z"/>
</svg>
