<svg xmlns="http://www.w3.org/2000/svg" viewBox="0 0 725.669 725.669">
    <g fill-rule="evenodd">
        <path fill="#ff2a2a" d="M170.444 83.57l306.854 205.613 183.545 167.584 5.115 15-183.42 217.045-216.122-227.953L58.51 151.369 43.147 71.065 59.17 53.528z"/>
        <path fill="#ff2a2a" d="M219.66 370.902c63.78 0 194.653-33.841 244.546-67.25 13.714 7.256 164.305 127.326 177.297 146.727-67.502 35.718-196.1 70.308-299.57 70.308-9.103 0-13.505-9.847-17.969-15.657zM115.727 215.004c34.144 0 77.225-14.967 103.523-24.866 14.66-5.518 29.451-15.975 43.258-21.321 14.132-5.473 22.373 5.093 42.743 18.674 26.043 17.365 49.564 34.769 75.847 52.541 10.738 7.262 67.068 47.247 73.938 57.506-10.69 2.49-15.21 6.521-25.745 10.936-11.599 4.859-16.337 7.135-27.939 11.801-20.496 8.246-35.06 12.424-58.181 18.239-20.156 5.07-44.507 10.334-63.226 13.195-14.598 2.233-61.605 6.255-69.456 10.022zm145.198-57.452c-44.821 23.739-103.806 45.224-154.368 45.224-1.125-4.21-32.757-61.278-45.034-92.524-48.588-123.666 177.358 29.572 199.403 47.3zM459.7 715.837c8.125-9.617 14.89-17.622 22.837-27.025l-134.49-155.899c90.766 0 190.062-25.364 271.666-58.47 11.13-4.516 21.648-12.011 34.017-14.893l12.227 12.216c7.58-8.967 19.496-23.068 25.938-30.69l-49.622-40.377c-38.373-35.674-132.51-110.256-175.45-142.46-94.535-70.899-191.29-140.636-298.11-194.04-33.648-16.82-62.28-37.82-101.984-38.88-92.41-2.466-27.794 136.238.643 183.017 4.72 7.764 7.732 12.981 12.592 21.032 30.199 50.022 152.536 216.45 190.796 267.73 27.248 36.519 151.628 193.7 188.94 218.739z"/>
        <path fill-opacity=".2" d="M219.66 370.902c63.78 0 194.653-33.841 244.546-67.25 13.714 7.256 164.305 127.326 177.297 146.727-67.502 35.718-196.1 70.308-299.57 70.308-9.103 0-13.505-9.847-17.969-15.657zM115.727 215.004c34.144 0 77.225-14.967 103.523-24.866 14.66-5.518 29.451-15.975 43.258-21.321 14.132-5.473 22.373 5.093 42.743 18.674 26.043 17.365 49.564 34.769 75.847 52.541 10.738 7.262 67.068 47.247 73.938 57.506-10.69 2.49-15.21 6.521-25.745 10.936-11.599 4.859-16.337 7.135-27.939 11.801-20.496 8.246-35.06 12.424-58.181 18.239-20.156 5.07-44.507 10.334-63.226 13.195-14.598 2.233-61.605 6.255-69.456 10.022zm145.198-57.452c-44.821 23.739-103.806 45.224-154.368 45.224-1.125-4.21-32.757-61.278-45.034-92.524-48.588-123.666 177.358 29.572 199.403 47.3zM459.7 715.837l22.837-27.025-134.49-155.899c90.766 0 190.062-25.364 271.666-58.47 11.13-4.516 21.648-12.011 34.017-14.893l12.227 12.216 25.938-30.69-49.622-40.377c-38.373-35.674-132.51-110.256-175.45-142.46-94.535-70.899-191.29-140.636-298.11-194.04-33.648-16.82-62.28-37.82-101.984-38.88-92.41-2.466-27.794 136.238.643 183.017 4.72 7.764 7.732 12.981 12.592 21.032 30.199 50.022 152.536 216.45 190.796 267.73 27.248 36.519 151.628 193.7 188.94 218.739z"/>
    </g>
</svg>
