<svg xmlns="http://www.w3.org/2000/svg" viewBox="0 0 725.669 725.669">
    <path fill="#ff2a2a" fill-rule="evenodd" d="M127.665 197.267c2.92-1.019 5.864-2.4 8.518-3.465 73.538-29.529 113.576-.496 136.758 68.98 12.848 38.504 17.225 124.827 12.425 168.162l-4.464 56.54c5.791-3.879 11.943-11.864 15.898-18.15 2.372-3.77 4.008-6.72 6.35-10.675l6.125-9.48c0 14.655 1.497 25.016 1.428 38.295-.161 31.454 4.059 74.434 11.043 103.87 4.9 20.653 10.978 40.472 20.205 56.404 7.443 12.852 24.26 33.34 39.677 36.931-15.893-23.735-15.605-87.826-15.605-129.1l12.757 25.548c11.533 23.246 30.631 48.345 48.6 66.312 34.906 34.902 52.482 42.463 91.86 61.358-1.585-5.936-36.08-38.27-39.723-53.91 19.993 13.388 45.699 28.76 70.743 37.077 9.54 3.168 31.512 9.847 45.216 7.986 8.003-1.087 34.639-6.88 37.258-16.69-27.866 0-51.113-9.566-68.918-20.458-5.747-3.516-8.268-5.456-13.05-9.648-4.676-4.098-7.693-5.774-12.01-10.69-22.74-25.888-34.779-56.153-41.867-91.489l-7.478-59.199c-.172-7.032-1.242-13.63-1.382-19.898l3.4 7.949c1.085 3.33 1.554 5.26 2.85 8.5 5.253 13.146 15.777 30.378 23.944 41.315 10.91 14.612 29 34.498 44.996 42.962-1.512-5.662-9.594-10.065-18.733-46.527-11.21-44.73-12.48-70.44-12.478-115.202l-1.465-31.165c-.3-10.04-1.166-20.218-1.415-29.796-1.23-47.385-10.99-124.078-22.368-169.154l-14.475-49.365c34.156.761 62.227 69.948 75.19 79.446 0-12.147-5.842-33.201-8.51-43.981-7.399-29.895-21.813-64.294-40.917-88.182L506.13 65.059c-35.396-35.11-83.585-55.853-157.253-47.28-71.07 8.272-132.811 38.637-185.725 73.893-20.22 13.472-68.92 50.764-73.439 77.582z"/>
    <path fill="#f5ea7d" fill-rule="evenodd" d="M98.095 175.441l10.053 7.42c7.616-10.509 49.866-38.653 58.521-43.689 21.724-12.637 46.863-24.169 76.06-27.181 33.532-3.46 60.033 8.993 78.703 24.303l12.573 12.917a165.554 165.554 0 0 1 10.873 14.674c46.997 71.23 37.252 134.731 41.04 218.623 2.108 46.696 4.012 101.119 8.16 147.556 1.166 13.061 5.262 36.884 4.785 48.219 1.059 3.42.461 1.841 2.746 5.51 1.358 2.181 2.23 3.336 4.01 5.935l25.14 33.966c-8.145-46.793-9.904-42.117-11.948-95.066-2.375-61.537 3.543-147.436 8.57-209.928 2.78-34.562 5.034-68.35-1.173-102.686-18.526-102.47-93.568-150.763-188.651-132.172-46.578 9.107-49.098 18.036-77.548 31.718-18.152 13.863-17.333 12.614-33.271 27.654-12.249 11.559-18.439 20.073-28.643 32.227z"/>
    <path fill="#f13e32" fill-rule="evenodd" d="M365.336 510.577l-1.163-3.849c-3.811 20.602-6.759 83.603-5.931 108.495.152 4.564 1.203 10.655-.767 14.489-2.113-4.544-4.957-7.914-7.674-12.522-29.494-50.003-28.335-143.799-26.77-200.272.58-20.877 5.586-59.317 3.753-77.462.951 4.355-19.142 80.216-22.396 87.954-3.443-76.037-11.33-218.51-90.037-253.58-31.445-14.01-67.85-.681-93.258 11.44 2.931-4.842 7.1-6.614 12.37-9.796 3.755-2.266 8.13-5.18 12.47-7.388 9.476-4.82 17.087-8.514 27.375-12.392 21.632-8.152 46.588-9.461 69.277-2.934 24.736 7.116 43.453 22.607 58.938 41.735 58.054 71.714 59.424 151.23 61.868 240.568.412 15.054-1.153 66.285 1.945 75.514z"/>
    <path fill="#f57534" fill-rule="evenodd" d="M108.148 182.861l7.034 5.192 5.911-2.783c2.931-4.842 7.1-6.613 12.37-9.796 3.755-2.266 8.13-5.18 12.47-7.388 9.475-4.819 17.087-8.514 27.375-12.392 21.632-8.152 46.588-9.461 69.277-2.934 24.736 7.116 43.453 22.607 58.938 41.735 58.054 71.713 59.424 151.23 61.868 240.568.412 15.054-1.153 66.285 1.944 75.514 4.942 14.635 8.447 24.304 14.533 36.833 3.39 6.98 14.794 27.51 18.995 30.873.477-11.335-3.619-35.158-4.785-48.219-4.148-46.437-6.052-100.86-8.16-147.556-3.788-83.892 5.957-147.393-41.04-218.623a165.554 165.554 0 0 0-10.873-14.674l-12.573-12.917c-18.67-15.31-45.17-27.762-78.704-24.303-29.196 3.012-54.335 14.544-76.059 27.181-8.655 5.036-50.905 33.18-58.52 43.69z"/>
    <path fill="#ff7f2a" fill-rule="evenodd" d="M233.555 67.018C259.19 55.748 315.324 57.7 343.145 65c35.593 9.338 53.048 22.979 72.913 50.409 93.391 128.955 16.619 338.817 29.614 488.4 1.287 14.818 2.524 22.186 4.055 27.51l31.588 28.397c-.837-1.733-1.455-3.355-1.798-4.828 19.993 13.388 45.699 28.76 70.743 37.077 9.54 3.168 31.512 9.847 45.216 7.986 8.003-1.087 34.639-6.88 37.258-16.69-27.866 0-51.113-9.566-68.918-20.458-5.747-3.516-8.268-5.456-13.05-9.649-4.676-4.097-7.693-5.773-12.01-10.688-22.74-25.89-34.779-56.154-41.867-91.49l-7.478-59.199c-2.243-91.96 16.438-202.976-3.433-291.47-9.238-41.146-30.617-90.449-61.285-119.066-12.815-11.958-32.09-26.65-55.465-33.89-33.496-10.373-47.675-6.696-81.426-5.235-20.886 8.068-38.164 16.436-54.247 24.903z"/>
    <path fill="#79c240" fill-rule="evenodd" d="M430.759 623.693c-8.145-46.793-9.904-42.116-11.948-95.065-2.375-61.537 3.543-147.436 8.57-209.928 2.78-34.562 5.034-68.35-1.173-102.686-18.526-102.47-93.568-150.763-188.65-132.172-46.58 9.107-49.099 18.036-77.549 31.718 2.657-6.383 28.504-23.13 34.262-26.81 11.412-7.294 25.193-15.536 39.284-21.732C259.19 55.748 315.324 57.7 343.145 65c35.593 9.338 53.048 22.979 72.913 50.409 93.391 128.955 16.619 338.817 29.614 488.4 2.999 34.525 5.724 28.622 12.532 50.603-7.313-6.048-23.025-23.607-27.445-30.717z"/>
    <path fill="#652f8a" fill-rule="evenodd" d="M527.477 511.858c-8.737-13.399-23.38-43.66-29.935-60.843-13.939-36.537 9.47-157.036-11.564-250.71-9.239-41.145-30.617-90.448-61.285-119.065-12.815-11.958-32.09-26.65-55.465-33.89-33.496-10.373-47.675-6.696-81.426-5.235 13.88-9.265 64.396-13.615 83.895-13.527 28.048.128 56.689 5.306 80.167 15.522 11.812 5.14 21.335 10.696 30.673 17.577 3.995 2.943 11.005 8.11 13.357 10.788l12.003 12.073c11.743 14.685 28.121 36.508 34.293 60.746-5.088-2.424-11.827-8.355-17.725-12.028-20.1-12.52-35.444-21.161-61.219-24.9 40.116 64.253 45.814 98.325 50.549 184.805 2.014 36.779 3.078 73.824 4.93 110.554 1.885 37.35 5.292 71.272 8.752 108.133z"/>
</svg>
