<svg xmlns="http://www.w3.org/2000/svg" viewBox="0 0 725.669 725.669">
    <path fill="#ff2a2a" fill-rule="evenodd" d="M146.71 175.862l5.58 5.62zm10.937 11.016l5.289 5.326zm8.475 8.535l9.995 10.066zM138.033 167.125l9.684-20.587c10.154-18.986 28.462-41.99 44.194-56.522 34.815-32.159 69.358-52.526 117.047-64.262 32.958-8.111 72.482-7.718 104.695 5.326 22.957 9.295 31.754 14.785 52.195 28.323 57.462 38.057 98.758 99.166 112.415 169.649 8.86 45.729 10.684 101.932 4.453 149.46-6.75 51.493-9.011 81.032-38.1 122.992-11.615 16.753-23.323 28.257-39.513 41.07-10.842 8.581-31.24 20.78-44.895 25.678-2.906 1.042-5.093 1.094-6.966 3.2-8.444 6.136-20.14 10.983-32.077 12.752-14.983 2.22-23.818.357-38.173-3.735-1.617-1.252-14.846-3.005-18.561-4.06-15.692-4.453-33.076-12.9-43.676-24.267-11.485-12.317-20.505-25.752-25.497-42.442-18.848-63.026 14.313-109.75 35.578-159.06 8.88-20.59 18.767-47.599 15.223-75.915-2.832-22.622-16.633-48.678-29.91-61.409-28.657-27.478-68.177-28.321-106.884-18.704-8.59 2.135-25.79 6.608-33.148 10.867z"/>
    <path fill="#ff2a2a" fill-rule="evenodd" d="M453.635 573.65l-64.94 21.107c-.081-.3-.338-.306-.523-.44-1.693 4.92-28.066 25.602-22.218 72.202 1.341 10.684 6.364 33.211 20.759 22.98 8.19-5.823 12.175-24.208 15.803-32.104 2.441 1.886 6.602 12.805 12.357 19.746 5.203 6.277 8.718 10.392 15.148 15.869 26.296 22.397 68.735 21.621 97.822 8.238 10.582-4.869 25.087-15.93 8.888-24.206-4.035-2.062-7.403-1.672-12.905-2.373 17.977-4.744 36.406-24.354 42.067-40.241 7.824-21.957 7.437-50.211 1.113-73.36-2.985 1.512-4.776 9.61-6.392 13.477-3.325 7.96-15.648 32.75-25.597 33.822.706-10.48 4.636-20.7-.468-30.78-14.348-28.327-72.053-4.568-80.914-3.936z"/>
    <path fill="#ff7f2a" fill-rule="evenodd" d="M382.992 580.47c1.2 6.797 2.278 9.01 5.18 13.847.184.134.441.14.523.44l3.668 3.26c1.513 1.15 3.106 1.964 4.567 3.21 17.59 5.833 23.924 3.645 40.417-1.693.55-.449.732-.54 1.714-1.2l10.737-8.154c.972-2.162 2.417-3.249 3.516-6.61.704-3.686.632-6.687.32-9.92l-.392-2.197c-10.544 2.01-19.792 5.801-31.73 7.57-14.982 2.22-24.24 1.038-38.52 1.446z"/>
    <path fill="#fff" fill-opacity=".2" fill-rule="evenodd" d="M153.17 182.368l6.152 6.196c8.102-7.073 30.41-20.593 35.72-23.446 45.956-24.686 96.45-41.774 150.9-30.168 23.822 5.078 44.388 17.97 56.64 37.143 24.446 38.25 20.654 88.42 8.562 131.275-3.888 13.783-16.117 41.94-23.787 53.97-1.892 2.966-3.911 7.131-5.745 10.296l-11.851 20.14c-15.673 29.814-28.56 65.908-25.393 101.113 2.772 30.82 13.842 56.018 38.418 72.518 4.838 3.247 6.643 2.643 13.623 2.813 20.617.503 37.804-4.26 53.322-9.942 6.224-2.279 16.644-6.603 21.657-10.398 11.827-8.954 31.1-42.604 37.367-57.684 3.093-7.444 5.808-14.456 8.412-22.65 17.703-55.711 22.037-138.581 11.26-198.805-9.86-55.1-28.67-97.552-66.72-139.08-15.88-17.33-43.293-36.527-64.76-46.277-31.676-14.389-69.977-18.516-106.513-7.299-8.65 2.657-15.763 4.397-23.312 7.881-3.915 1.808-7.485 3.006-11.173 4.906-27.173 14-51.668 30.806-72.153 54.705-2.914 3.4-5.168 5.664-7.506 8.37-6.028 6.977-17.909 23.329-23.12 34.423z"/>
    <path fill="#fff" fill-opacity=".2" fill-rule="evenodd" d="M162.936 192.204l3.186 3.209c4.564-1.305 11.143-4.296 15.179-5.856 5.57-2.153 11.37-3.572 17.197-5.561 20.962-7.156 56.529-9.676 79.211-5.043 14.762 3.015 33.272 12.176 43.98 22.118 11.039 10.25 12.152 13.097 19.884 24.572 18.244 27.076 22.964 56.996 13.194 89.456-10.723 35.624-24.854 59.261-39.42 94.117-15.78 37.762-18.95 81.91 4.708 115.03 1.805 2.525 3.161 3.791 4.857 5.998 8.486 11.044 28.721 24.456 42.69 25.916-1.39-2.944-3.551-4.756-5.79-7.302-2.196-2.5-3.78-4.79-5.958-7.526-2.745-3.448-7.653-12.894-9.221-16.712-14.526-35.37-10.856-74.759 1.675-109.506l7.376-18.671c6.45-12.056 10.364-21.408 18.426-33.546 6.947-10.459 12.57-22.53 18.192-33.916 18.013-36.484 28.264-89.236 16.047-130.279-8.37-28.12-21.962-45.003-48.872-55.665-13.014-5.157-28.637-8.12-45.045-8.27-44.16-.4-84.594 15.99-120.509 36.027-6.44 3.592-10.625 6.014-16.147 9.982-4.321 3.105-11.94 7.155-14.84 11.428z"/>
    <path fill="#fff" fill-opacity=".2" fill-rule="evenodd" d="M143.735 172.866l2.974 2.996 10.107-16.956c17.571-28.322 54.25-62.256 84-77.822 49.968-26.145 100.32-36.228 155.242-13.898 18.679 7.595 34.849 18.719 49.873 30.704 95.827 76.444 108.913 212.045 86.49 332.122-6.23 33.364-15.2 54.771-30.45 82.655-2.335 4.272-4.76 6.667-6.456 10.823 4.625-1.258 15.537-12.669 19.126-16.78l11.817-14.188c28.006-42 31.265-60.071 38.08-112.444 8.02-61.631 7.177-136.117-13.003-191.372-12.808-35.074-32.318-62.74-55.566-86.343-20.376-20.686-53.735-45.77-83.823-57.414-46.632-18.045-100.446-14.592-146.943 7.38-30.15 14.247-60.112 34.793-82.102 60.014-10.34 11.86-34.268 42.699-39.366 60.523zM437.348 599.534c-16.494 5.338-22.829 7.526-40.418 1.694-11.246 2.234-30.338 44.667-17.134 77.47 9.891-4.936 20.286-51.708 22.79-57.152.283.35.339.29.864 1.486.418.953.48 1.25.855 2.44l4.206 15.938c4.167 12.776 9.433 25.99 19.076 34.819 4.769 4.367 6.998 8.086 14.806 12.061 24.038 12.24 52.265 12.57 77.713 1.208 4.735-2.114 6.79-2.89 8.061-5.973-3.52-2.937-23.408-6.496-28.39-7.507-2.616-.531-7.478-.997-9.57-1.729 3.252-1.948 43.436-9.089 49.236-23.523-8.074 1.763-17.514 10.966-47.024 10.912-12.48-.023-37.872-2.498-48.568-10.057 6.871-4.353 13.383-5.795 22.086-12.209 17.78-13.104 28.288-32.57 3.11-39.354-4.931-1.329-10.41-1.737-16.1-1.679-5.382.056-11.476 1.588-15.6 1.155z"/>
    <path fill="#fff" fill-opacity=".2" fill-rule="evenodd" d="M453.314 583.57c-1.1 3.361-2.544 4.447-3.516 6.61 3.2 2.917 11.177-1.601 26.473 4.627 6.551 2.668 13.954 8.033 14.491 17.315.602 10.401-3.62 16.787-8.614 22.497-8.192 9.367-15.128 11.158-17.316 15.323.182.194.47.185.592.533.12.342.432.396.6.5 5.877 3.638 25.816 3.776 32.297 3.513 10.232-.417 22.53-3.504 30.2-7.039 6.062-2.794 18.899-9.883 22.34-14.618 3.488-4.8 8.404-22.391 8.047-29.993-2.524 1.492-2.723 2.335-4.732 4.76-6.42 7.75-17.317 16.754-26.793 20.99-4.744 2.119-10.682 5.637-13.317 5.927 1-5.06 6.587-12.774 8.726-19.664 2.059-6.632 4.415-18.893 3.652-26.228-.313-3.012-.844-5.538-2.62-7.897-13.891-18.45-54.404-2.792-70.51 2.843z"/>
</svg>
