<?xml version="1.0" encoding="UTF-8" standalone="no"?>
<svg
   xmlns:dc="http://purl.org/dc/elements/1.1/"
   xmlns:cc="http://creativecommons.org/ns#"
   xmlns:rdf="http://www.w3.org/1999/02/22-rdf-syntax-ns#"
   xmlns:svg="http://www.w3.org/2000/svg"
   xmlns="http://www.w3.org/2000/svg"
   xmlns:xlink="http://www.w3.org/1999/xlink"
   xmlns:sodipodi="http://sodipodi.sourceforge.net/DTD/sodipodi-0.dtd"
   xmlns:inkscape="http://www.inkscape.org/namespaces/inkscape"
   inkscape:version="1.0 (4035a4fb49, 2020-05-01)"
   sodipodi:docname="11111.svg"
   viewBox="0 0 725.66931 725.66931"
   id="svg82"
   height=""
   width=""
   version="1.1">
  <metadata
     id="metadata88">
    <rdf:RDF>
      <cc:Work
         rdf:about="">
        <dc:format>image/svg+xml</dc:format>
        <dc:type
           rdf:resource="http://purl.org/dc/dcmitype/StillImage" />
        <dc:title></dc:title>
      </cc:Work>
    </rdf:RDF>
  </metadata>
  <defs
     id="defs86">
    <linearGradient
       inkscape:collect="always"
       id="linearGradient1390">
      <stop
         style="stop-color:#ffaaaa;stop-opacity:1"
         offset="0"
         id="stop1386" />
      <stop
         style="stop-color:#ff2a2a;stop-opacity:0"
         offset="1"
         id="stop1388" />
    </linearGradient>
    <linearGradient
       id="linearGradient3972">
      <stop
         id="stop3974"
         offset="0"
         style="stop-color:#ffd5d5;stop-opacity:1" />
      <stop
         style="stop-color:#ffaaaa;stop-opacity:0.7647059"
         offset="0.58698183"
         id="stop3978" />
      <stop
         id="stop3980"
         offset="1"
         style="stop-color:#ff8080;stop-opacity:0" />
    </linearGradient>
    <linearGradient
       id="linearGradient3956"
       inkscape:collect="always">
      <stop
         id="stop3958"
         offset="0"
         style="stop-color:#3b3b3b;stop-opacity:1" />
      <stop
         id="stop3960"
         offset="1"
         style="stop-color:#ff2a2a;stop-opacity:1" />
    </linearGradient>
    <linearGradient
       inkscape:collect="always"
       id="linearGradient3940">
      <stop
         style="stop-color:#ff5555;stop-opacity:1"
         offset="0"
         id="stop3942" />
      <stop
         style="stop-color:#ff8080;stop-opacity:0"
         offset="1"
         id="stop3944" />
    </linearGradient>
    <linearGradient
       id="linearGradient3932">
      <stop
         style="stop-color:#ffe680;stop-opacity:1;"
         offset="0"
         id="stop3934" />
      <stop
         id="stop3948"
         offset="0.56368923"
         style="stop-color:#ffcc00;stop-opacity:1" />
      <stop
         style="stop-color:#ff7f2a;stop-opacity:0"
         offset="1"
         id="stop3936" />
    </linearGradient>
    <linearGradient
       id="linearGradient3151"
       inkscape:collect="always">
      <stop
         id="stop3153"
         offset="0"
         style="stop-color:#d77c28;stop-opacity:1" />
      <stop
         id="stop3155"
         offset="1"
         style="stop-color:#6a2f2f;stop-opacity:0" />
    </linearGradient>
    <linearGradient
       inkscape:collect="always"
       id="linearGradient3141">
      <stop
         style="stop-color:#ffd5d5;stop-opacity:1"
         offset="0"
         id="stop3143" />
      <stop
         style="stop-color:#ffaaaa;stop-opacity:1"
         offset="1"
         id="stop3145" />
    </linearGradient>
    <linearGradient
       inkscape:collect="always"
       id="linearGradient3125">
      <stop
         style="stop-color:#5c4141;stop-opacity:1"
         offset="0"
         id="stop3127" />
      <stop
         style="stop-color:#ff2a2a;stop-opacity:1"
         offset="1"
         id="stop3129" />
    </linearGradient>
    <linearGradient
       id="linearGradient3109">
      <stop
         style="stop-color:#ffd5d5;stop-opacity:1"
         offset="0"
         id="stop3111" />
      <stop
         id="stop3950"
         offset="0.36154756"
         style="stop-color:#ff8080;stop-opacity:1" />
      <stop
         style="stop-color:#ff2a2a;stop-opacity:1"
         offset="1"
         id="stop3113" />
    </linearGradient>
    <linearGradient
       inkscape:collect="always"
       xlink:href="#linearGradient3109"
       id="linearGradient3115"
       x1="380.24225"
       y1="364.18329"
       x2="376.83963"
       y2="589.60651"
       gradientUnits="userSpaceOnUse" />
    <linearGradient
       inkscape:collect="always"
       xlink:href="#linearGradient3125"
       id="linearGradient3131"
       x1="399.80728"
       y1="374.39111"
       x2="403.2099"
       y2="196.60446"
       gradientUnits="userSpaceOnUse" />
    <linearGradient
       inkscape:collect="always"
       xlink:href="#linearGradient3151"
       id="linearGradient3147"
       x1="353.87198"
       y1="604.06763"
       x2="353.87198"
       y2="644.04834"
       gradientUnits="userSpaceOnUse" />
    <linearGradient
       inkscape:collect="always"
       xlink:href="#linearGradient3141"
       id="linearGradient3149"
       x1="347.06674"
       y1="479.87216"
       x2="347.91739"
       y2="496.88525"
       gradientUnits="userSpaceOnUse" />
    <radialGradient
       inkscape:collect="always"
       xlink:href="#linearGradient3932"
       id="radialGradient3938"
       cx="411.44177"
       cy="95.696487"
       fx="411.44177"
       fy="95.696487"
       r="184.11919"
       gradientTransform="matrix(-1.3714322,0.09700131,-0.04900854,-0.69289695,946.6447,211.09273)"
       gradientUnits="userSpaceOnUse" />
    <radialGradient
       inkscape:collect="always"
       xlink:href="#linearGradient3940"
       id="radialGradient3946"
       cx="352.12067"
       cy="385.37195"
       fx="352.12067"
       fy="385.37195"
       r="209.4483"
       gradientTransform="matrix(-1.3508287,0.27624146,-0.19096313,-0.93387472,949.90444,496.65203)"
       gradientUnits="userSpaceOnUse" />
    <linearGradient
       inkscape:collect="always"
       xlink:href="#linearGradient3956"
       id="linearGradient3954"
       x1="382.79422"
       y1="667.8667"
       x2="383.64484"
       y2="583.65192"
       gradientUnits="userSpaceOnUse" />
    <radialGradient
       inkscape:collect="always"
       xlink:href="#linearGradient3972"
       id="radialGradient3970"
       gradientUnits="userSpaceOnUse"
       gradientTransform="matrix(-1.3194602,0.12421475,-0.07039294,-0.74774287,928.10053,215.22796)"
       cx="407.58768"
       cy="118.78004"
       fx="407.58768"
       fy="118.78004"
       r="184.11919" />
    <linearGradient
       inkscape:collect="always"
       xlink:href="#linearGradient1390"
       id="linearGradient3982"
       gradientUnits="userSpaceOnUse"
       x1="353.87198"
       y1="604.06763"
       x2="353.87198"
       y2="665.3147" />
    <linearGradient
       id="linearGradient1107">
      <stop
         offset="0.0000%"
         stop-color="#ffd5d5"
         stop-opacity="1.0000"
         id="stop1018" />
      <stop
         offset="36.0000%"
         stop-color="#ff8080"
         stop-opacity="1.0000"
         id="stop1020" />
      <stop
         offset="100.0000%"
         stop-color="#ff2a2a"
         stop-opacity="1.0000"
         id="stop1022" />
    </linearGradient>
    <linearGradient
       xlink:href="#grad1"
       id="linearGradient1109"
       x1="0"
       y1="0"
       x2="0"
       y2="1"
       gradientTransform="rotate(3,0.5,0.5)"
       gradientUnits="objectBoundingBox" />
    <linearGradient
       id="linearGradient1113">
      <stop
         offset="0%"
         stop-color="#3b3b3b"
         stop-opacity="1.0000"
         id="stop1034" />
      <stop
         offset="100%"
         stop-color="#ff2a2a"
         stop-opacity="1.0000"
         id="stop1036" />
    </linearGradient>
    <linearGradient
       xlink:href="#grad3"
       id="linearGradient1115"
       x1="0"
       y1="0"
       x2="0"
       y2="1"
       gradientTransform="rotate(-179,0.5,0.5)"
       gradientUnits="objectBoundingBox" />
    <linearGradient
       id="grad5-8">
      <stop
         offset="0%"
         stop-color="#ff2a2a"
         stop-opacity="1.0000"
         id="stop1044" />
      <stop
         offset="100%"
         stop-color="#ff2a2a"
         stop-opacity="1.0000"
         id="stop1046" />
    </linearGradient>
    <linearGradient
       xlink:href="#linearGradient1160"
       id="grad6-8"
       x1="82.092257"
       y1="46.412232"
       x2="82.092257"
       y2="453.52521"
       gradientTransform="scale(1.3050963,0.76622699)"
       gradientUnits="userSpaceOnUse" />
    <radialGradient
       gradientUnits="userSpaceOnUse"
       fy="410.8496"
       fx="438.5762"
       gradientTransform="scale(1.4115741,0.70842897)"
       id="grad7-5"
       cx="438.5762"
       cy="410.8496"
       r="165.33717">
      <stop
         offset="0%"
         stop-color="#ff8080"
         stop-opacity="1.0000"
         id="stop1054" />
      <stop
         offset="100%"
         stop-color="#c83737"
         stop-opacity="1.0000"
         id="stop1056" />
    </radialGradient>
    <linearGradient
       id="linearGradient1126">
      <stop
         offset="0%"
         stop-color="#ffd5d5"
         stop-opacity="1.0000"
         id="stop1063" />
      <stop
         offset="100%"
         stop-color="#ff8080"
         stop-opacity="1.0000"
         id="stop1065" />
    </linearGradient>
    <linearGradient
       xlink:href="#grad8"
       id="linearGradient1128"
       x1="0"
       y1="0"
       x2="0"
       y2="1"
       gradientUnits="objectBoundingBox" />
    <linearGradient
       id="linearGradient1132">
      <stop
         offset="0%"
         stop-color="#ff8080"
         stop-opacity="1.0000"
         id="stop1073" />
      <stop
         offset="100%"
         stop-color="#6a2f2f"
         stop-opacity="1.0000"
         id="stop1075" />
    </linearGradient>
    <linearGradient
       xlink:href="#grad10"
       id="linearGradient1134"
       x1="0"
       y1="0"
       x2="0"
       y2="1"
       gradientUnits="objectBoundingBox" />
    <linearGradient
       id="grad12-0">
      <stop
         offset="0.0000%"
         stop-color="#b3b3b3"
         stop-opacity="1.0000"
         id="stop1083" />
      <stop
         offset="41.0000%"
         stop-color="#ffaaaa"
         stop-opacity="1.0000"
         id="stop1085" />
      <stop
         offset="100.0000%"
         stop-color="#ffd5d5"
         stop-opacity="1.0000"
         id="stop1087" />
    </linearGradient>
    <linearGradient
       xlink:href="#grad12-0"
       id="grad13-0"
       x1="95.817482"
       y1="68.071719"
       x2="95.817482"
       y2="354.38769"
       gradientTransform="scale(1.5381642,0.65012564)"
       gradientUnits="userSpaceOnUse" />
    <radialGradient
       id="grad7"
       cx="0.99000001"
       cy="0.99000001"
       r="0.46000001">
      <stop
         offset="0%"
         stop-color="#ff8080"
         stop-opacity="1.0000"
         id="stop1263" />
      <stop
         offset="100%"
         stop-color="#c83737"
         stop-opacity="1.0000"
         id="stop1265" />
    </radialGradient>
    <linearGradient
       xlink:href="#grad12-0"
       id="grad13"
       x1="0"
       y1="0"
       x2="0"
       y2="1"
       gradientTransform="rotate(79,0.5,0.5)"
       gradientUnits="objectBoundingBox" />
  </defs>
  <sodipodi:namedview
     showguides="false"
     inkscape:current-layer="svg82"
     inkscape:window-maximized="1"
     inkscape:window-y="-8"
     inkscape:window-x="-8"
     inkscape:cy="323.4316"
     inkscape:cx="305.60618"
     inkscape:zoom="0.56321483"
     showgrid="false"
     id="namedview84"
     inkscape:window-height="746"
     inkscape:window-width="1304"
     inkscape:pageshadow="2"
     inkscape:pageopacity="0"
     guidetolerance="10"
     gridtolerance="10"
     objecttolerance="10"
     borderopacity="1"
     bordercolor="#666666"
     pagecolor="#ffffff" />
  <g
     transform="matrix(1.2347919,0,0,1.2347919,84.120087,21.564101)"
     id="g1014"
     style="display:inline;stroke-width:0.809853">
    <g
       style="stroke-width:0.809853"
       id="layer2"
       inkscape:label="Réteg"
       transform="translate(-158.37384,-135.45962)">
      <path
         style="color:#000000;display:inline;overflow:visible;visibility:visible;fill:#000000;fill-opacity:1;fill-rule:nonzero;stroke:none;stroke-width:0.971825;marker:none;enable-background:accumulate"
         d="m 400,135.5 c -11.59362,1.4332 -22.4706,6.0888 -34.33565,5.83602 -5.44993,-0.0657 -11.46363,2.82681 -15.97685,-1.17977 -10.34484,-5.03887 -21.66106,-0.041 -30.96875,4.6875 -13.46984,-0.0179 -27.54589,-0.64387 -40,5.4375 -8.28612,2.80298 -16.84932,4.17801 -25.125,6.6875 -7.69227,3.18744 -12.85556,10.34921 -21.03125,12.46875 -15.50925,8.29161 -29.39154,19.79277 -40.5,33.375 -8.66693,10.86871 -21.40812,19.36523 -25.76523,33.2771 -4.70684,11.49521 -6.42441,24.87663 -1.64102,36.6604 -2.63838,8.35556 -10.21147,18.08671 -3.71875,26.71875 2.72188,4.09386 8.97379,7.29361 6.34375,13.09375 -4.59785,10.9023 -6.98503,23.23425 -2.96875,34.71875 1.57302,9.76084 11.15456,16.07967 20.7492,15.16497 6.03684,-1.246 5.58954,7.00419 7.6883,10.58503 1.78002,7.44865 7.93778,12.96848 15.45911,14.22052 4.92461,1.44638 10.11951,2.29194 15.04089,3.37323 6.61162,10.23821 20.08322,13.12025 31.3125,9.9375 4.14715,-1.05964 7.97596,2.40198 12.3125,1.96875 3.78247,-0.70428 5.86038,1.82922 8.625,3.8125 9.32356,5.77906 22.26281,4.56284 30.34375,-2.53125 7.60555,4.23062 16.45118,-0.0546 22.28125,-5.3125 4.04461,3.00293 9.20703,1.03518 13.21875,0.15625 2.27554,2.63945 0.54194,8.56229 1.31496,12.40471 0.4621,16.12962 1.60659,32.31003 -0.90871,48.31404 -1.27397,3.26852 0.86591,10.68383 -2.125,11.875 -4.89166,-0.56541 -9.47256,2.57549 -13.90625,3.3125 -11.43438,-3.86784 -23.06218,-13.08924 -35.65625,-7.96875 -5.13468,0.26766 -11.17444,-0.18929 -14.8125,4.40625 -1.43129,3.13815 -3.96934,3.15483 -7.03125,3.125 -5.18277,-0.21864 -7.70599,5.42021 -12.8125,4.71875 -10.17549,1.08057 -18.66595,14.72341 -10.40625,22.9375 3.74896,3.11949 8.91058,2.77512 12.9375,5.5 5.12188,2.12678 10.83589,-0.12752 15.1875,-2.125 5.58764,3.96811 13.57206,2.3629 19,0.5 6.64819,6.74897 17.52473,6.90439 24.9375,1.3125 4.19412,2.8736 9.92885,1.95943 14.21875,1.71875 1.93926,2.21957 7.14884,1.7252 5.03125,5.90625 -4.9286,29.73785 -9.90543,59.5102 -14.75,89.28125 -2.59038,0.64177 -4.91646,2.38309 -6.21875,-0.96875 -7.03816,-8.10173 -18.2472,-15.86394 -29.25,-12 -4.04062,-4.19858 -10.78683,-3.41256 -15.3125,-1.375 -6.92435,-16.17437 -31.04424,-23.51079 -44,-10.09375 -4.21878,3.828 -6.74497,9.46199 -8.125,14.65625 -7.86844,-0.71293 -15.94924,5.65701 -17.8125,13.21875 -12.07869,1.55973 -23.55456,12.00226 -21.8125,24.90625 0.4328,5.53713 3.91197,10.65887 9,12.9375 0.87851,3.17106 0.58028,5.49731 -1.46875,8.15625 -4.75709,9.54623 3.97315,21.18713 14.375,20.09375 3.77935,0.35518 7.88854,-2.72491 10.3125,1.40625 8.08087,6.02835 18.85868,4.31552 27.90625,1.84375 5.4103,4.02144 12.79631,3.78964 18.875,2.78125 5.79656,2.76427 12.65217,1.284 18.0625,-1 6.11878,1.91154 12.87722,0.63242 18.34375,-2.0625 6.8642,3.49053 14.55343,0.98789 21.5,-0.0312 13.53516,5.19713 27.93908,1.83186 41.90625,1.46875 15.99282,3.22228 33.307,7.32432 49.25,1.5625 2.64204,-1.35683 5.03219,-3.48439 7.34375,-0.5 6.58992,4.14007 14.08667,-0.96779 21.125,1.375 10.40903,1.16259 23.10977,0.49722 29.78125,-8.78125 2.90002,3.23785 7.65321,3.54542 11.34375,4.15625 7.64944,7.32805 20.65726,7.15568 29.5625,2.28125 3.94027,0.61577 8.51268,1.78689 12.375,3.78125 10.40855,2.63825 23.5287,4.37007 32.21875,-3.40625 3.02984,-2.1209 1.84027,-7.45129 6.25,-7.40625 12.00019,-5.05907 20.71372,-17.81626 18.71875,-31.09375 -0.86545,-7.22811 -3.80141,-15.71034 -10.84375,-18.6875 1.03635,-15.41915 -11.49597,-31.63987 -27.34375,-32.0625 -3.54394,-8.33748 -14.32969,-11.85513 -22.5625,-8.90625 -9.44005,-10.0337 -25.79716,-5.92557 -35.34375,1.8125 -3.03218,1.59958 -4.45904,6.52076 -7.5625,6.75 -5.18248,-0.85895 -10.31845,2.09215 -13.125,6.1875 -3.67543,-0.83052 -6.92552,2.70717 -9.5625,3.375 -5.05687,-3.55095 -11.71666,-3.07957 -17.5,-2 -2.31435,-28.10141 -5.11228,-55.97806 -5.1875,-84.15625 4.47925,-0.58836 8.10492,-3.70949 11.21875,-6.53125 5.52341,0.22986 9.61191,5.29162 15.28125,5.65625 6.24355,1.76208 12.23256,-1.47211 17.875,-3.40625 11.01425,1.59451 24.75602,4.29834 33.53125,-4.34375 6.28197,-6.38512 3.50696,-19.00294 -5.875,-20.46875 -0.6628,-5.33792 -5.95567,-8.24695 -10.0625,-9.90625 -2.34579,-5.87406 -8.93459,-8.01824 -14.6875,-8.21875 -7.58517,-5.17556 -18.52117,-6.44265 -25.5,0.46875 -2.82492,2.44283 -5.00962,5.57081 -9.09375,4.21875 -3.57655,0.0398 -6.85813,1.43877 -9.53125,-1.59375 -3.67948,-0.65741 -4.66519,-2.63162 -3.83931,-6.31186 1.62944,-20.62358 -0.13869,-43.29946 0.96431,-62.59439 6.89125,5.04221 16.85391,7.06546 24.46875,2.375 4.30882,2.78269 9.99167,1.79001 14.1875,-0.78125 13.34757,3.64462 28.99431,9.16356 42.09375,1.9375 3.82851,-2.33263 6.58523,-6.06434 8.375,-10.125 8.41896,6.51201 22.32987,9.56831 30.0625,0.375 2.42303,-2.77884 3.88936,-6.29368 4.46875,-9.90625 13.96042,-1.0068 30.74512,-7.074 34.21875,-22.34375 1.40204,-6.13692 0.61728,-12.51123 -0.78125,-18.5625 10.51813,-4.26369 21.67737,-13.71444 19.65625,-26.3125 -0.31322,-5.72511 -4.50657,-10.71096 -6.4375,-15.375 2.21272,-2.89297 -0.66638,-7.75644 4.125,-8.34375 10.94396,-5.17487 15.27447,-19.01689 10.8125,-29.96875 -4.73621,-13.97917 -15.67696,-25.03409 -26.71875,-34.0625 -7.07075,-18.35658 -21.25058,-33.51607 -37.25,-44.59375 -3.59829,-1.80573 -6.93816,-3.51612 -8.5625,-7.46875 -8.183,-12.08438 -22.76575,-19.37913 -37.40582,-17.9706 -5.67354,-0.004 -11.67248,1.87584 -16.53168,-2.0919 -9.16559,-4.79168 -19.09302,-9.23509 -29.71875,-7.71875 -11.87449,-0.0696 -23.97598,-1.9329 -35.1875,-5.78125 C 414.24568,139.52973 407.57193,134.98416 400,135.5 Z"
         id="path3084"
         inkscape:connector-curvature="0" />
      <path
         style="color:#000000;display:inline;overflow:visible;visibility:visible;fill:url(#linearGradient3115);fill-opacity:1;fill-rule:nonzero;stroke:none;stroke-width:0.971825;marker:none;enable-background:accumulate"
         d="m 349.4513,365.58565 c 0,0 3.30711,77.1659 2.20474,81.57538 -1.10237,4.40948 -4.84798,57.23587 -6.61422,67.24457 -3.30711,18.74029 -19.84266,120.15834 -19.84266,120.15834 l 101.41804,-1.10237 c 0,0 -7.71659,-89.29197 -7.71659,-95.9062 0,-6.61422 -2.20474,-73.85879 -1.10237,-79.37064 1.10237,-5.51185 0,-91.49671 0,-91.49671 z"
         id="path3035"
         inkscape:connector-curvature="0"
         sodipodi:nodetypes="cssccsscc" />
      <path
         style="color:#000000;display:inline;overflow:visible;visibility:visible;fill:#501616;fill-opacity:1;fill-rule:nonzero;stroke:none;stroke-width:0.971825;marker:none;enable-background:accumulate"
         d="m 346.53501,492.75214 c -0.0809,0.45859 -0.68786,19.65275 -1.84751,23.71661 3.99038,-0.68973 6.11873,-4.78765 12.33321,-2.15625 4.15988,1.76142 7.22501,-0.51582 14.01054,0.78125 8.64781,1.65305 4.69852,2.06785 15.73993,-0.64326 9.66219,-2.37245 14.0618,1.09126 19.29622,-2.70903 7.41899,-2.78422 11.8065,-0.89372 12.3701,6.25854 -0.35242,-13.63165 -1.38188,-18.84923 -1.50775,-31.69847 z"
         id="path3069"
         inkscape:connector-curvature="0"
         sodipodi:nodetypes="ccssscccc" />
      <path
         style="color:#000000;display:inline;overflow:visible;visibility:visible;fill:#ff2a2a;fill-opacity:1;fill-rule:nonzero;stroke:none;stroke-width:0.971825;marker:none;enable-background:accumulate"
         d="m 345.31741,481.61009 c -5.04422,-2.38118 -7.44099,-3.03151 -16.25995,1.37797 -3.049,1.5245 -9.09456,-1.65356 -11.85048,-2.48034 -2.75593,-0.82677 -15.15759,-9.09455 -22.87418,-6.33862 -7.71659,2.75592 -8.07196,-0.0552 -11.57488,1.65355 -2.97805,1.45271 -4.13389,7.16541 -7.16541,6.88981 -3.03152,-0.27559 -8.54337,-0.82677 -9.37015,1.37797 -0.82677,2.20474 -3.88129,2.65855 -8.54336,3.03152 -6.88981,0.55118 -10.19692,8.81895 -4.96067,9.09455 5.80559,0.30556 8.54337,6.88981 16.53555,0.82678 2.6801,-2.03318 5.78744,-5.51185 6.33863,-3.58271 0.55118,1.92915 0.95721,5.11944 4.68507,5.51185 10.47252,1.10237 7.71659,-5.23625 10.74811,-5.23625 3.03152,0 6.03453,7.66169 13.22844,8.81896 4.64955,0.74796 10.19692,-4.96067 13.22844,-4.96067 3.03152,0 2.34002,2.82378 7.99218,3.03152 5.24539,0.19279 3.03152,-4.13389 5.51185,-3.8583 2.48034,0.2756 4.17522,8.84798 15.43318,7.16541 6.59839,-0.98617 6.33863,-7.441 11.57489,-7.16541 5.23626,0.2756 6.61422,-0.27559 12.67726,2.20474 6.06303,2.48034 19.29147,1.65356 21.22062,0.55119 1.92915,-1.10237 9.37014,-1.92915 9.37014,-1.92915 0,0 0.82678,3.30711 4.96067,3.03152 4.13389,-0.27559 7.441,-4.96067 9.37014,-4.40948 1.92915,0.55118 4.96067,8.26777 9.92134,7.441 4.96066,-0.82678 6.88981,-6.61422 10.19692,-6.61422 3.30711,0 6.88981,0 9.64574,1.65355 2.75592,1.65356 8.54336,4.96067 13.22844,4.40948 4.68507,-0.55118 8.54336,-4.13389 12.67725,-3.85829 4.13389,0.27559 14.33081,3.30711 23.97655,0.55118 4.8356,-1.3816 6.16359,-8.03062 1.37796,-8.54337 -7.71659,-0.82678 -9.37014,2.48034 -9.37014,2.48034 0,0 8.54336,-12.12607 -1.92915,-11.85048 -5.02735,0.1323 -4.96067,0.82677 -4.96067,0.82677 0,0 4.96067,-9.64574 -6.88981,-9.09455 -3.02825,0.14085 -10.47251,-7.441 -16.81114,-3.5827 -6.33863,3.85829 -11.52954,11.56669 -11.85048,9.92133 -0.5765,-2.95556 -12.10099,-2.27999 -14.33081,0.82678 -0.66256,0.92314 -2.43474,-7.63295 -8.54337,-5.51185 -9.14175,3.1743 -8.26777,8.54337 -9.92133,8.54337 -1.65355,0 -1.14265,-4.74875 -6.61422,-3.03152 -6.53354,2.05053 -8.26777,6.88981 -11.57488,6.88981 -3.30711,0 -9.37015,-4.40948 -11.85048,-6.33863 -2.48033,-1.92915 -14.882,-5.51185 -24.25214,0.27559 -9.37015,5.78745 -9.5662,1.33851 -12.40167,0 z"
         id="path3037"
         inkscape:connector-curvature="0"
         sodipodi:nodetypes="ssssasssssssssssssssscssssssssscscsssssssssss" />
      <path
         style="color:#000000;display:inline;overflow:visible;visibility:visible;fill:url(#linearGradient3954);fill-opacity:1;fill-rule:nonzero;stroke:none;stroke-width:0.971825;marker:none;enable-background:accumulate"
         d="m 312.03328,613.50744 c 0.73131,-2.48646 -20.1691,-25.66579 -26.89252,-9.35392 -1.47031,3.56716 -1.94873,-7.40519 -6.62569,-7.79494 -4.67696,-0.38974 -9.74367,6.23595 -9.74367,6.23595 l -3.50772,-1.94873 c 0,0 -0.77949,-14.03088 -15.20012,-18.70784 -14.42063,-4.67696 -22.13501,7.51857 -22.99505,14.42062 -0.60471,4.85289 -1.16924,11.6924 -1.16924,11.6924 0,0 -6.84291,-7.53013 -10.91291,-5.06671 -14.81037,8.96418 3.11797,12.08215 3.11797,12.08215 0,0 -18.97567,-2.45439 -27.28226,6.23595 -4.34236,4.54297 -4.28722,12.08215 -1.16925,14.81038 3.11798,2.72822 9.74367,3.89746 9.74367,3.89746 -4.89559,5.05297 -2.8454,7.79069 1.55899,9.74367 0,0 -10.13341,6.23594 -6.23595,12.47189 3.89747,6.23595 17.92835,-0.38975 17.92835,-0.38975 0,0 0.93396,9.27692 13.64113,8.57443 7.61365,-0.42091 22.21556,-5.45645 22.21556,-5.45645 0,0 -7.89376,4.20019 -2.33848,5.8462 10.52317,3.11797 12.86164,-3.50772 12.86164,-3.50772 0,0 -1.15898,4.30328 5.06671,5.0667 6.69747,0.82127 8.96417,-3.50772 8.96417,-3.50772 0,0 6.91204,2.2565 10.91291,1.94874 5.06671,-0.38975 10.13341,-4.67696 10.13341,-4.67696 0,0 4.28722,4.28721 10.52316,3.50772 4.51009,-0.56376 11.30266,-2.33848 11.30266,-2.33848 0,0 9.35392,3.89746 19.48733,3.50772 10.13341,-0.38975 21.04632,-2.72823 27.67201,-0.7795 6.62569,1.94874 28.84125,6.23595 40.53365,1.55899 2.8263,-1.13052 8.18468,-5.06671 10.52316,-3.89747 2.33848,1.16924 3.89747,5.45646 8.57443,4.28722 4.67696,-1.16924 8.57443,-0.7795 8.57443,-0.7795 14.01907,1.93693 25.76732,1.60304 28.4515,-7.79493 l 9.35392,-0.77949 c 4.1573,7.06097 8.3146,2.6497 12.4719,3.89746 0,0 -0.77949,6.23595 11.30265,6.23595 12.08215,0 12.08215,-7.01544 12.08215,-7.01544 0,0 4.67696,5.06671 8.96417,5.06671 4.28721,0 3.89747,2.72822 12.08215,3.89746 8.18468,1.16924 18.70783,1.16924 19.87707,-4.67696 1.16924,-5.8462 1.94874,-7.01544 1.94874,-7.01544 0,0 5.2296,4.06613 15.58987,-7.40519 4.24345,-4.69852 6.16283,-15.43684 0.77949,-24.55403 -2.52556,-4.27726 -12.47189,-1.94874 -12.47189,-1.94874 0,0 5.8462,-4.67696 4.67696,-12.08214 -2.17899,-13.80024 -13.64114,-20.65657 -20.26683,-19.09759 -6.6257,1.55899 -6.62569,3.11797 -6.62569,3.11797 0,0 4.75836,-11.34837 -6.6257,-13.25139 -10.486,-1.75289 -8.57442,9.74367 -8.57442,9.74367 0,0 -2.36896,-15.96926 -14.42063,-14.81037 -19.86576,1.91029 -22.99505,19.09759 -22.99505,19.09759 0,0 -1.94874,-5.06671 -7.01544,-4.67696 -5.06671,0.38974 -5.8462,9.74366 -5.8462,9.74366 0,0 -2.33848,-3.11797 -5.45646,-3.50772 -3.11797,-0.38974 -9.74366,10.52316 -9.74366,10.52316 0,0 -1.18266,-9.18815 -7.01544,-9.74366 -16.36936,-1.55899 -15.20012,9.35392 -17.14886,10.52316 -1.94873,1.16924 -3.11797,-6.6257 -14.03088,-1.55899 -4.03056,1.87133 -9.74366,11.6924 -12.47189,12.08215 -2.72823,0.38974 -1.2856,-4.65951 -6.62569,-5.8462 -17.5386,-3.89748 -20.65658,3.50772 -24.1643,1.94873 -3.50772,-1.55899 -3.88127,-13.52789 -10.9129,-14.03088 -14.77774,-1.0571 -15.58987,9.74367 -15.58987,9.74367 0,0 -0.77949,-4.67696 -3.50772,-4.28722 -2.72822,0.38975 -4.67696,4.28722 -6.23594,4.28722 -1.55899,0 0,-3.50772 -4.67696,-4.67696 -4.67696,-1.16924 -8.18468,2.33848 -10.13342,3.50772 -1.94873,1.16924 -4.28721,-2.33848 -4.28721,-2.33848 z"
         id="path3039"
         inkscape:connector-curvature="0"
         sodipodi:nodetypes="cssccsscscssccscscscscscscsssssccccscssscsscsscscscscscssssssscssssc" />
      <path
         style="color:#000000;display:inline;overflow:visible;visibility:visible;fill:url(#linearGradient3131);fill-opacity:1;fill-rule:nonzero;stroke:none;stroke-width:0.971825;marker:none;enable-background:accumulate"
         d="m 243.20192,174.65269 c -15.58987,3.11798 -42.87213,29.62075 -44.43112,33.51822 -1.55899,3.89746 -18.85254,16.76064 -23.3848,28.06176 -4.26539,10.63568 -7.79493,21.82581 -2.33848,34.2977 1.90047,4.34394 -6.23595,16.36936 -6.23595,21.04632 0,4.67696 8.71913,8.37035 9.35392,15.58987 1.16424,13.241 -10.13341,17.92834 -3.11797,39.75416 3.63321,11.30333 15.4959,4.05006 21.04632,9.35392 5.46069,5.21811 6.23595,17.14885 10.13341,20.26683 3.89747,3.11797 24.1643,6.23594 24.1643,6.23594 0,0 3.89746,8.57443 12.47189,10.13342 8.57443,1.55898 17.14885,-3.11798 19.48733,-0.7795 2.33848,2.33848 15.58987,2.33848 15.58987,2.33848 0,0 1.55899,6.23595 12.47189,7.01544 10.91291,0.7795 16.36936,-10.13341 16.36936,-10.13341 4.20139,5.36826 8.27246,10.99717 22.60531,-3.89747 3.80201,1.87187 6.75402,8.84381 12.47189,-0.77949 3.03528,10.00093 27.44146,0.9123 21.82581,-12.47189 10.94368,19.94613 41.02975,7.05313 42.87214,2.33848 1.8276,10.44283 10.19235,9.44565 20.26682,5.45645 -0.757,7.15971 20.45776,23.86929 28.06176,4.67696 3.11432,2.49876 -0.65407,13.25678 11.6924,4.67696 35.89404,11.87814 41.1859,4.62991 44.43112,-3.89747 l 3.11798,-9.35392 c 27.45015,26.44482 33.61187,2.08029 28.84125,-3.11797 49.23071,-0.89506 34.19435,-28.10933 33.51821,-38.19517 20.86267,-7.76638 29.18959,-17.24123 10.91291,-36.63619 6.00541,-2.96531 6.95484,-6.65291 -1.55899,-11.6924 43.60174,-5.60893 10.49945,-45.45692 -5.45645,-54.56453 -3.11797,-16.36936 -27.28227,-41.31315 -39.75416,-45.99011 -4.12872,-1.54827 -5.45645,-12.4719 -21.04632,-19.48733 -8.58908,-3.86508 -24.94379,-0.7795 -28.06176,-1.55899 -3.11797,-0.77949 -17.92835,-9.35392 -24.16429,-10.13341 -6.23595,-0.7795 -10.13342,0.77949 -21.82582,-0.7795 -11.6924,-1.55898 -21.04632,-3.89746 -23.3848,-4.67696 -2.33848,-0.77949 -10.9129,-5.45645 -16.36936,-7.01544 -5.45645,-1.55898 -17.92834,3.89747 -27.28226,4.67696 -9.35392,0.7795 -26.50278,2.33848 -26.50278,2.33848 0,0 -2.33848,-4.67696 -10.13341,-4.67696 -7.79493,0 -13.25139,4.67696 -17.92834,6.23595 -4.67696,1.55899 -10.13342,0 -21.82582,0.77949 -11.6924,0.7795 -14.81037,3.89747 -21.04632,5.45646 -6.23594,1.55898 -12.47189,3.89746 -18.70784,4.67696 -6.23594,0.77949 -17.14885,10.9129 -17.14885,10.9129 z"
         id="path3041"
         inkscape:connector-curvature="0"
         sodipodi:nodetypes="csassssascsscscccccccccccccccsssssssscsssssc" />
      <path
         style="color:#000000;display:inline;overflow:visible;visibility:visible;fill:url(#radialGradient3946);fill-opacity:1;fill-rule:nonzero;stroke:none;stroke-width:0.971825;marker:none;enable-background:accumulate"
         d="m 187.85789,224.54027 c 0,0 -16.36936,14.81037 -12.47189,24.16429 3.89747,9.35392 14.81037,14.03088 14.81037,14.03088 0,0 -12.47189,7.01544 -12.47189,17.14885 0,10.13342 11.6924,10.91291 11.6924,10.91291 l 8.57443,5.45645 c 0,0 -14.81038,10.91291 -6.23595,20.26683 8.57443,9.35392 17.92835,17.92835 29.62075,8.57443 -0.002,26.47109 11.28454,23.91391 25.72328,13.25138 17.94148,18.29949 32.39463,11.71515 35.0772,-4.67696 3.73255,25.2284 25.52059,19.4071 22.6053,4.67696 8.65885,7.08017 16.7927,8.91037 23.3848,-4.67696 -0.77734,24.50739 20.43828,14.8035 37.41568,11.6924 22.38878,14.65617 30.29357,6.02393 33.51821,-10.13341 3.76704,9.68051 7.66881,17.33048 15.58987,12.4719 2.33848,6.23594 13.25139,6.23594 11.6924,-6.23595 11.89223,27.26287 39.23585,13.22833 40.53365,-0.7795 l 5.45646,-7.01544 c 17.05296,11.5826 27.14067,-1.26338 31.95922,-13.25138 2.03614,24.54314 25.04435,20.92066 29.62075,7.79493 11.64243,3.068 18.92959,1.78074 14.03088,-11.6924 0,0 16.36936,11.6924 25.72328,7.01544 9.35392,-4.67696 -3.11797,-31.17973 -3.11797,-31.17973 0,0 0.77949,-3.89747 3.89746,-6.23595 3.11798,-2.33848 17.14886,-2.33848 18.70784,-5.45645 1.55899,-3.11798 -0.77949,-28.06176 -4.67695,-31.95923 -3.89747,-3.89746 -13.25139,-11.6924 -13.25139,-11.6924 l -3.11798,-7.01544 c 0,0 -7.79493,-18.70784 -14.03088,-22.60531 -6.23594,-3.89746 -22.6053,-14.81037 -22.6053,-14.81037 0,0 -16.36936,-14.81037 -21.82582,-17.92835 -5.45645,-3.11797 -16.36935,-3.89746 -16.36935,-3.89746 0,0 -12.06153,-0.95935 -17.92835,-2.33848 -7.75901,-1.82393 -12.4719,-9.35392 -22.60531,-7.79494 -10.13341,1.55899 -11.79316,-1.97166 -17.92835,-3.11797 -10.86624,-2.03025 -29.62074,-7.01544 -31.17973,-9.35392 -1.55899,-2.33848 -10.13341,-1.55899 -21.82581,1.55899 -11.6924,3.11797 -35.0772,4.67696 -35.0772,4.67696 0,0 1.55898,-4.67696 -10.13342,-3.89747 -11.6924,0.77949 -17.14885,7.01544 -17.14885,7.01544 0,0 -26.50277,-1.55899 -33.51821,0 -7.01544,1.55899 -33.51821,14.81037 -33.51821,14.81037 0,0 -22.60531,10.91291 -28.06176,13.25139 -5.45646,2.33848 -12.4719,10.91291 -17.14886,14.81037 -4.67696,3.89747 -7.01544,14.03088 -10.9129,17.92835 -3.89747,3.89747 -12.4719,6.23595 -12.4719,6.23595 z"
         id="path3062"
         inkscape:connector-curvature="0"
         sodipodi:nodetypes="cscsccsccccccccccccccscsssccscscssssscscscsssc" />
      <path
         style="color:#000000;display:inline;overflow:visible;visibility:visible;fill:url(#linearGradient3149);fill-opacity:1;fill-rule:nonzero;stroke:none;stroke-width:0.971825;marker:none;enable-background:accumulate"
         d="m 459.625,470.1875 c -4.26019,0.23446 -8.35735,6.4117 -10.0625,7.09375 -1.94873,0.7795 -3.40671,6.34327 -7,2.75 -2.72823,-2.72823 -9.7644,0.19453 -12.6875,3.3125 0,0 -0.94804,-6.829 -5.625,-7.21875 -4.67696,-0.38975 -8.59375,3.90625 -8.59375,3.90625 0,0 -1.34727,5.25 -2.90625,5.25 -1.55899,0 -1.94629,-4.29424 -5.84375,-3.125 -3.89747,1.16924 -7.02177,0.98666 -9.75,5.46875 0,0 -5.10424,1.20905 -7.8125,0.59375 -2.98993,-0.6793 -5.05302,-3.33076 -7.78125,-4.5 -2.72822,-1.16924 -5.77535,-4.28125 -9.75,-4.28125 -6.82057,0 -9.54179,1.56601 -14.21875,3.125 -4.67696,1.55898 -8.75702,3.10849 -11.875,2.71875 -3.11797,-0.38975 -0.32449,-3.62286 -6.25,-4.28125 -7.01544,-0.7795 -7.10394,2.72087 -11.5,2.71875 -3.98526,-0.002 -7.46374,-0.38664 -12.28125,-2.34375 -6.23595,-2.53335 -11.49228,-7.01475 -15,-6.625 -3.50772,0.38975 -16.1875,1.5625 -16.1875,1.5625 -5.45646,3.50772 -6.40625,7.59375 -6.40625,7.59375 0,0 -7.59726,-1.72823 -9.15625,1 -1.55899,2.72823 3.875,3.09375 3.875,3.09375 l 10.15625,-3.5625 c -4.25945,10.7856 7.37924,6.76977 11.28125,3.90625 3.76522,5.9979 14.6355,4.04129 14.8125,-2.34375 1.41036,6.16841 4.44051,6.97453 8.96875,2.75 3.54105,4.57356 7.89689,3.42337 12.46875,0.78125 -0.92383,6.70958 14.39928,9.54537 19.5,3.09375 9.36212,1.41754 16.43955,0.79165 19.46875,-3.09375 -0.0247,1.69154 3.24738,5.47809 8.6875,3.4375 1.55154,2.78058 14.44308,1.94116 17.03125,0.4375 7.82807,2.45062 18.19842,-1.9297 16,-3.5 17.55107,9.84067 14.94245,2.87268 21.4375,3.5 l 5.84375,-1.9375 c 5.66434,5.56414 16.56933,6.74005 17.53125,-3.5 2.49184,6.99262 6.12282,7.74614 10.90625,2.3125 3.00031,5.15988 11.45888,4.90673 13.65625,1.5625 l 6.21875,-2.71875 c 0,0 4.69522,-4.61026 1.1875,-5 -3.50772,-0.38975 -9.375,0.375 -9.375,0.375 0,0 2.74297,-7.01826 -0.375,-8.1875 -3.11798,-1.16924 -6.62851,-1.75176 -8.1875,-2.53125 -1.55899,-0.7795 -6.36133,-2.43203 -8.5625,-3.3125 -0.60898,-0.24359 -1.23515,-0.31474 -1.84375,-0.28125 z m -196.59375,17.71875 c -0.10591,0.0109 -0.22195,0.045 -0.34375,0.0937 -1.94873,0.7795 -4.28125,1.5625 -4.28125,1.5625 -4.67696,2.33848 -3.11446,6.61973 1.5625,4.28125 4.38465,-2.19232 4.65108,-6.10021 3.0625,-5.9375 z"
         id="path3076"
         inkscape:connector-curvature="0" />
      <path
         style="color:#000000;display:inline;overflow:visible;visibility:visible;fill:url(#linearGradient3982);fill-opacity:1;fill-rule:nonzero;stroke:none;stroke-width:0.971825;marker:none;enable-background:accumulate"
         d="m 246.6875,583.21875 c -11.48382,0 -14.04179,3.41716 -16.59375,13.625 -2.55196,10.20785 -1.28125,14.46875 -1.28125,14.46875 l -7.21875,5.9375 c 0,0 -25.95658,-0.0102 -25.53125,5.09375 0.42533,5.10392 -0.39735,6.82995 4.28125,8.53125 4.6786,1.70131 14.875,-2.125 14.875,-2.125 0,0 -6.37663,5.94804 -4.25,8.5 2.12664,2.55196 19.125,-6.3125 19.125,-6.3125 -7.72141,16.09408 28.48006,14.45885 29.78125,9.78125 11.42521,4.68456 12.10317,-1.26315 8.9375,-5.9375 5.2461,6.87313 16.15974,9.13422 17.84375,4.65625 4.53006,9.27771 14.36678,6.84042 23.84375,5.125 -0.42619,11.3202 7.74708,8.1699 16.15625,4.65625 9.64637,8.74334 26.64978,4.51183 28.90625,-2.53125 -1.44509,9.0873 24.90328,5.15932 25.09375,2.96875 12.08628,5.96988 19.22881,1.91475 26.375,-2.125 -1.31154,5.92163 9.27489,6.98881 17.03125,2.125 7.69925,3.19368 9.69057,0.32422 8.90625,-5.53125 6.20602,9.67877 15.1365,3.83318 16.59375,0.4375 8.12617,2.90121 6.07376,-2.2218 6.8125,-5.125 2.41244,10.40626 14.54781,4.59604 14.875,1.71875 0.25925,1.67564 6.01352,7.85469 8.9375,-1.28125 0.90409,4.5719 2.25395,8.47091 8.9375,4.25 15.58633,4.94957 18.73058,-0.25269 19.15625,-7.65625 9.97022,6.4709 17.89345,7.58176 19.96875,-6.8125 16.6814,2.78684 11.7013,-0.0858 5.96875,-5.59375 5.19587,-0.74226 -0.93853,-5.16993 -1.28125,-5.53125 10.33783,4.82217 18.76109,-1.71662 17.875,-8.28125 -0.56283,-4.1697 -4.6964,-7.01744 -9.375,-8.71875 -4.67859,-1.70131 -11.90625,1.25 -11.90625,1.25 0,0 2.54996,-9.57304 -5.53125,-12.125 -8.08122,-2.55196 -8.09375,9.15625 -8.09375,9.15625 0,0 -8.0466,-13.04067 -16.5625,-13.1875 -12.33448,-0.21267 -20.64935,10.42652 -21.5,16.59375 -3.0519,0.64721 -4.22929,-4.45657 -6.78125,-4.03125 -2.55196,0.42533 -7.25,9.5625 -7.25,9.5625 0,0 -0.63391,-4.46348 -5.3125,-3.1875 -4.6786,1.27599 -8.5,11.6875 -8.5,11.6875 0,0 -5.3705,-11.29539 -10.625,-11.6875 -12.13143,-0.90529 -9.78488,11.69967 -13.1875,12.125 -3.40261,0.42533 -0.85629,-6.81413 -8.9375,-4.6875 -8.08121,2.12664 -18.28125,15.3125 -18.28125,15.3125 0,0 -3.05353,-6.79134 -8.53125,-7.65625 -12.12182,-1.91397 -23.8125,2.125 -23.8125,2.125 0,0 -4.87349,-12.96758 -10.625,-13.8125 -10.98736,-1.6141 -15.3125,10.40625 -15.3125,10.40625 0,0 -2.04539,-3.66366 -3.84375,-3.8125 -2.43089,-0.20118 -5.9375,4.25 -5.9375,4.25 0,0 -2.36282,-4.87937 -4.6875,-5.53125 -3.88514,-1.08946 -11.46875,3.8125 -11.46875,3.8125 0,0 -9.8943,-12.1332 -17.4375,-16.15625 -9.56985,-5.10393 -13.1875,4.6875 -13.1875,4.6875 0,0 -2.90014,-6.67354 -5.96875,-7.25 -3.99247,-0.75001 -10.625,5.96875 -10.625,5.96875 0,0 -9.35992,-22.125 -20.84375,-22.125 z m -30.75,21.53125 c -1.21617,0.0698 -2.31818,0.65827 -3.0625,2.09375 -1.79203,3.45605 2.13554,3.38717 4.6875,3.8125 2.55196,0.42532 6.8125,-1.6875 6.8125,-1.6875 0,0 -4.789,-4.42809 -8.4375,-4.21875 z"
         id="path3080"
         inkscape:connector-curvature="0" />
      <path
         style="color:#000000;display:inline;overflow:visible;visibility:visible;fill:url(#radialGradient3970);fill-opacity:1;fill-rule:nonzero;stroke:none;stroke-width:0.971825;marker:none;enable-background:accumulate"
         d="m 226.27391,194.0525 c -11.8793,3.2396 -17.32106,8.95518 -14.46111,17.86373 -20.37165,7.56906 -8.24808,12.19402 -7.65589,17.86373 -1.97421,6.42006 -8.909,16.14717 5.10392,11.90915 -18.40726,8.5936 0.80574,3.85875 1.74674,10.41569 -11.3025,13.06207 -6.52627,29.90629 18.71438,22.96766 -0.12136,12.39461 4.20148,7.01238 8.50654,1.7013 -7.2405,11.99723 9.59663,12.66381 20.41569,16.16242 7.05095,20.43747 37.42166,9.90684 43.38334,2.55197 13.69175,4.49274 9.45188,-4.14793 11.0585,-8.50654 11.64017,15.47418 32.24277,6.78612 31.47419,-9.35719 8.67384,-1.57768 19.3901,-0.97735 11.0585,-9.3572 18.06419,8.26975 24.24964,6.13413 21.09268,-3.73136 5.01791,9.87327 11.43088,11.37614 18.71438,7.65588 1.64773,5.05471 0.89967,11.2755 22.117,6.80523 -7.08971,9.6562 1.47043,4.6632 11.05851,5.95458 9.24246,25.89352 12.60747,4.48346 18.07746,2.26006 4.10163,0.67373 9.97954,3.4198 7.65589,-3.40262 12.2845,10.10307 24.51155,24.74522 30.56308,5.20713 20.22137,4.75736 21.36829,-0.62427 16.16242,-12.75981 26.60122,2.62965 32.54427,-11.46521 26.63713,-21.51549 8.10824,6.7953 15.42181,7.63058 21.26634,-2.55196 15.59786,2.87877 16.11836,-6.40142 10.20785,-14.46111 5.86153,-6.6848 6.18626,-9.49839 -0.2919,-17.30498 -2.64014,-13.28196 -11.60725,-17.52538 -22.117,-19.56504 -9.05179,-18.21259 -11.14703,-12.07725 -16.16242,-16.16242 -7.80073,-3.39199 -10.57604,-14.78392 -25.51962,-6.80523 -1.83491,-2.90932 -1.68283,-6.11224 -12.75981,-7.65589 -19.96943,-5.67066 -25.93701,-3.80186 -31.47419,-1.70131 -0.53741,-5.02986 -3.62933,-7.58244 -11.90915,-5.10392 -11.88548,-10.3619 -46.02672,-11.22714 -40.83138,-9.35719 -15.65666,-7.03773 -19.59546,0.24638 -25.51962,5.10392 -4.20448,-6.92282 -22.69914,-7.74724 -17.86373,0.85066 -18.42738,-13.94738 -29.37535,1.7111 -24.66896,7.65588 -6.35565,-13.09844 -22.93455,-10.73057 -24.66896,-2.55196 -4.88783,-8.23723 -13.0817,-8.03882 -14.46111,2.55196 -2.4808,-4.99104 -19.81876,-4.31943 -13.61046,8.50654 -5.60034,-10.41907 -13.45654,-5.04717 -21.26635,0 -11.05221,-0.0924 -11.82833,3.24052 -9.35719,7.65588 -15.40388,-1.75657 -22.21394,5.30096 -20.41569,10.20785 z"
         id="path3930"
         inkscape:connector-curvature="0"
         sodipodi:nodetypes="cccccccccccccccccccccccccccccccccccccccc" />
    </g>
  </g>
</svg>
