<?xml version="1.0" encoding="UTF-8" standalone="no"?>
<svg
   xmlns:dc="http://purl.org/dc/elements/1.1/"
   xmlns:cc="http://creativecommons.org/ns#"
   xmlns:rdf="http://www.w3.org/1999/02/22-rdf-syntax-ns#"
   xmlns:svg="http://www.w3.org/2000/svg"
   xmlns="http://www.w3.org/2000/svg"
   xmlns:sodipodi="http://sodipodi.sourceforge.net/DTD/sodipodi-0.dtd"
   xmlns:inkscape="http://www.inkscape.org/namespaces/inkscape"
   inkscape:version="1.0 (4035a4fb49, 2020-05-01)"
   sodipodi:docname="instant_birth.svg"
   id="svg52"
   version="1.1"
   viewBox="0 0 725.669 725.669">
  <metadata
     id="metadata58">
    <rdf:RDF>
      <cc:Work
         rdf:about="">
        <dc:format>image/svg+xml</dc:format>
        <dc:type
           rdf:resource="http://purl.org/dc/dcmitype/StillImage" />
      </cc:Work>
    </rdf:RDF>
  </metadata>
  <defs
     id="defs56" />
  <sodipodi:namedview
     inkscape:current-layer="g50"
     inkscape:window-maximized="1"
     inkscape:window-y="-8"
     inkscape:window-x="-8"
     inkscape:cy="-65.285101"
     inkscape:cx="-59.007687"
     inkscape:zoom="0.39825319"
     showgrid="false"
     id="namedview54"
     inkscape:window-height="746"
     inkscape:window-width="1304"
     inkscape:pageshadow="2"
     inkscape:pageopacity="0"
     guidetolerance="10"
     gridtolerance="10"
     objecttolerance="10"
     borderopacity="1"
     bordercolor="#666666"
     pagecolor="#ffffff" />
  <g
     id="g50"
     fill-rule="evenodd">
    <g
       style="stroke-width:0.126473"
       transform="matrix(0,7.9068152,-7.9068152,0,3017.1269,-3110.1411)"
       id="g48"
       fill="#00ff00">
      <path
         style="stroke-width:0.126473"
         id="path42"
         d="m 476.304,327.747 -37.101,-37.102 -37.101,37.102 v 10.605 l 37.1,-37.101 37.102,37.1 z" />
      <path
         style="stroke-width:0.126473"
         id="path44"
         d="m 476.304,348.957 -37.101,-37.101 -37.101,37.101 v 10.605 l 37.1,-37.1 37.102,37.1 z" />
      <path
         style="stroke-width:0.126473"
         id="path46"
         d="m 476.304,370.168 -37.101,-37.101 -37.101,37.1 v 10.606 l 37.1,-37.101 37.102,37.101 z" />
    </g>
    <path
       id="path2"
       stroke-width="5.953"
       stroke="#000000"
       fill="#999999"
       d="m 315.687,25.63 c -1.293,13.267 -1.259,33.767 -4.944,39.38 -5.193,7.925 -22.258,18.606 -26.77,37.077 -37.112,43.562 -81.888,121.765 -76.944,135.768 6.282,17.779 70.843,77.782 108.26,116.356 -20.624,34.322 -39.242,69.574 2.609,132.299 2.313,52.702 2.948,105.743 11.724,157.05 -2.858,18.596 -17.802,53.564 -17.802,53.564 l 72.227,6.089 c 6.554,-29.435 14.786,-54.391 19.15,-89.643 11.362,-70.64 20.955,-124.917 21.25,-181.928 66.886,-3.957 80.866,-57.305 81.49,-90.334 1.11,-59.006 -42.407,-81.944 -76.626,-123.625 14.592,-8.39 15.556,-20.114 14.592,-33.732 -0.975,-13.685 -23.448,-33.29 -38.347,-49.096 -15.193,-16.1 -21.85,-28.369 -26.577,-34.208 -2.892,-3.572 -12.076,-6.656 -12.076,-6.656 -1.587,-13.527 -3.345,-25.433 4.082,-35.683 z m -8.98,172.29 c 14.99,44.3 24.65,88.26 23.38,126.766 -19.57,-28.97 -33.2,-55.355 -59.074,-87.08 14.592,-14.457 24.026,-25.66 29.537,-38.155 z" />
  </g>
</svg>
