<?xml version="1.0" encoding="UTF-8" standalone="no"?>
<svg
   xmlns:dc="http://purl.org/dc/elements/1.1/"
   xmlns:cc="http://creativecommons.org/ns#"
   xmlns:rdf="http://www.w3.org/1999/02/22-rdf-syntax-ns#"
   xmlns:svg="http://www.w3.org/2000/svg"
   xmlns="http://www.w3.org/2000/svg"
   xmlns:sodipodi="http://sodipodi.sourceforge.net/DTD/sodipodi-0.dtd"
   xmlns:inkscape="http://www.inkscape.org/namespaces/inkscape"
   inkscape:version="1.0 (4035a4fb49, 2020-05-01)"
   sodipodi:docname="12.svg"
   viewBox="0 0 725.66931 725.66931"
   id="svg4"
   height=""
   width=""
   version="1.1">
  <metadata
     id="metadata10">
    <rdf:RDF>
      <cc:Work
         rdf:about="">
        <dc:format>image/svg+xml</dc:format>
        <dc:type
           rdf:resource="http://purl.org/dc/dcmitype/StillImage" />
        <dc:title></dc:title>
      </cc:Work>
    </rdf:RDF>
  </metadata>
  <defs
     id="defs8" />
  <sodipodi:namedview
     inkscape:current-layer="svg4"
     inkscape:window-maximized="1"
     inkscape:window-y="-8"
     inkscape:window-x="-8"
     inkscape:cy="362.83466"
     inkscape:cx="362.83466"
     inkscape:zoom="0.79650605"
     showgrid="false"
     id="namedview6"
     inkscape:window-height="746"
     inkscape:window-width="1304"
     inkscape:pageshadow="2"
     inkscape:pageopacity="0"
     guidetolerance="10"
     gridtolerance="10"
     objecttolerance="10"
     borderopacity="1"
     bordercolor="#666666"
     pagecolor="#ffffff" />
  <path
     id="path2"
     style="fill:#ffffff;fill-rule:evenodd;stroke:#ffffff;stroke-width:4;stroke-linecap:butt;stroke-linejoin:miter;stroke-dasharray:none"
     d="m 262.3039,311.1489 46.4973,-121.2086 h 17.634 l 49.3467,121.2086 h -18.2546 l -14.0224,-36.7351 h -51.0398 l -13.1479,36.7351 z m 34.873,-49.7702 h 41.3059 l -12.6403,-33.603 c -3.8089,-10.2138 -6.6866,-18.6497 -8.6899,-25.3083 -1.6648,7.8999 -3.8936,15.6589 -6.6869,23.3331 z m 89.1289,49.7702 V 189.9403 h 14.8972 v 121.2086 z m 37.6098,0 V 189.9403 h 14.8972 V 311.1489 Z M 69.4593,500.2696 V 379.061 h 81.7651 v 14.22 h -65.683 v 37.7507 h 56.88 v 14.22 h -56.88 v 55.0179 z m 100.5273,0 v -87.8593 h 13.3736 v 13.4581 c 3.414,-6.2354 6.5741,-10.3547 9.4802,-12.3296 2.9061,-2.0032 6.0942,-2.9908 9.5646,-2.9908 5.0222,0 10.1288,1.58 15.3202,4.712 l -5.3042,13.7404 c -3.6114,-2.0316 -7.223,-3.0473 -10.8343,-3.0473 -3.2446,0 -6.1506,0.9876 -8.7183,2.9342 -2.5673,1.9468 -4.4013,4.6553 -5.5017,8.1258 -1.6645,5.2761 -2.4829,11.0599 -2.4829,17.3517 v 45.9048 z M 226.5282,395.9895 V 379.061 h 14.8972 v 16.9285 z m 0,104.2801 v -87.8593 h 14.8972 v 87.8593 z m 97.537,-28.44 15.4052,2.0313 c -2.3984,8.9442 -6.8845,15.9129 -13.43,20.8505 -6.5458,4.9374 -14.8972,7.4203 -25.0827,7.4203 -12.8092,0 -22.9663,-3.9501 -30.4713,-11.85 -7.505,-7.8718 -11.2575,-18.9601 -11.2575,-33.2081 0,-14.728 3.7806,-26.1831 11.3703,-34.3086 7.5895,-8.1541 17.4365,-12.217 29.5405,-12.217 11.7087,0 21.2734,3.9784 28.6937,11.963 7.4205,7.9847 11.1446,19.2138 11.1446,33.6878 0,0.8748 -0.028,2.2008 -0.0844,3.9501 h -65.429 c 0.5641,9.6211 3.2728,17.0132 8.1822,22.1199 4.8809,5.1069 11.0035,7.6745 18.3109,7.6745 5.4454,0 10.1007,-1.4392 13.938,-4.3169 3.8653,-2.878 6.9126,-7.477 9.1695,-13.7968 z M 275.311,447.9602 h 48.9234 c -0.6488,-7.3922 -2.5393,-12.922 -5.6146,-16.6181 -4.7117,-5.7277 -10.8623,-8.6054 -18.3957,-8.6054 -6.8278,0 -12.5552,2.2853 -17.2105,6.8561 -4.6273,4.5706 -7.1949,10.6932 -7.7026,18.3674 z m 82.978,52.3094 v -87.8593 h 13.3736 v 12.4708 c 6.4329,-9.5647 15.7436,-14.3331 27.904,-14.3331 5.3044,0 10.1573,0.9595 14.5868,2.8496 4.4297,1.8905 7.7589,4.4017 9.9598,7.477 2.2005,3.0753 3.7525,6.743 4.627,10.9752 0.5363,2.7652 0.8183,7.5897 0.8183,14.4739 v 53.9459 h -14.8972 v -53.3815 c 0,-6.0661 -0.5644,-10.6086 -1.7212,-13.5992 -1.1565,-2.9908 -3.2162,-5.3889 -6.1506,-7.1946 -2.9341,-1.7776 -6.4046,-2.6804 -10.3547,-2.6804 -6.3198,0 -11.7652,2.0032 -16.3641,6.0378 -4.5989,4.0064 -6.8845,11.6526 -6.8845,22.8818 v 47.9361 z m 150.8618,0 v -11.1447 c -5.5581,8.6618 -13.7403,13.0068 -24.5463,13.0068 -6.997,0 -13.43,-1.9185 -19.2705,-5.7838 -5.8686,-3.8373 -10.4111,-9.2262 -13.6556,-16.1105 -3.2165,-6.9125 -4.8246,-14.8407 -4.8246,-23.813 0,-8.7463 1.467,-16.6745 4.373,-23.8127 2.9345,-7.1101 7.3078,-12.5835 13.148,-16.3644 5.8121,-3.8089 12.3579,-5.6993 19.5525,-5.6993 5.3045,0 10.0162,1.1287 14.1355,3.3576 4.1193,2.2289 7.4767,5.1633 10.0724,8.7463 V 379.061 h 14.8972 v 121.2086 z m -47.0613,-43.8168 c 0,11.2292 2.37,19.6089 7.1382,25.1671 4.7401,5.5582 10.3547,8.3234 16.8157,8.3234 6.5177,0 12.0475,-2.6524 16.6184,-7.9566 4.5425,-5.3042 6.8278,-13.4016 6.8278,-24.2926 0,-11.9628 -2.3137,-20.7655 -6.969,-26.3804 -4.6273,-5.6146 -10.3547,-8.4078 -17.1544,-8.4078 -6.6303,0 -12.1604,2.6804 -16.6181,8.0694 -4.4297,5.3889 -6.6586,13.8815 -6.6586,25.4775 z m 84.1632,43.8168 V 379.061 h 14.8972 v 121.2086 z m 37.2713,33.7725 -1.6929,-13.7687 c 3.2726,0.8748 6.0943,1.3263 8.5207,1.3263 3.3293,0 5.9814,-0.5643 7.9563,-1.6647 2.0032,-1.1004 3.6397,-2.6521 4.9093,-4.627 0.9312,-1.4956 2.4548,-5.1917 4.5425,-11.1167 0.2821,-0.818 0.7053,-2.0313 1.3261,-3.6396 l -33.3493,-88.1414 h 15.9128 l 18.3393,50.7291 c 2.3984,6.4049 4.5145,13.1763 6.4049,20.2862 1.7209,-6.6867 3.7525,-13.2888 6.1223,-19.7782 l 18.7344,-51.2371 h 14.8689 l -33.2082,89.3829 c -3.5833,9.6211 -6.3765,16.2233 -8.3798,19.863 -2.6521,4.8809 -5.6993,8.4642 -9.1131,10.7495 -3.4421,2.2853 -7.5333,3.414 -12.2731,3.414 -2.878,0 -6.0945,-0.5927 -9.6211,-1.7776 z" />
</svg>
