<?xml version="1.0" encoding="UTF-8" standalone="no"?>
<svg
   xmlns:dc="http://purl.org/dc/elements/1.1/"
   xmlns:cc="http://creativecommons.org/ns#"
   xmlns:rdf="http://www.w3.org/1999/02/22-rdf-syntax-ns#"
   xmlns:svg="http://www.w3.org/2000/svg"
   xmlns="http://www.w3.org/2000/svg"
   xmlns:sodipodi="http://sodipodi.sourceforge.net/DTD/sodipodi-0.dtd"
   xmlns:inkscape="http://www.inkscape.org/namespaces/inkscape"
   inkscape:version="1.0 (4035a4fb49, 2020-05-01)"
   sodipodi:docname="1.svg"
   viewBox="0 0 725.66931 725.66931"
   id="svg19"
   height=""
   width=""
   version="1.1">
  <metadata
     id="metadata25">
    <rdf:RDF>
      <cc:Work
         rdf:about="">
        <dc:format>image/svg+xml</dc:format>
        <dc:type
           rdf:resource="http://purl.org/dc/dcmitype/StillImage" />
        <dc:title></dc:title>
      </cc:Work>
    </rdf:RDF>
  </metadata>
  <defs
     id="defs23" />
  <sodipodi:namedview
     inkscape:current-layer="svg19"
     inkscape:window-maximized="0"
     inkscape:window-y="0"
     inkscape:window-x="0"
     inkscape:cy="362.83466"
     inkscape:cx="362.83466"
     inkscape:zoom="0.79650605"
     showgrid="false"
     id="namedview21"
     inkscape:window-height="480"
     inkscape:window-width="881"
     inkscape:pageshadow="2"
     inkscape:pageopacity="0"
     guidetolerance="10"
     gridtolerance="10"
     objecttolerance="10"
     borderopacity="1"
     bordercolor="#666666"
     pagecolor="#ffffff" />
  <g
     id="Layer1000">
    <path
       id="path2"
       style="fill:#000000;fill-rule:evenodd;stroke:#ffffff;stroke-width:4;stroke-linecap:butt;stroke-linejoin:miter;stroke-dasharray:none"
       d="m 221.0412,559.5328 c 49.2205,-22.6957 66.9243,-44.0593 42.0283,-63.6238 -18.6076,25.1488 -49.6075,51.6753 -87.009,78.9119 l 8.8717,-20.5758 -28.4226,17.2682 c 13.3192,-26.9354 21.0854,-53.4429 20.8339,-79.3356 L 159.755,362.2036 c 7.052,-25.6429 21.0068,-48.7529 43.7214,-66.0419 -17.921,2.5542 -32.7724,-3.0762 -44.4303,-17.2239 l 64.9814,-4.6972 115.0878,-109.8888 c 21.7974,22.6549 29.6133,48.3493 27.4018,76.2234 l 10.1778,7.046 c 36.5357,-4.8576 73.0714,-5.3192 109.6077,-0.7824 l 124.8757,-38.3626 c -6.011,81.536 -10.3004,107.2766 -55.9783,130.7458 l -2.3719,4.0657 c 6.2909,9.031 4.5326,12.5285 -5.8778,10.0767 l -2.0021,3.4319 c 5.3754,18.0767 2.1376,23.626 -9.711,16.6486 l -1.9582,3.3568 64.9814,105.6929 c -111.1973,51.4077 -238.8799,73.6501 -377.2192,77.0382 z" />
    <path
       id="path4"
       style="fill:#ffffff;fill-rule:evenodd;stroke:#000000;stroke-width:4;stroke-linecap:butt;stroke-linejoin:miter;stroke-dasharray:none"
       d="m 397.3318,269.141 -71.7452,4.9102 -84.8365,20.1427 c -13.5115,13.6595 -25.1126,30.1839 -34.4484,50.1064 l -71.2445,27.4018 c -43.9226,18.7064 -42.3774,93.7141 7.829,122.1338 72.2281,-3.0714 136.0259,-8.1503 186.3323,-16.4409 119.7122,-25.4577 79.209,-110.5043 68.1133,-208.254 z" />
    <path
       id="path6"
       style="fill:#000000;fill-rule:evenodd"
       d="m 322.5631,312.9843 a 43.0604,43.0604 0 0 1 43.0604,43.0604 43.0604,43.0604 0 1 1 -43.0604,-43.0604 z" />
    <path
       id="path8"
       style="fill:#ffffff;fill-rule:evenodd"
       d="M 304.5577,346.4533 A 12.7223,12.7223 0 0 1 317.28,359.1756 12.7223,12.7223 0 1 1 304.5577,346.4533 Z" />
    <path
       id="path10"
       style="fill:none;stroke:#000000;stroke-width:4;stroke-linecap:butt;stroke-linejoin:miter;stroke-dasharray:none"
       d="m 142.8862,493.8359 c -9.0735,-12.2048 -22.2613,-25.982 -20.7469,-41.8856 l 7.829,8.612 7.046,-9.395 7.4378,8.612 5.4807,-7.4372 7.829,7.046 6.2631,-8.6119 c 5.0351,14.943 13.8441,27.6864 25.1423,38.9763 9.4541,-13.8234 15.2478,-31.0254 17.9181,-51.1113 77.4075,-21.8607 168.3621,37.395 198.8608,-34.446 l -8.2208,-14.0927" />
    <path
       id="path12"
       style="fill:#000000;fill-rule:evenodd"
       d="m 132.7101,431.9881 c -8.6042,-9.4996 -12.4036,-20.2516 -9.0037,-32.8819 5.37,-12.9292 10.4193,-11.0815 15.2668,0 12.0687,-7.6982 16.9008,-5.7446 18.0069,1.1742 -3.2769,13.3552 -11.0763,24.0941 -24.27,31.7077 z" />
    <path
       id="path14"
       style="fill:#000000;fill-rule:evenodd;stroke:#000000;stroke-width:0.5669;stroke-linecap:butt;stroke-linejoin:miter;stroke-dasharray:none"
       d="m 240.7501,294.1939 61.4561,-39.677 21.5896,19.9598 c -39.4639,21.1553 -64.7429,70.8616 -73.5442,115.2429 -18.9686,-26.0489 -21.8489,-57.9946 -9.5015,-95.5257 z" />
    <path
       id="path16"
       style="fill:#000000;fill-rule:evenodd;stroke:#000000;stroke-width:0.5669;stroke-linecap:butt;stroke-linejoin:miter;stroke-dasharray:none"
       d="m 397.3318,269.141 24.7984,84.3406 -9.2316,32.3179 c -6.7347,-8.3362 -14.6454,-20.1966 -21.3783,-28.5316 -21.6761,-26.8324 -47.5617,-34.6336 -63.4227,-83.3883 l -19.6153,-22.4182 z" />
  </g>
</svg>
