<?xml version="1.0" encoding="UTF-8" standalone="no"?>
<svg
   xmlns:dc="http://purl.org/dc/elements/1.1/"
   xmlns:cc="http://creativecommons.org/ns#"
   xmlns:rdf="http://www.w3.org/1999/02/22-rdf-syntax-ns#"
   xmlns:svg="http://www.w3.org/2000/svg"
   xmlns="http://www.w3.org/2000/svg"
   xmlns:sodipodi="http://sodipodi.sourceforge.net/DTD/sodipodi-0.dtd"
   xmlns:inkscape="http://www.inkscape.org/namespaces/inkscape"
   inkscape:version="1.0 (4035a4fb49, 2020-05-01)"
   sodipodi:docname="ram.svg"
   viewBox="0 0 725.66931 725.66931"
   id="svg19"
   height=""
   width=""
   version="1.1">
  <metadata
     id="metadata25">
    <rdf:RDF>
      <cc:Work
         rdf:about="">
        <dc:format>image/svg+xml</dc:format>
        <dc:type
           rdf:resource="http://purl.org/dc/dcmitype/StillImage" />
        <dc:title></dc:title>
      </cc:Work>
    </rdf:RDF>
  </metadata>
  <defs
     id="defs23" />
  <sodipodi:namedview
     inkscape:current-layer="svg19"
     inkscape:window-maximized="0"
     inkscape:window-y="0"
     inkscape:window-x="0"
     inkscape:cy="362.83466"
     inkscape:cx="362.83466"
     inkscape:zoom="0.79650605"
     showgrid="false"
     id="namedview21"
     inkscape:window-height="480"
     inkscape:window-width="820"
     inkscape:pageshadow="2"
     inkscape:pageopacity="0"
     guidetolerance="10"
     gridtolerance="10"
     objecttolerance="10"
     borderopacity="1"
     bordercolor="#666666"
     pagecolor="#ffffff" />
  <g
     id="Layer1000">
    <path
       id="path2"
       style="fill:#ffffff;fill-rule:evenodd;stroke:#000000;stroke-width:7.9999;stroke-linecap:round;stroke-linejoin:round;stroke-dasharray:none"
       d="M 325.7754,270.9121 321.11,253.7111 C 278.4145,235.3478 238.7651,226.3628 206.187,239.1206 l 13.4175,26.5423 z" />
    <path
       id="path4"
       style="fill:#ffffff;fill-rule:evenodd;stroke:#000000;stroke-width:7.9999;stroke-linecap:round;stroke-linejoin:round;stroke-dasharray:none"
       d="M 548.619,300.3788 441.2805,237.3762 c -42.2546,-9.202 -82.583,-5.5755 -120.1705,16.3349 -41.3426,5.2351 -87.7246,1.9455 -139.1794,-9.9286 -12.9589,-10.2321 -29.0504,-13.9167 -52.1603,-2.9051 18.0194,44.9515 59.1822,69.7441 116.0819,80.8386 l 6.4222,7.8297 -4.877,134.7574 150.7166,117.2531 c 11.1352,-30.3327 16.4743,-60.669 15.1655,-91.0036 l 115.5052,-26.835 44.3341,9.3342 30.3345,-23.3339 1.1677,-15.1672 21.0003,-11.6678 -1.1659,-51.3349 -42.0024,-35.0016 z" />
    <path
       id="path6"
       style="fill:#ffffff;fill-rule:evenodd;stroke:#000000;stroke-width:7.9999;stroke-linecap:round;stroke-linejoin:round;stroke-dasharray:none"
       d="m 625.2156,405.0646 -0.2663,-11.6573 c -4.0004,-8.5846 -16.7195,-19.2153 -28.4931,-21.577 -13.2959,6.4503 -15.0967,16.3984 -10.5002,28.2937 11.2057,7.7362 28.8282,8.0908 39.2596,4.9406 z" />
    <path
       id="path8"
       style="fill:none;stroke:#000000;stroke-width:7.9999;stroke-linecap:round;stroke-linejoin:round;stroke-dasharray:none"
       d="m 604.3723,437.7609 c -22.3849,-0.1147 -45.8581,-4.0622 -70.6295,-12.5515" />
    <path
       id="path10"
       style="fill:#ffffff;fill-rule:evenodd;stroke:#000000;stroke-width:7.9999;stroke-linecap:round;stroke-linejoin:round;stroke-dasharray:none"
       d="M 398.114,581.5562 123.3482,503.0865 c 13.631,-12.7773 -4.9299,-17.1992 9.9163,-32.0843 12.2975,-12.331 1.5046,-18.164 8.1666,-23.385 15.3507,-12.0276 7.4381,-15.4265 11.1333,-17.8836 12.0806,-8.0307 5.4503,-15.8992 9.9675,-18.8678 12.4915,-8.2071 7.7768,-9.239 11.9518,-12.9836 4.2703,-3.8311 3.2966,-9.4419 3.9986,-10.3008 7.2865,-8.8986 15.3313,-30.8302 22.6513,-33.5024 22.2949,-8.1349 21.4642,-29.2533 51.1408,-24.5333 7.9408,8.6287 16.7071,-6.7467 18.0247,13.3152 0.0352,0.5521 15.5218,35.8448 16.1003,36.5521 12.9572,15.834 -9.5,18.1023 16.5166,34.6507 9.8422,6.2616 14.1002,-8.3342 14.1002,22.5189 25.528,5.8648 10.0027,16.5272 29.8512,32.3841 5.542,4.4255 -0.8907,13.0278 9.6676,27.8511 2.353,3.3054 0.2981,9.5988 11.8671,16.6171 6.6585,4.0375 -3.5523,14.49 7.5828,23.8683 6.976,5.8736 -3.2437,20.1449 1.7515,23.385 l 8.5493,5.5491 c 2.6652,1.7285 11.0681,12.3698 11.8283,15.3189 z" />
    <path
       id="path12"
       style="fill:none;stroke:#000000;stroke-width:7.9999;stroke-linecap:round;stroke-linejoin:round;stroke-dasharray:none"
       d="m 181.9306,243.7825 c 43.7786,36.4039 79.8315,63.052 108.8343,80.7874" />
    <path
       id="path14"
       style="fill:#ffffff;fill-rule:evenodd;stroke:#000000;stroke-width:7.9999;stroke-linecap:butt;stroke-linejoin:round;stroke-dasharray:none"
       d="m 134.0176,238.9865 c 33.2643,-81.865 157.1053,-143.4743 285.9062,-5.1627 0.702,0.7532 -80.2569,12.4083 -81.6234,11.2038 -68.3648,-60.2537 -130.5542,-29.8117 -147.6355,5.9726 -17.1314,-16.252 -35.6587,-22.8037 -56.6473,-12.0137 z" />
    <path
       id="path16"
       style="fill:#ffffff;fill-rule:evenodd;stroke:#000000;stroke-width:7.9999;stroke-linecap:butt;stroke-linejoin:round;stroke-dasharray:none"
       d="m 132.0192,246.1231 c 13.5604,27.3854 34.0986,46.1897 59.9107,58.4995 16.5324,37.367 66.532,71.7725 159.6293,69.6541 -191.3767,34.9717 -242.7133,-53.298 -219.54,-128.1536 z" />
  </g>
</svg>
