<svg xmlns="http://www.w3.org/2000/svg" viewBox="0 0 725.669 725.669">
    <path fill="#ff7f2a" fill-rule="evenodd" stroke="#1b1918" stroke-width=".567" d="M414.675 597.818l45.746-8.202 17.682-60.452-31.681-31.587-94.058-26.53-54.05 15.245-3.977-1.317 25.501-20.746 2.667-7.69 10.704-8.717 6.2-.113 13.757-11.332 1.253-9.444 10.68-8.748 7.445 1.435 13.473-10.426.64-11.095 12.049-9.708 9.777 1.843 13.99-11.558.747-9.895 12.883-10.093 7.716 1.077 57.869-47.055 2.663-9.293-46.558-57.127-7.309-1.835-111.241 89.49-49.987-61.398-26.027-31.969 54.137-55.77-5.222-6.657-85.04 67.804-.685 77.75 62.837-51.158-62.837 51.159-66.52 53.883-6.496-8.062-15.225-3.459-94.944 74.496.825 17.348 6.725 8.878-9.986 8.188 55.844 70.375 28.192-22.144-5.536-16.984 50.761-41.329 30.889 38.159L224.87 533.1l4.362-3.73 5.185 6.259 23.533-19.905c6.655 3.66 13.715 4.272 21.236 1.439l42.377 51.036z"/>
    <path fill="#ffd42a" fill-rule="evenodd" stroke="#1b1918" stroke-width=".567" d="M170.06 464.897l54.81 68.204-61.764 49.536-4.097 11.592 4.975 20.724 3.469 12.644 6.1 19.103 18.012 20.226c-2.806 6.51-7.249 12.97-14.432 19.349-8.57 5.715-17.536 9.62-27.013 11.186-10.205 1.38-18.658-.134-25.986-3.508-3.395-2.016-5.992-5.089-7.614-9.447l-11.018-53.597 6.552-5.707 3.198-15.016-2.81-3.31-4.914 1.53c-6.6-10.479-5.551-8.073 3.054-16.615l1.663-10.346-9.757-12.296c-7.022-1.613-10.297 1.174-10.196 7.93L49.89 612.1l-37.888-46.67 5.953-51.689 23.957-20.303-1.265-28.716-15.467-3.407 5.693-22.742 13.654.976-.466 18.362 6.723 8.878-9.668 8.588 55.526 69.975 28.193-22.144-5.536-16.985zm-3.508 55.56c-1.79 4.746-2.821 9.702-2.643 14.996 1.724 4.71 5.114 8.719 10.022 12.083l9.721.887 23.929-18.563.762-5.62-18.12-22.454zM319.609 277.273L497.91 133.61l28.432 34.986L349.1 311.026c-.322 7.969 1.588 11.34 3.051 12.535l-12.908 10.385-41.154-50.75c6.007-4.709 13.869-7.514 21.52-5.923zm174.92-171.234v0l-2.582 20.182 77.665 95.682 19.03.485zm0 0l94.882 117.3 28.609-23.112-4.705-69.39 58.997-47.843-58.706-73.305zm179.596-46.02l-6.9 16.625-50.79-63.447 20.813 1.053zm-353.047 216.07l28.022 34.937"/>
    <path fill-rule="evenodd" stroke="#1b1918" stroke-width=".567" d="M581.735 185.489c3.153-2.54 7.96-1.807 10.738 1.64 2.777 3.448 2.472 8.302-.681 10.842-3.154 2.541-7.961 1.807-10.739-1.64-2.777-3.447-2.472-8.301.682-10.842z"/>
    <path fill="#ffd42a" fill-rule="evenodd" stroke="#1b1918" stroke-width=".567" d="M459.357 248.12l27.378 33.622 79.542-63.948-27.257-33.58zM159.898 377.589l66.52-53.883-24.82.47-23.366 19.97 4.526 6.505-27.022 21.772z"/>
    <path fill-rule="evenodd" stroke="#1b1918" stroke-width=".567" d="M385.976 407.368l1.253-9.444 11.477-9.533 9.777 1.843-39.334-47.761c-9.449 1.238-18.135 7.546-21.715 17.016zM422.47 377.964l1.253-9.445 12.38-9.832 7.716 1.078-37.644-44.983c-9.449 1.239-17.55 7.22-21.13 16.69z"/>
    <path fill="#ffd42a" fill-rule="evenodd" stroke="#1b1918" stroke-width=".567" d="M214.452 460.851l-54.887-67.5 39.215-31.882 12.569 15.374c6.54-5.147 10.567-10.215 17.051-4.813l24.455-20.32-.732-11.42 11.939-9.563 11.43.598 11.525 14.303-1.863 9.22-14.843 12.096-7.09-3.583-25.046 20.61c6.39 7.732-1.496 13.137-6.592 17.266l22.71 27.799zM228.4 372.03l9.775 11.94"/>
    <path fill="none" stroke="#1b1918" stroke-width=".567" d="M163.91 535.453c-.43-4.721.535-9.738 2.642-14.996l-8.998 7.108-2.186 11.482 13.695 18.416 3.824-.222 5.167-3.877 5.598-4.94-9.721-.888c-4.57-3.038-8.238-6.803-10.022-12.083zM70.637 525.973l-6.267-7.246-21.587 16.679.512 7.022 5.88 1.266zM49.346 517.824l-3.42-3.535-10.505 8.608 2.795 4.18zM262.883 483.72a11.188 12.134 51.14 0 1 16.468 1.1 11.188 12.134 51.14 1 1-16.468-1.1z"/>
    <path fill="none" stroke="#1b1918" stroke-width=".567" d="M257.951 515.725c-4.349-5.39-8.026-10.019-11.305-16.341-2.954-11.278 2.043-21.61 11.6-27.646 18.36-9.73 25.299.851 36.09 13.237"/>
    <path fill="#ff2a2a" fill-rule="evenodd" stroke="#1b1918" stroke-width=".567" d="M387.87 557.147c-3.473-3.388-7.893-4.333-15.17-3.746-19.299-12.192-12.192-38.103 11.164-37.721 3.675 3.493 9.778 4.827 14.4 3.804l14.125 12.618-4.783 19.436z"/>
    <path fill="#1b1918" fill-rule="evenodd" stroke="#1b1918" stroke-width=".567" d="M392.843 535.7l-2.808 2.547 2.707 3.537 3.537-2.706z"/>
    <path fill="#ff7f2a" fill-rule="evenodd" stroke="#1b1918" stroke-width=".567" d="M218.81 435.24l-34.862-42.702c1.522-6.744 5.935-10.281 13.19-10.667l34.88 42.698c-2.753 7.952-6.93 10.067-13.208 10.672z"/>
    <path fill="none" stroke="#1b1918" stroke-width=".567" d="M200.317 385.816l11.032-8.973M220.207 410.456l11.376-9.219M271.803 359.296l7.3-6.183.809-5.754-8.192-9.899-5.235-.555-8.46 6.992c7.877 5.226 9.633 6.148 13.778 15.4zM284.888 295.516a3.228 3.563-38.86 0 1 4.749.749 3.228 3.563-38.86 1 1-4.75-.749zM59.485 475.128a3.228 3.563-38.86 0 1 4.75.748 3.228 3.563-38.86 1 1-4.75-.748zM99.249 525.72a3.228 3.563-38.86 0 1 4.749.748 3.228 3.563-38.86 1 1-4.75-.748zM446.366 261.191a3.228 3.563-38.86 0 1 4.75.749 3.228 3.563-38.86 1 1-4.75-.749z"/>
    <path fill="#ffd42a" fill-rule="evenodd" stroke="#1b1918" stroke-width=".567" d="M618.02 200.227l-.792-11.68c2 5.875 18.824 19.557 27.702 19.586 6.823 1.216 13.975 1.031 21.418-.388 7.154-2.51 13.707-6.637 19.813-11.96l7.858-20.056 9.843-9.075-36.997-6.913 13.927-57.984-4.803-1.279-19.508-4.647-43.167 35.005zm-3.523-51.948c-2.091 7.407 21.477 44.993 47.857 40.669l7.84-5.174 1.127-5.769-.555-12.148-3.9-6.116z"/>
    <path fill="#ffd42a" fill-rule="evenodd" stroke="#1b1918" stroke-width=".567" d="M666.865 159.742l13.928-57.985 5.33-3.171 8.557 1.399 5.325-22.084 10.558-2.831 6.258 28.534-12.959 63.05z"/>
    <path fill="#ff7f2a" fill-rule="evenodd" stroke="#1b1918" stroke-width=".567" d="M143.58 580.92c7.294-4.726 13.772-3.949 19.526 1.716l-4.097 11.593 4.975 20.724 4.685 14.596 4.883 17.151 9.007 10.113-2.372 1.832-29.48-8.556-10.31-14.568-7.896-31.092z"/>
    <path fill="none" stroke="#1b1918" stroke-width=".567" d="M102.488 569.149l48.184-37.983-10.58-13.485 17.176-14.348 13.02 14.042M50.784 466.79l109.114-89.201"/>
    <path fill="none" stroke="#1b1918" stroke-width=".567" d="M161.569 510.557l-3.957-4.137-5.75 6.349 4.113 2.976zM165.978 515.032l-2.957-3.003-3.872 6.59 1.988 2.516zM263.221 363.361l7.557-6.351"/>
    <path fill="#1b1918" fill-rule="evenodd" stroke="#1b1918" stroke-width=".567" d="M382.904 539.215l-4.48 7.05 5.69 3.04 2.485-5.432zM385.582 525.058l.117 6.768 4.957-.944.996-5.91z"/>
    <path fill="#ffd42a" fill-rule="evenodd" stroke="#1b1918" stroke-width=".567" d="M365.154 474.655l-32.797 96.978c-5.514 3.489-9.158 2.455-10.793-3.433l15.4-48.577 15.4-48.575c5.647-3.421 9.91-2.218 12.79 3.607zM430.635 594.957c-5.586 6.631-10.893 7.321-15.96 2.861l31.747-100.24c5.819.296 9.085 3.378 9.546 9.516z"/>
    <path fill-rule="evenodd" stroke="#1b1918" stroke-width=".567" d="M314.514 388.36c3.58-9.47 10.368-14.443 19.817-15.68l38.214 46.94-7.446-1.435-10.68 8.748-1.253 9.444zM294.459 432.685c4.684-8.1 11.389-13.176 19.769-15.741l25.18 30.765-6.199.113-10.704 8.717-2.667 7.69z"/>
    <path fill="none" stroke="#1b1918" stroke-width=".567" d="M670.766 165.857l28.174 5.334M622.239 195.19l-.683-29.947M627.295 199.61l.604-26.434M632.11 203.04l1.26-24.527M638.594 182.554l-1.516 23.304M641.848 207.683l1.732-22.159M646.499 208.386l1.62-20.895M651.408 208.867l1.748-20.023M655.654 208.921l2.29-19.628M662.354 188.948l-2.153 19.691M666.274 186.361l-2.078 21.761M670.194 183.774l-2.325 23.41M670.942 169.73l24.369 4.807M671.133 173.896l21.917 4.303M671.321 178.005l19.894 3.354M670.657 181.404l19.891 3.182M670.194 183.774l18.81 4.752M670.093 184.79l17.022 8.559M669.707 184.095l14.052 12.993M670.194 183.774l9.254 17.232M670.194 183.774l3.971 20.48M228.4 372.03l31.77-26.397"/>
    <path fill-rule="evenodd" stroke="#1b1918" stroke-width=".567" d="M543.207 85.078c3.153-2.54 7.96-1.806 10.738 1.64 2.778 3.448 2.472 8.302-.68 10.842-3.154 2.541-7.962 1.807-10.74-1.64-2.777-3.447-2.471-8.301.682-10.842zM569.178 64.31c3.153-2.54 7.961-1.806 10.739 1.641 2.777 3.447 2.472 8.301-.681 10.842-3.154 2.54-7.962 1.807-10.74-1.64-2.777-3.448-2.471-8.302.682-10.842zM595.592 43.029c3.153-2.54 7.96-1.807 10.738 1.64 2.777 3.447 2.472 8.301-.681 10.842-3.154 2.54-7.961 1.807-10.739-1.64-2.777-3.448-2.472-8.302.682-10.842zM538.276 132.67a7.333 8.015-38.86 0 1 10.738 1.64 7.333 8.015-38.86 1 1-10.738-1.64zM590.566 90.549c3.153-2.54 7.96-1.806 10.738 1.64 2.777 3.448 2.472 8.302-.681 10.842-3.154 2.541-7.961 1.807-10.739-1.64-2.777-3.447-2.472-8.301.682-10.842zM564.125 111.979c3.153-2.54 7.96-1.807 10.738 1.64 2.777 3.448 2.472 8.301-.681 10.842-3.154 2.54-7.961 1.807-10.739-1.64-2.777-3.447-2.472-8.301.682-10.842zM516.851 106.812a7.333 8.015-38.86 0 1 10.739 1.64 7.333 8.015-38.86 1 1-10.739-1.64zM616.547 69.605c3.153-2.54 7.961-1.807 10.738 1.64 2.778 3.447 2.473 8.301-.68 10.842-3.154 2.54-7.962 1.807-10.74-1.64-2.777-3.448-2.471-8.302.682-10.842zM585.722 136.35c3.153-2.541 7.96-1.807 10.738 1.64 2.778 3.447 2.472 8.3-.68 10.841-3.154 2.541-7.962 1.807-10.74-1.64-2.777-3.447-2.472-8.3.682-10.842zM559.283 157.652c3.153-2.54 7.96-1.807 10.738 1.64 2.778 3.448 2.472 8.302-.68 10.842-3.154 2.54-7.962 1.807-10.74-1.64-2.777-3.447-2.472-8.301.682-10.842z"/>
    <path fill="none" stroke="#1b1918" stroke-width=".567" d="M599.277 21.313l58.942 73.154"/>
</svg>
