<?xml version="1.0" encoding="UTF-8" standalone="no"?>
<svg
   xmlns:dc="http://purl.org/dc/elements/1.1/"
   xmlns:cc="http://creativecommons.org/ns#"
   xmlns:rdf="http://www.w3.org/1999/02/22-rdf-syntax-ns#"
   xmlns:svg="http://www.w3.org/2000/svg"
   xmlns="http://www.w3.org/2000/svg"
   xmlns:sodipodi="http://sodipodi.sourceforge.net/DTD/sodipodi-0.dtd"
   xmlns:inkscape="http://www.inkscape.org/namespaces/inkscape"
   version="1.1"
   width=""
   height=""
   id="svg61"
   viewBox="0 0 725.66931 725.66931"
   sodipodi:docname="Hot-shot lasgun.svg"
   inkscape:version="0.92.3 (2405546, 2018-03-11)">
  <metadata
     id="metadata67">
    <rdf:RDF>
      <cc:Work
         rdf:about="">
        <dc:format>image/svg+xml</dc:format>
        <dc:type
           rdf:resource="http://purl.org/dc/dcmitype/StillImage" />
        <dc:title></dc:title>
      </cc:Work>
    </rdf:RDF>
  </metadata>
  <defs
     id="defs65" />
  <sodipodi:namedview
     pagecolor="#ffffff"
     bordercolor="#666666"
     borderopacity="1"
     objecttolerance="10"
     gridtolerance="10"
     guidetolerance="10"
     inkscape:pageopacity="0"
     inkscape:pageshadow="2"
     inkscape:window-width="1920"
     inkscape:window-height="1028"
     id="namedview63"
     showgrid="false"
     inkscape:zoom="1.300868"
     inkscape:cx="388.47927"
     inkscape:cy="407.21616"
     inkscape:window-x="-8"
     inkscape:window-y="-8"
     inkscape:window-maximized="1"
     inkscape:current-layer="Layer1000" />
  <g
     id="Layer1000">
    <path
       d="m 670.8964,34.047 26.448,30.1329 -137.071,120.3092 -26.448,-30.1329 z"
       style="fill:#ff7f2a;fill-rule:evenodd;stroke:#000000;stroke-width:0.56690001;stroke-linecap:butt;stroke-linejoin:miter;stroke-dasharray:none;fill-opacity:1"
       id="path2"
       inkscape:connector-curvature="0" />
    <path
       d="m 587.6334,119.4077 10.2052,-8.9572 20.36,23.1967 -10.2051,8.9572 z"
       style="fill:#000000;fill-opacity:0.39215687;fill-rule:evenodd;stroke:#000000;stroke-width:0.56690001;stroke-linecap:butt;stroke-linejoin:miter;stroke-dasharray:none"
       id="path4"
       inkscape:connector-curvature="0" />
    <path
       d="m 599.5473,162.239 14.5054,-12.6716 -6.0592,-6.963 -14.4034,-16.4101 c -5.0086,-9.9152 1.5526,-15.3693 10.0793,-9.1006 l 14.5292,16.5535 6.1109,6.9623 53.9946,-47.0903 0.1842,-86.0898 -121.3408,106.5026 z"
       style="fill:#ff7f2a;fill-rule:evenodd;stroke:#000000;stroke-width:0.56690001;stroke-linecap:butt;stroke-linejoin:miter;stroke-dasharray:none;fill-opacity:0.99145299"
       id="path6"
       inkscape:connector-curvature="0" />
    <path
       d="m 108.7168,585.0996 -43.5306,-49.5954 21.0484,-18.4745 2.7511,-34.5652 72.9199,-64.0029 23.0579,5.6232 93.7379,-82.2751 0.5187,-26.3167 68.6599,-60.2638 25.037,28.0729 11.3796,-9.8988 -8.9175,-10.1599 127.1502,-111.6016 31.2961,2.7144 26.448,30.1329 0.3608,33.353 -127.1502,111.6015 -10.278,-11.71 -11.3354,9.9492 10.2781,11.71 -128.23,112.5493 29.5836,33.7053 -23.1345,19.6944 -33.1121,-37.7254 -11.5014,10.095 33.415,38.0705 -40.1388,35.2305 -39.2688,-44.7398 -83.1581,72.9891 z"
       style="fill:#ff7f2a;fill-rule:evenodd;stroke:#000000;stroke-width:0.56690001;stroke-linecap:butt;stroke-linejoin:miter;stroke-dasharray:none"
       id="path8"
       inkscape:connector-curvature="0" />
    <path
       d="M 363.8195,273.3894 86.2346,517.0297"
       style="fill:none;stroke:#000000;stroke-width:0.56690001;stroke-linecap:butt;stroke-linejoin:miter;stroke-dasharray:none"
       id="path10"
       inkscape:connector-curvature="0" />
    <path
       d="m 414.8893,308.1021 -30.5927,-34.6988 -11.3796,9.8988 30.47,34.8958 -128.1404,112.4707 18.6721,21.2735 128.23,-112.5493 -10.2781,-11.71 11.3354,-9.9492 10.278,11.71 z"
       style="fill:none;stroke:#000000;stroke-width:0.56690001;stroke-linecap:butt;stroke-linejoin:miter;stroke-dasharray:none"
       id="path12"
       inkscape:connector-curvature="0" />
    <path
       d="m 96.1491,529.5776 7.7736,8.8567 80.5125,-70.667 -7.7736,-8.8567 z"
       style="fill:none;stroke:#000000;stroke-width:0.56690001;stroke-linecap:butt;stroke-linejoin:miter;stroke-dasharray:none"
       id="path14"
       inkscape:connector-curvature="0" />
    <path
       d="m 201.6223,448.6077 a 9.9473,9.9473 0 0 1 14.0379,0.9142 9.9473,9.9473 0 1 1 -14.0379,-0.9142 z"
       style="fill:#ffd42a;fill-rule:evenodd;stroke:#000000;stroke-width:0.56690001;stroke-linecap:butt;stroke-linejoin:miter;stroke-dasharray:none"
       id="path16"
       inkscape:connector-curvature="0" />
    <path
       d="m 218.3642,492.9625 37.4533,42.6714 12.077,-10.6001 -37.4534,-42.6714 z"
       style="fill:#ffd42a;fill-rule:evenodd;stroke:#000000;stroke-width:0.56690001;stroke-linecap:butt;stroke-linejoin:miter;stroke-dasharray:none"
       id="path18"
       inkscape:connector-curvature="0" />
    <path
       d="m 74.5089,546.1257 34.2079,38.9739 -12.8725,4.2013 -24.8341,-28.2941 z"
       style="fill:#ffd42a;fill-rule:evenodd;stroke:#000000;stroke-width:0.56690001;stroke-linecap:butt;stroke-linejoin:miter;stroke-dasharray:none"
       id="path20"
       inkscape:connector-curvature="0" />
    <path
       d="m 71.1109,561.1216 24.7334,28.1793 -9.201,8.0758 -24.7334,-28.1793 z"
       style="fill:#ffd42a;fill-rule:evenodd;stroke:#000000;stroke-width:0.56690001;stroke-linecap:butt;stroke-linejoin:miter;stroke-dasharray:none"
       id="path22"
       inkscape:connector-curvature="0" />
    <path
       d="M 47.4692,552.7447 97.6982,609.9718 56.6308,645.6156 6.3722,588.8161 Z"
       style="fill:#ffd42a;fill-rule:evenodd;stroke:#000000;stroke-width:0.56690001;stroke-linecap:butt;stroke-linejoin:miter;stroke-dasharray:none"
       id="path24"
       inkscape:connector-curvature="0" />
    <path
       d="m 209.7617,506.2726 -80.489,70.6464 12.7948,14.5773 c -3.0785,8.6926 -7.1113,27.6072 -7.1867,46.7147 -0.0803,20.1876 3.2495,80.8426 30.4885,81.9001 21.3144,0.8274 41.9328,-7.2434 58.5856,-24.0638 1.8592,-1.8782 1.0558,-1.8765 2.8873,-4.0319 8.3161,-25.3015 -68.8806,-17.7332 -31.7686,-110.189 l 45.7544,-40.1593 z m 19.6344,22.3699 -41.456,36.3865 c -8.2232,-5.5792 -12.2331,-11.4455 -7.8735,-21.9613 l 35.0154,-30.7336 z"
       style="fill:#ffd42a;fill-rule:evenodd;stroke:#000000;stroke-width:0.56690001;stroke-linecap:butt;stroke-linejoin:miter;stroke-dasharray:none"
       id="path26"
       inkscape:connector-curvature="0" />
    <path
       d="m 165.3693,720.1111 c -26.6468,0.7361 -31.6378,-63.0322 -30.4885,-81.9001 l 15.5399,-3.3333 c 9.82,70.5151 52.1058,53.9992 69.6765,49.8301 5.679,-1.3475 9.9985,1.7167 6.2046,7.9388 -10.4466,17.1345 -41.2634,28.4569 -60.9325,27.4645 z"
       style="fill:#ff7f2a;fill-rule:evenodd;stroke:#000000;stroke-width:0.56690001;stroke-linecap:butt;stroke-linejoin:miter;stroke-dasharray:none"
       id="path28"
       inkscape:connector-curvature="0" />
    <path
       d="m 229.3961,528.6425 -14.3141,-16.3084 -50.1979,44.0595 14.3141,16.3083 z"
       style="fill:none;stroke:#000000;stroke-width:0.56690001;stroke-linecap:butt;stroke-linejoin:miter;stroke-dasharray:none"
       id="path30"
       inkscape:connector-curvature="0" />
    <path
       d="m 260.2841,541.1349 28.8852,-25.353 -33.415,-38.0705 11.5014,-10.095 33.1699,38.2858 11.3866,-9.9943 27.508,31.3405 -51.5281,45.227 z"
       style="fill:#ffd42a;fill-rule:evenodd;stroke:#000000;stroke-width:0.56690001;stroke-linecap:butt;stroke-linejoin:miter;stroke-dasharray:none"
       id="path32"
       inkscape:connector-curvature="0" />
    <path
       d="m 75.7104,526.2669 10.5242,-9.2372 2.325,-29.2058 -26.317,23.0988 z"
       style="fill:#ffd42a;fill-rule:evenodd;stroke:#000000;stroke-width:0.56690001;stroke-linecap:butt;stroke-linejoin:miter;stroke-dasharray:none"
       id="path34"
       inkscape:connector-curvature="0" />
    <path
       d="m 184.9635,424.0848 -23.0579,-5.6232 117.3145,-102.9686 -0.5187,26.3167 z"
       style="fill:#ffd42a;fill-rule:evenodd;stroke:#000000;stroke-width:0.56690001;stroke-linecap:butt;stroke-linejoin:miter;stroke-dasharray:none"
       id="path36"
       inkscape:connector-curvature="0" />
    <path
       d="m 414.8893,308.1021 -30.5927,-34.6988 -11.3796,9.8988 30.47,34.8958 -128.1404,112.4707 18.6721,21.2735 128.23,-112.5493 -10.2781,-11.71 11.3354,-9.9492 10.278,11.71 z"
       style="fill:#000000;fill-opacity:0.39215687;fill-rule:evenodd;stroke:#000000;stroke-width:0.56690001;stroke-linecap:butt;stroke-linejoin:miter;stroke-dasharray:none"
       id="path38"
       inkscape:connector-curvature="0" />
    <path
       d="m 215.0486,673.4301 c -34.2004,-20.0577 -38.1268,-50.5182 -19.0351,-92.4286 l -17.4447,15.3114 c -15.8838,30.7401 -8.1431,92.7907 36.4798,77.1172 z"
       style="fill:none;stroke:#000000;stroke-width:0.56690001;stroke-linecap:butt;stroke-linejoin:miter;stroke-dasharray:none"
       id="path40"
       inkscape:connector-curvature="0" />
    <path
       d="m 215.0486,673.4301 c -34.529,-20.3865 -37.46292,-52.02398 -19.0351,-92.4286 l -17.4447,15.3114 c -13.7087,26.5299 -9.8198,76.3832 20.1877,79.4637 4.7609,0.4896 10.1815,-0.2001 16.2921,-2.3465 z"
       style="fill:#000000;fill-opacity:0.39215686;fill-rule:evenodd;stroke:#000000;stroke-width:0.56690001;stroke-linecap:butt;stroke-linejoin:miter;stroke-dasharray:none"
       id="path42"
       inkscape:connector-curvature="0"
       sodipodi:nodetypes="ccccc" />
    <path
       d="m 372.917,283.3021 38.9536,44.3807"
       style="fill:#ffd42a;fill-rule:evenodd;stroke:#000000;stroke-width:0.56690001;stroke-linecap:butt;stroke-linejoin:miter;stroke-dasharray:none"
       id="path44"
       inkscape:connector-curvature="0" />
    <path
       d="M 423.206,317.7336 384.2966,273.4033"
       style="fill:#ffd42a;fill-rule:evenodd;stroke:#000000;stroke-width:0.56690001;stroke-linecap:butt;stroke-linejoin:miter;stroke-dasharray:none"
       id="path46"
       inkscape:connector-curvature="0" />
    <path
       d="m 263.3895,474.8101 a 5.2415,5.2415 0 0 1 7.3969,0.4817 5.2415,5.2415 0 1 1 -7.3969,-0.4817 z"
       style="fill:#ffd42a;fill-rule:evenodd;stroke:#000000;stroke-width:0.56690001;stroke-linecap:butt;stroke-linejoin:miter;stroke-dasharray:none"
       id="path48"
       inkscape:connector-curvature="0" />
    <path
       d="M 530.7393,183.7821 403.7517,295.5689"
       style="fill:#ffd42a;fill-rule:evenodd;stroke:#000000;stroke-width:0.56690001;stroke-linecap:butt;stroke-linejoin:miter;stroke-dasharray:none"
       id="path50"
       inkscape:connector-curvature="0" />
    <path
       d="m 401.1323,276.6826 20.9476,23.8661 29.3295,-25.7429 -20.9476,-23.8662 z"
       style="fill:#ff7f2a;fill-rule:evenodd;stroke:#000000;stroke-width:0.56690001;stroke-linecap:butt;stroke-linejoin:miter;stroke-dasharray:none"
       id="path52"
       inkscape:connector-curvature="0" />
    <path
       d="m 441.912,240.7864 20.9477,23.8662 29.3295,-25.7429 -20.9477,-23.8662 z"
       style="fill:#ff7f2a;fill-rule:evenodd;stroke:#000000;stroke-width:0.56690001;stroke-linecap:butt;stroke-linejoin:miter;stroke-dasharray:none"
       id="path54"
       inkscape:connector-curvature="0" />
    <path
       d="m 482.6487,204.9236 20.9476,23.8661 29.3295,-25.7429 -20.9476,-23.8662 z"
       style="fill:#ff7f2a;fill-rule:evenodd;stroke:#000000;stroke-width:0.56690001;stroke-linecap:butt;stroke-linejoin:miter;stroke-dasharray:none"
       id="path56"
       inkscape:connector-curvature="0" />
    <path
       d="m 502.5293,151.6418 58.1049,66.2003"
       style="fill:none;stroke:#000000;stroke-width:0.56690001;stroke-linecap:butt;stroke-linejoin:miter;stroke-dasharray:none"
       id="path58"
       inkscape:connector-curvature="0" />
  </g>
</svg>
