<?xml version="1.0" encoding="UTF-8" standalone="no"?>
<svg
   xmlns:dc="http://purl.org/dc/elements/1.1/"
   xmlns:cc="http://creativecommons.org/ns#"
   xmlns:rdf="http://www.w3.org/1999/02/22-rdf-syntax-ns#"
   xmlns:svg="http://www.w3.org/2000/svg"
   xmlns="http://www.w3.org/2000/svg"
   xmlns:sodipodi="http://sodipodi.sourceforge.net/DTD/sodipodi-0.dtd"
   xmlns:inkscape="http://www.inkscape.org/namespaces/inkscape"
   version="1.1"
   width=""
   height=""
   id="svg57"
   viewBox="0 0 725.66931 725.66931"
   sodipodi:docname="Lasgun.svg"
   inkscape:version="0.92.3 (2405546, 2018-03-11)">
  <metadata
     id="metadata63">
    <rdf:RDF>
      <cc:Work
         rdf:about="">
        <dc:format>image/svg+xml</dc:format>
        <dc:type
           rdf:resource="http://purl.org/dc/dcmitype/StillImage" />
        <dc:title></dc:title>
      </cc:Work>
    </rdf:RDF>
  </metadata>
  <defs
     id="defs61" />
  <sodipodi:namedview
     pagecolor="#ffffff"
     bordercolor="#666666"
     borderopacity="1"
     objecttolerance="10"
     gridtolerance="10"
     guidetolerance="10"
     inkscape:pageopacity="0"
     inkscape:pageshadow="2"
     inkscape:window-width="1920"
     inkscape:window-height="1028"
     id="namedview59"
     showgrid="false"
     inkscape:zoom="1"
     inkscape:cx="303.58254"
     inkscape:cy="312.48258"
     inkscape:window-x="-8"
     inkscape:window-y="-8"
     inkscape:window-maximized="1"
     inkscape:current-layer="Layer1000" />
  <g
     id="Layer1000">
    <path
       d="M 654.2102,27.8752 677.9749,52.0351 534.2996,193.3604 510.5349,169.2005 Z"
       style="fill:#ff7f2a;fill-rule:evenodd;stroke:#000000;stroke-width:0.56690001;stroke-linecap:butt;stroke-linejoin:miter;stroke-dasharray:none"
       id="path2"
       inkscape:connector-curvature="0" />
    <path
       d="m 570.6091,121.051 8.1822,-8.0485 18.2945,18.5987 -8.1823,8.0484 z"
       style="fill:#000000;fill-opacity:0.39215687;fill-rule:evenodd;stroke:#000000;stroke-width:0.56690001;stroke-linecap:butt;stroke-linejoin:miter;stroke-dasharray:none"
       id="path4"
       inkscape:connector-curvature="0" />
    <path
       d="m 582.7178,156.6241 11.633,-11.3892 -5.4473,-5.5853 -12.9421,-13.1573 c -4.7024,-8.127 0.5729,-13.0444 8.0692,-8.1634 l 13.0552,13.2723 5.4908,5.5821 59.445,-58.2037 -3.9747,-72.6589 -113.4271,111.5719 z"
       style="fill:#ff7f2a;fill-rule:evenodd;stroke:#000000;stroke-width:0.56690001;stroke-linecap:butt;stroke-linejoin:miter;stroke-dasharray:none;fill-opacity:1"
       id="path6"
       inkscape:connector-curvature="0" />
    <path
       d="m 486.0513,170.5024 52.2099,53.078"
       style="fill:none;stroke:#000000;stroke-width:0.56690001;stroke-linecap:butt;stroke-linejoin:miter;stroke-dasharray:none"
       id="path8"
       inkscape:connector-curvature="0" />
    <path
       d="m 174.5129,555.1841 -39.1142,-39.7646 16.8762,-16.6001 0.6633,-29.3011 58.4657,-57.5094 19.728,3.6392 75.1572,-73.9278 -0.8248,-22.2332 55.05,-54.1496 14.3224,14.5605 111.2146,-109.3956 24.4836,-1.3019 23.7647,24.1599 3.9616,30.22 -213.847,210.3492 26.5821,27.0241 -18.5781,17.7297 -29.7526,-30.2474 -9.2216,9.0707 30.0249,30.5242 -32.1826,31.6561 -35.2846,-35.8714 -66.6745,65.5839 z"
       style="fill:#ff7f2a;fill-rule:evenodd;stroke:#000000;stroke-width:0.56690001;stroke-linecap:butt;stroke-linejoin:miter;stroke-dasharray:none;fill-opacity:0.93162394"
       id="path10"
       inkscape:connector-curvature="0" />
    <path
       d="M 374.8367,279.898 152.2749,498.8194"
       style="fill:none;stroke:#000000;stroke-width:0.56690001;stroke-linecap:butt;stroke-linejoin:miter;stroke-dasharray:none"
       id="path12"
       inkscape:connector-curvature="0" />
    <path
       d="m 538.2612,223.5804 -16.7778,-17.0567 -213.8469,210.3492 16.7777,17.0567 z"
       style="fill:none;stroke:#000000;stroke-width:0.56690001;stroke-linecap:butt;stroke-linejoin:miter;stroke-dasharray:none"
       id="path14"
       inkscape:connector-curvature="0" />
    <path
       d="m 161.2435,508.9328 6.985,7.1011 64.5532,-63.4974 -6.9849,-7.1011 z"
       style="fill:#000000;fill-rule:evenodd;stroke:#000000;stroke-width:0.56690001;stroke-linecap:butt;stroke-linejoin:miter;stroke-dasharray:none"
       id="path16"
       inkscape:connector-curvature="0" />
    <path
       d="m 246.3665,435.5435 a 8.408,8.408 0 0 1 11.8902,0.098 8.408,8.408 0 1 1 -11.8902,-0.098 z"
       style="fill:#ffd42a;fill-rule:evenodd;stroke:#000000;stroke-width:0.56690001;stroke-linecap:butt;stroke-linejoin:miter;stroke-dasharray:none"
       id="path18"
       inkscape:connector-curvature="0" />
    <path
       d="m 262.6226,472.1707 33.6535,34.2131 9.683,-9.5247 -33.6534,-34.2131 z"
       style="fill:#ffd42a;fill-rule:evenodd;stroke:#000000;stroke-width:0.56690001;stroke-linecap:butt;stroke-linejoin:miter;stroke-dasharray:none"
       id="path20"
       inkscape:connector-curvature="0" />
    <path
       d="m 143.7756,523.9357 30.7373,31.2484 -10.6615,4.1629 -22.3145,-22.6855 z"
       style="fill:#ffd42a;fill-rule:evenodd;stroke:#000000;stroke-width:0.56690001;stroke-linecap:butt;stroke-linejoin:miter;stroke-dasharray:none"
       id="path22"
       inkscape:connector-curvature="0" />
    <path
       d="m 141.6274,536.7535 22.224,22.5935 -7.3771,7.2565 -22.224,-22.5936 z"
       style="fill:#ffd42a;fill-rule:evenodd;stroke:#000000;stroke-width:0.56690001;stroke-linecap:butt;stroke-linejoin:miter;stroke-dasharray:none"
       id="path24"
       inkscape:connector-curvature="0" />
    <path
       d="m 134.2503,544.0099 22.4406,22.6535 -4.8543,17.5891 -39.7642,-40.4254 z"
       style="fill:#ffd42a;fill-rule:evenodd;stroke:#000000;stroke-width:0.56690001;stroke-linecap:butt;stroke-linejoin:miter;stroke-dasharray:none"
       id="path26"
       inkscape:connector-curvature="0" />
    <path
       d="m 112.0724,543.8271 39.7642,40.4254 C 103.0449,635.7668 84.4495,674.8792 96.5593,702.1083 L 77.2266,721.1275 5.724,648.436 Z"
       style="fill:#ff7f2a;fill-rule:evenodd;stroke:#000000;stroke-width:0.56690001;stroke-linecap:butt;stroke-linejoin:miter;stroke-dasharray:none"
       id="path28"
       inkscape:connector-curvature="0" />
    <path
       d="m 256.0017,483.8156 -64.5345,63.4788 11.4967,11.6879 c -2.1809,7.4832 -4.6767,23.6384 -3.8237,39.7666 0.9007,17.0399 6.6205,68.0661 29.6579,67.6518 18.0266,-0.3243 35.039,-8.1243 48.2851,-23.1178 1.4789,-1.6741 0.801,-1.6341 2.2431,-3.5409 5.8041,-21.7505 -58.9781,-11.6604 -32.0952,-91.463 l 36.685,-36.0848 z m 17.6423,17.9357 -33.2386,32.6949 c -7.207,-4.3137 -10.8724,-9.0719 -7.6979,-18.1552 l 28.0747,-27.6154 z"
       style="fill:#ffd42a;fill-rule:evenodd;stroke:#000000;stroke-width:0.56690001;stroke-linecap:butt;stroke-linejoin:miter;stroke-dasharray:none"
       id="path30"
       inkscape:connector-curvature="0" />
    <path
       d="m 228.7981,666.4007 c -22.4516,1.8995 -29.7226,-51.6743 -29.6579,-67.6518 l 12.954,-3.5584 c 11.6698,59.0356 46.5619,43.0694 61.1896,38.7083 4.7278,-1.4096 8.52,0.9691 5.6168,6.4018 -7.9938,14.9607 -33.4564,25.994 -50.1025,26.1001 z"
       style="fill:#ff7f2a;fill-rule:evenodd;stroke:#000000;stroke-width:0.56690001;stroke-linecap:butt;stroke-linejoin:miter;stroke-dasharray:none"
       id="path32"
       inkscape:connector-curvature="0" />
    <path
       d="m 273.644,501.7513 -12.8618,-13.0757 -40.2477,39.5893 12.8618,13.0758 z"
       style="fill:none;stroke:#000000;stroke-width:0.56690001;stroke-linecap:butt;stroke-linejoin:miter;stroke-dasharray:none"
       id="path34"
       inkscape:connector-curvature="0" />
    <path
       d="m 300.3093,510.8117 23.1596,-22.7808 -30.0249,-30.5242 9.2216,-9.0707 29.8283,30.7175 9.1296,-8.9802 24.7171,25.1281 -41.3142,40.6384 z"
       style="fill:#ffd42a;fill-rule:evenodd;stroke:#000000;stroke-width:0.56690001;stroke-linecap:butt;stroke-linejoin:miter;stroke-dasharray:none"
       id="path36"
       inkscape:connector-curvature="0" />
    <path
       d="m 152.2749,498.8194 0.5609,-24.7579 -22.4472,22.08 z"
       style="fill:#ffd42a;fill-rule:evenodd;stroke:#000000;stroke-width:0.56690001;stroke-linecap:butt;stroke-linejoin:miter;stroke-dasharray:none"
       id="path38"
       inkscape:connector-curvature="0" />
    <path
       d="m 231.1319,415.6481 -19.728,-3.6392 94.0604,-92.5218 0.8248,22.2332 z"
       style="fill:#ffd42a;fill-rule:evenodd;stroke:#000000;stroke-width:0.56690001;stroke-linecap:butt;stroke-linejoin:miter;stroke-dasharray:none"
       id="path40"
       inkscape:connector-curvature="0" />
    <path
       d="m 538.2612,223.5804 -16.7778,-17.0567 -213.8469,210.3492 16.7777,17.0567 z"
       style="fill:#000000;fill-opacity:0.39215687;fill-rule:evenodd;stroke:#000000;stroke-width:0.56690001;stroke-linecap:butt;stroke-linejoin:miter;stroke-dasharray:none"
       id="path42"
       inkscape:connector-curvature="0" />
    <path
       d="m 268.4823,624.6239 c -29.8235,-15.2857 -34.5982,-40.8025 -20.4976,-77.0861 l -13.9868,13.758 c -11.9294,26.7032 -2.4203,78.6955 34.4844,63.3281 z"
       style="fill:none;stroke:#000000;stroke-width:0.56690001;stroke-linecap:butt;stroke-linejoin:miter;stroke-dasharray:none"
       id="path44"
       inkscape:connector-curvature="0" />
    <path
       d="m 268.4823,624.6239 c -30.1166,-15.5474 -34.11161,-42.13805 -20.4976,-77.0861 l -13.9868,13.758 c -10.2958,23.0459 -4.6224,64.9298 20.8483,66.0899 4.0412,0.1847 8.5824,-0.6573 13.6361,-2.7618 z"
       style="fill:#000000;fill-opacity:0.39215686;fill-rule:evenodd;stroke:#000000;stroke-width:0.56690001;stroke-linecap:butt;stroke-linejoin:miter;stroke-dasharray:none"
       id="path46"
       inkscape:connector-curvature="0"
       sodipodi:nodetypes="ccccc" />
    <path
       d="m 299.7734,454.8043 a 4.4303,4.4303 0 0 1 6.2652,0.0517 4.4303,4.4303 0 1 1 -6.2652,-0.0517 z"
       style="fill:#ffd42a;fill-rule:evenodd;stroke:#000000;stroke-width:0.56690001;stroke-linecap:butt;stroke-linejoin:miter;stroke-dasharray:none"
       id="path48"
       inkscape:connector-curvature="0" />
    <path
       d="m 374.8367,279.898 52.2098,53.078"
       style="fill:#ffd42a;fill-rule:evenodd;stroke:#000000;stroke-width:0.56690001;stroke-linecap:butt;stroke-linejoin:miter;stroke-dasharray:none"
       id="path50"
       inkscape:connector-curvature="0" />
    <path
       d="m 286.2037,367.0812 52.2098,53.078"
       style="fill:#ffd42a;fill-rule:evenodd;stroke:#000000;stroke-width:0.56690001;stroke-linecap:butt;stroke-linejoin:miter;stroke-dasharray:none"
       id="path52"
       inkscape:connector-curvature="0" />
    <path
       d="m 486.0513,170.5024 52.2099,53.078"
       style="fill:#ffd42a;fill-rule:evenodd;stroke:#000000;stroke-width:0.56690001;stroke-linecap:butt;stroke-linejoin:miter;stroke-dasharray:none"
       id="path54"
       inkscape:connector-curvature="0" />
  </g>
</svg>
