<?xml version="1.0" encoding="UTF-8" standalone="no"?>
<svg
   xmlns:dc="http://purl.org/dc/elements/1.1/"
   xmlns:cc="http://creativecommons.org/ns#"
   xmlns:rdf="http://www.w3.org/1999/02/22-rdf-syntax-ns#"
   xmlns:svg="http://www.w3.org/2000/svg"
   xmlns="http://www.w3.org/2000/svg"
   xmlns:sodipodi="http://sodipodi.sourceforge.net/DTD/sodipodi-0.dtd"
   xmlns:inkscape="http://www.inkscape.org/namespaces/inkscape"
   version="1.1"
   width=""
   height=""
   id="svg37"
   viewBox="0 0 725.66931 725.66931"
   sodipodi:docname="Laspistol.svg"
   inkscape:version="0.92.3 (2405546, 2018-03-11)">
  <metadata
     id="metadata43">
    <rdf:RDF>
      <cc:Work
         rdf:about="">
        <dc:format>image/svg+xml</dc:format>
        <dc:type
           rdf:resource="http://purl.org/dc/dcmitype/StillImage" />
        <dc:title></dc:title>
      </cc:Work>
    </rdf:RDF>
  </metadata>
  <defs
     id="defs41" />
  <sodipodi:namedview
     pagecolor="#ffffff"
     bordercolor="#666666"
     borderopacity="1"
     objecttolerance="10"
     gridtolerance="10"
     guidetolerance="10"
     inkscape:pageopacity="0"
     inkscape:pageshadow="2"
     inkscape:window-width="1920"
     inkscape:window-height="1028"
     id="namedview39"
     showgrid="false"
     inkscape:zoom="2.601736"
     inkscape:cx="329.21971"
     inkscape:cy="168.33052"
     inkscape:window-x="-8"
     inkscape:window-y="-8"
     inkscape:window-maximized="1"
     inkscape:current-layer="Layer1000" />
  <g
     id="Layer1000">
    <path
       d="m 95.7276,459.5396 6.5499,-60.1129 56.1361,-46.8111 41.2059,11.2339 75.3337,-63.966 2.24,-45.8478 39.4873,-32.5534 52.9461,11.4197 31.1332,-25.7611 81.6032,98.6202 -304.6716,252.1004 z"
       style="fill:#ff7f2a;fill-rule:evenodd;stroke:#000000;stroke-width:0.56690001;stroke-linecap:butt;stroke-linejoin:miter;stroke-dasharray:none"
       id="path2"
       inkscape:connector-curvature="0" />
    <path
       d="M 400.7598,207.1409 95.7276,459.5396"
       style="fill:none;stroke:#000000;stroke-width:0.56690001;stroke-linecap:butt;stroke-linejoin:miter;stroke-dasharray:none"
       id="path4"
       inkscape:connector-curvature="0" />
    <path
       d="M 115.0468,482.8876 156.7306,533.2639 140.282,546.8743 98.5982,496.498 Z"
       style="fill:#ffd42a;fill-rule:evenodd;stroke:#000000;stroke-width:0.56690001;stroke-linecap:butt;stroke-linejoin:miter;stroke-dasharray:none"
       id="path6"
       inkscape:connector-curvature="0" />
    <path
       d="m 84.5492,479.5193 70.853,85.6283 L 82.0607,625.262 60.121,625.1383 7.2193,561.205 11.0799,540.3115 Z"
       style="fill:#ffd42a;fill-rule:evenodd;stroke:#000000;stroke-width:0.56690001;stroke-linecap:butt;stroke-linejoin:miter;stroke-dasharray:none"
       id="path8"
       inkscape:connector-curvature="0" />
    <path
       d="m 482.3634,305.7608 -237.9453,196.8877 18.5215,22.3839 c -4.9883,12.8807 -11.851,41.0248 -12.797,69.6303 -1.0003,30.2224 1.3408,121.1837 42.0785,123.9545 31.8769,2.1681 63.0998,-9.017 88.7665,-33.4756 2.8657,-2.731 1.6627,-2.7634 4.4988,-5.9108 13.5544,-37.5202 -102.3586,-29.5541 -42.7616,-166.3659 l 70.2567,-58.1339 7.7349,-40.093 90.0981,-74.4931 z m -85.9305,128.9706 -63.6565,52.6726 c -12.0689,-8.712 -17.8171,-17.6703 -10.8312,-33.225 l 53.7668,-44.4894 z"
       style="fill:#ffd42a;fill-rule:evenodd;stroke:#000000;stroke-width:0.56690001;stroke-linecap:butt;stroke-linejoin:miter;stroke-dasharray:none"
       id="path10"
       inkscape:connector-curvature="0" />
    <path
       d="M 292.2211,718.6172 C 252.292,718.5576 247.5993,622.8626 250.1426,594.6627 l 23.4126,-4.3133 c 11.6286,106.0072 75.6613,83.1221 102.1509,77.646 8.5617,-1.7699 14.8955,3.0063 8.9438,12.157 -16.3883,25.1992 -63.0224,40.8082 -92.4288,38.4648 z"
       style="fill:#ff7f2a;fill-rule:evenodd;stroke:#000000;stroke-width:0.56690001;stroke-linecap:butt;stroke-linejoin:miter;stroke-dasharray:none"
       id="path12"
       inkscape:connector-curvature="0" />
    <path
       d="m 396.4329,434.7314 -20.7209,-25.0418 -77.0798,63.7797 20.7208,25.0418 z"
       style="fill:none;stroke:#000000;stroke-width:0.56690001;stroke-linecap:butt;stroke-linejoin:miter;stroke-dasharray:none"
       id="path14"
       inkscape:connector-curvature="0" />
    <path
       d="m 95.7276,459.5396 5.0754,-46.5759 -44.2619,36.6245 z"
       style="fill:#ffd42a;fill-rule:evenodd;stroke:#000000;stroke-width:0.56690001;stroke-linecap:butt;stroke-linejoin:miter;stroke-dasharray:none"
       id="path16"
       inkscape:connector-curvature="0" />
    <path
       d="m 199.6195,363.8495 -29.6804,-8.0924 106.5935,-88.2007 -1.5794,32.3271 z"
       style="fill:#ffd42a;fill-rule:evenodd;stroke:#000000;stroke-width:0.56690001;stroke-linecap:butt;stroke-linejoin:miter;stroke-dasharray:none"
       id="path18"
       inkscape:connector-curvature="0" />
    <path
       d="M 368.6387,650.8897 C 318.3065,619.3672 313.7556,573.589 344.1679,511.6708 l -26.7867,22.1646 c -25.1222,45.3332 -16.2376,138.5762 51.2575,117.0543 z"
       style="fill:none;stroke:#000000;stroke-width:0.56690001;stroke-linecap:butt;stroke-linejoin:miter;stroke-dasharray:none"
       id="path20"
       inkscape:connector-curvature="0" />
    <path
       d="M 368.6387,650.8897 C 317.8288,618.8606 314.26115,570.91868 344.1679,511.6708 l -26.7867,22.1646 c -21.682,39.1243 -18.0327,113.9368 26.7617,119.8574 7.1071,0.9405 15.2532,0.1443 24.4958,-2.8031 z"
       style="fill:#000000;fill-opacity:0.39215686;fill-rule:evenodd;stroke:#000000;stroke-width:0.56690001;stroke-linecap:butt;stroke-linejoin:miter;stroke-dasharray:none"
       id="path22"
       inkscape:connector-curvature="0"
       sodipodi:nodetypes="ccccc" />
    <path
       d="m 329.0026,224.1402 41.5388,-34.3713 20.8137,25.154 -21.7284,17.9791 z"
       style="fill:#ffd42a;fill-rule:evenodd;stroke:#000000;stroke-width:0.56690001;stroke-linecap:butt;stroke-linejoin:miter;stroke-dasharray:none"
       id="path24"
       inkscape:connector-curvature="0" />
    <path
       d="M 410.1973,218.5456 629.5129,37.0731 677.3636,94.9024 458.0481,276.3749 Z"
       style="fill:#ffd42a;fill-rule:evenodd;stroke:#000000;stroke-width:0.56690001;stroke-linecap:butt;stroke-linejoin:miter;stroke-dasharray:none"
       id="path26"
       inkscape:connector-curvature="0" />
    <path
       d="m 468.5294,197.8409 18.2438,-15.0958 34.3134,41.4689 -18.2438,15.0958 z"
       style="fill:#000000;fill-opacity:0.39215687;fill-rule:evenodd;stroke:#000000;stroke-width:0.56690001;stroke-linecap:butt;stroke-linejoin:miter;stroke-dasharray:none"
       id="path28"
       inkscape:connector-curvature="0" />
    <path
       d="m 488.7149,275.0309 25.9284,-21.3523 -10.2087,-12.4451 -24.2744,-29.3364 c -8.2276,-17.538 3.4865,-26.7124 18.0316,-15.3523 l 24.4866,29.5929 10.2988,12.4464 96.5113,-79.345 4.6907,-150.0588 -216.9218,179.4919 z"
       style="fill:#ff7f2a;fill-rule:evenodd;stroke:#000000;stroke-width:0.56690001;stroke-linecap:butt;stroke-linejoin:miter;stroke-dasharray:none"
       id="path30"
       inkscape:connector-curvature="0" />
    <path
       d="m 177.1336,415.7468 25.4603,30.7697 158.128,-130.8429 -25.4604,-30.7696 z"
       style="fill:#ffd42a;fill-rule:evenodd;stroke:#000000;stroke-width:0.56690001;stroke-linecap:butt;stroke-linejoin:miter;stroke-dasharray:none"
       id="path32"
       inkscape:connector-curvature="0" />
    <path
       d="m 190.412,417.3427 13.1011,15.8331 143.9328,-119.0971 -13.1011,-15.8331 z"
       style="fill:#000000;fill-rule:evenodd;stroke:#000000;stroke-width:0.56690001;stroke-linecap:butt;stroke-linejoin:miter;stroke-dasharray:none"
       id="path34"
       inkscape:connector-curvature="0" />
  </g>
</svg>
