<?xml version="1.0" encoding="UTF-8" standalone="no"?>
<svg
   xmlns:dc="http://purl.org/dc/elements/1.1/"
   xmlns:cc="http://creativecommons.org/ns#"
   xmlns:rdf="http://www.w3.org/1999/02/22-rdf-syntax-ns#"
   xmlns:svg="http://www.w3.org/2000/svg"
   xmlns="http://www.w3.org/2000/svg"
   xmlns:sodipodi="http://sodipodi.sourceforge.net/DTD/sodipodi-0.dtd"
   xmlns:inkscape="http://www.inkscape.org/namespaces/inkscape"
   version="1.1"
   width=""
   height=""
   id="svg41"
   viewBox="0 0 725.66931 725.66931"
   sodipodi:docname="Power Sword.svg"
   inkscape:version="0.92.3 (2405546, 2018-03-11)">
  <metadata
     id="metadata47">
    <rdf:RDF>
      <cc:Work
         rdf:about="">
        <dc:format>image/svg+xml</dc:format>
        <dc:type
           rdf:resource="http://purl.org/dc/dcmitype/StillImage" />
        <dc:title></dc:title>
      </cc:Work>
    </rdf:RDF>
  </metadata>
  <defs
     id="defs45" />
  <sodipodi:namedview
     pagecolor="#ffffff"
     bordercolor="#666666"
     borderopacity="1"
     objecttolerance="10"
     gridtolerance="10"
     guidetolerance="10"
     inkscape:pageopacity="0"
     inkscape:pageshadow="2"
     inkscape:window-width="751"
     inkscape:window-height="480"
     id="namedview43"
     showgrid="false"
     inkscape:zoom="0.325217"
     inkscape:cx="362.83466"
     inkscape:cy="362.83466"
     inkscape:window-x="0"
     inkscape:window-y="0"
     inkscape:window-maximized="0"
     inkscape:current-layer="svg41" />
  <g
     id="Layer1000">
    <path
       d="M 171.9217,509.3015 676.9704,9.6473 638.6133,154.2514 254.7451,534.0195 c -27.2279,-15.8618 -47.4416,2.4427 -29.4981,29.183 z"
       style="fill:#ffd42a;fill-rule:evenodd;stroke:#000000;stroke-width:0.56690001;stroke-linecap:butt;stroke-linejoin:miter;stroke-dasharray:none"
       id="path2"
       inkscape:connector-curvature="0" />
    <path
       d="m 241.0335,579.1595 -6.9467,56.959 -81.916,81.0409 -101.7265,-4.7587 -3.1479,-3.1819 -10.372,10.2463 L 5.2276,687.4261 15.5922,677.1723 4.9448,666.41 l 20.7284,-20.5069 45.3832,45.8732 70.3356,2.1302 69.1611,-68.8173 1.6827,-17.8346 -75.9144,-76.734 28.6002,-28.2947 z"
       style="fill:#ff7f2a;fill-rule:evenodd;stroke:#000000;stroke-width:0.56690001;stroke-linecap:butt;stroke-linejoin:miter;stroke-dasharray:none"
       id="path4"
       inkscape:connector-curvature="0" />
    <path
       d="m 15.5922,677.1723 34.8521,35.2284"
       style="fill:none;stroke:#000000;stroke-width:0.56690001;stroke-linecap:butt;stroke-linejoin:miter;stroke-dasharray:none"
       id="path6"
       inkscape:connector-curvature="0" />
    <path
       d="m 160.4877,506.6124 -29.2315,-29.5471 -26.109,25.8302 17.8245,3.2682 18.7809,18.9837 z"
       style="fill:#2a292e;fill-rule:evenodd;stroke:#000000;stroke-width:0.56690001;stroke-linecap:butt;stroke-linejoin:miter;stroke-dasharray:none"
       id="path8"
       inkscape:connector-curvature="0" />
    <path
       d="m 301.6206,353.8744 -28.7004,28.3938 5.7183,5.78 -49.2299,48.704 7.8378,7.9224 86.7,-85.774 -6.6543,-6.7261 z"
       style="fill:#ff7f2a;fill-rule:evenodd;stroke:#000000;stroke-width:0.56690001;stroke-linecap:butt;stroke-linejoin:miter;stroke-dasharray:none"
       id="path10"
       inkscape:connector-curvature="0" />
    <path
       d="m 280.5478,401.8357 -14.9483,14.7886 14.5843,53.0127 14.9483,-14.7887 z"
       style="fill:#ff7f2a;fill-rule:evenodd;stroke:#000000;stroke-width:0.56690001;stroke-linecap:butt;stroke-linejoin:miter;stroke-dasharray:none"
       id="path12"
       inkscape:connector-curvature="0" />
    <path
       d="m 308.4075,374.2735 -14.9483,14.7887 14.5843,53.0126 14.9483,-14.7886 z"
       style="fill:#ff7f2a;fill-rule:evenodd;stroke:#000000;stroke-width:0.56690001;stroke-linecap:butt;stroke-linejoin:miter;stroke-dasharray:none"
       id="path14"
       inkscape:connector-curvature="0" />
    <path
       d="m 337.3513,345.6389 -14.9484,14.7887 14.5843,53.0126 14.9483,-14.7886 z"
       style="fill:#ff7f2a;fill-rule:evenodd;stroke:#000000;stroke-width:0.56690001;stroke-linecap:butt;stroke-linejoin:miter;stroke-dasharray:none"
       id="path16"
       inkscape:connector-curvature="0" />
    <g
       id="Layer1001">
      <path
         d="M 152.5335,546.9077 178.1669,572.8179 64.5608,685.2106 38.9274,659.3004 Z"
         style="fill:#2a292e;fill-rule:evenodd;stroke:#000000;stroke-width:0.56690001;stroke-linecap:butt;stroke-linejoin:miter;stroke-dasharray:none"
         id="path18"
         inkscape:connector-curvature="0" />
      <path
         d="m 50.9439,647.4123 25.6334,25.9102 5.9796,-5.9158 -25.6334,-25.9102 z"
         style="fill:#2a292e;fill-rule:evenodd;stroke:#000000;stroke-width:0.56690001;stroke-linecap:butt;stroke-linejoin:miter;stroke-dasharray:none"
         id="path20"
         inkscape:connector-curvature="0" />
      <path
         d="m 71.1178,627.4538 25.6334,25.9102 5.9796,-5.9157 -25.6334,-25.9102 z"
         style="fill:#2a292e;fill-rule:evenodd;stroke:#000000;stroke-width:0.56690001;stroke-linecap:butt;stroke-linejoin:miter;stroke-dasharray:none"
         id="path22"
         inkscape:connector-curvature="0" />
      <path
         d="M 91.9869,606.8076 117.6204,632.7178 123.6,626.802 97.9666,600.8918 Z"
         style="fill:#2a292e;fill-rule:evenodd;stroke:#000000;stroke-width:0.56690001;stroke-linecap:butt;stroke-linejoin:miter;stroke-dasharray:none"
         id="path24"
         inkscape:connector-curvature="0" />
      <path
         d="m 113.1281,585.8922 25.6334,25.9103 5.9796,-5.9158 -25.6334,-25.9102 z"
         style="fill:#2a292e;fill-rule:evenodd;stroke:#000000;stroke-width:0.56690001;stroke-linecap:butt;stroke-linejoin:miter;stroke-dasharray:none"
         id="path26"
         inkscape:connector-curvature="0" />
      <path
         d="m 134.334,564.9128 25.6334,25.9102 5.9796,-5.9157 -25.6334,-25.9102 z"
         style="fill:#2a292e;fill-rule:evenodd;stroke:#000000;stroke-width:0.56690001;stroke-linecap:butt;stroke-linejoin:miter;stroke-dasharray:none"
         id="path28"
         inkscape:connector-curvature="0" />
    </g>
    <g
       id="Layer1002">
      <path
         d="m 166.4842,488.3559 4.0928,-23.768 6.4532,-6.3335 2.0934,2.116 5.9796,-5.9158 -2.0934,-2.116 6.0035,-5.8901 2.0688,2.0911 5.9796,-5.9158 -2.106,-2.1288 6.3647,-6.322 2.1187,2.1416 5.9796,-5.9158 -2.1519,-2.1088 6.9589,-6.8846 27.0137,27.3053 -6.6515,20.3847 -30.2951,29.9716 -24.6468,2.5928 z"
         style="fill:#ff7f2a;fill-rule:evenodd;stroke:#000000;stroke-width:0.56690001;stroke-linecap:butt;stroke-linejoin:miter;stroke-dasharray:none"
         id="path31"
         inkscape:connector-curvature="0" />
      <path
         d="m 179.1236,460.3704 20.9019,21.1275 5.9796,-5.9157 -20.9019,-21.1276 z"
         style="fill:#ff7f2a;fill-rule:evenodd;stroke:#000000;stroke-width:0.56690001;stroke-linecap:butt;stroke-linejoin:miter;stroke-dasharray:none"
         id="path33"
         inkscape:connector-curvature="0" />
      <path
         d="m 191.0821,448.5396 20.9019,21.1276 5.9796,-5.9158 -20.9019,-21.1276 z"
         style="fill:#ff7f2a;fill-rule:evenodd;stroke:#000000;stroke-width:0.56690001;stroke-linecap:butt;stroke-linejoin:miter;stroke-dasharray:none"
         id="path35"
         inkscape:connector-curvature="0" />
      <path
         d="m 203.4391,436.3146 20.9019,21.1276 5.9796,-5.9158 -20.9019,-21.1276 z"
         style="fill:#ff7f2a;fill-rule:evenodd;stroke:#000000;stroke-width:0.56690001;stroke-linecap:butt;stroke-linejoin:miter;stroke-dasharray:none"
         id="path37"
         inkscape:connector-curvature="0" />
    </g>
  </g>
</svg>
