<?xml version="1.0" encoding="UTF-8" standalone="no"?>
<svg
   xmlns:dc="http://purl.org/dc/elements/1.1/"
   xmlns:cc="http://creativecommons.org/ns#"
   xmlns:rdf="http://www.w3.org/1999/02/22-rdf-syntax-ns#"
   xmlns:svg="http://www.w3.org/2000/svg"
   xmlns="http://www.w3.org/2000/svg"
   xmlns:sodipodi="http://sodipodi.sourceforge.net/DTD/sodipodi-0.dtd"
   xmlns:inkscape="http://www.inkscape.org/namespaces/inkscape"
   version="1.1"
   width=""
   height=""
   id="svg67"
   viewBox="0 0 725.66931 725.66931"
   sodipodi:docname="Sniper Rife.svg"
   inkscape:version="0.92.3 (2405546, 2018-03-11)">
  <metadata
     id="metadata73">
    <rdf:RDF>
      <cc:Work
         rdf:about="">
        <dc:format>image/svg+xml</dc:format>
        <dc:type
           rdf:resource="http://purl.org/dc/dcmitype/StillImage" />
        <dc:title></dc:title>
      </cc:Work>
    </rdf:RDF>
  </metadata>
  <defs
     id="defs71" />
  <sodipodi:namedview
     pagecolor="#ffffff"
     bordercolor="#666666"
     borderopacity="1"
     objecttolerance="10"
     gridtolerance="10"
     guidetolerance="10"
     inkscape:pageopacity="0"
     inkscape:pageshadow="2"
     inkscape:window-width="1920"
     inkscape:window-height="1028"
     id="namedview69"
     showgrid="false"
     inkscape:zoom="0.9198526"
     inkscape:cx="250.57366"
     inkscape:cy="370.07585"
     inkscape:window-x="-8"
     inkscape:window-y="-8"
     inkscape:window-maximized="1"
     inkscape:current-layer="Layer1000" />
  <g
     id="Layer1000">
    <path
       d="m 539.1571,156.3566 23.4417,24.6244 -92.7414,88.2871 -66.2701,63.637 -23.7895,-24.8432 z"
       style="fill:#ff7f2a;fill-rule:evenodd;stroke:#000000;stroke-width:0.56690001;stroke-linecap:butt;stroke-linejoin:miter;stroke-dasharray:none"
       id="path2"
       inkscape:connector-curvature="0" />
    <path
       d="m 582.5518,172.7886 4.0872,4.2352 17.8245,-16.9684 5.5083,-13.279 65.0202,-61.6793 -2.7947,-72.9485 -101.1684,96.4231 -11.9241,2.6429 -18.4497,17.5635 4.3632,4.5833 -5.8612,22.9952 23.4417,24.6244 z"
       style="fill:#ff7f2a;fill-rule:evenodd;stroke:#000000;stroke-width:0.56690001;stroke-linecap:butt;stroke-linejoin:miter;stroke-dasharray:none"
       id="path4"
       inkscape:connector-curvature="0" />
    <path
       d="m 178.1642,554.7738 -38.5825,-40.5292 17.2006,-16.3745 1.1462,-29.3807 59.5899,-56.7277 19.7292,3.9741 76.6023,-72.9231 -0.4626,-22.3154 9.5553,-9.0962 14.242,14.7315 31.3058,-29.8021 35.0969,36.5746 33.135,-31.8185 16.687,17.5289 -18.5577,17.6663 -104.3336,99.3224 26.2209,27.5438 -18.9264,17.4796 -29.3483,-30.829 -9.3989,8.9475 29.6168,31.1111 -32.8013,31.2258 -34.8051,-36.5611 -67.9564,64.6924 z"
       style="fill:#ff7f2a;fill-rule:evenodd;stroke:#000000;stroke-width:0.56690001;stroke-linecap:butt;stroke-linejoin:miter;stroke-dasharray:none"
       id="path6"
       inkscape:connector-curvature="0" />
    <path
       d="M 383.6235,281.9242 156.7823,497.8701"
       style="fill:none;stroke:#000000;stroke-width:0.56690001;stroke-linecap:butt;stroke-linejoin:miter;stroke-dasharray:none"
       id="path8"
       inkscape:connector-curvature="0" />
    <path
       d="m 453.4093,318.6155 -16.687,-17.5289 -122.7539,117.133 16.5496,17.3846 z"
       style="fill:none;stroke:#000000;stroke-width:0.56690001;stroke-linecap:butt;stroke-linejoin:miter;stroke-dasharray:none"
       id="path10"
       inkscape:connector-curvature="0" />
    <path
       d="m 165.6128,508.1619 6.89,7.2376 65.7945,-62.6343 -6.8901,-7.2376 z"
       style="fill:none;stroke:#000000;stroke-width:0.56690001;stroke-linecap:butt;stroke-linejoin:miter;stroke-dasharray:none"
       id="path12"
       inkscape:connector-curvature="0" />
    <path
       d="m 252.2028,435.9426 a 8.435,8.435 0 0 1 11.9254,0.2934 8.435,8.435 0 1 1 -11.9254,-0.2934 z"
       style="fill:#ffd42a;fill-rule:evenodd;stroke:#000000;stroke-width:0.56690001;stroke-linecap:butt;stroke-linejoin:miter;stroke-dasharray:none"
       id="path14"
       inkscape:connector-curvature="0" />
    <path
       d="m 267.9082,472.9496 33.196,34.871 9.8693,-9.3953 -33.1961,-34.8709 z"
       style="fill:#ffd42a;fill-rule:evenodd;stroke:#000000;stroke-width:0.56690001;stroke-linecap:butt;stroke-linejoin:miter;stroke-dasharray:none"
       id="path16"
       inkscape:connector-curvature="0" />
    <path
       d="m 148.8876,523.993 29.2962,30.7743 -45.9874,43.7665 C 96.7942,632.2261 89.2419,681.3164 97.5592,700.8728 L 77.8547,719.6336 7.324,645.5443 l 55.04,-52.3964 13.9716,0.6546 z"
       style="fill:#ff7f2a;fill-rule:evenodd;stroke:#000000;stroke-width:0.56690001;stroke-linecap:butt;stroke-linejoin:miter;stroke-dasharray:none"
       id="path18"
       inkscape:connector-curvature="0" />
    <path
       d="m 261.0757,484.5219 -65.7753,62.616 11.3404,11.9126 c -2.3104,7.4706 -5.079,23.6347 -4.488,39.8267 0.624,17.1073 5.5242,68.385 28.6396,68.3474 18.0876,-0.0295 35.2805,-7.5745 48.8135,-22.3969 1.511,-1.6551 0.8303,-1.6261 2.3082,-3.5151 6.1788,-21.7225 -58.969,-12.6641 -30.6937,-92.2721 l 37.3903,-35.5944 z m 17.4026,18.2806 -33.8777,32.2505 c -7.1586,-4.4453 -10.7572,-9.2783 -7.4238,-18.3376 l 28.6144,-27.2401 z"
       style="fill:#ffd42a;fill-rule:evenodd;stroke:#000000;stroke-width:0.56690001;stroke-linecap:butt;stroke-linejoin:miter;stroke-dasharray:none"
       id="path20"
       inkscape:connector-curvature="0" />
    <path
       d="m 230.7924,667.2246 c -22.5521,1.537 -28.9666,-52.3216 -28.6396,-68.3474 l 13.0525,-3.3568 c 10.7372,59.4094 45.999,43.9664 60.7434,39.8318 4.7656,-1.3363 8.5304,1.1119 5.5292,6.5138 -8.264,14.8757 -33.9863,25.5253 -50.6855,25.3586 z"
       style="fill:#ff7f2a;fill-rule:evenodd;stroke:#000000;stroke-width:0.56690001;stroke-linecap:butt;stroke-linejoin:miter;stroke-dasharray:none"
       id="path22"
       inkscape:connector-curvature="0" />
    <path
       d="m 278.4783,502.8025 -12.6871,-13.3272 -41.0215,39.0513 12.687,13.3271 z"
       style="fill:none;stroke:#000000;stroke-width:0.56690001;stroke-linecap:butt;stroke-linejoin:miter;stroke-dasharray:none"
       id="path24"
       inkscape:connector-curvature="0" />
    <path
       d="m 305.0772,512.3283 23.6049,-22.4711 -29.6168,-31.1111 9.3989,-8.9475 29.4165,31.3018 9.3051,-8.8582 24.3812,25.6113 -42.1086,40.0861 z"
       style="fill:#ffd42a;fill-rule:evenodd;stroke:#000000;stroke-width:0.56690001;stroke-linecap:butt;stroke-linejoin:miter;stroke-dasharray:none"
       id="path26"
       inkscape:connector-curvature="0" />
    <path
       d="m 453.4093,318.6155 -16.687,-17.5289 -122.7539,117.133 16.5496,17.3846 z"
       style="fill:#000000;fill-opacity:0.39215687;fill-rule:evenodd;stroke:#000000;stroke-width:0.56690001;stroke-linecap:butt;stroke-linejoin:miter;stroke-dasharray:none"
       id="path28"
       inkscape:connector-curvature="0" />
    <path
       d="m 271.2846,625.9699 c -29.6648,-15.8223 -34.0357,-41.4962 -19.2962,-77.6605 l -14.2557,13.571 c -12.4043,26.5899 -3.719,78.8988 33.5519,64.0895 z"
       style="fill:none;stroke:#000000;stroke-width:0.56690001;stroke-linecap:butt;stroke-linejoin:miter;stroke-dasharray:none"
       id="path30"
       inkscape:connector-curvature="0" />
    <path
       d="m 271.2846,625.9699 c -29.9545,-16.0896 -33.39779,-43.07584 -19.2962,-77.6605 l -14.2557,13.571 c -10.7057,22.9481 -5.702,65.0545 19.8283,66.6361 4.0507,0.2516 8.6198,-0.5186 13.7236,-2.5466 z"
       style="fill:#000000;fill-opacity:0.39215686;fill-rule:evenodd;stroke:#000000;stroke-width:0.56690001;stroke-linecap:butt;stroke-linejoin:miter;stroke-dasharray:none"
       id="path32"
       inkscape:connector-curvature="0"
       sodipodi:nodetypes="ccccc" />
    <path
       d="m 305.435,456.0262 a 4.4446,4.4446 0 0 1 6.2838,0.1546 4.4446,4.4446 0 1 1 -6.2838,-0.1546 z"
       style="fill:#ffd42a;fill-rule:evenodd;stroke:#000000;stroke-width:0.56690001;stroke-linecap:butt;stroke-linejoin:miter;stroke-dasharray:none"
       id="path34"
       inkscape:connector-curvature="0" />
    <path
       d="m 543.6067,138.901 34.1389,35.8613"
       style="fill:#ffd42a;fill-rule:evenodd;stroke:#000000;stroke-width:0.56690001;stroke-linecap:butt;stroke-linejoin:miter;stroke-dasharray:none"
       id="path36"
       inkscape:connector-curvature="0" />
    <path
       d="m 430.7076,237.1016 -93.523,89.031 -14.1277,-14.8404 -9.6696,9.2051 0.2483,5.8718 -88.5674,84.3135 -9.0186,-1.8281 -60.2712,57.3763 -21.4742,-22.5576 16.8582,-16.0485 7.9529,3.1785 38.6535,-36.797 4.5017,-19.7385 68.6136,-65.3181 14.0925,14.8035 13.5118,-12.8629 -1.4048,-26.8818 93.523,-89.031 z"
       style="fill:#ffd42a;fill-rule:evenodd;stroke:#000000;stroke-width:0.56690001;stroke-linecap:butt;stroke-linejoin:miter;stroke-dasharray:none"
       id="path38"
       inkscape:connector-curvature="0" />
    <path
       d="m 297.0836,284.0084 25.9733,27.2838"
       style="fill:#ffd42a;fill-rule:evenodd;stroke:#000000;stroke-width:0.56690001;stroke-linecap:butt;stroke-linejoin:miter;stroke-dasharray:none"
       id="path40"
       inkscape:connector-curvature="0" />
    <path
       d="m 322.9426,311.4011 93.6373,-89.1399"
       style="fill:#ffd42a;fill-rule:evenodd;stroke:#000000;stroke-width:0.56690001;stroke-linecap:butt;stroke-linejoin:miter;stroke-dasharray:none"
       id="path42"
       inkscape:connector-curvature="0" />
    <path
       d="m 299.9077,339.4376 -63.555,60.5025 8.3137,8.7332 63.5551,-60.5025 z"
       style="fill:#ffd42a;fill-rule:evenodd;stroke:#000000;stroke-width:0.56690001;stroke-linecap:butt;stroke-linejoin:miter;stroke-dasharray:none"
       id="path44"
       inkscape:connector-curvature="0" />
    <path
       d="m 215.3804,373.2141 a 14.9234,14.9234 0 0 1 21.0985,0.5191 14.9234,14.9234 0 1 1 -21.0985,-0.5191 z"
       style="fill:none;stroke:#000000;stroke-width:0.56690001;stroke-linecap:butt;stroke-linejoin:miter;stroke-dasharray:none"
       id="path46"
       inkscape:connector-curvature="0" />
    <path
       d="m 284.9766,323.7531 14.9311,15.6845"
       style="fill:#ffd42a;fill-rule:evenodd;stroke:#000000;stroke-width:0.56690001;stroke-linecap:butt;stroke-linejoin:miter;stroke-dasharray:none"
       id="path48"
       inkscape:connector-curvature="0" />
    <path
       d="m 298.4884,310.8902 15.4161,16.194"
       style="fill:#ffd42a;fill-rule:evenodd;stroke:#000000;stroke-width:0.56690001;stroke-linecap:butt;stroke-linejoin:miter;stroke-dasharray:none"
       id="path50"
       inkscape:connector-curvature="0" />
    <path
       d="m 436.7223,301.0866 16.687,17.5289"
       style="fill:#ffd42a;fill-rule:evenodd;stroke:#000000;stroke-width:0.56690001;stroke-linecap:butt;stroke-linejoin:miter;stroke-dasharray:none"
       id="path52"
       inkscape:connector-curvature="0" />
    <path
       d="m 299.9077,339.4376 8.3138,8.7332"
       style="fill:#ffd42a;fill-rule:evenodd;stroke:#000000;stroke-width:0.56690001;stroke-linecap:butt;stroke-linejoin:miter;stroke-dasharray:none"
       id="path54"
       inkscape:connector-curvature="0" />
    <path
       d="m 469.8574,269.2681 -33.1351,31.8185 16.687,17.5289 -1.0626,-1.1162 5.9141,-5.63 1.0625,1.1162 27.3584,-26.0443 z"
       style="fill:#ffd42a;fill-rule:evenodd;stroke:#000000;stroke-width:0.56690001;stroke-linecap:butt;stroke-linejoin:miter;stroke-dasharray:none"
       id="path56"
       inkscape:connector-curvature="0" />
    <path
       d="M 459.3233,312.9855 442.6106,295.4296"
       style="fill:#ffd42a;fill-rule:evenodd;stroke:#000000;stroke-width:0.56690001;stroke-linecap:butt;stroke-linejoin:miter;stroke-dasharray:none"
       id="path58"
       inkscape:connector-curvature="0" />
    <path
       d="m 159.1153,430.8032 16.106,16.9186"
       style="fill:#ffd42a;fill-rule:evenodd;stroke:#000000;stroke-width:0.56690001;stroke-linecap:butt;stroke-linejoin:miter;stroke-dasharray:none"
       id="path60"
       inkscape:connector-curvature="0" />
    <path
       d="m 571.0289,108.5717 -26.0104,24.7896"
       style="fill:none;stroke:#000000;stroke-width:0.56690001;stroke-linecap:butt;stroke-linejoin:miter;stroke-dasharray:none"
       id="path62"
       inkscape:connector-curvature="0" />
    <path
       d="M 609.9718,146.7763 582.552,172.7887"
       style="fill:none;stroke:#000000;stroke-width:0.56690001;stroke-linecap:butt;stroke-linejoin:miter;stroke-dasharray:none"
       id="path64"
       inkscape:connector-curvature="0" />
  </g>
</svg>
