<?xml version="1.0" encoding="UTF-8" standalone="no"?>
<svg
   xmlns:dc="http://purl.org/dc/elements/1.1/"
   xmlns:cc="http://creativecommons.org/ns#"
   xmlns:rdf="http://www.w3.org/1999/02/22-rdf-syntax-ns#"
   xmlns:svg="http://www.w3.org/2000/svg"
   xmlns="http://www.w3.org/2000/svg"
   xmlns:sodipodi="http://sodipodi.sourceforge.net/DTD/sodipodi-0.dtd"
   xmlns:inkscape="http://www.inkscape.org/namespaces/inkscape"
   version="1.1"
   width=""
   height=""
   id="svg88"
   viewBox="0 0 725.66931 725.66931"
   sodipodi:docname="Сhainsword.svg"
   inkscape:version="0.92.3 (2405546, 2018-03-11)">
  <metadata
     id="metadata94">
    <rdf:RDF>
      <cc:Work
         rdf:about="">
        <dc:format>image/svg+xml</dc:format>
        <dc:type
           rdf:resource="http://purl.org/dc/dcmitype/StillImage" />
        <dc:title></dc:title>
      </cc:Work>
    </rdf:RDF>
  </metadata>
  <defs
     id="defs92" />
  <sodipodi:namedview
     pagecolor="#ffffff"
     bordercolor="#666666"
     borderopacity="1"
     objecttolerance="10"
     gridtolerance="10"
     guidetolerance="10"
     inkscape:pageopacity="0"
     inkscape:pageshadow="2"
     inkscape:window-width="751"
     inkscape:window-height="480"
     id="namedview90"
     showgrid="false"
     inkscape:zoom="0.325217"
     inkscape:cx="362.83466"
     inkscape:cy="362.83466"
     inkscape:window-x="0"
     inkscape:window-y="0"
     inkscape:window-maximized="0"
     inkscape:current-layer="svg88" />
  <g
     id="Layer1000">
    <path
       d="m 682.9372,34.8481 -0.3621,70.0037 -429.3895,424.97 30.6663,30.9852 -20.3896,20.1797 -21.7319,-8.7626 -5.597,5.5394 -1.1299,54.2357 -80.094,79.2697 -92.3918,0.3399 -5.7376,-5.7972 -11.994,11.8706 -32.8422,-33.1837 11.994,-11.8707 -10.2883,-10.3953 20.9894,-20.7735 45.1742,45.644 66.0853,-0.2437 67.0445,-66.3544 -1.4023,-17.2023 -21.8361,-2.722 -14.6306,-14.7827 -10.092,2.6477 -28.7864,-29.0857 -0.8452,-10.2593 -1.8393,-38.8029 50.6245,-50.1034 2.1849,2.2076 8.1197,-8.0361 -2.1849,-2.2077 7.8462,-7.7654 2.1849,2.2076 8.0986,-8.0152 -2.188,-2.2046 8.9939,-8.9013 1.6138,-1.5972 15.99,6.426 41.58,-41.152 12.9306,5.5743 379.7834,-375.8746 z"
       style="fill:#ff7f2a;fill-rule:evenodd;stroke:#000000;stroke-width:0.56690001;stroke-linecap:butt;stroke-linejoin:miter;stroke-dasharray:none"
       id="path2"
       inkscape:connector-curvature="0" />
    <g
       id="Layer1001">
      <path
         d="m 141.4464,564.6653 22.2577,22.4891 -92.351,91.4005 -22.2577,-22.4891 z"
         style="fill:#2a292e;fill-rule:evenodd;stroke:#000000;stroke-width:0.56690001;stroke-linecap:butt;stroke-linejoin:miter;stroke-dasharray:none"
         id="path4"
         inkscape:connector-curvature="0" />
      <path
         d="M 59.9116,645.3609 82.1693,667.85 88.1667,661.9144 65.909,639.4252 Z"
         style="fill:#2a292e;fill-rule:evenodd;stroke:#000000;stroke-width:0.56690001;stroke-linecap:butt;stroke-linejoin:miter;stroke-dasharray:none"
         id="path6"
         inkscape:connector-curvature="0" />
      <path
         d="m 80.8428,624.645 22.2578,22.4892 5.9974,-5.9357 -22.2577,-22.4892 z"
         style="fill:#2a292e;fill-rule:evenodd;stroke:#000000;stroke-width:0.56690001;stroke-linecap:butt;stroke-linejoin:miter;stroke-dasharray:none"
         id="path8"
         inkscape:connector-curvature="0" />
      <path
         d="m 102.0469,603.6593 22.2577,22.4891 5.9974,-5.9357 -22.2577,-22.4891 z"
         style="fill:#2a292e;fill-rule:evenodd;stroke:#000000;stroke-width:0.56690001;stroke-linecap:butt;stroke-linejoin:miter;stroke-dasharray:none"
         id="path10"
         inkscape:connector-curvature="0" />
      <path
         d="m 123.3159,582.6092 22.2577,22.4891 5.9974,-5.9356 -22.2577,-22.4892 z"
         style="fill:#2a292e;fill-rule:evenodd;stroke:#000000;stroke-width:0.56690001;stroke-linecap:butt;stroke-linejoin:miter;stroke-dasharray:none"
         id="path12"
         inkscape:connector-curvature="0" />
    </g>
    <path
       d="m 239.0518,446.4666 50.2535,-49.7363"
       style="fill:none;stroke:#000000;stroke-width:0.56690001;stroke-linecap:butt;stroke-linejoin:miter;stroke-dasharray:none"
       id="path15"
       inkscape:connector-curvature="0" />
    <path
       d="m 253.8098,461.4687 -9.9224,9.8203 8.3643,33.1736 -5.4376,5.3816 -15.9197,-16.0853 -16.2923,16.1246 15.9197,16.0853 -11.8943,11.7719 -14.5349,-14.686 -5.3975,5.342 14.5349,14.686 -23.8802,23.6343 -55.8387,-56.4193 50.6245,-50.1034 15.5182,15.6795 8.1197,-8.0361 -15.5182,-15.6796 7.8462,-7.7654 15.4815,15.6425 8.1564,-7.9991 -15.5424,-15.6556 10.6077,-10.4985 z m -87.3443,56.837 43.8678,-43.4162 c 1.0479,-1.0371 2.7526,-1.0283 3.7897,0.0196 l 4.4066,4.4524 c 1.0371,1.0479 1.0283,2.7526 -0.0196,3.7898 l -43.8677,43.4162 c -1.048,1.0371 -2.7527,1.0283 -3.7898,-0.0196 l -4.4066,-4.4524 c -1.0371,-1.0479 -1.0283,-2.7526 0.0196,-3.7898 z"
       style="fill:#ffd42a;fill-rule:evenodd;stroke:#000000;stroke-width:0.56690001;stroke-linecap:butt;stroke-linejoin:miter;stroke-dasharray:none"
       id="path17"
       inkscape:connector-curvature="0" />
    <path
       d="m 228.9937,510.4285 a 7.137,7.137 0 0 1 10.093,0.0522 7.137,7.137 0 1 1 -10.093,-0.0522 z"
       style="fill:#ffd42a;fill-rule:evenodd;stroke:#000000;stroke-width:0.56690001;stroke-linecap:butt;stroke-linejoin:miter;stroke-dasharray:none"
       id="path19"
       inkscape:connector-curvature="0" />
    <path
       d="m 600.9137,167.4324 -16.3927,16.224 -3.6804,-57.4958 16.3927,-16.2241 z"
       style="fill:none;stroke:#000000;stroke-width:0.56690001;stroke-linecap:butt;stroke-linejoin:miter;stroke-dasharray:none"
       id="path21"
       inkscape:connector-curvature="0" />
    <path
       d="m 558.7346,209.1773 -16.3927,16.2241 -3.6804,-57.4958 16.3927,-16.2241 z"
       style="fill:none;stroke:#000000;stroke-width:0.56690001;stroke-linecap:butt;stroke-linejoin:miter;stroke-dasharray:none"
       id="path23"
       inkscape:connector-curvature="0" />
    <path
       d="m 517.7659,249.7244 -16.3928,16.2241 -3.6804,-57.4958 16.3928,-16.2241 z"
       style="fill:none;stroke:#000000;stroke-width:0.56690001;stroke-linecap:butt;stroke-linejoin:miter;stroke-dasharray:none"
       id="path25"
       inkscape:connector-curvature="0" />
    <path
       d="m 269.1326,514.0389 c 8.4093,8.5028 11.551,18.8657 7.0183,27.1834 -4.1546,-8.8445 -9.4247,-13.8823 -18.3127,-16.0052 z"
       style="fill:#ffd42a;fill-rule:evenodd;stroke:#000000;stroke-width:0.56690001;stroke-linecap:butt;stroke-linejoin:miter;stroke-dasharray:none"
       id="path27"
       inkscape:connector-curvature="0" />
    <path
       d="m 284.9988,498.3361 c 8.4093,8.5027 11.551,18.8656 7.0183,27.1834 -4.1546,-8.8446 -9.4248,-13.8824 -18.3127,-16.0052 z"
       style="fill:#ffd42a;fill-rule:evenodd;stroke:#000000;stroke-width:0.56690001;stroke-linecap:butt;stroke-linejoin:miter;stroke-dasharray:none"
       id="path29"
       inkscape:connector-curvature="0" />
    <path
       d="m 301.6205,481.8854 c 8.4093,8.5027 11.551,18.8657 7.0183,27.1834 -4.1546,-8.8445 -9.4247,-13.8824 -18.3127,-16.0052 z"
       style="fill:#ffd42a;fill-rule:evenodd;stroke:#000000;stroke-width:0.56690001;stroke-linecap:butt;stroke-linejoin:miter;stroke-dasharray:none"
       id="path31"
       inkscape:connector-curvature="0" />
    <path
       d="m 318.9978,464.687 c 8.4092,8.5028 11.5509,18.8657 7.0182,27.1834 -4.1545,-8.8445 -9.4247,-13.8823 -18.3127,-16.0052 z"
       style="fill:#ffd42a;fill-rule:evenodd;stroke:#000000;stroke-width:0.56690001;stroke-linecap:butt;stroke-linejoin:miter;stroke-dasharray:none"
       id="path33"
       inkscape:connector-curvature="0" />
    <path
       d="m 337.1306,446.7409 c 8.4092,8.5027 11.5509,18.8656 7.0182,27.1834 -4.1546,-8.8445 -9.4247,-13.8824 -18.3127,-16.0052 z"
       style="fill:#ffd42a;fill-rule:evenodd;stroke:#000000;stroke-width:0.56690001;stroke-linecap:butt;stroke-linejoin:miter;stroke-dasharray:none"
       id="path35"
       inkscape:connector-curvature="0" />
    <path
       d="m 352.9967,431.038 c 8.4093,8.5027 11.551,18.8656 7.0183,27.1834 -4.1546,-8.8445 -9.4247,-13.8824 -18.3127,-16.0052 z"
       style="fill:#ffd42a;fill-rule:evenodd;stroke:#000000;stroke-width:0.56690001;stroke-linecap:butt;stroke-linejoin:miter;stroke-dasharray:none"
       id="path37"
       inkscape:connector-curvature="0" />
    <path
       d="m 369.6184,414.5874 c 8.4093,8.5027 11.551,18.8656 7.0183,27.1834 -4.1546,-8.8446 -9.4247,-13.8824 -18.3127,-16.0052 z"
       style="fill:#ffd42a;fill-rule:evenodd;stroke:#000000;stroke-width:0.56690001;stroke-linecap:butt;stroke-linejoin:miter;stroke-dasharray:none"
       id="path39"
       inkscape:connector-curvature="0" />
    <path
       d="m 386.9957,397.389 c 8.4092,8.5027 11.5509,18.8656 7.0182,27.1834 -4.1545,-8.8446 -9.4247,-13.8824 -18.3127,-16.0052 z"
       style="fill:#ffd42a;fill-rule:evenodd;stroke:#000000;stroke-width:0.56690001;stroke-linecap:butt;stroke-linejoin:miter;stroke-dasharray:none"
       id="path41"
       inkscape:connector-curvature="0" />
    <path
       d="m 403.1361,381.4146 c 8.4093,8.5028 11.551,18.8657 7.0183,27.1835 -4.1546,-8.8446 -9.4247,-13.8824 -18.3127,-16.0052 z"
       style="fill:#ffd42a;fill-rule:evenodd;stroke:#000000;stroke-width:0.56690001;stroke-linecap:butt;stroke-linejoin:miter;stroke-dasharray:none"
       id="path43"
       inkscape:connector-curvature="0" />
    <path
       d="m 419.0023,365.7118 c 8.4092,8.5027 11.551,18.8656 7.0182,27.1834 -4.1545,-8.8445 -9.4247,-13.8824 -18.3126,-16.0052 z"
       style="fill:#ffd42a;fill-rule:evenodd;stroke:#000000;stroke-width:0.56690001;stroke-linecap:butt;stroke-linejoin:miter;stroke-dasharray:none"
       id="path45"
       inkscape:connector-curvature="0" />
    <path
       d="m 435.624,349.2611 c 8.4093,8.5028 11.551,18.8657 7.0183,27.1834 -4.1546,-8.8445 -9.4248,-13.8823 -18.3127,-16.0052 z"
       style="fill:#ffd42a;fill-rule:evenodd;stroke:#000000;stroke-width:0.56690001;stroke-linecap:butt;stroke-linejoin:miter;stroke-dasharray:none"
       id="path47"
       inkscape:connector-curvature="0" />
    <path
       d="m 453.0013,332.0627 c 8.4092,8.5028 11.5509,18.8657 7.0182,27.1834 -4.1545,-8.8445 -9.4247,-13.8823 -18.3127,-16.0052 z"
       style="fill:#ffd42a;fill-rule:evenodd;stroke:#000000;stroke-width:0.56690001;stroke-linecap:butt;stroke-linejoin:miter;stroke-dasharray:none"
       id="path49"
       inkscape:connector-curvature="0" />
    <path
       d="m 471.134,314.1166 c 8.4093,8.5027 11.551,18.8656 7.0183,27.1834 -4.1546,-8.8445 -9.4247,-13.8824 -18.3127,-16.0052 z"
       style="fill:#ffd42a;fill-rule:evenodd;stroke:#000000;stroke-width:0.56690001;stroke-linecap:butt;stroke-linejoin:miter;stroke-dasharray:none"
       id="path51"
       inkscape:connector-curvature="0" />
    <path
       d="m 487.0002,298.4137 c 8.4093,8.5027 11.551,18.8656 7.0183,27.1834 -4.1546,-8.8445 -9.4248,-13.8824 -18.3127,-16.0052 z"
       style="fill:#ffd42a;fill-rule:evenodd;stroke:#000000;stroke-width:0.56690001;stroke-linecap:butt;stroke-linejoin:miter;stroke-dasharray:none"
       id="path53"
       inkscape:connector-curvature="0" />
    <path
       d="m 503.6219,281.9631 c 8.4093,8.5027 11.551,18.8656 7.0183,27.1834 -4.1546,-8.8445 -9.4247,-13.8824 -18.3127,-16.0052 z"
       style="fill:#ffd42a;fill-rule:evenodd;stroke:#000000;stroke-width:0.56690001;stroke-linecap:butt;stroke-linejoin:miter;stroke-dasharray:none"
       id="path55"
       inkscape:connector-curvature="0" />
    <path
       d="m 520.9992,264.7647 c 8.4092,8.5027 11.5509,18.8656 7.0182,27.1834 -4.1545,-8.8445 -9.4247,-13.8824 -18.3127,-16.0052 z"
       style="fill:#ffd42a;fill-rule:evenodd;stroke:#000000;stroke-width:0.56690001;stroke-linecap:butt;stroke-linejoin:miter;stroke-dasharray:none"
       id="path57"
       inkscape:connector-curvature="0" />
    <path
       d="m 537.6708,248.2647 c 8.4092,8.5027 11.5509,18.8656 7.0182,27.1834 -4.1546,-8.8445 -9.4247,-13.8824 -18.3127,-16.0052 z"
       style="fill:#ffd42a;fill-rule:evenodd;stroke:#000000;stroke-width:0.56690001;stroke-linecap:butt;stroke-linejoin:miter;stroke-dasharray:none"
       id="path59"
       inkscape:connector-curvature="0" />
    <path
       d="m 553.5369,232.5618 c 8.4093,8.5027 11.551,18.8656 7.0183,27.1834 -4.1546,-8.8445 -9.4247,-13.8824 -18.3127,-16.0052 z"
       style="fill:#ffd42a;fill-rule:evenodd;stroke:#000000;stroke-width:0.56690001;stroke-linecap:butt;stroke-linejoin:miter;stroke-dasharray:none"
       id="path61"
       inkscape:connector-curvature="0" />
    <path
       d="m 570.1586,216.1112 c 8.4093,8.5027 11.551,18.8656 7.0183,27.1834 -4.1546,-8.8446 -9.4247,-13.8824 -18.3127,-16.0052 z"
       style="fill:#ffd42a;fill-rule:evenodd;stroke:#000000;stroke-width:0.56690001;stroke-linecap:butt;stroke-linejoin:miter;stroke-dasharray:none"
       id="path63"
       inkscape:connector-curvature="0" />
    <path
       d="m 587.5359,198.9128 c 8.4092,8.5027 11.5509,18.8656 7.0182,27.1834 -4.1545,-8.8445 -9.4247,-13.8824 -18.3127,-16.0052 z"
       style="fill:#ffd42a;fill-rule:evenodd;stroke:#000000;stroke-width:0.56690001;stroke-linecap:butt;stroke-linejoin:miter;stroke-dasharray:none"
       id="path65"
       inkscape:connector-curvature="0" />
    <path
       d="m 605.6687,180.9666 c 8.4092,8.5027 11.5509,18.8657 7.0182,27.1834 -4.1545,-8.8445 -9.4247,-13.8824 -18.3127,-16.0052 z"
       style="fill:#ffd42a;fill-rule:evenodd;stroke:#000000;stroke-width:0.56690001;stroke-linecap:butt;stroke-linejoin:miter;stroke-dasharray:none"
       id="path67"
       inkscape:connector-curvature="0" />
    <path
       d="m 621.5348,165.2637 c 8.4093,8.5028 11.551,18.8657 7.0183,27.1835 -4.1546,-8.8446 -9.4247,-13.8824 -18.3127,-16.0053 z"
       style="fill:#ffd42a;fill-rule:evenodd;stroke:#000000;stroke-width:0.56690001;stroke-linecap:butt;stroke-linejoin:miter;stroke-dasharray:none"
       id="path69"
       inkscape:connector-curvature="0" />
    <path
       d="m 638.1566,148.8131 c 8.4092,8.5027 11.5509,18.8656 7.0182,27.1834 -4.1546,-8.8445 -9.4247,-13.8824 -18.3127,-16.0052 z"
       style="fill:#ffd42a;fill-rule:evenodd;stroke:#000000;stroke-width:0.56690001;stroke-linecap:butt;stroke-linejoin:miter;stroke-dasharray:none"
       id="path71"
       inkscape:connector-curvature="0" />
    <path
       d="m 655.5338,131.6147 c 8.4092,8.5027 11.551,18.8656 7.0182,27.1834 -4.1545,-8.8445 -9.4247,-13.8824 -18.3127,-16.0052 z"
       style="fill:#ffd42a;fill-rule:evenodd;stroke:#000000;stroke-width:0.56690001;stroke-linecap:butt;stroke-linejoin:miter;stroke-dasharray:none"
       id="path73"
       inkscape:connector-curvature="0" />
    <path
       d="m 671.4,115.9118 c 8.4092,8.5028 11.5509,18.8657 7.0182,27.1834 -4.1545,-8.8445 -9.4247,-13.8823 -18.3127,-16.0052 z"
       style="fill:#ffd42a;fill-rule:evenodd;stroke:#000000;stroke-width:0.56690001;stroke-linecap:butt;stroke-linejoin:miter;stroke-dasharray:none"
       id="path75"
       inkscape:connector-curvature="0" />
    <path
       d="m 683.2799,98.9625 c 10.149,6.3252 15.6043,15.6793 13.1201,24.8204 -6.0891,-7.6425 -12.3823,-11.3236 -21.5202,-11.3313 z"
       style="fill:#ffd42a;fill-rule:evenodd;stroke:#000000;stroke-width:0.56690001;stroke-linecap:butt;stroke-linejoin:miter;stroke-dasharray:none"
       id="path77"
       inkscape:connector-curvature="0" />
    <path
       d="m 683.1407,59.0987 c 11.9547,0.3136 21.3962,5.6163 23.8839,14.7565 -9.1211,-3.5059 -16.4118,-3.4925 -24.295,1.1289 z"
       style="fill:#ffd42a;fill-rule:evenodd;stroke:#000000;stroke-width:0.56690001;stroke-linecap:butt;stroke-linejoin:miter;stroke-dasharray:none"
       id="path79"
       inkscape:connector-curvature="0" />
    <path
       d="m 683.2527,37.4219 c 11.9546,0.3137 21.3961,5.6164 23.8839,14.7565 -9.1212,-3.5059 -16.4119,-3.4925 -24.295,1.129 z"
       style="fill:#ffd42a;fill-rule:evenodd;stroke:#000000;stroke-width:0.56690001;stroke-linecap:butt;stroke-linejoin:miter;stroke-dasharray:none"
       id="path81"
       inkscape:connector-curvature="0" />
    <path
       d="m 683.0368,79.1841 c 11.9547,0.3137 21.3962,5.6164 23.8839,14.7565 -9.1211,-3.5059 -16.4118,-3.4925 -24.295,1.129 z"
       style="fill:#ffd42a;fill-rule:evenodd;stroke:#000000;stroke-width:0.56690001;stroke-linecap:butt;stroke-linejoin:miter;stroke-dasharray:none"
       id="path83"
       inkscape:connector-curvature="0" />
    <path
       d="M 56.7801,705.8116 23.9379,672.6278"
       style="fill:none;stroke:#000000;stroke-width:0.56690001;stroke-linecap:butt;stroke-linejoin:miter;stroke-dasharray:none"
       id="path85"
       inkscape:connector-curvature="0" />
  </g>
</svg>
