<svg xmlns="http://www.w3.org/2000/svg" viewBox="0 0 725.669 725.669">
    <path fill="#ff2a2a" fill-rule="evenodd" d="M393.46 270.921h10.28v11.438h-10.28z"/>
    <path fill="#ff2a2a" fill-rule="evenodd" d="M-18.941-9.82h272.668c1.189 9.93 2.606 19.934 3.777 28.08 4.873 33.907 8.701 42.86 16.854 72.089 1.538 5.513 1.274 6.461 5.116 9.845 2.774 2.443 5.339 3.822 9.36 4.762-1.34-5.738-5.382-23.871-7.48-28.262 11.574 0 18.988.177 28.75-2.009 21.518-4.816 34.842-13.98 54.06-20.752 11.173-3.938 20.18-9.136 31.303-13.584 75.956-30.375 145.72 6.612 159.03 86.568 2.8 16.811 2.618 39.606.5 56.336-2.24 17.715-5.27 35.225-9.835 50.848l-21.096 68.679c-2.463 14.588-6.588 28.996 11.67 28.317 4.767-.177 8.74-1.474 13.279-1.707 12.648-.651 21.372-.142 29.041 6.716 4.16 3.721 8.05 8.347 10.604 13.504 3.467 7 6.206 13.283 9.685 20.24 6.832 13.664 11.98 27.965 17.53 42.32 18.22 47.123 39.74 150.179 39.552 200.683-.112 30.332 3.724 58.647-16.141 73.644-5.606 4.231-12.907 7.275-20.924 9.003-23.03 4.965-88.477 5.663-114.101 2.019-20.406-2.902-18.733-8.407-11.492-22.876 12.449-24.877 20.512-52.111 23.76-80.975.52-4.61 1.251-9.03 1.656-13.307.45-4.762.488-8.898 1.03-13.933 1.443-13.4.64-29.947.713-44.184.032-6.08-.88-8.7-.86-14.103.11-28.803-9.401-74.585-20.47-99.227l-9.425-20.5c-1.628-3.282-3.349-6.222-5.345-9.618-5.508-9.37-11.176-18.543-17.694-27.193-2.338-3.101-3.995-5.456-6.412-8.55-1.44-1.844-1.873-2.194-3.338-4.144-8.626-11.477-22.688-18.943-30.979-28.87-21.465-25.705-29.963-34.043-42.759-65.307-1.516-3.706-3.28-7.795-4.867-11.757l-9.137-24.104c0 17.442 1.17 25.995 5.459 41.086 1.056 3.717 3.169 8.163 3.892 11.244l5.617 13.329c2.487 4.744 5.554 10.028 8.635 14.638 3.356 5.021 6.494 8.898 9.647 13.634-21.704 5.053-85.424 5.901-111.04 2.143-3.93-.577-11.678-1.312-15.318-1.312-2.486-10.68-7.621-21.785-12.456-31.6-2.658-5.398-12.233-24.792-15.799-27.418.295 3.533 3.787 10.381 5.094 14.019 1.545 4.298 3.286 9.376 4.77 13.518l8.601 28.805c4.99 19.428 9.636 39.415 13.231 60.75 2.96 17.558 10.435 63.635 10.694 82.41.067 4.913 1.058 12.225 1.543 16.743l3.451 70.53c-.066 17.735.648 37.547-.79 54.91-.493 5.963.537 12.123-.27 18.017-2.919 21.294-1.25 38.7-7.305 66.678-2.5 11.554-5.855 16.134-15.255 21.323-19.296 10.651-56.873 10.189-82.792 10.322l-35.514-1.892c-8.502-1.118-23.159-.352-27.118-10.294-4.383-11.006 11.725-40.904 17.516-55.387l8.88-27.695c1.325-5.3 2.682-9.38 3.751-14.535 2.183-10.533 4.252-19.796 6.368-31.039 5.782-30.728 14.237-102.952 14.454-133.508l.83-17.457c.013-11.115 1.736-24.204 1.694-35.713-.023-6.1-.04-12.22-.031-18.319.008-5.855.864-10.497.86-17.427v-55.695c0-12.286-.832-22.785-.832-35.74-2.276 3.298-5.192 15.383-5.62 18.477-1.608 11.633 2.373 12.043-10.162 6.45-30.988-13.825-56.48-39.511-71.505-69.81C79.138 177.484 70.477 149.683 67.644 120L65.2 87.532l1.55-33.42c.385-3.586.972-7.702.972-10.668 5.05-1.176 21.741-9.25 24.107-12.462-8.852.74-18.872 4.704-27.634 6.443-26.954 5.35-54.921 9.364-83.135 9.233z"/>
    <path fill="#ff2a2a" fill-rule="evenodd" d="M483.819 659.874c-5.966-.775-16.684-1.427-20.373-5.47-8.71-9.546 5.788-22.587 10.656-34.434 10.777-26.23 11.906-28.948 16.45-61.053 2.379-16.803 3.054-55.166.396-73.769-.572-4.005-.777-8.38-1.18-12.044L475.95 409.42c-1.156-3.44-1.938-5.77-3.12-9.346-1.318-3.983-2.277-6.415-3.605-9.742-.648-1.622-1.274-3.329-1.915-4.769-.634-1.424-1.149-2.221-1.889-3.911l-4.194-9.149c-1.656-3.308-2.588-5.221-4.357-8.166-3.677-6.12-4.84-9.065-9.498-15.224.422.819 3.742 4.736 4.974 6.263l19.84 29.955c8.337 16.054 8.334 15.584 15.556 33.456 7.56 18.706 13.785 49.516 16.027 69.442 3.77 33.5 3.082 82.567-1.605 117.125-1.52 11.214-6.67 27.743-11.147 37.745-2.276 5.086-5.915 11.684-7.198 16.775zM253.727-9.822h12.183c1.193 10.718 2.934 21.483 4.525 30.94 1.261 7.492 2.164 13.962 3.646 21.292l3.951 20.986c17.234 0 24.288-.6 37.585-3.977 14.648-3.719 42.637-18.298 56.936-24.527 5.11-2.227 10.39-3.47 15.192-5.59 4.539-2.003 9.46-4.101 14.238-5.712C482.49-3.547 558.563 44.954 566.553 128.99c2.2 23.132 2.552 34.505.684 57.362-1.718 21.018-9.052 46.906-15.617 66.678-1.758 5.293-3.427 9.463-5.19 14.759-1.594 4.787-3.85 10.505-5.602 15.18-1.357 3.619-4.561 11.785-4.28 14.842 9.124.336 29.775 8.093 30.76 19.119 11.275 0 19.974 6.915 25.785 14.947l22.311 44.188c2.625 6.469 5.445 11.748 7.909 18.691 4.402 12.405 10.323 26.175 14.12 39.08 19.58 66.551 32.029 125.531 32.122 207.283 0 19.785-1.636 36.862-13.378 48.969-5.202 5.363-9.52 8.575-16.29 11.973l-3.583 2.232c-5.423 1.262-10.303 2.957-15.85 4.103-5.152 1.065-11.407 1.862-16.692 2.426-25.669 2.738-116.069 5.345-127.18-11.396-5.624-8.472-.942-20.76.948-27.193-15.43-3.388-40.249-4.828-29.818-32.72l6.655-15.85c2.21-2.858 4.354-7.66 5.95-11.398 7.38-17.294 7.894-16.385 12.165-37.71 3.736-18.656 5.05-39.143 5.05-61.45 0-62.772-15.695-119.738-49.394-166.73-2.475-3.453-4.696-6.085-7.322-9.304-17.924-21.982-16.696-20.123-28.873-19.281-4.137.286-11.47.894-15.22 1.406-14.334 1.96-67.785.93-80.525-.482l-15.672-.953c1.308 5.615 3.415 11.294 4.813 16.8 12.53 49.348 12.928 58.804 19.644 107.537 5.556 40.321 5.08 99.913 3.832 142.522-.346 11.827-2.403 26.67-3.35 38.21 0 6.901-1.442 12.886-1.663 19.95-.176 5.604-1.124 13.06-1.897 18.884-1.928 14.52-7.52 34.755-20.267 42.08-14.272 8.2-43.646 12.01-60.93 12.223-24.836.307-65.786-.136-87.943-5.224-29.084-6.679-17.818-33.52-17.661-39.341-4.674-4.282-12.996-4.551-17.667-14.238-4.345-9.009-1.585-17.504.323-26.02l12.592-38.005c24.714-61.254 33.763-147.89 38.885-214.647l4.135-59.872c-.005-5.129.24-7.847.682-11.787.463-4.126.06-16.195 1.129-21.15.682-3.165-.842-.306.655-1.176-1.683-2.27.058-.447-2.164-1.95l-11.932-6.395c-4.454-2.555-9.033-5.309-13.21-8.402-2.404-1.78-3.789-2.618-6.204-4.602-9.819-8.063-19.161-16.146-27.064-26.136a285.08 285.08 0 0 1-9.257-12.355c-4.284-6.057-12.08-21.053-14.948-27.447-14.407-32.126-24.278-90.733-20.08-128.125.387-3.45-.01-7.219.094-10.712.125-4.24.858-4.564.858-9.117-3.887.087-30.193 8.375-70.872 9.093V46.658c28.214.131 56.18-3.884 83.135-9.233 8.762-1.738 18.782-5.704 27.634-6.443C89.462 34.194 72.77 42.27 67.72 43.444c0 2.966-.587 7.082-.972 10.668l-1.55 33.42 2.445 32.469c2.834 29.681 11.494 57.482 24.177 83.056 15.027 30.298 40.518 55.984 71.506 69.81 12.535 5.592 8.554 5.182 10.162-6.451.428-3.094 3.344-15.18 5.62-18.477 0 12.955.833 23.455.831 35.74v55.695c.004 6.93-.851 11.572-.86 17.427-.007 6.1.009 12.218.032 18.319.042 11.509-1.681 24.599-1.694 35.713l-.83 17.457c-.217 30.556-8.672 102.78-14.454 133.508-2.116 11.244-4.184 20.506-6.368 31.039-1.069 5.156-2.426 9.235-3.752 14.535l-8.879 27.696c-5.791 14.482-21.899 44.38-17.516 55.386 3.96 9.942 18.616 9.176 27.118 10.294l35.514 1.892c25.919-.133 63.496.33 82.792-10.322 9.4-5.19 12.755-9.768 15.255-21.323 6.055-27.979 4.386-45.384 7.304-66.678.808-5.893-.222-12.054.271-18.017 1.437-17.363.724-37.175.79-54.91l-3.451-70.53c-.485-4.518-1.476-11.83-1.543-16.744-.259-18.774-7.735-64.85-10.694-82.408-3.595-21.336-8.24-41.323-13.23-60.75l-8.603-28.806c-1.483-4.142-3.224-9.22-4.769-13.518-1.307-3.637-4.799-10.486-5.094-14.02 3.566 2.627 13.14 22.021 15.8 27.418 4.834 9.816 9.97 20.92 12.455 31.601 3.64 0 11.387.735 15.317 1.312 25.617 3.758 89.337 2.91 111.041-2.143-3.153-4.736-6.29-8.612-9.647-13.634-3.08-4.61-6.148-9.894-8.635-14.638l11.942-3.189c4.386 8.824 22.596 30.007 29.853 38.697 8.292 9.928 22.353 17.394 30.979 28.871 1.465 1.95 1.897 2.3 3.338 4.144 2.417 3.094 4.075 5.449 6.412 8.55 6.518 8.65 12.186 17.823 17.694 27.193 1.997 3.397 3.717 6.337 5.345 9.618l9.424 20.5c11.07 24.642 20.58 70.424 20.472 99.227-.02 5.402.89 8.023.86 14.103-.074 14.237.73 30.785-.713 44.185-.543 5.034-.581 9.17-1.031 13.932-.405 4.276-1.137 8.696-1.656 13.307-3.248 28.864-11.311 56.098-23.76 80.975-7.241 14.47-8.914 19.974 11.492 22.876 25.624 3.644 91.07 2.946 114.101-2.019 8.017-1.728 15.319-4.772 20.924-9.003 19.865-14.997 16.029-43.312 16.14-73.644.188-50.504-21.332-153.56-39.55-200.682-5.551-14.356-10.699-28.657-17.531-42.32-3.479-6.958-6.218-13.24-9.685-20.241-2.553-5.157-6.443-9.783-10.604-13.503-7.67-6.859-16.393-7.368-29.041-6.717-4.54.233-8.512 1.53-13.28 1.707-18.257.68-14.132-13.729-11.669-28.317l21.096-68.68c4.565-15.622 7.595-33.131 9.836-50.847 2.116-16.73 2.299-39.524-.5-56.336C541.186 46.96 471.423 9.974 395.467 40.349c-11.124 4.448-20.13 9.646-31.304 13.584-19.217 6.773-32.541 15.936-54.06 20.753-9.76 2.185-17.175 2.008-28.75 2.008 2.099 4.391 6.14 22.524 7.482 28.263-4.022-.94-6.587-2.32-9.361-4.763-3.842-3.383-3.578-4.332-5.116-9.845-8.153-29.23-11.98-38.182-16.854-72.09-1.17-8.145-2.588-18.148-3.777-28.08zm278.201 328.05c.088-3.152.831-3.436.831-7.585 3.377.382 6.1 1.2 9.211 2.048 2.633.718 5.525 1.77 7.286 3.638-3.364-1.279-13.413 1.456-17.328 1.898zM121.157 656.315c-6.33-3.281-14.385-3.095-12.876-14.119.31-2.255 2.447-8.237 3.374-10.616 8.284-21.242 15.144-37.268 21.68-60.691 11.585-41.517 14.741-56.318 21.094-102.855l3.666-38.045c.311-10.087 2.51-28.486 2.472-38.287l5.842-103.272c.688.134 4.682 1.72 5.69 2.262-.09 3.192-.522 2.012-.788 5.421l-.996 32.252c-.444 3.875-.743 6.766-.705 11.848l-1.187 25.298c-.675 4.44-.216 8.164-.476 12.904-1.21 22.035-4.348 52.822-4.993 73.169l-3.4 35.62c-4.898 50.66-16.518 112.94-35.549 160.475-.957 2.39-3.172 6.274-2.848 8.636zM383.61 274.53l11.942-3.189c-1.961-2.743-11.343-22.79-12.906-26.608-1.516-3.707-3.28-7.795-4.867-11.758l-9.137-24.104c0 17.442 1.17 25.995 5.459 41.086 2.406 8.465 6.698 18.08 9.509 24.573z"/>
    <path fill="#ff2a2a" fill-rule="evenodd" d="M483.819 659.873c1.283-5.09 4.922-11.688 7.198-16.774 4.477-10.003 9.626-26.531 11.147-37.745 4.687-34.558 5.376-83.625 1.605-117.125-2.242-19.926-8.468-50.736-16.027-69.443-7.222-17.871-7.22-17.4-15.556-33.455l-19.84-29.955c-1.232-1.527-4.552-5.444-4.974-6.263 4.658 6.159 5.82 9.104 9.498 15.224 1.77 2.945 2.7 4.858 4.357 8.166l4.194 9.149c.74 1.69 1.255 2.487 1.889 3.911.641 1.44 1.267 3.147 1.914 4.769 1.329 3.327 2.288 5.759 3.605 9.742 1.183 3.576 1.965 5.907 3.12 9.346l13.82 63.684c.402 3.665.607 8.039 1.18 12.044 2.657 18.602 1.982 56.966-.397 73.769-4.544 32.105-5.673 34.822-16.45 61.053-4.868 11.847-19.366 24.888-10.656 34.433 3.69 4.043 14.407 4.696 20.373 5.47zM121.157 656.316c-.324-2.361 1.891-6.246 2.848-8.636 19.03-47.536 30.65-109.815 35.549-160.475l3.4-35.62c.645-20.347 3.783-51.134 4.993-73.17.26-4.74-.2-8.464.476-12.903l1.187-25.298c-.038-5.082.26-7.973.705-11.848l.996-32.252c.266-3.409.698-2.23.788-5.42-1.008-.543-5.002-2.129-5.69-2.263l-5.842 103.273c.038 9.8-2.16 28.199-2.472 38.286l-3.666 38.044c-6.353 46.538-9.509 61.339-21.094 102.856-6.536 23.424-13.396 39.45-21.68 60.69-.927 2.38-3.064 8.362-3.373 10.617-1.51 11.024 6.545 10.838 12.875 14.12zM531.928 318.228c3.915-.442 13.964-3.177 17.328-1.898-1.76-1.868-4.653-2.92-7.286-3.638-3.11-.848-5.834-1.666-9.211-2.048 0 4.15-.742 4.433-.83 7.585z"/>
    <path fill-opacity=".2" fill-rule="evenodd" d="M483.819 659.874c-5.966-.775-16.684-1.427-20.373-5.47-8.71-9.546 5.788-22.587 10.656-34.434 10.778-26.23 11.906-28.948 16.45-61.053 2.379-16.803 3.054-55.167.396-73.769-.572-4.005-.777-8.38-1.18-12.044L475.95 409.42c-1.156-3.44-1.938-5.77-3.12-9.346-1.318-3.983-2.277-6.415-3.605-9.743-.648-1.621-1.274-3.328-1.915-4.768-.634-1.424-1.149-2.221-1.889-3.911l-4.194-9.149c-1.656-3.308-2.587-5.221-4.357-8.166-3.677-6.12-4.84-9.065-9.498-15.224.422.819 3.742 4.736 4.974 6.263l19.84 29.955c8.337 16.054 8.334 15.584 15.556 33.456 7.56 18.706 13.785 49.516 16.027 69.442 3.77 33.5 3.082 82.567-1.605 117.125-1.52 11.214-6.67 27.743-11.147 37.745-2.276 5.086-5.915 11.684-7.198 16.775zM253.727-9.822h12.183c1.194 10.718 2.934 21.483 4.525 30.94 1.261 7.492 2.164 13.962 3.646 21.292l3.951 20.986c17.234 0 24.288-.6 37.585-3.977 14.648-3.719 42.637-18.298 56.936-24.527 5.11-2.227 10.39-3.47 15.192-5.59 4.539-2.003 9.46-4.101 14.238-5.712C482.49-3.547 558.563 44.954 566.553 128.99c2.2 23.132 2.552 34.505.684 57.362-1.718 21.018-9.052 46.906-15.617 66.677-1.758 5.294-3.427 9.464-5.19 14.76-1.594 4.787-3.85 10.505-5.602 15.18-1.357 3.619-4.56 11.785-4.28 14.842 9.124.336 29.775 8.093 30.76 19.119 11.275 0 19.974 6.915 25.785 14.947l22.311 44.188c2.625 6.469 5.445 11.748 7.91 18.691 4.4 12.405 10.322 26.175 14.119 39.08 19.58 66.551 32.029 125.531 32.122 207.283 0 19.785-1.636 36.862-13.378 48.969-5.201 5.363-9.52 8.575-16.29 11.973l-3.582 2.232c-5.424 1.262-10.304 2.957-15.85 4.103-5.153 1.065-11.408 1.862-16.693 2.426-25.669 2.738-116.069 5.345-127.18-11.396-5.624-8.472-.942-20.76.948-27.193-15.43-3.388-40.248-4.828-29.818-32.72l6.655-15.85c2.21-2.858 4.354-7.66 5.95-11.398 7.38-17.294 7.894-16.385 12.165-37.71 3.736-18.656 5.05-39.144 5.05-61.45 0-62.772-15.694-119.738-49.394-166.73-2.475-3.453-4.696-6.085-7.321-9.304-17.925-21.982-16.697-20.123-28.874-19.281-4.137.286-11.47.894-15.22 1.406-14.334 1.96-67.785.929-80.525-.482l-15.672-.953c1.308 5.615 3.415 11.294 4.813 16.8 12.53 49.348 12.928 58.804 19.644 107.537 5.556 40.321 5.08 99.913 3.832 142.522-.346 11.827-2.403 26.67-3.35 38.21 0 6.901-1.442 12.886-1.663 19.95-.176 5.604-1.124 13.06-1.897 18.884-1.928 14.52-7.52 34.755-20.267 42.08-14.272 8.2-43.646 12.01-60.93 12.223-24.836.307-65.786-.136-87.943-5.224-29.084-6.679-17.818-33.52-17.661-39.341-4.674-4.282-12.996-4.551-17.667-14.238-4.345-9.009-1.585-17.504.323-26.02l12.592-38.006c24.714-61.253 33.763-147.89 38.885-214.646l4.135-59.872c-.005-5.129.24-7.847.682-11.787.463-4.126.06-16.195 1.129-21.15.682-3.165-.842-.307.655-1.176-1.683-2.27.058-.447-2.164-1.95l-11.932-6.395c-4.454-2.555-9.033-5.31-13.21-8.402-2.404-1.78-3.789-2.618-6.204-4.602-9.819-8.063-19.161-16.146-27.064-26.136a285.065 285.065 0 0 1-9.257-12.355c-4.284-6.057-12.08-21.053-14.948-27.447-14.407-32.126-24.278-90.733-20.08-128.125.387-3.45-.01-7.219.094-10.712.125-4.24.858-4.564.858-9.117-3.887.087-30.193 8.375-70.872 9.093V46.658c28.214.131 56.18-3.884 83.135-9.233 8.762-1.738 18.782-5.704 27.634-6.443-2.366 3.212-19.058 11.286-24.107 12.462 0 2.966-.587 7.082-.972 10.668l-1.55 33.42L67.644 120c2.834 29.682 11.494 57.483 24.178 83.057 15.026 30.297 40.517 55.984 71.505 69.81 12.535 5.592 8.554 5.182 10.162-6.451.428-3.094 3.344-15.18 5.62-18.477 0 12.955.833 23.455.831 35.74v55.695c.005 6.93-.851 11.572-.86 17.427-.007 6.1.009 12.218.032 18.319.042 11.509-1.681 24.599-1.694 35.713l-.83 17.457c-.217 30.556-8.671 102.78-14.454 133.508-2.116 11.243-4.184 20.506-6.368 31.039-1.069 5.156-2.426 9.235-3.752 14.535l-8.879 27.696c-5.791 14.482-21.899 44.38-17.516 55.386 3.96 9.942 18.616 9.176 27.118 10.294l35.514 1.892c25.919-.133 63.496.33 82.792-10.322 9.4-5.19 12.755-9.768 15.255-21.323 6.055-27.979 4.386-45.384 7.304-66.678.808-5.893-.222-12.054.271-18.017 1.438-17.363.724-37.175.79-54.91l-3.451-70.53c-.485-4.518-1.476-11.83-1.543-16.744-.258-18.774-7.735-64.85-10.694-82.408-3.595-21.336-8.24-41.323-13.23-60.75l-8.603-28.806c-1.483-4.142-3.224-9.22-4.769-13.518-1.307-3.637-4.799-10.486-5.094-14.02 3.566 2.627 13.14 22.021 15.8 27.418 4.834 9.816 9.97 20.92 12.455 31.601 3.64 0 11.387.735 15.317 1.312 25.617 3.758 89.337 2.91 111.041-2.143-3.153-4.736-6.29-8.613-9.647-13.634-3.08-4.61-6.148-9.894-8.635-14.638l11.942-3.189c4.387 8.824 22.596 30.007 29.853 38.697 8.292 9.928 22.353 17.394 30.979 28.871 1.465 1.95 1.897 2.3 3.338 4.144 2.417 3.094 4.075 5.449 6.412 8.55 6.518 8.65 12.186 17.823 17.694 27.193 1.997 3.396 3.718 6.337 5.345 9.618l9.424 20.5c11.07 24.642 20.58 70.424 20.472 99.227-.02 5.402.89 8.022.86 14.103-.074 14.237.73 30.785-.713 44.184-.543 5.035-.581 9.17-1.031 13.933-.405 4.276-1.136 8.696-1.655 13.307-3.25 28.864-11.312 56.098-23.761 80.975-7.241 14.47-8.914 19.974 11.492 22.876 25.624 3.644 91.07 2.946 114.101-2.019 8.017-1.728 15.319-4.772 20.924-9.003 19.865-14.997 16.029-43.312 16.14-73.644.188-50.504-21.332-153.56-39.55-200.682-5.551-14.356-10.699-28.657-17.531-42.32-3.479-6.958-6.218-13.24-9.685-20.241-2.553-5.157-6.443-9.783-10.604-13.504-7.67-6.858-16.393-7.367-29.04-6.716-4.54.233-8.513 1.53-13.28 1.707-18.258.68-14.133-13.729-11.67-28.318l21.096-68.678c4.565-15.623 7.594-33.133 9.836-50.848 2.116-16.73 2.299-39.525-.5-56.336C541.186 46.96 471.423 9.974 395.466 40.349c-11.123 4.448-20.13 9.646-31.303 13.584-19.217 6.773-32.541 15.936-54.06 20.753-9.76 2.185-17.175 2.008-28.75 2.008 2.099 4.391 6.14 22.524 7.481 28.262-4.021-.94-6.586-2.32-9.36-4.762-3.842-3.383-3.578-4.332-5.116-9.845-8.153-29.23-11.98-38.182-16.854-72.09-1.17-8.145-2.588-18.148-3.777-28.08zm278.201 328.05c.088-3.152.831-3.436.831-7.585 3.377.382 6.1 1.2 9.211 2.048 2.633.718 5.525 1.77 7.286 3.638-3.364-1.279-13.413 1.456-17.328 1.898zM121.157 656.315c-6.33-3.281-14.385-3.095-12.876-14.119.31-2.255 2.447-8.237 3.374-10.616 8.284-21.242 15.144-37.268 21.68-60.691 11.585-41.517 14.741-56.318 21.094-102.855l3.666-38.045c.311-10.087 2.51-28.486 2.472-38.287l5.842-103.272c.688.134 4.682 1.72 5.69 2.262-.09 3.192-.522 2.012-.788 5.421l-.996 32.252c-.444 3.875-.743 6.766-.705 11.848l-1.187 25.298c-.675 4.44-.216 8.164-.476 12.903-1.21 22.036-4.348 52.823-4.993 73.17l-3.4 35.62c-4.898 50.66-16.518 112.94-35.549 160.475-.957 2.39-3.172 6.274-2.848 8.636zM383.61 274.53l11.942-3.189c-1.961-2.743-11.343-22.79-12.906-26.609-1.516-3.706-3.28-7.795-4.867-11.757l-9.137-24.104c0 17.442 1.17 25.995 5.459 41.086 2.406 8.465 6.698 18.08 9.51 24.573z"/>
</svg>
