<svg xmlns="http://www.w3.org/2000/svg" viewBox="0 0 725.669 725.669">
    <path fill="#ff2a2a" fill-rule="evenodd" d="M551.786 234.576c-1.764 5.924-.69 10.013-.507 16.324.51 17.592.749 45.49-4.6 62.881-.35 1.142-.495 2.546-.684 3.805-.503 3.366-3.383 15.852-4.96 18.476l-3.64 9.098c-4.616 11.607-1.972 5.109-7.22 15.364-1.65 3.228-5.89 12.098-7.957 14.695-6.508 7.686-12.262 16.616-19.36 23.56-1.758 1.981-3.424 4.055-5.286 5.943-4.562 4.584-8.928 10.594-12.735 14.348l-13.62 15.675c-.1.137-.198.341-.301.476-2.843 3.72-3.728 5.305-6.43 9.35l-6.848 11.253c-9.987 14.17-11.952 31.973-14.433 48.61-.515 8.851-.885 26.908 1.092 34.766.704 2.8 2.241 12.63 2.357 15.501-6.255.56.584-.832-11.11-1.352-3.403-.152-9.618-.107-12.21-.634l-8.864.77-1.655-2.042-.077 2.364c-26.414 5.425-51.775 25.974-57.818 50.659-1.98 8.087-2.22 24.7 1.613 31.7 3.237-4.215 12.312-24.338 23.635-27.393-.447 2.704-2.568 6.694-3.908 10.267a77.391 77.391 0 0 0-4.207 37.666c1.615 11.802 10.99 33.335 20.596 36.886 3.495-2.072 6.43-5.5 8.653-8.941 1.388-2.147.574-1.854 2.634-3.493 1.465 1.33 1.506 1.696 2.827 3.354 17.233 21.612 42.99 28.456 69.176 17.307l9.498-5.827 5.603-5.822c13.03-14.351 13.82-24.691 16.73-41.938-3.228 4.73-2.862 4.049-6.49 6.268-.141.086-.334.188-.47.28l-1.258 1.085c-.126.114-.27.285-.393.4l-10.274 6.417c-3.795 1.853-3.627 2.478-8.954 2.802-2.08-9.015.514-8.921 3.97-13.91 4.098-5.914 4.107-4.091 7.672-13.467l1.078-3.478c1.158-6.583 1.124-11.799 1.774-18.685 2.222.008 9.338 3.045 14.526 3.995l7.422 1.535c2.948.698 6.265.262 9.325.565 18.426 1.82 37.552-2.632 53.488-10.831 13.889-7.146 22.483-16.81 32.728-28.183 4.168-6.718 1.954-.961 9.235-15.007 3.482-6.715 5.902-11.928 8.681-18.996 2.037-5.323 5.71-17.257 6.177-22.745.39-4.567.883-3.245 1.67-7.013l1.82-26.835c-.001-6.937-.324-11.984-.795-18.105-1.721-30.115-17.25-43.632-27.394-68.91l-12.45-28.063c-15.525-38.676-28.846-88.424-32.623-130-.988-10.876-3.754-25.98-2.766-37.773-1.463 1.871-4.326 10.57-5.524 13.196-1.712 3.753-5.59 8.672-6.159 11.802z"/>
    <path fill="#fff" fill-opacity=".2" fill-rule="evenodd" d="M578.499 351.122c-2.194 4.856-.583 13.59-11.182 35.996-4.966 10.497-11.98 18.99-19.346 28.16-24.378 30.352-76.063 64.37-89.93 100.225-4.542 11.744.232 28.63 3.883 39.383 2.147 6.325 4.184 11.422 7.377 16.67 5.766 9.474 5.317 10.493 12.384 11.764 14.898 2.679 28.253.037 40.534-4.886 4.972-1.993 11.1-5.384 15.28-8.105 45.153-29.395 70.079-93.687 64.946-147.88-2.005-21.177-9.593-35.49-17.243-54.102-1.994-4.85-4.37-14.194-6.703-17.225zM459.45 614.384c-9.533-1.32-15.71-7.593-16.624-17.325-.97-10.339 4.198-20.8 10.565-23.933-.616-1.465-1.52-4.245-2.57-6.463-1.227-2.593-1.975-2.502-5.26-3.692-39.42-14.283-79.798 20.243-81.81 42.79 2.962-1.119 6.86-4.356 9.798-6.091 7.209-4.26 27.205-12.253 33.042-13.006-3.571 10.2-33.004 31.252-25.778 66.53.833 4.067 1.954 8.536 3.787 12.149a191.56 191.56 0 0 0 2.579 4.875c1.678 3.09 1.744 3.286 3.965 4.565 2.768-2.101 4.601-6.99 5.697-11.106.647-2.434.946-4.644 1.378-6.937.193-1.022.396-2.417.694-3.734l1.26-3.731c2.186 1.958 5.268 12.955 11.907 23.119 2.893 4.43 12.356 14.094 19.272 15.69-1.162-3.687-7.1-7.644-12.009-21.426-1.89-5.306-6.574-22.16-4.277-28.478 2.57 2.862 20.995 6.722 31.487 2.189 12.457-5.383 13.067-17.081 15.218-24.542z"/>
    <path fill="#fff" fill-opacity=".2" fill-rule="evenodd" d="M457.311 501.358c6.312-13.819 27.787-34.229 39.022-45.216 12.593-12.315 32.651-28.594 43.218-41.81 8.277-10.353 10.772-12.822 18.016-24.132 5.337-8.333 10.04-20.29 12.287-30.509 6.271-28.53-4.323-47.43-8.578-72.994l-1.319 3.491c-.326 1.535-.428 3.173-.676 4.694-3.026 18.615-7.653 39.024-13.926 56.126-9.44 25.734-20.43 41.52-38.733 60.52-15.334 15.92-34.683 36.741-42.503 57.499-2.057 5.458-8.799 27.333-6.808 32.33zM486.443 591.106c1.134 2.367 2.852 3.116 5.23 4.693 18.15 12.038 33.908 9.689 53.346.785 36.14-16.553 55.031-55.843 64.216-92.207 4.772-18.893 5.685-51.836 1.174-71.156-.987 23.396-2.468 40.397-9.464 60.516-5.703 16.398-14.142 34.792-23.736 47.031-23.673 30.203-47.232 51.516-90.766 50.338zM467.737 614.425c-2.126 7.724-1.74 19.586-12.717 27.66-11.868 8.729-18.722 6.045-34.105 4.88.826 17.73 11.208 37.716 25.87 44.107 11.325 4.935 38.273-1.984 45.133-21.872-7.95 1.423-11.594 4.34-21.788 3.872-5.07-.232-13.965-2.074-18.258-5.045-.96-.663-.753-.544-1.176-1.034 11.984-8.137 13.475-5.975 26.327-22.488 3.495-4.49 6.402-10.698 7.379-17.476.579-4.019 2.334-21.012-4.956-18.73-2.197 1.152-3.051 2.423-5.49 3.806-2.399 1.359-3.68 1.427-6.219 2.32z"/>
    <path fill="#fff" fill-opacity=".2" fill-rule="evenodd" d="M539.618 606.594c17.71.846 37.383-9.466 48.227-17.52 25.417-18.877 39.345-57.86 41.364-90.904 1.034-16.914-.226-29.178-4.122-44.699-1.359-5.412-3.276-8.22-4.846-12.565l-1.1 3.352c-.032.439.2 3.15.262 3.74 3.423 32.759-2.571 68.068-16.819 97.048-6.25 12.716-16.89 28.89-25.666 36.843-27.5 24.916-31.332 20.03-37.3 24.705z"/>
    <path fill="#ff7f2a" fill-rule="evenodd" d="M459.45 614.384l8.287.04c2.538-.892 3.82-.96 6.219-2.32 2.439-1.382 3.293-2.653 5.49-3.805-.025-3.436-2.612-3.653-7.62-8.43-6.971-6.651-14.434-17.68-18.435-26.743-6.367 3.133-11.534 13.594-10.565 23.933.913 9.732 7.091 16.005 16.624 17.325z"/>
    <path fill="#ff2a2a" fill-rule="evenodd" d="M479.269 58.766c-1.049 2.72-2.116 7.473-4.004 9.893-.168 3.965-3.307 13.793-4.276 19.034-1.122 6.067-2.617 14.19-2.218 20.512.726 11.622-1.45 19.633 4.164 29.614.684-7.235.495-14.852 1.22-22.213.643-6.531 2.148-13.818 3.578-20.363 2.582-11.825 7.755-26.21 12.427-35.737 11.608-23.671 25.657-4.493 39.07 10.402 4.027 4.471 6.446 8.137 10.181 13.861 26.776 41.034 30.804 87.09 15.688 133.931-1.783 5.525-5.11 13.086-6.256 18.592l2.943-1.716c.569-3.13 4.447-8.05 6.16-11.802 1.197-2.626 4.06-11.325 5.523-13.196 1.892-10.137 4.75-14.641 6.985-30.8 4.913-35.505 1.219-60.953-16.188-92.516-8.554-15.51-40.443-61.301-59.36-49.156-7.643 4.906-11.572 13.252-15.637 21.66z"/>
    <path fill="#ff2a2a" fill-rule="evenodd" d="M246.477 275.82l9.459-5.891c7.592-5.086 15.249-10.72 21.388-17.767.106-.12.245-.298.349-.42 2.586-3.016 5.269-3.23 4.069.145-3.288 9.25-5.998 6.028-6.925 12.141 8.409.502 28.392-14.957 36.43-20.07 11.007-8.345 21.677-23.71 29.225-35.285l2.934-6.15c.958-2.218 1.275-4.446 2.381-6.78.143.168.321.222.38.54 3.84 6.411 6.316 12.92 7.356 19.53l2.979.689c.778-1.851 1.469-3.594 2.047-5.626 1.07-3.76 3.394-10.154 5.286-13.595 3.812-6.934 6.33-12.06 11.203-18.89l5.06-6.237c1.19-1.644.441-.454 1.396-1.582l16.551-16.628c3.406-2.602 5.68-4.834 9.029-6.779 9.75-7.776 20.235-12.605 30.79-17.162 7.554-2.444 24.072-7.034 31.11-7.4l-.105-12.434c1.505-9.096 4.016-18.316 5.513-27.308.803-4.824-.5-9.797 1.663-14.169 1.655-3.344 2.613-6.656 3.224-9.926-4.342-1.883-14.597-13.468-41.075-22.626l-11.86-4.13c-3.682-1.063-7.722-2.456-12.14-3.575-46.797-11.848-94.503-11.626-140.451 5.064-7.668 2.785-14.65 6.496-21.59 9.849-28.299 13.673-71.904 51.158-74.569 85.687-.837 10.854 3.251 19.83 14.62 15.462 9.216-3.542 15.944-11.886 19.87-12.699-.235.658-17.845 34.998-21.344 43.615-11.44 28.172-28.03 58.865-55.967 73.408-25.295 13.17-49.122.3-52.338.217.468.297 4.964 5.403 5.997 6.596 2.595 3 4.193 4.394 6.747 6.795 15.023 14.123 32.24 23.594 51.72 29.565 23.73 7.273 58.783 3.014 81.034-7.07 6.53-2.96 12.894-4.437 18.554-9.104z"/>
    <path fill="#ff2a2a" fill-rule="evenodd" d="M237.918 282.345c-.137 18.247 24.597 66.209 11.936 86.105-10.304 16.193-29.295 9.071-26.788 25.097 1.897 12.119 14.4 25.434 21.76 31.5 31.302 25.806 86.391 30.427 129.034 27.002 17.729-1.424 29.768-5.083 45.366-8.459.036 6.416-3.404 18.255-4.65 24.875-4.03 21.426-5.36 33.356-4.595 55.59.325 9.44 2.362 18.681 2.834 27.388l1.655 2.043 8.865-.771c-1.327-12.026-3.948-23.14-4.21-36.953-.386-20.277 4.312-53.751 9.316-73.294.986-3.852 2.005-3.266 5.659-4.889 4.454-1.978 15.979-8.605 17.934-12.08-4.166.732-12.493 4.269-17.387 5.846-46.497 14.983-98.388 15.359-144.675 4.295l-13.525-4.654c-4.126-1.769-7.142-3.105-10.817-4.956-6.498-3.272-13.262-7.334-18.996-12.596-4.537-4.163-11.113-10.613-13.001-18.068 2.744-4.148 7.907-6.172 12.229-9.08 34.29-23.076 8.96-64.173 3.23-103.201-1.155-7.861.007-7.398-2.615-7.265-3.145 2.593-8.095 2.693-8.559 6.525z"/>
    <path fill="#fff" fill-opacity=".2" fill-rule="evenodd" d="M187.307 133.465c9.032 1.233 25.322-14.865 32.536-21.489 6.525-5.99 25.248-17.898 34.91-19.025l-18.9 18.492c-20.807 23.31-25.827 45.502-39.978 75.111-8.478 17.74-16.162 33.247-28.203 48.513-8.03 10.182-18.58 21.244-30.978 26.2-5.213 2.084-6.522 2.205-11.222 3.016-4.164.72-3.561 1.187-4.152 1.665.133.166.354.185.433.47.076.281.328.358.436.453l3.758 2.494c4.053 2.283 11.551 6.684 15.431 7.08 6.346.648 18.878-3.395 23.991-6.05 12.556-6.521 22.154-15.845 31.548-28.656 4.261-5.812 8.285-12.062 11.768-18.35 14.486-26.148 26.792-54.603 39.397-81.7 21.666-46.575 47.728-92.445 98.441-112.431-33.517-2.767-85.727 15.52-111.694 35.953-8.688 6.837-19.269 15.778-25.799 23.885-7.055 8.757-24.135 29.612-21.723 44.369z"/>
    <path fill="#fff" fill-opacity=".2" fill-rule="evenodd" d="M160.394 280.244c8.475 4.784 39.357-.903 50.97-5.19 10.37-3.827 13.058-4.115 19.035-11.098 14.27-16.671 23.078-38.66 28.87-60.648 12.727-48.323 20.705-87.074 55.504-124.28 10.24-10.949 20.298-19.951 32.33-27.891 24.307-16.04 34.561-14.692 42.103-18.442-2.973-1.763-8.658-2.136-12.336-2.374-4.665-.302-9.29.645-13.706 1.579-53.856 11.386-82.018 58.763-105.183 105.372-20.539 41.325-42.705 105.653-78.285 132.396-6.892 5.18-11.819 6.968-19.302 10.576z"/>
    <path fill="#fff" fill-opacity=".2" fill-rule="evenodd" d="M468.87 110.17c-.405-8.108.652-14.544 2.12-22.477.968-5.24 4.107-15.07 4.275-19.034-1.743-6.866-31.623-20.683-36.85-23.001-16.984-7.532-30.297-10.144-50.792-5.043-31.54 7.85-55.039 28.252-72.336 48.64-44.536 52.495-38.312 99.513-61.406 150.12-1.874 4.108-8.15 16.985-10.769 19.646 9.844-2.082 37.454-28.642 44.758-38.444 24.06-32.287 17.55-50.414 22.586-61 1.092 14.501 1.509 24.797.114 39.424-.965 10.124-6.583 32.648-6.55 33.65 10.63-10.104 9.878-8.433 19.688-22.152 17.486-24.454 24.517-71.235 37.34-90.606.897 1.782-1.335 7.43-2.396 12.611-1.745 8.511-6.429 38.729-1.367 46.351 1.42-1.552 9.254-15.017 18.996-25.574 23.215-25.16 58.192-36.837 92.588-43.112z"/>
    <path fill-opacity=".2" fill-rule="evenodd" d="M479.269 58.766c-1.049 2.72-2.116 7.473-4.004 9.893-.168 3.965-3.307 13.793-4.276 19.034-1.122 6.067-2.617 14.19-2.218 20.512.726 11.622-1.45 19.633 4.164 29.614.684-7.235.495-14.852 1.22-22.213.643-6.531 2.148-13.818 3.578-20.363 2.582-11.825 7.755-26.21 12.427-35.737 11.608-23.671 25.657-4.493 39.07 10.402 4.027 4.471 6.446 8.137 10.181 13.861 26.776 41.034 30.804 87.09 15.688 133.931-1.783 5.525-5.11 13.086-6.256 18.592l2.943-1.716c.569-3.13 4.447-8.05 6.16-11.802 1.197-2.626 4.06-11.325 5.523-13.196 1.892-10.137 4.75-14.641 6.985-30.8 4.913-35.505 1.219-60.953-16.188-92.516-8.554-15.51-40.443-61.301-59.36-49.156-7.643 4.906-11.572 13.252-15.637 21.66zM237.918 282.345c-.137 18.247 24.597 66.209 11.936 86.105-10.304 16.193-29.295 9.071-26.788 25.097 1.897 12.119 14.4 25.434 21.76 31.5 31.302 25.806 86.391 30.427 129.034 27.002 17.729-1.424 29.768-5.083 45.366-8.459.036 6.416-3.404 18.255-4.65 24.875-4.03 21.426-5.36 33.356-4.595 55.59.325 9.44 2.362 18.681 2.834 27.388l1.655 2.043 8.865-.771c-1.327-12.026-3.948-23.14-4.21-36.953-.386-20.277 4.312-53.751 9.316-73.294.986-3.852 2.005-3.266 5.659-4.889 4.454-1.978 15.979-8.605 17.934-12.08-4.166.732-12.493 4.269-17.387 5.846-46.497 14.983-98.388 15.359-144.675 4.295l-13.525-4.654c-4.126-1.769-7.142-3.105-10.817-4.956-6.498-3.272-13.262-7.334-18.996-12.596-4.537-4.163-11.113-10.613-13.001-18.068 2.744-4.148 7.907-6.172 12.229-9.08 34.29-23.076 8.96-64.173 3.23-103.201-1.155-7.861.007-7.398-2.615-7.265-3.145 2.593-8.095 2.693-8.559 6.525z"/>
</svg>
