<svg xmlns="http://www.w3.org/2000/svg" viewBox="0 0 725.669 725.669">
    <path fill="#ff2a2a" fill-rule="evenodd" d="M771.808 653.906v18.372c-22.124 8.194-38.214 18.79-63.576 24.467-11.98 2.682-21.08 2.465-35.287 2.465 2.576 5.39 7.536 27.645 9.182 34.688-4.935-1.153-8.084-2.847-11.489-5.845-4.715-4.153-4.391-5.317-6.279-12.084-10.007-35.875-14.705-46.863-20.686-88.48-2.709-18.849-6.495-45.8-7.45-64.988l-2.044-33.665c-.317-5.879.432-12.506-.048-18.317-2.873-34.719-2.546-85.052 2.486-120.06.386-4.15-.46-3.237 1.002-6.118 3.075-6.062 7.407-10.991 10.128-17.43 16.432-38.893 26.228-75.185 26.227-119.671 0-44.028-7.104-82.111-25.153-119.727-10.11-21.07-27.704-48.026-44.494-64.676-3.33-3.303-5.125-6.721-8.747-9.617-16.154-12.912-17.427-6.522-29.152 10.98-7.49 11.181-13.145 23.02-18.249 35.825-1.939 4.865-3.263 8.386-4.937 13.428-6.146 18.507-10.94 38.556-13.848 58.592-4.113 28.35-3.886 58.255-1.233 86.325.462 4.889 1.947 11.32 1.947 16.412-2.91-3.37-4.333-5.654-6.14-10.172-1.62-4.044-3.165-8.334-4.163-13.181-2.998-14.58-3.937-31.518-3.972-47.042-.027-11.999 1.346-21.584 2.077-32.611.331-4.991 1.617-10.668 2.005-15.344-56.427-27.045-121.72-36.434-184.25-24.063-13.752 2.72-24.334 6.315-36.508 10.424-11.5 3.88-21.935 9.025-32.618 14.315-26.636 13.19-50.86 32.866-71.351 54.142l-14.005 17.623c-8.55 12.11-16.524 26.596-21.31 40.929-2.78 8.33-4.895 15.97-7.055 24.573-2.228 8.875-3.738 16.957-5.31 26.318l-3.343 28.286c-1.156 8.862-2.54 34.483-1.165 43.57.82 5.413.04 10.456.484 15.838 1.585 19.257 4.348 37.486 7.673 55.584 6.812 37.07 9.776 38.743-28.869 55.954-6.352 2.83-15.648 6.608-17.995 13.637-7.905 23.664 33.076 70.797 45.263 78.935 13.52-1.124 25.53-7.339 31.945-16.013 6.062-8.196 11.896-22.328 12.951-35 1.732 2.748 1.883 5.48 2.047 9.163.75 16.924-2.428 32.587-15.602 43.598-3.304 2.76-10.554 7.405-15.02 8.445 3.345 5.026 19.407 12.331 25.492 15.328 19.16 9.437 41.724 16.636 63.406 20.258 51.238 8.558 102.79 2.429 151.634-7.264 10.755-2.133 23.053-7 33.917-7.907-2.904 3.94-23.39 13.852-29.588 15.294 0 3.64-.72 8.693-1.193 13.094l-1.902 41.02 3 39.85a274.752 274.752 0 0 0 1.87 15.122h-19.101c-4.19-27.55-5.696-55.575-3.223-77.602.475-4.235-.012-8.86.116-13.148.154-5.205 1.053-5.6 1.053-11.19-4.987.112-40.031 11.222-93.864 11.224-44.332 0-71.038-5.095-109.905-21.708-41.521-17.748-74.732-48.639-92.844-90.803-5.712-13.294-12.98-28.3-3.971-40.137 7.48-9.83 19.523-9.538 33.288-18.743 20.878-13.961 21.028-13.04 16.52-30.828-4.953-19.538-7.15-35.125-9.963-55.334-.583-4.189-1.24-8.173-1.438-11.825-1.865-34.42-2.796-33.992-.065-74.485 1.555-23.057 6.716-43.942 13.924-64.636 1.262-3.621 2.292-6.079 3.803-9.46 1.356-3.034 2.354-5.898 3.73-8.51 1.94-3.672 3.204-7.642 5.102-11.223 1.218-2.53 1.279-3.65 2.853-6.332l20.181-29.812c1.765-2.256 1.722-2.412 3.732-4.43l34.452-31.867c2.926-1.964 9.383-5.656 11.22-8.16 3.278-.873 4.906-2.618 7.742-4.504l15.06-8.405c3.253-1.638 4.12-2.605 7.12-4.105 3.142-1.571 5.273-2.09 8.516-3.726 54.074-27.273 128.523-32.936 186.278-21.345 17.178 3.447 53.807 14.057 70.142 22.7 1.519-18.244 17.862-64.562 27.963-81.204 11.065-18.233 22.258-37.79 44.451-24.877 7.704 4.482 8.568 6.649 13.139 10.327 1.739 1.4 2.129 1.437 3.997 3.144l14.217 16.391c18.618 22.107 34.616 49.368 45.322 79.15 19.34 53.803 24.895 129.381 4.08 186.968-2.984 8.255-5.708 14.05-9.311 21.297-10.943 22.005-16.369 19.31-16.383 30.549-.026 20.183-1.418 39.2-2.016 59.2l.01 77.596c-.028 6.768 1.078 8.8 1.078 15.246.002 14.488 2.252 29.466 2.997 42.915 1.02 18.415 4.215 38.477 7.03 55.206 1.547 9.194 2.655 17.136 4.474 26.133l4.85 25.758c21.152 0 29.81-.738 46.131-4.882 14.177-3.6 38.535-15.486 56.808-24.102z"/>
    <path fill="#fff" d="M224.465 283.657h265.208v294.419H224.465z"/>
    <path fill="#ff7f2a" fill-rule="evenodd" d="M232.07 420.249l38.618-46.196c45.249-26.565 106.453 9.527 112.199 55.784 1.19 39.768-30.438 78.402-61.403 107.32-16.022 9.668-67.924-5.178-86.816-6.626-8.534 11.423 68.952 57.092 117.772 29.44 51.77-22.95 94.476-65.687 84.176-125.29-4.43-25.635-13.317-68.593-58.68-105.683-36.74-30.04-104.56 17.894-145.867 91.25z"/>
    <path fill="#ff2a2a" fill-rule="evenodd" d="M416.026 328.857c33.07 40.902 30.861 159.726-34.327 215.234-12.672 8.432-16.289 9.737-30.473 16.024-13.055 5.787-24.384 8.267-40.48 7.494-24.36-1.17-51.93-.365-75.017-6.224l-.74-21.518-1.714-49.817c-9.017-38.276 4.049-72.152 20.543-105.542 17.953-36.341 120.103-66.42 162.208-55.651zm355.782 343.42v95.208H412.513a274.752 274.752 0 0 1-1.87-15.122l-3-39.85 1.902-41.02c.472-4.4 1.193-9.453 1.193-13.094 6.197-1.442 26.684-11.353 29.588-15.294-10.864.906-23.162 5.773-33.917 7.907-48.843 9.693-100.396 15.822-151.634 7.264-21.683-3.622-44.246-10.82-63.406-20.258-6.085-2.997-22.147-10.302-25.493-15.328 4.467-1.04 11.717-5.684 15.02-8.446 13.175-11.01 16.353-26.673 15.603-43.597-.163-3.682-.315-6.416-2.046-9.163-1.056 12.672-6.89 26.804-12.952 35-6.415 8.674-18.426 14.889-31.945 16.013-12.187-8.138-53.168-55.272-45.263-78.935 2.348-7.03 11.643-10.807 17.995-13.637 38.645-17.212 35.68-18.884 28.87-55.954-3.326-18.098-6.088-36.327-7.674-55.584-.443-5.383.335-10.425-.484-15.839-1.375-9.086.009-34.707 1.165-43.57l3.343-28.285c1.573-9.36 3.082-17.443 5.31-26.318 2.16-8.604 4.274-16.244 7.055-24.573 4.786-14.334 12.76-28.819 21.31-40.928l14.005-17.624c20.49-21.276 44.715-40.952 71.352-54.142 10.682-5.29 21.118-10.435 32.617-14.315 12.173-4.109 22.756-7.703 36.509-10.424 62.529-12.371 127.822-2.982 184.25 24.063-.389 4.676-1.675 10.353-2.006 15.344-.731 11.027-2.104 20.612-2.077 32.611.035 15.524.974 32.462 3.972 47.041.998 4.848 2.544 9.138 4.162 13.182 1.808 4.518 3.231 6.802 6.141 10.172 0-5.093-1.485-11.523-1.947-16.412-2.653-28.07-2.88-57.974 1.234-86.325 2.906-20.036 7.7-40.086 13.847-58.592 1.674-5.043 2.999-8.563 4.937-13.428 5.104-12.804 10.758-24.643 18.249-35.826 11.724-17.5 12.998-23.89 29.151-10.98 3.623 2.896 5.417 6.315 8.748 9.619 16.79 16.65 34.385 43.605 44.494 64.675 18.049 37.616 25.153 75.699 25.153 119.726 0 44.487-9.795 80.779-26.227 119.672-2.721 6.439-7.053 11.368-10.128 17.43-1.462 2.881-.616 1.968-1.002 6.117l-3.448 39.402c1.46 26.465-1.202 54.51.962 80.66.48 5.81-.27 12.437.048 18.316l2.044 33.665c.955 19.188 4.741 46.14 7.45 64.988 5.982 41.617 10.68 52.605 20.686 88.48 1.888 6.767 1.564 7.931 6.279 12.083 3.405 2.999 6.554 4.693 11.49 5.846-1.647-7.043-6.607-29.299-9.183-34.688 14.207 0 23.307.217 35.288-2.465 25.361-5.677 41.45-16.274 63.575-24.467z"/>
    <path fill-opacity=".2" fill-rule="evenodd" d="M588.273 286.005c6.486-1.517 11.635-8.653 15.605-11.934 28.228-23.328 34.858-78.455 29.338-117.695-.569-4.047-1.2-8.136-1.828-11.435l-3.325-10.946c0 33.415-1.349 61.593-7.954 87.948-3.203 12.778-7.38 24.458-12.777 35.176-7.082 14.064-16.248 23.597-19.06 28.886zM137.318 550.261c.332.629.56 2.774 2.966 5.187.64.642 2.882 2.406 3.907 3.234 2.387 1.93 6.663 4.833 10.467 4.833 12.02 0 10.198-16.138 10.198-24.477-1.965 2.274-1.202 1.597-2.472 4.658-7.536 18.153-17.18 8.409-25.066 6.565z"/>
    <path fill-opacity=".2" fill-rule="evenodd" d="M771.808 653.906v18.372c-22.124 8.194-38.214 18.79-63.576 24.467-11.98 2.682-21.08 2.465-35.287 2.465 2.576 5.39 7.536 27.645 9.182 34.688-4.935-1.153-8.084-2.847-11.489-5.845-4.715-4.153-4.391-5.317-6.279-12.084-10.007-35.875-14.705-46.863-20.686-88.48-2.709-18.849-6.495-45.8-7.45-64.988l-2.044-33.665c-.317-5.879.432-12.506-.048-18.317-2.873-34.719-2.546-85.052 2.486-120.06.386-4.15-.46-3.237 1.002-6.118 3.075-6.062 7.407-10.991 10.128-17.43 16.432-38.893 26.228-75.185 26.227-119.671 0-44.028-7.104-82.111-25.153-119.727-10.11-21.07-27.704-48.026-44.494-64.676-3.33-3.303-5.125-6.721-8.747-9.617-16.154-12.912-17.427-6.522-29.152 10.98-7.49 11.181-13.145 23.02-18.249 35.825-1.939 4.865-3.263 8.386-4.937 13.428-6.146 18.507-10.94 38.556-13.848 58.592-4.113 28.35-3.886 58.255-1.233 86.325.462 4.889 1.947 11.32 1.947 16.412-2.91-3.37-4.333-5.654-6.14-10.172-1.62-4.044-3.165-8.334-4.163-13.181-2.998-14.58-3.937-31.518-3.972-47.042-.027-11.999 1.346-21.584 2.077-32.611.331-4.991 1.617-10.668 2.005-15.344-56.427-27.045-121.72-36.434-184.25-24.063-13.752 2.72-24.334 6.315-36.508 10.424-11.5 3.88-21.935 9.025-32.618 14.315-26.636 13.19-50.86 32.866-71.351 54.142l-14.005 17.623c-8.55 12.11-16.524 26.596-21.31 40.929-2.78 8.33-4.895 15.97-7.055 24.573-2.228 8.875-3.738 16.957-5.31 26.318l-3.343 28.286c-1.156 8.862-2.54 34.483-1.165 43.57.82 5.413.04 10.456.484 15.838 1.585 19.257 4.348 37.486 7.673 55.584 6.812 37.07 9.776 38.743-28.869 55.954-6.352 2.83-15.648 6.608-17.995 13.637-7.905 23.664 33.076 70.797 45.263 78.935 13.52-1.124 25.53-7.339 31.945-16.013 6.062-8.196 11.896-22.328 12.951-35 1.732 2.748 1.883 5.48 2.047 9.163.75 16.924-2.428 32.587-15.602 43.598-3.304 2.76-10.554 7.405-15.02 8.445 3.345 5.026 19.407 12.331 25.492 15.328 19.16 9.437 41.724 16.636 63.406 20.258 51.238 8.558 102.79 2.429 151.634-7.264 10.755-2.133 23.053-7 33.917-7.907-2.904 3.94-23.39 13.852-29.588 15.294 0 3.64-.72 8.693-1.193 13.094l-1.902 41.02 3 39.85a274.752 274.752 0 0 0 1.87 15.122h-19.101c-4.19-27.55-5.696-55.575-3.223-77.602.475-4.235-.012-8.86.116-13.148.154-5.205 1.053-5.6 1.053-11.19-4.987.112-40.031 11.222-93.864 11.224-44.332 0-71.038-5.095-109.905-21.708-41.521-17.748-74.732-48.639-92.844-90.803-5.712-13.294-12.98-28.3-3.971-40.137 7.48-9.83 19.523-9.538 33.288-18.743 20.878-13.961 21.028-13.04 16.52-30.828-4.953-19.538-7.15-35.125-9.963-55.334-.583-4.189-1.24-8.173-1.438-11.825-1.865-34.42-2.796-33.992-.065-74.485 1.555-23.057 6.716-43.942 13.924-64.636 1.262-3.621 2.292-6.079 3.803-9.46 1.356-3.034 2.354-5.898 3.73-8.51 1.94-3.672 3.204-7.642 5.102-11.223 1.218-2.53 1.279-3.65 2.853-6.332l20.181-29.812c1.765-2.256 1.722-2.412 3.732-4.43l34.452-31.867c2.926-1.964 9.383-5.656 11.22-8.16 3.278-.873 4.906-2.618 7.742-4.504l15.06-8.405c3.253-1.638 4.12-2.605 7.12-4.105 3.142-1.571 5.273-2.09 8.516-3.726 54.074-27.273 128.523-32.936 186.278-21.345 17.178 3.447 53.807 14.057 70.142 22.7 1.519-18.244 17.862-64.562 27.963-81.204 11.065-18.233 22.258-37.79 44.451-24.877 7.704 4.482 8.568 6.649 13.139 10.327 1.739 1.4 2.129 1.437 3.997 3.144l14.217 16.391c18.618 22.107 34.616 49.368 45.322 79.15 19.34 53.803 24.895 129.381 4.08 186.968-2.984 8.255-5.708 14.05-9.311 21.297-10.943 22.005-16.369 19.31-16.383 30.549-.026 20.183-1.418 39.2-2.016 59.2l.01 77.596c-.028 6.768 1.078 8.8 1.078 15.246.002 14.488 2.252 29.466 2.997 42.915 1.02 18.415 4.215 38.477 7.03 55.206 1.547 9.194 2.655 17.136 4.474 26.133l4.85 25.758c21.152 0 29.81-.738 46.131-4.882 14.177-3.6 38.535-15.486 56.808-24.102z"/>
    <path fill="#fff" fill-rule="evenodd" d="M284.193 464.37c9.113 0 17.767 7.388 19.33 16.5 1.561 9.113-4.56 16.5-13.672 16.5-9.112 0-17.766-7.387-19.329-16.5-1.562-9.112 4.558-16.5 13.671-16.5zM323.614 378.45l38.524 86.198c11.402-31.625-8.659-75.777-38.524-86.199z"/>
    <path fill-opacity=".2" fill-rule="evenodd" d="M405.31 311.772c-113.574 5.671-176.944 74.3-176.37 223.117-35.481-142.105 2.883-263.337 176.37-223.117z"/>
    <path fill-rule="evenodd" d="M299.64 492.718c-10.443 6.843-29.03-4.036-27.137-16.42 3.955-25.855 48.833 2.199 27.136 16.42zm-5.56-124.328c25.514-11.13 49.731 18.242 57.755 30.787 12.271 19.185 16.964 54.537-7.542 63.459-44.146 16.072-98.784-73.057-50.213-94.246zm88.605-64.75c-9.356 12.037-10.089 11.414-27.92 13.126.34-15.944 4.09-36.721-8.056-48.65l-1.92 32.547-5.665 18.086-27.693 7.074-.197-21.372c-1.714-10.382-5.932-18.31-9.617-26.211-5.32 13.596 5.575 24.27-2.507 43.179-6.453 32.428-82.895 39.055-73.887 192.246 1.29 5.875 2.428 15.35 3.717 21.224l6.792 26.678-.425-23.085c-.427-5.949-.846-8.05-.576-8.014l1.66.228c.442.06-.554-.076 1.323.453 47.092 25.57 101.498 13.465 132.582-29.145 3.884-7.012 6.825-9.385 10.546-19.001 12.705-31.752 9.734-61.695-8.543-85.45-16.35-21.251-31.31-31.977-72.463-34.201 34.098-41.246 172.055-18.915 198.363-76.435-24.174 10.054-29.899 17.436-62.887 20.823 4.765-9.193 19.846-26.658 13.033-41.345-8.65 13.819-9.963 18.868-20.227 29.324-12.898 13.14-10.774 16.274-35.673 16.894 11.072-18.088 18.859-26.365 12.802-53.002-9.794 18.853-8.037 27.852-22.562 44.03zM416.698 498.536l68.799 8.998c-14.804-9.943-22.174-15.044-45.908-17.563l-19.273.337zM436.597 420.607c14.47-7.428 12.632-11.989 39.393-21.91l15.564-8.445c-20.31-.91-57.317 3.867-54.957 30.355z"/>
    <path fill-rule="evenodd" d="M436.457 383.044c8.376-10.765 9.908-15.393 20.409-22.935l25.099-19.429c-21.266 2.548-55.646 16.533-45.508 42.364zM434.245 441.872l-1.423 9.502c9.94-.89 21.097-4.267 32.15-5.446 11.453-1.221 20.272-1.336 31.804-3.078-25.787-10.095-35.831-4.439-62.53-.978z"/>
</svg>
