<svg xmlns="http://www.w3.org/2000/svg" viewBox="0 0 725.669 725.669">
    <path fill="#ff2a2a" fill-rule="evenodd" d="M73.84 161.654l50.813 35.159c9.97-14.409 66.767-36.954 87.048-40.248 92.57-15.032 122.74 70.917 120.762 142.683-.439 15.922-6.654 43.745-15.978 49.732-11.383 7.31-39.901 7.947-59.747 7.947 1.892 22.733 39.895 65.086 29.823 189.127-.89 10.968-3.94 16.884-3.94 27.92 8.636-.718 30.66-10.595 38.116-13.651 10.987-4.505 25.614-13.902 35.55-16.218-.582 7.007-2.404 9.628-4.035 15.877-1.215 4.65-2.888 14.292-3.432 18.472-1.767 13.58-.647 31.017 1.141 41.673 9.489 56.537 61.613 28.357 139.361 75.675 11.28 6.864 16.201 8.83 26.244 17.56 16.262-10.89 24.633-37.28 29.865-59.737 5.74 3.843 6.93 7.883 12.4 13.483 5.296 5.42 7.467 7.75 13.835 12.05 10.243 6.917 21.526 16.087 37.864 10.726 10.352-3.397 22.784-14.839 28.199-23.599 7.077-11.45 11.233-22.883 11.233-40.538-25.08-13.273-17.27-25.23-16.034-39.929.498-5.915.17-13.764.181-19.882.092-53.348-59.222-52.68-76.303-24.392-3.286 5.443-4.11 7.826-3.679 16.544.935 18.959 26.554 15.293 34.114 47.746-17.566 0-40.135-12.62-44.622-27.056-7.668-24.671-3.313-31.29-21.744-69.85-23.31-48.77-7.493-21.04-43.174-46.428-7.306-5.198-12.894-12.498-17.883-19.949 54.521-103.052 44.154-209.678-8.617-307.99-29.01-54.05-79.18-103.879-141.822-117.022C208.856-3.552 110.483 71.469 73.84 161.654z"/>
    <path fill="#ff2a2a" fill-rule="evenodd" d="M272.61 368.675l18.872 57.518c43.165-5.352 83.538-32.027 107.98-53.935 37.958-34.024 82.085-111.82 63.85-168.217-12.828-39.674-30.26-76.043-55.365-107.888-15.674-19.883-22.32-24.441-40.863-39.236 19.692 30.339 29.954 40.657 40.643 83.443 12.694 50.815 8.926 111.889-16.52 157.858-24.593 44.43-62.518 67.386-118.596 70.457z"/>
    <path fill="#ff2a2a" fill-rule="evenodd" d="M292.261 430.604c2.345 26.636 7.172 47.702 7.77 76.718 24.164-4.987 59.36-28.502 72.398-40.654 54.766-51.044 113.897-147.952 99.667-228.093-.318.499-.692.693-.812 1.577-.119.876-.609 1.177-.762 1.582-5.393 14.263-3.343 30.524-20.556 67.579-46.684 100.506-140.108 111.193-157.705 121.29z"/>
    <path fill="#5e50a1" fill-rule="evenodd" d="M83.338 168.225l9.498 6.573z"/>
    <path fill="#ff2a2a" fill-rule="evenodd" d="M83.338 168.225l9.498 6.573c25.245-38.714 51.866-63.582 94.247-88.547 82.405-47.872 154.042-17.184 180.048 79.089 14.562 53.908 3.511 121.16-18.26 165.134 69.336-28.137 88.952-299.387-68.229-304.374-80.628-2.559-159.13 52.664-189.522 123.373zM300.233 512.245l-3.108 44.816c50-15.259 101.84-54.025 132.042-95.382 33.158-45.404 55.576-110.874 47.972-182.808-7.162 19.042-4.847 36.35-23.054 78.37C429.552 413.858 389.1 465.48 335.77 495.673c-10.906 6.174-26.053 9.232-35.538 16.572z"/>
    <path fill="#ff2a2a" fill-rule="evenodd" d="M99.833 179.64l14.147 9.788c13.026-14.926 56.559-35.32 81.528-41.239 18.369-4.354 35.998-5.61 55.106-2.542 117.813 24.847 82.61 193.732 82.613 193.72 9.784-27.684 14.8-53.383 16.258-76.845 1.556-25.054-.946-47.558-6.037-67.205-20.929-80.774-92.49-109.041-167.868-73.76-26.001 12.17-52.368 30.843-75.747 58.082z"/>
    <path fill="#ff2a2a" fill-rule="evenodd" d="M95.663 176.754l.33.228c148.999-155.758 303.74-51.785 244.812 157.921 35.507-61.737 38.565-137.878 14.442-192.43-31.988-72.338-99.14-111.668-206.274-26.798-12.317 9.758-45.965 44.645-53.31 61.079zM397.484 650.456c43.411 10.946 40.087 16.279 57.593-1.61 13.616-13.914 20.864-32.738 25.115-56.555 6.03-33.784 2.808-77.923-4.05-112.21-3.071-15.352-8.792-15.722-17.302-22.611-1.629 58.73 2.95 100.604-28.685 158.5-11.184 20.466-14.533 20.945-27.628 30.226z"/>
    <path fill="#ff2a2a" fill-rule="evenodd" d="M489.683 681.606c41.472-46.674 11.043-162.6-10.81-206.308-.469 12.338 5.796 41.509 6.67 56.801 3.156 55.16-2.985 97.646-40.96 130.573z"/>
    <path fill="#ff2a2a" fill-rule="evenodd" d="M483.43 478.138c12.311 34.331 21.798 49.43 28.683 101.52 2.52 19.063 3.582 41.334-.174 60.4-4.184 21.234-10.495 28.435-18.66 43.435l2.288 1.92c.308.236.824.656 1.17.91l14.847 8.936c35.99-28.88 21.725-126.48 2.733-173.813-10.365-25.832-12.575-36.906-30.888-43.308zM544.915 601.248c1.795 33.129 63.49 56.21 79.855 25.969 3.866-7.144-3.518-27.213-7.77-33.718-15.237 37.005-45.453 23.497-72.085 7.75z"/>
    <path fill="#ff2a2a" fill-rule="evenodd" d="M629.25 627.114c-.365.388-.89.473-1.054 1.199-1.153 5.09-.536.59-2.034 2.37-1.524 1.813-2.364 2.999-3.733 4.46-21.914 23.389-58.443-.681-75.908-16.518-.635 16.41-1.362 19.826 8.732 27.232 31.388 23.03 69.927 11.306 73.996-18.743z"/>
    <path fill="#ff2a2a" fill-rule="evenodd" d="M558.102 652.056c7.64 9.497 29.807 33.303 52.127 22.535 9.527-4.596 15.347-10.198 21.04-18.75 2.7-4.055 5.713-8.75 6.992-13.248 2.828-9.944.525-9.43-3.9-14.125-4.099 3.87-5.772 12.97-11.404 19.083-22.128 24.019-51.423 9.273-64.855 4.505zM581.893 574.09c2.137 4.769 10.236 25.173 13.312 29.432 20.41-10.535 11.618-25.53 7.25-42.7-7.26 6.919-9.386 8.215-20.562 13.268z"/>
    <path fill="#fff" fill-opacity=".2" fill-rule="evenodd" d="M272.61 368.675l18.872 57.518c43.165-5.352 83.538-32.027 107.98-53.935 37.958-34.024 82.085-111.82 63.85-168.217-12.828-39.674-30.26-76.043-55.365-107.888-15.674-19.883-22.32-24.441-40.863-39.236 19.692 30.339 29.954 40.657 40.643 83.443 12.694 50.815 8.926 111.889-16.52 157.858-24.593 44.43-62.518 67.386-118.596 70.457z"/>
    <path fill="#fff" fill-opacity=".2" fill-rule="evenodd" d="M292.261 430.604c2.345 26.636 7.172 47.702 7.77 76.718 24.164-4.987 59.36-28.502 72.398-40.654 54.766-51.044 113.897-147.952 99.667-228.093-.318.499-.692.693-.812 1.577-.119.876-.609 1.177-.762 1.582-5.393 14.263-3.343 30.524-20.556 67.579-46.684 100.506-140.108 111.193-157.705 121.29zM83.338 168.225l9.498 6.573c25.245-38.714 51.866-63.582 94.247-88.547 82.405-47.872 154.042-17.184 180.048 79.089 14.562 53.908 3.511 121.16-18.26 165.134 69.336-28.137 88.952-299.387-68.229-304.374-80.628-2.559-159.13 52.664-189.522 123.373z"/>
    <path fill="#fff" fill-opacity=".2" fill-rule="evenodd" d="M300.233 512.245l-3.108 44.816c50-15.259 101.84-54.025 132.042-95.382 33.158-45.404 55.576-110.874 47.972-182.808-7.162 19.042-4.847 36.35-23.054 78.37C429.552 413.858 389.1 465.48 335.77 495.673c-10.906 6.174-26.053 9.232-35.538 16.572zM99.833 179.64l14.147 9.788c13.026-14.926 56.559-35.32 81.528-41.239 18.369-4.354 35.998-5.61 55.106-2.542 117.813 24.847 82.61 193.732 82.613 193.72 9.784-27.684 14.8-53.383 16.258-76.845 1.556-25.054-.946-47.558-6.037-67.205-20.929-80.774-92.49-109.041-167.868-73.76-26.001 12.17-52.368 30.843-75.747 58.082z"/>
    <path fill="#fff" fill-opacity=".2" fill-rule="evenodd" d="M95.663 176.754l.33.228c148.999-155.758 303.74-51.785 244.812 157.921 35.507-61.737 38.565-137.878 14.442-192.43-31.988-72.338-99.14-111.668-206.274-26.798-12.317 9.758-45.965 44.645-53.31 61.079zM397.484 650.456c43.411 10.946 40.087 16.279 57.593-1.61 13.616-13.914 20.864-32.738 25.115-56.555 6.03-33.784 2.808-77.923-4.05-112.21-3.071-15.352-8.792-15.722-17.302-22.611-1.629 58.73 2.95 100.604-28.685 158.5-11.184 20.466-14.533 20.945-27.628 30.226z"/>
    <path fill="#fff" fill-opacity=".2" fill-rule="evenodd" d="M489.683 681.606c41.472-46.674 11.043-162.6-10.81-206.308-.469 12.338 5.796 41.509 6.67 56.801 3.156 55.16-2.985 97.646-40.96 130.573z"/>
    <path fill="#fff" fill-opacity=".2" fill-rule="evenodd" d="M483.43 478.138c12.311 34.331 21.798 49.43 28.683 101.52 2.52 19.063 3.582 41.334-.174 60.4-4.184 21.234-10.495 28.435-18.66 43.435l2.288 1.92c.308.236.824.656 1.17.91l14.847 8.936c35.99-28.88 21.725-126.48 2.733-173.813-10.365-25.832-12.575-36.906-30.888-43.308zM544.915 601.248c1.795 33.129 63.49 56.21 79.855 25.969 3.866-7.144-3.518-27.213-7.77-33.718-15.237 37.005-45.453 23.497-72.085 7.75z"/>
    <path fill="#fff" fill-opacity=".2" fill-rule="evenodd" d="M629.25 627.114c-.365.388-.89.473-1.054 1.199-1.153 5.09-.536.59-2.034 2.37-1.524 1.813-2.364 2.999-3.733 4.46-21.914 23.389-58.443-.681-75.908-16.518-.635 16.41-1.362 19.826 8.732 27.232 31.388 23.03 69.927 11.306 73.996-18.743z"/>
    <path fill="#fff" fill-opacity=".2" fill-rule="evenodd" d="M558.102 652.056c7.64 9.497 29.807 33.303 52.127 22.535 9.527-4.596 15.347-10.198 21.04-18.75 2.7-4.055 5.713-8.75 6.992-13.248 2.828-9.944.525-9.43-3.9-14.125-4.099 3.87-5.772 12.97-11.404 19.083-22.128 24.019-51.423 9.273-64.855 4.505zM581.893 574.09c2.137 4.769 10.236 25.173 13.312 29.432 20.41-10.535 11.618-25.53 7.25-42.7-7.26 6.919-9.386 8.215-20.562 13.268z"/>
    <path fill-opacity=".2" fill-rule="evenodd" d="M336.663 256.531c2.771 26.051 1.44 55.245-3.36 82.621 19.7-5.748 34.681-19.873 44.766-38.964 11.944-22.61 18.741-51.47 21.515-79.92 2.708-27.78.77-55.274-3.278-76.098z"/>
    <path fill-opacity=".2" fill-rule="evenodd" d="M73.84 161.654l50.813 35.159c9.97-14.409 66.767-36.954 87.048-40.248 92.57-15.032 122.74 70.917 120.762 142.683-.439 15.922-6.654 43.745-15.978 49.732-11.383 7.31-39.901 7.947-59.747 7.947 1.892 22.733 39.895 65.086 29.823 189.127-.89 10.968-3.94 16.884-3.94 27.92 8.636-.718 30.66-10.595 38.116-13.651 10.987-4.505 25.614-13.902 35.55-16.218-.582 7.007-2.404 9.628-4.035 15.877-1.215 4.65-2.888 14.292-3.432 18.472-1.767 13.58-.647 31.017 1.141 41.673 9.489 56.537 61.613 28.357 139.361 75.675 11.28 6.864 16.201 8.83 26.244 17.56 16.262-10.89 24.633-37.28 29.865-59.737 5.74 3.843 6.93 7.883 12.4 13.483 5.296 5.42 7.467 7.75 13.835 12.05 10.243 6.917 21.526 16.087 37.864 10.726 10.352-3.397 22.784-14.839 28.199-23.599 7.077-11.45 11.233-22.883 11.233-40.538-25.08-13.273-17.27-25.23-16.034-39.929.498-5.915.17-13.764.181-19.882.092-53.348-59.222-52.68-76.303-24.392-3.286 5.443-4.11 7.826-3.679 16.544.935 18.959 26.554 15.293 34.114 47.746-17.566 0-40.135-12.62-44.622-27.056-7.668-24.671-3.313-31.29-21.744-69.85-23.31-48.77-7.493-21.04-43.174-46.428-7.306-5.198-12.894-12.498-17.883-19.949 54.521-103.052 44.154-209.678-8.617-307.99-29.01-54.05-79.18-103.879-141.822-117.022C208.856-3.552 110.483 71.469 73.84 161.654zm25.993 17.985l14.147 9.789c13.026-14.927 56.559-35.32 81.528-41.239 18.369-4.354 35.998-5.61 55.106-2.543 117.813 24.848 82.61 193.733 82.613 193.722 9.784-27.685 14.8-53.384 16.258-76.847 1.556-25.053-.946-47.557-6.037-67.204-20.929-80.774-92.49-109.041-167.868-73.76-26.001 12.17-52.368 30.843-75.747 58.082zm200.4 332.606l-3.108 44.816c50-15.259 101.84-54.025 132.042-95.382 33.158-45.404 55.576-110.874 47.972-182.808-7.162 19.042-4.847 36.35-23.054 78.37C429.552 413.858 389.1 465.48 335.77 495.673c-10.906 6.174-26.053 9.232-35.538 16.572zm-7.972-81.641c2.345 26.637 7.172 47.702 7.77 76.718 24.164-4.987 59.36-28.502 72.398-40.654 54.766-51.044 113.897-147.952 99.667-228.093-.318.499-.692.693-.812 1.577-.119.876-.609 1.177-.762 1.582-5.393 14.264-3.343 30.524-20.556 67.579-46.684 100.506-140.108 111.193-157.705 121.29zm-19.65-61.929l18.871 57.518c43.165-5.352 83.538-32.027 107.98-53.935 37.958-34.024 82.085-111.82 63.85-168.217-12.828-39.674-30.26-76.043-55.365-107.888-15.674-19.883-22.32-24.441-40.863-39.236 19.692 30.339 29.954 40.657 40.643 83.443 12.694 50.815 8.926 111.889-16.52 157.858-24.593 44.43-62.518 67.386-118.596 70.457zM83.337 168.225l9.499 6.573c25.244-38.714 51.866-63.582 94.247-88.547 82.405-47.872 154.042-17.184 180.048 79.089 14.562 53.908 3.511 121.16-18.26 165.134 69.336-28.137 88.952-299.387-68.229-304.374-80.628-2.559-159.13 52.664-189.522 123.373zm12.326 8.529l.33.228c148.999-155.758 303.74-51.785 244.812 157.921 35.507-61.737 38.565-137.878 14.442-192.43-31.988-72.338-99.14-111.668-206.274-26.798-12.317 9.758-45.965 44.645-53.31 61.079zm486.23 397.336c2.137 4.769 10.236 25.173 13.312 29.432 20.41-10.535 11.618-25.53 7.25-42.7-7.26 6.919-9.386 8.215-20.562 13.268zm-23.791 77.966c7.64 9.497 29.807 33.303 52.127 22.535 9.527-4.596 15.347-10.198 21.04-18.75 2.7-4.055 5.713-8.75 6.992-13.248 2.828-9.944.525-9.43-3.9-14.124-4.099 3.87-5.772 12.969-11.404 19.082-22.128 24.019-51.423 9.273-64.855 4.505zm71.147-24.942c-.364.388-.889.473-1.053 1.199-1.153 5.09-.536.59-2.034 2.37-1.524 1.813-2.364 2.999-3.733 4.46-21.914 23.389-58.443-.681-75.908-16.518-.635 16.41-1.362 19.826 8.732 27.232 31.388 23.03 69.927 11.306 73.996-18.743zm-84.334-25.866c1.795 33.129 63.49 56.21 79.855 25.969 3.866-7.144-3.518-27.213-7.77-33.718-15.237 37.005-45.453 23.497-72.085 7.75zm-61.486-123.11c12.312 34.331 21.799 49.43 28.684 101.52 2.52 19.063 3.582 41.334-.174 60.4-4.184 21.234-10.495 28.435-18.66 43.435l2.288 1.92c.308.236.824.656 1.17.91l14.847 8.936c35.99-28.88 21.725-126.48 2.733-173.813-10.365-25.832-12.575-36.906-30.888-43.308zm6.254 203.468c41.472-46.674 11.043-162.6-10.81-206.308-.469 12.338 5.796 41.509 6.67 56.801 3.156 55.16-2.985 97.646-40.96 130.573zm-92.2-31.15c43.412 10.947 40.088 16.279 57.594-1.61 13.616-13.914 20.864-32.738 25.115-56.554 6.03-33.785 2.808-77.923-4.05-112.21-3.071-15.353-8.792-15.723-17.302-22.612-1.629 58.73 2.95 100.604-28.685 158.5-11.184 20.466-14.533 20.945-27.628 30.226z"/>
</svg>
