<svg xmlns="http://www.w3.org/2000/svg" viewBox="0 0 725.669 725.669">
    <path fill="#ff2a2a" fill-rule="evenodd" d="M363.382 190.685h45.843v259.167h-45.843l-6.25-95.358-35.508-124.04-91.17-52.239-.36-14.114z"/>
    <path fill="#ff2a2a" fill-rule="evenodd" d="M108.21 199.535l-12.302-12.13C164.276 59.063 244.161-16.146 404.234 24.998c71.522 18.383 109.533 67.56 152.743 121.929 48.474 73.171 73.895 170.197 73.396 257.428-.214 37.362-.708 73.785-1.917 108.414-1.099 31.504-243.5 146.175-277.439 163.635-7.318 3.692-12.256 5.552-19.357 8.711l-37.256 16.875c-7.732 3.254-10.339 5.164-18.904 7.16l31.22-75.045c33.583-83.718 53.937-168.85 44.783-267.64-4.329-46.715-27.69-114.218-65.676-144.847-9.825-7.922-20.234-15.803-33.187-20.944-18.082-7.177-21.384-6.832-45.302-6.824-38.212.013-47.335 4.1-80.19 24.356l-3.958-4.118c.554-6.85-.788-4.242 4.951-9.201l24.122-14.01c39.66-13.99 86.92-22.38 127.713-9.54 164.452 42.859 104.015 231.007 70.185 361.81-6.477 25.767-18.243 55.336-22.837 78.475l-24.942 61.087c6.125-1.395 39.377-14.879 43.157-17.787l118.86-57.536c.42-.274 1.054-1.215 1.243-.84l49.476-26.701c29.437-16.387 23.593-9.55 33.39-44.733 34.457-123.74 36.848-288.024-33.227-388.598C444.786 45.337 299.256 26.12 186.316 104.646c-20.686 14.382-66.084 57.058-76.277 80.892-.805 4.205-2.621 7.598-1.5 12.869zm114.384-21.22c30.776-.885 47.328 1.538 76.163 14.34 97.464 43.276 99.618 163.54 67.565 255.366.89-71.29.124-126.09-36.26-190.455-41.003-72.532-92.057-70.023-107.468-79.25zm-99.018-19.19c22.112-54.84 89.378-108.863 151.516-124.104 40.587-9.955 84.296-7.329 123.75 3.257 19.085 5.12 35.42 11.326 49.844 20.406 70.287 44.247 121.393 121.702 145.755 203.158 21.1 70.548 28.855 176.251 20.75 252.817-6.506 6.16-29.368 19.383-38.003 22.748 5.63-43.439 25.352-125.16 18.159-166.55l-27.778 153.246c-4.087 22.047-1.142 33-22.822 38.528 9.403-42.88 16.826-53.644 25.247-110.407 16.444-110.839.348-256.95-70.663-331.868-49.46-52.183-128.301-78.43-203.52-64.77-36.027 6.54-74.187 21.356-100.254 38.255-24.208 15.694-54.233 42.21-71.981 65.283zM108.21 199.535l-12.302-12.13z"/>
    <path fill="#ff7f2a" fill-rule="evenodd" d="M110.04 185.538c-.806 4.205-2.622 7.598-1.502 12.869 62.868-38.868 98.215-86.738 185.103-92.315 94.112-6.04 138.706 43.098 155.989 122.124 29.092 133.032-42.153 291.331-95.762 412.935-5.397 12.242-11.464 18.414-8.33 23.771L464.4 607.385c31.349-132.62 76.2-349.17 4.925-467.048-40.472-66.932-122.45-85.341-194.61-65.594-43.238 11.832-107.519 47.85-130.63 75.924z"/>
    <path fill="#ff2a2a" fill-rule="evenodd" d="M110.04 185.538l34.044-34.87c23.112-28.074 87.393-64.093 130.631-75.925 72.16-19.747 154.138-1.338 194.61 65.594 71.275 117.877 26.424 334.428-4.925 467.049.418-.274 1.053-1.215 1.242-.84l49.476-26.701c29.437-16.387 23.593-9.55 33.39-44.733 34.457-123.74 36.848-288.024-33.227-388.598C444.786 45.337 299.256 26.12 186.316 104.646c-20.686 14.382-66.084 57.058-76.277 80.892z"/>
    <path fill="#ffd42a" fill-rule="evenodd" d="M114.775 206.007l-6.564-6.472.327-1.128c62.868-38.868 98.215-86.738 185.103-92.315 94.112-6.04 138.706 43.098 155.989 122.124 29.092 133.032-42.153 291.331-95.762 412.935-5.397 12.242-11.464 18.414-8.33 23.771-3.78 2.908-37.03 16.392-43.156 17.787l24.942-61.087c16.15-16.052 63.907-152.123 68.24-167.346 18.26-64.156 29.708-136.565 9.665-203.691-43.88-146.959-179.619-133.34-274.776-59.464-8.022 6.228-12.878 7.086-15.679 14.886z"/>
    <path fill="#662d8a" fill-rule="evenodd" d="M114.775 206.007l-6.564-6.472z"/>
    <path fill="#ff2a2a" fill-rule="evenodd" d="M123.576 159.124c17.748-23.072 47.773-49.59 71.98-65.283 26.068-16.9 64.228-31.714 100.254-38.256 75.22-13.659 154.06 12.588 203.52 64.77 71.012 74.92 87.108 221.03 70.664 331.869-8.42 56.763-15.844 67.526-25.247 110.407 21.68-5.527 18.735-16.48 22.822-38.528l27.778-153.245c7.193 41.389-12.53 123.11-18.159 166.55 8.636-3.366 31.497-16.59 38.003-22.749 8.104-76.566.35-182.27-20.75-252.817-24.362-81.456-75.468-158.91-145.755-203.158-14.423-9.08-30.76-15.285-49.844-20.406-39.454-10.586-83.163-13.212-123.75-3.257-62.138 15.241-129.404 69.264-151.516 124.103z"/>
    <path fill="#ff2a2a" fill-rule="evenodd" d="M122.224 213.352l-7.45-7.345c2.8-7.8 7.657-8.658 15.679-14.886 95.157-73.875 230.896-87.495 274.776 59.464 20.043 67.126 8.595 139.535-9.665 203.69-4.333 15.224-52.09 151.295-68.24 167.347 4.593-23.139 16.36-52.708 22.837-78.476 30.449-121.14 91.461-310.935-70.185-361.81-40.793-12.838-88.053-4.45-127.713 9.542l-24.122 14.009c-5.74 4.959-4.397 2.35-4.95 9.2a41.74 41.74 0 0 1-.967-.735z"/>
    <path fill="#273772" fill-rule="evenodd" d="M122.224 213.352l-7.45-7.345z"/>
    <path fill-opacity=".2" fill-rule="evenodd" d="M108.21 199.535l-12.302-12.13C164.276 59.063 244.161-16.146 404.234 24.998c71.51 18.38 109.541 67.57 152.743 121.929 48.474 73.171 73.895 170.197 73.396 257.428-.214 37.362-.708 73.785-1.917 108.414-1.099 31.504-243.5 146.175-277.439 163.635-7.318 3.692-12.256 5.552-19.357 8.711l-37.256 16.875c-7.732 3.254-10.339 5.164-18.904 7.16l31.22-75.045c33.583-83.718 53.937-168.85 44.783-267.64-4.329-46.715-27.69-114.218-65.676-144.847-9.825-7.922-20.234-15.803-33.187-20.944-18.082-7.177-21.384-6.832-45.302-6.824-38.212.013-47.335 4.1-80.19 24.356l-3.958-4.118c.554-6.85-.788-4.242 4.951-9.201l24.122-14.01c39.66-13.99 86.92-22.38 127.713-9.54 164.452 42.859 104.015 231.007 70.185 361.81-6.477 25.767-18.243 55.336-22.837 78.475l-24.942 61.087c6.125-1.395 39.377-14.879 43.157-17.787l118.86-57.536c.42-.274 1.054-1.215 1.243-.84l49.476-26.701c29.437-16.387 23.593-9.55 33.39-44.733 34.457-123.74 36.848-288.024-33.227-388.598C444.786 45.337 299.256 26.12 186.316 104.646c-20.686 14.382-66.084 57.058-76.277 80.892-.805 4.205-2.621 7.598-1.5 12.869zm114.384-21.22c30.776-.885 47.328 1.538 76.163 14.34 97.464 43.276 99.618 163.54 67.565 255.366.89-71.29.124-126.09-36.26-190.455-41.003-72.532-92.057-70.023-107.468-79.25zm-99.018-19.19c22.112-54.84 89.378-108.863 151.516-124.104 40.587-9.955 84.296-7.329 123.75 3.257 19.085 5.12 35.42 11.326 49.844 20.406 70.287 44.247 121.393 121.702 145.755 203.158 21.1 70.548 28.855 176.251 20.75 252.817-6.506 6.16-29.368 19.383-38.003 22.748 5.63-43.439 25.352-125.16 18.159-166.55l-27.778 153.246c-4.087 22.047-.645 31.344-22.822 38.528 9.403-42.88 16.826-53.644 25.247-110.407 16.444-110.839.348-256.95-70.663-331.868-49.46-52.183-128.301-78.43-203.52-64.77-36.027 6.54-74.187 21.356-100.254 38.255-24.208 15.694-54.233 42.21-71.981 65.283z"/>
    <path fill="#ff2a2a" fill-rule="evenodd" d="M222.594 178.315c15.411 9.228 66.465 6.72 107.467 79.251 46.613 82.457 34.008 137.29 32.947 222.271 11.977-42.144 19.332-89.537 22.074-133.888 3.334-53.93-9.317-104.615-52.789-137.583-25.174-19.092-60.604-30.523-109.7-30.05z"/>
</svg>
