<svg xmlns="http://www.w3.org/2000/svg" viewBox="0 0 725.669 725.669">
    <path fill="#ff2a2a" fill-rule="evenodd" d="M30.565 158.97l34.115 34.961c14.458-11.019 58.368-59.434 118.13-11.235 7.815 6.303 14.888 15.151 20.919 23.001 67.36 87.681 28.873 146.166 2.647 235.31-3.627 12.331-6.563 21.41-10.096 33.823-12.547 44.084-17.126 70.079 2.534 109.93 13.521 27.408 44.84 51.757 76.561 55.195 17.805 1.93 30.013 5.841 48.466 4.735 19.028-1.142 44.384.95 73.52-1.286 29.49-2.263 53.428-3.978 80.543-8.916 42.718-7.78 109.055-26.7 151.951-7.448 39.222 17.603 55.062 56.98 19.516 73.281-14.108 6.47-21.143-.505-21.143-17.972-7.932 5.813-5.566 27.79 13.971 29.282h4.391c7.448-.533 13.826-3.468 18.79-6.765l15.291-12.362c9.192-8.088 18.383-19.35 20.433-33.323 5.623-38.341-37.993-74.183-76.783-85.169-55.121-15.61-119.39 6.133-171.745 5.864-30.278-.156-128.764 2.086-104.617-49.323 3.154-6.716 7.413-10.485 12.285-15.368 9.56-9.585 19.578-14.59 29.303-24.375 18.915-19.03 31.735-39.146 46.05-62.935 35.414-58.856 35.498-111.885 23.045-179.434-10.007-54.274-38.476-123.213-78.815-163.557l-14.712-12.94C295.162 9.42 208.055 1.11 127.167 49.453c-14.998 8.963-28.779 19.709-40.473 32.626-16.716 18.465-26.834 32.79-40.755 53.688-4.51 6.769-10.986 15.382-15.374 23.204z"/>
    <path fill="#fff" fill-opacity=".2" fill-rule="evenodd" d="M663.572 636.262c-3.879-10.95-17.261-23.141-26.594-29.352-11.523-7.67-23.735-13.194-39.119-17.785-40.908-12.208-54.993-7.966-96.617-3.219-46.18 5.266-179.354 14.782-166.032-48.603 5.759-27.399 36.821-41.273 53.198-58.971 15.014-16.225 32.636-43.152 45.42-66.852 28.431-52.712 26.399-108.36 13.88-166.75a277.688 277.688 0 0 0-2.812-11.824l-4.069-10.15c-4.643 96.546-65.616 185.15-116.5 258.108-13.49 19.342-34.464 58.587-34.493 89.233-.035 38.48 34.928 64.482 60.177 65.269 35.916 1.12 80.16-3.148 115.213-8.773 68.704-11.027 150.825-40.454 198.348 9.669z"/>
    <path fill="#fff" fill-opacity=".2" fill-rule="evenodd" d="M36.868 165.43l6.793 6.961c5.016-7.053 25.552-23.22 34.943-29.98 11.914-8.576 25.594-17.131 41.062-24.024C222.269 72.67 334.88 149.664 342.625 263.034c5.339 78.156-31.073 144.961-56.562 205.593-14.382 34.21-46.107 120.864-14.98 154.477 8.388 9.057 8.37 7.728 23.715 8.71 10.176.65 20.892 2.106 31.015 1.826-6.97-6.474-11.426-5.066-24.006-18.513-6.985-7.467-11.839-14.986-14.837-27.413-5.784-23.974 1.902-48.662 10.664-68.453 25.967-58.65 82.408-108.825 121.38-213.713 16.899-45.48 25.35-90.61 4.603-135.974-9.495-20.76-18.759-37.686-30.8-53.752-33.173-44.267-98.069-91.655-161.473-88.01-49.81 2.864-93.633 22.177-121.92 46.202-17.196 14.605-26.025 23.484-39.19 43.75-6.736 10.371-29.288 40.185-33.366 47.666z"/>
    <path fill="#fff" fill-opacity=".2" fill-rule="evenodd" d="M46.8 175.608l11.025 11.298c12.658-9.984 30.038-30.983 66.21-34.52 25.317-2.476 41.462 5.21 59.547 18.137 6.634 4.742 7.95 7.445 13.391 12.662 31.954 30.634 63.881 89.087 51.462 153.629-4.98 25.885-37.83 120.737-48.275 159.832-8.247 30.87-6.014 61.297 8.656 86.267 9.758 16.61 32.72 42.168 59.16 45.078-37.816-42.318 5.992-143.243 24.62-186.945 24.576-57.654 55.598-121.588 42.919-196.287-11.301-66.58-57.027-112.077-116.002-129.646-52.051-15.506-100.788 3.859-140.318 32.78-9.625 7.041-26.7 21.142-32.395 27.715zM577.558 579.738c12.724 7.364 45.45 8.981 69.276 30.334 17.684 15.85 32.627 40.631 32.776 66.657 10.98-5.134 11.502-27.641 7.206-39.978-5.02-14.419-15.386-23.96-24.249-31.052-19.645-15.721-52.018-29-85.008-25.961z"/>
</svg>
