<svg xmlns="http://www.w3.org/2000/svg" viewBox="0 0 725.669 725.669">
    <path fill="#ff2a2a" fill-rule="evenodd" d="M533.492 632.29zM121.858 243.454c6.724-22.33 85.094-69.763 128.15-73.347-22.875 34.165-47.232 53.615-42.662 114.52 2.924 38.98 50.82 82.557 71.787 87.442 3.696 1.373 4.846 1.218 4.383 1.803-3.147 3.987-3.81 3.316-7.673 8.5-15.416 20.688-30.508 39.86-33.628 69.29-3.329 31.396 3.661 68.32 21.366 93.259 39.426 55.538 79.638 79.6 157.294 79.6-20.086 17.462-36.91 40.66-14.14 66.574 15.503 17.643 52.483 23.832 84.607 17.497 28.944-5.708 51.661-18.502 64.682-40.174 11.727-19.52 19.555-57.92 12.417-88.56-3.473 5.474-5.53 30.659-32.448 50.515.059-.22-7.093 5.372-11.973 8.152-8.243 4.695-16.617 7.714-16.298 7.546 30.178-15.875 49.267-36.557 31.595-70.098 50.5-26.725 72.047-71.616 46.637-120.437-13.262-25.483-26.402-24.581-29.162-34.918 17.16-4.583 48.458-47.312 59.077-65.199 15.775-26.571 25.259-61.156 20.242-101.52-5.172-41.616-41.931-92.232-92.842-93.571-29.95-.788-32.358 2.241-56.377 7.837 6.931-29.757 5.834-55.221-7.115-78.33-11.388-20.32-27.828-36.559-47.314-47.833C354.007-3.394 251.585 22.698 182.048 74.95c-38.726 29.1-63.71 64.03-81.57 108.729l-11.747 36.918"/>
    <path fill-opacity=".2" fill-rule="evenodd" d="M531.263 572.231c-57.529 20.209-90.99-14.265-78.417-34.149 14.196-22.448 68.097 3.359 78.417 34.149zm-242.82-195.589c4.27-10.507 13.819-16.148 23.862-23.821 41.315-31.567 98.802-28.561 102.531-5.628 3.934 24.196-26.932 38.826-49.605 42.846-35.562 6.306-49.984-4.363-76.789-13.397zM88.73 220.598l7.908 5.55c4.125-6.01 9.127-28.632 12.588-37.57 18.41-47.533 50.031-84.866 90.122-111.88 9.904-6.674 21.1-12.358 32.242-18.246 22.095-11.675 46.878-20.21 74.09-24.795 69.171-11.652 118.516 6.767 151.29 44.034 16.147 18.359 26.801 46.248 22.223 78.765-4.209 29.9-18.4 49.102-28.642 70.304 18.883-9.233 26.332-38.106 30.908-42.697 7.673-7.697 46.394-12.637 59.879-11.951 70 3.56 111.821 92.033 61.075 183.44-11.668 21.018-31.525 43.8-50.238 58.53l-14.912 12.313 12.341 1.9c5.87 8.191 14.426 9.139 25.733 30.13 7.328 13.6 10.283 29.644 7.66 46.834-4.107 26.916-30.658 57.637-45.623 65.339-1.985-2.28.605 1.19-2.652-3.52l-1.575-2.416c-57.105-88.415-128.811-17.844-65.353 14.855 23.241 11.976 41.817 4.696 64.425-.15 5.285 23.173 2.473 34.841-11.914 47.53-8.4 7.406-24.692 17.341-38.943 21.363-.495.14-.747-.371-1.235-.25-5.293-4.022-2.925-4.195-8.997-5.879-17.652 23.05 36.903 22.692 69.97-2.229 8.926-6.727 12.441-11.824 19.386-17.451-3.925 51.001-50.757 82.722-107.57 76.556-70.804-7.684-39.361-64.868-22.91-75.155 3.833-2.396 28.063-9.6 32.567-10.004-30.005-4.201-38.52 4.719-100.33-8.155l2.04-2.429c9.586-10.328 9.106-3.871 23.1-23.917 21.636-30.994 18.642-79.796-17.113-104.047 6.6-4.112 39.857-8.866 51.537-13.002 87.215-30.882 127.913-134.838 63.217-191.28-35.817-31.248-71.706-16.475-98.684-11.21 7.554-14.346 22.3-24.921 35.478-57.655 19.449-48.31 2.798-100.75-40.737-128.191-20.358-12.832-47.981-17.13-76.517-13.94-50.631 5.66-89.503 30.985-124.671 61.292-22.603 19.48-71.313 85.473-75.117 110.355l2.744 1.893c7.07-17.847 23.599-48.128 34.289-62.909 9.653-13.346 31.708-40.948 44.11-51.03 51.307-41.71 142.145-86.75 205.596-32.8 13.09 11.13 30.51 34.214 34.274 60.738 9.261 65.284-53.863 117.575-58.722 127.44 5.555-2.451 5.84-3.81 10.364-6.537 56.233-33.91 150.077-3.393 133.549 90.727-7.034 40.05-31.44 65.9-54.21 81.798-37.519 26.195-67.826 23.405-102.625 31.377 32.785 8.048 54.024 51.603 37.272 91.651-5.868 14.026-21.844 34.77-33.674 38.207-18.16 5.275-89.164-42.496-102.756-110.671-7.663-38.431 7.442-90.261 31.912-110.349 25.792 10.139 40.03 23.863 82.708 15.35 75.61-15.081 71.294-94.07-19.916-70.34-37.556 9.77-45.931 28.315-62.792 40.763-17.634-5.955-40.307-28.459-48.619-39.531-39.073-52.054-14.82-111.417 22.99-153.904 11.214-12.6 21.748-.789 27.67-14.518-66.77-3.167-95.872 10.607-143.128 46.663-10.744 8.197-23.206 22.588-32.343 31.98l8.388 5.787c6.724-22.33 85.094-69.763 128.15-73.347-22.875 34.165-47.232 53.615-42.662 114.52 2.924 38.98 50.82 82.557 71.787 87.442 3.098 1.188 4.916 1.156 4.383 1.803-4.562 5.539-3.909 3.45-7.673 8.5-15.416 20.688-30.508 39.86-33.628 69.29-3.329 31.396 3.661 68.32 21.366 93.259 39.426 55.538 79.638 79.6 157.294 79.6-20.086 17.462-36.91 40.66-14.14 66.574 15.504 17.643 52.483 23.832 84.607 17.497 28.944-5.708 51.661-18.502 64.682-40.174 11.727-19.52 19.555-57.92 12.418-88.56-4.798 11.6-7.973 32.057-32.449 50.515-3.763 2.838-7.876 5.711-12.556 8.294-4.723 2.608-9.941 5.082-15.715 7.404 29.745-15.349 43.524-34.343 36.827-57.117-1.225-4.167-2.69-8.3-5.232-12.98 50.5-26.726 72.047-71.617 46.637-120.438-13.262-25.483-26.402-24.581-29.162-34.918 17.16-4.583 48.458-47.312 59.077-65.199 15.775-26.571 25.259-61.156 20.242-101.52-5.172-41.616-41.931-92.232-92.842-93.571-29.95-.788-32.358 2.241-56.377 7.837 6.931-29.757 5.834-55.221-7.115-78.33-11.388-20.32-27.828-36.559-47.314-47.833C354.007-3.394 251.585 22.698 182.048 74.95c-38.726 29.1-63.71 64.03-81.57 108.729z"/>
</svg>
