<svg xmlns="http://www.w3.org/2000/svg" viewBox="0 0 725.669 725.669">
    <path fill="#ff2a2a" fill-rule="evenodd" d="M136.147 221.85l83.34-1.843 185.246-43.295 146.427-22.978 127.718 21.601-13.054 109.785-103.847 152.577-135.233 98.346-180.47 36.788-128.536-30.615-61.347-94.752L43.49 391.01l13.154-49.985 19.421-58.782z"/>
    <path fill="#ff2a2a" fill-rule="evenodd" d="M528.414 402.188c7.497-4.925 13.698-8.718 21.004-13.405l63.069-40.191c-1.87 8.08-13.318 22.153-18.122 28.995-8.862 12.62-53.79 65.36-63.908 73.737-28.692 23.757-77.073 63.13-111.786 71.161 2.87-10.835 25.355-29.64 25.355-67.04zm-69.9-80.762c6.872-1.599 100.176-51.552 106.093-55.096l104.023-55.378c0 24.371-17.174 67.006-27.77 88.164-11.189 22.342-9.285 25.22-23.974 33.99C595.12 346.104 452.115 440.51 442.216 442.8c1.208-14.6 30.787-38.42 30.787-77.892 0-24.279-6.81-28.841-14.488-43.48zm89.797-136.594c40.377-15.358 44.353-25.294 87.009-13.022 17.373 4.998 25.476 12.034 31.498 24.685-8.864 2.063-43.201 22.54-54.919 28.395l-136.01 72.26c-6.214 3.72-21.705 11.927-28.225 13.442-6.513-4.338-11.633-8.978-19.337-13.273-19.188-10.696-55.71-22.364-76.665-17.515-2.226-4.65-3.215-9.861-5.433-14.52zm-247.358 36.986c8.662-.72 108.216-31.587 123.887-35.495 42.737-10.66 86.275-20.648 138.748-20.648l-166.365 67.3c-78.956 31.554-46.392 23.45-74.503 3.332-9.706-6.946-18.27-9.664-21.767-14.49zm57.938 315.156l16.3 32.573c46.277-16.372 73.057-25.413 115.849-50.794 4.89-2.901 8.3-5.812 12.767-8.964l23.936-17.716c4.17-3.668 6.963-5.53 10.894-9.028 25.2-22.42 37.497-37.572 60.684-62.467 3.541-3.802 6.515-7.923 9.75-11.982 39.293-49.313 77.534-110.177 88.79-175.615 10.18-59.199-21.721-85.564-69.375-92.348-46.47-6.616-113.605-.496-155.382 5.233-75.708 10.382-126.651 30.982-193.176 53.123-11.202 3.729-20.386 6.797-31.24 10.414-5.567 1.974-25.691 8.195-29.2 10.604 20.174 1.682 54.848 14.142 71.693 24.288 8.26 4.976 18.391 16.707 23.576 25.331 5.443 9.055 10.539 22.98 11.583 35.5 41.872-9.823 138.469 12.21 106.883 92.42-6.53 16.582-11.756 21.583-20.367 34.018-8.366 12.082 11.33 47.11-23.565 81.43-10.156 9.99-17.42 17.207-30.4 23.98zm16.3 32.573l-16.3-32.573C232.437 597.59 11.721 502.777 65.266 328.429c20.81-67.761 59.527-89.818 70.881-106.58-156.971 47.334-167.123 369.073 123.192 367.638 32.085.403 104.73-14.662 115.852-19.94z"/>
    <path fill-opacity=".2" fill-rule="evenodd" d="M528.414 402.188c7.497-4.925 13.698-8.718 21.004-13.405l63.069-40.191c-1.87 8.08-13.318 22.153-18.122 28.995-8.862 12.62-53.79 65.36-63.908 73.737-28.692 23.757-77.073 63.13-111.786 71.161 2.87-10.835 25.355-29.64 25.355-67.04zm-69.9-80.762c6.872-1.599 100.176-51.552 106.093-55.096l104.023-55.378c0 24.371-17.174 67.006-27.77 88.164-11.189 22.342-9.285 25.22-23.974 33.99C595.12 346.104 452.115 440.51 442.216 442.8c1.208-14.6 30.787-38.42 30.787-77.892 0-24.279-6.81-28.841-14.488-43.48zm89.797-136.594c40.377-15.358 44.353-25.294 87.009-13.022 17.373 4.998 25.476 12.034 31.498 24.685-8.864 2.063-43.201 22.54-54.919 28.395l-136.01 72.26c-6.214 3.72-21.705 11.927-28.225 13.442-6.513-4.338-11.633-8.978-19.337-13.273-19.188-10.696-55.71-22.364-76.665-17.515-2.226-4.65-3.215-9.861-5.433-14.52zm-247.358 36.986c8.662-.72 108.216-31.587 123.887-35.495 42.737-10.66 86.275-20.648 138.748-20.648l-166.365 67.3c-78.956 31.554-46.392 23.45-74.503 3.332-9.706-6.946-18.27-9.664-21.767-14.49zm57.938 315.156l16.3 32.573c46.277-16.372 73.057-25.413 115.849-50.794 4.89-2.901 8.3-5.812 12.767-8.964l23.936-17.716c4.17-3.668 6.963-5.53 10.894-9.028 25.2-22.42 37.497-37.572 60.684-62.467 3.541-3.802 6.515-7.923 9.75-11.982 39.293-49.313 77.534-110.177 88.79-175.615 10.18-59.199-21.721-85.564-69.375-92.348-46.47-6.616-113.605-.496-155.382 5.233-75.708 10.382-126.651 30.982-193.176 53.123-11.202 3.729-20.386 6.797-31.24 10.414-5.567 1.974-25.691 8.195-29.2 10.604 20.174 1.682 54.848 14.142 71.693 24.288 8.26 4.976 18.391 16.707 23.576 25.331 5.443 9.055 10.539 22.98 11.583 35.5 41.872-9.823 138.469 12.21 106.883 92.42-6.53 16.582-11.756 21.583-20.367 34.018-8.366 12.082 11.33 47.11-23.565 81.43-10.156 9.99-17.42 17.207-30.4 23.98zm16.3 32.573l-16.3-32.573C232.437 597.59 11.721 502.777 65.266 328.429c20.81-67.761 59.527-89.818 70.881-106.58-156.971 47.334-167.123 369.073 123.192 367.638 32.085.403 104.73-14.662 115.852-19.94z"/>
</svg>
