<?xml version="1.0" encoding="UTF-8" standalone="no"?>
<svg
   xmlns:dc="http://purl.org/dc/elements/1.1/"
   xmlns:cc="http://creativecommons.org/ns#"
   xmlns:rdf="http://www.w3.org/1999/02/22-rdf-syntax-ns#"
   xmlns:svg="http://www.w3.org/2000/svg"
   xmlns="http://www.w3.org/2000/svg"
   xmlns:sodipodi="http://sodipodi.sourceforge.net/DTD/sodipodi-0.dtd"
   xmlns:inkscape="http://www.inkscape.org/namespaces/inkscape"
   version="1.1"
   width=""
   height=""
   id="svg26"
   viewBox="0 0 725.66931 725.66931"
   sodipodi:docname="Bottle1.svg"
   inkscape:version="0.92.3 (2405546, 2018-03-11)">
  <metadata
     id="metadata32">
    <rdf:RDF>
      <cc:Work
         rdf:about="">
        <dc:format>image/svg+xml</dc:format>
        <dc:type
           rdf:resource="http://purl.org/dc/dcmitype/StillImage" />
        <dc:title></dc:title>
      </cc:Work>
    </rdf:RDF>
  </metadata>
  <defs
     id="defs30" />
  <sodipodi:namedview
     pagecolor="#ffffff"
     bordercolor="#666666"
     borderopacity="1"
     objecttolerance="10"
     gridtolerance="10"
     guidetolerance="10"
     inkscape:pageopacity="0"
     inkscape:pageshadow="2"
     inkscape:window-width="1920"
     inkscape:window-height="1028"
     id="namedview28"
     showgrid="false"
     inkscape:zoom="0.8924412"
     inkscape:cx="208.90436"
     inkscape:cy="298.39081"
     inkscape:window-x="-8"
     inkscape:window-y="-8"
     inkscape:window-maximized="1"
     inkscape:current-layer="svg26" />
  <path
     d="M 615.74427,673.20917 472.31913,529.78404 c -42.32609,11.13971 -74.68,4.82883 -98.42366,-16.54932 L 15.039768,154.37901 C 62.219211,107.19958 109.3991,60.01969 156.57853,12.840251 L 515.43424,371.69595 c 22.38409,25.39874 27.17735,58.52313 16.54932,98.42366 L 675.4087,613.54475 Z"
     style="fill:#ffd5d5;fill-rule:evenodd;stroke:#000000;stroke-width:0.73529035;stroke-linecap:butt;stroke-linejoin:miter;stroke-dasharray:none"
     id="path2"
     inkscape:connector-curvature="0" />
  <path
     d="M 111.06893,108.86942 C 71.984214,147.95415 28.990261,168.3295 15.040242,154.37947 1.0902023,140.42944 21.465463,97.435385 60.550186,58.350663 99.634909,19.265944 142.62896,-1.1093226 156.57899,12.84071 c 13.95003,13.950032 -6.42532,56.943984 -45.51006,96.02871 z"
     style="fill:#ffaaaa;fill-rule:evenodd;stroke:#000000;stroke-width:0.73529035;stroke-linecap:butt;stroke-linejoin:miter;stroke-dasharray:none"
     id="path4"
     inkscape:connector-curvature="0" />
  <path
     d="M 717.5322,651.0673 681.69279,615.2279"
     style="fill:#000000;fill-rule:evenodd;stroke:#000000;stroke-width:0.73529035;stroke-linecap:butt;stroke-linejoin:miter;stroke-dasharray:none"
     id="path6"
     inkscape:connector-curvature="0" />
  <path
     d="M 653.36607,715.43191 617.42742,679.49326"
     style="fill:#000000;fill-rule:evenodd;stroke:#000000;stroke-width:0.73529035;stroke-linecap:butt;stroke-linejoin:miter;stroke-dasharray:none"
     id="path8"
     inkscape:connector-curvature="0" />
  <path
     d="m 411.67592,508.9999 c 18.93215,0.7771 15.85779,13.74432 -15.00804,3.05528 -31.50205,-18.38525 -90.60013,-82.15802 -144.52325,-134.91177 -19.64724,-22.94693 -16.87966,-27.24008 8.36509,-8.36508 63.85962,62.22711 126.7734,134.30883 151.1662,140.22157 z"
     style="fill:#ffffff;fill-rule:evenodd;stroke-width:1.29703712"
     id="path10"
     inkscape:connector-curvature="0" />
  <path
     d="m 288.07842,197.23146 c -53.90843,-57.75769 -55.30974,-63.00733 5.77333,-5.77334 l 194.40338,194.4034 c 2.39797,5.88109 4.79557,11.76181 7.19353,17.64291 -4.27545,-3.90933 -8.5507,-7.81866 -12.82606,-11.72789 z"
     style="fill:#ffffff;fill-rule:evenodd;stroke-width:1.29703712"
     id="path12"
     inkscape:connector-curvature="0" />
  <path
     d="m 427.51005,432.75773 c -0.29927,3.00411 -1.82182,4.45805 -4.47759,4.47759 L 404.7701,418.97298 c -11.38935,-13.11838 -9.89514,-14.608 4.4776,-4.47759 z"
     style="fill:#ffffff;fill-rule:evenodd;stroke-width:1.29703712"
     id="path14"
     inkscape:connector-curvature="0" />
  <path
     d="m 681.69279,615.2279 -64.26537,64.26536 c -5.90999,-5.90999 3.68664,-25.08966 21.42768,-42.8307 17.74793,-17.74794 36.9277,-27.34465 42.83769,-21.43466 z"
     style="fill:#ffaaaa;fill-rule:evenodd;stroke-width:1.29703712"
     id="path16"
     inkscape:connector-curvature="0" />
  <path
     d="m 617.42742,679.49326 c -5.91009,-5.91008 3.68672,-25.08975 21.42759,-42.83062 17.74802,-17.74802 36.9277,-27.34483 42.83778,-21.43474"
     style="fill:none;fill-rule:evenodd;stroke:#000000;stroke-width:0.73529035;stroke-linecap:butt;stroke-linejoin:miter;stroke-dasharray:none"
     id="path18"
     inkscape:connector-curvature="0" />
  <path
     d="M 717.19854,651.59943 653.81096,714.987 617.87232,679.04835 c 14.56103,-27.12113 34.69638,-49.15716 63.38757,-63.38756 z"
     style="fill:#ffaaaa;fill-rule:evenodd;stroke-width:1.29703712"
     id="path20"
     inkscape:connector-curvature="0" />
  <path
     d="m 696.20081,694.00129 c -17.74638,17.74636 -36.9243,27.34106 -42.83456,21.4308 -5.91035,-5.91036 3.68444,-25.08819 21.4308,-42.83457 17.74627,-17.74627 36.92421,-27.34114 42.83456,-21.43079 5.91026,5.91025 -3.68452,25.08828 -21.4308,42.83456 z"
     style="fill:#ffaaaa;fill-rule:evenodd;stroke:#000000;stroke-width:0.73529035;stroke-linecap:butt;stroke-linejoin:miter;stroke-dasharray:none"
     id="path22"
     inkscape:connector-curvature="0" />
  <path
     d="M 122.84277,46.576004 C 107.88122,82.725234 82.198355,106.24419 48.775526,120.64325"
     style="fill:none;fill-rule:evenodd;stroke:#000000;stroke-width:0.73529035;stroke-linecap:butt;stroke-linejoin:miter;stroke-dasharray:none"
     id="path24"
     inkscape:connector-curvature="0" />
</svg>
