<?xml version="1.0" encoding="UTF-8" standalone="no"?>
<svg
   xmlns:dc="http://purl.org/dc/elements/1.1/"
   xmlns:cc="http://creativecommons.org/ns#"
   xmlns:rdf="http://www.w3.org/1999/02/22-rdf-syntax-ns#"
   xmlns:svg="http://www.w3.org/2000/svg"
   xmlns="http://www.w3.org/2000/svg"
   xmlns:sodipodi="http://sodipodi.sourceforge.net/DTD/sodipodi-0.dtd"
   xmlns:inkscape="http://www.inkscape.org/namespaces/inkscape"
   version="1.1"
   width=""
   height=""
   id="svg26"
   viewBox="0 0 725.66931 725.66931"
   sodipodi:docname="44.svg"
   inkscape:version="0.92.3 (2405546, 2018-03-11)">
  <metadata
     id="metadata32">
    <rdf:RDF>
      <cc:Work
         rdf:about="">
        <dc:format>image/svg+xml</dc:format>
        <dc:type
           rdf:resource="http://purl.org/dc/dcmitype/StillImage" />
        <dc:title></dc:title>
      </cc:Work>
    </rdf:RDF>
  </metadata>
  <defs
     id="defs30" />
  <sodipodi:namedview
     pagecolor="#ffffff"
     bordercolor="#666666"
     borderopacity="1"
     objecttolerance="10"
     gridtolerance="10"
     guidetolerance="10"
     inkscape:pageopacity="0"
     inkscape:pageshadow="2"
     inkscape:window-width="1920"
     inkscape:window-height="1028"
     id="namedview28"
     showgrid="false"
     inkscape:zoom="7.1395296"
     inkscape:cx="364.65492"
     inkscape:cy="657.00504"
     inkscape:window-x="-8"
     inkscape:window-y="-8"
     inkscape:window-maximized="1"
     inkscape:current-layer="svg26" />
  <path
     d="m 394.0768,72.2952 v 156.3824 c 29.148,17.0019 43.3459,38.0808 44.6355,62.6799 v 391.2753 c -51.4417,0 -102.8839,0 -154.3256,0 V 291.3575 c 1.6435,-26.0498 17.0888,-46.7214 44.6355,-62.6799 V 72.2952 Z"
     style="fill:#ffd5d5;fill-rule:evenodd;stroke:#000000;stroke-width:0.56690001;stroke-linecap:butt;stroke-linejoin:miter;stroke-dasharray:none"
     id="path2"
     inkscape:connector-curvature="0" />
  <path
     d="m 361.5495,655.091 c 42.6157,0 77.1628,12.331 77.1628,27.5413 0,15.2103 -34.5471,27.5414 -77.1628,27.5414 -42.6157,0 -77.1628,-12.3311 -77.1628,-27.5414 0,-15.2103 34.5471,-27.5413 77.1628,-27.5413 z"
     style="fill:#ffaaaa;fill-rule:evenodd;stroke:#000000;stroke-width:0.56690001;stroke-linecap:butt;stroke-linejoin:miter;stroke-dasharray:none"
     id="path4"
     inkscape:connector-curvature="0" />
  <path
     d="M 326.5139,28.8745 V 67.9517"
     style="fill:#000000;fill-rule:evenodd;stroke:#000000;stroke-width:0.56690001;stroke-linecap:butt;stroke-linejoin:miter;stroke-dasharray:none"
     id="path6"
     inkscape:connector-curvature="0" />
  <path
     d="M 396.5851,28.7663 V 67.9517"
     style="fill:#000000;fill-rule:evenodd;stroke:#000000;stroke-width:0.56690001;stroke-linecap:butt;stroke-linejoin:miter;stroke-dasharray:none"
     id="path8"
     inkscape:connector-curvature="0" />
  <path
     d="m 415.8068,273.0694 c -9.8976,-10.7449 -1.1522,-16.1382 9.8476,6.5163 7.1509,27.1971 4.6024,94.1827 5.2399,152.3398 -1.7989,23.2211 -5.6482,24.0528 -9.1208,0 -0.89,-68.7388 4.1081,-142.3344 -5.9667,-158.8561 z"
     style="fill:#ffffff;fill-rule:evenodd"
     id="path10"
     inkscape:connector-curvature="0" />
  <path
     d="m 313.2215,510.4182 c -2.0985,60.8771 -4.1965,64.503 -6.2949,0 V 298.4521 c 1.8989,-4.5135 3.7978,-9.0266 5.6967,-13.5401 0.1996,4.4621 0.3991,8.9241 0.5987,13.3861 z"
     style="fill:#ffffff;fill-rule:evenodd"
     id="path12"
     inkscape:connector-curvature="0" />
  <path
     d="m 365.6095,306.0021 c 1.8009,-1.4746 3.4236,-1.4372 4.8821,0 v 19.9122 c -0.9426,13.3609 -2.5693,13.3584 -4.8821,0 z"
     style="fill:#ffffff;fill-rule:evenodd"
     id="path14"
     inkscape:connector-curvature="0" />
  <path
     d="m 326.5139,67.9517 h 70.0712 c 0,6.4439 -15.688,11.6683 -35.0318,11.6683 -19.3513,0 -35.0394,-5.2244 -35.0394,-11.6683 z"
     style="fill:#ffaaaa;fill-rule:evenodd"
     id="path16"
     inkscape:connector-curvature="0" />
  <path
     d="m 396.5851,67.9517 c 0,6.444 -15.6881,11.6683 -35.0317,11.6683 -19.3514,0 -35.0395,-5.2243 -35.0395,-11.6683"
     style="fill:none;fill-rule:evenodd;stroke:#000000;stroke-width:0.56690001;stroke-linecap:butt;stroke-linejoin:miter;stroke-dasharray:none"
     id="path18"
     inkscape:connector-curvature="0" />
  <path
     d="M 326.9859,28.7663 H 396.1 v 39.1854 c -22.7239,6.8474 -45.7145,7.8836 -69.1141,0 z"
     style="fill:#ffaaaa;fill-rule:evenodd"
     id="path20"
     inkscape:connector-curvature="0" />
  <path
     d="m 361.5495,17.0974 c 19.3496,0 35.0356,5.2245 35.0356,11.6687 0,6.4443 -15.686,11.6687 -35.0356,11.6687 -19.3495,0 -35.0356,-5.2244 -35.0356,-11.6687 0,-6.4442 15.6861,-11.6687 35.0356,-11.6687 z"
     style="fill:#ffaaaa;fill-rule:evenodd;stroke:#000000;stroke-width:0.56690001;stroke-linecap:butt;stroke-linejoin:miter;stroke-dasharray:none"
     id="path22"
     inkscape:connector-curvature="0" />
  <path
     d="m 321.1702,682.6328 c 27.8641,-11.5509 54.6875,-10.3712 80.7586,0"
     style="fill:none;fill-rule:evenodd;stroke:#000000;stroke-width:0.56690001;stroke-linecap:butt;stroke-linejoin:miter;stroke-dasharray:none"
     id="path24"
     inkscape:connector-curvature="0" />
</svg>
