<?xml version="1.0" encoding="UTF-8" standalone="no"?>
<svg
   xmlns:dc="http://purl.org/dc/elements/1.1/"
   xmlns:cc="http://creativecommons.org/ns#"
   xmlns:rdf="http://www.w3.org/1999/02/22-rdf-syntax-ns#"
   xmlns:svg="http://www.w3.org/2000/svg"
   xmlns="http://www.w3.org/2000/svg"
   xmlns:sodipodi="http://sodipodi.sourceforge.net/DTD/sodipodi-0.dtd"
   xmlns:inkscape="http://www.inkscape.org/namespaces/inkscape"
   version="1.1"
   width=""
   height=""
   id="svg26"
   viewBox="0 0 725.66931 725.66931"
   sodipodi:docname="Bottle2.svg"
   inkscape:version="0.92.3 (2405546, 2018-03-11)">
  <metadata
     id="metadata32">
    <rdf:RDF>
      <cc:Work
         rdf:about="">
        <dc:format>image/svg+xml</dc:format>
        <dc:type
           rdf:resource="http://purl.org/dc/dcmitype/StillImage" />
        <dc:title></dc:title>
      </cc:Work>
    </rdf:RDF>
  </metadata>
  <defs
     id="defs30" />
  <sodipodi:namedview
     pagecolor="#ffffff"
     bordercolor="#666666"
     borderopacity="1"
     objecttolerance="10"
     gridtolerance="10"
     guidetolerance="10"
     inkscape:pageopacity="0"
     inkscape:pageshadow="2"
     inkscape:window-width="1920"
     inkscape:window-height="1028"
     id="namedview28"
     showgrid="false"
     inkscape:zoom="0.8924412"
     inkscape:cx="208.90436"
     inkscape:cy="298.39081"
     inkscape:window-x="-8"
     inkscape:window-y="-8"
     inkscape:window-maximized="1"
     inkscape:current-layer="svg26" />
  <path
     d="M 114.27874,52.414796 257.70388,195.83993 c 42.32609,-11.13971 74.68,-4.82883 98.42366,16.54932 l 358.8557,358.85571 c -47.17945,47.17943 -94.35933,94.35932 -141.53876,141.53875 L 214.58877,353.92802 C 192.20468,328.52928 187.41142,295.40489 198.03945,255.50436 L 54.614306,112.07922 Z"
     style="fill:#ffd5d5;fill-rule:evenodd;stroke:#000000;stroke-width:0.73529035;stroke-linecap:butt;stroke-linejoin:miter;stroke-dasharray:none"
     id="path2"
     inkscape:connector-curvature="0" />
  <path
     d="m 618.95408,616.75455 c 39.08471,-39.08473 82.07866,-59.46008 96.02868,-45.51005 13.95004,13.95003 -6.42522,56.94408 -45.50994,96.0288 -39.08472,39.08472 -82.07877,59.45999 -96.0288,45.50996 -13.95003,-13.95004 6.42532,-56.94399 45.51006,-96.02871 z"
     style="fill:#ffaaaa;fill-rule:evenodd;stroke:#000000;stroke-width:0.73529035;stroke-linecap:butt;stroke-linejoin:miter;stroke-dasharray:none"
     id="path4"
     inkscape:connector-curvature="0" />
  <path
     d="m 12.490806,74.556666 35.83941,35.839404"
     style="fill:#000000;fill-rule:evenodd;stroke:#000000;stroke-width:0.73529035;stroke-linecap:butt;stroke-linejoin:miter;stroke-dasharray:none"
     id="path6"
     inkscape:connector-curvature="0" />
  <path
     d="m 76.656936,10.192056 35.938654,35.93865"
     style="fill:#000000;fill-rule:evenodd;stroke:#000000;stroke-width:0.73529035;stroke-linecap:butt;stroke-linejoin:miter;stroke-dasharray:none"
     id="path8"
     inkscape:connector-curvature="0" />
  <path
     d="m 318.34709,216.62407 c -18.93215,-0.7771 -15.85779,-13.74432 15.00804,-3.05528 31.50205,18.38525 90.60013,82.15802 144.52325,134.91177 19.64724,22.94693 16.87966,27.24008 -8.36509,8.36508 -63.85962,-62.22711 -126.7734,-134.30883 -151.1662,-140.22157 z"
     style="fill:#ffffff;fill-rule:evenodd;stroke-width:1.29703712"
     id="path10"
     inkscape:connector-curvature="0" />
  <path
     d="m 441.94459,528.39251 c 53.90843,57.75769 55.30974,63.00733 -5.77333,5.77334 L 241.76788,339.76245 c -2.39797,-5.88109 -4.79557,-11.76181 -7.19353,-17.64291 4.27545,3.90933 8.5507,7.81866 12.82606,11.72789 z"
     style="fill:#ffffff;fill-rule:evenodd;stroke-width:1.29703712"
     id="path12"
     inkscape:connector-curvature="0" />
  <path
     d="m 302.51296,292.86624 c 0.29927,-3.00411 1.82182,-4.45805 4.47759,-4.47759 l 18.26236,18.26234 c 11.38935,13.11838 9.89514,14.608 -4.4776,4.47759 z"
     style="fill:#ffffff;fill-rule:evenodd;stroke-width:1.29703712"
     id="path14"
     inkscape:connector-curvature="0" />
  <path
     d="M 48.330216,110.39607 112.59559,46.130706 c 5.90999,5.90999 -3.68664,25.08966 -21.427684,42.8307 -17.74793,17.747944 -36.9277,27.344654 -42.83769,21.434664 z"
     style="fill:#ffaaaa;fill-rule:evenodd;stroke-width:1.29703712"
     id="path16"
     inkscape:connector-curvature="0" />
  <path
     d="m 112.59559,46.130706 c 5.91009,5.91008 -3.68672,25.08975 -21.427594,42.83062 -17.74802,17.748024 -36.9277,27.344834 -42.83778,21.434744"
     style="fill:none;fill-rule:evenodd;stroke:#000000;stroke-width:0.73529035;stroke-linecap:butt;stroke-linejoin:miter;stroke-dasharray:none"
     id="path18"
     inkscape:connector-curvature="0" />
  <path
     d="m 12.824466,74.024536 63.38758,-63.38757 35.938644,35.93865 C 97.589656,73.696746 77.454306,95.732776 48.763116,109.96318 Z"
     style="fill:#ffaaaa;fill-rule:evenodd;stroke-width:1.29703712"
     id="path20"
     inkscape:connector-curvature="0" />
  <path
     d="m 33.822196,31.622676 c 17.74638,-17.74636 36.9243,-27.3410602 42.83456,-21.4308 5.91035,5.91036 -3.68444,25.08819 -21.4308,42.83457 -17.74627,17.74627 -36.92421,27.34114 -42.83456,21.43079 -5.9102602,-5.91025 3.68452,-25.08828 21.4308,-42.83456 z"
     style="fill:#ffaaaa;fill-rule:evenodd;stroke:#000000;stroke-width:0.73529035;stroke-linecap:butt;stroke-linejoin:miter;stroke-dasharray:none"
     id="path22"
     inkscape:connector-curvature="0" />
  <path
     d="m 607.18024,679.04796 c 14.96155,-36.14923 40.64441,-59.66818 74.06724,-74.06724"
     style="fill:none;fill-rule:evenodd;stroke:#000000;stroke-width:0.73529035;stroke-linecap:butt;stroke-linejoin:miter;stroke-dasharray:none"
     id="path24"
     inkscape:connector-curvature="0" />
</svg>
