<?xml version="1.0" encoding="UTF-8" standalone="no"?>
<svg
   xmlns:dc="http://purl.org/dc/elements/1.1/"
   xmlns:cc="http://creativecommons.org/ns#"
   xmlns:rdf="http://www.w3.org/1999/02/22-rdf-syntax-ns#"
   xmlns:svg="http://www.w3.org/2000/svg"
   xmlns="http://www.w3.org/2000/svg"
   xmlns:sodipodi="http://sodipodi.sourceforge.net/DTD/sodipodi-0.dtd"
   xmlns:inkscape="http://www.inkscape.org/namespaces/inkscape"
   inkscape:version="1.0 (4035a4fb49, 2020-05-01)"
   sodipodi:docname="22.svg"
   viewBox="0 0 725.66931 725.66931"
   id="svg6"
   height=""
   width=""
   version="1.1">
  <metadata
     id="metadata12">
    <rdf:RDF>
      <cc:Work
         rdf:about="">
        <dc:format>image/svg+xml</dc:format>
        <dc:type
           rdf:resource="http://purl.org/dc/dcmitype/StillImage" />
        <dc:title></dc:title>
      </cc:Work>
    </rdf:RDF>
  </metadata>
  <defs
     id="defs10" />
  <sodipodi:namedview
     inkscape:current-layer="svg6"
     inkscape:window-maximized="0"
     inkscape:window-y="0"
     inkscape:window-x="0"
     inkscape:cy="362.83466"
     inkscape:cx="362.83466"
     inkscape:zoom="0.79650605"
     showgrid="false"
     id="namedview8"
     inkscape:window-height="480"
     inkscape:window-width="820"
     inkscape:pageshadow="2"
     inkscape:pageopacity="0"
     guidetolerance="10"
     gridtolerance="10"
     objecttolerance="10"
     borderopacity="1"
     bordercolor="#666666"
     pagecolor="#ffffff" />
  <path
     id="path2"
     style="fill:#ffffff;fill-rule:evenodd;stroke:#000000;stroke-width:10.0001;stroke-linecap:round;stroke-linejoin:round;stroke-dasharray:none"
     d="m 363.0713,585.5454 c 59.3397,35.1816 114.0704,26.5938 163.3746,-33.5531 l 74.9449,23.832 -21.3239,-56.4441 75.2587,-169.3318 C 567.972,245.1603 485.5473,170.7514 363.0713,94.2945 240.5954,170.7514 158.1707,245.1603 70.8171,350.0484 l 75.2587,169.3318 -21.3239,56.4441 74.9449,-23.832 c 49.3041,60.1469 104.0349,68.7347 163.3745,33.5531 z M 315.0918,342.2103 c 4.3909,197.2761 -190.7535,128.2601 -161.8058,0 z m 95.959,0 c -4.3908,197.2761 190.7535,128.2601 161.8059,0 z" />
  <path
     id="path4"
     style="fill:none;stroke:#d3d0d3;stroke-width:7.9999;stroke-linecap:round;stroke-linejoin:round;stroke-dasharray:none"
     d="m 300.3582,480.1855 c 43.6916,-18.5228 87.3837,-20.7794 131.0753,0" />
</svg>
