<?xml version="1.0" encoding="UTF-8" standalone="no"?>
<svg
   xmlns:dc="http://purl.org/dc/elements/1.1/"
   xmlns:cc="http://creativecommons.org/ns#"
   xmlns:rdf="http://www.w3.org/1999/02/22-rdf-syntax-ns#"
   xmlns:svg="http://www.w3.org/2000/svg"
   xmlns="http://www.w3.org/2000/svg"
   xmlns:sodipodi="http://sodipodi.sourceforge.net/DTD/sodipodi-0.dtd"
   xmlns:inkscape="http://www.inkscape.org/namespaces/inkscape"
   inkscape:version="1.0 (4035a4fb49, 2020-05-01)"
   sodipodi:docname="bird.svg"
   viewBox="0 0 725.66931 725.66931"
   id="svg4"
   height=""
   width=""
   version="1.1">
  <metadata
     id="metadata10">
    <rdf:RDF>
      <cc:Work
         rdf:about="">
        <dc:format>image/svg+xml</dc:format>
        <dc:type
           rdf:resource="http://purl.org/dc/dcmitype/StillImage" />
        <dc:title />
      </cc:Work>
    </rdf:RDF>
  </metadata>
  <defs
     id="defs8" />
  <sodipodi:namedview
     inkscape:current-layer="svg4"
     inkscape:window-maximized="1"
     inkscape:window-y="-8"
     inkscape:window-x="-8"
     inkscape:cy="362.83466"
     inkscape:cx="362.83466"
     inkscape:zoom="0.79650605"
     showgrid="false"
     id="namedview6"
     inkscape:window-height="746"
     inkscape:window-width="1304"
     inkscape:pageshadow="2"
     inkscape:pageopacity="0"
     guidetolerance="10"
     gridtolerance="10"
     objecttolerance="10"
     borderopacity="1"
     bordercolor="#666666"
     pagecolor="#ffffff"
     inkscape:document-rotation="0" />
  <path
     id="path2-6"
     style="fill:#ff5555;fill-opacity:1;stroke:#000000;stroke-width:2;stroke-linecap:butt;stroke-linejoin:miter;stroke-dasharray:none;stroke-miterlimit:4"
     d="m 375.00225,666.47654 c 0.13433,0.0678 0.24766,0.12426 0.30215,0.15291 0.70836,0.37158 1.41049,0.75907 2.07996,1.19756 0.74194,0.48608 1.64114,1.15915 2.10779,1.92576 l 0.20959,0.34441 -0.38758,-0.10907 c -1.55712,-0.43822 -3.07768,-0.97042 -4.6256,-1.41033 -1.9662,-0.55862 -4.04584,-0.77458 -6.07346,-0.97612 -4.09004,-0.40636 -8.23971,-0.55092 -12.34866,-0.47495 -4.21473,0.0778 -8.49842,0.38564 -12.65925,1.07623 -3.74276,0.62125 -7.44262,1.77176 -11.19995,2.22676 l -0.61373,0.0742 0.80228,-0.57562 c 0.0499,-0.0323 0.0979,-0.0675 0.14832,-0.099 0.0491,-0.0306 0.0981,-0.0617 0.14788,-0.0915 0.18053,-0.10814 0.39228,-0.21531 0.581,-0.3113 6.53547,-3.31959 15.44047,-5.34797 22.77119,-5.70512 -0.0153,-0.76938 -0.14371,-1.63828 -0.24365,-2.38796 -0.19257,-1.44463 -0.42105,-2.88724 -0.6563,-4.3254 -0.63323,-3.87274 -1.33265,-7.7387 -2.04404,-11.59771 -1.11717,-6.05982 -2.2754,-12.11531 -3.46694,-18.16092 -1.99426,0.0578 -3.99102,0.15871 -5.98593,0.16365 -2.03971,0.005 -4.03354,-0.11107 -6.05407,-0.39334 l -8.33538,5.76866 c -2.85505,1.91018 -5.76801,3.75287 -8.77879,5.40775 -5.15536,2.83373 -11.83091,6.83382 -17.82139,7.00996 -1.06398,0.0312 -2.37724,-0.28427 -3.38455,-0.10879 -0.27101,0.45607 -1.37208,1.19887 -1.76442,1.4871 -0.71124,0.52265 -1.4171,1.05041 -2.11664,1.58858 -2.39001,1.8384 -4.80743,3.64755 -7.22031,5.45562 -3.73979,2.80247 -7.49067,5.59068 -11.25396,8.3613 -4.30552,3.16999 -8.62805,6.33222 -13.00323,9.40482 -0.87617,0.61538 -6.00174,4.26972 -6.88312,4.39923 -2.20248,0.32346 -3.27778,-1.81006 -3.67028,-3.62323 -0.47966,-2.21693 -0.0216,-4.66519 0.44467,-6.8475 1.47072,-6.88407 4.73697,-12.91791 9.75323,-17.83562 l 0.68208,-0.90754 c -1.63897,0.29872 -2.15595,0.8963 -3.6692,1.66786 -1.34403,0.68505 -3.44667,1.22296 -4.7692,0.22068 -3.36472,-2.54978 3.91903,-13.67187 5.66119,-16.15241 1.00467,-1.43052 2.0551,-2.77036 3.16062,-4.12116 0.67851,-0.8289 1.35047,-1.65749 2.00504,-2.5221 l 22.07512,-24.72648 c 1.03235,-1.64305 1.78009,-3.46555 2.73745,-5.15478 0.43638,-0.76965 0.9479,-1.52244 1.42772,-2.26702 0.4379,-0.67958 1.2514,-1.87714 1.52348,-2.66639 -2.78642,-2.58146 -3.05558,-4.78114 -2.4847,-8.51898 0.26857,-1.75826 0.81778,-3.57045 1.38498,-5.25333 0.76713,-2.2757 1.66221,-4.52107 2.59867,-6.7317 2.269,-5.35578 4.83648,-10.62821 7.47778,-15.80893 2.50805,-4.91962 5.1181,-9.7929 7.80734,-14.6154 2.00439,-3.59448 4.05336,-7.19591 6.21024,-10.70102 2.49559,-4.05512 4.83047,-8.2135 7.44138,-12.19633 1.98353,-3.02582 3.94606,-6.0875 6.0934,-8.9998 2.22448,-3.01725 4.62657,-5.77354 7.26533,-8.43456 2.90266,-2.92722 5.9031,-5.42561 9.32497,-7.73142 2.73204,-1.84133 5.35958,-3.30196 8.50346,-4.30711 2.42712,-0.77617 4.96762,-1.32172 7.43065,-2.00526 0.13808,-5.80696 1.08299,-12.04916 2.43221,-17.68444 0.95554,-3.99039 2.16918,-7.50549 3.86129,-11.23764 0.51053,-1.12593 1.22989,-2.16771 1.71405,-3.29267 -0.34717,-0.19751 -0.8037,-0.38396 -1.15053,-0.54099 -0.71091,-0.32211 -1.42323,-0.64046 -2.12958,-0.97255 -0.71334,-0.33549 -1.43671,-0.68527 -2.11988,-1.07932 -1.79265,-1.03423 -3.49965,-2.14156 -5.20406,-3.31422 -1.67273,-1.151 -3.25996,-2.41059 -4.855,-3.6654 -0.77147,-0.60693 -1.51017,-1.25281 -2.28174,-1.85929 -0.40632,-0.3195 -0.77818,-0.67768 -1.18276,-0.99918 -0.35838,-0.28488 -0.69926,-0.67047 -1.06734,-0.92274 l -0.8232,-0.56432 0.95711,0.28129 c 0.92709,0.27245 1.86745,0.62315 2.80408,0.84275 1.14993,0.26952 2.26683,0.2546 3.4243,0.15492 -0.99778,-0.74507 -2.24734,-1.3011 -3.25097,-2.05355 -3.07307,-2.30386 -7.00808,-6.94148 -7.59229,-10.82974 l -0.0673,-0.44793 0.3315,0.3081 c 0.40291,0.37441 0.80012,0.75555 1.20888,1.12344 0.9064,0.81615 1.82233,1.47463 2.86616,2.10668 5.28309,3.19853 12.4676,3.37005 18.45998,3.0804 3.82931,-0.1852 7.65745,-0.59466 11.46684,-1.01964 4.04752,-0.45157 8.09199,-0.93119 12.15089,-1.27202 9.83643,-0.82597 20.62931,-0.95365 29.83328,3.10781 3.22268,1.42216 6.50675,3.38498 9.04735,5.84876 0.63063,0.61158 1.33682,1.13531 1.95516,1.77442 l 3.43471,3.99054 0.005,0.007 c 0.22431,0.32596 0.48491,0.91861 0.74145,1.17375 0.051,0.0508 0.11685,0.11508 0.16814,0.17933 0.11549,0.0203 0.25107,0.0807 0.32306,0.11091 l 0.81518,0.29009 c 0.46065,-0.0559 1.22442,0.0197 1.67694,0.051 1.11029,0.0768 2.22107,0.18059 3.32875,0.28732 3.13072,0.30175 6.25922,0.64675 9.385,0.9944 2.82651,0.3144 5.65199,0.63634 8.478,0.9541 1.78902,0.2012 3.58995,0.41885 5.38265,0.5794 l 0.20053,0.018 -0.0648,0.19089 c -0.32046,0.94612 -5.94032,5.9238 -7.08029,7.04913 l -7.2447,7.1511 c -0.81349,0.78691 -1.6686,1.51386 -2.44445,2.34168 -0.75289,0.80303 -1.41759,1.7021 -2.32291,2.34364 0.0356,0.78615 0.27209,1.72238 0.45621,2.47776 0.18823,0.77139 0.40323,1.54865 0.55923,2.32644 0.33335,1.66275 0.61877,3.3344 0.88057,5.00991 0.54141,3.46696 0.83256,6.96638 1.37782,10.4473 0.84156,12.9013 2.52002,26.6372 -0.40155,39.36958 -0.31846,1.38771 -0.8427,2.72407 -1.13028,4.1148 -0.39586,1.91318 -0.7479,3.83536 -1.14728,5.74713 -0.48492,2.32089 -1.08072,4.57179 -1.76919,6.84087 -0.80029,2.63822 -1.70284,5.22767 -2.69402,7.79975 -0.94783,2.45947 -2.29587,4.83621 -3.08954,7.3371 l -0.0118,0.0369 -0.0274,0.0273 c -0.27317,0.27288 -0.91588,1.61613 -1.11305,2.00666 -0.32631,0.64665 -0.64401,1.32866 -0.99697,1.9588 -3.94346,7.03823 -8.31387,13.74269 -13.4831,19.94491 -5.55502,6.66523 -11.81076,12.47306 -18.62492,17.82412 -2.38075,1.8696 -4.82955,3.65954 -7.38749,5.28301 l -5.94541,3.66291 c -0.63382,0.35623 -1.50045,0.61066 -1.71615,1.38617 0.1001,0.96137 0.30843,1.89685 0.45322,2.84958 0.14252,0.93705 0.28346,1.87405 0.43519,2.80969 l 4.65907,28.73797 c 0.61162,3.77246 1.43969,7.56598 1.80912,11.36991 6.57615,-0.10689 15.34931,0.41652 20.75433,4.484 0.6933,0.52157 1.21966,1.19453 1.89709,1.70486 l 0.85358,0.64312 -1.00314,-0.36746 c -10.68493,-3.91409 -25.14685,-3.72971 -36.2837,-1.90438 -1.79514,0.29442 -3.58919,0.59585 -5.37664,0.93428 -1.88772,0.35742 -3.96952,0.75153 -5.79136,1.35542 z m -0.21147,-0.10782 1.63778,-1.11286 0.0224,-0.007 c 1.5158,-0.47175 2.94811,-1.25004 4.43352,-1.8181 2.2859,-0.87411 4.66709,-1.61029 7.03744,-2.21569 2.39474,-0.61153 4.98647,-1.15361 7.4624,-1.31325 l -7.08593,-43.93151 c -0.88332,0.0795 -2.90082,1.25616 -3.69049,1.60274 -3.23206,1.4183 -6.48389,2.78571 -9.80837,3.97329 -3.58367,1.28021 -7.21262,2.32474 -10.90328,3.24596 -0.59656,0.14906 -1.22073,0.26133 -1.82493,0.37712 -0.8843,0.16951 -1.76952,0.33382 -2.65376,0.50328 -0.74731,0.14319 -3.78177,0.6811 -4.54613,1.04454 l 3.42381,18.24986 c 0.54759,3.11123 1.08651,6.22441 1.571,9.34622 0.23384,1.50735 0.40642,3.03075 0.61063,4.5432 0.21099,1.56334 0.43395,3.33609 0.86063,4.8608 2.23569,0.0464 4.50296,0.31982 6.70361,0.69803 2.11326,0.36317 4.04139,1.02962 6.09832,1.57522 l 0.0418,0.0111 0.0304,0.0309 c 0.0625,0.0629 0.32382,0.20447 0.57917,0.33626 z" />
</svg>
