<?xml version="1.0" encoding="UTF-8" standalone="no"?>
<svg
   xmlns:dc="http://purl.org/dc/elements/1.1/"
   xmlns:cc="http://creativecommons.org/ns#"
   xmlns:rdf="http://www.w3.org/1999/02/22-rdf-syntax-ns#"
   xmlns:svg="http://www.w3.org/2000/svg"
   xmlns="http://www.w3.org/2000/svg"
   xmlns:sodipodi="http://sodipodi.sourceforge.net/DTD/sodipodi-0.dtd"
   xmlns:inkscape="http://www.inkscape.org/namespaces/inkscape"
   inkscape:version="1.0 (4035a4fb49, 2020-05-01)"
   sodipodi:docname="Eevee1.svg"
   viewBox="0 0 725.66931 725.66931"
   id="svg58"
   height=""
   width=""
   version="1.1">
  <metadata
     id="metadata64">
    <rdf:RDF>
      <cc:Work
         rdf:about="">
        <dc:format>image/svg+xml</dc:format>
        <dc:type
           rdf:resource="http://purl.org/dc/dcmitype/StillImage" />
        <dc:title></dc:title>
      </cc:Work>
    </rdf:RDF>
  </metadata>
  <defs
     id="defs62" />
  <sodipodi:namedview
     inkscape:current-layer="svg58"
     inkscape:window-maximized="1"
     inkscape:window-y="-8"
     inkscape:window-x="-8"
     inkscape:cy="441.9301"
     inkscape:cx="274.95083"
     inkscape:zoom="0.79650605"
     showgrid="false"
     id="namedview60"
     inkscape:window-height="746"
     inkscape:window-width="1304"
     inkscape:pageshadow="2"
     inkscape:pageopacity="0"
     guidetolerance="10"
     gridtolerance="10"
     objecttolerance="10"
     borderopacity="1"
     bordercolor="#666666"
     pagecolor="#ffffff" />
  <g
     id="Layer1000">
    <path
       id="path2"
       style="fill:#02d402;fill-rule:evenodd"
       d="M 156.9112,637.4426 V 658.406 H 56.8281 v 11.7949 L 12.1952,647.9243 56.8281,625.6477 v 11.7949 z" />
    <path
       id="path4"
       style="fill:#02d402;fill-rule:evenodd"
       d="m 56.8282,682.1213 v 20.9633 h 100.0831 v 11.795 l 44.6329,-22.2767 -44.6329,-22.2766 v 11.795 z" />
  </g>
  <g
     id="Layer1001">
    <path
       id="path7"
       style="fill:#f9eac1;fill-rule:evenodd;stroke:#000000;stroke-width:2.0001;stroke-linecap:butt;stroke-linejoin:miter;stroke-dasharray:none"
       d="m 466.453,404.4423 -259.8835,21.7494 c -19.9814,11.4511 -33.5151,27.7861 -40.9878,42.653 -3.5282,7.3425 -9.1127,11.7416 -14.6317,18.8397 7.6575,-1.1511 13.5575,-3.9242 21.9813,-10.6794 -17.5786,23.7511 -18.3213,53.2514 -7.9144,86.5591 l 6.7376,-28.2817 c 0.4697,15.4806 4.397,30.1066 11.5253,43.9422 1.8258,-5.7758 1.8812,-12.0627 -0.6196,-19.0845 8.2009,22.9437 28.1088,36.2177 55.4917,43.3174 12.1021,26.8999 40.8567,40.3367 76.6959,54.132 l -9.6877,-12.4885 c 21.851,7.299 36.4256,19.8369 52.2185,42.2351 l -1.5281,-23.9852 8.2989,24.8802 c 2.2405,-11.7657 5.7903,-22.7969 10.7734,-33.0234 l -0.3923,19.4258 c 7.805,-13.1343 16.039,-23.9519 24.5783,-33.1253 l 1.3115,12.0443 9.1165,-12.1343 0.9377,13.3425 c 10.689,-16.9598 22.3481,-33.5037 35.707,-49.3192 l 14.8358,-14.4238 1.5984,16.9065 12.0849,-20.979 -1.1313,8.8107 c 9.3087,-10.4061 17.7015,-16.9907 24.4338,-22.1705 24.3772,-18.7558 36.0486,-53.3407 28.335,-77.6189 l 13.2922,23.6471 -2.6224,-24.0888 11.2,12.3614 c -2.0835,-17.3187 -7.7644,-33.5905 -17.6198,-48.6491 4.1465,3.7412 6.9858,3.5576 11.9222,2.1627 l -11.4834,-8.0804 c 8.1325,1.8069 15.6165,1.4709 22.6926,-0.2133 -18.2971,-11.5594 -33.3363,-23.9229 -44.9745,-37.1268 -15.9257,-12.5712 -29.9187,-15.9188 -42.292,-11.537 z" />
    <path
       id="path9"
       style="fill:#000000;fill-rule:evenodd;stroke:#000000;stroke-width:2.0001;stroke-linecap:round;stroke-linejoin:bevel;stroke-dasharray:none"
       d="m 266.0965,488.2826 c -6.7509,5.2297 -11.4942,10.3412 -14.6454,15.1079" />
    <path
       id="path11"
       style="fill:none;fill-rule:evenodd;stroke:#000000;stroke-width:2.0001;stroke-linecap:round;stroke-linejoin:bevel;stroke-dasharray:none"
       d="m 237.5744,529.6171 c -11.9301,20.4558 -7.631,46.4592 0.5775,73.8404" />
    <path
       id="path13"
       style="fill:#000000;fill-rule:evenodd;stroke:#000000;stroke-width:2.0001;stroke-linecap:round;stroke-linejoin:bevel;stroke-dasharray:none"
       d="m 285.8509,521.5888 c -5.3261,9.1002 -9.1964,18.0644 -10.0929,26.7535" />
    <path
       id="path15"
       style="fill:none;fill-rule:evenodd;stroke:#000000;stroke-width:2.0001;stroke-linecap:round;stroke-linejoin:bevel;stroke-dasharray:none"
       d="m 273.5076,569.3414 c -0.4908,27.4195 10.1666,49.6324 30.0315,67.5446" />
    <path
       id="path17"
       style="fill:none;fill-rule:evenodd;stroke:#000000;stroke-width:2.0001;stroke-linecap:round;stroke-linejoin:bevel;stroke-dasharray:none"
       d="m 408.6526,517.8694 c 20.7351,28.0869 24.1605,53.9045 13.8307,77.9201" />
    <path
       id="path19"
       style="fill:none;fill-rule:evenodd;stroke:#000000;stroke-width:2.0001;stroke-linecap:round;stroke-linejoin:bevel;stroke-dasharray:none"
       d="m 435.0439,587.3172 c -6.6725,19.7815 -18.8037,37.795 -35.9351,54.191" />
    <path
       id="path21"
       style="fill:#000000;fill-rule:evenodd;stroke:#000000;stroke-width:2.0001;stroke-linecap:round;stroke-linejoin:bevel;stroke-dasharray:none"
       d="M 446.8973,507.0929 C 440.0549,497.7026 431.179,488.7292 420.772,479.9993" />
    <path
       id="path23"
       style="fill:none;fill-rule:evenodd;stroke:#000000;stroke-width:2.0001;stroke-linecap:round;stroke-linejoin:bevel;stroke-dasharray:none"
       d="m 450.9912,519.2359 c 14.3955,24.5103 12.0332,53.4461 -4.8097,86.2056" />
    <path
       id="path25"
       style="fill:#8b581f;fill-rule:evenodd;stroke:#000000;stroke-width:0.5669;stroke-linecap:butt;stroke-linejoin:miter;stroke-dasharray:none"
       d="m 221.8644,377.7061 106.3249,-19.711 117.6061,15.7647 2.9479,18.1035 -17.3701,29.2325 -30.9555,11.6743 -169.6654,-0.4947 z" />
    <path
       id="path27"
       style="fill:#000000;fill-rule:evenodd;stroke:#000000;stroke-width:0.5669;stroke-linecap:butt;stroke-linejoin:miter;stroke-dasharray:none"
       d="m 287.664,397.9171 -13.7909,-11.8523 c -2.8476,-7.735 -6.5949,-11.8428 -11.7883,-10.1314 3.8246,29.8648 -16.9414,36.3598 -17.951,4.2492 -5.4301,4.9291 -8.8384,10.2627 -10.0158,16.0419 l -16.6477,-15.7064 16.4114,-58.9519 48.6624,-5.9491 z" />
    <path
       id="path29"
       style="fill:#000000;fill-rule:evenodd;stroke:#000000;stroke-width:0.5669;stroke-linecap:butt;stroke-linejoin:miter;stroke-dasharray:none"
       d="m 378.0623,409.1146 4.4352,2.8062 c 2.5031,-9.8285 7.4152,-21.6552 13.6813,-29.3576 2.8176,39.4861 27.6999,26.8598 20.6764,-5.2923 5.5093,-0.6266 12.4587,7.3818 19.415,16.9056 l 4.5941,-77.9571 -73.6093,10.5744 z" />
    <path
       id="path31"
       style="fill:#c89553;fill-rule:evenodd;stroke:#000000;stroke-width:2;stroke-linecap:butt;stroke-linejoin:miter;stroke-dasharray:none;stroke-miterlimit:4"
       d="m 208.8319,408.5694 -4.5253,35.2446 c 70.633,90.2911 233.3585,58.1552 258.5837,-3.7013 l 12.1087,-127.9684 -41.5153,-63.7976 -27.9664,-24.9203 -9.3966,-14.232 c -1.8911,5.2655 -3.7818,10.5313 -5.6729,15.7968 l -20.8388,-26.2416 -2.095,15.5269 -6.6946,-2.9461 -0.5919,5.4148 -40.1541,-38.3033 0.9089,36.3875 -20.0762,-8.8731 0.7054,8.7781 -34.8188,-22.1141 2.8114,31.7338 -31.8359,-10.9935 8.6723,23.5821 -2.7929,4.8183 -12.8706,-3.1433 7.0209,14.6724 -12.5369,15.2261 -20.5506,41.5941 c -5.1608,31.2955 -4.4166,63.9689 4.1215,98.4591 z m 43.8303,-80.5696 c 20.3383,-5.1046 32.5883,91.7524 4.4072,95.0271 -31.5,-3.092 -35.3955,-84.3437 -4.4072,-95.0271 z m 154.6904,-0.7226 c 31.6024,15.9123 34.8768,91.3634 1.0423,98.4156 -14.2049,1.0529 -22.5082,-8.9503 -25.6826,-23.1526 -5.4121,-24.2111 4.0794,-60.6249 24.6403,-75.263 z" />
    <path
       id="path33"
       style="fill:#000000;fill-rule:evenodd;stroke:#000000;stroke-width:0.5669;stroke-linecap:butt;stroke-linejoin:miter;stroke-dasharray:none"
       d="m 314.352,425.0699 c 5.245,7.3221 11.0233,6.9666 17.1603,1.4267 -4.3053,-2.9948 -9.7746,-3.9188 -17.1603,-1.4267 z" />
    <path
       id="path35"
       style="fill:none;fill-rule:evenodd;stroke:#000000;stroke-width:2.0001;stroke-linecap:round;stroke-linejoin:round;stroke-dasharray:none"
       d="m 286.5166,449.737 c 3.7658,1.8106 7.5321,3.6212 11.2979,5.4318 18.896,-4.1193 35.0671,-3.0688 49.4173,1.4368 9.9986,-0.3897 16.7221,-3.7934 22.2735,-8.2764" />
    <path
       id="path37"
       style="fill:#ffffff;fill-rule:evenodd"
       d="m 248.452,359.5683 c 7.4761,-1.1682 10.3966,-15.6615 2.8673,-22.6493 -10.8344,3.5921 -12.0121,20.0989 -2.8673,22.6493 z" />
    <path
       id="path39"
       style="fill:#ffffff;fill-rule:evenodd"
       d="m 404.7025,360.3244 c 7.4761,-1.1681 10.3966,-15.6614 2.8673,-22.6493 -10.8344,3.5922 -12.0121,20.099 -2.8673,22.6493 z" />
    <path
       id="path41"
       style="fill:#000000;fill-rule:evenodd;stroke:#000000;stroke-width:2.0001;stroke-linecap:round;stroke-linejoin:miter;stroke-dasharray:none"
       d="m 270.6958,319.582 c 5.1218,3.6663 7.4298,8.8036 7.6972,15.0078" />
    <path
       id="path43"
       style="fill:#000000;fill-rule:evenodd;stroke:#000000;stroke-width:2.0001;stroke-linecap:round;stroke-linejoin:miter;stroke-dasharray:none"
       d="m 390.4858,319.4926 c -6.366,4.5778 -10.3803,9.4837 -11.7012,14.7642" />
    <path
       id="path45"
       style="fill:#c89553;fill-rule:evenodd;stroke:#000000;stroke-width:2.0001;stroke-linecap:butt;stroke-linejoin:miter;stroke-dasharray:none"
       d="m 423.0015,267.1862 35.1087,43.5637 c 47.8093,-12.3499 95.9895,-21.2339 132.4606,-54.3534 49.9663,-56.3793 77.1653,-105.9404 98.3751,-153.7089 -52.0792,12.8633 -134.1683,44.027 -181.3629,68.9489 -34.8341,22.4104 -61.9823,55.747 -84.5815,95.5497 z" />
    <path
       id="path47"
       style="fill:#6d3e0a;fill-rule:evenodd;stroke:#000000;stroke-width:2.0001;stroke-linecap:butt;stroke-linejoin:miter;stroke-dasharray:none"
       d="m 464.9749,258.7163 -26.6217,18.375 c 13.9601,-25.8241 32.2351,-50.3229 56.1843,-73.0834 39.7799,-26.2916 113.1364,-62.2314 160.4355,-74.1319 -18.7499,38.5234 -44.5338,76.2884 -77.1309,110.8256 -15.6853,17.8908 -60.6631,36.6964 -122.8095,55.1079 l 12.3503,-14.5771 -14.0712,3.2226 z" />
    <path
       id="path49"
       style="fill:#c89553;fill-rule:evenodd"
       d="m 413.9012,264.7632 17.1894,-15.9905 5.0683,3.6985 -8.397,16.6344 31.1748,38.6874 11.389,-2.8302 1.1789,6.2215 -25.4997,14.9026 z" />
    <path
       id="path51"
       style="fill:#c89553;fill-rule:evenodd;stroke:#000000;stroke-width:2.0001;stroke-linecap:butt;stroke-linejoin:miter;stroke-dasharray:none"
       d="m 213.986,312.4692 21.5351,-42.0855 C 196.3101,147.4536 176.185,127.7376 81.9762,36.3928 63.8348,178.2092 135.0912,276.1371 204.7104,310.1103 Z" />
    <path
       id="path53"
       style="fill:#6d3e0a;fill-rule:evenodd;stroke:#000000;stroke-width:2.0001;stroke-linecap:butt;stroke-linejoin:miter;stroke-dasharray:none"
       d="m 217.2702,277.1509 2.3425,-2.2775 C 204.1098,192.7511 151.9343,127.3049 92.8468,69.1325 c -3.903,97.3098 33.3653,173.4712 114.4609,225.5323 l -8.5184,-16.9352 11.0462,5.7149 -5.9762,-17.3238 z" />
    <path
       id="path55"
       style="fill:#c89553;fill-rule:evenodd"
       d="m 240.7085,269.2233 -6.1349,-9.2693 -3.6621,3.4436 1.7566,8.8521 -19.1769,36.5787 -6.5039,-0.8707 -1.0377,5.0841 9.5776,2.628 z" />
  </g>
</svg>
