<?xml version="1.0" encoding="UTF-8" standalone="no"?>
<svg
   xmlns:dc="http://purl.org/dc/elements/1.1/"
   xmlns:cc="http://creativecommons.org/ns#"
   xmlns:rdf="http://www.w3.org/1999/02/22-rdf-syntax-ns#"
   xmlns:svg="http://www.w3.org/2000/svg"
   xmlns="http://www.w3.org/2000/svg"
   xmlns:sodipodi="http://sodipodi.sourceforge.net/DTD/sodipodi-0.dtd"
   xmlns:inkscape="http://www.inkscape.org/namespaces/inkscape"
   version="1.1"
   width=""
   height=""
   id="svg44"
   viewBox="0 0 725.66931 725.66931"
   sodipodi:docname="Changeling.svg"
   inkscape:version="1.0 (4035a4fb49, 2020-05-01)">
  <metadata
     id="metadata48">
    <rdf:RDF>
      <cc:Work
         rdf:about="">
        <dc:format>image/svg+xml</dc:format>
        <dc:type
           rdf:resource="http://purl.org/dc/dcmitype/StillImage" />
        <dc:title />
      </cc:Work>
    </rdf:RDF>
  </metadata>
  <sodipodi:namedview
     inkscape:document-rotation="0"
     pagecolor="#ffffff"
     bordercolor="#666666"
     borderopacity="1"
     objecttolerance="10"
     gridtolerance="10"
     guidetolerance="10"
     inkscape:pageopacity="0"
     inkscape:pageshadow="2"
     inkscape:window-width="1304"
     inkscape:window-height="746"
     id="namedview46"
     showgrid="false"
     inkscape:zoom="0.39825303"
     inkscape:cx="351.53531"
     inkscape:cy="370.36756"
     inkscape:window-x="-8"
     inkscape:window-y="-8"
     inkscape:window-maximized="1"
     inkscape:current-layer="svg44" />
  <defs
     id="defs23">
    <linearGradient
       id="grad1"
       gradientTransform="scale(1.2689128,0.78807623)"
       x1="447.64362"
       y1="890.67371"
       x2="315.87869"
       y2="773.60016"
       gradientUnits="userSpaceOnUse">
      <stop
         offset="0%"
         stop-color="#57c6d9"
         stop-opacity="1.0000"
         id="stop18" />
      <stop
         offset="100%"
         stop-color="#ffffff"
         stop-opacity="1.0000"
         id="stop20" />
    </linearGradient>
  </defs>
  <defs
     id="defs34">
    <linearGradient
       id="grad2"
       gradientTransform="scale(0.89889685,1.1124747)"
       x1="339.92871"
       y1="422.13303"
       x2="229.27318"
       y2="444.58304"
       gradientUnits="userSpaceOnUse">
      <stop
         offset="0%"
         stop-color="#57c6d9"
         stop-opacity="1.0000"
         id="stop29" />
      <stop
         offset="100%"
         stop-color="#ffffff"
         stop-opacity="1.0000"
         id="stop31" />
    </linearGradient>
  </defs>
  <g
     style="stroke-width:1.22666"
     transform="matrix(0.81471464,0,0,0.81572535,67.734672,57.417984)"
     id="g870">
    <path
       id="path2"
       style="fill:#4c4b4b;fill-rule:evenodd;stroke:#1f1f1f;stroke-width:15.6472;stroke-linecap:butt;stroke-linejoin:miter;stroke-dasharray:none"
       d="M 498.847,549.3455 402.5845,217.8451 501.3971,31.0577 c 5.2719,17.4844 4.0785,36.4904 -5.1,57.375 l 33.1501,-19.7626 c -57.4458,97.3912 -2.748,119.821 98.8125,110.925 -62.8956,76.7405 -44.4192,121.9487 28.6876,145.9878 -69.508,30.3837 -77.3303,73.1044 -36.3376,125.5875 -58.8638,8.9612 -68.4284,42.0367 -49.0875,89.2501 l -57.375,-3.1875 z" />
    <path
       id="path4"
       style="fill:#7a7a7a;fill-rule:evenodd;stroke:#7a7a7a;stroke-width:0.695395;stroke-linecap:butt;stroke-linejoin:miter;stroke-dasharray:none"
       d="m 521.7818,351.9274 113.4862,-28.8322 7.1248,3.1853 -13.4554,7.6319 -104.9857,26.6726 z" />
    <path
       id="path6"
       style="fill:#7a7a7a;fill-rule:evenodd;stroke:#7a7a7a;stroke-width:0.695395;stroke-linecap:butt;stroke-linejoin:miter;stroke-dasharray:none"
       d="m 492.673,286.3661 114.4988,-99.5282 8.7168,-0.6419 -8.786,12.528 -108.5955,94.3966 z" />
    <path
       id="path8"
       style="fill:#7a7a7a;fill-rule:evenodd;stroke:#7a7a7a;stroke-width:0.695395;stroke-linecap:butt;stroke-linejoin:miter;stroke-dasharray:none"
       d="m 517.2279,429.754 90.014,12.1491 3.3962,5.3324 -10.4051,2.7278 -84.2578,-11.3723 z" />
    <path
       id="path10"
       style="fill:#1f1f1f;fill-rule:evenodd;stroke:#1f1f1f;stroke-width:0.695395;stroke-linecap:butt;stroke-linejoin:miter;stroke-dasharray:none"
       d="m 557.4407,662.3698 c 1.9798,4.1428 5.7927,21.2505 7.0582,26.6645 -3.7942,-0.8866 -6.2143,-2.1887 -8.8316,-4.4934 -3.6243,-3.1917 -3.3756,-4.0868 -4.8266,-9.2883 -7.6919,-27.5771 -11.3032,-36.0228 -15.901,-68.0131 -2.0822,-14.4884 -4.9924,-35.2057 -5.7264,-49.9549 l -1.5711,-25.8779 c -0.2442,-4.5187 0.3321,-9.6126 -0.0374,-14.0794 -2.2082,-26.6876 -1.9569,-65.3781 1.9109,-92.2884 -8.7726,-65.1595 -29.021,-127.4974 -89.7059,-179.8914 -43.3745,-20.7892 -93.5643,-28.0063 -141.629,-18.497 -10.5716,2.0918 -18.706,4.8549 -28.0638,8.0129 -8.8389,2.9825 -16.8606,6.9375 -25.0724,11.0038 -20.4748,10.1386 -39.0957,25.2634 -54.8464,41.6179 l -10.7655,13.5469 c -6.5714,9.3084 -12.7016,20.4427 -16.3799,31.4605 -2.138,6.403 -3.7632,12.2755 -5.4231,18.889 -1.7127,6.822 -2.8732,13.035 -4.0823,20.2303 l -2.5692,21.7425 c -0.8887,6.8127 -1.9534,26.5068 -0.8959,33.4911 0.6301,4.1614 0.0316,8.0377 0.3723,12.1753 1.2187,14.8021 3.3417,28.8146 5.8984,42.7261 5.2358,28.4945 7.5143,29.7805 -22.1913,43.0108 -4.8828,2.1748 -12.028,5.0789 -13.8328,10.4822 -6.076,18.1898 25.4249,54.42 34.7935,60.6755 l 12.5447,7.8355 c 2.5716,3.8632 14.9181,9.4788 19.5956,11.7826 14.7279,7.2539 32.072,12.7875 48.7393,15.5713 39.3856,6.5784 79.013,1.8674 116.5578,-5.5829 8.2669,-1.6405 17.72,-5.3822 26.0714,-6.0788 -2.2321,3.0296 -17.9801,10.6478 -22.7435,11.7567 0,2.7982 -0.5541,6.6819 -0.9173,10.0649 l -1.4623,31.531 2.2083,29.3232 h -14.8483 c -1.863,-16.8216 -2.2903,-33.2324 -0.7766,-46.7183 0.3654,-3.2553 -0.009,-6.8105 0.0891,-10.1064 0.1186,-4.0007 0.8095,-4.3053 0.8095,-8.6009 -3.8332,0.0852 -30.7709,8.6254 -72.1511,8.6267 -34.077,10e-4 -54.6054,-3.9165 -84.4819,-16.6865 -31.9164,-13.6419 -57.445,-37.3875 -71.3675,-69.7979 -4.3903,-10.219 -9.9776,-21.7538 -3.0525,-30.8524 5.7507,-7.5559 15.0072,-7.3323 25.5886,-14.408 16.0485,-10.7315 16.1637,-10.0231 12.6979,-23.6966 -3.807,-15.0181 -5.4963,-27.0002 -7.6578,-42.5345 -0.448,-3.2194 -0.9535,-6.2819 -1.1058,-9.0895 -1.4338,-26.4581 -2.1493,-26.1289 -0.0499,-57.2552 1.1951,-17.7234 5.1625,-33.777 10.7038,-49.6841 0.9694,-2.7838 1.761,-4.6727 2.9228,-7.2722 1.0424,-2.3314 1.8092,-4.5332 2.8672,-6.5409 1.4915,-2.8228 2.4631,-5.8746 3.9215,-8.6268 0.9365,-1.9443 0.9831,-2.8063 2.1935,-4.8676 l 15.5127,-22.9156 c 1.3562,-1.7347 1.3237,-1.8539 2.8681,-3.4057 l 26.4833,-24.4956 c 2.2491,-1.5091 7.2122,-4.3472 8.6244,-6.2714 2.5193,-0.6713 3.7713,-2.0129 5.9511,-3.4625 l 11.5765,-6.4612 c 2.4999,-1.2592 3.1668,-2.0025 5.4724,-3.1549 2.4158,-1.2082 4.0537,-1.6074 6.5464,-2.8642 41.5658,-20.9642 98.7931,-25.3177 143.188,-16.4078 13.2048,2.65 41.3601,10.8053 53.9171,17.4497 66.9047,45.8908 85.7097,114.3275 97.9874,185.8238 -0.0199,15.5142 -1.0901,30.132 -1.5501,45.5053 l 0.007,59.647 c -0.0214,5.2023 0.8286,6.765 0.8291,11.7195 0.002,11.1363 1.7307,22.6498 2.3033,32.9875 0.784,14.1555 3.2401,29.5769 5.4038,42.4359 1.1895,7.0678 2.041,13.1723 3.4392,20.0882 l 3.728,19.7996 z" />
    <path
       id="path12"
       style="fill:#353535;fill-rule:evenodd;stroke:#353535;stroke-width:0.695395;stroke-linecap:butt;stroke-linejoin:miter;stroke-dasharray:none"
       d="m 253.3405,391.9923 c -4.2385,4.5293 -14.0698,18.8848 -16.9201,24.6453 -4.5252,9.1447 -12.2835,26.3697 -12.2835,36.7346 -4.5778,21.2418 -4.1339,42.5143 0.7883,63.8139 10.5349,17.3299 23.4133,35.6277 43.6166,41.9619 2.8287,0.8864 7.3866,1.9144 10.484,2.063 12.3728,0.5944 21.0807,-1.3115 31.1154,-5.76 10.9036,-4.8333 13.2695,-7.3722 23.0095,-13.8541 50.1105,-33.5741 79.5887,-162.6915 4.6109,-183.7873 -8.6846,-3.5242 -32.8928,-2.3661 -47.109,3.9813 -5.1794,2.3125 -8.6587,3.9084 -16.94,11.0377 -8.9338,7.6907 -17.3543,15.8515 -20.3721,19.1637 z M 568.0207,701.9188 H 355.7164 l -2.2085,-29.3232 1.4625,-31.5305 c 0.3632,-3.3835 0.9173,-7.2672 0.9173,-10.065 l -3.3279,-5.6783 c -37.5448,7.4505 -77.1726,12.1615 -116.5578,5.5829 -16.6673,-2.7838 -34.0114,-8.3174 -48.7393,-15.5715 -4.6773,-2.3036 -17.024,-7.9194 -19.5958,-11.782 l -12.5445,-7.8359 c -9.3682,-6.2555 -40.8695,-42.4859 -34.7937,-60.6755 1.8052,-5.4033 8.9502,-8.3074 13.833,-10.482 29.7058,-13.2307 27.4273,-14.5162 22.1911,-43.011 -2.5565,-13.9115 -4.6795,-27.9238 -5.8982,-42.7261 -0.3407,-4.1378 0.2576,-8.0139 -0.3721,-12.1753 -1.0572,-6.9846 0.007,-26.6784 0.8955,-33.4915 l 2.5696,-21.7421 c 1.2089,-7.1955 2.3694,-13.4085 4.0821,-20.2303 1.6597,-6.6133 3.2854,-12.486 5.4231,-18.889 3.6783,-11.0178 9.8087,-22.1521 16.3802,-31.4603 l 10.7652,-13.5471 c 15.7507,-16.3545 34.3712,-31.4793 54.8466,-41.6181 8.2116,-4.0661 16.2333,-8.0211 25.0722,-11.0034 9.3578,-3.1582 17.4922,-5.9213 28.0638,-8.0128 48.0644,-9.5096 98.2545,-2.2925 141.629,18.4965 44.4466,28.4626 86.8813,118.2232 89.7059,179.8914 l -2.6505,30.2874 c 1.1233,20.3436 -0.9234,41.9014 0.7396,62.0009 0.3693,4.4671 -0.2066,9.561 0.0374,14.0795 l 1.5706,25.8781 c 0.7345,14.7492 3.6447,35.4665 5.7269,49.9547 4.598,31.9907 8.2094,40.4362 15.9012,68.0133 1.4508,5.2015 1.2021,6.0966 4.8259,9.2881 2.6178,2.3047 5.0379,3.607 8.8321,4.4936 z" />
    <path
       id="path14"
       style="fill:#ffffff;fill-rule:evenodd;stroke:#c0c6c7;stroke-width:6.95432;stroke-linecap:butt;stroke-linejoin:miter;stroke-dasharray:none"
       d="m 151.5217,570.841 c -3.7516,30.5227 20.8323,58.3334 35.6592,67.1944 -1.3558,-12.7356 -6.3618,-19.4292 -6.2682,-36.4032 0.0805,-14.6282 6.0563,-26.8798 5.6173,-36.0755 -14.0478,-2.1836 -24.1786,-2.1546 -35.0083,5.2843 z" />
    <path
       id="path16"
       style="fill:#353535;fill-rule:evenodd;stroke:#1f1f1f;stroke-width:15.6472;stroke-linecap:butt;stroke-linejoin:miter;stroke-dasharray:none"
       d="m 155.9041,317.3019 58.734,-69.648 C 152.3353,232.2703 115.8837,186.2014 76.6639,134.9661 c -3.6686,69.5832 17.3367,134.1572 79.2402,182.3358 z" />
    <path
       id="path25"
       style="fill:url(#grad1);stroke:#49adbf;stroke-width:8.69287;stroke-linecap:butt;stroke-linejoin:miter;stroke-dasharray:none"
       d="m 403.402,692.585 c 59.9061,-24.7549 87.3106,-55.7007 89.6995,-91.4113 6.536,8.4329 10.0118,18.043 10.6133,28.7586 l 31.6696,-31.3245 c 13.7949,-13.6447 49.6464,-16.4587 77.887,-12.8406 -28.6505,19.337 -45.6426,47.3099 -49.6428,84.9065 -14.5955,-19.9475 -31.6229,-26.2749 -53.0666,-7.8745 4.4509,10.3851 14.8358,17.1186 31.1552,20.1996 l -52.4724,29.7954 c -16.6745,9.4683 -59.5172,5.6293 -85.8428,-20.2092 z" />
    <path
       id="path27"
       style="fill:#353535;fill-rule:evenodd;stroke:#1f1f1f;stroke-width:15.6472;stroke-linecap:butt;stroke-linejoin:miter;stroke-dasharray:none"
       d="m 467.7102,315.4228 -60.244,-18.8063 c 50.4349,-67.5465 82.4306,-139.8526 97.8564,-205.5939 11.973,44.0148 9.9178,89.8597 -17.2124,138.9751 18.9152,-11.5133 32.2982,-30.7728 42.7126,-54.1876 1.3673,40.4568 -9.5282,82.9489 -28.3706,102.6365 -11.7952,12.3244 -23.3738,24.6499 -34.742,36.9762 z" />
    <path
       id="path36"
       style="fill:url(#grad2);stroke:#1f1f1f;stroke-width:10.4314;stroke-linecap:butt;stroke-linejoin:miter;stroke-dasharray:none"
       d="m 320.9737,355.872 c -37.8552,1.7116 -68.1542,27.6229 -84.5533,60.7656 -20.0456,40.5113 -24.681,92.1195 8.292,127.3186 7.5515,7.0345 15.472,12.2113 23.8294,15.1917 2.8284,0.8868 7.3866,1.9143 10.4837,2.0631 12.3728,0.5946 21.0811,-1.3117 31.1159,-5.7599 10.9035,-4.8334 13.2693,-7.3723 23.0093,-13.854 66.5857,-44.1346 75.8804,-187.8783 -12.177,-185.7251 z" />
    <path
       id="path38"
       style="fill:#353535;fill-rule:evenodd;stroke:#353535;stroke-width:0.695395;stroke-linecap:butt;stroke-linejoin:miter;stroke-dasharray:none"
       d="m 416.8494,292.8004 -8.5606,11.5524 48.482,15.5886 12.0453,-13.7555 z" />
    <path
       id="path40"
       style="fill:#353535;fill-rule:evenodd;stroke-width:1.22666"
       d="m 176.1973,286.6876 -9.0346,-5.7714 31.3027,-30.7998 11.774,2.7538 c -13.0909,10.4261 -23.4513,22.1837 -34.0421,33.8174 z" />
    <path
       id="path42"
       style="fill:#353535;fill-rule:evenodd;stroke-width:1.22666"
       d="m 184.5125,276.7184 -33.2354,28.461 8.6811,7.3153 c 6.5047,-12.8735 14.383,-22.9028 24.5543,-35.7763 z" />
  </g>
</svg>
