<?xml version="1.0" encoding="UTF-8" standalone="no"?>
<svg
   xmlns:dc="http://purl.org/dc/elements/1.1/"
   xmlns:cc="http://creativecommons.org/ns#"
   xmlns:rdf="http://www.w3.org/1999/02/22-rdf-syntax-ns#"
   xmlns:svg="http://www.w3.org/2000/svg"
   xmlns="http://www.w3.org/2000/svg"
   xmlns:sodipodi="http://sodipodi.sourceforge.net/DTD/sodipodi-0.dtd"
   xmlns:inkscape="http://www.inkscape.org/namespaces/inkscape"
   inkscape:version="1.0 (4035a4fb49, 2020-05-01)"
   sodipodi:docname="6.svg"
   viewBox="0 0 7256.6929 7256.6929"
   id="svg50"
   height=""
   width=""
   version="1.1">
  <metadata
     id="metadata56">
    <rdf:RDF>
      <cc:Work
         rdf:about="">
        <dc:format>image/svg+xml</dc:format>
        <dc:type
           rdf:resource="http://purl.org/dc/dcmitype/StillImage" />
        <dc:title></dc:title>
      </cc:Work>
    </rdf:RDF>
  </metadata>
  <defs
     id="defs54" />
  <sodipodi:namedview
     inkscape:current-layer="svg50"
     inkscape:window-maximized="0"
     inkscape:window-y="0"
     inkscape:window-x="0"
     inkscape:cy="3628.3464"
     inkscape:cx="3628.3464"
     inkscape:zoom="0.034097919"
     showgrid="false"
     id="namedview52"
     inkscape:window-height="480"
     inkscape:window-width="820"
     inkscape:pageshadow="2"
     inkscape:pageopacity="0"
     guidetolerance="10"
     gridtolerance="10"
     objecttolerance="10"
     borderopacity="1"
     bordercolor="#666666"
     pagecolor="#ffffff" />
  <path
     id="path2"
     style="fill:#4b4a4f;fill-rule:evenodd;stroke:#1b1918;stroke-width:0.5669;stroke-linecap:butt;stroke-linejoin:miter;stroke-dasharray:none"
     d="M -1e-4,0 V 7256.693 H 7256.693 V 0 Z" />
  <path
     id="path4"
     style="fill:#ff8080;fill-rule:evenodd;stroke:#1b1918;stroke-width:50;stroke-linecap:butt;stroke-linejoin:miter;stroke-dasharray:none;stroke-miterlimit:4"
     d="M 1727.3568,1210.2194 H 5627.281 c 204.4435,0 371.7159,167.2727 371.7159,371.7158 v 3899.9243 c 0,204.4434 -167.2724,371.7158 -371.7159,371.7158 H 1727.3568 c -204.4431,0 -371.7159,-167.2724 -371.7159,-371.7158 V 1581.9352 c 0,-204.4431 167.2728,-371.7158 371.7159,-371.7158 z" />
  <path
     id="path6"
     style="fill:#ff8080;fill-rule:evenodd;stroke:#1b1918;stroke-width:50;stroke-linecap:butt;stroke-linejoin:miter;stroke-dasharray:none;stroke-miterlimit:4"
     d="m 2507.3416,2138.8907 h 2339.9547 c 122.6658,0 223.0293,100.3634 223.0293,223.0293 v 2339.9547 c 0,122.6659 -100.3635,223.0293 -223.0293,223.0293 H 2507.3416 c -122.6659,0 -223.0293,-100.3634 -223.0293,-223.0293 V 2361.92 c 0,-122.6659 100.3634,-223.0293 223.0293,-223.0293 z" />
  <path
     id="path8"
     style="fill:none;stroke:#1b1918;stroke-width:50;stroke-linecap:butt;stroke-linejoin:miter;stroke-dasharray:none;stroke-miterlimit:4"
     d="M 2507.3399,1210.2193 V 281.5481" />
  <path
     id="path10"
     style="fill:none;stroke:#1b1918;stroke-width:50;stroke-linecap:butt;stroke-linejoin:miter;stroke-dasharray:none;stroke-miterlimit:4"
     d="M 4847.298,1210.2193 V 281.5481" />
  <path
     id="path12"
     style="fill:none;stroke:#1b1918;stroke-width:50;stroke-linecap:butt;stroke-linejoin:miter;stroke-dasharray:none;stroke-miterlimit:4"
     d="M 3064.5427,1210.2193 V 281.5481" />
  <path
     id="path14"
     style="fill:none;stroke:#1b1918;stroke-width:50;stroke-linecap:butt;stroke-linejoin:miter;stroke-dasharray:none;stroke-miterlimit:4"
     d="M 4290.0953,1210.2193 V 281.5481" />
  <path
     id="path16"
     style="fill:none;stroke:#1b1918;stroke-width:50;stroke-linecap:butt;stroke-linejoin:miter;stroke-dasharray:none;stroke-miterlimit:4"
     d="M 3677.319,1210.2193 V 281.5481" />
  <path
     id="path18"
     style="fill:none;stroke:#1b1918;stroke-width:50;stroke-linecap:butt;stroke-linejoin:miter;stroke-dasharray:none;stroke-miterlimit:4"
     d="m 5998.9971,4701.8764 h 928.6712" />
  <path
     id="path20"
     style="fill:none;stroke:#1b1918;stroke-width:50;stroke-linecap:butt;stroke-linejoin:miter;stroke-dasharray:none;stroke-miterlimit:4"
     d="m 5998.997,2361.9184 h 928.6713" />
  <path
     id="path22"
     style="fill:none;stroke:#1b1918;stroke-width:50;stroke-linecap:butt;stroke-linejoin:miter;stroke-dasharray:none;stroke-miterlimit:4"
     d="m 5998.9971,4144.6737 h 928.6712" />
  <path
     id="path24"
     style="fill:none;stroke:#1b1918;stroke-width:50;stroke-linecap:butt;stroke-linejoin:miter;stroke-dasharray:none;stroke-miterlimit:4"
     d="m 5998.9971,2919.1211 h 928.6712" />
  <path
     id="path26"
     style="fill:none;stroke:#1b1918;stroke-width:50;stroke-linecap:butt;stroke-linejoin:miter;stroke-dasharray:none;stroke-miterlimit:4"
     d="m 5998.9971,3531.8974 h 928.6712" />
  <path
     id="path28"
     style="fill:none;stroke:#1b1918;stroke-width:50;stroke-linecap:butt;stroke-linejoin:miter;stroke-dasharray:none;stroke-miterlimit:4"
     d="m 426.9696,4701.8764 h 928.6713" />
  <path
     id="path30"
     style="fill:none;stroke:#1b1918;stroke-width:50;stroke-linecap:butt;stroke-linejoin:miter;stroke-dasharray:none;stroke-miterlimit:4"
     d="m 426.9696,2361.9184 h 928.6713" />
  <path
     id="path32"
     style="fill:none;stroke:#1b1918;stroke-width:50;stroke-linecap:butt;stroke-linejoin:miter;stroke-dasharray:none;stroke-miterlimit:4"
     d="m 426.9696,4144.6737 h 928.6713" />
  <path
     id="path34"
     style="fill:none;stroke:#1b1918;stroke-width:50;stroke-linecap:butt;stroke-linejoin:miter;stroke-dasharray:none;stroke-miterlimit:4"
     d="m 426.9696,2919.1211 h 928.6713" />
  <path
     id="path36"
     style="fill:none;stroke:#1b1918;stroke-width:50;stroke-linecap:butt;stroke-linejoin:miter;stroke-dasharray:none;stroke-miterlimit:4"
     d="m 426.9696,3531.8974 h 928.6713" />
  <path
     id="path38"
     style="fill:none;stroke:#1b1918;stroke-width:50;stroke-linecap:butt;stroke-linejoin:miter;stroke-dasharray:none;stroke-miterlimit:4"
     d="M 2507.3399,6782.2467 V 5853.5755" />
  <path
     id="path40"
     style="fill:none;stroke:#1b1918;stroke-width:50;stroke-linecap:butt;stroke-linejoin:miter;stroke-dasharray:none;stroke-miterlimit:4"
     d="M 4847.298,6782.2468 V 5853.5755" />
  <path
     id="path42"
     style="fill:none;stroke:#1b1918;stroke-width:50;stroke-linecap:butt;stroke-linejoin:miter;stroke-dasharray:none;stroke-miterlimit:4"
     d="M 3064.5427,6782.2467 V 5853.5755" />
  <path
     id="path44"
     style="fill:none;stroke:#1b1918;stroke-width:50;stroke-linecap:butt;stroke-linejoin:miter;stroke-dasharray:none;stroke-miterlimit:4"
     d="M 4290.0953,6782.2467 V 5853.5755" />
  <path
     id="path46"
     style="fill:none;stroke:#1b1918;stroke-width:50;stroke-linecap:butt;stroke-linejoin:miter;stroke-dasharray:none;stroke-miterlimit:4"
     d="M 3677.319,6782.2467 V 5853.5755" />
  <path
     id="path48"
     style="fill:#ff8080;fill-rule:evenodd;stroke:#1b1918;stroke-width:50;stroke-linecap:butt;stroke-linejoin:miter;stroke-dasharray:none;stroke-miterlimit:4"
     d="m 4267.2152,3899.3508 c 0,215.4036 -91.5111,378.716 -274.534,490.407 -85.4104,52.0909 -176.9219,78.3711 -275.0032,78.3711 -131.8702,0 -247.3154,-42.2359 -346.3353,-126.2386 -91.5114,-77.902 -157.6811,-182.0841 -198.9785,-312.0772 -28.6268,-88.6958 -42.7053,-186.7771 -42.7053,-294.2442 0,-275.4726 91.9805,-513.4022 276.4111,-712.8502 167.5363,-180.676 389.5098,-309.7306 666.3903,-387.6327 l 31.4425,42.2363 c -292.3671,118.2608 -497.4463,284.8583 -614.7686,500.2619 -59.5999,108.4057 -99.4893,230.8901 -120.6074,367.4534 141.7255,-109.3444 275.0034,-163.7818 399.8344,-163.7818 190.5313,0 334.603,85.8798 431.2766,258.1089 45.0516,80.7177 67.5774,167.5361 67.5774,259.9861 z m -211.18,24.8723 c 0,-123.423 -23.4643,-228.5439 -69.9239,-314.4237 -58.6613,-107.4671 -145.4796,-160.9662 -259.9863,-160.9662 -106.5285,0 -230.4207,56.3147 -371.6767,168.944 -8.9164,44.1133 -13.6095,102.3052 -13.6095,174.5756 0,158.6197 24.4032,293.3056 72.7399,404.0578 66.1697,149.2339 169.4131,223.8508 309.7307,223.8508 119.1994,0 207.4257,-56.3145 265.1482,-168.944 45.0518,-87.2878 67.5776,-196.1629 67.5776,-327.0943 z" />
</svg>
