<?xml version="1.0" encoding="UTF-8" standalone="no"?>
<svg
   xmlns:dc="http://purl.org/dc/elements/1.1/"
   xmlns:cc="http://creativecommons.org/ns#"
   xmlns:rdf="http://www.w3.org/1999/02/22-rdf-syntax-ns#"
   xmlns:svg="http://www.w3.org/2000/svg"
   xmlns="http://www.w3.org/2000/svg"
   xmlns:sodipodi="http://sodipodi.sourceforge.net/DTD/sodipodi-0.dtd"
   xmlns:inkscape="http://www.inkscape.org/namespaces/inkscape"
   inkscape:version="1.0 (4035a4fb49, 2020-05-01)"
   sodipodi:docname="2.svg"
   viewBox="0 0 725.66931 725.66931"
   id="svg4"
   height=""
   width=""
   version="1.1">
  <metadata
     id="metadata10">
    <rdf:RDF>
      <cc:Work
         rdf:about="">
        <dc:format>image/svg+xml</dc:format>
        <dc:type
           rdf:resource="http://purl.org/dc/dcmitype/StillImage" />
        <dc:title></dc:title>
      </cc:Work>
    </rdf:RDF>
  </metadata>
  <defs
     id="defs8" />
  <sodipodi:namedview
     inkscape:current-layer="svg4"
     inkscape:window-maximized="0"
     inkscape:window-y="0"
     inkscape:window-x="0"
     inkscape:cy="362.83466"
     inkscape:cx="362.83466"
     inkscape:zoom="0.79650605"
     showgrid="false"
     id="namedview6"
     inkscape:window-height="480"
     inkscape:window-width="820"
     inkscape:pageshadow="2"
     inkscape:pageopacity="0"
     guidetolerance="10"
     gridtolerance="10"
     objecttolerance="10"
     borderopacity="1"
     bordercolor="#666666"
     pagecolor="#ffffff" />
  <path
     id="path2"
     style="fill:#000000;fill-rule:evenodd"
     d="m 416.2748,364.7798 v 15.2719 h -86.178 c -0.1211,-3.8483 0.515,-7.545 1.8788,-11.1206 2.2118,-5.8484 5.7571,-11.6359 10.6358,-17.3024 4.8785,-5.6664 11.848,-12.2116 20.9081,-19.6353 14.0902,-11.6056 23.6656,-20.787 28.6654,-27.5746 5.03,-6.7875 7.5452,-13.2114 7.5452,-19.2719 0,-6.3331 -2.2728,-11.6662 -6.8179,-16.0296 -4.5453,-4.333 -10.4845,-6.5149 -17.7871,-6.5149 -7.727,0 -13.9085,2.3029 -18.5445,6.9089 -4.6364,4.5754 -6.9696,10.9389 -7.0302,19.0899 l -16.3627,-1.6361 c 1.1211,-12.242 5.3634,-21.5748 12.6963,-27.9987 7.3633,-6.4241 17.2114,-9.6361 29.6048,-9.6361 12.4841,0 22.3928,3.4543 29.6651,10.3935 7.3029,6.9393 10.9389,15.5447 10.9389,25.7868 0,5.2118 -1.0604,10.3329 -3.2119,15.3629 -2.1212,5.0605 -5.6665,10.3632 -10.6056,15.9387 -4.9694,5.5451 -13.1811,13.2114 -24.6353,22.9079 -9.6055,8.0603 -15.787,13.5147 -18.5142,16.3933 -2.7272,2.8786 -4.9694,5.7572 -6.7572,8.6664 z" />
</svg>
