<svg xmlns="http://www.w3.org/2000/svg" viewBox="0 0 725.669 725.669">
    <path fill="#ff7f2a" fill-rule="evenodd" stroke="#000" stroke-width=".567" d="M290.17 500.517l334.206-306.453c42.8-38.113 63.568-98.104 39.815-177.572l-71.813 56.81-.293 13.86L320.102 360.82c-15.922 34.783-53.309 71.818-73.513 77.15l-13.81 12.944z"/>
    <path fill="#ffd42a" fill-rule="evenodd" stroke="#000" stroke-width=".567" d="M232.779 450.914c-74.151 73.81-159.89 163.389-204.03 236.048 17.399 14.495 38.868 17.197 64.355 16.745 20.066-49.845 59.465-107.105 131.065-176.598 15.23.082 20.883-10.1 29.24-21.851 4.13-6.75 16.915-7.993 36.76-4.74-5.196-14.821-15.372-28.514-33.286-33.72z"/>
    <path fill="#f95" fill-rule="evenodd" stroke="#000" stroke-width=".567" d="M664.19 16.492c22.207 64.511 8.004 137.565-39.814 177.572l-317.692 291.31-2.463-9.49 314.578-287.638c46.539-45.418 55.116-97.355 41.723-162.069l-65.423 51.756-.197 9.29-2.817-.06.293-13.86z"/>
    <path fill="#fd5" fill-rule="evenodd" stroke="#000" stroke-width=".567" d="M231.496 484.72a3.945 3.945 0 1 0 5.46 5.696 3.945 3.945 0 0 0-5.46-5.695zM192.52 516.247a3.945 3.945 0 1 0 5.46 5.696 3.945 3.945 0 0 0-5.46-5.696zM149.525 563.072a3.945 3.945 0 1 0 5.46 5.696 3.945 3.945 0 0 0-5.46-5.696zM108.49 609.94a3.945 3.945 0 1 0 5.46 5.695 3.945 3.945 0 0 0-5.46-5.696zM80.023 668.685a3.945 3.945 0 1 0 5.46 5.696 3.945 3.945 0 0 0-5.46-5.696z"/>
    <path fill="none" stroke="#000" stroke-width=".567" d="M52.732 679.042a3.945 3.945 0 1 0 5.46 5.696 3.945 3.945 0 0 0-5.46-5.696zM623.372 88.07l-290.54 289.69 2.257 2.265L625.63 90.335zM293.382 417.74l-17.303 16.586 2.262 2.36 17.302-16.586z"/>
    <path fill="none" stroke="#000" stroke-width=".567" d="M293.382 417.74l-17.303 16.586 2.262 2.36 17.302-16.586zM623.372 88.07l-290.54 289.69 2.257 2.265L625.63 90.335zM52.732 679.042a3.945 3.945 0 1 0 5.46 5.696 3.945 3.945 0 0 0-5.46-5.696z"/>
</svg>
