<?xml version="1.0" encoding="UTF-8" standalone="no"?>
<svg
   xmlns:dc="http://purl.org/dc/elements/1.1/"
   xmlns:cc="http://creativecommons.org/ns#"
   xmlns:rdf="http://www.w3.org/1999/02/22-rdf-syntax-ns#"
   xmlns:svg="http://www.w3.org/2000/svg"
   xmlns="http://www.w3.org/2000/svg"
   xmlns:sodipodi="http://sodipodi.sourceforge.net/DTD/sodipodi-0.dtd"
   xmlns:inkscape="http://www.inkscape.org/namespaces/inkscape"
   viewBox="0 0 64 64"
   version="1.1"
   id="svg10"
   sodipodi:docname="cold_water.svg"
   inkscape:version="1.0 (4035a4fb49, 2020-05-01)">
  <metadata
     id="metadata16">
    <rdf:RDF>
      <cc:Work
         rdf:about="">
        <dc:format>image/svg+xml</dc:format>
        <dc:type
           rdf:resource="http://purl.org/dc/dcmitype/StillImage" />
      </cc:Work>
    </rdf:RDF>
  </metadata>
  <defs
     id="defs14" />
  <sodipodi:namedview
     inkscape:document-rotation="0"
     pagecolor="#ffffff"
     bordercolor="#666666"
     borderopacity="1"
     objecttolerance="10"
     gridtolerance="10"
     guidetolerance="10"
     inkscape:pageopacity="0"
     inkscape:pageshadow="2"
     inkscape:window-width="1304"
     inkscape:window-height="746"
     id="namedview12"
     showgrid="false"
     inkscape:zoom="9.03125"
     inkscape:cx="32"
     inkscape:cy="32"
     inkscape:window-x="-8"
     inkscape:window-y="-8"
     inkscape:window-maximized="1"
     inkscape:current-layer="svg10" />
  <path
     fill="#ff8080"
     fill-rule="evenodd"
     stroke="#000"
     d="M28.813 42.906v1.344c-6.291 5.01-2.43 13.128 3.687 13.125 5.976 0 9.993-8.515 3.5-13.25v-1.281z"
     id="path2"
     style="fill:#ff8080;fill-opacity:1" />
  <path
     fill="none"
     stroke="#808080"
     stroke-opacity=".502"
     stroke-width="2"
     d="M38.438 35.375H33M38.563 28.313h-5.625M38.75 21h-5.781M38.625 13.313l-5.64-.016"
     id="path4" />
  <path
     fill="#ffd5d5"
     fill-rule="evenodd"
     d="M35.311 45.438c.866.475 1.427 1.452 1.754 2.463.05.08.098.161.145.244.584 1.026.938 2.213 1.018 2.995.181-.78.092-2.073-.296-3.305-.032-.1-.065-.2-.101-.299-.648-1.03-1.511-1.87-2.52-2.098z"
     id="path6" />
  <path
     fill="#d7eef4"
     fill-opacity=".251"
     fill-rule="evenodd"
     stroke="#000"
     d="M26.188 42.563c-6.996 6.894-2.177 17.61 6.347 17.672 8.848.063 13.696-11.073 6.09-17.422l.188-32.125c.04-6.95-12.396-6.985-12.438.062z"
     id="path8" />
</svg>
