<?xml version="1.0" encoding="UTF-8" standalone="no"?>
<svg
   xmlns:dc="http://purl.org/dc/elements/1.1/"
   xmlns:cc="http://creativecommons.org/ns#"
   xmlns:rdf="http://www.w3.org/1999/02/22-rdf-syntax-ns#"
   xmlns:svg="http://www.w3.org/2000/svg"
   xmlns="http://www.w3.org/2000/svg"
   xmlns:sodipodi="http://sodipodi.sourceforge.net/DTD/sodipodi-0.dtd"
   xmlns:inkscape="http://www.inkscape.org/namespaces/inkscape"
   inkscape:version="1.0 (4035a4fb49, 2020-05-01)"
   sodipodi:docname="211.svg"
   viewBox="0 0 725.66931 725.66931"
   id="svg14"
   height=""
   width=""
   version="1.1">
  <metadata
     id="metadata20">
    <rdf:RDF>
      <cc:Work
         rdf:about="">
        <dc:format>image/svg+xml</dc:format>
        <dc:type
           rdf:resource="http://purl.org/dc/dcmitype/StillImage" />
        <dc:title></dc:title>
      </cc:Work>
    </rdf:RDF>
  </metadata>
  <defs
     id="defs18" />
  <sodipodi:namedview
     inkscape:current-layer="svg14"
     inkscape:window-maximized="0"
     inkscape:window-y="0"
     inkscape:window-x="0"
     inkscape:cy="362.83466"
     inkscape:cx="362.83466"
     inkscape:zoom="0.79650605"
     showgrid="false"
     id="namedview16"
     inkscape:window-height="480"
     inkscape:window-width="820"
     inkscape:pageshadow="2"
     inkscape:pageopacity="0"
     guidetolerance="10"
     gridtolerance="10"
     objecttolerance="10"
     borderopacity="1"
     bordercolor="#666666"
     pagecolor="#ffffff" />
  <g
     id="Layer1000">
    <g
       id="Layer1001">
      <path
         id="path2"
         style="fill:none;stroke:#ffffff;stroke-width:4;stroke-linecap:round;stroke-linejoin:round;stroke-dasharray:none"
         d="M 125.7594,267.174 C 123.3221,92.3865 224.7478,39.4456 362.7893,29.4646 c 138.0415,9.981 239.4672,62.9219 237.03,237.7094 m 17.1119,94.2714 C 640.0715,388.7627 623.18,451.9012 589.292,488.5178 505.4723,624.0941 427.9692,698.8654 362.0172,696.2272 296.0651,698.8654 220.1063,624.0941 136.2866,488.5178 102.3986,451.9012 85.5072,388.7627 108.6474,361.4454" />
      <path
         id="path4"
         style="fill:none;stroke:#ffffff;stroke-width:4;stroke-linecap:round;stroke-linejoin:round;stroke-dasharray:none"
         d="m 253.6765,261.8024 c 37.9926,-20.2854 74.2181,-53.1138 109.885,-100.2203 35.6278,47.0543 71.4466,79.8632 109.017,100.1533" />
      <path
         id="path6"
         style="fill:none;stroke:#ffffff;stroke-width:4;stroke-linecap:round;stroke-linejoin:round;stroke-dasharray:none"
         d="M 259.0589,647.1697 C 216.9437,605.635 176.9447,551.654 136.2866,488.5178 132.7812,590.6494 97.8078,649.321 36.5806,671.7382 c 98.5108,37.8041 170.6969,28.3342 222.4783,-24.5685 z" />
      <path
         id="path8"
         style="fill:none;stroke:#ffffff;stroke-width:4;stroke-linecap:round;stroke-linejoin:round;stroke-dasharray:none"
         d="m 466.1379,646.7856 c 42.1152,-41.5347 82.496,-95.1316 123.1541,-158.2678 3.5055,102.1316 38.4789,160.8032 99.7061,183.2204 -98.5109,37.8041 -171.0787,27.95 -222.8602,-24.9526 z" />
    </g>
    <path
       id="path11"
       style="fill:none;stroke:#ffffff;stroke-width:4;stroke-linecap:butt;stroke-linejoin:miter;stroke-dasharray:none"
       d="m 173.6442,346.2611 c 41.5815,-45.5552 164.0585,-19.3832 159.2534,29.8925 -47.3511,48.7886 -127.3662,31.2661 -159.2534,-29.8925 z m 189.1451,62.3601 -34.7926,30.8267 C 257.2863,502.0978 144.661,451.0363 87.0585,319.9745 75.6578,282.1572 97.0839,265.713 144.7818,266.3753 c 43.6361,-9.4839 92.4248,-8.0464 136.0616,-1.0308 48.6204,18.5674 71.8075,27.301 81.9459,25.2534 10.1384,2.0476 33.3255,-6.686 81.9459,-25.2534 43.6368,-7.0156 92.4255,-8.4531 136.0616,1.0308 47.6979,-0.6623 69.124,15.7819 57.7234,53.5992 -57.6026,131.0618 -170.2287,182.1233 -240.9383,119.4734 z m 189.1451,-62.3601 c -41.5815,-45.5552 -164.0585,-19.3832 -159.2534,29.8925 47.3512,48.7886 127.3663,31.2661 159.2534,-29.8925 z" />
  </g>
</svg>
