<?xml version="1.0" encoding="UTF-8" standalone="no"?>
<svg
   xmlns:dc="http://purl.org/dc/elements/1.1/"
   xmlns:cc="http://creativecommons.org/ns#"
   xmlns:rdf="http://www.w3.org/1999/02/22-rdf-syntax-ns#"
   xmlns:svg="http://www.w3.org/2000/svg"
   xmlns="http://www.w3.org/2000/svg"
   xmlns:sodipodi="http://sodipodi.sourceforge.net/DTD/sodipodi-0.dtd"
   xmlns:inkscape="http://www.inkscape.org/namespaces/inkscape"
   inkscape:version="1.0 (4035a4fb49, 2020-05-01)"
   sodipodi:docname="3.svg"
   viewBox="0 0 725.66931 725.66931"
   id="svg28"
   height=""
   width=""
   version="1.1">
  <metadata
     id="metadata34">
    <rdf:RDF>
      <cc:Work
         rdf:about="">
        <dc:format>image/svg+xml</dc:format>
        <dc:type
           rdf:resource="http://purl.org/dc/dcmitype/StillImage" />
        <dc:title></dc:title>
      </cc:Work>
    </rdf:RDF>
  </metadata>
  <defs
     id="defs32" />
  <sodipodi:namedview
     inkscape:current-layer="svg28"
     inkscape:window-maximized="0"
     inkscape:window-y="0"
     inkscape:window-x="0"
     inkscape:cy="362.83466"
     inkscape:cx="362.83466"
     inkscape:zoom="0.79650605"
     showgrid="false"
     id="namedview30"
     inkscape:window-height="480"
     inkscape:window-width="820"
     inkscape:pageshadow="2"
     inkscape:pageopacity="0"
     guidetolerance="10"
     gridtolerance="10"
     objecttolerance="10"
     borderopacity="1"
     bordercolor="#666666"
     pagecolor="#ffffff" />
  <g
     id="Layer1000">
    <path
       id="path2"
       style="fill:none;stroke:#ffffff;stroke-width:12.7559;stroke-linecap:butt;stroke-linejoin:miter;stroke-dasharray:none"
       d="M 397.5528,224.8407 501.3972,31.0578 c 5.2719,17.4844 4.0785,36.4904 -5.1001,57.3749 l 33.1501,-19.7626 c -9.5633,16.2131 -16.0186,30.3489 -19.6671,42.6082 m 1.923,43.8797 c 14.7606,24.2496 57.822,29.5818 116.5564,24.4372 -62.8954,76.7404 -44.4189,121.9487 28.6878,145.9877 -69.5081,30.3837 -77.3303,73.1043 -36.3376,125.5875 -58.8637,8.9612 -68.4284,42.0367 -49.0876,89.25 l -43.4792,-2.4154" />
    <path
       id="path4"
       style="fill:none;stroke:#ffffff;stroke-width:11.9999;stroke-linecap:butt;stroke-linejoin:miter;stroke-dasharray:none"
       d="m 234.273,415.726 c -22.8005,46.0769 -27.394,126.4995 32.7639,145.3606 2.8851,0.904 7.5342,1.9528 10.6937,2.1042 12.6205,0.6063 21.5023,-1.3377 31.7376,-5.8751 11.1217,-4.93 13.5349,-7.5197 23.4697,-14.1313 51.1127,-34.2456 81.1806,-165.9452 4.7033,-187.463 -8.8586,-3.5946 -33.5509,-2.4134 -48.0512,4.0609 -19.8973,8.8832 -45.9389,36.9921 -55.317,55.9437 z M 419.4955,706.7129 H 355.955 l -2.2527,-29.9098 1.4918,-32.1613 c 0.3705,-3.4509 1.6858,-13.7872 1.6858,-16.6411 -38.2958,7.5994 -82.8607,12.9881 -123.0335,6.2779 -17.0008,-2.8397 -34.6918,-8.4838 -49.7143,-15.8831 m -32.7833,-20.0103 c -9.5553,-6.3808 -41.6866,-43.3358 -35.4892,-61.8888 1.8411,-5.5114 9.129,-8.4736 14.1098,-10.6917 30.2995,-13.4955 27.9756,-14.8068 22.6346,-43.8713 -2.6076,-14.1897 -4.773,-28.4825 -6.016,-43.5807 -0.3478,-4.2205 0.2625,-8.1742 -0.3795,-12.4188 -1.0786,-7.1244 0.007,-27.2118 0.9133,-34.1612 l 2.6209,-22.1771 c 1.2334,-7.3395 2.4168,-13.6766 4.1635,-20.6348 1.6929,-6.7457 3.3514,-12.7355 5.5318,-19.2668 3.7517,-11.238 10.0049,-22.5953 16.708,-32.0897 l 10.9803,-13.8177 c 16.0659,-16.6816 35.0586,-32.1089 55.9437,-42.4505 8.3755,-4.1477 16.5577,-8.1817 25.5736,-11.2235 9.5448,-3.2213 17.8418,-6.0398 28.6251,-8.1729 49.0255,-9.6999 100.2198,-2.3386 144.4615,18.8663 0.6625,0.424 1.3244,0.862 1.9857,1.3124 m 44.89,50.9012 c 24.6339,39.7224 42.7929,91.2889 44.6244,131.2755 l -2.7037,30.8932 c 1.1458,20.7504 -0.9417,42.7393 0.7543,63.2409 0.3767,4.5564 -0.2103,9.7523 0.0386,14.3609 l 1.6018,26.3956 c 0.5494,11.0305 2.2916,25.3338 4.0193,38.0053 m 11.2252,58.4963 c 1.921,6.8164 4.1235,14.1718 6.8162,23.8257 1.4796,5.3056 1.2262,6.219 4.9223,9.4743 2.6703,2.3505 5.1389,3.6788 9.0088,4.5833 l 3.5923,13.1423 H 503.142" />
    <path
       id="path6"
       style="fill:none;stroke:#ffffff;stroke-width:12.7559;stroke-linecap:butt;stroke-linejoin:miter;stroke-dasharray:none"
       d="m 210.2391,252.87 4.3989,-5.2161 C 152.3353,232.2703 115.8837,186.2014 76.6638,134.966 c -3.6686,69.5834 17.3367,134.1572 79.2403,182.336 l 4.0541,-4.8073" />
    <path
       id="path8"
       style="fill:none;stroke:#ffffff;stroke-width:7.0866;stroke-linecap:butt;stroke-linejoin:miter;stroke-dasharray:none"
       d="m 403.402,692.585 c 59.9061,-24.7549 87.3106,-55.7007 89.6995,-91.4113 6.536,8.4329 10.0118,18.043 10.6133,28.7586 l 31.6696,-31.3245 c 13.7949,-13.6447 49.6464,-16.4587 77.887,-12.8406 -28.6505,19.337 -45.6426,47.3099 -49.6428,84.9065 -14.5955,-19.9475 -31.6229,-26.2749 -53.0666,-7.8745 4.4509,10.3851 14.8358,17.1186 31.1552,20.1996 l -52.4724,29.7954 c -16.6745,9.4683 -59.5172,5.6293 -85.8428,-20.2092 z" />
    <path
       id="path10"
       style="fill:none;stroke:#ffffff;stroke-width:12.7559;stroke-linecap:butt;stroke-linejoin:miter;stroke-dasharray:none"
       d="m 407.4661,296.6165 c 50.4349,-67.5465 82.4307,-139.8527 97.8565,-205.594 11.973,44.0149 9.9179,89.8596 -17.2125,138.9753 18.9153,-11.5135 32.2982,-30.7729 42.7127,-54.1877 1.3675,40.4569 -9.5286,82.9497 -28.3705,102.6366 -11.7944,12.3236 -32.5613,34.2124 -43.9294,46.5386" />
    <path
       id="path12"
       style="fill:none"
       d="m 176.1973,286.6876 -9.0346,-5.7714 31.3027,-30.7998 11.774,2.7538 c -13.0909,10.4261 -23.4513,22.1837 -34.0421,33.8174 z" />
    <path
       id="path14"
       style="fill:none"
       d="m 184.5125,276.7184 -33.2354,28.461 8.6811,7.3153 c 6.5047,-12.8735 14.383,-22.9028 24.5543,-35.7763 z" />
    <path
       id="path16"
       style="fill:none;stroke:#ffffff;stroke-width:5.6693;stroke-linecap:butt;stroke-linejoin:miter;stroke-dasharray:none"
       d="m 151.5217,570.841 c -3.7516,30.5227 20.8323,58.3334 35.6592,67.1944 -1.3558,-12.7356 -6.3618,-19.4292 -6.2682,-36.4032 0.0805,-14.6282 6.0563,-26.8798 5.6173,-36.0755 -14.0478,-2.1836 -24.1786,-2.1546 -35.0083,5.2843 z" />
    <g
       id="Layer1001">
      <path
         id="path18"
         style="fill:#ffffff;fill-rule:evenodd;stroke:#ffffff;stroke-width:0.5669;stroke-linecap:butt;stroke-linejoin:miter;stroke-dasharray:none"
         d="m 153.4224,592.9588 -5.4182,10.2799 9.5624,6.9375 z" />
      <path
         id="path20"
         style="fill:#ffffff;fill-rule:evenodd;stroke:#ffffff;stroke-width:0.5669;stroke-linecap:butt;stroke-linejoin:miter;stroke-dasharray:none"
         d="m 184.083,617.2892 3.2964,-3.7381 -3.5625,-2.2501 z" />
      <path
         id="path22"
         style="fill:#ffffff;fill-rule:evenodd;stroke:#ffffff;stroke-width:0.5669;stroke-linecap:butt;stroke-linejoin:miter;stroke-dasharray:none"
         d="m 419.4955,706.7129 -0.2248,5.7424 h 9.9375 z" />
      <path
         id="path24"
         style="fill:#ffffff;fill-rule:evenodd;stroke:#ffffff;stroke-width:0.5669;stroke-linecap:butt;stroke-linejoin:miter;stroke-dasharray:none"
         d="m 504.2548,707.3943 -0.8668,5.0273 h -7.9688 z" />
    </g>
  </g>
</svg>
