<?xml version="1.0" encoding="UTF-8" standalone="no"?>
<svg
   xmlns:dc="http://purl.org/dc/elements/1.1/"
   xmlns:cc="http://creativecommons.org/ns#"
   xmlns:rdf="http://www.w3.org/1999/02/22-rdf-syntax-ns#"
   xmlns:svg="http://www.w3.org/2000/svg"
   xmlns="http://www.w3.org/2000/svg"
   xmlns:sodipodi="http://sodipodi.sourceforge.net/DTD/sodipodi-0.dtd"
   xmlns:inkscape="http://www.inkscape.org/namespaces/inkscape"
   inkscape:version="1.0 (4035a4fb49, 2020-05-01)"
   sodipodi:docname="1.svg"
   id="svg10"
   version="1.1"
   viewBox="0 0 64 64">
  <metadata
     id="metadata16">
    <rdf:RDF>
      <cc:Work
         rdf:about="">
        <dc:format>image/svg+xml</dc:format>
        <dc:type
           rdf:resource="http://purl.org/dc/dcmitype/StillImage" />
      </cc:Work>
    </rdf:RDF>
  </metadata>
  <defs
     id="defs14" />
  <sodipodi:namedview
     inkscape:current-layer="svg10"
     inkscape:window-maximized="1"
     inkscape:window-y="-8"
     inkscape:window-x="-8"
     inkscape:cy="28.335447"
     inkscape:cx="31.20286"
     inkscape:zoom="18.0625"
     showgrid="false"
     id="namedview12"
     inkscape:window-height="746"
     inkscape:window-width="1304"
     inkscape:pageshadow="2"
     inkscape:pageopacity="0"
     guidetolerance="10"
     gridtolerance="10"
     objecttolerance="10"
     borderopacity="1"
     bordercolor="#666666"
     pagecolor="#ffffff"
     inkscape:document-rotation="0" />
  <path
     style="display:inline"
     id="path2"
     d="m 27.93,2.412 c -0.114,1.17 -0.111,2.978 -0.436,3.473 -0.458,0.699 -1.963,1.641 -2.361,3.27 -3.273,3.842 -7.222,10.739 -6.786,11.974 0.554,1.568 6.248,6.86 9.548,10.262 -1.819,3.027 -3.461,6.136 0.23,11.668 0.204,4.648 0.26,9.326 1.034,13.851 -0.252,1.64 -1.57,4.724 -1.57,4.724 l 6.37,0.537 c 0.578,-2.596 1.304,-4.797 1.689,-7.906 1.002,-6.23 1.848,-11.017 1.874,-16.045 5.899,-0.349 7.132,-5.054 7.187,-7.967 0.098,-5.204 -3.74,-7.227 -6.758,-10.903 1.287,-0.74 1.372,-1.774 1.287,-2.975 C 39.152,15.168 37.17,13.439 35.856,12.045 34.516,10.625 33.929,9.543 33.512,9.028 33.257,8.713 32.447,8.441 32.447,8.441 32.307,7.248 32.152,6.198 32.807,5.294 Z m -0.792,15.195 c 1.322,3.907 2.174,7.784 2.062,11.18 -1.726,-2.555 -2.928,-4.882 -5.21,-7.68 1.287,-1.275 2.119,-2.263 2.605,-3.365 z"
     stroke-width="0.525"
     stroke="#000000"
     fill-rule="evenodd"
     fill="#999999" />
  <path
     style="display:inline"
     id="path4"
     d="m 27.058775,22.235231 16.017137,17.4719 2.615622,-2.577607 L 29.554679,19.67578 Z"
     stroke-width="0.451067"
     stroke="#000000"
     fill-rule="evenodd"
     fill="#ff8080" />
  <g
     id="Layer1000"
     style="stroke-width:113.927"
     transform="matrix(0.00877744,0,0,0.00877774,-0.2461921,0.58060618)">
    <path
       id="path2-7"
       style="fill:#ffaaee;fill-rule:evenodd;stroke-width:113.927"
       d="m 930.1643,5467.4308 -132.7759,732.7263 h 265.5519 z M 64.6622,6332.9331 797.3884,6465.709 v -265.5519 z m 1731.0044,0 -732.7263,132.7759 V 6200.1571 Z M 930.1643,7198.4352 797.3884,6465.709 h 265.5519 z m 132.776,-998.2781 H 797.3884 v 265.5519 h 265.5519 z" />
    <path
       id="path4-7"
       style="fill:#ffffff;fill-rule:evenodd;stroke-width:113.927"
       d="m 930.1642,5629.921 -107.8485,595.1636 h 215.697 z m -703.0121,703.0122 595.1636,107.8484 v -215.697 z m 1406.0243,0 -595.1637,107.8484 v -215.697 z M 930.1642,7035.9453 822.3157,6440.7816 h 215.697 z m 107.8485,-810.8607 h -215.697 v 215.697 h 215.697 z" />
  </g>
  <g
     id="Layer1001"
     style="stroke-width:113.927"
     transform="matrix(0.00877744,0,0,0.00877774,-0.2461921,0.58060618)">
    <path
       id="path7"
       style="fill:#ffaaee;fill-rule:evenodd;stroke-width:113.927"
       d="m 493.4038,4601.9283 -66.388,366.3631 h 132.776 z m -432.7511,432.7511 366.3631,66.3879 v -132.7759 z m 865.5022,0 -366.3631,66.3879 v -132.7759 z m -432.7511,432.751 -66.388,-366.3631 h 132.776 z m 66.388,-499.139 h -132.776 v 132.7759 h 132.776 z" />
    <path
       id="path9"
       style="fill:#ffffff;fill-rule:evenodd;stroke-width:113.927"
       d="m 493.4037,4683.1734 -53.9242,297.5818 H 547.328 Z m -351.506,351.5061 297.5818,53.9242 v -107.8485 z m 703.0121,0 -297.5818,53.9242 v -107.8485 z m -351.5061,351.506 -53.9242,-297.5818 H 547.328 Z M 547.328,4980.7552 H 439.4795 v 107.8485 H 547.328 Z" />
  </g>
  <g
     id="Layer1002"
     style="stroke-width:113.927"
     transform="matrix(0.00877744,0,0,0.00877774,-0.2461921,0.58060618)">
    <path
       id="path12"
       style="fill:#ffaaee;fill-rule:evenodd;stroke-width:113.927"
       d="m 2228.4175,6329.9369 -66.3879,366.3632 h 132.7759 z m -432.751,432.7512 366.3631,66.3879 v -132.7759 z m 865.5021,0 -366.3631,66.3879 v -132.7759 z m -432.7511,432.751 -66.3879,-366.3631 h 132.7759 z m 66.388,-499.139 h -132.7759 v 132.7759 h 132.7759 z" />
    <path
       id="path14"
       style="fill:#ffffff;fill-rule:evenodd;stroke-width:113.927"
       d="m 2228.4175,6411.182 -53.9242,297.5818 h 107.8485 z m -351.506,351.5061 297.5818,53.9242 v -107.8485 z m 703.0121,0 -297.5818,53.9242 v -107.8485 z m -351.5061,351.506 -53.9242,-297.5818 h 107.8485 z m 53.9243,-405.4303 h -107.8485 v 107.8485 h 107.8485 z" />
  </g>
  <g
     id="g898"
     transform="matrix(0.00877744,0,0,0.00877774,0.14346258,0.41451338)"
     style="stroke-width:113.927">
    <path
       id="path878"
       d="m 27.93,2.412 c -0.114,1.17 -0.111,2.978 -0.436,3.473 -0.458,0.699 -1.963,1.641 -2.361,3.27 -3.273,3.842 -7.222,10.739 -6.786,11.974 0.554,1.568 6.248,6.86 9.548,10.262 -1.819,3.027 -3.461,6.136 0.23,11.668 0.204,4.648 0.26,9.326 1.034,13.851 -0.252,1.64 -1.57,4.724 -1.57,4.724 l 6.37,0.537 c 0.578,-2.596 1.304,-4.797 1.689,-7.906 1.002,-6.23 1.848,-11.017 1.874,-16.045 5.899,-0.349 7.132,-5.054 7.187,-7.967 0.098,-5.204 -3.74,-7.227 -6.758,-10.903 1.287,-0.74 1.372,-1.774 1.287,-2.975 C 39.152,15.168 37.17,13.439 35.856,12.045 34.516,10.625 33.929,9.543 33.512,9.028 33.257,8.713 32.447,8.441 32.447,8.441 32.307,7.248 32.152,6.198 32.807,5.294 Z m -0.792,15.195 c 1.322,3.907 2.174,7.784 2.062,11.18 -1.726,-2.555 -2.928,-4.882 -5.21,-7.68 1.287,-1.275 2.119,-2.263 2.605,-3.365 z"
       stroke-width="59.8114"
       stroke="#000000"
       fill-rule="evenodd"
       fill="#999999" />
    <path
       id="path880"
       transform="matrix(0.56738,0,0,0.56738,17.057,-549.677)"
       d="m 17.628,1007.988 28.23,30.794 4.61,-4.543 -28.441,-30.762 z"
       stroke-width="90.5715"
       stroke="#000000"
       fill-rule="evenodd"
       fill="#ff8080" />
    <path
       id="path882"
       transform="matrix(0.56738,0,0,0.56738,17.057,-549.677)"
       d="m 17.793,1005.525 a 22.2,22.245 84.26 0 0 -6.178,17.686 22.2,22.245 84.26 0 0 24.354,19.866 22.2,22.245 84.26 0 0 19.914,-24.316 22.2,22.245 84.26 0 0 -24.354,-19.864 22.2,22.245 84.26 0 0 -13.736,6.628 z m 3.396,2.558 a 17.992,18.028 84.26 0 1 10.76,-4.998 17.992,18.028 84.26 0 1 19.735,16.098 17.992,18.028 84.26 0 1 -16.135,19.707 17.992,18.028 84.26 0 1 -19.739,-16.1 17.992,18.028 84.26 0 1 5.38,-14.706 z"
       stroke-width="88.179"
       stroke-linejoin="round"
       stroke="#000000"
       fill="#ff0e5f" />
    <path
       id="path884"
       d="M 27.608,22.515 42.83,39.112 45.138,36.849 29.805,20.267 Z"
       fill-rule="evenodd"
       fill="#ff0e5f"
       style="stroke-width:806.317" />
  </g>
  <g
     transform="matrix(-0.00877744,0,0,-0.00877774,64.263651,63.471922)"
     style="stroke-width:113.927"
     id="Layer1000-7">
    <path
       d="m 930.1643,5467.4308 -132.7759,732.7263 h 265.5519 z M 64.6622,6332.9331 797.3884,6465.709 v -265.5519 z m 1731.0044,0 -732.7263,132.7759 V 6200.1571 Z M 930.1643,7198.4352 797.3884,6465.709 h 265.5519 z m 132.776,-998.2781 H 797.3884 v 265.5519 h 265.5519 z"
       style="fill:#ffaaee;fill-rule:evenodd;stroke-width:113.927"
       id="path2-7-7" />
    <path
       d="m 930.1642,5629.921 -107.8485,595.1636 h 215.697 z m -703.0121,703.0122 595.1636,107.8484 v -215.697 z m 1406.0243,0 -595.1637,107.8484 v -215.697 z M 930.1642,7035.9453 822.3157,6440.7816 h 215.697 z m 107.8485,-810.8607 h -215.697 v 215.697 h 215.697 z"
       style="fill:#ffffff;fill-rule:evenodd;stroke-width:113.927"
       id="path4-7-6" />
  </g>
  <g
     transform="matrix(-0.00877744,0,0,-0.00877774,64.263651,63.471922)"
     style="stroke-width:113.927"
     id="Layer1001-6">
    <path
       d="m 493.4038,4601.9283 -66.388,366.3631 h 132.776 z m -432.7511,432.7511 366.3631,66.3879 v -132.7759 z m 865.5022,0 -366.3631,66.3879 v -132.7759 z m -432.7511,432.751 -66.388,-366.3631 h 132.776 z m 66.388,-499.139 h -132.776 v 132.7759 h 132.776 z"
       style="fill:#ffaaee;fill-rule:evenodd;stroke-width:113.927"
       id="path7-5" />
    <path
       d="m 493.4037,4683.1734 -53.9242,297.5818 H 547.328 Z m -351.506,351.5061 297.5818,53.9242 v -107.8485 z m 703.0121,0 -297.5818,53.9242 v -107.8485 z m -351.5061,351.506 -53.9242,-297.5818 H 547.328 Z M 547.328,4980.7552 H 439.4795 v 107.8485 H 547.328 Z"
       style="fill:#ffffff;fill-rule:evenodd;stroke-width:113.927"
       id="path9-9" />
  </g>
  <g
     transform="matrix(-0.00877744,0,0,-0.00877774,64.263651,63.471922)"
     style="stroke-width:113.927"
     id="Layer1002-1">
    <path
       d="m 2228.4175,6329.9369 -66.3879,366.3632 h 132.7759 z m -432.751,432.7512 366.3631,66.3879 v -132.7759 z m 865.5021,0 -366.3631,66.3879 v -132.7759 z m -432.7511,432.751 -66.3879,-366.3631 h 132.7759 z m 66.388,-499.139 h -132.7759 v 132.7759 h 132.7759 z"
       style="fill:#ffaaee;fill-rule:evenodd;stroke-width:113.927"
       id="path12-2" />
    <path
       d="m 2228.4175,6411.182 -53.9242,297.5818 h 107.8485 z m -351.506,351.5061 297.5818,53.9242 v -107.8485 z m 703.0121,0 -297.5818,53.9242 v -107.8485 z m -351.5061,351.506 -53.9242,-297.5818 h 107.8485 z m 53.9243,-405.4303 h -107.8485 v 107.8485 h 107.8485 z"
       style="fill:#ffffff;fill-rule:evenodd;stroke-width:113.927"
       id="path14-7" />
  </g>
  <path
     fill="#ff8080"
     fill-rule="evenodd"
     stroke="#000000"
     stroke-width="0.451067"
     d="M 45.353761,22.234947 29.336624,39.706846 26.721002,37.129239 42.857857,19.675496 Z"
     id="path4-6"
     style="display:inline" />
  <path
     style="display:inline"
     id="path6"
     d="M 27.152392,20.837774 A 12.595836,12.621368 84.26 0 0 23.647119,30.872457 12.595836,12.621368 84.26 0 0 37.465091,42.144028 12.595836,12.621368 84.26 0 0 48.763897,28.347616 12.595836,12.621368 84.26 0 0 34.945924,17.07718 12.595836,12.621368 84.26 0 0 27.152392,20.837774 Z m 1.926823,1.451359 a 10.208301,10.228727 84.26 0 1 6.105009,-2.835766 10.208301,10.228727 84.26 0 1 11.197244,9.133684 10.208301,10.228727 84.26 0 1 -9.154676,11.181357 10.208301,10.228727 84.26 0 1 -11.199514,-9.134818 10.208301,10.228727 84.26 0 1 3.052504,-8.34389 z"
     stroke-width="0.439152"
     stroke-linejoin="round"
     stroke="#000000"
     fill="#ff0e5f" />
  <path
     fill="#ff0e5f"
     fill-rule="evenodd"
     d="m 44.804536,22.514716 -15.222,16.596999 -2.308,-2.263 15.333,-16.581999 z"
     id="path8-9"
     style="display:inline" />
  <path
     style="display:inline"
     id="path8"
     d="M 27.608,22.515 42.83,39.112 45.138,36.849 29.805,20.267 Z"
     fill-rule="evenodd"
     fill="#ff0e5f" />
</svg>
