<?xml version="1.0" encoding="UTF-8" standalone="no"?>
<svg
   xmlns:dc="http://purl.org/dc/elements/1.1/"
   xmlns:cc="http://creativecommons.org/ns#"
   xmlns:rdf="http://www.w3.org/1999/02/22-rdf-syntax-ns#"
   xmlns:svg="http://www.w3.org/2000/svg"
   xmlns="http://www.w3.org/2000/svg"
   xmlns:sodipodi="http://sodipodi.sourceforge.net/DTD/sodipodi-0.dtd"
   xmlns:inkscape="http://www.inkscape.org/namespaces/inkscape"
   version="1.1"
   width=""
   height=""
   id="svg6"
   viewBox="0 0 725.66931 725.66931"
   sodipodi:docname="on_mod.svg"
   inkscape:version="1.0 (4035a4fb49, 2020-05-01)">
  <metadata
     id="metadata12">
    <rdf:RDF>
      <cc:Work
         rdf:about="">
        <dc:format>image/svg+xml</dc:format>
        <dc:type
           rdf:resource="http://purl.org/dc/dcmitype/StillImage" />
        <dc:title />
      </cc:Work>
    </rdf:RDF>
  </metadata>
  <defs
     id="defs10" />
  <sodipodi:namedview
     inkscape:document-rotation="0"
     pagecolor="#ffffff"
     bordercolor="#666666"
     borderopacity="1"
     objecttolerance="10"
     gridtolerance="10"
     guidetolerance="10"
     inkscape:pageopacity="0"
     inkscape:pageshadow="2"
     inkscape:window-width="1304"
     inkscape:window-height="746"
     id="namedview8"
     showgrid="false"
     inkscape:zoom="0.79650605"
     inkscape:cx="362.83466"
     inkscape:cy="362.83466"
     inkscape:window-x="-8"
     inkscape:window-y="-8"
     inkscape:window-maximized="1"
     inkscape:current-layer="svg6" />
  <path
     d="m 110.442,645.1432 22.3166,-26.7247 c 11.0665,8.7704 21.9034,14.1888 32.5565,16.3012 10.6073,2.0662 22.3625,0.5967 35.2658,-4.4085 12.8571,-5.0507 24.9339,-13.1785 36.1381,-24.3824 9.9643,-9.9647 17.2653,-20.2045 21.903,-30.8118 4.6381,-10.6075 6.1994,-20.3423 4.7299,-29.2504 -1.4695,-8.9082 -5.2347,-16.439 -11.2961,-22.5003 -6.1531,-6.1532 -13.3163,-9.7347 -21.5359,-10.7906 -8.1737,-1.0106 -17.9541,1.0559 -29.3882,6.1531 -7.3009,3.2601 -22.2247,11.755 -44.7247,25.5308 -22.5003,13.7755 -39.2607,22.3623 -50.3731,25.7601 -14.3725,4.4544 -27.5057,5.281 -39.3985,2.5719 C 54.6965,569.9282 44.1811,564.0043 35.1351,554.9584 25.1249,544.9482 18.65,532.7799 15.6654,518.4989 12.6349,504.1721 14.288,489.3863 20.6705,474.0035 27.0074,458.6666 36.8342,444.3401 50.1046,431.0694 64.707,416.4673 79.952,405.906 95.8399,399.4773 c 15.842,-6.4747 31.3626,-8.1275 46.5616,-4.9593 15.1532,3.1224 28.7451,10.2858 40.7759,21.3982 l -23.1429,27.0003 c -13.7756,-11.1124 -27.7351,-15.9797 -41.8323,-14.5565 -14.1429,1.378 -28.791,9.6891 -43.9441,24.8423 -15.7961,15.7961 -24.429,30.2145 -25.8523,43.2096 -1.4238,12.9952 1.9284,23.6024 10.1019,31.7758 7.0715,7.0716 15.4749,10.332 25.1637,9.8269 9.5969,-0.5051 27.4135,-8.8625 53.4036,-25.3015 26.0359,-16.393 44.7709,-26.7706 56.2504,-31.087 16.7148,-6.1531 31.8679,-7.99 45.4598,-5.3265 13.5462,2.6175 25.577,9.2296 36.1383,19.7909 10.5154,10.5154 17.3574,23.3269 20.6175,38.6178 3.2604,15.2909 1.8828,31.087 -4.2245,47.48 -6.1072,16.3931 -16.1634,31.5924 -30.2604,45.6894 -17.8166,17.8166 -35.3576,30.1226 -52.5773,36.9646 -17.2652,6.8879 -34.4851,8.4949 -51.7966,4.8677 -17.3112,-3.536 -32.6939,-11.7556 -46.2402,-24.5668 z M 294.2093,461.376 316.5259,434.6512 c 11.0664,8.7704 21.9033,14.1889 32.5565,16.3012 10.6072,2.0662 22.3625,0.5967 35.2658,-4.4084 12.8571,-5.0511 24.9338,-13.1786 36.138,-24.3828 9.9644,-9.9643 17.2656,-20.2042 21.9033,-30.8114 4.6381,-10.6076 6.1991,-20.3423 4.7296,-29.2505 -1.4691,-8.9081 -5.2347,-16.4389 -11.296,-22.5002 -6.1532,-6.1532 -13.3163,-9.7348 -21.536,-10.7907 -8.1737,-1.0105 -17.954,1.0559 -29.3879,6.1529 -7.3012,3.2601 -22.2247,11.755 -44.725,25.5308 -22.5003,13.7758 -39.2607,22.3625 -50.3731,25.7604 -14.3725,4.4544 -27.5054,5.2807 -39.3984,2.5716 -11.9387,-2.6632 -22.4541,-8.587 -31.5003,-17.6329 -10.0103,-10.0103 -16.4849,-22.1789 -19.4698,-36.4595 -3.0302,-14.3269 -1.3773,-29.1127 5.0052,-44.4954 6.3371,-15.3372 16.1637,-29.6638 29.4344,-42.9342 14.6021,-14.6024 29.8471,-25.1634 45.735,-31.5921 15.842,-6.4746 31.3625,-8.1278 46.5619,-4.9592 15.1531,3.1224 28.745,10.2855 40.7758,21.3979 l -23.1432,27.0003 c -13.7755,-11.1121 -27.735,-15.9795 -41.832,-14.5562 -14.1432,1.3776 -28.7909,9.6891 -43.9444,24.8423 -15.796,15.796 -24.429,30.2144 -25.8522,43.2096 -1.4236,12.9951 1.9284,23.6024 10.1021,31.7758 7.0713,7.0716 15.4746,10.332 25.1634,9.8269 9.5973,-0.5052 27.4136,-8.8625 53.4036,-25.3015 26.0362,-16.393 44.771,-26.771 56.2507,-31.087 16.7145,-6.1532 31.868,-7.99 45.4598,-5.3266 13.5459,2.6172 25.5767,9.2293 36.138,19.7909 10.5157,10.5154 17.3574,23.3266 20.6178,38.6178 3.2602,15.291 1.8825,31.087 -4.2247,47.4801 -6.1073,16.3927 -16.1632,31.5921 -30.2604,45.6894 -17.8163,17.8163 -35.3577,30.1226 -52.5773,36.9646 -17.2653,6.8876 -34.4852,8.4949 -51.7964,4.8674 -17.3114,-3.536 -32.6942,-11.7553 -46.2404,-24.5665 z M 528.2578,354.0634 406.6648,81.1216 l 28.6991,-28.6994 277.5798,116.9555 -29.7096,29.7097 -82.6081,-36.9647 -83.0673,83.0671 38.3884,81.1845 z m -24.245,-137.7564 67.2253,-67.2253 -75.2613,-34.1178 c -22.8217,-10.4236 -41.235,-19.4698 -55.3323,-27.0459 10.1484,15.5661 19.1484,31.8214 27.0924,48.8573 z"
     style="fill:#ffffff;fill-opacity:1;fill-rule:evenodd;stroke:#ffffff;stroke-width:4;stroke-linecap:butt;stroke-linejoin:miter;stroke-dasharray:none;opacity:0.3"
     id="path2" />
  <path
     d="M 152.4589,316.5979 V 156.1893 h 31.8126 l 37.9367,113.5482 c 3.5098,10.5667 6.0488,18.4828 7.6544,23.7475 1.8297,-5.8249 4.7046,-14.4127 8.5881,-25.7266 l 38.6084,-111.5691 h 28.4151 V 316.5979 H 285.0871 V 182.4015 L 238.2639,316.5979 H 219.1462 L 172.8459,179.9371 v 136.6608 z m 177.211,-58.1369 c 0,-21.4699 5.9743,-37.3765 17.96,-47.7193 9.9697,-8.5881 22.1794,-12.882 36.555,-12.882 15.9438,0 29.0126,5.2276 39.1686,15.6824 10.1191,10.4176 15.1971,24.8678 15.1971,43.2759 0,14.9358 -2.2402,26.6602 -6.721,35.2109 -4.4807,8.5504 -11.0151,15.1968 -19.603,19.9389 -8.5507,4.7421 -17.9229,7.0945 -28.0417,7.0945 -16.2796,0 -29.423,-5.1902 -39.4673,-15.6078 -10.0443,-10.4176 -15.0477,-25.4279 -15.0477,-44.9935 z m 20.1631,0.0374 c 0,14.8609 3.2485,25.9881 9.7455,33.3437 6.5344,7.393 14.7115,11.0897 24.6064,11.0897 9.7829,0 17.9229,-3.6967 24.4571,-11.1271 6.497,-7.4305 9.7455,-18.7441 9.7455,-33.9412 0,-14.3382 -3.286,-25.2037 -9.8201,-32.5596 -6.5344,-7.3931 -14.6744,-11.0897 -24.3825,-11.0897 -9.8949,0 -18.072,3.6592 -24.6064,11.0151 -6.497,7.3556 -9.7455,18.4453 -9.7455,33.2691 z m 186.8819,58.0995 v -14.749 c -7.3559,11.4631 -18.1842,17.2134 -32.485,17.2134 -9.2602,0 -17.7735,-2.539 -25.5028,-7.6546 -7.7663,-5.078 -13.778,-12.2097 -18.072,-21.3206 -4.2565,-9.1479 -6.385,-19.6404 -6.385,-31.5141 0,-11.575 1.9417,-22.0675 5.7878,-31.5142 3.8832,-9.4093 9.6707,-16.6533 17.3999,-21.6567 7.6918,-5.0406 16.3545,-7.5424 25.8758,-7.5424 7.02,0 13.2553,1.4936 18.7069,4.4433 5.4516,2.95 9.8949,6.8332 13.33,11.5753 v -57.689 h 19.7152 v 160.4086 z m -62.2817,-57.9875 c 0,14.8609 3.1366,25.9506 9.4468,33.3065 6.273,7.3556 13.7035,11.0149 22.2542,11.0149 8.6253,0 15.9438,-3.5099 21.9926,-10.5296 6.0117,-7.0197 9.036,-17.7361 9.036,-32.1488 0,-15.8318 -3.0617,-27.4817 -9.2228,-34.9121 -6.1234,-7.4305 -13.7032,-11.1271 -22.7021,-11.1271 -8.7747,0 -16.0931,3.5472 -21.9926,10.6789 -5.8623,7.132 -8.8121,18.3708 -8.8121,33.7173 z M 36.4088,488.8054 c 0,-26.5852 7.1691,-47.4205 21.4701,-62.4682 14.3008,-15.0474 32.7461,-22.5527 55.3737,-22.5527 14.8235,0 28.1537,3.5473 40.0649,10.6044 11.8737,7.0571 20.9472,16.9146 27.1828,29.5725 6.2357,12.6206 9.3719,26.9589 9.3719,42.9772 0,16.2425 -3.2856,30.8046 -9.8575,43.6121 -6.5715,12.8446 -15.8689,22.5527 -27.892,29.1243 -12.0606,6.609 -25.0546,9.8949 -38.9821,9.8949 -15.1222,0 -28.6018,-3.6593 -40.5127,-10.9403 -11.8741,-7.2811 -20.9101,-17.2134 -27.0335,-29.8338 -6.1237,-12.5833 -9.1856,-25.9135 -9.1856,-39.9904 z m 21.9554,0.3737 c 0,19.3042 5.1903,34.5013 15.5704,45.591 10.3802,11.0894 23.4117,16.653 39.0941,16.653 15.9811,0 29.0871,-5.6007 39.4299,-16.8024 10.3056,-11.202 15.4584,-27.1083 15.4584,-47.7193 0,-13.0314 -2.203,-24.4199 -6.6089,-34.128 -4.4062,-9.7081 -10.8658,-17.2505 -19.3417,-22.5901 -8.5133,-5.3394 -18.0348,-8.028 -28.6018,-8.028 -15.0103,0 -27.9295,5.1528 -38.7579,15.4584 -10.8283,10.3057 -16.2425,27.4816 -16.2425,51.5654 z m 156.3387,77.7024 V 450.6077 h 17.6986 v 16.5039 c 8.5133,-12.6578 20.8353,-18.9683 36.9284,-18.9683 7.0197,0 13.4419,1.2696 19.3042,3.7712 5.8621,2.5019 10.2682,5.8249 13.1805,9.8949 2.9126,4.07 4.9663,8.924 6.1237,14.525 0.7095,3.6593 1.0829,10.044 1.0829,19.1549 v 71.3922 h -19.715 v -70.6453 c 0,-8.028 -0.7469,-14.0397 -2.2776,-17.9975 -1.531,-3.958 -4.2568,-7.1319 -8.14,-9.5215 -3.8832,-2.3525 -8.4759,-3.5473 -13.7035,-3.5473 -8.3639,0 -15.5705,2.6512 -21.6567,7.9906 -6.0863,5.3022 -9.1106,15.421 -9.1106,30.2819 v 63.4391 z m 109.8139,2.6884 46.599,-165.7854 h 15.8692 l -46.599,165.7854 z m 72.9978,-80.7645 c 0,-26.5852 7.1691,-47.4205 21.4701,-62.4682 14.3008,-15.0474 32.7461,-22.5527 55.3737,-22.5527 14.8235,0 28.1537,3.5473 40.0649,10.6044 11.8737,7.0571 20.9472,16.9146 27.1828,29.5725 6.2357,12.6206 9.3719,26.9589 9.3719,42.9772 0,16.2425 -3.2856,30.8046 -9.8575,43.6121 -6.5715,12.8446 -15.8689,22.5527 -27.892,29.1243 -12.0606,6.609 -25.0546,9.8949 -38.9821,9.8949 -15.1222,0 -28.6018,-3.6593 -40.5127,-10.9403 -11.8741,-7.2811 -20.9101,-17.2134 -27.0335,-29.8338 -6.1237,-12.5833 -9.1856,-25.9135 -9.1856,-39.9904 z m 21.9554,0.3737 c 0,19.3042 5.1903,34.5013 15.5704,45.591 10.3802,11.0894 23.4117,16.653 39.0941,16.653 15.9811,0 29.0871,-5.6007 39.4299,-16.8024 10.3056,-11.202 15.4584,-27.1083 15.4584,-47.7193 0,-13.0314 -2.2031,-24.4199 -6.6089,-34.128 -4.4062,-9.7081 -10.8658,-17.2505 -19.3417,-22.5901 -8.5133,-5.3394 -18.0348,-8.028 -28.6018,-8.028 -15.0103,0 -27.9295,5.1528 -38.7579,15.4584 -10.8283,10.3057 -16.2425,27.4816 -16.2425,51.5654 z m 161.0433,77.7024 V 465.842 h -17.4747 v -15.2343 h 17.4747 v -12.3219 c 0,-7.8038 0.6721,-13.5912 2.0537,-17.3625 1.9043,-5.0782 5.19,-9.2228 9.9695,-12.3967 4.7421,-3.1737 11.4256,-4.7421 20.0137,-4.7421 5.5636,0 11.687,0.6721 18.4082,1.9792 l -2.9497,17.2505 c -4.1074,-0.7095 -7.9535,-1.0829 -11.6127,-1.0829 -5.974,0 -10.1934,1.2697 -12.6953,3.8087 -2.4641,2.539 -3.6964,7.281 -3.6964,14.2262 v 10.6415 h 22.6273 v 15.2343 h -22.4033 v 101.0395 z m 58.2115,0 V 465.842 H 621.25 v -15.2343 h 17.4748 v -12.3219 c 0,-7.8038 0.6721,-13.5912 2.0537,-17.3625 1.9043,-5.0782 5.1899,-9.2228 9.9694,-12.3967 4.7421,-3.1737 11.4256,-4.7421 20.0137,-4.7421 5.5636,0 11.687,0.6721 18.4082,1.9792 l -2.9497,17.2505 c -4.1074,-0.7095 -7.9535,-1.0829 -11.6127,-1.0829 -5.974,0 -10.1934,1.2697 -12.6952,3.8087 -2.4642,2.539 -3.6964,7.281 -3.6964,14.2262 v 10.6415 h 22.6273 v 15.2343 h -22.4034 v 101.0395 z"
     style="fill:#ffffff;fill-rule:evenodd;fill-opacity:1"
     id="path4" />
</svg>
