<?xml version="1.0" encoding="UTF-8" standalone="no"?>
<svg
   xmlns:dc="http://purl.org/dc/elements/1.1/"
   xmlns:cc="http://creativecommons.org/ns#"
   xmlns:rdf="http://www.w3.org/1999/02/22-rdf-syntax-ns#"
   xmlns:svg="http://www.w3.org/2000/svg"
   xmlns="http://www.w3.org/2000/svg"
   xmlns:sodipodi="http://sodipodi.sourceforge.net/DTD/sodipodi-0.dtd"
   xmlns:inkscape="http://www.inkscape.org/namespaces/inkscape"
   inkscape:version="1.0 (4035a4fb49, 2020-05-01)"
   sodipodi:docname="pack.svg"
   viewBox="0 0 725.66931 725.66931"
   id="svg6"
   height=""
   width=""
   version="1.1">
  <metadata
     id="metadata12">
    <rdf:RDF>
      <cc:Work
         rdf:about="">
        <dc:format>image/svg+xml</dc:format>
        <dc:type
           rdf:resource="http://purl.org/dc/dcmitype/StillImage" />
        <dc:title></dc:title>
      </cc:Work>
    </rdf:RDF>
  </metadata>
  <defs
     id="defs10" />
  <sodipodi:namedview
     inkscape:current-layer="svg6"
     inkscape:window-maximized="1"
     inkscape:window-y="-8"
     inkscape:window-x="-8"
     inkscape:cy="362.83466"
     inkscape:cx="362.83466"
     inkscape:zoom="0.79650605"
     showgrid="false"
     id="namedview8"
     inkscape:window-height="746"
     inkscape:window-width="1304"
     inkscape:pageshadow="2"
     inkscape:pageopacity="0"
     guidetolerance="10"
     gridtolerance="10"
     objecttolerance="10"
     borderopacity="1"
     bordercolor="#666666"
     pagecolor="#ffffff" />
  <path
     id="path2"
     style="fill:#ffffff;fill-opacity:1;stroke:#ffffff;stroke-width:4;stroke-linecap:butt;stroke-linejoin:miter;stroke-dasharray:none;opacity:0.3;stroke-opacity:1"
     d="m 110.442,645.1432 22.3166,-26.7247 c 11.0665,8.7704 21.9034,14.1888 32.5565,16.3012 10.6073,2.0662 22.3625,0.5967 35.2658,-4.4085 12.8571,-5.0507 24.9339,-13.1785 36.1381,-24.3824 9.9643,-9.9647 17.2653,-20.2045 21.903,-30.8118 4.6381,-10.6075 6.1994,-20.3423 4.7299,-29.2504 -1.4695,-8.9082 -5.2347,-16.439 -11.2961,-22.5003 -6.1531,-6.1532 -13.3163,-9.7347 -21.5359,-10.7906 -8.1737,-1.0106 -17.9541,1.0559 -29.3882,6.1531 -7.3009,3.2601 -22.2247,11.755 -44.7247,25.5308 -22.5003,13.7755 -39.2607,22.3623 -50.3731,25.7601 -14.3725,4.4544 -27.5057,5.281 -39.3985,2.5719 C 54.6965,569.9282 44.1811,564.0043 35.1351,554.9584 25.1249,544.9482 18.65,532.7799 15.6654,518.4989 12.6349,504.1721 14.288,489.3863 20.6705,474.0035 27.0074,458.6666 36.8342,444.3401 50.1046,431.0694 64.707,416.4673 79.952,405.906 95.8399,399.4773 c 15.842,-6.4747 31.3626,-8.1275 46.5616,-4.9593 15.1532,3.1224 28.7451,10.2858 40.7759,21.3982 l -23.1429,27.0003 c -13.7756,-11.1124 -27.7351,-15.9797 -41.8323,-14.5565 -14.1429,1.378 -28.791,9.6891 -43.9441,24.8423 -15.7961,15.7961 -24.429,30.2145 -25.8523,43.2096 -1.4238,12.9952 1.9284,23.6024 10.1019,31.7758 7.0715,7.0716 15.4749,10.332 25.1637,9.8269 9.5969,-0.5051 27.4135,-8.8625 53.4036,-25.3015 26.0359,-16.393 44.7709,-26.7706 56.2504,-31.087 16.7148,-6.1531 31.8679,-7.99 45.4598,-5.3265 13.5462,2.6175 25.577,9.2296 36.1383,19.7909 10.5154,10.5154 17.3574,23.3269 20.6175,38.6178 3.2604,15.2909 1.8828,31.087 -4.2245,47.48 -6.1072,16.3931 -16.1634,31.5924 -30.2604,45.6894 -17.8166,17.8166 -35.3576,30.1226 -52.5773,36.9646 -17.2652,6.8879 -34.4851,8.4949 -51.7966,4.8677 -17.3112,-3.536 -32.6939,-11.7556 -46.2402,-24.5668 z M 294.2093,461.376 316.5259,434.6512 c 11.0664,8.7704 21.9033,14.1889 32.5565,16.3012 10.6072,2.0662 22.3625,0.5967 35.2658,-4.4084 12.8571,-5.0511 24.9338,-13.1786 36.138,-24.3828 9.9644,-9.9643 17.2656,-20.2042 21.9033,-30.8114 4.6381,-10.6076 6.1991,-20.3423 4.7296,-29.2505 -1.4691,-8.9081 -5.2347,-16.4389 -11.296,-22.5002 -6.1532,-6.1532 -13.3163,-9.7348 -21.536,-10.7907 -8.1737,-1.0105 -17.954,1.0559 -29.3879,6.1529 -7.3012,3.2601 -22.2247,11.755 -44.725,25.5308 -22.5003,13.7758 -39.2607,22.3625 -50.3731,25.7604 -14.3725,4.4544 -27.5054,5.2807 -39.3984,2.5716 -11.9387,-2.6632 -22.4541,-8.587 -31.5003,-17.6329 -10.0103,-10.0103 -16.4849,-22.1789 -19.4698,-36.4595 -3.0302,-14.3269 -1.3773,-29.1127 5.0052,-44.4954 6.3371,-15.3372 16.1637,-29.6638 29.4344,-42.9342 14.6021,-14.6024 29.8471,-25.1634 45.735,-31.5921 15.842,-6.4746 31.3625,-8.1278 46.5619,-4.9592 15.1531,3.1224 28.745,10.2855 40.7758,21.3979 l -23.1432,27.0003 c -13.7755,-11.1121 -27.735,-15.9795 -41.832,-14.5562 -14.1432,1.3776 -28.7909,9.6891 -43.9444,24.8423 -15.796,15.796 -24.429,30.2144 -25.8522,43.2096 -1.4236,12.9951 1.9284,23.6024 10.1021,31.7758 7.0713,7.0716 15.4746,10.332 25.1634,9.8269 9.5973,-0.5052 27.4136,-8.8625 53.4036,-25.3015 26.0362,-16.393 44.771,-26.771 56.2507,-31.087 16.7145,-6.1532 31.868,-7.99 45.4598,-5.3266 13.5459,2.6172 25.5767,9.2293 36.138,19.7909 10.5157,10.5154 17.3574,23.3266 20.6178,38.6178 3.2602,15.291 1.8825,31.087 -4.2247,47.4801 -6.1073,16.3927 -16.1632,31.5921 -30.2604,45.6894 -17.8163,17.8163 -35.3577,30.1226 -52.5773,36.9646 -17.2653,6.8876 -34.4852,8.4949 -51.7964,4.8674 -17.3114,-3.536 -32.6942,-11.7553 -46.2404,-24.5665 z M 528.2578,354.0634 406.6648,81.1216 l 28.6991,-28.6994 277.5798,116.9555 -29.7096,29.7097 -82.6081,-36.9647 -83.0673,83.0671 38.3884,81.1845 z m -24.245,-137.7564 67.2253,-67.2253 -75.2613,-34.1178 c -22.8217,-10.4236 -41.235,-19.4698 -55.3323,-27.0459 10.1484,15.5661 19.1484,31.8214 27.0924,48.8573 z" />
  <path
     id="path4"
     style="fill:#ffffff;fill-rule:evenodd;stroke:#ffffff;stroke-width:4;stroke-linecap:butt;stroke-linejoin:miter;stroke-dasharray:none"
     d="M 47.2184,466.7363 V 255.7828 h 79.6479 c 13.9946,0 24.6994,0.6874 32.1142,2.0135 10.3612,1.7186 19.0528,5.0085 26.0745,9.8209 7.022,4.8611 12.6692,11.6376 16.9413,20.3292 4.2721,8.6916 6.3836,18.267 6.3836,28.7263 0,17.8739 -5.6962,33.0475 -17.1377,45.4218 -11.3922,12.4234 -32.0652,18.6106 -61.9208,18.6106 H 75.2083 v 86.0312 z M 75.2083,355.9564 h 54.5059 c 18.0706,0 30.8379,-3.3392 38.4489,-10.0664 7.5623,-6.7275 11.3431,-16.1555 11.3431,-28.3825 0,-8.7899 -2.2096,-16.3519 -6.6781,-22.6375 -4.4686,-6.2852 -10.361,-10.4592 -17.6287,-12.4724 -4.714,-1.2277 -13.4053,-1.866 -26.0254,-1.866 H 75.2083 Z m 265.1646,91.629 c -9.6245,8.2007 -18.9051,13.9459 -27.7931,17.3339 -8.8881,3.3883 -18.4142,5.0579 -28.628,5.0579 -16.7938,0 -29.7082,-4.0757 -38.7436,-12.276 -9.0352,-8.1516 -13.5527,-18.6109 -13.5527,-31.3288 0,-7.4639 1.7186,-14.2895 5.1069,-20.4767 3.4373,-6.1871 7.9058,-11.0976 13.4053,-14.8297 5.5488,-3.7318 11.7363,-6.58 18.6599,-8.4951 5.1069,-1.3258 12.8163,-2.6025 23.0791,-3.8792 20.9186,-2.4551 36.3867,-5.4505 46.2566,-8.8878 0.0981,-3.5356 0.1474,-5.7946 0.1474,-6.7275 0,-10.5083 -2.4554,-17.9231 -7.3658,-22.2443 -6.6291,-5.8436 -16.4991,-8.7406 -29.5608,-8.7406 -12.2273,0 -21.2624,2.1606 -27.0567,6.4327 -5.8437,4.2721 -10.1157,11.834 -12.9147,22.7355 l -25.338,-3.5356 c 2.3079,-10.8522 6.0891,-19.6419 11.3924,-26.32 5.3034,-6.6784 12.9637,-11.7853 22.9811,-15.4191 9.968,-3.5844 21.6059,-5.4014 34.766,-5.4014 13.0618,0 23.7175,1.5222 31.9179,4.616 8.1513,3.0934 14.1913,6.9236 18.0215,11.5886 3.8302,4.6649 6.5307,10.5576 8.1023,17.6777 0.8345,4.4195 1.2767,12.3743 1.2767,23.8158 v 34.3732 c 0,24.012 0.54,39.1853 1.6203,45.618 1.0312,6.4329 3.1918,12.5708 6.3346,18.4634 h -27.1058 c -2.6025,-5.4507 -4.2721,-11.8341 -5.0088,-19.1509 z m -2.0622,-57.4523 c -9.4283,3.8302 -23.5704,7.0711 -42.4264,9.7229 -10.7048,1.5222 -18.267,3.2408 -22.6865,5.1559 -4.4192,1.9151 -7.8075,4.714 -10.2135,8.3478 -2.4064,3.6827 -3.6338,7.7584 -3.6338,12.276 0,6.8255 2.6025,12.5708 7.8565,17.1377 5.2543,4.5666 12.9147,6.8745 22.9811,6.8745 9.9683,0 18.856,-2.1605 26.6638,-6.531 7.7584,-4.3211 13.5037,-10.2628 17.1374,-17.7758 2.7992,-5.8433 4.174,-14.4368 4.174,-25.7799 z m 165.9243,20.6241 25.338,3.5353 c -2.7989,17.4323 -9.8699,31.0343 -21.3114,40.9043 -11.4412,9.8699 -25.5345,14.7804 -42.1809,14.7804 -20.8693,0 -37.6631,-6.8256 -50.332,-20.4767 -12.7182,-13.6511 -19.0528,-33.1945 -19.0528,-58.6309 0,-16.4991 2.7499,-30.8866 8.2006,-43.261 5.4505,-12.3253 13.7492,-21.6062 24.9452,-27.7441 11.1467,-6.1871 23.2756,-9.2809 36.4354,-9.2809 16.5484,0 30.1504,4.174 40.6587,12.5708 10.5574,8.3968 17.3339,20.3293 20.2802,35.7483 l -25.0432,3.8302 c -2.4063,-10.2631 -6.6291,-17.9725 -12.7673,-23.1775 -6.0891,-5.1559 -13.4546,-7.7587 -22.0972,-7.7587 -13.0617,0 -23.6684,4.665 -31.8687,13.9949 -8.1513,9.379 -12.227,24.1104 -12.227,44.3415 0,20.5257 3.9283,35.4045 11.785,44.6851 7.9059,9.2809 18.1687,13.9459 30.7885,13.9459 10.2138,0 18.709,-3.0937 25.4855,-9.33 6.8255,-6.1871 11.1467,-15.7626 12.9634,-28.6769 z m 47.5336,55.9791 V 255.7828 h 25.9271 v 120.159 l 61.2825,-62.1173 h 33.4893 l -58.3361,56.8142 64.2288,96.0976 h -31.9181 l -50.7742,-78.1254 -17.9722,17.4813 v 60.6441 z" />
</svg>
