<?xml version="1.0" encoding="UTF-8" standalone="no"?>
<svg
   xmlns:dc="http://purl.org/dc/elements/1.1/"
   xmlns:cc="http://creativecommons.org/ns#"
   xmlns:rdf="http://www.w3.org/1999/02/22-rdf-syntax-ns#"
   xmlns:svg="http://www.w3.org/2000/svg"
   xmlns="http://www.w3.org/2000/svg"
   xmlns:sodipodi="http://sodipodi.sourceforge.net/DTD/sodipodi-0.dtd"
   xmlns:inkscape="http://www.inkscape.org/namespaces/inkscape"
   inkscape:version="1.0 (4035a4fb49, 2020-05-01)"
   sodipodi:docname="remove_all_marks.svg"
   viewBox="0 0 725.66931 725.66931"
   id="svg6"
   height=""
   width=""
   version="1.1">
  <metadata
     id="metadata12">
    <rdf:RDF>
      <cc:Work
         rdf:about="">
        <dc:format>image/svg+xml</dc:format>
        <dc:type
           rdf:resource="http://purl.org/dc/dcmitype/StillImage" />
        <dc:title />
      </cc:Work>
    </rdf:RDF>
  </metadata>
  <defs
     id="defs10" />
  <sodipodi:namedview
     inkscape:current-layer="svg6"
     inkscape:window-maximized="1"
     inkscape:window-y="-8"
     inkscape:window-x="-8"
     inkscape:cy="362.83466"
     inkscape:cx="362.83466"
     inkscape:zoom="0.79650605"
     showgrid="false"
     id="namedview8"
     inkscape:window-height="746"
     inkscape:window-width="1304"
     inkscape:pageshadow="2"
     inkscape:pageopacity="0"
     guidetolerance="10"
     gridtolerance="10"
     objecttolerance="10"
     borderopacity="1"
     bordercolor="#666666"
     pagecolor="#ffffff"
     inkscape:document-rotation="0" />
  <path
     id="path2"
     style="fill:#ffffff;fill-opacity:1;fill-rule:evenodd;stroke:#ffffff;stroke-width:4;stroke-linecap:butt;stroke-linejoin:miter;stroke-dasharray:none;opacity:0.3"
     d="m 110.442,645.1432 22.3166,-26.7247 c 11.0665,8.7704 21.9034,14.1888 32.5565,16.3012 10.6073,2.0662 22.3625,0.5967 35.2658,-4.4085 12.8571,-5.0507 24.9339,-13.1785 36.1381,-24.3824 9.9643,-9.9647 17.2653,-20.2045 21.903,-30.8118 4.6381,-10.6075 6.1994,-20.3423 4.7299,-29.2504 -1.4695,-8.9082 -5.2347,-16.439 -11.2961,-22.5003 -6.1531,-6.1532 -13.3163,-9.7347 -21.5359,-10.7906 -8.1737,-1.0106 -17.9541,1.0559 -29.3882,6.1531 -7.3009,3.2601 -22.2247,11.755 -44.7247,25.5308 -22.5003,13.7755 -39.2607,22.3623 -50.3731,25.7601 -14.3725,4.4544 -27.5057,5.281 -39.3985,2.5719 C 54.6965,569.9282 44.1811,564.0043 35.1351,554.9584 25.1249,544.9482 18.65,532.7799 15.6654,518.4989 12.6349,504.1721 14.288,489.3863 20.6705,474.0035 27.0074,458.6666 36.8342,444.3401 50.1046,431.0694 64.707,416.4673 79.952,405.906 95.8399,399.4773 c 15.842,-6.4747 31.3626,-8.1275 46.5616,-4.9593 15.1532,3.1224 28.7451,10.2858 40.7759,21.3982 l -23.1429,27.0003 c -13.7756,-11.1124 -27.7351,-15.9797 -41.8323,-14.5565 -14.1429,1.378 -28.791,9.6891 -43.9441,24.8423 -15.7961,15.7961 -24.429,30.2145 -25.8523,43.2096 -1.4238,12.9952 1.9284,23.6024 10.1019,31.7758 7.0715,7.0716 15.4749,10.332 25.1637,9.8269 9.5969,-0.5051 27.4135,-8.8625 53.4036,-25.3015 26.0359,-16.393 44.7709,-26.7706 56.2504,-31.087 16.7148,-6.1531 31.8679,-7.99 45.4598,-5.3265 13.5462,2.6175 25.577,9.2296 36.1383,19.7909 10.5154,10.5154 17.3574,23.3269 20.6175,38.6178 3.2604,15.2909 1.8828,31.087 -4.2245,47.48 -6.1072,16.3931 -16.1634,31.5924 -30.2604,45.6894 -17.8166,17.8166 -35.3576,30.1226 -52.5773,36.9646 -17.2652,6.8879 -34.4851,8.4949 -51.7966,4.8677 -17.3112,-3.536 -32.6939,-11.7556 -46.2402,-24.5668 z M 294.2093,461.376 316.5259,434.6512 c 11.0664,8.7704 21.9033,14.1889 32.5565,16.3012 10.6072,2.0662 22.3625,0.5967 35.2658,-4.4084 12.8571,-5.0511 24.9338,-13.1786 36.138,-24.3828 9.9644,-9.9643 17.2656,-20.2042 21.9033,-30.8114 4.6381,-10.6076 6.1991,-20.3423 4.7296,-29.2505 -1.4691,-8.9081 -5.2347,-16.4389 -11.296,-22.5002 -6.1532,-6.1532 -13.3163,-9.7348 -21.536,-10.7907 -8.1737,-1.0105 -17.954,1.0559 -29.3879,6.1529 -7.3012,3.2601 -22.2247,11.755 -44.725,25.5308 -22.5003,13.7758 -39.2607,22.3625 -50.3731,25.7604 -14.3725,4.4544 -27.5054,5.2807 -39.3984,2.5716 -11.9387,-2.6632 -22.4541,-8.587 -31.5003,-17.6329 -10.0103,-10.0103 -16.4849,-22.1789 -19.4698,-36.4595 -3.0302,-14.3269 -1.3773,-29.1127 5.0052,-44.4954 6.3371,-15.3372 16.1637,-29.6638 29.4344,-42.9342 14.6021,-14.6024 29.8471,-25.1634 45.735,-31.5921 15.842,-6.4746 31.3625,-8.1278 46.5619,-4.9592 15.1531,3.1224 28.745,10.2855 40.7758,21.3979 l -23.1432,27.0003 c -13.7755,-11.1121 -27.735,-15.9795 -41.832,-14.5562 -14.1432,1.3776 -28.7909,9.6891 -43.9444,24.8423 -15.796,15.796 -24.429,30.2144 -25.8522,43.2096 -1.4236,12.9951 1.9284,23.6024 10.1021,31.7758 7.0713,7.0716 15.4746,10.332 25.1634,9.8269 9.5973,-0.5052 27.4136,-8.8625 53.4036,-25.3015 26.0362,-16.393 44.771,-26.771 56.2507,-31.087 16.7145,-6.1532 31.868,-7.99 45.4598,-5.3266 13.5459,2.6172 25.5767,9.2293 36.138,19.7909 10.5157,10.5154 17.3574,23.3266 20.6178,38.6178 3.2602,15.291 1.8825,31.087 -4.2247,47.4801 -6.1073,16.3927 -16.1632,31.5921 -30.2604,45.6894 -17.8163,17.8163 -35.3577,30.1226 -52.5773,36.9646 -17.2653,6.8876 -34.4852,8.4949 -51.7964,4.8674 -17.3114,-3.536 -32.6942,-11.7553 -46.2404,-24.5665 z M 528.2578,354.0634 406.6648,81.1216 l 28.6991,-28.6994 277.5798,116.9555 -29.7096,29.7097 -82.6081,-36.9647 -83.0673,83.0671 38.3884,81.1845 z m -24.245,-137.7564 67.2253,-67.2253 -75.2613,-34.1178 c -22.8217,-10.4236 -41.235,-19.4698 -55.3323,-27.0459 10.1484,15.5661 19.1484,31.8214 27.0924,48.8573 z" />
  <text
     transform="scale(0.99989691,1.0001031)"
     id="text833"
     y="306.57324"
     x="10.882185"
     style="font-style:normal;font-variant:normal;font-weight:normal;font-stretch:normal;font-size:188.768px;line-height:1.25;font-family:Arial;-inkscape-font-specification:Arial;fill:#ffffff;fill-opacity:1;stroke:#ffffff;stroke-width:4;stroke-miterlimit:4;stroke-dasharray:none;stroke-opacity:1;"
     xml:space="preserve"><tspan
       style="font-style:normal;font-variant:normal;font-weight:normal;font-stretch:normal;font-family:Arial;-inkscape-font-specification:Arial;stroke:#ffffff;stroke-width:4;stroke-miterlimit:4;stroke-dasharray:none;stroke-opacity:1;fill:#ffffff;fill-opacity:1;"
       y="306.57324"
       x="10.882185"
       id="tspan831"
       sodipodi:role="line">Remove </tspan><tspan
       style="font-style:normal;font-variant:normal;font-weight:normal;font-stretch:normal;font-family:Arial;-inkscape-font-specification:Arial;stroke:#ffffff;stroke-width:4;stroke-miterlimit:4;stroke-dasharray:none;stroke-opacity:1;fill:#ffffff;fill-opacity:1;"
       id="tspan835"
       y="542.5332"
       x="10.882185"
       sodipodi:role="line">All Mark</tspan></text>
</svg>
