<svg xmlns="http://www.w3.org/2000/svg" viewBox="0 0 725.669 725.669"><path d="M363.299 592.284H265.58V300.638h195.437v291.646z" fill="#ffd5d5" fill-rule="evenodd" stroke="#000" stroke-width=".567" stroke-linecap="round" stroke-linejoin="round"/><path d="M363.299 693.986c40.798.936 103.43-9.444 104.905-104.388-.716-3.335-2.908-5.685-5.982-7.448a1039.63 1039.63 0 01-197.846 0c-3.075 1.763-5.267 4.113-5.982 7.448 1.474 94.944 64.106 105.324 104.905 104.388zM363.299 119.905h51.105c-2.024-1.663-3.387-3.581-4.133-5.737V72.151h-93.945v42.017c-.745 2.156-2.11 4.074-4.132 5.737zM461.017 300.638c4.177-.156 6.827-2.653 8.055-7.33-.676-17.4 1.232-39.913-.885-62.631-1.564-16.797-6.446-35.707-11.837-51.089-8.897-25.38-24.431-40.687-41.946-59.683h-102.21c-17.515 18.996-33.05 34.303-41.946 59.683-5.392 15.382-10.273 34.292-11.838 51.089-2.116 22.718-.209 45.232-.885 62.63 1.229 4.678 3.878 7.175 8.055 7.33 58.499 6.11 136.938 6.11 195.437 0zM461.017 311.409c10.565 2.538 9.194 26.45 0 27.424-61.256 6.56-134.18 6.56-195.437 0-9.193-.973-10.564-24.886 0-27.424 64.718 4.768 130.719 4.768 195.437 0zM461.017 377.475c9.194-.974 10.565-24.887 0-27.425-64.718 4.768-130.719 4.768-195.437 0-10.564 2.538-9.193 26.451 0 27.425 61.256 6.559 134.181 6.559 195.437 0zM461.017 416.113c9.194-.974 10.565-24.887 0-27.425-64.718 4.768-130.719 4.768-195.437 0-10.564 2.538-9.193 26.451 0 27.425 61.256 6.559 134.181 6.559 195.437 0zM461.017 455.042c9.194-.974 10.565-24.887 0-27.425-64.718 4.768-130.719 4.768-195.437 0-10.564 2.538-9.193 26.451 0 27.425 61.256 6.559 134.181 6.559 195.437 0zM461.017 493.97c9.194-.973 10.565-24.886 0-27.424-64.718 4.768-130.719 4.768-195.437 0-10.564 2.538-9.193 26.451 0 27.425 61.256 6.559 134.181 6.559 195.437 0zM461.017 532.454c9.194-.973 10.565-24.886 0-27.424-64.718 4.767-130.719 4.767-195.437 0-10.564 2.538-9.193 26.45 0 27.424 61.256 6.56 134.181 6.56 195.437 0zM461.017 571.829c9.194-.974 10.565-24.887 0-27.425-64.718 4.768-130.719 4.768-195.437 0-10.564 2.538-9.193 26.451 0 27.425 61.256 6.56 134.181 6.56 195.437 0z" fill="#ffd5d5" fill-rule="evenodd" stroke="#000" stroke-width=".567" stroke-linecap="round" stroke-linejoin="round"/><path d="M410.271 77.957v.953a4.445 4.445 0 002.117-1.303v-42.2c-9.381-13.837-88.797-13.837-98.179 0v42.2a4.445 4.445 0 002.117 1.303v-.953c10.178-4.63 83.767-4.63 93.945 0z" fill="#ff8080" fill-rule="evenodd" stroke="#000" stroke-width=".567" stroke-linecap="round" stroke-linejoin="round"/><path d="M410.271 94.736v1.548c.769.107 1.497.03 2.117-.554V82.472c-17.724-3.625-80.454-3.625-98.179 0V95.73c.62.584 1.349.66 2.117.554v-1.548c22.581-3.717 71.364-3.717 93.945 0zM417.51 103.897v-2.064a38.651 38.651 0 00-7.239-3.17c-32.79-1.502-61.155-1.502-93.945 0a38.654 38.654 0 00-7.239 3.17v2.064c37.563-1.782 70.86-1.782 108.423 0z" fill="#ff8080" fill-rule="evenodd" stroke="#000" stroke-width=".567" stroke-linecap="round" stroke-linejoin="round"/><path d="M409.399 69.838V34.157c-26.139-8.05-66.062-8.05-92.2 0v35.68c27.791-2.984 64.408-2.984 92.2 0z" fill="none" stroke="#000" stroke-width=".567" stroke-linecap="round" stroke-linejoin="round"/><path d="M407.01 33.45l-3.23-.833v36.665l3.23.28zM401.357 31.966l-3.231-.659V68.82l3.23.252zM394.795 30.662l-3.23-.55v38.279l3.23.204zM388.971 29.756l-3.23-.417v38.753l3.23.157zM382.697 29.045l-3.23-.279v39.087l3.23.113zM376.947 28.618l-3.231-.167v39.253l3.23.075zM370.312 28.334l-3.231-.061v39.34l3.23.034z" fill="none" stroke="#000" stroke-width=".567" stroke-linecap="round" stroke-linejoin="round"/><path d="M401.428 119.905c37.203 51.15 46.349 111.823 39.514 177.916l-24.77 1.622c2.417-63.013-.367-124.4-23.149-179.538zM441.974 316.105v20.494l-26.026 1.696V317.21z" fill="#fff" fill-rule="evenodd"/><path d="M441.974 316.105v20.494l-26.026 1.696V317.21zM441.974 354.746v20.495l-26.026 1.695v-21.084zM441.974 393.562v20.494l-26.026 1.696v-21.084zM441.974 432.313v20.494l-26.026 1.696V433.42zM441.974 471.242v20.494l-26.026 1.696v-21.084zM441.974 509.725v20.494l-26.026 1.696v-21.084zM441.974 549.1v20.494l-26.026 1.696v-21.084zM441.974 588.19c-.17 58.122-18.58 87.724-44.603 96.5 11.565-22.484 18.807-52.464 18.577-95.394zM414.76 309.584l21.674-1.253v-1.917l-21.786 1.26zM414.76 348.228l21.674-1.253v-1.917l-21.786 1.26zM414.76 386.859l21.674-1.253v-1.917l-21.786 1.26zM414.76 425.788l21.674-1.253v-1.917l-21.786 1.26zM414.76 464.733l21.674-1.253v-1.917l-21.786 1.26zM414.76 503.208l21.674-1.253v-1.917l-21.786 1.26zM414.76 542.593l21.674-1.254v-1.917l-21.786 1.26zM414.76 580.904l21.674-1.253v-1.917l-21.786 1.26z" fill="#fff" fill-rule="evenodd"/><path d="M363.299 28.26V67.6" fill="none" stroke="#000" stroke-width=".567" stroke-linecap="round" stroke-linejoin="round"/><path d="M311.838 309.584l-21.674-1.253v-1.917l21.786 1.26zM311.838 348.228l-21.674-1.253v-1.917l21.786 1.26zM311.838 386.859l-21.674-1.253v-1.917l21.786 1.26zM311.838 425.788l-21.674-1.253v-1.917l21.786 1.26zM311.838 464.733l-21.674-1.253v-1.917l21.786 1.26zM311.838 503.208l-21.674-1.253v-1.917l21.786 1.26zM311.838 542.593l-21.674-1.254v-1.917l21.786 1.26zM311.838 580.904l-21.674-1.253v-1.917l21.786 1.26zM325.17 119.905c-37.204 51.15-46.35 111.823-39.515 177.916l24.77 1.622c-2.417-63.013.368-124.4 23.15-179.538zM284.623 588.19c.17 58.122 18.58 87.724 44.603 96.5-11.565-22.484-18.807-52.464-18.577-95.394zM284.623 316.105v20.494l26.026 1.696V317.21z" fill="#fff" fill-rule="evenodd"/><path d="M284.623 316.105v20.494l26.026 1.696V317.21zM284.623 354.746v20.495l26.026 1.695v-21.084zM284.623 393.562v20.494l26.026 1.696v-21.084zM284.623 432.313v20.494l26.026 1.696V433.42zM284.623 471.242v20.494l26.026 1.696v-21.084zM284.623 509.725v20.494l26.026 1.696v-21.084zM284.623 549.1v20.494l26.026 1.696v-21.084z" fill="#fff" fill-rule="evenodd"/><path d="M319.587 33.45l3.23-.833v36.665l-3.23.28zM325.24 31.966l3.231-.659V68.82l-3.23.252zM331.802 30.662l3.23-.55v38.279l-3.23.204zM337.626 29.756l3.23-.417v38.753l-3.23.157zM343.9 29.045l3.231-.279v39.087l-3.23.113zM349.65 28.618l3.232-.167v39.253l-3.231.075zM356.286 28.334l3.23-.061v39.34l-3.23.034z" fill="none" stroke="#000" stroke-width=".567" stroke-linecap="round" stroke-linejoin="round"/><path d="M411.65 117.51l.935 1.12 1.03.981.662.592.432.481-102.935.103.836-.882 1.383-1.255.96-1.237z" fill="#ffd5d5" fill-rule="evenodd"/></svg>