<?xml version="1.0" encoding="UTF-8" standalone="no"?>
<svg
   xmlns:dc="http://purl.org/dc/elements/1.1/"
   xmlns:cc="http://creativecommons.org/ns#"
   xmlns:rdf="http://www.w3.org/1999/02/22-rdf-syntax-ns#"
   xmlns:svg="http://www.w3.org/2000/svg"
   xmlns="http://www.w3.org/2000/svg"
   xmlns:xlink="http://www.w3.org/1999/xlink"
   xmlns:sodipodi="http://sodipodi.sourceforge.net/DTD/sodipodi-0.dtd"
   xmlns:inkscape="http://www.inkscape.org/namespaces/inkscape"
   viewBox="0 0 725.669 725.669"
   version="1.1"
   id="svg34"
   sodipodi:docname="Rolled up newspaper1.svg"
   inkscape:version="0.92.3 (2405546, 2018-03-11)">
  <metadata
     id="metadata40">
    <rdf:RDF>
      <cc:Work
         rdf:about="">
        <dc:format>image/svg+xml</dc:format>
        <dc:type
           rdf:resource="http://purl.org/dc/dcmitype/StillImage" />
      </cc:Work>
    </rdf:RDF>
  </metadata>
  <defs
     id="defs38">
    <linearGradient
       inkscape:collect="always"
       id="linearGradient867">
      <stop
         style="stop-color:#ff7f2a;stop-opacity:1;"
         offset="0"
         id="stop863" />
      <stop
         style="stop-color:#ff7f2a;stop-opacity:0;"
         offset="1"
         id="stop865" />
    </linearGradient>
    <linearGradient
       inkscape:collect="always"
       xlink:href="#linearGradient867"
       id="linearGradient869"
       x1="149.13113"
       y1="614.97375"
       x2="79.177872"
       y2="691.84546"
       gradientUnits="userSpaceOnUse" />
  </defs>
  <sodipodi:namedview
     pagecolor="#ffffff"
     bordercolor="#666666"
     borderopacity="1"
     objecttolerance="10"
     gridtolerance="10"
     guidetolerance="10"
     inkscape:pageopacity="0"
     inkscape:pageshadow="2"
     inkscape:window-width="1920"
     inkscape:window-height="1028"
     id="namedview36"
     showgrid="false"
     inkscape:zoom="1.3008686"
     inkscape:cx="169.99348"
     inkscape:cy="177.31698"
     inkscape:window-x="-8"
     inkscape:window-y="-8"
     inkscape:window-maximized="1"
     inkscape:current-layer="svg34" />
  <path
     fill="#ffe6d5"
     fill-rule="evenodd"
     stroke="#000"
     stroke-width=".567"
     d="M156.324 570.94a79.01 99.973-45 0 1 14.824 126.56 79.01 99.973-45 1 1-14.824-126.56z"
     id="path2" />
  <path
     fill="none"
     stroke="#000"
     stroke-width=".567"
     d="M153.53 573.734a75.059 94.974-45 0 1 14.083 120.231 75.059 94.974-45 1 1-14.082-120.231z"
     id="path4" />
  <path
     fill="none"
     stroke="#000"
     stroke-width=".567"
     d="M150.737 576.527a71.108 89.976-45 0 1 13.342 113.904 71.108 89.976-45 1 1-13.342-113.904z"
     id="path6" />
  <path
     fill="none"
     stroke="#000"
     stroke-width=".567"
     d="M147.944 579.32a67.158 84.977-45 0 1 12.6 107.576 67.158 84.977-45 1 1-12.6-107.575z"
     id="path8" />
  <path
     fill="none"
     stroke="#000"
     stroke-width=".567"
     d="M145.15 582.114a63.207 79.978-45 0 1 11.86 101.247 63.207 79.978-45 1 1-11.86-101.247z"
     id="path10" />
  <path
     fill="#ffe6d5"
     fill-rule="evenodd"
     stroke="#000"
     stroke-width=".567"
     d="M556.118 29.763L29.765 556.117c30.855-30.855 87.517-24.218 126.56 14.823 39.042 39.043 45.678 95.705 14.823 126.56L697.5 171.146c30.856-30.855 24.219-87.517-14.823-126.56-39.042-39.04-95.705-45.677-126.56-14.823z"
     id="path12" />
  <path
     fill="#fff6d5"
     fill-rule="evenodd"
     stroke="#000"
     stroke-width=".567"
     d="M595.28 253.677c4.095-28.723-7.545-62.364-33.437-88.256-25.572-25.572-58.704-37.242-87.192-33.58l-96.895 96.477c28.489-3.662 61.62 8.007 87.193 33.58 25.828 25.829 37.475 59.368 33.466 88.046z"
     id="path14" />
  <path
     fill="none"
     stroke="#000"
     stroke-width=".567"
     d="M486.176 362.13c4.01-28.679-7.637-62.218-33.465-88.047-25.573-25.573-58.704-37.242-87.193-33.58"
     id="path16" />
  <path
     fill="none"
     stroke="#000"
     stroke-width=".567"
     d="M472.643 375.604c4.01-28.678-7.637-62.217-33.465-88.046-25.573-25.573-58.705-37.242-87.193-33.58"
     id="path18" />
  <path
     fill="none"
     stroke="#000"
     stroke-width=".567"
     d="M458.215 389.97c4.01-28.677-7.637-62.217-33.465-88.046-25.573-25.572-58.705-37.242-87.193-33.58"
     id="path20" />
  <path
     fill="none"
     stroke="#000"
     stroke-width=".567"
     d="M444.988 403.141c4.009-28.678-7.637-62.218-33.466-88.047-25.572-25.572-58.704-37.241-87.192-33.58M609.435 239.403c4.009-28.678-7.638-62.218-33.466-88.047-25.573-25.572-58.704-37.242-87.193-33.58"
     id="path22" />
  <path
     fill="none"
     stroke="#000"
     stroke-width=".567"
     d="M622.938 225.899c4.01-28.678-7.637-62.218-33.465-88.047-25.573-25.572-58.704-37.242-87.193-33.58M277.534 569.873c4.01-28.678-7.637-62.218-33.465-88.047-25.573-25.572-58.705-37.242-87.193-33.58"
     id="path24" />
  <path
     fill="none"
     stroke="#000"
     stroke-width=".567"
     d="M264.88 583.013c4.01-28.678-7.637-62.217-33.465-88.046-25.573-25.573-58.705-37.242-87.193-33.58"
     id="path26" />
  <path
     fill="none"
     stroke="#000"
     stroke-width=".567"
     d="M291.357 556.11c4.01-28.679-7.637-62.219-33.465-88.047-25.573-25.573-58.705-37.242-87.193-33.58M142.697 584.567c29.52 29.52 34.537 72.361 11.208 95.69-23.329 23.33-66.17 18.312-95.69-11.207-29.519-29.52-34.537-72.362-11.208-95.69 23.33-23.33 66.171-18.312 95.69 11.207z"
     id="path28" />
  <path
     fill="none"
     stroke="#000"
     stroke-width=".567"
     d="M140.205 587.06c27.777 27.777 32.499 68.09 10.546 90.043-21.952 21.953-62.266 17.231-90.043-10.546-27.777-27.778-32.5-68.091-10.547-90.044 21.953-21.952 62.266-17.23 90.044 10.547z"
     id="path30" />
  <path
     d="M140.205 587.06c27.777 27.777 32.499 68.09 10.546 90.043-25.613 25.613-67.256 12.24-90.043-10.546-27.777-27.778-32.5-68.091-10.547-90.044 21.953-21.952 62.266-17.23 90.044 10.547z"
     id="path32"
     style="fill-opacity:1;fill:url(#linearGradient869)"
     fill-rule="evenodd"
     fill-opacity=".588" />
</svg>
