<?xml version="1.0" encoding="UTF-8" standalone="no"?>
<svg
   xmlns:dc="http://purl.org/dc/elements/1.1/"
   xmlns:cc="http://creativecommons.org/ns#"
   xmlns:rdf="http://www.w3.org/1999/02/22-rdf-syntax-ns#"
   xmlns:svg="http://www.w3.org/2000/svg"
   xmlns="http://www.w3.org/2000/svg"
   xmlns:sodipodi="http://sodipodi.sourceforge.net/DTD/sodipodi-0.dtd"
   xmlns:inkscape="http://www.inkscape.org/namespaces/inkscape"
   inkscape:version="1.0 (4035a4fb49, 2020-05-01)"
   sodipodi:docname="123.svg"
   viewBox="0 0 725.66931 725.66931"
   id="svg4"
   height=""
   width=""
   version="1.1">
  <metadata
     id="metadata10">
    <rdf:RDF>
      <cc:Work
         rdf:about="">
        <dc:format>image/svg+xml</dc:format>
        <dc:type
           rdf:resource="http://purl.org/dc/dcmitype/StillImage" />
        <dc:title></dc:title>
      </cc:Work>
    </rdf:RDF>
  </metadata>
  <defs
     id="defs8" />
  <sodipodi:namedview
     inkscape:current-layer="svg4"
     inkscape:window-maximized="0"
     inkscape:window-y="0"
     inkscape:window-x="0"
     inkscape:cy="362.83466"
     inkscape:cx="362.83466"
     inkscape:zoom="0.79650605"
     showgrid="false"
     id="namedview6"
     inkscape:window-height="480"
     inkscape:window-width="820"
     inkscape:pageshadow="2"
     inkscape:pageopacity="0"
     guidetolerance="10"
     gridtolerance="10"
     objecttolerance="10"
     borderopacity="1"
     bordercolor="#666666"
     pagecolor="#ffffff" />
  <path
     id="path2"
     style="fill:#ffffff;fill-rule:evenodd"
     d="m 168.8066,250.9418 19.3087,4.8779 c -4.0311,15.8193 -11.2805,27.845 -21.7477,36.144 -10.4672,8.2993 -23.2716,12.4659 -38.4137,12.4659 -15.6501,0 -28.3867,-3.1842 -38.2104,-9.5865 -9.8235,-6.3683 -17.2761,-15.616 -22.3912,-27.7092 -5.1148,-12.1272 -7.6892,-25.1011 -7.6892,-38.9897 0,-15.1418 2.8791,-28.353 8.6717,-39.6332 5.7926,-11.2802 14.0241,-19.8504 24.6946,-25.7108 10.6704,-5.8603 22.4249,-8.7735 35.2295,-8.7735 14.5661,0 26.7948,3.6924 36.686,11.111 9.9252,7.4182 16.8358,17.818 20.7312,31.2321 l -18.902,4.4716 c -3.3534,-10.5689 -8.2652,-18.2922 -14.6676,-23.1026 -6.4023,-4.8441 -14.4643,-7.249 -24.1863,-7.249 -11.1447,0 -20.4942,2.6762 -27.9805,8.0282 -7.4863,5.3521 -12.7707,12.5674 -15.7856,21.5779 -3.0487,9.0445 -4.5728,18.36 -4.5728,27.9465 0,12.3645 1.7951,23.1704 5.3858,32.3842 3.5909,9.2477 9.18,16.1243 16.768,20.6974 7.5878,4.5731 15.7856,6.8426 24.6269,6.8426 10.7719,0 19.8504,-3.1165 27.3027,-9.3155 7.4526,-6.2329 12.4997,-15.4469 15.1419,-27.7093 z m 109.7872,37.8377 c -6.6393,5.6571 -13.0416,9.6205 -19.173,11.9577 -6.131,2.3374 -12.7029,3.4892 -19.7487,3.4892 -11.5852,0 -20.4942,-2.8117 -26.727,-8.4685 -6.2328,-5.6234 -9.3495,-12.8387 -9.3495,-21.6122 0,-5.1489 1.1857,-9.8575 3.5232,-14.1256 2.3712,-4.2682 5.4535,-7.6556 9.2477,-10.23 3.8276,-2.5744 8.0961,-4.5394 12.8721,-5.8603 3.5229,-0.9148 8.8413,-1.7955 15.9211,-2.6762 14.4306,-1.6937 25.1011,-3.7602 31.9099,-6.1314 0.0678,-2.4389 0.1015,-3.9971 0.1015,-4.6406 0,-7.2493 -1.6937,-12.3644 -5.0811,-15.3453 -4.5731,-4.0309 -11.382,-6.0296 -20.3925,-6.0296 -8.4347,0 -14.6675,1.4905 -18.665,4.4376 -4.0308,2.9469 -6.978,8.1638 -8.9087,15.6839 l -17.4793,-2.439 c 1.592,-7.4863 4.2004,-13.5499 7.8588,-18.1567 3.6584,-4.6069 8.9427,-8.1301 15.8533,-10.6368 6.8766,-2.4726 14.9049,-3.7261 23.9831,-3.7261 9.0108,0 16.3616,1.0502 22.0184,3.1842 5.6234,2.1342 9.7897,4.7763 12.4322,7.9945 2.6422,3.2179 4.5051,7.2831 5.5891,12.1947 0.576,3.0489 0.8807,8.5365 0.8807,16.4293 v 23.7121 c 0,16.5645 0.3728,27.032 1.118,31.4694 0.7112,4.4376 2.2019,8.672 4.3699,12.7369 h -18.6988 c -1.7954,-3.7602 -2.9472,-8.1638 -3.4554,-13.2112 z m -1.4227,-39.6331 c -6.5038,2.6421 -16.2595,4.8778 -29.2674,6.707 -7.3849,1.0503 -12.6015,2.236 -15.6501,3.5569 -3.0487,1.3213 -5.3861,3.2519 -7.0458,5.7589 -1.66,2.5404 -2.507,5.3521 -2.507,8.4685 0,4.7086 1.7955,8.6717 5.4201,11.8222 3.6244,3.1504 8.9091,4.7423 15.8534,4.7423 6.8763,0 13.0076,-1.4904 18.3937,-4.5051 5.3521,-2.9812 9.3155,-7.0798 11.8222,-12.2626 1.9309,-4.0312 2.8794,-9.9593 2.8794,-17.7843 z m 45.5615,52.8443 V 196.5053 h 16.0566 v 14.9726 c 7.7233,-11.4834 18.902,-17.2083 33.5018,-17.2083 6.3683,0 12.195,1.1517 17.513,3.4214 5.3184,2.2694 9.3155,5.2844 11.958,8.9768 2.6422,3.6924 4.5051,8.096 5.5553,13.1771 0.6435,3.3197 0.9822,9.1123 0.9822,17.3775 v 64.7683 h -17.8857 v -64.0905 c 0,-7.2831 -0.6775,-12.7369 -2.0662,-16.3276 -1.389,-3.5909 -3.8616,-6.47 -7.3848,-8.638 -3.5229,-2.1342 -7.6896,-3.2182 -12.4319,-3.2182 -7.5878,0 -14.1256,2.4052 -19.6472,7.2491 -5.5217,4.8104 -8.2653,13.9904 -8.2653,27.4722 v 57.553 z m 181.9401,-38.617 17.4792,2.439 c -1.9306,12.0254 -6.8085,21.4086 -14.7013,28.2174 -7.8928,6.8089 -17.6148,10.1963 -29.0982,10.1963 -14.3969,0 -25.9818,-4.7087 -34.7216,-14.1256 -8.7735,-9.4173 -13.1434,-22.8992 -13.1434,-40.4462 0,-11.3819 1.8973,-21.3072 5.6571,-29.8434 3.7602,-8.5025 9.485,-14.9049 17.2083,-19.1393 7.6896,-4.2681 16.0566,-6.4023 25.1351,-6.4023 11.4157,0 20.7989,2.8794 28.048,8.672 7.283,5.7924 11.9576,14.0239 13.9901,24.6606 l -17.276,2.6422 c -1.6597,-7.0798 -4.5729,-12.3982 -8.8073,-15.9888 -4.2004,-3.5567 -9.2818,-5.3521 -15.2436,-5.3521 -9.0105,0 -16.3275,3.2181 -21.9846,9.6542 -5.6231,6.4701 -8.4348,16.6323 -8.4348,30.5887 0,14.1596 2.7102,24.4236 8.13,30.8259 5.4539,6.4023 12.5337,9.6202 21.2395,9.6202 7.0458,0 12.9061,-2.1339 17.5807,-6.4361 4.7087,-4.2681 7.6896,-10.8737 8.9428,-19.7827 z m 104.6727,4.4714 18.4955,2.4389 c -2.8795,10.7382 -8.2656,19.1053 -16.1244,25.0334 -7.859,5.928 -17.8857,8.909 -30.1144,8.909 -15.3791,0 -27.574,-4.7424 -36.5845,-14.2274 -9.0108,-9.451 -13.5162,-22.7636 -13.5162,-39.8701 0,-17.6826 4.5395,-31.4357 13.6517,-41.1917 9.1123,-9.7897 20.9344,-14.6676 35.4665,-14.6676 14.0579,0 25.5413,4.7764 34.4503,14.3629 8.909,9.5865 13.3807,23.0686 13.3807,40.4461 0,1.0503 -0.034,2.6422 -0.1018,4.7424 h -78.5551 c 0.6775,11.5514 3.9297,20.4264 9.8237,26.5578 5.8604,6.1313 13.2112,9.2137 21.9847,9.2137 6.5376,0 12.1269,-1.7274 16.7341,-5.1826 4.6406,-3.4554 8.2989,-8.9767 11.0092,-16.5648 z m -58.5355,-28.6577 h 58.7387 c -0.7792,-8.8753 -3.0489,-15.5146 -6.7411,-19.9522 -5.6571,-6.8766 -13.0416,-10.3317 -22.0861,-10.3317 -8.1978,0 -15.0744,2.7439 -20.6637,8.2315 -5.5554,5.4876 -8.638,12.8384 -9.2478,22.0524 z m 99.2189,62.8033 V 156.4656 h 17.8857 V 301.9907 Z M 33.681,476.3092 c 0,-19.478 5.4201,-33.9086 16.2938,-43.2918 9.0445,-7.7911 20.1215,-11.6867 33.1631,-11.6867 14.4643,0 26.3205,4.7423 35.5343,14.2273 9.18,9.451 13.7871,22.5604 13.7871,39.2607 0,13.5496 -2.0324,24.1864 -6.0976,31.9437 -4.0649,7.7573 -9.993,13.7868 -17.784,18.089 -7.7573,4.3021 -16.2598,6.436 -25.4398,6.436 -14.7694,0 -26.693,-4.7086 -35.8053,-14.1596 -9.1122,-9.451 -13.6516,-23.0683 -13.6516,-40.8186 z m 18.2922,0.0337 c 0,13.4822 2.9472,23.5766 8.8413,30.25 5.9281,6.7073 13.3466,10.0607 22.3234,10.0607 8.8753,0 16.2598,-3.3534 22.1879,-10.0945 5.8941,-6.7411 8.8413,-17.005 8.8413,-30.7919 0,-13.0079 -2.981,-22.8654 -8.9091,-29.5387 -5.928,-6.7071 -13.3126,-10.0607 -22.1201,-10.0607 -8.9768,0 -16.3953,3.3196 -22.3234,9.993 -5.8941,6.6733 -8.8413,16.734 -8.8413,30.1821 z m 101.2513,52.7088 V 423.5664 h 16.0566 v 16.1583 c 4.0986,-7.4863 7.8928,-12.4322 11.3816,-14.8034 3.4892,-2.4049 7.3171,-3.5906 11.4835,-3.5906 6.0298,0 12.1609,1.8969 18.394,5.6571 l -6.3686,16.4968 c -4.3359,-2.439 -8.6718,-3.6584 -13.0076,-3.6584 -3.8957,0 -7.3849,1.1857 -10.4672,3.5229 -3.0827,2.3374 -5.2847,5.5893 -6.6056,9.756 -1.9987,6.3346 -2.9809,13.2789 -2.9809,20.8329 v 55.1137 z m 64.5987,8.7395 17.2761,2.4393 c 0.7115,5.3521 2.7439,9.2477 6.0636,11.7204 4.4376,3.2859 10.5009,4.9459 18.1905,4.9459 8.2655,0 14.6678,-1.66 19.1729,-4.9459 4.5054,-3.2857 7.5541,-7.9266 9.1463,-13.8546 0.9145,-3.6247 1.355,-11.2465 1.2872,-22.8654 -7.825,9.214 -17.547,13.8208 -29.2,13.8208 -14.498,0 -25.7445,-5.2166 -33.6713,-15.6838 -7.9602,-10.4334 -11.9236,-22.9671 -11.9236,-37.567 0,-10.0607 1.8291,-19.3422 5.4538,-27.8447 3.6244,-8.5025 8.909,-15.0403 15.8193,-19.6812 6.9103,-4.6409 15.0404,-6.9443 24.3896,-6.9443 12.4322,0 22.6961,5.0811 30.7582,15.2436 v -13.0079 h 16.463 v 91.0887 c 0,16.4291 -1.6599,28.048 -5.0133,34.8909 -3.32,6.8425 -8.6381,12.2623 -15.8534,16.2257 -7.2493,3.9634 -16.1583,5.9619 -26.727,5.9619 -12.5674,0 -22.6959,-2.8114 -30.4194,-8.4685 -7.7573,-5.6231 -11.4834,-14.1256 -11.2125,-25.4739 z m 14.6339,-63.2775 c 0,13.7869 2.7437,23.8476 8.2315,30.1822 5.5216,6.3346 12.3979,9.5187 20.6635,9.5187 8.2315,0 15.1081,-3.1501 20.6974,-9.4509 5.5554,-6.3006 8.333,-16.1921 8.333,-29.674 0,-12.8724 -2.8794,-22.5944 -8.604,-29.1322 -5.7248,-6.5378 -12.6354,-9.7897 -20.6974,-9.7897 -7.9606,0 -14.7016,3.2182 -20.291,9.6542 -5.5553,6.4361 -8.333,15.9888 -8.333,28.6917 z m 170.5921,41.3269 c -6.6393,5.6571 -13.0416,9.6205 -19.173,11.9577 -6.131,2.3374 -12.7029,3.4891 -19.7487,3.4891 -11.5852,0 -20.4942,-2.8117 -26.727,-8.4685 -6.2328,-5.6233 -9.3495,-12.8386 -9.3495,-21.6122 0,-5.1488 1.1857,-9.8574 3.5232,-14.1256 2.3712,-4.2681 5.4535,-7.6555 9.2477,-10.2299 3.8276,-2.5744 8.0961,-4.5394 12.8721,-5.8604 3.5229,-0.9147 8.8413,-1.7954 15.9211,-2.6762 14.4306,-1.6937 25.1011,-3.7601 31.9099,-6.1313 0.0678,-2.4389 0.1015,-3.9971 0.1015,-4.6406 0,-7.2493 -1.6937,-12.3644 -5.0811,-15.3453 -4.5731,-4.0309 -11.382,-6.0296 -20.3925,-6.0296 -8.4347,0 -14.6675,1.4904 -18.665,4.4376 -4.0308,2.9469 -6.978,8.1638 -8.9087,15.6838 l -17.4793,-2.4389 c 1.592,-7.4863 4.2004,-13.5499 7.8588,-18.1568 3.6584,-4.6068 8.9427,-8.13 15.8533,-10.6367 6.8766,-2.4726 14.9049,-3.7261 23.9831,-3.7261 9.0108,0 16.3616,1.0502 22.0184,3.1841 5.6234,2.1342 9.7897,4.7764 12.4322,7.9946 2.6422,3.2179 4.5051,7.283 5.5891,12.1946 0.576,3.049 0.8807,8.5366 0.8807,16.4294 v 23.712 c 0,16.5646 0.3728,27.0321 1.118,31.4694 0.7112,4.4377 2.2019,8.6721 4.3699,12.7369 h -18.6988 c -1.7954,-3.7601 -2.9472,-8.1637 -3.4554,-13.2111 z m -1.4227,-39.6332 c -6.5038,2.6422 -16.2595,4.8779 -29.2674,6.7071 -7.3849,1.0502 -12.6015,2.236 -15.6501,3.5569 -3.0487,1.3212 -5.3861,3.2519 -7.0458,5.7589 -1.66,2.5404 -2.507,5.3521 -2.507,8.4685 0,4.7086 1.7955,8.6717 5.4201,11.8221 3.6244,3.1505 8.9091,4.7424 15.8534,4.7424 6.8763,0 13.0076,-1.4904 18.3937,-4.5051 5.3521,-2.9812 9.3155,-7.0798 11.8222,-12.2627 1.9309,-4.0311 2.8794,-9.9592 2.8794,-17.7843 z m 38.4477,21.3409 17.6825,-2.8454 c 0.9825,7.0798 3.7602,12.4997 8.2993,16.2939 4.5391,3.7598 10.9077,5.6568 19.0375,5.6568 8.2315,0 14.3291,-1.6597 18.3262,-5.0134 3.9632,-3.3196 5.9619,-7.249 5.9619,-11.7544 0,-4.0312 -1.7952,-7.2153 -5.3521,-9.5187 -2.5067,-1.5923 -8.6043,-3.5907 -18.2923,-6.0636 -13.0756,-3.286 -22.1201,-6.1314 -27.2012,-8.5363 -5.0474,-2.4392 -8.8753,-5.7589 -11.4835,-10.027 -2.6084,-4.2344 -3.9294,-8.9427 -3.9294,-14.0919 0,-4.7083 1.084,-9.0445 3.2179,-13.0416 2.168,-3.9971 5.0811,-7.3168 8.7736,-9.959 2.7776,-2.0327 6.5718,-3.7601 11.3479,-5.1828 4.8104,-1.4227 9.9252,-2.1342 15.4131,-2.1342 8.2653,0 15.5143,1.1857 21.7474,3.5906 6.2668,2.3712 10.8737,5.6234 13.8546,9.6883 2.9472,4.0989 5.0134,9.5524 6.1313,16.3953 l -17.4792,2.4389 c -0.7793,-5.4876 -3.0827,-9.7897 -6.8766,-12.8724 -3.7939,-3.0824 -9.146,-4.6069 -16.0903,-4.6069 -8.1638,0 -14.0241,1.355 -17.5133,4.0649 -3.4889,2.7099 -5.2506,5.8941 -5.2506,9.5188 0,2.3034 0.7115,4.4036 2.1682,6.2668 1.4565,1.8969 3.7262,3.4892 6.8426,4.7424 1.7954,0.6774 7.012,2.2019 15.7515,4.5731 12.6014,3.3537 21.4087,6.1313 26.4223,8.2652 5.0134,2.1343 8.9428,5.2847 11.7882,9.3496 2.8794,4.0989 4.3021,9.18 4.3021,15.2773 0,5.9281 -1.7274,11.5174 -5.2166,16.768 -3.4891,5.2507 -8.5025,9.3155 -15.0403,12.1947 -6.5716,2.8794 -13.9901,4.3021 -22.2557,4.3021 -13.6851,0 -24.1526,-2.8454 -31.3339,-8.5025 -7.1813,-5.6908 -11.7544,-14.0919 -13.7531,-25.2366 z m 108.7376,31.5034 V 423.5664 h 16.0565 v 14.9048 c 3.2857,-5.1488 7.6896,-9.3155 13.1772,-12.4319 5.4876,-3.1504 11.7204,-4.7086 18.7325,-4.7086 7.7913,0 14.1936,1.6259 19.1729,4.8441 4.9797,3.2519 8.5025,7.7573 10.535,13.5836 8.401,-12.2964 19.2747,-18.4277 32.6891,-18.4277 10.501,0 18.597,2.8794 24.2204,8.672 5.6568,5.7923 8.5022,14.7013 8.5022,26.727 v 72.322 h -17.8855 v -66.3942 c 0,-7.1135 -0.61,-12.2624 -1.7617,-15.4128 -1.1517,-3.1504 -3.2519,-5.6571 -6.3343,-7.5878 -3.049,-1.9309 -6.6396,-2.8794 -10.7382,-2.8794 -7.4526,0 -13.6176,2.473 -18.5295,7.3845 -4.9119,4.9459 -7.3508,12.8387 -7.3508,23.6784 v 61.2113 h -17.8858 v -68.4603 c 0,-7.9268 -1.4564,-13.8887 -4.3699,-17.8521 -2.9131,-3.9631 -7.6895,-5.9618 -14.2948,-5.9618 -5.0137,0 -9.6542,1.3212 -13.9227,3.9634 -4.2681,2.6422 -7.3508,6.5038 -9.2814,11.6189 -1.897,5.0811 -2.8455,12.4319 -2.8455,22.0184 v 54.6735 z" />
</svg>
