<?xml version="1.0" encoding="UTF-8" standalone="no"?>
<svg
   xmlns:dc="http://purl.org/dc/elements/1.1/"
   xmlns:cc="http://creativecommons.org/ns#"
   xmlns:rdf="http://www.w3.org/1999/02/22-rdf-syntax-ns#"
   xmlns:svg="http://www.w3.org/2000/svg"
   xmlns="http://www.w3.org/2000/svg"
   xmlns:sodipodi="http://sodipodi.sourceforge.net/DTD/sodipodi-0.dtd"
   xmlns:inkscape="http://www.inkscape.org/namespaces/inkscape"
   version="1.1"
   width=""
   height=""
   id="svg15"
   viewBox="0 0 725.66931 725.66931"
   sodipodi:docname="nubian goat.svg"
   inkscape:version="1.0 (4035a4fb49, 2020-05-01)">
  <metadata
     id="metadata21">
    <rdf:RDF>
      <cc:Work
         rdf:about="">
        <dc:format>image/svg+xml</dc:format>
        <dc:type
           rdf:resource="http://purl.org/dc/dcmitype/StillImage" />
        <dc:title />
      </cc:Work>
    </rdf:RDF>
  </metadata>
  <defs
     id="defs19" />
  <sodipodi:namedview
     inkscape:document-rotation="0"
     pagecolor="#ffffff"
     bordercolor="#666666"
     borderopacity="1"
     objecttolerance="10"
     gridtolerance="10"
     guidetolerance="10"
     inkscape:pageopacity="0"
     inkscape:pageshadow="2"
     inkscape:window-width="1304"
     inkscape:window-height="746"
     id="namedview17"
     showgrid="false"
     inkscape:zoom="0.79650605"
     inkscape:cx="362.83466"
     inkscape:cy="362.83466"
     inkscape:window-x="-8"
     inkscape:window-y="-8"
     inkscape:window-maximized="1"
     inkscape:current-layer="Layer1000" />
  <g
     id="Layer1000">
    <path
       d="M 333.6956,599.0877 110.677,466.6538 C 189.8698,398.3454 252.209,319.498 289.3857,224.93 l 1.4782,-16.7388 c 28.7872,-28.1933 61.6352,-31.2106 96.9854,-18.7082 h 60.5516 l 40.3711,32.001 81.7248,34.4616 73.8458,82.7072 -0.4912,57.6012 -27.0784,25.6002 -86.6459,-14.7695 -104.8629,16.7388 -55.1376,55.1407 z"
       style="fill:#ff8080;fill-rule:evenodd;stroke:#000000;stroke-width:7.9999;stroke-linecap:round;stroke-linejoin:round;stroke-dasharray:none;fill-opacity:1"
       id="path2" />
    <path
       d="m 400.1716,293.3679 c 0.2441,81.7515 9.4389,129.6176 28.0608,141.7865 v 51.2004 C 306.5146,483.476 238.8046,368.1292 329.7703,234.7828"
       style="fill:none;stroke:#000000;stroke-width:7.9999;stroke-linecap:round;stroke-linejoin:round;stroke-dasharray:none"
       id="path4" />
    <path
       d="m 643.8514,396.254 c -21.7002,-4.235 -40.8267,-9.5104 -57.5864,-15.7415"
       style="fill:none;stroke:#000000;stroke-width:7.9999;stroke-linecap:round;stroke-linejoin:round;stroke-dasharray:none"
       id="path6" />
    <path
       d="M 644.1431,361.9219 C 600.8097,336.7891 596.3307,336.7921 644.2414,350.39 Z"
       style="fill:none;stroke:#000000;stroke-width:7.9999;stroke-linecap:round;stroke-linejoin:round;stroke-dasharray:none"
       id="path8" />
    <path
       d="m 421.0382,428.051 -48.131,48.134 c 15.6864,5.8203 34.082,9.2544 55.3252,10.1698 v -51.2004 c -2.3534,-1.4721 -4.7426,-3.7541 -7.1942,-7.1034 z"
       style="fill:#ff8080;fill-rule:evenodd;stroke:#000000;stroke-width:7.9999;stroke-linecap:round;stroke-linejoin:round;stroke-dasharray:none;fill-opacity:1"
       id="path10" />
    <path
       d="m 370.0164,470.0834 44.4573,-44.0494 c 1.9529,3.6187 4.5817,6.7849 7.1897,9.4181 l -39.3709,39.0925 c -4.022,-0.9824 -8.1007,-2.5067 -12.2761,-4.4612 z"
       style="fill:#ff8080;fill-rule:evenodd;fill-opacity:1"
       id="path12" />
  </g>
</svg>
