<?xml version="1.0" encoding="UTF-8" standalone="no"?>
<svg
   xmlns:dc="http://purl.org/dc/elements/1.1/"
   xmlns:cc="http://creativecommons.org/ns#"
   xmlns:rdf="http://www.w3.org/1999/02/22-rdf-syntax-ns#"
   xmlns:svg="http://www.w3.org/2000/svg"
   xmlns="http://www.w3.org/2000/svg"
   xmlns:sodipodi="http://sodipodi.sourceforge.net/DTD/sodipodi-0.dtd"
   xmlns:inkscape="http://www.inkscape.org/namespaces/inkscape"
   version="1.1"
   width=""
   height=""
   id="svg66"
   viewBox="0 0 725.66931 725.66931"
   sodipodi:docname="all_consuming_shield.svg"
   inkscape:version="1.0 (4035a4fb49, 2020-05-01)">
  <metadata
     id="metadata72">
    <rdf:RDF>
      <cc:Work
         rdf:about="">
        <dc:format>image/svg+xml</dc:format>
        <dc:type
           rdf:resource="http://purl.org/dc/dcmitype/StillImage" />
        <dc:title />
      </cc:Work>
    </rdf:RDF>
  </metadata>
  <defs
     id="defs70" />
  <sodipodi:namedview
     inkscape:document-rotation="0"
     pagecolor="#ffffff"
     bordercolor="#666666"
     borderopacity="1"
     objecttolerance="10"
     gridtolerance="10"
     guidetolerance="10"
     inkscape:pageopacity="0"
     inkscape:pageshadow="2"
     inkscape:window-width="1304"
     inkscape:window-height="746"
     id="namedview68"
     showgrid="false"
     inkscape:zoom="0.79650605"
     inkscape:cx="337.725"
     inkscape:cy="368.74429"
     inkscape:window-x="-8"
     inkscape:window-y="-8"
     inkscape:window-maximized="1"
     inkscape:current-layer="Layer1000" />
  <g
     id="Layer1000">
    <g
       id="Layer1001">
      <path
         d="M 368.779,682.3473 C 228.6304,549.0485 124.2266,375.9303 125.8999,159.1843 c 33.4784,-0.4863 153.505,-58.2454 242.0227,-124.5801 93.8937,64.755 207.1137,118.9905 238.7848,121.7197 0.4235,218.2273 -97.9476,382.8861 -237.9247,526.03 z"
         style="fill:#cc00ff;fill-rule:evenodd;stroke:#000000;stroke-width:5;stroke-linecap:butt;stroke-linejoin:miter;stroke-dasharray:none;stroke-miterlimit:4"
         id="path2" />
      <path
         d="M 364.7115,70.2422 C 466.3421,129.3448 485.0146,151.8483 585.3429,184.4469 487.2566,174.2122 434.3674,143.3487 364.7115,70.2422 Z"
         style="fill:#ffffff;fill-opacity:0.78;fill-rule:evenodd"
         id="path4" />
      <path
         d="m 124.2272,161.9163 c 39.2056,-10.0446 171.4551,-77.6468 239.122,-124.9576 -0.5612,113.8037 6.192,432.0286 2.2018,648.8355 C 147.7893,457.3209 123.6463,273.4968 124.2272,161.9228 Z"
         style="fill:#000000;fill-opacity:0.2;fill-rule:evenodd"
         id="path6" />
    </g>
    <path
       d="m 366.0732,184.0174 a 48.5181,48.5181 0 0 1 48.5181,48.5181 48.5181,48.5181 0 1 1 -48.5181,-48.5181 z"
       style="fill:#ff2e32;fill-rule:evenodd;stroke:#000000;stroke-width:5;stroke-linecap:butt;stroke-linejoin:miter;stroke-dasharray:none;stroke-miterlimit:4"
       id="path11" />
    <path
       d="m 254.4953,248.437 a 48.5181,48.5181 0 0 1 48.5181,48.518 48.5181,48.5181 0 1 1 -48.5181,-48.518 z"
       style="fill:#a69d90;fill-rule:evenodd;stroke:#000000;stroke-width:5;stroke-linecap:butt;stroke-linejoin:miter;stroke-dasharray:none;stroke-miterlimit:4"
       id="path13" />
    <path
       d="m 477.6511,248.4368 a 48.5181,48.5181 0 0 1 48.5181,48.5181 48.5181,48.5181 0 1 1 -48.5181,-48.5181 z"
       style="fill:#e96a30;fill-rule:evenodd;stroke:#000000;stroke-width:5;stroke-linecap:butt;stroke-linejoin:miter;stroke-dasharray:none;stroke-miterlimit:4"
       id="path15" />
    <path
       d="m 254.4953,377.2761 a 48.5181,48.5181 0 0 1 48.5181,48.5181 48.5181,48.5181 0 1 1 -48.5181,-48.5181 z"
       style="fill:#f5a7de;fill-rule:evenodd;stroke:#000000;stroke-width:5;stroke-linecap:butt;stroke-linejoin:miter;stroke-dasharray:none;stroke-miterlimit:4"
       id="path17" />
    <path
       d="m 366.0732,441.6955 a 48.5181,48.5181 0 0 1 48.5181,48.5181 48.5181,48.5181 0 1 1 -48.5181,-48.5181 z"
       style="fill:#71c837;fill-rule:evenodd;stroke:#000000;stroke-width:5;stroke-linecap:butt;stroke-linejoin:miter;stroke-dasharray:none;stroke-miterlimit:4"
       id="path19" />
    <path
       d="m 477.6511,377.276 a 48.5181,48.5181 0 0 1 48.5181,48.5181 48.5181,48.5181 0 1 1 -48.5181,-48.5181 z"
       style="fill:#55ddff;fill-rule:evenodd;stroke:#000000;stroke-width:5;stroke-linecap:butt;stroke-linejoin:miter;stroke-dasharray:none;stroke-miterlimit:4"
       id="path21" />
    <g
       style="stroke-width:5;stroke-miterlimit:4;stroke-dasharray:none"
       transform="translate(-6)"
       id="Layer1002">
      <path
         d="m 372.3821,272.8055 c -17.4262,-16.5745 -30.4079,-38.1001 -30.1998,-65.0505 4.1627,-0.0605 19.0869,-7.2423 30.0933,-15.4904 11.6748,8.0517 25.7527,14.7954 29.6907,15.1347 0.0527,27.1346 -12.1789,47.6084 -29.5837,65.407 z"
         style="fill:#cc00ff;fill-rule:evenodd;stroke:#000000;stroke-width:5;stroke-linecap:butt;stroke-linejoin:miter;stroke-dasharray:none;stroke-miterlimit:4"
         id="path23" />
      <path
         d="m 372.3737,196.6958 c 12.6368,7.3489 14.9586,10.147 27.4335,14.2003 -12.1961,-1.2725 -18.7724,-5.1101 -27.4335,-14.2003 z"
         style="fill:#ffffff;fill-opacity:0.78;fill-rule:evenodd;stroke-width:5;stroke-miterlimit:4;stroke-dasharray:none"
         id="path25" />
      <path
         d="m 342.4717,208.0947 c 4.8748,-1.249 21.3189,-9.6547 29.7326,-15.5374 -0.0698,14.1505 0.7699,53.7188 0.2738,80.6768 -27.0767,-28.4086 -30.0787,-51.2654 -30.0064,-65.1386 z"
         style="fill:#000000;fill-opacity:0.2;fill-rule:evenodd;stroke-width:5;stroke-miterlimit:4;stroke-dasharray:none"
         id="path27" />
    </g>
    <g
       style="stroke-width:5;stroke-miterlimit:4;stroke-dasharray:none"
       transform="translate(-6)"
       id="Layer1003">
      <path
         d="m 483.4902,336.865 c -17.4262,-16.5745 -30.4079,-38.1002 -30.1998,-65.0506 4.1627,-0.0605 19.0869,-7.2423 30.0933,-15.4904 11.6748,8.0517 25.7527,14.7954 29.6907,15.1347 0.0527,27.1346 -12.1789,47.6084 -29.5837,65.4071 z"
         style="fill:#cc00ff;fill-rule:evenodd;stroke:#000000;stroke-width:5;stroke-linecap:butt;stroke-linejoin:miter;stroke-dasharray:none;stroke-miterlimit:4"
         id="path30" />
      <path
         d="m 483.4818,260.7553 c 12.6368,7.3488 14.9586,10.1469 27.4335,14.2003 -12.1961,-1.2726 -18.7724,-5.1102 -27.4335,-14.2003 z"
         style="fill:#ffffff;fill-opacity:0.78;fill-rule:evenodd;stroke-width:5;stroke-miterlimit:4;stroke-dasharray:none"
         id="path32" />
      <path
         d="m 453.5798,272.1541 c 4.8748,-1.2489 21.3189,-9.6547 29.7326,-15.5373 -0.0698,14.1504 0.7699,53.7188 0.2738,80.6767 -27.0767,-28.4085 -30.0787,-51.2654 -30.0064,-65.1386 z"
         style="fill:#000000;fill-opacity:0.2;fill-rule:evenodd;stroke-width:5;stroke-miterlimit:4;stroke-dasharray:none"
         id="path34" />
    </g>
    <g
       style="stroke-width:5;stroke-miterlimit:4;stroke-dasharray:none"
       transform="translate(-6)"
       id="Layer1004">
      <path
         d="m 483.96,466.0641 c -17.4262,-16.5745 -30.4078,-38.1002 -30.1998,-65.0505 4.1628,-0.0605 19.087,-7.2423 30.0933,-15.4904 11.6749,8.0517 25.7527,14.7953 29.6908,15.1347 0.0526,27.1346 -12.1789,47.6084 -29.5838,65.407 z"
         style="fill:#cc00ff;fill-rule:evenodd;stroke:#000000;stroke-width:5;stroke-linecap:butt;stroke-linejoin:miter;stroke-dasharray:none;stroke-miterlimit:4"
         id="path37" />
      <path
         d="m 483.9516,389.9544 c 12.6369,7.3489 14.9586,10.147 27.4335,14.2003 -12.1961,-1.2726 -18.7724,-5.1102 -27.4335,-14.2003 z"
         style="fill:#ffffff;fill-opacity:0.78;fill-rule:evenodd;stroke-width:5;stroke-miterlimit:4;stroke-dasharray:none"
         id="path39" />
      <path
         d="m 454.0496,401.3533 c 4.8749,-1.249 21.3189,-9.6547 29.7326,-15.5374 -0.0697,14.1505 0.77,53.7188 0.2738,80.6768 -27.0767,-28.4086 -30.0786,-51.2654 -30.0064,-65.1386 z"
         style="fill:#000000;fill-opacity:0.2;fill-rule:evenodd;stroke-width:5;stroke-miterlimit:4;stroke-dasharray:none"
         id="path41" />
    </g>
    <g
       style="stroke-width:5;stroke-miterlimit:4;stroke-dasharray:none"
       transform="translate(-6)"
       id="Layer1005">
      <path
         d="m 372.3821,530.4836 c -17.4262,-16.5745 -30.4079,-38.1001 -30.1998,-65.0505 4.1627,-0.0605 19.0869,-7.2423 30.0933,-15.4904 11.6748,8.0517 25.7527,14.7954 29.6907,15.1347 0.0527,27.1346 -12.1789,47.6084 -29.5837,65.407 z"
         style="fill:#cc00ff;fill-rule:evenodd;stroke:#000000;stroke-width:5;stroke-linecap:butt;stroke-linejoin:miter;stroke-dasharray:none;stroke-miterlimit:4"
         id="path44" />
      <path
         d="m 372.3737,454.3739 c 12.6368,7.3489 14.9586,10.147 27.4335,14.2004 -12.1961,-1.2726 -18.7724,-5.1102 -27.4335,-14.2004 z"
         style="fill:#ffffff;fill-opacity:0.78;fill-rule:evenodd;stroke-width:5;stroke-miterlimit:4;stroke-dasharray:none"
         id="path46" />
      <path
         d="m 342.4717,465.7728 c 4.8748,-1.249 21.3189,-9.6547 29.7326,-15.5374 -0.0698,14.1505 0.7699,53.7189 0.2738,80.6768 -27.0767,-28.4085 -30.0787,-51.2654 -30.0064,-65.1386 z"
         style="fill:#000000;fill-opacity:0.2;fill-rule:evenodd;stroke-width:5;stroke-miterlimit:4;stroke-dasharray:none"
         id="path48" />
    </g>
    <g
       style="stroke-width:5;stroke-miterlimit:4;stroke-dasharray:none"
       transform="translate(-6)"
       id="Layer1006">
      <path
         d="m 260.8042,337.225 c -17.4262,-16.5744 -30.4079,-38.1001 -30.1998,-65.0505 4.1627,-0.0605 19.0869,-7.2423 30.0933,-15.4904 11.6748,8.0517 25.7527,14.7954 29.6907,15.1347 0.0527,27.1346 -12.1789,47.6084 -29.5838,65.4071 z"
         style="fill:#cc00ff;fill-rule:evenodd;stroke:#000000;stroke-width:5;stroke-linecap:butt;stroke-linejoin:miter;stroke-dasharray:none;stroke-miterlimit:4"
         id="path51" />
      <path
         d="m 260.7958,261.1154 c 12.6368,7.3488 14.9586,10.1469 27.4335,14.2003 -12.1962,-1.2726 -18.7724,-5.1102 -27.4335,-14.2003 z"
         style="fill:#ffffff;fill-opacity:0.78;fill-rule:evenodd;stroke-width:5;stroke-miterlimit:4;stroke-dasharray:none"
         id="path53" />
      <path
         d="m 230.8937,272.5142 c 4.8749,-1.249 21.3189,-9.6547 29.7327,-15.5373 -0.0698,14.1504 0.7699,53.7188 0.2738,80.6767 -27.0767,-28.4085 -30.0787,-51.2654 -30.0065,-65.1386 z"
         style="fill:#000000;fill-opacity:0.2;fill-rule:evenodd;stroke-width:5;stroke-miterlimit:4;stroke-dasharray:none"
         id="path55" />
    </g>
    <g
       style="stroke-width:5;stroke-miterlimit:4;stroke-dasharray:none"
       transform="translate(-6)"
       id="Layer1007">
      <path
         d="m 260.8042,466.0642 c -17.4262,-16.5745 -30.4079,-38.1001 -30.1998,-65.0505 4.1627,-0.0605 19.0869,-7.2423 30.0933,-15.4904 11.6748,8.0517 25.7527,14.7954 29.6907,15.1347 0.0527,27.1346 -12.1789,47.6084 -29.5838,65.407 z"
         style="fill:#cc00ff;fill-rule:evenodd;stroke:#000000;stroke-width:5;stroke-linecap:butt;stroke-linejoin:miter;stroke-dasharray:none;stroke-miterlimit:4"
         id="path58" />
      <path
         d="m 260.7958,389.9545 c 12.6368,7.3489 14.9586,10.147 27.4335,14.2003 -12.1962,-1.2725 -18.7724,-5.1101 -27.4335,-14.2003 z"
         style="fill:#ffffff;fill-opacity:0.78;fill-rule:evenodd;stroke-width:5;stroke-miterlimit:4;stroke-dasharray:none"
         id="path60" />
      <path
         d="m 230.8937,401.3534 c 4.8749,-1.249 21.3189,-9.6547 29.7327,-15.5374 -0.0698,14.1505 0.7699,53.7188 0.2738,80.6768 -27.0767,-28.4086 -30.0787,-51.2654 -30.0065,-65.1386 z"
         style="fill:#000000;fill-opacity:0.2;fill-rule:evenodd;stroke-width:5;stroke-miterlimit:4;stroke-dasharray:none"
         id="path62" />
    </g>
  </g>
</svg>
