<?xml version="1.0" encoding="UTF-8" standalone="no"?>
<svg
   xmlns:dc="http://purl.org/dc/elements/1.1/"
   xmlns:cc="http://creativecommons.org/ns#"
   xmlns:rdf="http://www.w3.org/1999/02/22-rdf-syntax-ns#"
   xmlns:svg="http://www.w3.org/2000/svg"
   xmlns="http://www.w3.org/2000/svg"
   xmlns:sodipodi="http://sodipodi.sourceforge.net/DTD/sodipodi-0.dtd"
   xmlns:inkscape="http://www.inkscape.org/namespaces/inkscape"
   inkscape:version="1.0 (4035a4fb49, 2020-05-01)"
   sodipodi:docname="123.svg"
   viewBox="0 0 7256.6929 7256.6929"
   id="svg10"
   height=""
   width=""
   version="1.1">
  <metadata
     id="metadata16">
    <rdf:RDF>
      <cc:Work
         rdf:about="">
        <dc:format>image/svg+xml</dc:format>
        <dc:type
           rdf:resource="http://purl.org/dc/dcmitype/StillImage" />
        <dc:title></dc:title>
      </cc:Work>
    </rdf:RDF>
  </metadata>
  <defs
     id="defs14" />
  <sodipodi:namedview
     inkscape:current-layer="svg10"
     inkscape:window-maximized="1"
     inkscape:window-y="-8"
     inkscape:window-x="-8"
     inkscape:cy="3628.3464"
     inkscape:cx="3628.3464"
     inkscape:zoom="0.079650608"
     showgrid="false"
     id="namedview12"
     inkscape:window-height="746"
     inkscape:window-width="1304"
     inkscape:pageshadow="2"
     inkscape:pageopacity="0"
     guidetolerance="10"
     gridtolerance="10"
     objecttolerance="10"
     borderopacity="1"
     bordercolor="#666666"
     pagecolor="#ffffff" />
  <path
     id="path2"
     style="fill:none;stroke:#ffffff;stroke-width:100;stroke-linecap:butt;stroke-linejoin:miter;stroke-dasharray:none"
     d="m 780.9252,552.118 104.3684,736 3832.0015,3800.0017 -236.0001,236.0002 -232.0002,727.9998 880.0005,-832.0004 892.0001,880.0005 c 2.032,377.1269 437.5863,464.5948 591.6317,288.3688 176.226,-154.0453 93.1269,-593.9684 -284.0001,-596.0005 l -880.0005,-892 832.0004,-880.0005 -727.9998,232.0001 -236.0002,236.0002 L 1516.9252,656.4864 Z" />
  <path
     id="path4"
     style="fill:#ffffff;fill-rule:evenodd"
     d="m 4627.6722,1690.2615 c -26.4685,-30.6989 -45.8706,-67.5751 -56.6073,-108.1185 -19.3715,-73.1486 -9.2637,-158.2846 43.4959,-215.6612 133.5393,-145.2249 279.8093,-279.9221 434.9259,-401.8094 141.3848,-111.0971 292.1698,-213.3564 449.8433,-299.9494 199.6463,-109.6441 532.8425,-258.9749 765.0731,-194.9301 144.8569,39.9487 266.4961,120.7639 347.0678,249.0534 171.4033,272.9157 100.862,668.1912 -25.1788,947.0075 l -2.0052,4.4359 -2.4171,4.2259 c -175.3716,306.6086 -342.1896,618.0582 -515.7984,925.6757 -181.5783,321.7388 -370.4249,639.1233 -579.8625,943.6654 -220.5328,320.6758 -462.4449,624.6167 -734.2622,903.4968 -276.0007,283.1718 -578.1739,535.5491 -906.2481,755.4379 35.9685,104.2472 51.6379,225.7217 55.7915,327.621 7.2076,176.8272 -16.1683,361.9159 -75.1402,529.0787 -25.9991,73.6968 -59.3045,144.9116 -100.8686,211.1454 -116.1888,185.1508 -284.2915,311.5074 -495.9808,368.098 -125.0416,33.427 -255.9887,40.0258 -384.609,29.4786 -139.8679,-11.4693 -279.057,-42.986 -413.2264,-85.2693 -158.0049,152.8104 -393.7363,216.2577 -608.4698,219.6202 -283.8041,4.4438 -569.4307,-89.9314 -793.6217,-264.2355 -284.1054,-220.8864 -485.6652,-560.9387 -486.515,-926.8223 -0.4366,-188.0915 52.9917,-367.1144 155.3887,-524.8411 120.4626,-185.5537 296.7478,-324.3824 491.7374,-425.1739 l 22.3035,-11.5288 0.096,3e-4 c 473.4471,-245.9985 929.9086,-524.4265 1360.3255,-839.9838 420.8425,-308.5378 814.9005,-651.4356 1175.1106,-1029.132 323.077,-338.7611 616.8705,-703.4136 879.6518,-1090.5854 z" />
  <path
     id="path6"
     style="fill:#808080;fill-rule:evenodd"
     d="m 1237.2144,4752.4741 c -829.2712,428.6557 -700.3108,1272.9048 -144.7765,1704.998 439.0438,341.1716 1069.2474,303.3592 1308.6154,7.5624 1464.4933,502.9058 1511.6368,-937.7489 1316.9795,-1300.7483 1478.6364,-958.7175 2086.4848,-2336.9817 2774.9335,-3540.6209 170.9336,-378.1246 209.1049,-926.7491 -255.792,-1055.1395 -303.5441,-83.5312 -1016.9334,290.4684 -1547.2228,867.2803 -49.5768,53.7968 -29.0467,189.4062 76.6463,231.1718 -872.7651,1317.4205 -2050.1385,2320.9972 -3529.2311,3085.4965 z" />
  <path
     id="path8"
     style="fill:#000000;fill-rule:evenodd"
     d="m 4766.1577,1668.2138 5.7473,-20.6901 c 42.7851,17.1141 84.293,23.1168 130.7819,22.3505 46.7444,-1.7881 97.8311,-8.6848 159.646,-18.519 123.7575,-19.5406 286.0855,-46.3612 534.3669,-38.9536 -248.1537,0 -409.3322,33.7172 -531.174,60.2823 -60.7932,13.2826 -112.9016,25.0325 -161.434,29.6303 -13.2854,1.5246 -26.7918,2.3318 -40.2135,2.3318 -35.0832,0 -69.9961,-5.3517 -103.4653,-15.7577 z M 2386.7946,6478.5376 h 18.3912 c 35.2499,-53.641 79.5676,-118.0103 119.032,-185.5724 42.0189,-71.9046 78.4181,-147.3852 93.2333,-217.7571 -19.5407,68.3285 -60.0269,140.233 -105.4941,208.0506 -42.7851,63.8584 -90.2957,124.0129 -129.377,174.7165 1.2771,6.769 2.8097,13.4103 4.2146,20.1792 z m 4096.004,-4835.3562 c 2.8098,-3.193 5.4918,-6.3859 8.1739,-9.962 -6.7888,-6.0988 -14.5725,-11.0283 -22.9846,-14.5609 -9.7914,-4.1585 -19.9455,-7.6263 -30.2733,-10.2209 -24.3537,-5.9787 -49.3166,-10.3642 -74.2124,-12.9955 -25.0475,-2.8682 -51.1477,-5.1518 -76.4324,-6.6202 -23.4999,-1.788 -43.8069,-2.5543 -57.2171,-3.3206 13.2825,2.9375 33.4618,6.2581 56.7062,9.9619 23.2445,3.8315 49.5541,8.0461 75.3529,13.4102 25.6711,5.3641 50.5758,11.75 71.1382,19.2853 10.2174,3.8315 19.1576,7.9184 26.3097,12.2608 5.7259,3.0894 10.8658,7.3498 15.0102,12.4658 2.6776,-3.1467 5.6368,-6.5216 8.4408,-9.5849 z" />
</svg>
