<?xml version="1.0" encoding="UTF-8" standalone="no"?>
<svg
   xmlns:dc="http://purl.org/dc/elements/1.1/"
   xmlns:cc="http://creativecommons.org/ns#"
   xmlns:rdf="http://www.w3.org/1999/02/22-rdf-syntax-ns#"
   xmlns:svg="http://www.w3.org/2000/svg"
   xmlns="http://www.w3.org/2000/svg"
   xmlns:sodipodi="http://sodipodi.sourceforge.net/DTD/sodipodi-0.dtd"
   xmlns:inkscape="http://www.inkscape.org/namespaces/inkscape"
   version="1.1"
   width=""
   height=""
   id="svg4"
   viewBox="0 0 725.66931 725.66931"
   sodipodi:docname="0.svg"
   inkscape:version="1.0 (4035a4fb49, 2020-05-01)">
  <metadata
     id="metadata10">
    <rdf:RDF>
      <cc:Work
         rdf:about="">
        <dc:format>image/svg+xml</dc:format>
        <dc:type
           rdf:resource="http://purl.org/dc/dcmitype/StillImage" />
        <dc:title />
      </cc:Work>
    </rdf:RDF>
  </metadata>
  <defs
     id="defs8" />
  <sodipodi:namedview
     inkscape:document-rotation="0"
     pagecolor="#ffffff"
     bordercolor="#666666"
     borderopacity="1"
     objecttolerance="10"
     gridtolerance="10"
     guidetolerance="10"
     inkscape:pageopacity="0"
     inkscape:pageshadow="2"
     inkscape:window-width="1304"
     inkscape:window-height="746"
     id="namedview6"
     showgrid="false"
     inkscape:zoom="0.79650605"
     inkscape:cx="362.83466"
     inkscape:cy="362.83466"
     inkscape:window-x="-8"
     inkscape:window-y="-8"
     inkscape:window-maximized="1"
     inkscape:current-layer="svg4" />
  <path
     d="M 92.0327,187.6093 V 92.8077 h 42.0166 c 8.4517,0 14.8733,0.8606 19.2648,2.5597 4.3914,1.6994 7.9001,4.7004 10.5262,9.0037 2.626,4.303 3.9279,9.0697 3.9279,14.2775 0,6.7306 -2.1846,12.4019 -6.5319,17.0139 -4.3472,4.6122 -11.0556,7.5251 -20.1475,8.7828 3.3321,1.5888 5.8479,3.1779 7.5691,4.7225 3.6632,3.3543 7.1277,7.5691 10.3717,12.6227 l 16.3961,25.8188 H 159.7578 L 147.2236,167.881 c -3.6411,-5.7155 -6.6646,-10.0627 -9.0256,-13.0858 -2.3833,-3.0235 -4.5019,-5.1197 -6.3776,-6.3335 -1.8536,-1.1917 -3.7735,-2.0301 -5.7155,-2.5157 -1.4122,-0.2869 -3.7293,-0.4414 -6.9732,-0.4414 h -14.5205 v 42.1047 z m 12.5785,-52.9619 h 26.9223 c 5.7376,0 10.1951,-0.5959 13.417,-1.7873 3.2218,-1.1695 5.6715,-3.0673 7.3264,-5.6934 1.6772,-2.6041 2.5157,-5.4286 2.5157,-8.496 0,-4.4798 -1.6109,-8.187 -4.8549,-11.0778 -3.2439,-2.891 -8.3636,-4.3253 -15.3589,-4.3253 h -29.9676 z m 128.1897,30.7179 12.049,1.5888 c -1.8757,6.9953 -5.3844,12.4461 -10.5041,16.308 -5.1196,3.8616 -11.6515,5.8037 -19.618,5.8037 -10.0185,0 -17.9629,-3.0895 -23.8328,-9.2685 -5.87,-6.1565 -8.805,-14.8291 -8.805,-25.9733 0,-11.5191 2.9571,-20.4786 8.8934,-26.8339 5.936,-6.3776 13.6375,-9.5553 23.1046,-9.5553 9.1579,0 16.6388,3.1116 22.4425,9.3566 5.8036,6.245 8.7165,15.0279 8.7165,26.3486 0,0.684 -0.0221,1.7212 -0.066,3.0895 h -51.1744 c 0.4413,7.5249 2.5596,13.3067 6.3994,17.3007 3.8177,3.9943 8.6063,6.0024 14.3218,6.0024 4.2591,0 7.9002,-1.1254 10.9015,-3.3764 3.0231,-2.2507 5.4065,-5.8479 7.1716,-10.7909 z m -38.1325,-18.669 h 38.2652 c -0.5077,-5.7815 -1.9862,-10.1069 -4.3914,-12.9977 -3.6853,-4.4796 -8.496,-6.7306 -14.3881,-6.7306 -5.3402,0 -9.8201,1.7876 -13.4612,5.3623 -3.619,3.5751 -5.627,8.3637 -6.0245,14.366 z m 109.7856,15.7561 11.3868,1.5888 c -1.2578,7.8341 -4.4354,13.9468 -9.5772,18.3821 -5.1417,4.4357 -11.4752,6.6425 -18.9561,6.6425 -9.3784,0 -16.9257,-3.0674 -22.6191,-9.2021 -5.7155,-6.1348 -8.562,-14.9177 -8.562,-26.3486 0,-7.4146 1.2356,-13.8805 3.6853,-19.4415 2.4494,-5.5389 6.1787,-9.7095 11.2102,-12.4679 5.0094,-2.7805 10.4598,-4.1709 16.374,-4.1709 7.4367,0 13.5494,1.8757 18.2719,5.6495 4.7443,3.7735 7.7896,9.1358 9.1136,16.0651 l -11.2543,1.7212 c -1.0812,-4.6123 -2.979,-8.0768 -5.7374,-10.416 -2.7365,-2.317 -6.0466,-3.4866 -9.9303,-3.4866 -5.87,0 -10.6367,2.0965 -14.3218,6.2893 -3.6632,4.2148 -5.4949,10.8351 -5.4949,19.927 0,9.2239 1.7654,15.9105 5.2962,20.0811 3.553,4.1709 8.1649,6.2672 13.8362,6.2672 4.5902,0 8.4079,-1.3901 11.4531,-4.1928 3.0674,-2.7805 5.0094,-7.0837 5.8258,-12.8874 z m 16.9478,-9.2021 c 0,-12.6887 3.5308,-22.0895 10.6143,-28.2022 5.8921,-5.0754 13.1082,-7.6133 21.6042,-7.6133 9.4227,0 17.1463,3.0895 23.1486,9.2685 5.9803,6.1568 8.9816,14.6968 8.9816,25.5761 0,8.8268 -1.3241,15.7561 -3.9722,20.8095 -2.6481,5.0536 -6.5098,8.9815 -11.5855,11.7841 -5.0533,2.8027 -10.5922,4.1928 -16.5725,4.1928 -9.6216,0 -17.3891,-3.0674 -23.3254,-9.2243 -5.936,-6.1568 -8.8931,-15.0278 -8.8931,-26.5912 z m 11.9165,0.0221 c 0,8.7829 1.9197,15.359 5.7595,19.7062 3.8619,4.3693 8.6947,6.554 14.5425,6.554 5.7816,0 10.5923,-2.1847 14.4542,-6.5761 3.8395,-4.3915 5.7594,-11.0778 5.7594,-20.0591 0,-8.4739 -1.9417,-14.8958 -5.8036,-19.243 -3.862,-4.3693 -8.6726,-6.554 -14.41,-6.554 -5.8478,0 -10.6806,2.1626 -14.5425,6.5098 -3.8398,4.3475 -5.7595,10.9015 -5.7595,19.6622 z m 84.8713,34.3369 -25.9293,-68.718 h 12.4681 l 14.6968,41.1559 c 1.5888,4.4354 3.0674,9.0476 4.4136,13.8362 1.0372,-3.619 2.4715,-7.9665 4.3472,-13.064 l 15.2708,-41.9281 h 11.9605 l -26.0175,68.718 z m 94.2939,-22.244 12.049,1.5888 c -1.8757,6.9953 -5.3844,12.4461 -10.5041,16.308 -5.1196,3.8616 -11.6515,5.8037 -19.618,5.8037 -10.0185,0 -17.9629,-3.0895 -23.8329,-9.2685 -5.8699,-6.1565 -8.8049,-14.8291 -8.8049,-25.9733 0,-11.5191 2.9571,-20.4786 8.8934,-26.8339 5.936,-6.3776 13.6375,-9.5553 23.1046,-9.5553 9.1579,0 16.6388,3.1116 22.4425,9.3566 5.8036,6.245 8.7165,15.0279 8.7165,26.3486 0,0.684 -0.0221,1.7212 -0.066,3.0895 h -51.1745 c 0.4414,7.5249 2.5597,13.3067 6.3995,17.3007 3.8177,3.9943 8.6063,6.0024 14.3218,6.0024 4.259,0 7.9002,-1.1254 10.9015,-3.3764 3.0231,-2.2507 5.4065,-5.8479 7.1716,-10.7909 z m -38.1325,-18.669 h 38.2652 c -0.5077,-5.7815 -1.9862,-10.1069 -4.3914,-12.9977 -3.6854,-4.4796 -8.496,-6.7306 -14.3881,-6.7306 -5.3402,0 -9.8201,1.7876 -13.4612,5.3623 -3.619,3.5751 -5.6271,8.3637 -6.0245,14.366 z m 64.768,40.913 v -68.718 h 10.4601 v 10.5261 c 2.67,-4.8767 5.1415,-8.0985 7.4146,-9.6434 2.2728,-1.5667 4.7665,-2.3392 7.4809,-2.3392 3.928,0 7.922,1.2359 11.9826,3.6854 l -4.1488,10.7467 c -2.8247,-1.5889 -5.6491,-2.3831 -8.4738,-2.3831 -2.5379,0 -4.8107,0.7721 -6.8188,2.2949 -2.0083,1.5228 -3.4427,3.6411 -4.3033,6.3556 -1.3019,4.1264 -1.942,8.6502 -1.942,13.5714 v 35.9036 z m 43.6935,26.4147 -1.3241,-10.7689 c 2.5597,0.684 4.7665,1.0372 6.6643,1.0372 2.6039,0 4.6783,-0.4413 6.2232,-1.3019 1.5667,-0.8606 2.8465,-2.0744 3.8395,-3.619 0.7282,-1.1696 1.9199,-4.0606 3.5529,-8.6947 0.2209,-0.6401 0.5517,-1.5888 1.0372,-2.8468 L 576.722,118.8913 h 12.4458 l 14.3439,39.6774 c 1.8756,5.0091 3.5308,10.3053 5.0093,15.8663 1.3462,-5.2299 2.935,-10.3938 4.7886,-15.4692 l 14.6529,-40.0745 h 11.6294 l -25.9733,69.9097 c -2.8026,7.5249 -4.9873,12.6887 -6.554,15.5356 -2.0744,3.8174 -4.4578,6.62 -7.1277,8.4075 -2.6924,1.7876 -5.8921,2.6703 -9.5995,2.6703 -2.2508,0 -4.7665,-0.4635 -7.5249,-1.3904 z m -443.4228,75.3604 c 0,-15.7121 4.237,-28.0255 12.6888,-36.919 8.4517,-8.8931 19.3529,-13.3285 32.7259,-13.3285 8.7608,0 16.6388,2.0963 23.6784,6.2672 7.0175,4.1706 12.3798,9.9963 16.0651,17.4773 3.6853,7.4588 5.5389,15.9326 5.5389,25.3995 0,9.5995 -1.942,18.2058 -5.8258,25.7749 -3.884,7.5912 -9.3787,13.3288 -16.4843,17.2125 -7.128,3.9059 -14.8073,5.8479 -23.0386,5.8479 -8.9373,0 -16.9035,-2.1626 -23.9431,-6.4658 -7.0175,-4.303 -12.3576,-10.173 -15.9769,-17.6318 -3.619,-7.4367 -5.4284,-15.3148 -5.4284,-23.6342 z m 12.9756,0.2206 c 0,11.4089 3.0674,20.3904 9.2021,26.9444 6.1348,6.554 13.8362,9.8422 23.1047,9.8422 9.4447,0 17.1904,-3.3103 23.303,-9.9306 6.0908,-6.6201 9.1361,-16.0209 9.1361,-28.2022 0,-7.7014 -1.302,-14.432 -3.9062,-20.1696 -2.6039,-5.7374 -6.4216,-10.1951 -11.4307,-13.3506 -5.0315,-3.1559 -10.6585,-4.7447 -16.9038,-4.7447 -8.871,0 -16.5064,3.0453 -22.9059,9.1361 -6.3995,6.0905 -9.5993,16.2417 -9.5993,30.475 z m 137.2813,45.9224 v -10.2172 c -5.3401,7.7899 -12.5784,11.6736 -21.7363,11.6736 -4.0385,0 -7.812,-0.7724 -11.3207,-2.317 -3.5087,-1.5667 -6.1127,-3.5088 -7.8117,-5.8479 -1.6994,-2.3613 -2.8908,-5.2299 -3.5751,-8.6284 -0.4635,-2.2949 -0.7061,-5.9142 -0.7061,-10.8572 v -42.524 h 11.6515 v 38.0223 c 0,6.0687 0.2429,10.1729 0.7061,12.2694 0.7283,3.0674 2.2731,5.4508 4.6565,7.1941 2.361,1.7433 5.2741,2.626 8.7608,2.626 3.4866,0 6.7524,-0.8827 9.7979,-2.6702 3.0453,-1.7876 5.2078,-4.237 6.4877,-7.3043 1.258,-3.0674 1.8978,-7.547 1.8978,-13.3949 v -36.7424 h 11.6515 v 68.7181 z m 54.0431,-10.3938 1.5889,10.2835 c -3.2658,0.684 -6.2008,1.0372 -8.7608,1.0372 -4.2148,0 -7.4809,-0.6622 -9.8201,-2.0083 -2.317,-1.3459 -3.95,-3.0892 -4.8988,-5.2742 -0.949,-2.1847 -1.4122,-6.7745 -1.4122,-13.7698 v -39.589 h -8.6063 v -9.0037 h 8.6063 v -16.992 l 11.6515,-6.9953 v 23.9873 h 11.6515 v 9.0037 h -11.6515 v 40.2508 c 0,3.3322 0.1987,5.4729 0.618,6.4216 0.3971,0.9491 1.059,1.6994 1.9859,2.2732 0.9269,0.5516 2.251,0.8384 3.9722,0.8384 1.2798,0 2.9792,-0.1544 5.0754,-0.4634 z m 6.863,-10.1291 11.5191,-1.8535 c 0.6401,4.6122 2.4495,8.1428 5.4066,10.6143 2.9571,2.4497 7.1056,3.6853 12.4018,3.6853 5.3626,0 9.3345,-1.0811 11.9387,-3.2658 2.5818,-2.1628 3.8837,-4.7225 3.8837,-7.6575 0,-2.626 -1.1695,-4.7004 -3.4866,-6.2011 -1.633,-1.0369 -5.6052,-2.3391 -11.9165,-3.95 -8.5179,-2.1405 -14.41,-3.9941 -17.72,-5.5608 -3.2882,-1.5891 -5.7818,-3.7516 -7.4809,-6.5321 -1.6994,-2.7584 -2.56,-5.8258 -2.56,-9.18 0,-3.0674 0.7062,-5.8921 2.0965,-8.496 1.4123,-2.6039 3.3101,-4.7665 5.7155,-6.4877 1.8094,-1.324 4.2812,-2.4497 7.3925,-3.3763 3.1337,-0.927 6.4658,-1.3904 10.0409,-1.3904 5.3844,0 10.1066,0.7724 14.1673,2.3391 4.0824,1.5449 7.0835,3.6632 9.0255,6.3114 1.9199,2.6702 3.2661,6.2229 3.9943,10.6806 l -11.3871,1.5889 c -0.5074,-3.5751 -2.008,-6.3774 -4.4796,-8.3858 -2.4715,-2.008 -5.9581,-3.001 -10.4819,-3.001 -5.3184,0 -9.1361,0.8827 -11.4089,2.6481 -2.2731,1.7654 -3.4206,3.8398 -3.4206,6.2008 0,1.5007 0.4635,2.8689 1.4125,4.0824 0.9488,1.236 2.4274,2.2732 4.4575,3.0895 1.1696,0.4414 4.5681,1.4346 10.2614,2.9792 8.2092,2.1847 13.9468,3.9943 17.2126,5.3845 3.2661,1.3903 5.8257,3.4426 7.6796,6.0905 1.8757,2.6702 2.8023,5.9802 2.8023,9.9524 0,3.8619 -1.1253,7.503 -3.3981,10.9236 -2.2731,3.4203 -5.5389,6.0684 -9.798,7.9441 -4.2812,1.8757 -9.1139,2.8026 -14.4984,2.8026 -8.9152,0 -15.7339,-1.8536 -20.4122,-5.5389 -4.6783,-3.7074 -7.6576,-9.18 -8.9595,-16.4404 z m 70.8364,-61.0384 v -13.2403 h 11.6515 v 13.2403 z m 0,81.5613 v -68.7181 h 11.6515 v 68.7181 z m 73.7716,0 v -8.7166 c -4.3475,6.7746 -10.747,10.173 -19.1987,10.173 -5.4726,0 -10.5041,-1.5007 -15.0721,-4.5238 -4.5899,-3.001 -8.1428,-7.2162 -10.6807,-12.6006 -2.5158,-5.4065 -3.7735,-11.6073 -3.7735,-18.6247 0,-6.8412 1.1475,-13.0419 3.4206,-18.6251 2.2949,-5.561 5.7155,-9.8421 10.2832,-12.799 4.5459,-2.9792 9.6656,-4.4577 15.2929,-4.4577 4.1485,0 7.8339,0.8827 11.0557,2.626 3.2219,1.7433 5.8479,4.0385 7.8781,6.8408 v -34.0939 h 11.6515 v 94.8016 z m -36.8084,-34.2706 c 0,8.7826 1.8536,15.3368 5.5828,19.6841 3.7075,4.3472 8.0989,6.5097 13.1522,6.5097 5.0976,0 9.4229,-2.0744 12.9977,-6.2229 3.553,-4.1488 5.3405,-10.4819 5.3405,-19 0,-9.3566 -1.8097,-16.2417 -5.4508,-20.6331 -3.619,-4.3915 -8.0985,-6.5761 -13.4169,-6.5761 -5.186,0 -9.5111,2.0965 -12.9977,6.3113 -3.4645,4.2148 -5.2078,10.8573 -5.2078,19.927 z m 112.9629,12.0265 12.0489,1.5889 c -1.8757,6.9953 -5.3844,12.446 -10.504,16.308 -5.1197,3.8616 -11.6516,5.8036 -19.6181,5.8036 -10.0184,0 -17.9628,-3.0895 -23.8328,-9.2684 -5.87,-6.1566 -8.805,-14.8292 -8.805,-25.9733 0,-11.5192 2.9571,-20.4786 8.8934,-26.8339 5.9361,-6.3777 13.6375,-9.5553 23.1047,-9.5553 9.1579,0 16.6388,3.1116 22.4424,9.3566 5.8037,6.245 8.7166,15.0279 8.7166,26.3486 0,0.684 -0.0222,1.7212 -0.0661,3.0895 h -51.1744 c 0.4413,7.5248 2.5597,13.3066 6.3995,17.3007 3.8177,3.9943 8.6063,6.0023 14.3217,6.0023 4.2591,0 7.9002,-1.1253 10.9015,-3.3763 3.0232,-2.2507 5.4065,-5.8479 7.1717,-10.791 z m -38.1325,-18.6689 h 38.2651 c -0.5076,-5.7816 -1.9862,-10.107 -4.3914,-12.9977 -3.6853,-4.4796 -8.496,-6.7306 -14.3881,-6.7306 -5.3402,0 -9.82,1.7875 -13.4612,5.3623 -3.6189,3.575 -5.627,8.3636 -6.0244,14.366 z M 60.1455,449.0864 c 0,-12.6887 3.5308,-22.0895 10.6143,-28.2022 5.8921,-5.0754 13.1083,-7.6133 21.6043,-7.6133 9.4226,0 17.1462,3.0895 23.1486,9.2685 5.9802,6.1568 8.9815,14.6968 8.9815,25.5761 0,8.8268 -1.324,15.7561 -3.9722,20.8094 -2.6481,5.0537 -6.5097,8.9816 -11.5854,11.7842 -5.0534,2.8026 -10.5923,4.1928 -16.5725,4.1928 -9.6216,0 -17.3891,-3.0674 -23.3255,-9.2243 -5.936,-6.1568 -8.8931,-15.0278 -8.8931,-26.5912 z m 11.9166,0.0221 c 0,8.7829 1.9196,15.359 5.7594,19.7062 3.8619,4.3693 8.6947,6.554 14.5426,6.554 5.7815,0 10.5922,-2.1847 14.4541,-6.5761 3.8396,-4.3915 5.7595,-11.0778 5.7595,-20.0591 0,-8.4739 -1.9418,-14.8958 -5.8037,-19.243 -3.8619,-4.3693 -8.6726,-6.554 -14.4099,-6.554 -5.8479,0 -10.6807,2.1626 -14.5426,6.5098 -3.8398,4.3475 -5.7594,10.9014 -5.7594,19.6622 z m 68.8722,34.3369 v -59.7143 h -10.3274 v -9.0037 h 10.3274 v -7.2822 c 0,-4.612 0.3972,-8.0326 1.2138,-10.2615 1.1254,-3.001 3.0674,-5.4504 5.8921,-7.3264 2.8024,-1.8757 6.7524,-2.8023 11.8281,-2.8023 3.288,0 6.9069,0.3971 10.8791,1.1696 l -1.7433,10.1951 c -2.4273,-0.4193 -4.7004,-0.6401 -6.8629,-0.6401 -3.5309,0 -6.0245,0.7503 -7.5031,2.251 -1.4564,1.5006 -2.1846,4.303 -2.1846,8.4075 v 6.2893 h 13.373 v 9.0037 h -13.2406 v 59.7143 z m 139.775,-33.2555 12.5784,3.1777 c -2.626,10.3053 -7.3485,18.1394 -14.1672,23.5459 -6.8188,5.4066 -15.1603,8.1207 -25.0246,8.1207 -10.195,0 -18.4923,-2.0744 -24.8918,-6.245 -6.3998,-4.1488 -11.2544,-10.1732 -14.5868,-18.0513 -3.3322,-7.9001 -5.0091,-16.3519 -5.0091,-25.3995 0,-9.864 1.8756,-18.4703 5.6491,-25.8188 3.7735,-7.3486 9.1361,-12.9317 16.0872,-16.7494 6.9511,-3.8174 14.6086,-5.7152 22.9501,-5.7152 9.489,0 17.4552,2.4052 23.8989,7.238 6.4659,4.8328 10.9676,11.6076 13.5054,20.3462 l -12.3137,2.9129 c -2.1846,-6.8851 -5.3844,-11.9166 -9.555,-15.05 -4.1709,-3.1558 -9.4229,-4.7225 -15.7564,-4.7225 -7.2601,0 -13.3506,1.7433 -18.2276,5.2299 -4.8767,3.4869 -8.3194,8.187 -10.2832,14.057 -1.9863,5.8921 -2.9793,11.9605 -2.9793,18.2058 0,8.0547 1.1696,15.0939 3.5088,21.0963 2.3391,6.0245 5.9802,10.5041 10.9233,13.4833 4.943,2.9792 10.2835,4.4577 16.0429,4.4577 7.0175,0 12.9317,-2.0304 17.7866,-6.0687 4.8546,-4.0603 8.1428,-10.0627 9.864,-18.051 z m 22.2661,-1.1035 c 0,-12.6887 3.5309,-22.0895 10.6144,-28.2022 5.8921,-5.0754 13.1082,-7.6133 21.6042,-7.6133 9.4227,0 17.1462,3.0895 23.1486,9.2685 5.9802,6.1568 8.9816,14.6968 8.9816,25.5761 0,8.8268 -1.3241,15.7561 -3.9722,20.8094 -2.6482,5.0537 -6.5098,8.9816 -11.5855,11.7842 -5.0533,2.8026 -10.5922,4.1928 -16.5725,4.1928 -9.6216,0 -17.3891,-3.0674 -23.3254,-9.2243 -5.9361,-6.1568 -8.8932,-15.0278 -8.8932,-26.5912 z m 11.9166,0.0221 c 0,8.7829 1.9196,15.359 5.7594,19.7062 3.862,4.3693 8.6947,6.554 14.5426,6.554 5.7816,0 10.5922,-2.1847 14.4542,-6.5761 3.8395,-4.3915 5.7594,-11.0778 5.7594,-20.0591 0,-8.4739 -1.9417,-14.8958 -5.8037,-19.243 -3.8619,-4.3693 -8.6726,-6.554 -14.4099,-6.554 -5.8479,0 -10.6806,2.1626 -14.5426,6.5098 -3.8398,4.3475 -5.7594,10.9014 -5.7594,19.6622 z m 66.0917,34.3369 v -68.718 h 10.4602 v 9.7098 c 2.1404,-3.3543 5.0091,-6.0687 8.5841,-8.0989 3.5748,-2.0523 7.6354,-3.0674 12.2032,-3.0674 5.0757,0 9.2463,1.0593 12.4903,3.1558 3.2439,2.1184 5.5389,5.0534 6.8629,8.849 5.4729,-8.0105 12.5564,-12.0048 21.295,-12.0048 6.8409,0 12.115,1.8757 15.7782,5.6495 3.6854,3.7735 5.5389,9.5771 5.5389,17.4109 v 47.1141 H 462.545 v -43.2521 c 0,-4.6341 -0.3971,-7.9884 -1.1475,-10.0406 -0.7503,-2.0523 -2.1186,-3.6854 -4.1266,-4.9434 -1.986,-1.2577 -4.3251,-1.8757 -6.9954,-1.8757 -4.8549,0 -8.871,1.611 -12.0707,4.8107 -3.1998,3.2219 -4.7889,8.3636 -4.7889,15.4253 v 39.8758 h -11.6515 v -44.5983 c 0,-5.1636 -0.9488,-9.0476 -2.8466,-11.6294 -1.8978,-2.5821 -5.0094,-3.8841 -9.3126,-3.8841 -3.2658,0 -6.2893,0.8606 -9.0698,2.5821 -2.7805,1.7212 -4.7885,4.237 -6.0463,7.5691 -1.2359,3.31 -1.8538,8.0986 -1.8538,14.3439 v 35.6167 z m 121.0179,0 h -10.8573 v -94.8016 h 11.6515 v 33.8292 c 4.9213,-6.1347 11.1884,-9.2021 18.8238,-9.2021 4.2148,0 8.231,0.8385 12.0044,2.5379 3.7738,1.6991 6.863,4.1046 9.3127,7.1719 2.4273,3.0895 4.3472,6.7967 5.7155,11.1439 1.3901,4.3254 2.0741,8.9815 2.0741,13.9246 0,11.74 -2.9129,20.8318 -8.7165,27.2313 -5.8258,6.4216 -12.799,9.6214 -20.9421,9.6214 -8.0986,0 -14.4542,-3.3764 -19.0661,-10.107 z m -0.1324,-34.8664 c 0,8.2088 1.1254,14.1452 3.3542,17.8084 3.6632,5.9802 8.6063,8.9813 14.8513,8.9813 5.0976,0 9.489,-2.2068 13.1743,-6.6201 3.7074,-4.4135 5.561,-10.9896 5.561,-19.7283 0,-8.9594 -1.7654,-15.5576 -5.3183,-19.8167 -3.5527,-4.259 -7.856,-6.3995 -12.8872,-6.3995 -5.0978,0 -9.4893,2.2068 -13.1743,6.6203 -3.7074,4.4133 -5.561,10.791 -5.561,19.1546 z m 107.9317,26.2601 c -4.3251,3.6854 -8.496,6.2672 -12.49,7.7899 -3.9943,1.5225 -8.2755,2.2729 -12.8654,2.2729 -7.5472,0 -13.3509,-1.8315 -17.4112,-5.5168 -4.0606,-3.6632 -6.0908,-8.3637 -6.0908,-14.0791 0,-3.3543 0.7724,-6.4217 2.2952,-9.2022 1.5446,-2.7805 3.5527,-4.9872 6.0242,-6.6642 2.4936,-1.6773 5.2741,-2.9571 8.3857,-3.8177 2.295,-0.5959 5.7597,-1.1696 10.3717,-1.7433 9.4008,-1.1035 16.352,-2.4494 20.7876,-3.9943 0.0442,-1.5888 0.0661,-2.6039 0.0661,-3.0232 0,-4.7225 -1.1033,-8.0546 -3.3101,-9.9966 -2.9792,-2.626 -7.4145,-3.928 -13.2845,-3.928 -5.4947,0 -9.5553,0.9709 -12.1592,2.8908 -2.6261,1.9199 -4.546,5.3183 -5.8037,10.2172 l -11.3868,-1.5888 c 1.0372,-4.8768 2.7363,-8.8268 5.1197,-11.8282 2.3831,-3.001 5.8257,-5.2962 10.3275,-6.929 4.4795,-1.6109 9.7097,-2.4276 15.6237,-2.4276 5.87,0 10.6585,0.6843 14.3438,2.0744 3.6633,1.3901 6.3774,3.1116 8.0989,5.2078 1.7212,2.0965 2.935,4.7447 3.6411,7.9444 0.375,1.986 0.5737,5.561 0.5737,10.7028 v 15.4471 c 0,10.7909 0.2427,17.61 0.7283,20.5007 0.4634,2.8908 1.4343,5.6492 2.8465,8.2973 h -12.181 c -1.1696,-2.4494 -1.9199,-5.3183 -2.251,-8.6063 z m -0.9269,-25.8188 c -4.237,1.7212 -10.5923,3.1777 -19.0662,4.3694 -4.8106,0.684 -8.2091,1.4564 -10.195,2.317 -1.9863,0.8606 -3.5088,2.1183 -4.5902,3.7514 -1.0814,1.6551 -1.633,3.4866 -1.633,5.5168 0,3.0673 1.1695,5.6494 3.5308,7.7017 2.3613,2.0523 5.8037,3.0895 10.3275,3.0895 4.4798,0 8.4739,-0.9712 11.9826,-2.935 3.4869,-1.942 6.0687,-4.6123 7.7017,-7.9886 1.2578,-2.626 1.8757,-6.4877 1.8757,-11.5852 z m 54.97,24.0313 1.5888,10.2835 c -3.2658,0.684 -6.2008,1.0372 -8.7608,1.0372 -4.2148,0 -7.4809,-0.6621 -9.82,-2.0083 -2.3171,-1.3459 -3.9501,-3.0892 -4.8989,-5.2741 -0.949,-2.1847 -1.4122,-6.7746 -1.4122,-13.7699 v -39.5889 h -8.6063 v -9.0037 h 8.6063 v -16.992 l 11.6515,-6.9954 v 23.9874 h 11.6516 v 9.0037 h -11.6516 v 40.2508 c 0,3.3321 0.1987,5.4728 0.618,6.4216 0.3971,0.949 1.059,1.6994 1.9859,2.2731 0.927,0.5516 2.251,0.8385 3.9722,0.8385 1.2799,0 2.9792,-0.1545 5.0755,-0.4635 z M 173.7488,585.2205 c 0,-15.7121 4.2369,-28.0255 12.6887,-36.919 8.4518,-8.8931 19.353,-13.3285 32.726,-13.3285 8.7607,0 16.6388,2.0963 23.6783,6.2672 7.0175,4.1706 12.3798,9.9963 16.0651,17.4772 3.6853,7.4589 5.5389,15.9327 5.5389,25.3996 0,9.5995 -1.942,18.2058 -5.8258,25.7749 -3.884,7.5912 -9.3787,13.3288 -16.4843,17.2125 -7.128,3.9059 -14.8073,5.8479 -23.0386,5.8479 -8.9373,0 -16.9035,-2.1626 -23.9431,-6.4658 -7.0174,-4.303 -12.3576,-10.173 -15.9769,-17.6318 -3.619,-7.4367 -5.4283,-15.3148 -5.4283,-23.6342 z m 12.9755,0.2206 c 0,11.4089 3.0674,20.3904 9.2022,26.9444 6.1347,6.554 13.8361,9.8422 23.1046,9.8422 9.4447,0 17.1904,-3.3103 23.303,-9.9306 6.0908,-6.6201 9.1361,-16.0209 9.1361,-28.2022 0,-7.7015 -1.3019,-14.432 -3.9061,-20.1696 -2.6039,-5.7374 -6.4216,-10.1951 -11.4307,-13.3507 -5.0315,-3.1558 -10.6586,-4.7446 -16.9039,-4.7446 -8.871,0 -16.5064,3.0453 -22.9059,9.1361 -6.3995,6.0905 -9.5993,16.2416 -9.5993,30.475 z m 92.3962,45.9224 v -68.7181 h 10.4601 v 9.7537 c 5.0312,-7.4806 12.3134,-11.2101 21.8245,-11.2101 4.1488,0 7.9444,0.7503 11.4089,2.2289 3.4648,1.4785 6.0687,3.4424 7.7899,5.8478 1.7212,2.4052 2.935,5.2742 3.619,8.5842 0.4192,2.1625 0.64,5.9363 0.64,11.3207 v 42.1929 H 323.2114 V 589.612 c 0,-4.7447 -0.4414,-8.2976 -1.3462,-10.6368 -0.9048,-2.3391 -2.5157,-4.2148 -4.8106,-5.627 -2.2953,-1.3904 -5.0094,-2.0965 -8.0989,-2.0965 -4.9431,0 -9.2021,1.567 -12.799,4.7225 -3.5972,3.1337 -5.3847,9.114 -5.3847,17.8968 v 37.4925 z m 64.9003,1.5888 27.5403,-97.9793 h 9.3784 l -27.54,97.9793 z m 43.1419,-47.7318 c 0,-15.7121 4.237,-28.0255 12.6887,-36.919 8.4518,-8.8931 19.353,-13.3285 32.726,-13.3285 8.7608,0 16.6388,2.0963 23.6784,6.2672 7.0174,4.1706 12.3797,9.9963 16.0651,17.4772 3.6853,7.4589 5.5388,15.9327 5.5388,25.3996 0,9.5995 -1.942,18.2058 -5.8257,25.7749 -3.884,7.5912 -9.3787,13.3288 -16.4843,17.2125 -7.128,3.9059 -14.8074,5.8479 -23.0386,5.8479 -8.9374,0 -16.9036,-2.1626 -23.9431,-6.4658 -7.0175,-4.303 -12.3577,-10.173 -15.9769,-17.6318 -3.619,-7.4367 -5.4284,-15.3148 -5.4284,-23.6342 z m 12.9756,0.2206 c 0,11.4089 3.0674,20.3904 9.2021,26.9444 6.1347,6.554 13.8362,9.8422 23.1046,9.8422 9.4448,0 17.1905,-3.3103 23.3031,-9.9306 6.0908,-6.6201 9.1361,-16.0209 9.1361,-28.2022 0,-7.7015 -1.302,-14.432 -3.9062,-20.1696 -2.6039,-5.7374 -6.4216,-10.1951 -11.4307,-13.3507 -5.0315,-3.1558 -10.6585,-4.7446 -16.9038,-4.7446 -8.8711,0 -16.5065,3.0453 -22.906,9.1361 -6.3995,6.0905 -9.5992,16.2416 -9.5992,30.475 z m 95.1766,45.9224 v -59.7144 h -10.3274 v -9.0037 h 10.3274 v -7.2822 c 0,-4.612 0.3972,-8.0325 1.2138,-10.2614 1.1254,-3.001 3.0674,-5.4505 5.8921,-7.3264 2.8023,-1.8757 6.7524,-2.8024 11.8281,-2.8024 3.288,0 6.9069,0.3972 10.8791,1.1696 l -1.7433,10.1951 c -2.4273,-0.4192 -4.7004,-0.6401 -6.8629,-0.6401 -3.5309,0 -6.0245,0.7504 -7.5031,2.251 -1.4564,1.5007 -2.1846,4.303 -2.1846,8.4076 v 6.2892 h 13.373 v 9.0037 h -13.2406 v 59.7144 z m 34.4033,0 v -59.7144 h -10.3275 v -9.0037 h 10.3275 v -7.2822 c 0,-4.612 0.3971,-8.0325 1.2138,-10.2614 1.1253,-3.001 3.0673,-5.4505 5.8921,-7.3264 2.8023,-1.8757 6.7524,-2.8024 11.8281,-2.8024 3.2879,0 6.9069,0.3972 10.8791,1.1696 l -1.7433,10.1951 c -2.4273,-0.4192 -4.7004,-0.6401 -6.863,-0.6401 -3.5308,0 -6.0245,0.7504 -7.503,2.251 -1.4565,1.5007 -2.1847,4.303 -2.1847,8.4076 v 6.2892 h 13.373 v 9.0037 h -13.2406 v 59.7144 z"
     style="fill:#ffffff;stroke:#ffffff;stroke-width:4;stroke-linecap:butt;stroke-linejoin:miter;stroke-dasharray:none;fill-opacity:1"
     id="path2" />
</svg>
