<?xml version="1.0" encoding="UTF-8" standalone="no"?>
<svg
   xmlns:dc="http://purl.org/dc/elements/1.1/"
   xmlns:cc="http://creativecommons.org/ns#"
   xmlns:rdf="http://www.w3.org/1999/02/22-rdf-syntax-ns#"
   xmlns:svg="http://www.w3.org/2000/svg"
   xmlns="http://www.w3.org/2000/svg"
   xmlns:xlink="http://www.w3.org/1999/xlink"
   xmlns:sodipodi="http://sodipodi.sourceforge.net/DTD/sodipodi-0.dtd"
   xmlns:inkscape="http://www.inkscape.org/namespaces/inkscape"
   cursor="default"
   version="1.1"
   viewBox="0 0 256 256"
   id="svg72"
   sodipodi:docname="no_fetishes.svg"
   inkscape:version="1.0 (4035a4fb49, 2020-05-01)">
  <metadata
     id="metadata76">
    <rdf:RDF>
      <cc:Work
         rdf:about="">
        <dc:format>image/svg+xml</dc:format>
        <dc:type
           rdf:resource="http://purl.org/dc/dcmitype/StillImage" />
      </cc:Work>
    </rdf:RDF>
  </metadata>
  <sodipodi:namedview
     inkscape:document-rotation="0"
     pagecolor="#ffffff"
     bordercolor="#666666"
     borderopacity="1"
     objecttolerance="10"
     gridtolerance="10"
     guidetolerance="10"
     inkscape:pageopacity="0"
     inkscape:pageshadow="2"
     inkscape:window-width="1304"
     inkscape:window-height="746"
     id="namedview74"
     showgrid="false"
     inkscape:zoom="1.5965145"
     inkscape:cx="61.994888"
     inkscape:cy="104.24237"
     inkscape:window-x="-8"
     inkscape:window-y="-8"
     inkscape:window-maximized="1"
     inkscape:current-layer="svg72" />
  <defs
     id="defs22">
    <linearGradient
       id="innoGrad1">
      <stop
         stop-color="#f55"
         offset="0"
         id="stop2" />
      <stop
         stop-color="#ff8080"
         offset="1"
         id="stop4" />
    </linearGradient>
    <linearGradient
       id="linearGradient982"
       x1="297.8"
       x2="376.61"
       y1="110.65"
       y2="89.554"
       gradientTransform="translate(-260.79 -6.9033)"
       gradientUnits="userSpaceOnUse"
       xlink:href="#innoGrad1" />
    <linearGradient
       id="linearGradient990"
       x1="497.61"
       x2="437.97"
       y1="123.3"
       y2="93.006"
       gradientTransform="translate(-260.79 -6.9033)"
       gradientUnits="userSpaceOnUse"
       xlink:href="#innoGrad1" />
    <linearGradient
       id="linearGradient1002"
       x1="357.42"
       x2="391.19"
       y1="186.31"
       y2="187.53"
       gradientTransform="translate(-260.79 -6.9033)"
       gradientUnits="userSpaceOnUse">
      <stop
         stop-color="#ffe680"
         offset="0"
         id="stop9" />
      <stop
         stop-color="#fea"
         offset=".65371"
         id="stop11" />
      <stop
         stop-color="#ffe680"
         offset="1"
         id="stop13" />
    </linearGradient>
    <linearGradient
       id="linearGradient1012"
       x1="257.34"
       x2="370.48"
       y1="188.12"
       y2="150.92"
       gradientTransform="translate(-260.79 -6.9033)"
       gradientUnits="userSpaceOnUse"
       xlink:href="#innoGrad1" />
    <linearGradient
       id="linearGradient1064"
       x1="356.29"
       x2="427.24"
       y1="202.12"
       y2="155.14"
       gradientTransform="translate(-260.79 -6.9033)"
       gradientUnits="userSpaceOnUse">
      <stop
         stop-color="#ffb380"
         offset="0"
         id="stop17" />
      <stop
         stop-color="#fca"
         offset="1"
         id="stop19" />
    </linearGradient>
    <linearGradient
       id="linearGradient4304"
       x1="-172.38"
       x2="-174.4"
       y1="136.94"
       y2="18.109"
       gradientTransform="rotate(44.757,-34.8,491.87)"
       gradientUnits="userSpaceOnUse">
      <stop
         stop-color="#f95"
         offset="0"
         id="stop2-4"
         style="stop-color:#564a42;stop-opacity:1" />
      <stop
         stop-color="#fca"
         offset="1"
         id="stop4-8"
         style="stop-color:#877467;stop-opacity:1" />
    </linearGradient>
  </defs>
  <circle
     r="35.076412"
     cy="217.97485"
     cx="38.208233"
     id="path880"
     style="display:inline;fill:#aaaaaa;fill-opacity:1;stroke:#000000;stroke-width:1;stroke-miterlimit:4;stroke-dasharray:none;stroke-opacity:1" />
  <path
     d="m144.99 54.654-0.5523 34.382c-0.57705 0.6786-1.0893 1.5396-1.1914 1.9949l-2.0195-34.459c0.19218-0.61918 0.7422-1.5341 3.7632-1.9176z"
     fill="#ff2a2a"
     fill-opacity=".88318"
     stroke="#000"
     stroke-linecap="round"
     stroke-width=".75"
     id="path24" />
  <g
     stroke="#000"
     id="g46">
    <g
       stroke-linecap="round"
       stroke-linejoin="round"
       id="g32">
      <path
         d="m130.35 193.01 4.9285-1.8426-1.4901-28.441c-11.676 7.4149-2.468 20.093-3.4384 30.284z"
         fill="#ffd42a"
         id="path26" />
      <path
         d="m94.107 190.92c45.078-5.2645 24.682-18.691 17.442-30.025-58.186-2.5996-20.035 20.695-17.442 30.025z"
         fill="#ff2a2a"
         id="path28" />
      <path
         d="m95.304 191.09c10.129 1.9445 24.347 2.385 35.235 2.0135l0.38353-25.456-35.955-2.0134z"
         fill="url(#linearGradient1002)"
         stroke-width=".75"
         id="path30" />
    </g>
    <g
       fill-rule="evenodd"
       stroke-width=".75"
       id="g40">
      <path
         d="m28.037 133.37c21.384-31.544 62.767-41.313 115.22-42.619l0.2191-10.329 11.187 0.06524 0.35068-11.471-11.379-0.60818 0.17592-11.956c-39.997-1.6498-89.918 7.1631-112.48 27.771-13.853 12.653-6.5389 28.815-3.2919 49.147z"
         fill="url(#linearGradient982)"
         id="path34" />
      <path
         d="m144.72 90.598c29.662 1.004 79.049 14.556 85.397 45.885 0.27 1.333 12.483-35.936 12.483-35.936-9.0562-21.526-41.028-44.015-97.287-43.807l-0.19525 11.139 10.61 0.57851-0.6131 12.463-10.224-0.0919z"
         fill="url(#linearGradient990)"
         id="path36" />
      <path
         d="m15.876 103.59 5.5975 45.758c11.86 23.637 40.141 36.681 72.633 41.573l-0.22076-25.874 38.365 2.1646-0.61832 25.907c52.02-1.3124 103.22-19.64 109.63-46.193l4.499-42.535c-36.25 54.37-197.75 53.632-229.88-0.79945z"
         fill="url(#linearGradient1012)"
         id="path38" />
    </g>
    <path
       d="m92.837 145.23 11.051 13.017 0.10964 7.7362c-0.1127 0.78737 16.215 1.6518 16.167 0.79026l-0.14089-7.7129 14.292-11.529c-0.57174-3.7422-33.15-6.4388-41.479-2.301z"
       fill="#f95"
       stroke-linecap="round"
       stroke-linejoin="round"
       id="path42" />
    <path
       d="m110.76 148.18a32.342 32.285 0 0 0-32.342 32.285 32.342 32.285 0 0 0 32.342 32.284 32.342 32.285 0 0 0 32.342-32.284 32.342 32.285 0 0 0-32.342-32.285zm0 7.304a25.024 24.981 0 0 1 25.025 24.981 25.024 24.981 0 0 1-25.024 24.98 25.024 24.981 0 0 1-25.026-24.98 25.024 24.981 0 0 1 25.025-24.981z"
       fill="url(#linearGradient1064)"
       stroke-linecap="round"
       stroke-linejoin="round"
       stroke-width=".75"
       id="path44" />
  </g>
  <g
     fill-rule="evenodd"
     stroke="#000000"
     stroke-width="0.75"
     id="g56">
    <path
       d="M 143.93,56.448 C 102.41,55.81995 26.97,68.191 24.98,102.086 c -1.2639,21.485 39.542,31.745 70.408,37.612 -2.1662,2.6864 -1.3493,1.0297 -3.2948,5.4136 -33.941,-6.205 -75.894,-17.688 -76.219,-41.523 -0.49523,-36.314 87.863,-50.91 128.91,-49.025 z"
       fill="#ffaaaa"
       id="path48" />
    <path
       d="m 145.31,56.739 c 52.91,2.8974 91.7,20.057 91.465,46.19 -0.18361,20.436 -46.157,36.617 -101.7,39.094 -0.27446,1.8728 -0.40131,2.3464 -0.7609,5.51 60.382,0.0323 111.05,-19.739 111.43,-43.574 0.49523,-31.161 -55.18,-47.852 -99.729,-49.375 z"
       fill="#ffaaaa"
       id="path50" />
    <path
       d="m 95.39,139.7 c -1.74,1.789 -3.1938,3.3096 -3.2948,5.4136 3.4303,0.72241 7.9863,1.407 12.931,1.9451 0.58924,4.2571 14.264,4.1526 15.743,1.079 5.2105,0.12626 10.011,-0.0325 13.546,-0.60205 0.57371,-2.4922 0.76955,-4.145 0.7609,-5.51 -2.8312,-1.1609 -38.797,-3.4504 -39.687,-2.3257 z"
       fill="#ffccaa"
       id="path52" />
    <path
       d="m 104.55,147.26 c -0.51175,2.8552 -0.87016,6.6841 -0.39312,9.6838 2.998,0.46527 11.571,0.52294 15.841,0.87569 -0.66118,-2.549 -0.35657,-5.9832 0.37764,-9.272 z"
       fill="#ffe6d5"
       id="path54" />
  </g>
  <g
     fill="#fff"
     fill-opacity=".77647"
     id="g64">
    <path
       d="m122.8 151.88c1.4434 0.75404 3.8811 2.3417 6.3837 4.6714 2.6506 2.4676 4.2588 4.6854 5.4506 6.3526 0.46594 0.65179 1.0958 1.5512 1.7623 2.6578 1.5649 2.5981 3.1165 5.9818 3.9046 10.257 0.93236 5.0574 0.48184 9.7563-0.21305 13.078 0.70061-3.3492 1.407-7.9379 0.76836-13.163-0.53698-4.3936-1.8821-7.9965-3.3783-10.787-0.63688-1.1876-1.2583-2.1462-1.7459-2.8282-1.1858-1.6589-3.256-3.9219-6.1148-6.0846-2.8317-2.1422-5.3196-3.3719-6.8175-4.1544z"
       id="path58" />
    <path
       d="m101.92 145.1c3.8414 0.35156 10.014 0.63798 17.339 0.68468 6.8736 0.0438 11.32-0.13046 13.372-0.17117 0.0306-6.1e-4 0.0615-1e-3 0.0927-2e-3 0.0685-0.10714 0.14838-0.2196 0.23891-0.3418 0.1368-0.18466 0.29109-0.38409 0.43239-0.61438 0.36268-0.59105 0.57698-1.3388 0.59362-2.064-0.0191 0.83042 0.0249 1.3736-0.12432 2.2365-0.0507 0.29357-0.11553 0.55955-0.17377 0.78701-0.0659 0.2574-0.14636 0.55936-0.18971 0.68806-0.0366 0.1086-0.0826 0.2138-0.13747 0.31439-0.109 4e-3 -0.21801 8e-3 -0.32703 0.0107-0.13256 4e-3 -0.26138 7e-3 -0.38504 9e-3 -1.8111 0.0359-6.7848-0.0274-13.406-0.32832-7.8904-0.35863-12.924-0.80666-17.325-1.2094z"
       id="path60" />
    <path
       d="m105.98 148.99c0.23136 0.0433 0.6115 0.13243 1.1932 0.25053 0.44875 0.0911 0.97483 0.19169 1.6241 0.30676 1.1871 0.21041 2.5484 0.42676 3.9164 0.63315 1.5373 0.23194 3.0315 0.4448 3.753 0.52541 0.14626 0.0163 0.27589 0.0292 0.38897 0.0384 0.24129 0.0195 0.67875-0.0839 1.0583-0.20614 0.48025-0.15475 0.82974-0.3417 0.94748-0.32774-0.11774-0.014-0.42491-0.26814-0.87544-0.50354-0.35615-0.1861-0.77385-0.35892-1.016-0.37847-0.11359-9e-3 -0.24392-0.0172-0.39133-0.0243-0.77549-0.0375-2.1871-0.0544-3.7864-0.0776-1.3682-0.0198-2.7664-0.0421-3.9552-0.0731-0.64597-0.0168-1.2008-0.0356-1.6458-0.0573-0.59537-0.029-0.97906-0.0626-1.2113-0.10599z"
       id="path62" />
  </g>
  <path
     d="m148.77 54.935 0.0599 0.94395c1.2202 0.8149 4.4266 0.64437 5.2014 0.02397l0.0396-0.98133c-0.0861-0.3891-5.2487-0.49395-5.301 0.01341z"
     fill="#f55"
     stroke="#000"
     stroke-linecap="round"
     stroke-width=".75"
     id="path66" />
  <ellipse
     cx="151.38"
     cy="54.769"
     rx="2.6727"
     ry=".77909"
     fill="#ffd5d5"
     stroke="#000"
     stroke-linecap="round"
     stroke-width=".75"
     id="ellipse68" />
  <path
     d="m198.42 64.718c2.2917 0.31883 6.1019 1.0579 11.387 3.0329 3.9318 1.4691 8.395 3.5248 12.878 6.1863 4.3608 2.5891 8.4064 5.5553 11.788 8.7687 3.9911 3.7926 6.5775 7.468 8.1089 10.84 0.77488 1.706 1.2288 3.2215 1.4919 4.4915 0.38993 1.8828 0.64503 4.6567-0.14822 7.8893-0.93864 3.8251-3.275 8.043-8.0769 12.354-4.607 4.1361-11.063 7.984-19.388 11.539-11.092 4.7374-23.53 8.113-33.256 10.459 9.6895-2.3367 22.158-5.9298 33.061-10.9 8.2223-3.7478 14.45-7.768 18.763-11.975 4.476-4.366 6.3859-8.4402 7.0592-11.885 0.56962-2.9141 0.24977-5.375-0.0973-7.0508-0.23518-1.1356-0.61758-2.5154-1.284-4.1022-1.3201-3.1432-3.599-6.7175-7.324-10.558-3.1565-3.2547-6.993-6.3258-11.2-9.0635-4.3168-2.8093-8.6629-5.034-12.512-6.6497-5.1657-2.1682-8.9679-3.0588-11.251-3.3765z"
     fill="#fff"
     fill-opacity=".77647"
     id="path70" />
  <g
     fill-rule="evenodd"
     id="g29"
     transform="matrix(-0.05916588,0.22201052,-0.22081009,-0.05948754,74.805332,198.40357)"
     style="stroke-width:4.36262">
    <g
       stroke="#000000"
       id="g15"
       style="stroke-width:8.58323">
      <path
         d="m 114.62,133.08 c -6.6498,-37.713 -0.43668,-67.45 15.299,-94.239 4.4482,-7.5722 16.315,-16.63 22.764,-1.8049 5.5745,-8.7607 14.392,-14.221 18.496,0.9596 19.244,-5.9669 21.441,5.2591 21.167,18.976 19.15,-7.1255 24.859,-1.8372 18.963,16.867 3.4879,-0.07631 15.531,-2.6072 13.751,15.319 23.432,5.013 10.834,23.236 5.3674,26.767 8.3958,5.238 9.5498,8.7228 2.8602,14.989 -27.665,25.916 -67.98,24.351 -103.91,17.315 -6.8096,-2.8653 -12.073,-7.1677 -14.755,-15.149 z"
         fill="url(#linearGradient4304)"
         id="path9"
         style="fill:url(#linearGradient4304);stroke-width:2.18131;stroke-miterlimit:4;stroke-dasharray:none" />
      <path
         d="m 40.009,214.38 c 0,0 21.601,-19.857 32.147,-30.353 8.438,-8.398 24.806,-26.33 24.806,-26.33 l 9.86,9.066 c 0,0 -17.945,15.919 -26.473,24.381 -10.52,10.438 -30.67,32.322 -30.67,32.322 -10.641,10.559 -17.705,-1.09 -9.67,-9.086 z"
         fill="#ffe680"
         id="path11"
         style="fill:#3c2618;fill-opacity:1;stroke-width:2.18131;stroke-miterlimit:4;stroke-dasharray:none" />
      <path
         d="m 109.67,165.89 c -0.96385,0.88813 -1.9199,1.7859 -2.869,2.6924 -5.469,-1.808 -9.609,-5.43 -12.232,-11.123 1.161,-1.0492 2.2804,-2.1342 3.3628,-3.251 10.843,-1.454 12.429,4.1713 11.738,11.682 z"
         fill="#ff8080"
         id="path13"
         style="fill:#a59c8e;fill-opacity:1;stroke-width:2.18131;stroke-miterlimit:4;stroke-dasharray:none" />
    </g>
    <path
       d="m 152.56,36.75 -0.48,0.142 c 1.01,3.095 0.712,6.696 -0.205,10.359 -0.914,3.648 -2.42,7.281 -3.735,10.41 1.463,-3.053 3.131,-6.635 4.215,-10.278 1.08,-3.628 1.605,-7.391 0.684,-10.776 l -0.48,0.142 z m 18.339,0.839 c -1.618,5.091 -4.73,9.582 -6.532,14.825 1.884,-4.522 5.695,-9.94 7.474,-14.491 z m 21.672,18.804 c -0.94,0.496 -2.51,1.192 -4.437,2.274 -1.904,1.07 -4.08,2.477 -6.133,4.332 2.158,-1.725 4.41,-2.98 6.358,-3.885 1.957,-0.909 3.603,-1.463 4.606,-1.802 z m 19.127,16.934 c -5.588,1.103 -6.842,1.948 -13.605,5.297 6.94,-3.064 8.234,-3.554 13.77,-4.311 z m 13.411,15.277 c -4.98,-0.56 -9.898,1.477 -14.326,2.72 4.66,-0.956 9.44,-2.594 14.182,-1.73 z m 5.766,26.921 c -5.32,-0.653 -9.665,-1.204 -16.422,-1.002 6.741,0.131 11.027,1.012 16.269,1.99 z m -114.64,18.859 c 8.742,-10.934 16.574,-25.183 20.821,-38.64 -4.562,13.35 -12.671,27.376 -21.594,38.006 z m 6.058,6.736 0.386,0.318 c 6.352,-7.958 13.451,-13.45 22.353,-17.87 -9.038,4.115 -16.417,9.37 -23.124,17.234 z m 5.509,5.594 c 7.704,-3.468 18.098,-8.17 26.03,-11.22 -8.055,2.739 -18.586,7.139 -26.423,10.3 z"
       id="path17"
       style="stroke-width:4.36262" />
    <path
       d="m 134.88,46.289 c -5.378,7.862 -9.96,18.464 -13.608,29.962 -3.48,16.9 -4.947,35.267 -4.268,49.757 0.797,-14.494 3.74,-32.46 8.57,-48.674 2.14,-11.562 5.243,-22.508 9.306,-31.045 z m 8.694,100.9 c 9.313,2.001 20.86,2.228 32.884,1.253 16.96,-3.176 34.516,-8.772 47.67,-14.886 -13.718,4.749 -31.461,8.827 -48.296,10.494 -11.511,2.397 -22.817,3.668 -32.258,3.14 z m 71.009,-33.934 c -9.506,-0.605 -20.96,0.875 -32.708,3.615 -16.305,5.645 -32.842,13.771 -44.95,21.76 12.866,-6.722 29.813,-13.374 46.218,-17.508 11.031,-4.07 22.025,-6.997 31.44,-7.868 z m -90.853,16.219 c 7.026,-6.432 13.9,-15.713 20.07,-26.079 7.236,-15.663 12.845,-33.215 15.481,-47.48 -4.075,13.933 -11.03,30.758 -19.424,45.446 -4.714,10.772 -10.227,20.724 -16.127,28.113 z m 19.42,-3.232 c 8.778,-3.7 18.369,-10.135 27.66,-17.828 12.074,-12.326 23.25,-26.976 30.521,-39.528 -8.516,11.756 -20.715,25.27 -33.552,36.289 -8.057,8.564 -16.59,16.088 -24.629,21.067 z"
       fill="#fca"
       id="path19"
       style="fill:#867366;fill-opacity:1;stroke-width:4.36262" />
    <path
       d="m 142.56,46.078 c -0.235,8.775 -2.568,20.547 -5.999,32.29 -0.42,1.962 -0.87,3.929 -1.347,5.886 -3.386,13.89 -8.116,27.313 -12.699,35.48 5.38,-7.743 11,-20.928 15.304,-34.757 a 216.67,216.67 0 0 0 1.736,-5.87 c 2.482,-12.184 3.798,-24.22 3.005,-33.03 z m 41.125,8.075 c -2.9,8.285 -8.712,18.785 -15.56,28.922 a 212.35,212.35 0 0 1 -3.078,5.195 c -7.461,12.196 -16.06,23.537 -22.915,29.918 7.485,-5.734 16.858,-16.577 25.175,-28.435 1.171,-1.67 2.322,-3.36 3.443,-5.06 6.08,-10.847 11.005,-21.91 12.935,-30.54 z m -40.441,78.244 c 7.047,-5.235 17.746,-10.671 29.1,-15.225 a 212.38,212.38 0 0 1 5.462,-2.576 c 13.015,-5.916 26.494,-10.486 35.748,-11.926 -9.413,0.551 -23.254,4.275 -36.789,9.431 -1.906,0.726 -3.806,1.48 -5.688,2.26 -11.115,5.573 -21.395,11.971 -27.833,18.036 z m 78.792,-5.244 c -7.99,3.636 -19.593,6.701 -31.65,8.767 -1.949,0.483 -3.914,0.94 -5.882,1.37 -13.968,3.047 -28.106,4.681 -37.456,4.144 9.318,1.44 23.632,0.709 37.949,-1.486 a 216.67,216.67 0 0 0 6.036,-1.013 c 12.039,-3.112 23.434,-7.207 31.003,-11.782 z"
       fill="#f95"
       id="path21"
       style="fill:#60524a;fill-opacity:1;stroke-width:4.36262" />
    <path
       d="m 114.38,137.56 c 2.375,3.246 5.688,7.474 9.4,10.16 1.137,0.365 2.253,0.606 3.323,0.688 -0.851,-0.636 -1.641,-1.388 -2.371,-2.198 -3.82,-2.05 -7.458,-5.711 -10.352,-8.65 z"
       fill="#f9f9f9"
       id="path23"
       style="stroke-width:8.58323" />
    <path
       d="m 40.402,217.12 c 0.172,-0.236 0.49,-0.583 0.912,-1.006 0.427,-0.43 0.978,-0.956 1.638,-1.57 l 0.53,-0.49 c 1.143,-1.248 2.612,-2.757 4.334,-4.474 3.952,-3.942 9.219,-8.962 14.896,-14.407 11.352,-10.888 24.329,-23.454 31.663,-32.428 -7.472,8.845 -20.575,21.272 -32.052,32.018 -5.737,5.372 -11.076,10.331 -15.1,14.211 -1.754,1.691 -3.263,3.182 -4.448,4.416 -0.16,0.196 -0.312,0.388 -0.457,0.573 -0.563,0.72 -1.017,1.354 -1.343,1.886 -0.325,0.531 -0.525,0.966 -0.573,1.271 z"
       fill="#fea"
       id="path25"
       style="fill:#3b2518;fill-opacity:1;stroke-width:4.36262" />
    <path
       d="m 114.47,131.43 c 4.355,7.915 10.342,13.358 17.371,17.225 -7.7159,4.8551 -15.476,11.122 -22.174,17.239 -2.6645,-0.95202 -10.264,-5.9836 -11.882,-11.534 6.5883,-6.7602 11.807,-14.698 16.684,-22.93 z"
       fill="#cdde87"
       stroke="#000000"
       id="path27"
       style="fill:#969696;fill-opacity:1;stroke-width:2.18131;stroke-miterlimit:4;stroke-dasharray:none" />
  </g>
</svg>
