<?xml version="1.0" encoding="UTF-8" standalone="no"?>
<svg
   xmlns:dc="http://purl.org/dc/elements/1.1/"
   xmlns:cc="http://creativecommons.org/ns#"
   xmlns:rdf="http://www.w3.org/1999/02/22-rdf-syntax-ns#"
   xmlns:svg="http://www.w3.org/2000/svg"
   xmlns="http://www.w3.org/2000/svg"
   xmlns:sodipodi="http://sodipodi.sourceforge.net/DTD/sodipodi-0.dtd"
   xmlns:inkscape="http://www.inkscape.org/namespaces/inkscape"
   inkscape:version="1.0 (4035a4fb49, 2020-05-01)"
   sodipodi:docname="0.svg"
   id="svg8"
   version="1.1"
   viewBox="0 0 725.669 725.669">
  <metadata
     id="metadata14">
    <rdf:RDF>
      <cc:Work
         rdf:about="">
        <dc:format>image/svg+xml</dc:format>
        <dc:type
           rdf:resource="http://purl.org/dc/dcmitype/StillImage" />
      </cc:Work>
    </rdf:RDF>
  </metadata>
  <defs
     id="defs12" />
  <sodipodi:namedview
     inkscape:current-layer="svg8"
     inkscape:window-maximized="1"
     inkscape:window-y="-8"
     inkscape:window-x="-8"
     inkscape:cy="362.8345"
     inkscape:cx="362.8345"
     inkscape:zoom="0.79650639"
     showgrid="false"
     id="namedview10"
     inkscape:window-height="746"
     inkscape:window-width="1304"
     inkscape:pageshadow="2"
     inkscape:pageopacity="0"
     guidetolerance="10"
     gridtolerance="10"
     objecttolerance="10"
     borderopacity="1"
     bordercolor="#666666"
     pagecolor="#ffffff" />
  <path
     id="path2"
     fill-rule="evenodd"
     fill="#0f0"
     style="mix-blend-mode:normal"
     d="M99.559 314.475l-78.381 59.754h20.816c1.23 11.919 2.9 23.477 4.973 34.685.268-.063.531-.166.804-.2.528-.063 1.093-.007 1.624-.007 1.212 0 2.419.043 3.63.043.406 0 1.077.128 1.45-.037.227-.1.172-.4.199-.604.084-.643.06-1.359.06-2.007 0-2.172.077-4.365.172-6.536.036-.814.226-1.805 1.196-1.988 1.174-.222 1.926.749 2.535 1.56 1.378 1.839 2.703 3.715 4.08 5.553.33.442.705.891.982 1.368.104.178.032.518.266.584 1.05.293.46-1.586 1.193-1.8.573-.166 1.41-.066 2.008-.066h3.973c6.847 0 13.7-.17 20.549-.17h1.964c.24 0 .603-.067.813.069.188.122.395.388.422.615.064.54-.386 1.354.474 1.322.137-.005.254-.053.385-.084.05-.31.38-.31.64-.367.689-.152 1.433-.414 2.137-.445l.043.94h.94v-1.667l.256-.04c0-.999.083-1.997.127-2.993.035-.8.056-1.625.812-2.13.66-.441 1.628-.383 2.393-.436 1.58-.111 3.166-.238 4.742-.389 5.37-.513 10.766-.907 16.148-1.277.552-.038 1.266.007 1.793-.155.243-.074.288-.373.557-.455.609-.185 1.376-.117 2.008-.16.488-.034 1.016-.16 1.496-.02.54.16 1.433.786 1.601 1.348.11.362.022.864.022 1.24 0 .25.103.792-.043 1-.15.214-.515.053-.723.135-.252.1-.419.376-.687.488v.043l1.795.067.552.086.346.873.776 2.092.437 1.025.666.086v.385l1.537.086.215 1.922h-.6c.164.296.73.212 1.026.212.339.001.649.154.982.168.385.017.801-.082 1.197-.082.193 0 .628-.08.786.045.114.09.068.34.068.469l.982-.426 8.844.125c-.398-.692-.985-1.261-1.22-2.049-.13-.433-.075-1.308-.448-1.597-.297-.231-.75-.267-1.11-.328-.97-.166-2.574-.357-2.87-1.493-.19-.725.008-1.555.185-2.265.289-1.154.642-2.292.875-3.46.196-.98.267-2.044-.424-2.862-.241-.287-.711-.668-1.097-.717-.405-.052-.938.192-1.324.303-.956.274-1.902.576-2.862.835-.4.109-.998.353-1.41.229-.602-.18-1.013-.916-1.316-1.418-.21-.347-.493-.751-.565-1.154-.936.02-1.834.194-2.777.088-.424-.048-.967-.151-1.272-.477-.26-.279-.323-.745-.394-1.105a22.946 22.946 0 01-.346-2.565c-.234-2.919-.496-5.914-.217-8.842.095-.99.037-2.415.682-3.244.363-.465 1.146-.706 1.676-.918 1.365-.546 2.772-.972 4.185-1.375.478-.136 1.275-.19 1.662-.506.247-.202.428-.538.62-.793.342-.454.71-.889 1.076-1.324a36.234 36.234 0 013.392-3.496c3.392-3.069 7.344-5.815 11.748-7.184a23.702 23.702 0 013.065-.714l-59.572-45.416zm469.968 68.521a252.66 252.66 0 01-3.052 19.873c.702-.493 1.41-1.308 2.767-3.158 1.871-2.552 2.836-5.179 6.285-5.982 0-6.256-1.84-1.102-2.53-8.336l-3.47-2.397zm110.23 0l-55.114 38.065-23.446-16.192a5.48 5.48 0 00.834 1.91c1.066 1.572 1.6 2.95 2.88 3.854 4.176 2.946 6.791 3.987 9.905 9.611 6.448 11.646 2.185 7.516 3.135 15.233.216 1.755.908 3.064 1.336 5.392.886 4.818-.18 7.124-.28 10.826-.106 3.996.817 8.04 1.382 12.053 1.285 9.13 3.042 27.572 1.734 35.69-.796 4.942-.67 7.125.082 11.57 1.395 8.236.51 14.902-1.09 23.113-.767 3.936-2.088 6.487-2.088 10.738-1.705.398-2.145.869-3.347 1.674 0 2.744.045 5.526.023 8.27 33.834-45.15 57.119-102.495 64.055-171.807zm-558.114 17.27c-.253.004-.509.027-.735.027h-13.031c-1.156 0-2.304.043-3.459.043-.552 0-1.273-.12-1.795.084-1.156.454-.804 1.636-1.025 2.564.725.015 1.857.12 2.136.94.43 0 .81.165 1.239.17 3.531.041 7.065-.042 10.595.045 1.365.034 2.732.04 4.1.04.565 0 1.242.108 1.795.022.284-.044.508-.428.726-.596.384-.295.851-.413 1.325-.45 0-1.034.055-2.377-1.155-2.803-.215-.076-.464-.09-.716-.086zm5.597.355c-.352-.017-.75.057-1.035.057l-.043.385 1.838.04c-.1-.358-.407-.465-.76-.482zm-68.957.4a4.05 4.05 0 00-.517.024c-.457.055-.322 1.008-.346 1.342-.048.677-.656.97-1.277.982-.094.711-.086 1.461-.086 2.178 0 .25-.098.608.095.803.28.28.911.18 1.272.18h3.375c.393 0 1.056.084 1.293-.3.266-.43-.564-1.29-.799-1.623-.584-.825-1.162-1.655-1.75-2.478-.209-.292-.456-.839-.766-1.024-.098-.058-.294-.08-.494-.084zm-10.758 10.88c13.008 67.558 40.968 122.061 78.22 163.775.213-.51.438-1.007.687-1.467.376-.696.868-1.302 1.293-1.965.661-1.032 1.262-2.068 2.027-3.033a66.142 66.142 0 012.484-2.947c.487-.545 1.065-1.088 1.453-1.71.687-1.099.846-2.517 1.131-3.76.398-1.734.888-3.402 1.692-4.997.797-1.584 2.056-2.948 3.168-4.315a235.684 235.684 0 015.927-7.005c2.974-3.38 5.889-6.811 8.887-10.168.886-.993 1.75-2.005 2.645-2.99.338-.374 1.005-.892 1.173-1.368.064-.177-.03-.421-.066-.597l-.256-1.284c-.341-1.706-.888-3.358-1.142-5.084-.222-1.5-.363-3.017-.17-4.527.162-1.275.622-2.463.71-3.76.11-1.586-.139-3.135-.337-4.699-1.409-.111-2.858-.129-4.272-.129-1.251 0-2.532.03-3.59-.758-.954-.71-1.14-1.824-1.367-2.916-.267-1.29-.552-2.587-.953-3.843-1.057-3.308-3.128-6.35-3.642-9.827-.182-1.223.067-2.496.189-3.716.173-1.737.316-3.477.484-5.213.267-2.76.448-5.535.774-8.287.072-.61.107-1.227.166-1.838.03-.3.15-.705.066-1-.06-.21-.248-.415-.383-.58-.558-.688-1.3-1.377-2.21-1.52-.97-.152-2.156.343-3.077.606-2.005.572-3.993 1.206-6.023 1.687-2.585.613-5.196.54-7.818.26-1.208-.13-2.42-.202-3.588-.565-1.776-.551-3.385-1.479-4.998-2.384-.895-.503-1.568-1.289-2.229-2.057-1.038-1.205-1.993-2.48-2.935-3.76-3.2-4.34-6.235-8.807-9.235-13.285-.838-1.25-1.674-2.512-2.578-3.717-.295-.393-.677-.687-.98-1.068-.493-.62-.818-1.348-1.069-2.094-.429-1.273-.574-2.431-.351-3.76.145-.866.66-1.984.521-2.861-.15-.95-.705-1.942-1.084-2.82-.846-1.961-1.797-3.884-2.617-5.854-.597.257-1.548.458-2.18.235-1.093-.386-1.812-1.532-2.734-2.18-.878-.617-2.04-.914-3.076-1.129-2.418-.5-5.178.083-7.477-.953-1.237-.558-2.324-1.582-3.375-2.422-1.223-.98-2.556-1.884-3.627-3.033a7.051 7.051 0 01-1.103-1.54c-.113-.217-.211-.718-.414-.853-.294-.195-1.085-.086-1.434-.086-.725 0-1.455-.084-2.18-.086-.448 0-1.072.074-1.494-.091-.461-.182-.563-.853-.678-1.276-.04-.151-.054-.416-.195-.512-.153-.103-.405-.024-.58-.078-.186-.057-.353-.276-.555-.252-.423.05-.83.406-1.212-.027-.282-.318-.24-.871-.24-1.266-.002-.192-.015-.483-.223-.574-.599-.26-.617.491-1.145.527-.509.035-.986.227-1.494.217-.327-.006-.552-.195-.856-.246-.433-.072-.927-.01-1.367-.01 0 .454.117 1.274-.263 1.606-.183.159-.49.21-.72.264-.185.043-.41.09-.595.015-.28-.114-.14-.482-.431-.572-.381-.116-1.14.117-1.416-.21-.332-.39-.37-1.62.392-1.401l.086-.256c.303-.039.615-.056.854-.258l-3.118-.168-3.46-.092-.417-.094zm90.641 2.96l-.17 1.793c.488.146.977.138 1.453.356 1.81.828 3.289 2.438 4.742 3.754.628.568 1.237 1.154 1.88 1.707.354.305.752.68 1.195.847l1.367-2.091c-.404 0-.839-.048-1.238.007-.26.036-.607.171-.84-.033-.168-.146-.053-.388-.06-.574-.004-.175-.132-.301-.143-.469-.011-.153.087-.285.125-.428.271-1.051-.143-2.223.148-3.289-1.305 0-2.626-.128-3.93-.039-.65.045-1.545.324-2.177.141-.809-.233-.34-1.104-.729-1.572-.094-.114-.338-.069-.469-.069-.384 0-.767-.04-1.154-.04zm-39.004.426l-.555.637-.982-.074-2.605-.391c0 .68.932 1.177 1.45 1.523 1.047.698 2.197 1.204 3.292 1.815.52.29 1.15.609 1.504 1.105.656.92-.577 1.34-.717 2.135-.09.508.591 1.292.879 1.666h.04c.446-.556.216-1.751.216-2.433v-2.393c0-.556-.01-1.166-.366-1.625-.384-.496-1.048-.678-1.513-1.082-.303-.262-.26-.703-.643-.883zm18.563 5.463a1.306 1.306 0 00-.448.008c-.227.054-.35.31-.556.412-.182.09-.413.042-.586.142-.868.505-1.182 1.681-1.12 2.606.032.464.16.844.41 1.238.22.346.532.644.57 1.069 1.62 0 3.252-.026 4.87.045.5.021.993.04 1.494.04.183 0 .462.05.631-.027.147-.067.186-.278.315-.377.934-.714 1.5-1.337 1.35-2.588-.034-.285-.076-.85-.346-1.023-.425-.27-1.225.157-1.649.256 0 1.09-.384 2.839-1.582 3.246.003-.24.162-.392.266-.598.176-.348.331-.736.441-1.111.116-.397-.033-.844-.11-1.238-.57.024-1.977.322-1.943-.684.018-.487.38-.905.579-1.324-.712-.057-1.423-.026-2.137-.043-.142-.004-.296-.031-.45-.049zm-15.786 3.68l.213.341h.043v-.298l-.256-.043zm14.141 2.224l-.812.293-.768-.082c-.06.307-.2.59-.25.897-.315 1.906-.328 3.854-.65 5.767-.114.672-.257 1.34-.391 2.008-.049.244-.196.61-.135.856.065.258.325.513.479.724.382.524.78 1.033 1.185 1.54 1.394 1.742 2.595 3.923 4.418 5.247 1.336.97 3.245 1.816 4.145 3.254 2-.68 3.939-1.465 5.98-2.033.952-.264 1.93-.435 2.905-.592.642-.103 1.334-.167 1.921-.467.481-.245.813-.715 1.127-1.138.796-1.072 1.375-2.335 1.48-3.674-1.239.167-2.967 1.147-4.187.475a1.187 1.187 0 01-.328-.262c-.719-.833.835-1.61.072-2.408-.183-.193-.809-.158-1.068-.215-.645-.143-1.28-.398-1.75-.88-.399-.408-.565-.976-.557-1.538.001-.285.09-.572.008-.854-.2-.69-1.148-1.015-1.445-1.709a3.124 3.124 0 01-.225-1.324c.016-.248.158-.694.055-.924-.118-.266-.689-.506-.912-.707-.58-.521-1.02-1.149-1.197-1.914l-1.453-.01-.598-.246-4.742-.045-2.307-.039zM527.36 491.5c-70.614 91.62-210.482 103.198-299.633 31.924-.134.838-.268 1.677-.418 2.512-.886 4.908-2.468 9.547-4.041 14.267-.291.873-.583 1.752-.922 2.608-.263.662-.599 1.314-.772 2.007-.348 1.391-.34 2.85-.402 4.272-.08 1.836-.163 3.695-.479 5.512-.528 3.043-1.41 6.04-2.236 9.013-.982 3.534-1.964 7.107-3.223 10.553-.287.787-.571 1.683-1.156 2.307-.413.44-1.002.49-1.447.867-.808.682-1.244 2.075-1.147 3.105.225 2.36.724 4.76 1.715 6.92.784 1.707 1.943 3.215 2.89 4.828.822 1.399 1.318 2.893 2.327 4.188 1.503 1.928 3.413 3.494 5.01 5.34 2.034 2.35 3.693 5.005 5.168 7.732 2.302 4.256 3.492 8.977 4.523 13.67.355 1.616.517 3.324.961 4.914.142.508.79.957 1.078 1.408.39.61.57 1.415.813 2.094.95 2.672 1.769 5.415 2.867 8.031.986 2.35 2.208 4.6 3.572 6.75 1.831 2.887 3.96 5.54 5.455 8.631.67 1.383 1.261 2.799 1.83 4.225 95.102 34.497 204.996 22.906 290.176-33.12l.53-3.675c.275-11.868 3.75-24.38 3.896-35.143l1.266-14.35c1.696-8.537 2.125-11.588 1.068-20.324-.454-3.754-.216-11.285-1.783-13.832-2.973-4.83-1.106-7.34-1.106-12.836-1.55.744-1.08.558-3.261.54l-.643-3.329c1.268-.459.822-.299 1.584-1.205l2.32-4.37c-.976-1.46-1.674-2.331-3.1-3.595-.223-.198-1.529-1.676-1.572-1.775-.55-1.271-.258-.919-.41-2.377-.589-5.645-1.958-4.958-4.49-8.336l-6.809-9.951zm-347.454 82.838c-2.279 2.61-4.536 5.24-7.306 7.353-1.99 1.518-4.328 2.71-6.621 3.7-1.905.822-3.917 1.293-5.854 2.017-.795.298-1.832.75-2.12 1.625-.193.59-.015 1.23-.015 1.838 0 2.38.84 4.547 1.184 6.879.17 1.156.263 2.402-.037 3.545a6.248 6.248 0 01-.455 1.195c-.131.262-.323.504-.301.813.088 1.252.685 2.551 1.012 3.76.103.381.19.762.277 1.142 19.459 15.924 40.57 29.108 62.762 39.61-.663-.633-1.348-1.251-1.827-2.004-.439-.691-.713-1.512-1.029-2.264-.645-1.538-1.235-3.1-1.828-4.658-.323-.85-.5-2.156-1.187-2.77-2.455-2.195-6.196-2.35-8.32-4.963-.836-1.027-1.192-2.204-1.653-3.418a25.808 25.808 0 00-1.06-2.35c-1.47-2.94-3.603-5.46-5.106-8.372-1.101-2.134-1.846-4.428-2.988-6.536-.315-.58-.612-1.229-1.024-1.748-.205-.258-.74.342-.953.479-.71.457-1.788.915-2.564.351-1.592-1.154-2.875-2.905-4.157-4.38-2.517-2.899-4.928-5.892-7.277-8.928-1.497-1.935-3.444-4.075-3.959-6.537-.201-.96.114-1.77.465-2.649.425-1.062.947-2.177 1.219-3.289.306-1.257.296-2.644.384-3.93.126-1.826.33-3.68.338-5.511z" />
  <path
     id="path4"
     fill-rule="evenodd"
     fill="#0f0"
     style="mix-blend-mode:normal"
     d="M362.084 37.111c-8.551.02-17.1.383-25.625 1.057-2.674 3.399-6.98 6.808-9.436 8.33 5.2-.198 10.324-.65 14.803-2.451 6.442-2.59 7-4.533 10.498-6.44-.118 4.47-5.089 10.423-8.111 11.754 5.593 1.14 12.958.122 17.504-1.523-2.467 4.425-8.029 6.753-12.48 8.742 3.47.353 6.843.717 10.384.889 3.88.188 7.078-.48 10.483-.42-1.416 4.251-6.665 5.462-7.85 7.234 8.848-.315 8.015 3.1 22.19.488-1.254 2.607-7.726 6.043-11.604 6.723.92.899 2.343 1.415 3.412 2.055 1.337.8 1.939 1.265 3.33 1.765 3.662 1.317 5.829.437 9.334.868-1.57 1.502-3.974 2.447-6.285 3.244l-7.412 2.4c1.278.647 3.748-.81 5.353-1.21 6.403-1.596 13.119-1.188 19.703-.993 7.19.213 6.336.515 11.778-2.365 3.148-1.667 6.227-3.077 9.408-4.742 11.364-5.949 21.484-8.894 28.434-21.635.368-.676.664-1.27.976-1.854-28.92-8.016-58.86-11.982-88.787-11.916zm-33.676 1.787c-1.836.19-3.67.401-5.504.622-.524.663-1.02 1.32-1.418 1.986l6.922-2.608zm-13.023 1.612c-1.642.235-3.28.484-4.918.744-.651.732-1.277 1.28-1.783 1.508 2.23.202 4.494-.77 6.7-2.252zm-11.297 1.82a331.25 331.25 0 00-9.09 1.756v.002c-1.162 1.417-2.35 2.601-3.152 3.494 2.617-.556 9.37-3.675 12.242-5.252zm-18.012 3.727a328.134 328.134 0 00-14.715 3.853c-.41 1.36-1.062 2.596-1.699 3.656-1.068 1.778-2.313 2.47-3.3 4.192 6.754-3.344 13.51-7.325 19.714-11.701zm169.262 4.252c.085.173.174.345.258.517.144.296.25.498.394.717.416.63.138.268.545.63.414-.27.877-.67 1.354-1.118-.849-.256-1.7-.497-2.551-.746zm-186.344.298C155.83 83.944 59.842 178.864 44.441 332.762l55.118-38.065 55.115 38.065c7.88-69.558 41.66-119.865 86.951-150.602-4.986-14.307 3.897-19.793 1.496-25.162-4.278-.415-15.356 3.828-20.152 5.586a41.288 41.288 0 00-3.059 1.283c-3.604 1.658-4.535 8.418-8.734 12.32-1.51 1.403-4.274 2.427-5.987.54-2.62-2.89-.058-2.289-4.824-3.536-1.01-3.005.03-1.614-2.254-3.88l-2.74-3.516 5.649.611c1.047-2.001 2.76-6.755 2.775-9.12.007-1.166-1.44-8.136-1.916-9.534-2.578-.086-5.624-1.173-7.775-.244-1.69.73-3.214 2.595-5.106 3.601l.871 8.059c-.889-.499-.366-.117-1.105-.86-.344-.345-.457-.543-.834-.97a24.065 24.065 0 01-1.627-1.998c-1.5-2.003-2.676-1.504-4.127-3.121-1.115-1.242-.502-1.353-1.895-1.83-1.355-.465-1.43.11-2.539-.993-1.02-1.014-2.077-3.67-1.351-5.763.972-2.806 6.18-2.922 8.978-5.594 2.26-2.157-.17-2.996 2.194-5.066 1.745-1.53 1.875-.394 3.898-3.004 2.056-2.653 2.367-.351 2.867-4.457.703-5.77 4.008-9.964 6.602-15.108 7.731-15.333 3.46-18.058 3.425-23.101l3.706 1.013c1.304-.106 1.353 2.447 2.375 3.311.385.326.26.001.89-.166l1.328 2.707c.74.21.702-.894 1.155 1.684.178 1.016.247 2.31.64 3.28 2.456-1.487 11.519-11.985 13.508-15.4.573-.984 1.131-2.098 1.523-3.228.389-1.119.288-2.693.938-3.736 1.181 2.674-.381 6.663-.852 9.144 1.17-1.04.58-.494 1.637-2.213.495-.804.792-1.242 1.223-2.049.718-1.345 1.482-2.75 2.201-4.328l3.314-9.586c.985 3.179.276 5.25-.113 8.217 3.665-4.712 7.963-8.508 11.402-13.433.956-1.368 1.693-3.97 3.288-4.678.403 2.013.158 4.17-.022 6.181 3.586-1.158 8.552-5.059 10.565-7.265l5.933-6.15zM468.291 54.4c-.766 1.886-1.436 3.745-1.652 5.56 1.803-.804 2.853-2.045 4.039-3.556.52-.663.567-.724.828-.906-1.069-.375-2.143-.734-3.215-1.098zm3.566 1.217l-.236 5.79c2.162-.385 3.763-2.274 5.022-4.044-1.593-.59-3.185-1.181-4.786-1.746zm9.647 3.598c-.076.415-.147.825-.225 1.248.921-.015 1.546-.23 2.08-.522-.617-.245-1.236-.485-1.855-.726zm4.457 1.764c-.453 1.72-1.641 2.968-2.22 4.81l3.626-.756c-.17 2.522-3.035 6.823-4.222 8.512.437 1.394 1.548.897.587 4.256-1.432 5.008-7.991 12.763-10.818 18.238-.945 1.83-.166 2.76-.027 5.012.332 5.381-.701 10.969-1.18 16.306-.31 3.454-1.295 6.999-1.496 10.192-.473 7.493 5.703 6.108 3.473 18.52 1.078 1.343 2.444 2.208 3.908 3.622 1.622 1.569 2.162 2.265 3.31 4.305 3.377 5.998 7.543 6.678 6.268 8.149-1.16 1.337-4.892-1.7-5.676-2.215-1.745-1.148-3.122-.106-5.898-1.71-1.84-1.061-3.398-2.05-5.229-3.122-1.552-.91-3.594-2.654-4.654-3.164-3.265 7.807-3.87 8.16 1.092 15.445 3.196 4.694 2.631 3.433 2.949 6.865a204.48 204.48 0 0131.42 21.979c2.848-2.424 6.21-4.51 9.82-5.18-.913 6.216 2.466 2.281 6.6.84 2.553-.89 5.34-1.331 8.265-1.324 3.48.008 8.665.227 11.233 1.966-.538 1.128-.347.701-1.29 1.58l-1.335 1.446c2.397-.41 7.193-1.259 8.892 1.443-1.2.461-2.52.878-3.414 1.764 2.938.417 5.08 1.447 5.928 3.969-4.486-.32-8.519.866-12.262 2.271 2.741 1.353 5.593 1.755 8.649 3.426 6.893 3.77 12.15 9.655 13.074 17.844.1.894.168 2.03.15 2.927-.007.379-.045 1.084-.119 1.444-.024.117-.008.06-.025.148.25-.675-.298 1.517 0 0-.046.123-.056.116-.172.498l-.273.596c-2.247-1.949-2.39-4.365-6.582-3.082-.1 3.211.565 6.948-1.403 9.422-1.6-2.2-1.228-2.852-3.648-4.668-2.314-1.736-6.136-2.657-9.973-2.826 21.479 29.266 36.625 66.174 42.098 110.804h-29.123l31.17 23.764c1.13-2.039 2.494-3.806 3.81-4.887 1.263-1.037 3.328-2.11 5.072-2.736 12.273-4.405 18.415 5.92 21.557 7.057-.09 4.079-.941 3.582.047 8.316.32 1.531.28 2.701.601 4.42.493 2.635.084 2.097 2.141 2.322 0 3.695-.3 2.815-1.797 4.934-2.005 2.84-.394 1.977-.615 4.068l16.393 12.496 78.38-59.754h-20.816c-15.176-147.046-96.44-239.9-196.246-280.552zm-47.936 40.476c-9.753.011-13.46 13.301-19.087 20.076-7.428 8.944-10.152 9.912-18.21 16.274-1.202.95-1.518 1.41-2.71 1.95.43 2.242 2.536 6.692 4.314 10.075a219.764 219.764 0 0128.248 7.152c.397-.365.782-.718 1.246-1.136 1.44-1.3 1.53-2.032 2.893-3.284 8.772-8.055 10.818-20.095 8.597-32.107-.708-3.83-3.831-16.27-5.29-19zm14.907 63.48c-.004.252.002.491.01.731.325.148.647.304.972.453-.377-.497-.723-.925-.982-1.183z" />
  <path
     style="stroke-width:4;stroke-miterlimit:4;stroke-dasharray:none"
     id="path6"
     stroke="#fff"
     fill="none"
     d="M308.684 42.761c2.022-.91 5.932-6.902 5.824-9.46-3.087 2.162-5.3 5.963-9.673 8.609-2.255 1.364-10.127 5.063-12.99 5.671 2.14-2.381 7.02-6.83 6.842-12.262-1.047.523-5.166 5.098-6.975 6.532-7.617 6.04-16.486 11.518-25.35 15.906.988-1.723 2.232-2.414 3.3-4.192.964-1.603 1.973-3.6 2.108-5.834l-8.71 9.025c-2.012 2.207-6.977 6.108-10.563 7.267.18-2.01.424-4.17.02-6.183-1.593.709-2.332 3.31-3.287 4.678-3.439 4.925-7.737 8.722-11.402 13.434.389-2.968 1.098-5.039.114-8.217l-3.315 9.586c-.719 1.578-1.482 2.984-2.201 4.33-.431.806-.728 1.243-1.223 2.048-1.058 1.718-.468 1.17-1.637 2.211.47-2.481 2.035-6.468.853-9.143-.65 1.044-.55 2.617-.938 3.735-.392 1.13-.95 2.246-1.524 3.23-1.989 3.415-11.052 13.911-13.508 15.4-.393-.972-.461-2.264-.64-3.28-.453-2.579-.416-1.477-1.155-1.686l-1.327-2.706c-.63.167-.507.491-.892.165-1.021-.863-1.07-3.415-2.375-3.31l-3.704-1.014c.035 5.043 4.306 7.77-3.425 23.102-2.594 5.144-5.899 9.338-6.602 15.108-.5 4.106-.811 1.803-2.868 4.456-2.023 2.61-2.153 1.474-3.899 3.004-2.363 2.07.067 2.91-2.193 5.067-2.798 2.672-8.005 2.789-8.978 5.594-.725 2.093.33 4.749 1.35 5.764 1.11 1.101 1.185.528 2.54.993 1.393.477.78.588 1.894 1.83 1.452 1.616 2.628 1.118 4.128 3.12.613.819.785 1.043 1.626 1.997.377.427.49.626.835.971.74.743.217.362 1.105.86l-.871-8.058c1.892-1.006 3.415-2.873 5.105-3.603 2.152-.929 5.197.158 7.775.244.476 1.398 1.924 8.369 1.916 9.533-.014 2.366-1.726 7.122-2.774 9.123l-5.648-.613 2.74 3.518c2.283 2.266 1.242.873 2.253 3.879 4.765 1.247 2.203.646 4.824 3.535 1.713 1.888 4.478.864 5.987-.538 4.2-3.903 5.13-10.663 8.735-12.321a41.291 41.291 0 013.058-1.283c4.796-1.758 15.875-6.002 20.153-5.587 2.742 6.131-9.233 12.416 1.536 31.813 1.26 2.268 2.5 4.296 3.6 6.561 1.13 2.324 1.799 4.824 3.043 7.13 2.397 4.443 1.19 1.974.518 7.445-.377 3.067-.278 6.974.132 10.046.779 5.827 2.325 11.188 4 16.334 1.73 5.313-.111 10.268.88 18.745.626 5.35 2.182 11.723 3.371 16.928 1.735 7.593 3.3 8.873 2.055 17.797l-5.214 4.12c-1.531 1.483-7.62 9.745-8.53 10.333-.814.524-2.186 1.026-3.162 1.569-1.207.67-1.865 1.238-2.955 1.845-3.29-1.047-4.497-2.62-7.608-.045-1.922 1.59-3.605-1.023-7.12 3.019-1.6 1.84-.556 1.669-3.002 2.107-1.708.306-2.495.982-3.358 2.05-1.594 1.973-3.54 9.311-1.93 12.582l.516.71c2.542-.405.986-3.173 3.992-4.885 1.183.403.821.623 1.81 1.44 2.268 1.878 5.416.323 7.627-.32.719 1.043 1.121 2.194 1.88 3.151 1.169 1.477 1.22.871 1.843 3.265.273 1.05.56 3.238 1.519 3.549 1.772.574 1.199-2.574 1.418-3.715 2.943-.305 4.137-.033 6.643-1.333 4.76-2.468 3.396-5.937 5.348-7.007.827-.453 1.836-.627 2.83-1.162 2.296-1.238 2.756-2.133 4.607-3.585-.288 6.691-5.096 10.168 3.468 14.253 2.286 1.09.566 2.931 2.746 4.254 1.48-.47 1.116-.709 1.781-2.317.52-1.254.675-1.838 1.762-2.579 6.896-4.7 3.934-12.89 8.219-17.896 6.84 3.462 2.974 5.351 7.302 10.164 2.763 3.073 5.831 2.657 10.055 2.129 2.704-.339 1.348-.422 2.458-2.329l.965.885c1.175 1.48.91 2.728 2.749 2.716 1.427-2.244.31-9.197-.79-11.21-.854-1.564-1.67-2.237-2.72-3.81-1.238-1.853-2.076-1.87-4.923-1.832-1.195-1.706-1.643-3.862-2.907-5.24-1.26-1.376-3.055-2.21-3.619-4.407-.464-1.812.22-5.484-.01-7.91-.242-2.562-.932-4.359-1.477-6.554 10.217 1.135 18.62 4.207 30.867 4.714 5.936.246 9.89-1.054 14.988-2.792 2.31-.787 4.39-1.483 6.585-2.48l4.292-2.333c1.608-.894.899-.566 1.327-.224 3.316 4.045-9.066 14.126-12.4 16.804-1.754 1.41-3.017 4.127-6.315 3.667-3.157-.44-5.722-1.595-8.343.208-2.895 1.991-2.048 3.837-3.63 6.496-2.614 4.397-2.836 6.617-2.88 12.23-.011 1.503-.344 3.043.17 4.468.589 1.63 2.494-.993 2.94-1.569.784-1.01 1.672-2.09 2.048-3.298 3.905 1.966 1.605 3.737 2.519 6.787.024.08.093.2.115.263.022.062.073.176.129.252 2.078.929 2.477-3.882 4.274-5.276 3.848 1.167 5.363-.447 8.28-.877-.128.982-.3 2.147-.395 3.239-.127 1.469-.287 2.436.463 3.521 1.586-.336 2.276-1.94 3.51-4.393 3.857.275 6.24 2.007 9.764-1.46 1.033-1.015 1.856-2.579 3.158-2.971 1.294-.39 3.913-.841 5.345-1.223 1.692 2.123 3.843 3.844 3.973 4.018 1.085 1.467 1.107 4.628 2.128 6.085 1.74-.23 1.996-1.444 2.882-2.922 1.505-2.513.373-1.652 3.256-2.561 2.911-.919 5.058-3.276 5.562-6.446.554-3.484-.726-7.08-2.271-9.355-2.943-4.334-2.776-2.93-1.596-8.659.642-3.117 1.532-6.58 1.778-9.906.303-4.094-.884-7.62.838-11.054 2.106-4.203 3.592-9.166 3.583-14.024-.006-3.253-.35-2.838-3.368-2.993.29-1.7-.15-1.902-.539-3.568 1.516.01 4.457.279 4.917-1.05.335-.968-1.479-2.205-2-3.043 5.45-.046 4.533.62 8.682 3.535 1.826 1.283 5.282 3.947 8.16 4.184-.364-1.889-1.08-1.748-1.312-4.103 3.369.504 10.936 5.9 15.535 3.431-2.31-3.725-6.057-2.545-4.908-9.468 2.193 1.097 6.024 5.56 8.652 5.755-.34-1.35-1.333-2.089-1.072-3.685 2.018.767 3.255 2.73 5.102 3.838 3.29 1.972 5.483 13.553 10.252 16.45.728-.758.477-1.01.851-1.905l.256-.534c1.504 5.199 6.798 9.88 12.148 11.791l-1.684-4.39c3.75 1.643 16.28 14.151 29.465 14.202-.489-1.56-1.822-2.875-.702-4.437.513-.455 18.704-.61 20.318-.659 7.182 11.437 7.063 5.468 9.46 20.182.322 1.978 1.137 4.29 1.048 6.196-.384 8.287 1.351 12.127 11.337 11.472.376 1.25 1.78 4.727 3.159 4.447 1.595-.968 1.048-4.134 1.76-6.08.46-1.255 1.048-1.147 1.752-2.33.567-.954.689-1.7 1.206-2.625 2.028 1.493 1.978 4.28 6.116 5.31 2.022.504 3.732-.092 5.117.72 1.77 1.037 1.019 2.198 2.196 3.544 2.912-.512 1.43-5.957 2.673-9.616 1.39.685 1.371 1.891 3.064 2.862 1.738.997 3.096.749 5.253.923.307 1.85.219 3.378 1.35 4.337 1.568-.389 1.572-1.44 2.132-3.21.677-2.143.997-1.682 1.86-3.537 4.111.193 5.114.61 6.96-2.86 3.469 1.647 2.142 3.976 4.655 3.971 1.988-2.628-.633-7.764-2.074-9.235-1.752-1.787-1.894-.47-2.527-3.63-.991-4.943-4.756-8.732-10.795-6.906-2.475.748-6.722-1.243-9.037-2.297-3.03-1.38-4.97-3.076-7.116-4.874-5.668-4.75-7.836-3.138-10.737-7.763-4.681-7.462-7.662-5.512-8.005-10.969 1.547-.6 6.76-5.243 8.044-6.43 2.214-2.048 4.839-5.138 5.377-9.505-1.586.713-1.844 1.482-3.888 1.847 1.034-3.667 5.09-15.84 7.367-18.329 3.22-3.52 14.225-8.103 15.296-10.157l-.503-.142c-.054-.005-.191-.037-.26-.04-2.947-.126-7.579 2.593-9.23-.907 4.717-2.592 15.44-2.382 20.086 1.103 2.42 1.816 2.047 2.469 3.647 4.668 1.968-2.474 1.302-6.21 1.402-9.421 4.193-1.283 4.336 1.132 6.583 3.08l.274-.595c.791-2.608-.318 1.857.196-.647.073-.36.112-1.063.12-1.442.018-.897-.05-2.034-.15-2.929-.925-8.188-6.183-14.074-13.076-17.844-3.056-1.671-5.905-2.073-8.646-3.425 3.742-1.405 7.774-2.59 12.26-2.271-.848-2.522-2.99-3.553-5.927-3.97.894-.886 2.214-1.301 3.414-1.762-1.7-2.702-6.495-1.853-8.892-1.444l1.335-1.445c.942-.88.752-.453 1.29-1.58-2.568-1.739-7.755-1.96-11.234-1.968-2.925-.007-5.711.434-8.265 1.325-4.134 1.441-7.512 5.376-6.599-.84-5.68 1.053-10.754 5.607-14.159 9.477-3.564 4.05-5.694 9.886-7.679 16.002-.873-1.936-.12-6.012-1.408-7.542-3.677 4.516-2.825 10.312-4.441 12.843-.596.932-.226-.025-.837 1.363l-1.987 4.546c-.442 1.347-.925 6.29-1.808 7.214-1.326-.724-3.383-4.006-7.205-6.175-3.499-1.985-14.278-7.405-17.179-10.035-.6-.544-.884-1.115-1.52-1.765-.69-.705-1.224-1.009-1.887-1.73-1.101-1.2-2.364-2.13-3.747-3.153-2.484-1.838-5.977-2.57-8.899-4.543-3.022-2.041-6.15-2.385-8.779-5.006-3.85-3.84-6.62-15.054-9.995-17.53.646-4.111 1.177-4.553-1.609-8.245-1.254-1.663-2.732-2.666-4.401-3.939l-1.445-1.228a6.76 6.76 0 01-.206-.21l3.732-.785c-.191-2.06-4.352-4.502-6.119-5.66.07-.053.198-.189.23-.123.058.121 1.733-.836.634-2.578l-6.009-8.91c-1.598-2.594-5.642-10.38-6.254-13.574 1.192-.541 1.508-1.002 2.711-1.952 8.057-6.362 10.782-7.33 18.209-16.274 5.627-6.775 9.334-20.066 19.087-20.077 1.46 2.73 4.583 15.171 5.291 19.001 2.221 12.012.176 24.052-8.597 32.108-1.363 1.252-1.452 1.983-2.893 3.283-2.705 2.442-4.24 3.66-4.979 7.266-.491 2.4-3.273 7.485-1.525 10.197 2.014-.085 2.838-3.124 3.993-4.682 4.452.01 5.042-.283 6.509-3.718 1.539 3.021-.52 7.883-.51 13.462.016 8.026 5.398 9.7 7.38 13.106.59 1.015 1.465 2.578 2.696 2.786.079.013.192.018.27.02.797.022.404.035.843-.199.425-1.492-1.716-5.714-1.86-7.44-.062-.743.589-2.889.734-4.145.189-1.64.155-3.268.276-4.916 4.69 6.808 2.952 3.335 5.913 6.477 1.604 1.702 1.983 3.66 4.538 4.592.273.1.856.278 1.188.264 2.023-.086.846-.044 1.28-.585.862-.968-.973-3.733-1.486-4.707-1.694-3.22-.891-2.713-1.274-6.32-.474-4.461-2.96-7.1-2.88-12.37.947.942 2.959 3.98 3.978 5.44 2.014 2.888 3.539 5.998 6.708 7.459 1.85.852 2.508.032 3.612.397 1.575.521 3.612 3.015 5.574 2.914l.538-.126c1.036-2.707-3.343-4.428-3.543-6.244-.476-4.324.4-2.41-2.993-7.394-4.962-7.286-4.358-7.639-1.093-15.446 1.06.51 3.102 2.253 4.654 3.163 1.831 1.073 3.39 2.062 5.23 3.124 2.776 1.603 4.153.561 5.898 1.709.784.515 4.516 3.552 5.676 2.214 1.275-1.47-2.892-2.15-6.27-8.148-1.148-2.04-1.686-2.737-3.309-4.305-1.464-1.415-2.83-2.279-3.91-3.622 2.231-12.411-3.943-11.027-3.47-18.52.201-3.193 1.185-6.737 1.495-10.191.478-5.338 1.513-10.926 1.18-16.308-.14-2.252-.917-3.181.027-5.012 2.827-5.475 9.386-13.23 10.82-18.238.96-3.358-.151-2.862-.588-4.256 1.187-1.689 4.052-5.989 4.222-8.51l-3.628.756c.827-2.626 2.925-4.025 2.3-7.342-1.962.592-2.367 1.977-4.761 2.014.663-3.6 1.312-6.886.879-10.867-1.306.41-3.565 4.945-4.45 6.228-1.388 2.012-3.267 5.082-6.087 5.583l.253-6.172c-.906.631-.479.256-1.197 1.17-1.186 1.511-2.235 2.752-4.038 3.557.786-6.599 7.468-13.717 3.571-20.876-1.421 1.762-2.037 4.087-4.6 4.512-.107-.237-.312-.807-.391-.929a5.326 5.326 0 00-.158-.232c-.053-.072-.137-.163-.19-.228-.054-.067-.165-.166-.213-.22a1.595 1.595 0 00-.225-.217c-1.268 3.238-5.353 8.735-7.897 10.403-.407-.363-.13 0-.546-.63-.145-.22-.25-.421-.395-.717-.773-1.586-1.57-3.266-3.052-4.16-1.242 1.216-1.744 2.555-2.649 4.214-6.949 12.74-17.07 15.686-28.433 21.634-3.181 1.666-6.26 3.076-9.409 4.743-5.441 2.88-4.587 2.578-11.776 2.365-6.585-.196-13.3-.603-19.703.992-1.606.4-4.075 1.859-5.353 1.212l7.412-2.401c2.31-.797 4.716-1.742 6.285-3.244-3.505-.43-5.673.45-9.335-.867-1.391-.5-1.993-.965-3.33-1.765-1.068-.64-2.491-1.157-3.411-2.056 3.878-.68 10.35-4.116 11.603-6.723-14.175 2.611-13.341-.803-22.19-.488 1.186-1.771 6.435-2.983 7.85-7.234-3.404-.06-6.603.608-10.482.42-3.542-.172-6.915-.536-10.386-.89 4.452-1.988 10.014-4.317 12.481-8.742-4.546 1.645-11.91 2.664-17.504 1.525 3.023-1.332 7.993-7.286 8.111-11.755-3.499 1.907-4.055 3.851-10.497 6.44-4.48 1.8-9.605 2.253-14.804 2.45 3.462-2.146 10.626-8.043 11.665-12.377-2.815 1.01-5.321 2.954-8.24 4.009l-8.962 3.377c1.939-3.249 5.978-6.224 6.285-11.195-4.826 2.333-12.126 13.082-19.087 12.45zm-15.832 177.816c-.7 3.911-1.27 5.141-3.106 7.88 1.293.219 2.854-1.519 3.126-1.763 1.117-1 .264-.449 1.651-.982-.562 2.887-.898 6.269-2.764 7.808.076 1.146-.22.254-.002.987 2.715-1.015 4.31-3.621 4.424-3.2.016.057.144.018.165.02l.655-.004c.366-.088.844-.378 1.319-.607l8.975-4.503c3.772-1.883 8.334-3.678 12.592-5.197 11.46-4.088 5.14-5.32 17.86-8.639.751-.195 2.836-.693 3.403-.953 1.452-.664.873-1.182 1.64-2.812-1.905-1.569-2.597-3.473-5.52-4.248-7.872-2.087-7.044-4.579-14.293-4.618-4.62-.026-12.038-2.035-16.334-3.593-6.677-2.422-15.331-11.633-17.707-12.057-.056 2.9-1.205 8.652-1.06 10.576.123 1.617 1.97 6.348 2.432 9.073 1.41-.2.966-.395 2.086-.946.141 3.35-1.021 5.586-1.469 8.557 1.525-.433 2.078-1.34 2.91-2.469-.723 6.138-1.347 6.597-3.29 11.41 1.837-.36 1.781-.733 3.146-1.36zM584.49 690.995l-6.55-1.33-2.672-1.826v-7.027l1.506-1.171.502-7.027c-2.474-2.485-4.33-5.713-5.689-9.536l-1.338-9.871 2.175-4.016-1.84-12.715.501-6.19-1.17-2.175-.503-3.681 2.343-5.354 1.003-11.46.335-6.609-2.008 3.514-3.848 21.08-.836 10.875-5.02 25.43 3.347 3.681.836 15.058 4.35 6.023 5.284 2.823 2.233 2.801c4.64 1.993 5.282 4.68 5.347 7.605-3.099 2.075-7.099 3.784-11.381 3.588-12.62-.576-12.97.95-25.144-4.986-2.215-1.08-3.454-1.423-4.212-3.595-2.066-5.92-2.723-11.036-5.123-18.3-2.682-8.122-1.937-4.846-1.544-12.958.266-5.496.671-9.301 1.168-14.447l3.858-26.814c.275-11.868 3.75-24.38 3.895-35.143l1.266-14.35c1.696-8.537 2.125-11.588 1.068-20.324-.455-3.754-.216-11.285-1.783-13.832-2.973-4.83-1.106-7.34-1.106-12.836-1.55.744-1.08.557-3.261.539l-.642-3.328c1.267-.458.82-.298 1.583-1.204l2.32-4.372c-.976-1.459-1.674-2.33-3.1-3.593-.223-.199-1.527-1.676-1.57-1.775-.551-1.272-.26-.92-.411-2.377-.59-5.646-1.958-4.96-4.49-8.337l-10.196-14.9c-6.714-11.253-1.482-7.078-.36-19.26.378-4.097.503-8.099 1.787-11.598l.754-2.034c.343-.908.524-1.298.844-1.945 5.96-12.041 2.701-9.96 4.287-14.674 1.38-4.105 4.24-8.73 6.498-12.463 1.025-1.696 1.244-2.24 2.148-3.986 1.792-3.46 6.438-6.87 9.546-9.415 3.388-2.775 8.11-4.518 12.11-6.295 4.905-2.179 4.358-.676 7.655-5.17 1.871-2.552 2.837-5.18 6.286-5.984 0-7.698-2.788 1.885-2.788-15.615 1.783-1.194.39-.916 2.788-1.115-2.287-4.767 1.939-13.488 5.717-16.59 1.263-1.038 3.327-2.11 5.071-2.737 12.273-4.405 18.416 5.92 21.558 7.058-.091 4.079-.94 3.582.047 8.316.32 1.53.28 2.7.602 4.419.492 2.635.082 2.097 2.14 2.322 0 3.695-.301 2.815-1.797 4.934-2.217 3.138.01 1.715-.732 4.801-1.333 5.544-9.903 11.655-6.101 17.259 1.066 1.572 1.597 2.951 2.877 3.854 4.176 2.946 6.794 3.987 9.907 9.611 6.449 11.646 2.184 7.515 3.134 15.232.217 1.755.91 3.066 1.338 5.393.886 4.818-.182 7.123-.281 10.825-.107 3.996.817 8.041 1.381 12.054 1.285 9.131 3.042 27.572 1.734 35.689-.797 4.943-.67 7.125.083 11.57 1.395 8.237.51 14.903-1.09 23.114-.766 3.936-2.089 6.486-2.089 10.738-1.705.397-2.143.868-3.346 1.673 0 2.968.06 5.986.022 8.945-.092 7.464-1.366 15.412-2.853 22.8l-9.12 42.188c-2.648 12.223-3.066 10.206-1.62 22.227.397 3.302-3.167 4.681-1.718 13.942.615 3.929-.258 4.53-.326 7.569 5.245 1.222 4.462 3.386 4.462 9.48l7.807 5.577c2.32-.54 1.492-.972 4.44-1.14 6.193-.35 7.23.693 12.29 3.371v4.461c-3.57 2.392-10.178 5.604-16.152 5.597-10.616-.012-9.756-.659-18.981-2.808-1.13 1.071-1.358 1.484-2.231 2.788-2.548 0-4.904-.264-7.21-.536zM135.264 391.277c.072.403.355.806.564 1.153.303.503.714 1.238 1.316 1.419.412.123 1.008-.12 1.41-.229.96-.26 1.907-.561 2.862-.835.386-.111.92-.354 1.324-.302.387.05.856.43 1.097.717.69.818.62 1.882.424 2.862-.233 1.167-.586 2.306-.874 3.46-.178.71-.376 1.539-.187 2.264.297 1.136 1.901 1.327 2.873 1.492.359.061.81.099 1.108.33.373.29.319 1.162.448 1.596.236.787.822 1.358 1.22 2.05l-8.843-.126-.982.426c0-.129.045-.378-.069-.47-.157-.124-.593-.043-.786-.043-.396 0-.81.099-1.196.082-.334-.014-.644-.167-.983-.167-.296-.001-.862.082-1.025-.214h.598l-.214-1.923-1.537-.085v-.384l-.666-.086-.437-1.025-.775-2.093-.347-.872-.552-.086-1.795-.068v-.043c.269-.112.435-.387.688-.487.208-.082.571.079.72-.135.147-.209.045-.752.045-1 0-.377.087-.878-.022-1.24-.169-.562-1.062-1.19-1.602-1.348-.48-.142-1.007-.014-1.495.02-.632.043-1.399-.025-2.008.16-.269.082-.314.38-.557.454-.527.161-1.24.117-1.792.155-5.382.37-10.779.765-16.149 1.278-1.576.151-3.163.277-4.742.388-.765.054-1.732-.005-2.392.435-.756.506-.779 1.332-.814 2.132-.043.996-.126 1.993-.126 2.99l-.257.043v1.667h-.94l-.042-.94c-.704.03-1.448.293-2.136.445-.26.057-.591.056-.641.366-.13.031-.248.08-.384.085-.86.032-.412-.783-.476-1.324-.027-.226-.234-.493-.422-.615-.21-.135-.572-.068-.811-.068H90.92c-6.849 0-13.701.17-20.55.17h-3.972c-.599 0-1.436-.099-2.008.068-.734.213-.145 2.092-1.194 1.799-.234-.066-.16-.407-.264-.585-.278-.476-.652-.925-.983-1.367-1.376-1.838-2.701-3.716-4.08-5.553-.608-.812-1.361-1.783-2.536-1.561-.97.183-1.159 1.174-1.195 1.988-.095 2.17-.172 4.365-.172 6.536 0 .649.023 1.365-.06 2.008-.028.204.028.504-.199.604-.373.165-1.044.037-1.45.037-1.212 0-2.418-.043-3.631-.043-.531 0-1.096-.055-1.624.008-.348.042-.674.22-1.025.25-1.103.097-2.31.046-3.418-.002-.316-.014-.387-.355-.684-.381-1.749-.157-3.583-.002-5.34-.002-1.311 0-2.617.042-3.93.042-.488 0-1.15.102-1.41-.427l-.978.014-.388.243c-.233-.568-.836-.084-1.195-.088-.155-.002-.256-.194-.429-.209-.548-.048-1.142.126-1.709.126-.682 0-1.416.076-2.093-.008-.416-.052-.847-.298-1.282-.131-.385.147-.493.635-.563.993-.184.934-.143 2.06.242 2.948.21.485.624.504 1.09.466.237-.02.447-.144.684-.163.815-.066 1.66-.004 2.478-.004.435 0 .849.187 1.281.122.145-.022.245-.148.384-.169.134-.02.25.117.387.13.34.03.55-.077.856-.137.117-.023.162.053.21.14l1.017.01.948-.436 9.784.04 1.025-.383 2.948.007 1.281.288 3.46.09 3.12.17c-.24.202-.552.218-.855.256l-.086.257c-.762-.219-.724 1.012-.393 1.403.276.326 1.036.092 1.417.208.292.09.15.458.43.572.185.075.411.028.597-.015.23-.053.536-.105.718-.264.381-.332.265-1.151.265-1.605.44 0 .933-.064 1.367.009.303.051.528.24.854.246.508.01.987-.182 1.495-.217.528-.036.546-.786 1.145-.526.208.091.221.38.222.573 0 .394-.04.949.241 1.267.383.433.789.076 1.212.026.201-.024.37.196.555.253.175.054.427-.025.58.079.141.095.155.36.196.51.114.424.215 1.095.677 1.276.422.166 1.047.091 1.495.092.725.002 1.454.085 2.179.085.35 0 1.141-.108 1.434.087.204.135.302.636.414.853.287.556.678 1.081 1.103 1.538 1.071 1.15 2.404 2.054 3.628 3.033 1.05.84 2.138 1.865 3.375 2.422 2.298 1.036 5.058.453 7.476.953 1.037.215 2.199.513 3.076 1.13.922.648 1.64 1.794 2.734 2.18.632.222 1.582.023 2.179-.234.82 1.97 1.772 3.892 2.618 5.853.379.878.934 1.87 1.085 2.82.139.876-.378 1.995-.523 2.862-.223 1.328-.077 2.487.352 3.76.25.745.575 1.474 1.068 2.093.303.381.685.674.98 1.068.904 1.204 1.742 2.466 2.58 3.716 3 4.479 6.034 8.947 9.233 13.287.942 1.28 1.899 2.554 2.937 3.76.661.767 1.332 1.553 2.227 2.056 1.613.905 3.222 1.833 4.998 2.385 1.168.363 2.381.434 3.589.564 2.622.28 5.233.354 7.818-.259 2.03-.481 4.018-1.117 6.023-1.689.92-.263 2.107-.756 3.076-.604.91.143 1.652.831 2.21 1.52.135.165.325.37.385.58.084.295-.037.7-.067 1-.06.612-.094 1.226-.166 1.837-.326 2.752-.507 5.528-.774 8.288-.168 1.736-.311 3.476-.485 5.212-.121 1.22-.369 2.493-.188 3.716.515 3.476 2.585 6.52 3.641 9.826.402 1.256.687 2.555.955 3.845.226 1.092.412 2.205 1.367 2.915 1.057.787 2.337.76 3.589.76 1.413 0 2.863.016 4.272.127.198 1.565.446 3.114.338 4.7-.09 1.296-.548 2.484-.71 3.76-.194 1.509-.052 3.028.17 4.528.254 1.725.8 3.377 1.141 5.083l.257 1.282c.035.176.129.421.065.598-.169.476-.835.994-1.173 1.367-.894.986-1.759 1.998-2.645 2.99-2.998 3.358-5.913 6.789-8.886 10.168-2.02 2.295-4 4.635-5.929 7.006-1.111 1.367-2.37 2.731-3.167 4.315-.803 1.595-1.293 3.263-1.692 4.999-.285 1.242-.444 2.66-1.13 3.76-.388.62-.967 1.163-1.453 1.708a66.17 66.17 0 00-2.486 2.948c-.765.965-1.365 2-2.026 3.033-.424.663-.917 1.27-1.293 1.965-.862 1.595-1.526 3.571-1.917 5.34-.574 2.6.015 5.381.354 7.989.597 4.578 1.185 9.177 2.054 13.713.318 1.656.6 3.327 1.04 4.956.125.46.266 1.433.687 1.718.245.166.835-.039 1.101-.1.995-.225 1.957-.577 2.948-.806-.206 1.527-.826 3.044-.676 4.614.06.632.282 1.15.652 1.666.211.294.571.587.68.94.069.223-.009.458-.015.683-.012.473.009.94-.036 1.41-.095.994 0 1.995-.141 2.99-.17 1.208-1.288 2.03-1.717 3.162-.51 1.346-.602 2.774-.81 4.186-.234 1.59-.555 3.178-.318 4.785.352 2.392 1.832 4.325 3.135 6.28.766 1.149 1.721 2.53 1.785 3.973.019.41-.81 1.043-1.087 1.325-.914.924-2.671 2.244-2.513 3.716.05.473.358.903.557 1.325.44.93.916 1.842 1.344 2.776.566 1.231 1.071 2.516 1.691 3.717.574 1.113 1.32 2.236 1.634 3.46.353 1.376.234 2.795.279 4.187.012.365.182.704.208 1.068.055.784-.193 1.577-.453 2.307-.476 1.337-1.028 2.858-1.985 3.93-1.067 1.195-2.617 1.961-4.052 2.62-2.17.996-4.42 1.82-6.579 2.84-3.484 1.645-6.719 3.862-10.082 5.74-1.668.93-3.382 1.743-5.126 2.52-.893.398-2.098.796-2.645 1.66-.33.523-.339 1.2-.396 1.794-.141 1.482-.027 3.1.184 4.572.172 1.2 1.471 1.798 2.43 2.366.474.281.997.61 1.537.742.839.203 1.752.084 2.606.142 1.952.134 3.937.124 5.896.124 3.005 0 6.015-.038 9.014-.169 2.728-.12 5.446-.17 8.16-.526a68.298 68.298 0 006.365-1.17c1.275-.292 2.55-.726 3.845-.906.65-.09 1.35.037 2.008.037 1.23 0 2.49-.08 3.717.004 3.061.21 6.412-.367 9.356-1.212 1.043-.3 2.505-.576 3.012-1.654.929-1.977.432-4.264.281-6.323-.11-1.508.012-3.017-.14-4.528-.23-2.296-.975-4.434-1.89-6.536-.619-1.423-1.35-2.8-2.043-4.187-.342-.683-.868-1.485-.925-2.264-.233-3.175-.183-6.387-.261-9.57-.062-2.549-.213-5.14-.039-7.69.059-.848.193-1.708.456-2.52.272-.84.653-1.62.692-2.52.033-.745.008-1.479-.273-2.18-.202-.508-.715-1.061-.705-1.623.033-1.916.205-3.854.335-5.767.279-4.067.34-8.146.519-12.218.12-2.757.245-5.566.124-8.33a25.997 25.997 0 00-.902-5.725c-.326-1.209-.922-2.507-1.01-3.76-.023-.308.168-.55.299-.812.19-.38.347-.784.455-1.196.3-1.143.208-2.39.038-3.546-.344-2.331-1.185-4.499-1.185-6.878 0-.607-.178-1.246.016-1.837.287-.874 1.326-1.328 2.12-1.625 1.938-.725 3.948-1.196 5.853-2.018 2.294-.99 4.633-2.182 6.622-3.7 2.771-2.114 5.027-4.742 7.306-7.353-.008 1.831-.213 3.685-.338 5.511-.089 1.285-.078 2.673-.384 3.93-.272 1.113-.795 2.228-1.22 3.29-.351.878-.666 1.688-.465 2.649.515 2.462 2.462 4.602 3.96 6.536 2.349 3.036 4.76 6.03 7.278 8.929 1.282 1.475 2.564 3.224 4.156 4.38.776.563 1.853.106 2.563-.351.213-.137.749-.737.954-.479.412.519.71 1.167 1.024 1.747 1.143 2.108 1.887 4.403 2.989 6.537 1.503 2.911 3.634 5.432 5.104 8.373.385.77.755 1.544 1.061 2.35.462 1.213.817 2.39 1.653 3.417 2.124 2.613 5.865 2.768 8.32 4.963.686.614.864 1.92 1.187 2.77.593 1.558 1.182 3.118 1.827 4.656.316.753.592 1.574 1.03 2.265 1.089 1.71 3.236 2.73 3.778 4.784.46 1.746-.766 3.703-2.354 4.475-.944.459-1.978.498-2.905 1.03-1.13.648-2.225 1.363-3.333 2.049-.478.296-1.03.765-1.58.903-.809.203-1.775.053-2.606.09-2.254.098-4.505.177-6.75.417-1.144.123-2.518.218-3.503.866-1.084.712-1.69 1.896-2.145 3.072-.316.82-.504 1.424-.504 2.307 0 .715.128 1.43.238 2.136.048.306.027.657.163.94.397.824 1.751 1.145 2.547 1.41 2.475.825 5.015 1.469 7.604 1.806 3.93.512 8.005.64 11.962.369 3.97-.272 7.884-.736 11.876-.463.33.023.77-.002 1.068.158.767.405 1.162 1.282 2.008 1.613 1.595.624 3.536.536 5.212.734 2.788.33 5.798.057 8.544-.492.983-.197 2.418-.464 3.043-1.333.424-.59.362-1.576.297-2.264-.145-1.528-.037-3.347-.668-4.785-.202-.46-.737-.728-.955-1.196-.42-.904-.656-1.928-1.008-2.862-.845-2.24-1.727-4.467-2.77-6.622-1.496-3.091-3.624-5.743-5.455-8.63-1.364-2.15-2.587-4.4-3.573-6.75-1.098-2.616-1.916-5.359-2.867-8.031-.242-.68-.422-1.484-.812-2.094-.289-.451-.937-.901-1.079-1.41-.443-1.59-.605-3.296-.96-4.912-1.031-4.694-2.221-9.415-4.524-13.671-1.474-2.727-3.134-5.382-5.168-7.733-1.597-1.845-3.507-3.411-5.01-5.34-1.01-1.294-1.505-2.788-2.326-4.186-.948-1.614-2.108-3.12-2.891-4.828-.992-2.16-1.49-4.561-1.715-6.92-.098-1.031.339-2.422 1.146-3.105.445-.376 1.035-.428 1.449-.869.584-.623.867-1.52 1.155-2.307 1.259-3.446 2.242-7.018 3.224-10.552.827-2.973 1.707-5.97 2.236-9.014.315-1.816.398-3.675.478-5.51.063-1.422.055-2.882.403-4.273.173-.693.507-1.345.77-2.008.34-.855.632-1.733.922-2.606 1.574-4.72 3.156-9.36 4.041-14.269.767-4.256 1.303-8.558 1.72-12.859.07-.731.184-1.49.08-2.221-.068-.48-.366-1.007-.272-1.495.1-.52.737-.858 1.139-1.125.774-.517 1.562-1.033 2.221-1.695.286-.287.623-.646.676-1.068.07-.558-.08-1.158-.158-1.709a83.336 83.336 0 00-.543-3.29c-.618-3.429-1.253-6.858-1.83-10.295-.331-1.978-.858-4.018-.518-6.024.176-1.04.89-1.115 1.775-1.11 1.222.006 3.218.457 3.897-.94.408-.841.554-1.86.686-2.777.222-1.546.417-3.184.232-4.742-.17-1.44-.767-2.81-.44-4.272.267-1.186.745-2.294.948-3.503.095-.57.18-1.139.262-1.71.042-.29.05-.637.198-.896.297-.52 1.014-.624 1.522-.831.687-.281 1.053-.742 1.135-1.476.066-.594-.193-1.254-.408-1.795-.46-1.15-1.056-2.238-1.633-3.332-.382-.724-.785-1.507-.978-2.307-.184-.764-.18-1.61-.282-2.392-.407-3.12-1.216-6.138-1.753-9.228-.373-2.144-.404-4.559-1.268-6.579-.365-.853-1.14-1.34-1.904-1.819-.323-.202-.857-.415-1.06-.746-.749-1.226-1.215-2.741-1.797-4.057a671.89 671.89 0 00-3.581-7.989 387.584 387.584 0 00-5.215-10.979c-.904-1.822-1.4-3.702-2.794-5.255-1.247-1.388-2.67-2.617-4.094-3.82-1.481-1.251-3.011-2.473-4.657-3.503-1.944-1.217-3.928-2.19-6.28-2.029-1.069.074-2.21.377-3.119.955-.395.252-.647.656-1.068.867-1.05.527-2.78.742-3.93.471-.952-.224-1.567-1-2.221-1.656-.634-.635-1.33-1.202-1.966-1.837-.533-.533-.988-1.13-1.58-1.604a9.955 9.955 0 00-2.564-1.463c-.343-.135-1-.135-1.271-.34-.279-.21-.163-.704-.142-.993.07-.96.265-1.911.413-2.862.094-.605.324-1.456.116-2.05-.144-.412-.945-.764-.838-1.24.12-.534.675-1.107.953-1.58.729-1.24 1.409-2.664 1.227-4.144-.137-1.118-.846-1.857-1.422-2.777-1.023-1.633-2.051-3.337-3.218-4.87-.28-.37-.68-.624-.965-.983-.427-.537-.567-1.264-.963-1.837-.622-.902-1.523-1.683-2.041-2.649-.127-.236-.127-.521-.235-.769-.432-.983-1.03-2.119-1.824-2.858-1.138-1.058-2.805-1.105-4.23-1.355-.74-.13-1.401-.49-2.135-.638-.921-.185-1.816-.045-2.735-.108-1.22-.084-2.442-.376-3.673-.291-2.327.159-4.598.455-6.836 1.15-4.404 1.37-8.356 4.115-11.748 7.184a36.23 36.23 0 00-3.393 3.495c-.366.435-.734.87-1.077 1.325-.191.254-.37.592-.618.794-.387.316-1.184.369-1.662.505-1.413.403-2.821.829-4.187 1.375-.53.212-1.312.453-1.675.918-.645.83-.587 2.252-.682 3.243-.279 2.928-.017 5.925.217 8.843.07.857.18 1.72.346 2.564.07.36.133.827.393 1.106.305.326.85.429 1.273.476.943.107 1.84-.068 2.777-.087m-12.517 10.808c-.474.037-.942.155-1.325.45-.218.168-.441.553-.726.597-.553.087-1.229-.021-1.794-.021-1.369 0-2.737-.008-4.101-.043-3.531-.086-7.064-.002-10.595-.043-.429-.005-.81-.17-1.24-.17-.278-.822-1.41-.926-2.135-.94.221-.93-.131-2.11 1.025-2.564.522-.205 1.243-.085 1.794-.085 1.156 0 2.305-.043 3.46-.043h13.03c.452 0 1.023-.092 1.453.06 1.21.426 1.154 1.769 1.154 2.802m4.485-2.05l-1.837-.043.043-.385c.57 0 1.595-.29 1.794.428M55.374 402.3c.622-.013 1.23-.305 1.278-.983.024-.334-.11-1.286.346-1.341.227-.028.815-.057 1.011.06.31.186.556.733.765 1.025.588.823 1.167 1.652 1.751 2.478.236.332 1.064 1.192.798 1.623-.236.384-.9.3-1.292.3h-3.375c-.36 0-.993.1-1.272-.182-.193-.194-.095-.551-.095-.801 0-.717-.008-1.468.085-2.18m-30.887 6.55c.618-.073 1.536-.126 2.135.054.266.08.322.585.039.678-.55.18-1.268.066-1.832.028-.256-.018-.521.02-.767-.073-.219-.083-.358-.454-.119-.6.143-.088.381-.069.544-.087m121.37 6.523c-.29 1.066.123 2.238-.149 3.29-.037.142-.135.274-.124.427.012.168.138.295.142.47.008.186-.108.426.06.573.233.204.581.07.84.034.4-.055.836-.009 1.24-.009l-1.368 2.094c-.442-.168-.84-.544-1.196-.85-.642-.552-1.252-1.138-1.88-1.706-1.453-1.316-2.932-2.926-4.742-3.754-.476-.218-.965-.21-1.452-.355l.17-1.794c.387 0 .77.042 1.154.043.13 0 .375-.046.47.068.389.469-.082 1.337.727 1.57.632.183 1.529-.095 2.178-.14 1.304-.089 2.626.04 3.93.04m-45.156 7.262h-.042c-.288-.374-.968-1.158-.879-1.666.14-.795 1.373-1.217.717-2.136-.354-.497-.984-.814-1.504-1.105-1.095-.61-2.244-1.117-3.29-1.814-.519-.346-1.452-.845-1.452-1.524l2.606.391.982.075.556-.637c.382.18.339.621.641.883.466.404 1.13.586 1.515 1.082.355.46.364 1.068.364 1.624v2.392c0 .682.232 1.88-.214 2.435m18.84-2.862c-.198.42-.56.837-.578 1.324-.034 1.006 1.375.708 1.946.684.076.394.225.841.109 1.239-.11.375-.267.762-.443 1.11-.104.206-.262.36-.265.598 1.198-.407 1.581-2.155 1.581-3.246.424-.099 1.225-.526 1.65-.255.27.172.312.738.346 1.024.15 1.25-.416 1.872-1.35 2.587-.13.099-.169.31-.316.377-.169.077-.446.026-.629.026-.501 0-.996-.02-1.495-.041-1.618-.07-3.25-.044-4.87-.044-.037-.425-.349-.723-.569-1.068a2.511 2.511 0 01-.41-1.24c-.063-.924.251-2.1 1.12-2.604.173-.101.403-.054.585-.143.206-.101.328-.359.555-.412.282-.067.613.033.897.04.715.018 1.425-.013 2.137.044m-18.114 3.631v.3h-.043l-.213-.343.256.043m22.984 2.52c.177.766.617 1.395 1.196 1.916.223.201.795.44.914.707.102.23-.04.676-.056.923-.027.42.059.94.224 1.325.297.693 1.248 1.018 1.447 1.709.082.281-.008.57-.009.854-.008.562.158 1.128.557 1.538.47.48 1.105.737 1.75.88.259.056.884.021 1.068.214.762.798-.79 1.575-.071 2.407.092.107.204.194.328.262 1.219.673 2.947-.307 4.186-.473-.106 1.339-.684 2.602-1.48 3.674-.314.423-.645.892-1.126 1.137-.588.3-1.28.365-1.922.468-.975.157-1.953.327-2.905.591-2.041.568-3.982 1.352-5.981 2.033-.9-1.439-2.808-2.283-4.144-3.253-1.823-1.325-3.024-3.506-4.417-5.249a43.565 43.565 0 01-1.186-1.538c-.154-.21-.414-.468-.479-.726-.06-.245.086-.61.135-.854.134-.668.276-1.336.39-2.008.323-1.914.335-3.862.65-5.767.05-.306.19-.59.25-.898l.77.082.81-.293 2.308.04 4.742.044.598.247z" />
</svg>
