<?xml version="1.0" encoding="UTF-8" standalone="no"?>
<svg
   xmlns:dc="http://purl.org/dc/elements/1.1/"
   xmlns:cc="http://creativecommons.org/ns#"
   xmlns:rdf="http://www.w3.org/1999/02/22-rdf-syntax-ns#"
   xmlns:svg="http://www.w3.org/2000/svg"
   xmlns="http://www.w3.org/2000/svg"
   xmlns:sodipodi="http://sodipodi.sourceforge.net/DTD/sodipodi-0.dtd"
   xmlns:inkscape="http://www.inkscape.org/namespaces/inkscape"
   inkscape:version="1.0 (4035a4fb49, 2020-05-01)"
   sodipodi:docname="1.svg"
   viewBox="0 0 725.66931 725.66931"
   id="svg29"
   height=""
   width=""
   version="1.1">
  <metadata
     id="metadata35">
    <rdf:RDF>
      <cc:Work
         rdf:about="">
        <dc:format>image/svg+xml</dc:format>
        <dc:type
           rdf:resource="http://purl.org/dc/dcmitype/StillImage" />
        <dc:title></dc:title>
      </cc:Work>
    </rdf:RDF>
  </metadata>
  <defs
     id="defs33" />
  <sodipodi:namedview
     inkscape:current-layer="svg29"
     inkscape:window-maximized="1"
     inkscape:window-y="-8"
     inkscape:window-x="-8"
     inkscape:cy="362.83466"
     inkscape:cx="362.83466"
     inkscape:zoom="0.79650605"
     showgrid="false"
     id="namedview31"
     inkscape:window-height="746"
     inkscape:window-width="1304"
     inkscape:pageshadow="2"
     inkscape:pageopacity="0"
     guidetolerance="10"
     gridtolerance="10"
     objecttolerance="10"
     borderopacity="1"
     bordercolor="#666666"
     pagecolor="#ffffff" />
  <g
     id="Layer1000">
    <path
       id="path2"
       style="fill:none;stroke:#ffffff;stroke-width:4;stroke-linecap:round;stroke-linejoin:round;stroke-dasharray:none"
       d="M 159.258,484.1545 C 135.2642,485.1142 107.6298,457.9118 77.1355,408.588 61.7871,392.0041 56.022,360.4656 76.0107,357.7341 62.263,270.2237 102.2264,245.7251 159.539,241.581 c 57.3125,4.1441 97.2759,28.6427 83.5282,116.1531 19.9888,2.7315 14.2237,34.27 -1.1248,50.8539 -30.4943,49.3238 -58.6905,76.5262 -82.6844,75.5665 z" />
    <path
       id="path4"
       style="fill:none;stroke:#ffffff;stroke-width:4;stroke-linecap:round;stroke-linejoin:round;stroke-dasharray:none"
       d="m 73.6285,334.9891 c 32.1123,3.1031 59.5794,-10.1957 86.1914,-45.3427 26.6119,35.147 53.5172,48.4458 85.6295,45.3427" />
    <path
       id="path6"
       style="fill:none;stroke:#ffffff;stroke-width:4;stroke-linecap:round;stroke-linejoin:round;stroke-dasharray:none"
       d="m 121.801,466.3069 c -15.3218,-15.1107 -29.8737,-34.7494 -44.6655,-57.7188 -1.2753,37.1562 -13.9989,58.5014 -36.2738,66.657 35.839,13.7534 62.1009,10.3082 80.9393,-8.9382 z" />
    <path
       id="path8"
       style="fill:none;stroke:#ffffff;stroke-width:4;stroke-linecap:round;stroke-linejoin:round;stroke-dasharray:none"
       d="m 197.138,466.1671 c 15.3218,-15.1106 30.0126,-34.6096 44.8044,-57.579 1.2753,37.1562 13.9989,58.5014 36.2738,66.657 -35.839,13.7534 -62.2397,10.1684 -81.0782,-9.078 z" />
  </g>
  <g
     id="Layer1001">
    <path
       id="path11"
       style="fill:none;stroke:#da8fff;stroke-width:4;stroke-linecap:round;stroke-linejoin:round;stroke-dasharray:none"
       d="m 504.8595,261.4122 c 15.3207,-12.5612 36.663,-18.0584 61.1798,-19.8312 24.5166,1.7725 45.8587,7.2706 61.1796,19.8314 m 11.4279,12.3387 c 12.3749,17.7466 17.1349,44.428 10.9208,83.9829 19.9887,2.7314 14.2236,34.27 -1.1248,50.8541 -30.4943,49.3237 -58.6905,76.5261 -82.6844,75.5663 -23.9938,0.9598 -51.6282,-26.2426 -82.1225,-75.5663 -15.3485,-16.5841 -21.1136,-48.1227 -1.1248,-50.8541 -6.2138,-39.5549 -1.4542,-66.2363 10.9208,-83.9832" />
    <path
       id="path13"
       style="fill:none;stroke:#da8fff;stroke-width:4;stroke-linecap:round;stroke-linejoin:round;stroke-dasharray:none"
       d="m 540.9109,281.0016 c -6.302,-1.9713 -46.133,-22.6889 -59.0279,-38.0533 -3.7288,-4.4425 4.9468,29.6224 39.1798,71.6086 14.5726,-4.3557 27.8346,-13.1976 19.8481,-33.5553 z" />
    <path
       id="path15"
       style="fill:none;stroke:#da8fff;stroke-width:4;stroke-linecap:round;stroke-linejoin:round;stroke-dasharray:none"
       d="m 480.1289,334.9891 c 32.1123,3.1031 59.5794,-10.1957 86.1913,-45.3427 26.612,35.147 53.5173,48.4458 85.6296,45.3427" />
    <path
       id="path17"
       style="fill:none;stroke:#da8fff;stroke-width:4;stroke-linecap:round;stroke-linejoin:round;stroke-dasharray:none"
       d="m 528.3014,466.3069 c -15.3218,-15.1107 -29.8737,-34.7494 -44.6655,-57.7188 -1.2753,37.1562 -13.9989,58.5014 -36.2738,66.657 35.839,13.7534 62.1008,10.3082 80.9393,-8.9382 z" />
    <path
       id="path19"
       style="fill:none;stroke:#da8fff;stroke-width:4;stroke-linecap:round;stroke-linejoin:round;stroke-dasharray:none"
       d="m 591.1678,281.0016 c 6.302,-1.9713 46.133,-22.6889 59.0279,-38.0533 3.7288,-4.4425 -4.9468,29.6224 -39.1798,71.6086 -14.5726,-4.3557 -27.8347,-13.1976 -19.8481,-33.5553 z" />
    <path
       id="path21"
       style="fill:none;stroke:#da8fff;stroke-width:4;stroke-linecap:round;stroke-linejoin:round;stroke-dasharray:none"
       d="m 603.6384,466.1671 c 15.3218,-15.1106 30.0126,-34.6096 44.8044,-57.579 1.2753,37.1562 13.9989,58.5014 36.2738,66.657 -35.839,13.7534 -62.2397,10.1684 -81.0782,-9.078 z" />
  </g>
  <g
     id="Layer1002">
    <path
       id="path24"
       style="fill:#02d402;fill-rule:evenodd"
       d="m 415.7395,345.7927 v 21.6332 H 312.4582 v 12.1719 l -46.0592,-22.9885 46.0592,-22.9884 v 12.1718 z" />
    <path
       id="path26"
       style="fill:#02d402;fill-rule:evenodd"
       d="m 312.6656,391.7696 v 21.6332 h 103.2813 v 12.1718 l 46.0592,-22.9884 -46.0592,-22.9885 v 12.1719 z" />
  </g>
</svg>
