<?xml version="1.0" encoding="UTF-8" standalone="no"?>
<svg
   xmlns:dc="http://purl.org/dc/elements/1.1/"
   xmlns:cc="http://creativecommons.org/ns#"
   xmlns:rdf="http://www.w3.org/1999/02/22-rdf-syntax-ns#"
   xmlns:svg="http://www.w3.org/2000/svg"
   xmlns="http://www.w3.org/2000/svg"
   xmlns:sodipodi="http://sodipodi.sourceforge.net/DTD/sodipodi-0.dtd"
   xmlns:inkscape="http://www.inkscape.org/namespaces/inkscape"
   inkscape:version="1.0 (4035a4fb49, 2020-05-01)"
   sodipodi:docname="55.svg"
   viewBox="0 0 725.66931 725.66931"
   id="svg19"
   height=""
   width=""
   version="1.1">
  <metadata
     id="metadata25">
    <rdf:RDF>
      <cc:Work
         rdf:about="">
        <dc:format>image/svg+xml</dc:format>
        <dc:type
           rdf:resource="http://purl.org/dc/dcmitype/StillImage" />
        <dc:title></dc:title>
      </cc:Work>
    </rdf:RDF>
  </metadata>
  <defs
     id="defs23" />
  <sodipodi:namedview
     inkscape:current-layer="svg19"
     inkscape:window-maximized="1"
     inkscape:window-y="-8"
     inkscape:window-x="-8"
     inkscape:cy="362.83466"
     inkscape:cx="362.83466"
     inkscape:zoom="0.79650605"
     showgrid="false"
     id="namedview21"
     inkscape:window-height="746"
     inkscape:window-width="1304"
     inkscape:pageshadow="2"
     inkscape:pageopacity="0"
     guidetolerance="10"
     gridtolerance="10"
     objecttolerance="10"
     borderopacity="1"
     bordercolor="#666666"
     pagecolor="#ffffff" />
  <g
     id="Layer1000">
    <path
       id="path2"
       style="fill:#ef4036;fill-rule:evenodd;stroke:#000000;stroke-width:4;stroke-linecap:butt;stroke-linejoin:miter;stroke-dasharray:none"
       d="m 660.7358,362.8803 c 0,-164.5516 -133.3952,-297.9468 -297.9464,-297.9468 -164.5516,0 -297.9468,133.3952 -297.9468,297.9468 z" />
    <path
       id="path4"
       style="fill:#a19e9e;fill-rule:evenodd;stroke:#000000;stroke-width:4;stroke-linecap:butt;stroke-linejoin:miter;stroke-dasharray:none"
       d="m 660.7358,362.8795 c 0,164.5517 -133.3952,297.9468 -297.9464,297.9468 -164.5516,0 -297.9468,-133.3951 -297.9468,-297.9468 z" />
    <path
       id="path6"
       style="fill:#ffffff;fill-rule:evenodd"
       d="m 134.9273,195.1126 a 59.4434,81.8414 51.2666 0 1 85.4154,-77.8025 59.4434,81.8414 51.2666 1 1 -85.4154,77.8025 z" />
    <path
       id="path8"
       style="fill:#ffffff;fill-rule:evenodd"
       d="m 652.4685,423.1149 c -7.1321,34.5671 -21.1681,67.486 -35.3488,91.5079 -1.0179,1.7244 -0.6161,0.7833 -1.9345,2.3155 -116.4934,135.3693 -397.4019,90.006 -448.0094,-127.6608 l 85.2159,-52.872 275.1456,10.2955 z" />
    <path
       id="path10"
       style="fill:#58585a;fill-rule:evenodd;stroke:#000000;stroke-width:4;stroke-linecap:butt;stroke-linejoin:miter;stroke-dasharray:none"
       d="m 70.8852,422.8749 c -3.7778,-19.9837 -6.2907,-40.996 -6.0128,-64.2641 90.4643,-39.4598 178.9495,-64.0291 272.2966,-65.9918 43.3561,-98.1842 171.8894,-77.7626 190.3683,15.143 42.9097,8.0323 87.3262,24.3482 133.1208,48.2442 0.516,28.6575 -2.1487,49.8607 -6.1995,68.0048 -40.705,-18.416 -85.8554,-33.6559 -136.6563,-44.8609 -40.0942,63.8296 -139.7558,70.1023 -181.2906,-14.6133 -97.2096,3.0763 -186.2634,23.8944 -265.6265,58.3381 z" />
    <path
       id="path12"
       style="fill:#363638;fill-rule:evenodd"
       d="m 67.8469,360.5035 23.4873,-9.8289 c -2.3621,27.3271 22.2317,44.9046 40.5026,46.1405 L 72.5756,418.954 c -3.7075,-19.9768 -5.3488,-39.9168 -4.7287,-58.4505 z" />
    <path
       id="path14"
       style="fill:#ffffff;fill-rule:evenodd;stroke:#000000;stroke-width:4;stroke-linecap:butt;stroke-linejoin:miter;stroke-dasharray:none"
       d="m 433.6209,256.8025 a 68.7674,68.7674 0 0 1 68.7674,68.7674 68.7674,68.7674 0 1 1 -68.7674,-68.7674 z" />
    <path
       id="path16"
       style="fill:#ffffff;fill-rule:evenodd;stroke:#000000;stroke-width:4;stroke-linecap:butt;stroke-linejoin:miter;stroke-dasharray:none"
       d="m 433.6208,277.1566 a 48.4132,48.4132 0 0 1 48.4132,48.4133 48.4132,48.4132 0 1 1 -48.4132,-48.4133 z" />
  </g>
</svg>
