<svg xmlns="http://www.w3.org/2000/svg" xmlns:xlink="http://www.w3.org/1999/xlink" viewBox="0 0 7256.693 7256.693"><defs><linearGradient id="a"><stop offset="0" stop-color="#cf5d07"/><stop offset="1" stop-color="#8c4103"/></linearGradient><linearGradient gradientTransform="matrix(4.2874 0 0 4.2874 -10555.17 -9784.796)" gradientUnits="userSpaceOnUse" y2="3485.196" x2="3336.299" y1="2218.762" x1="3336.299" id="b" xlink:href="#a"/></defs><path d="M3637.12 128.126c1932.997 0 3500 1567.003 3500 3500s-1567.003 3500-3500 3500-3500-1567.003-3500-3500 1567.003-3500 3500-3500z" fill="url(#b)" fill-rule="evenodd"/><path d="M1931.154 1180.177c225.406 0 408.13 182.73 408.13 408.135 0 225.402-182.728 408.13-408.13 408.13-225.406 0-408.135-182.728-408.135-408.13 0-225.406 182.729-408.135 408.135-408.135zm3428.31 0c225.402 0 408.131 182.73 408.131 408.135 0 225.402-182.729 408.13-408.13 408.13-225.407 0-408.136-182.728-408.136-408.13 0-225.406 182.73-408.135 408.135-408.135zm562.315 2739.025c225.406 0 408.13 182.725 408.13 408.126 0 225.406-182.729 408.135-408.13 408.135-225.406 0-408.131-182.729-408.131-408.135 0-225.401 182.725-408.13 408.13-408.13zm-4915.726 0c225.405 0 408.13 182.725 408.13 408.126 0 225.406-182.725 408.135-408.13 408.135-225.406 0-408.131-182.729-408.131-408.135 0-225.401 182.729-408.13 408.13-408.13zm2867.86 1859.266c225.407 0 408.136 182.73 408.136 408.131 0 225.406-182.73 408.13-408.131 408.13-225.406 0-408.135-182.728-408.135-408.13 0-225.406 182.729-408.13 408.135-408.13zm-890.686-2203.913c225.406 0 408.13 182.729 408.13 408.13 0 225.406-182.728 408.131-408.13 408.131-225.406 0-408.135-182.729-408.135-408.13 0-225.407 182.73-408.131 408.135-408.131z" fill="#1b1918" fill-rule="evenodd" stroke="#1b1918" stroke-width="2.431"/><path d="M1006.053 4327.328l925.1-2739.016H5359.46l562.319 2739.016L3873.918 6186.6z" fill="none" stroke="#1b1918" stroke-width="243.066"/></svg>