<?xml version="1.0" encoding="UTF-8" standalone="no"?>
<svg
   xmlns:dc="http://purl.org/dc/elements/1.1/"
   xmlns:cc="http://creativecommons.org/ns#"
   xmlns:rdf="http://www.w3.org/1999/02/22-rdf-syntax-ns#"
   xmlns:svg="http://www.w3.org/2000/svg"
   xmlns="http://www.w3.org/2000/svg"
   xmlns:sodipodi="http://sodipodi.sourceforge.net/DTD/sodipodi-0.dtd"
   xmlns:inkscape="http://www.inkscape.org/namespaces/inkscape"
   version="1.1"
   width=""
   height=""
   id="svg4"
   viewBox="0 0 725.66931 725.66931"
   sodipodi:docname="add_ferals.svg"
   inkscape:version="1.0 (4035a4fb49, 2020-05-01)">
  <metadata
     id="metadata10">
    <rdf:RDF>
      <cc:Work
         rdf:about="">
        <dc:format>image/svg+xml</dc:format>
        <dc:type
           rdf:resource="http://purl.org/dc/dcmitype/StillImage" />
        <dc:title />
      </cc:Work>
    </rdf:RDF>
  </metadata>
  <defs
     id="defs8" />
  <sodipodi:namedview
     inkscape:document-rotation="0"
     pagecolor="#ffffff"
     bordercolor="#666666"
     borderopacity="1"
     objecttolerance="10"
     gridtolerance="10"
     guidetolerance="10"
     inkscape:pageopacity="0"
     inkscape:pageshadow="2"
     inkscape:window-width="1304"
     inkscape:window-height="746"
     id="namedview6"
     showgrid="false"
     inkscape:zoom="0.79650605"
     inkscape:cx="241.82573"
     inkscape:cy="362.83466"
     inkscape:window-x="-8"
     inkscape:window-y="-8"
     inkscape:window-maximized="1"
     inkscape:current-layer="svg4" />
  <path
     d="M 174.05049,207.972 229.65325,63.01802 h 21.0872 L 309.75092,207.972 h -21.82933 l -16.76873,-43.93165 h -61.0348 l -15.7227,43.93165 z m 41.70205,-59.52014 h 49.39468 L 250.03203,108.2654 c -4.5549,-12.214572 -7.99652,-22.303143 -10.39183,-30.266162 -1.99079,9.447658 -4.65608,18.72641 -7.99643,27.904342 z M 390.557,207.972 v -13.32785 c -6.64661,10.35848 -16.43111,15.55485 -29.35343,15.55485 -8.36732,0 -16.05995,-2.29455 -23.04408,-6.91701 -7.01776,-4.58883 -12.4498,-11.03366 -16.32993,-19.26641 -3.84613,-8.26693 -5.76938,-17.74823 -5.76938,-28.47798 0,-10.46002 1.75444,-19.9415 5.22968,-28.47815 3.50889,-8.50284 8.7383,-15.04859 15.72243,-19.57014 6.95049,-4.5551 14.77793,-6.81575 23.38169,-6.81575 6.3429,0 11.97747,1.34973 16.90353,4.0152 4.92598,2.66573 8.94093,6.17483 12.04501,10.46002 V 63.01802 h 17.81439 V 207.972 Z m -56.27755,-52.40076 c 0,13.42921 2.83411,23.45042 8.53613,30.0977 5.66821,6.64702 12.38235,9.95367 20.1088,9.95367 7.7938,0 14.40677,-3.17183 19.87253,-9.51521 5.43204,-6.34338 8.16497,-16.02731 8.16497,-29.05152 0,-14.30649 -2.76656,-24.83379 -8.3335,-31.54835 -5.53331,-6.71483 -12.38262,-10.05511 -20.51368,-10.05511 -7.92889,0 -14.54177,3.20546 -19.87272,9.65002 -5.29696,6.44483 -7.96253,16.60095 -7.96253,30.4688 z M 503.14581,207.972 v -13.32785 c -6.6466,10.35848 -16.4312,15.55485 -29.35343,15.55485 -8.36741,0 -16.05995,-2.29455 -23.04407,-6.91701 -7.01777,-4.58883 -12.4499,-11.03366 -16.32994,-19.26641 -3.84613,-8.26693 -5.76938,-17.74823 -5.76938,-28.47798 0,-10.46002 1.75444,-19.9415 5.22969,-28.47815 3.50888,-8.50284 8.7383,-15.04859 15.72242,-19.57014 6.95049,-4.5551 14.77794,-6.81575 23.3816,-6.81575 6.34299,0 11.97747,1.34973 16.90354,4.0152 4.92607,2.66573 8.94101,6.17483 12.0451,10.46002 V 63.01802 h 17.81439 V 207.972 Z m -56.27754,-52.40076 c 0,13.42921 2.83401,23.45042 8.53612,30.0977 5.66812,6.64702 12.38226,9.95367 20.1088,9.95367 7.79381,0 14.40668,-3.17183 19.87245,-9.51521 5.43213,-6.34338 8.16496,-16.02731 8.16496,-29.05152 0,-14.30649 -2.76647,-24.83379 -8.3335,-31.54835 -5.5333,-6.71483 -12.38253,-10.05511 -20.51359,-10.05511 -7.92889,0 -14.54186,3.20546 -19.87272,9.65002 -5.29696,6.44483 -7.96252,16.60095 -7.96252,30.4688 z M 89.836704,434.14235 V 289.18828 h 97.777156 v 17.00577 h -78.54558 v 45.1462 h 68.01893 v 17.00585 h -68.01893 v 65.79625 z m 192.079146,-34.01163 18.42163,2.42937 c -2.86774,10.69612 -8.23223,19.03041 -16.05995,24.93524 -7.82744,5.90456 -17.81439,8.87393 -29.9943,8.87393 -15.31781,0 -27.46408,-4.72392 -36.43873,-14.17149 -8.97491,-9.41402 -13.46219,-22.67432 -13.46219,-39.71409 0,-17.61304 4.52118,-31.31216 13.5971,-41.02973 9.07582,-9.7513 20.85111,-14.61013 35.32516,-14.61013 14.00216,0 25.43966,4.75765 34.3134,14.3064 8.87338,9.54884 13.32702,22.97824 13.32702,40.28773 0,1.04573 -0.0339,2.63183 -0.10118,4.72365 h -78.24204 c 0.67459,11.50603 3.91376,20.34641 9.78432,26.4537 5.83692,6.10701 13.15858,9.17756 21.89714,9.17756 6.5118,0 12.07874,-1.72091 16.66719,-5.16237 4.62245,-3.44183 8.26623,-8.94157 10.96543,-16.49977 z M 223.61389,371.5852 h 58.50441 c -0.77605,-8.84029 -3.03655,-15.45367 -6.71415,-19.87368 -5.63457,-6.84974 -12.98985,-10.2913 -21.99814,-10.2913 -8.16523,0 -15.01419,2.7331 -20.58113,8.1992 -5.5333,5.46629 -8.60376,12.78812 -9.21099,21.96578 z m 99.02535,62.55715 V 329.07083 h 15.99268 v 16.09485 c 4.08248,-7.45692 7.86135,-12.3833 11.33659,-14.74512 3.47498,-2.39582 7.28775,-3.57674 11.4375,-3.57674 6.00573,0 12.11264,1.88946 18.32072,5.63493 l -6.34298,16.43213 c -4.31883,-2.42937 -8.63739,-3.64392 -12.95613,-3.64392 -3.88013,0 -7.35511,1.18091 -10.42547,3.5091 -3.07045,2.32818 -5.26332,5.56728 -6.57933,9.71756 -1.99052,6.30975 -2.96892,13.22667 -2.96892,20.75096 v 54.89777 z m 136.24067,-13.15921 c -6.61297,5.63492 -12.98986,9.58247 -19.09677,11.91066 -6.10691,2.32819 -12.65224,3.47546 -19.67001,3.47546 -11.53903,0 -20.4125,-2.80055 -26.62058,-8.43547 -6.20809,-5.6012 -9.31217,-12.78794 -9.31217,-21.52705 0,-5.12874 1.18084,-9.81875 3.50888,-14.07031 2.36168,-4.25146 5.43213,-7.62574 9.21099,-10.19002 3.8125,-2.56428 8.06379,-4.52147 12.82105,-5.83729 3.50888,-0.91091 8.80584,-1.78819 15.85751,-2.66546 14.37314,-1.68728 25.00096,-3.74546 31.78264,-6.10729 0.0676,-2.42937 0.10127,-3.98155 0.10127,-4.62273 0,-7.22066 -1.6869,-12.31576 -5.06097,-15.28486 -4.55482,-4.01519 -11.3365,-6.0061 -20.31115,-6.0061 -8.40104,0 -14.60922,1.48455 -18.59043,4.42028 -4.01522,2.93546 -6.95049,8.13156 -8.87374,15.62222 l -17.40951,-2.42937 c 1.58591,-7.45675 4.18366,-13.49676 7.82762,-18.08559 3.64379,-4.58874 8.90711,-8.09784 15.79006,-10.59484 6.84923,-2.46301 14.84548,-3.71156 23.88766,-3.71156 8.97465,0 16.2963,1.0461 21.93078,3.17183 5.60058,2.12573 9.7506,4.75756 12.38235,7.96302 2.63166,3.20546 4.48728,7.25429 5.56694,12.14703 0.5736,3.03673 0.87722,8.50274 0.87722,16.36458 v 23.61915 c 0,16.49976 0.37116,26.92588 1.11348,31.34589 0.7085,4.42028 2.19296,8.63793 4.35247,12.68703 h -18.62434 c -1.78808,-3.74546 -2.93528,-8.13184 -3.44125,-13.15921 z m -1.41719,-39.47791 c -6.47807,2.63182 -16.19512,4.85883 -29.15098,6.68092 -7.35529,1.046 -12.55107,2.227 -15.58762,3.54301 -3.03672,1.31582 -5.36477,3.2391 -7.01803,5.7361 -1.65326,2.53055 -2.49658,5.33093 -2.49658,8.4352 0,4.69029 1.78817,8.63784 5.39822,11.77603 3.61015,3.13792 8.87365,4.72365 15.79024,4.72365 6.84905,0 12.95595,-1.48455 18.32045,-4.48756 5.33086,-2.96937 9.27854,-7.0521 11.77512,-12.21457 1.92315,-4.01519 2.86791,-9.92002 2.86791,-17.71432 z m 44.97459,52.63712 V 289.18828 h 17.81466 v 144.95407 z m 38.2947,-31.3798 17.61195,-2.83428 c 0.9784,7.0521 3.74496,12.45066 8.26614,16.22976 4.52101,3.7452 10.86426,5.63483 18.96169,5.63483 8.1986,0 14.27187,-1.65327 18.25309,-4.99364 3.9474,-3.30665 5.93819,-7.22093 5.93819,-11.70849 0,-4.01519 -1.78835,-7.18701 -5.33096,-9.48129 -2.49676,-1.586 -8.56976,-3.57665 -18.21918,-6.03992 -13.02349,-3.27283 -22.03205,-6.10702 -27.09293,-8.50284 -5.02724,-2.42937 -8.83983,-5.73602 -11.43777,-9.98757 -2.59802,-4.21756 -3.91376,-8.90784 -3.91376,-14.0364 0,-4.69028 1.07966,-9.00911 3.20526,-12.99066 2.15933,-3.98147 5.06088,-7.2882 8.73857,-9.92003 2.76656,-2.02455 6.54543,-3.74537 11.30269,-5.16237 4.79089,-1.41728 9.88577,-2.12583 15.35153,-2.12583 8.23251,0 15.45272,1.18092 21.6608,3.57674 6.24172,2.36182 10.83026,5.60092 13.79945,9.65002 2.93528,4.08274 4.99334,9.51512 6.1069,16.33095 l -17.40959,2.42937 c -0.77596,-5.46611 -3.07036,-9.75121 -6.84923,-12.82185 -3.77886,-3.07028 -9.10972,-4.58883 -16.02631,-4.58883 -8.13106,0 -13.96826,1.34973 -17.44323,4.0491 -3.47525,2.69919 -5.22969,5.87093 -5.22969,9.4813 0,2.29455 0.7085,4.38637 2.15933,6.2421 1.45082,1.88973 3.71123,3.47547 6.81532,4.72392 1.78834,0.67491 6.98412,2.19337 15.68906,4.55519 12.55107,3.34038 21.32327,6.10729 26.31661,8.23302 4.99361,2.12556 8.90737,5.26365 11.74148,9.31248 2.86791,4.08274 4.28483,9.14429 4.28483,15.21767 0,5.90483 -1.72053,11.47212 -5.19578,16.70213 -3.47525,5.23001 -8.46858,9.27884 -14.98029,12.14703 -6.5456,2.86783 -13.93462,4.2851 -22.16685,4.2851 -13.631,0 -24.05647,-2.83419 -31.20905,-8.46911 -7.15293,-5.66874 -11.70775,-14.03667 -13.69827,-25.1376 z M 67.871931,589.75881 c 0,-24.02406 6.478156,-42.85192 19.400383,-56.44986 12.922226,-13.59794 29.589506,-20.37978 50.035556,-20.37978 13.39465,0 25.43966,3.20546 36.20265,9.58248 10.72909,6.37728 18.92796,15.28494 24.56244,26.72342 5.63457,11.40458 8.46859,24.36152 8.46859,38.83673 0,14.67758 -2.96919,27.83679 -8.90729,39.41009 -5.93819,11.6073 -14.33914,20.38005 -25.2034,26.31861 -10.8978,5.97211 -22.63919,8.94148 -35.22426,8.94148 -13.66436,0 -25.84445,-3.30665 -36.60717,-9.88639 -10.72936,-6.57938 -18.894326,-15.55485 -24.427631,-26.95943 -5.533306,-11.37093 -8.299868,-23.41678 -8.299868,-36.13735 z m 19.838904,0.33754 c 0,17.44432 4.68972,31.17708 14.069435,41.19828 9.37944,10.02157 21.15473,15.04885 35.32516,15.04885 14.44068,0 26.28324,-5.06119 35.62905,-15.18367 9.31217,-10.12248 13.96825,-24.49642 13.96825,-43.12192 0,-11.77575 -1.9907,-22.06705 -5.972,-30.8398 -3.98131,-8.77275 -9.81823,-15.58849 -17.47714,-20.41368 -7.69263,-4.82519 -16.29603,-7.25456 -25.84454,-7.25456 -13.5631,0 -25.23704,4.65637 -35.02155,13.96912 -9.784593,9.31275 -14.676665,24.83397 -14.676665,46.59738 z M 228.97821,660.31261 V 555.24109 h 15.99258 v 14.91376 c 7.69264,-11.4383 18.82679,-17.14068 33.36837,-17.14068 6.34326,0 12.14628,1.14728 17.4435,3.40783 5.29696,2.26064 9.27827,5.26374 11.90993,8.94157 2.63166,3.67791 4.48755,8.06429 5.5333,13.12548 0.64115,3.30674 0.9784,9.07666 0.9784,17.3095 v 64.51406 H 296.3899 v -63.83924 c 0,-7.25429 -0.67478,-12.68676 -2.05806,-16.26341 -1.38328,-3.57664 -3.8464,-6.44456 -7.35529,-8.6042 -3.50888,-2.12582 -7.65899,-3.20546 -12.38235,-3.20546 -7.55773,0 -14.06943,2.39573 -19.5691,7.22083 -5.4994,4.79129 -8.23223,13.93522 -8.23223,27.36434 v 57.32714 z m 99.22797,2.42937 42.10694,-149.81281 h 14.33941 L 342.5456,662.74198 Z m 65.96096,-72.98317 c 0,-24.02406 6.47807,-42.85192 19.4003,-56.44986 12.92223,-13.59794 29.5895,-20.37978 50.03555,-20.37978 13.39466,0 25.43966,3.20546 36.20266,9.58248 10.72908,6.37728 18.92795,15.28494 24.56252,26.72342 5.63449,11.40458 8.46859,24.36152 8.46859,38.83673 0,14.67758 -2.96928,27.83679 -8.90738,39.41009 -5.9381,11.6073 -14.33914,20.38005 -25.20331,26.31861 -10.89789,5.97211 -22.63928,8.94148 -35.22425,8.94148 -13.66437,0 -25.84455,-3.30665 -36.60727,-9.88639 -10.72936,-6.57938 -18.89432,-15.55485 -24.42763,-26.95943 -5.5333,-11.37093 -8.29978,-23.41678 -8.29978,-36.13735 z m 19.83882,0.33754 c 0,17.44432 4.68972,31.17708 14.06943,41.19828 9.37944,10.02157 21.15482,15.04885 35.32516,15.04885 14.44068,0 26.28325,-5.06119 35.62914,-15.18367 9.31217,-10.12248 13.96817,-24.49642 13.96817,-43.12192 0,-11.77575 -1.9907,-22.06705 -5.97201,-30.8398 -3.98131,-8.77275 -9.81823,-15.58849 -17.47714,-20.41368 -7.69254,-4.82519 -16.29602,-7.25456 -25.84454,-7.25456 -13.5631,0 -25.23695,4.65637 -35.02154,13.96912 -9.78451,9.31275 -14.67667,24.83397 -14.67667,46.59738 z m 145.51857,70.21626 v -91.30476 h -15.78997 v -13.76676 h 15.78997 v -11.13485 c 0,-7.05183 0.60724,-12.28184 1.85571,-15.68976 1.7208,-4.58883 4.68999,-8.3342 9.00855,-11.20212 4.28483,-2.86819 10.3242,-4.28519 18.08437,-4.28519 5.02725,0 10.56055,0.60727 16.63355,1.78819 l -2.66529,15.58858 c -3.71133,-0.64091 -7.18657,-0.97855 -10.49301,-0.97855 -5.3985,0 -9.211,1.14728 -11.4715,3.44183 -2.22677,2.29428 -3.34034,6.57947 -3.34034,12.85548 v 9.61639 h 20.44632 v 13.76676 h -20.2437 v 91.30476 z m 52.59994,0 v -91.30476 h -15.78996 v -13.76676 h 15.78996 v -11.13485 c 0,-7.05183 0.60724,-12.28184 1.85562,-15.68976 1.72081,-4.58883 4.68999,-8.3342 9.00855,-11.20212 4.28493,-2.86819 10.32429,-4.28519 18.08438,-4.28519 5.02733,0 10.56055,0.60727 16.63355,1.78819 l -2.6653,15.58858 c -3.71132,-0.64091 -7.18648,-0.97855 -10.49301,-0.97855 -5.3984,0 -9.2109,1.14728 -11.4714,3.44183 -2.22687,2.29428 -3.34044,6.57947 -3.34044,12.85548 v 9.61639 h 20.44641 v 13.76676 h -20.2437 v 91.30476 z"
     style="fill:#ffffff;fill-rule:evenodd;stroke:#ffffff;stroke-width:4;stroke-linecap:butt;stroke-linejoin:miter;stroke-dasharray:none"
     id="path2" />
</svg>
