<?xml version="1.0" encoding="UTF-8" standalone="no"?>
<svg
   xmlns:dc="http://purl.org/dc/elements/1.1/"
   xmlns:cc="http://creativecommons.org/ns#"
   xmlns:rdf="http://www.w3.org/1999/02/22-rdf-syntax-ns#"
   xmlns:svg="http://www.w3.org/2000/svg"
   xmlns="http://www.w3.org/2000/svg"
   xmlns:xlink="http://www.w3.org/1999/xlink"
   xmlns:sodipodi="http://sodipodi.sourceforge.net/DTD/sodipodi-0.dtd"
   xmlns:inkscape="http://www.inkscape.org/namespaces/inkscape"
   inkscape:version="1.0 (4035a4fb49, 2020-05-01)"
   sodipodi:docname="eye_of_submission.svg"
   id="svg72"
   viewBox="0 0 256 256"
   version="1.1"
   cursor="default">
  <metadata
     id="metadata76">
    <rdf:RDF>
      <cc:Work
         rdf:about="">
        <dc:format>image/svg+xml</dc:format>
        <dc:type
           rdf:resource="http://purl.org/dc/dcmitype/StillImage" />
      </cc:Work>
    </rdf:RDF>
  </metadata>
  <sodipodi:namedview
     inkscape:current-layer="svg72"
     inkscape:window-maximized="1"
     inkscape:window-y="-8"
     inkscape:window-x="-8"
     inkscape:cy="122.79096"
     inkscape:cx="101.10005"
     inkscape:zoom="1.5965145"
     showgrid="false"
     id="namedview74"
     inkscape:window-height="746"
     inkscape:window-width="1304"
     inkscape:pageshadow="2"
     inkscape:pageopacity="0"
     guidetolerance="10"
     gridtolerance="10"
     objecttolerance="10"
     borderopacity="1"
     bordercolor="#666666"
     pagecolor="#ffffff"
     inkscape:document-rotation="0" />
  <defs
     id="defs22">
    <linearGradient
       id="innoGrad1">
      <stop
         id="stop2"
         offset="0"
         stop-color="#f55" />
      <stop
         id="stop4"
         offset="1"
         stop-color="#ff8080" />
    </linearGradient>
    <linearGradient
       xlink:href="#innoGrad1"
       gradientUnits="userSpaceOnUse"
       gradientTransform="translate(-260.79 -6.9033)"
       y2="89.554"
       y1="110.65"
       x2="376.61"
       x1="297.8"
       id="linearGradient982" />
    <linearGradient
       xlink:href="#innoGrad1"
       gradientUnits="userSpaceOnUse"
       gradientTransform="translate(-260.79 -6.9033)"
       y2="93.006"
       y1="123.3"
       x2="437.97"
       x1="497.61"
       id="linearGradient990" />
    <linearGradient
       gradientUnits="userSpaceOnUse"
       gradientTransform="translate(-260.79 -6.9033)"
       y2="187.53"
       y1="186.31"
       x2="391.19"
       x1="357.42"
       id="linearGradient1002">
      <stop
         id="stop9"
         offset="0"
         stop-color="#ffe680" />
      <stop
         id="stop11"
         offset=".65371"
         stop-color="#fea" />
      <stop
         id="stop13"
         offset="1"
         stop-color="#ffe680" />
    </linearGradient>
    <linearGradient
       xlink:href="#innoGrad1"
       gradientUnits="userSpaceOnUse"
       gradientTransform="translate(-260.79 -6.9033)"
       y2="150.92"
       y1="188.12"
       x2="370.48"
       x1="257.34"
       id="linearGradient1012" />
    <linearGradient
       gradientUnits="userSpaceOnUse"
       gradientTransform="translate(-260.79 -6.9033)"
       y2="155.14"
       y1="202.12"
       x2="427.24"
       x1="356.29"
       id="linearGradient1064">
      <stop
         id="stop17"
         offset="0"
         stop-color="#ffb380" />
      <stop
         id="stop19"
         offset="1"
         stop-color="#fca" />
    </linearGradient>
    <linearGradient
       gradientUnits="userSpaceOnUse"
       gradientTransform="rotate(44.757,-34.8,491.87)"
       y2="18.109"
       y1="136.94"
       x2="-174.4"
       x1="-172.38"
       id="linearGradient4304">
      <stop
         style="stop-color:#564a42;stop-opacity:1"
         id="stop2-4"
         offset="0"
         stop-color="#f95" />
      <stop
         style="stop-color:#877467;stop-opacity:1"
         id="stop4-8"
         offset="1"
         stop-color="#fca" />
    </linearGradient>
  </defs>
  <path
     id="path24"
     stroke-width=".75"
     stroke-linecap="round"
     stroke="#000"
     fill-opacity=".88318"
     fill="#ff2a2a"
     d="m144.99 54.654-0.5523 34.382c-0.57705 0.6786-1.0893 1.5396-1.1914 1.9949l-2.0195-34.459c0.19218-0.61918 0.7422-1.5341 3.7632-1.9176z" />
  <g
     id="g46"
     stroke="#000000">
    <g
       id="g32"
       stroke-linejoin="round"
       stroke-linecap="round">
      <path
         id="path26"
         fill="#ffd42a"
         d="m 130.35,193.01 4.9285,-1.8426 -1.4901,-28.441 c -11.676,7.4149 -2.468,20.093 -3.4384,30.284 z" />
      <path
         id="path28"
         fill="#ff2a2a"
         d="m 94.107,190.92 c 45.078,-5.2645 24.682,-18.691 17.442,-30.025 -58.186,-2.5996 -20.035,20.695 -17.442,30.025 z" />
      <path
         id="path30"
         stroke-width="0.75"
         fill="url(#linearGradient1002)"
         d="m 95.304,191.09 c 10.129,1.9445 24.347,2.385 35.235,2.0135 l 0.38353,-25.456 -35.955,-2.0134 z" />
    </g>
    <g
       id="g40"
       stroke-width="0.75"
       fill-rule="evenodd">
      <path
         id="path34"
         fill="url(#linearGradient982)"
         d="M 28.037,133.37 C 49.421,101.826 90.804,92.057 143.257,90.751 l 0.2191,-10.329 11.187,0.06524 0.35068,-11.471 -11.379,-0.60818 0.17592,-11.956 c -39.997,-1.6498 -89.918,7.1631 -112.48,27.771 -13.853,12.653 -6.5389,28.815 -3.2919,49.147 z" />
      <path
         id="path36"
         fill="url(#linearGradient990)"
         d="m 144.72,90.598 c 29.662,1.004 79.049,14.556 85.397,45.885 0.27,1.333 12.483,-35.936 12.483,-35.936 C 233.5438,79.021 201.572,56.532 145.313,56.74 l -0.19525,11.139 10.61,0.57851 -0.6131,12.463 -10.224,-0.0919 z" />
      <path
         id="path38"
         fill="url(#linearGradient1012)"
         d="m 15.876,103.59 5.5975,45.758 c 11.86,23.637 40.141,36.681 72.633,41.573 l -0.22076,-25.874 38.365,2.1646 -0.61832,25.907 c 52.02,-1.3124 103.22,-19.64 109.63,-46.193 l 4.499,-42.535 c -36.25,54.37 -197.75,53.632 -229.88,-0.79945 z" />
    </g>
    <path
       id="path42"
       stroke-linejoin="round"
       stroke-linecap="round"
       fill="#ff9955"
       d="m 92.837,145.23 11.051,13.017 0.10964,7.7362 c -0.1127,0.78737 16.215,1.6518 16.167,0.79026 l -0.14089,-7.7129 14.292,-11.529 c -0.57174,-3.7422 -33.15,-6.4388 -41.479,-2.301 z" />
    <path
       id="path44"
       stroke-width="0.75"
       stroke-linejoin="round"
       stroke-linecap="round"
       fill="url(#linearGradient1064)"
       d="m 110.76,148.18 a 32.342,32.285 0 0 0 -32.342,32.285 32.342,32.285 0 0 0 32.342,32.284 32.342,32.285 0 0 0 32.342,-32.284 32.342,32.285 0 0 0 -32.342,-32.285 z m 0,7.304 a 25.024,24.981 0 0 1 25.025,24.981 25.024,24.981 0 0 1 -25.024,24.98 25.024,24.981 0 0 1 -25.026,-24.98 25.024,24.981 0 0 1 25.025,-24.981 z" />
  </g>
  <g
     id="g56"
     stroke-width="0.75"
     stroke="#000000"
     fill-rule="evenodd">
    <path
       id="path48"
       fill="#ffaaaa"
       d="M 143.93,56.448 C 102.41,55.81995 26.97,68.191 24.98,102.086 c -1.2639,21.485 39.542,31.745 70.408,37.612 -2.1662,2.6864 -1.3493,1.0297 -3.2948,5.4136 -33.941,-6.205 -75.894,-17.688 -76.219,-41.523 -0.49523,-36.314 87.863,-50.91 128.91,-49.025 z" />
    <path
       id="path50"
       fill="#ffaaaa"
       d="m 145.31,56.739 c 52.91,2.8974 91.7,20.057 91.465,46.19 -0.18361,20.436 -46.157,36.617 -101.7,39.094 -0.27446,1.8728 -0.40131,2.3464 -0.7609,5.51 60.382,0.0323 111.05,-19.739 111.43,-43.574 0.49523,-31.161 -55.18,-47.852 -99.729,-49.375 z" />
    <path
       id="path52"
       fill="#ffccaa"
       d="m 95.39,139.7 c -1.74,1.789 -3.1938,3.3096 -3.2948,5.4136 3.4303,0.72241 7.9863,1.407 12.931,1.9451 0.58924,4.2571 14.264,4.1526 15.743,1.079 5.2105,0.12626 10.011,-0.0325 13.546,-0.60205 0.57371,-2.4922 0.76955,-4.145 0.7609,-5.51 -2.8312,-1.1609 -38.797,-3.4504 -39.687,-2.3257 z" />
    <path
       id="path54"
       fill="#ffe6d5"
       d="m 104.55,147.26 c -0.51175,2.8552 -0.87016,6.6841 -0.39312,9.6838 2.998,0.46527 11.571,0.52294 15.841,0.87569 -0.66118,-2.549 -0.35657,-5.9832 0.37764,-9.272 z" />
  </g>
  <g
     id="g64"
     fill-opacity=".77647"
     fill="#fff">
    <path
       id="path58"
       d="m122.8 151.88c1.4434 0.75404 3.8811 2.3417 6.3837 4.6714 2.6506 2.4676 4.2588 4.6854 5.4506 6.3526 0.46594 0.65179 1.0958 1.5512 1.7623 2.6578 1.5649 2.5981 3.1165 5.9818 3.9046 10.257 0.93236 5.0574 0.48184 9.7563-0.21305 13.078 0.70061-3.3492 1.407-7.9379 0.76836-13.163-0.53698-4.3936-1.8821-7.9965-3.3783-10.787-0.63688-1.1876-1.2583-2.1462-1.7459-2.8282-1.1858-1.6589-3.256-3.9219-6.1148-6.0846-2.8317-2.1422-5.3196-3.3719-6.8175-4.1544z" />
    <path
       id="path60"
       d="m101.92 145.1c3.8414 0.35156 10.014 0.63798 17.339 0.68468 6.8736 0.0438 11.32-0.13046 13.372-0.17117 0.0306-6.1e-4 0.0615-1e-3 0.0927-2e-3 0.0685-0.10714 0.14838-0.2196 0.23891-0.3418 0.1368-0.18466 0.29109-0.38409 0.43239-0.61438 0.36268-0.59105 0.57698-1.3388 0.59362-2.064-0.0191 0.83042 0.0249 1.3736-0.12432 2.2365-0.0507 0.29357-0.11553 0.55955-0.17377 0.78701-0.0659 0.2574-0.14636 0.55936-0.18971 0.68806-0.0366 0.1086-0.0826 0.2138-0.13747 0.31439-0.109 4e-3 -0.21801 8e-3 -0.32703 0.0107-0.13256 4e-3 -0.26138 7e-3 -0.38504 9e-3 -1.8111 0.0359-6.7848-0.0274-13.406-0.32832-7.8904-0.35863-12.924-0.80666-17.325-1.2094z" />
    <path
       id="path62"
       d="m105.98 148.99c0.23136 0.0433 0.6115 0.13243 1.1932 0.25053 0.44875 0.0911 0.97483 0.19169 1.6241 0.30676 1.1871 0.21041 2.5484 0.42676 3.9164 0.63315 1.5373 0.23194 3.0315 0.4448 3.753 0.52541 0.14626 0.0163 0.27589 0.0292 0.38897 0.0384 0.24129 0.0195 0.67875-0.0839 1.0583-0.20614 0.48025-0.15475 0.82974-0.3417 0.94748-0.32774-0.11774-0.014-0.42491-0.26814-0.87544-0.50354-0.35615-0.1861-0.77385-0.35892-1.016-0.37847-0.11359-9e-3 -0.24392-0.0172-0.39133-0.0243-0.77549-0.0375-2.1871-0.0544-3.7864-0.0776-1.3682-0.0198-2.7664-0.0421-3.9552-0.0731-0.64597-0.0168-1.2008-0.0356-1.6458-0.0573-0.59537-0.029-0.97906-0.0626-1.2113-0.10599z" />
  </g>
  <path
     id="path66"
     stroke-width=".75"
     stroke-linecap="round"
     stroke="#000"
     fill="#f55"
     d="m148.77 54.935 0.0599 0.94395c1.2202 0.8149 4.4266 0.64437 5.2014 0.02397l0.0396-0.98133c-0.0861-0.3891-5.2487-0.49395-5.301 0.01341z" />
  <ellipse
     id="ellipse68"
     stroke-width=".75"
     stroke-linecap="round"
     stroke="#000"
     fill="#ffd5d5"
     ry=".77909"
     rx="2.6727"
     cy="54.769"
     cx="151.38" />
  <path
     id="path70"
     fill-opacity=".77647"
     fill="#fff"
     d="m198.42 64.718c2.2917 0.31883 6.1019 1.0579 11.387 3.0329 3.9318 1.4691 8.395 3.5248 12.878 6.1863 4.3608 2.5891 8.4064 5.5553 11.788 8.7687 3.9911 3.7926 6.5775 7.468 8.1089 10.84 0.77488 1.706 1.2288 3.2215 1.4919 4.4915 0.38993 1.8828 0.64503 4.6567-0.14822 7.8893-0.93864 3.8251-3.275 8.043-8.0769 12.354-4.607 4.1361-11.063 7.984-19.388 11.539-11.092 4.7374-23.53 8.113-33.256 10.459 9.6895-2.3367 22.158-5.9298 33.061-10.9 8.2223-3.7478 14.45-7.768 18.763-11.975 4.476-4.366 6.3859-8.4402 7.0592-11.885 0.56962-2.9141 0.24977-5.375-0.0973-7.0508-0.23518-1.1356-0.61758-2.5154-1.284-4.1022-1.3201-3.1432-3.599-6.7175-7.324-10.558-3.1565-3.2547-6.993-6.3258-11.2-9.0635-4.3168-2.8093-8.6629-5.034-12.512-6.6497-5.1657-2.1682-8.9679-3.0588-11.251-3.3765z" />
  <g
     style="fill:none;fill-opacity:1;stroke:#ffffff;stroke-width:4.46386;stroke-miterlimit:4;stroke-dasharray:none;stroke-opacity:0.2"
     transform="matrix(1.1315113,0,0,1.1088161,-10.570709,-597.84581)"
     id="g887">
    <path
       d="m 228.5711,649.6883 c -70.2372,-72.0754 -140.4745,-71.7 -210.7117,0 70.2372,72.7343 140.4745,75.4424 210.7117,0 z"
       style="fill:none;fill-opacity:1;stroke:#ffffff;stroke-width:4.46386;stroke-linecap:butt;stroke-linejoin:miter;stroke-miterlimit:4;stroke-dasharray:none;stroke-opacity:0.2"
       id="path870" />
    <path
       d="m 122.9904,595.624 a 54.6072,54.6072 0 0 1 54.6072,54.6071 54.6072,54.6072 0 1 1 -54.6072,-54.6071 z"
       style="fill:none;fill-opacity:1;stroke:#ffffff;stroke-width:4.46386;stroke-linecap:butt;stroke-linejoin:miter;stroke-miterlimit:4;stroke-dasharray:none;stroke-opacity:0.2"
       id="path872" />
    <path
       d="m 122.9904,628.2292 a 22.002,22.002 0 0 1 22.002,22.002 22.002,22.002 0 1 1 -22.002,-22.002 z"
       style="fill:none;fill-opacity:1;stroke:#ffffff;stroke-width:4.46386;stroke-linecap:butt;stroke-linejoin:miter;stroke-miterlimit:4;stroke-dasharray:none;stroke-opacity:0.2"
       id="path874" />
  </g>
</svg>
