<?xml version="1.0" encoding="UTF-8" standalone="no"?>
<svg
   xmlns:dc="http://purl.org/dc/elements/1.1/"
   xmlns:cc="http://creativecommons.org/ns#"
   xmlns:rdf="http://www.w3.org/1999/02/22-rdf-syntax-ns#"
   xmlns:svg="http://www.w3.org/2000/svg"
   xmlns="http://www.w3.org/2000/svg"
   xmlns:sodipodi="http://sodipodi.sourceforge.net/DTD/sodipodi-0.dtd"
   xmlns:inkscape="http://www.inkscape.org/namespaces/inkscape"
   inkscape:version="1.0 (4035a4fb49, 2020-05-01)"
   sodipodi:docname="kobold.svg"
   viewBox="0 0 725.66931 725.66931"
   id="svg11"
   height=""
   width=""
   version="1.1">
  <metadata
     id="metadata17">
    <rdf:RDF>
      <cc:Work
         rdf:about="">
        <dc:format>image/svg+xml</dc:format>
        <dc:type
           rdf:resource="http://purl.org/dc/dcmitype/StillImage" />
        <dc:title />
      </cc:Work>
    </rdf:RDF>
  </metadata>
  <defs
     id="defs15" />
  <sodipodi:namedview
     inkscape:current-layer="svg11"
     inkscape:window-maximized="1"
     inkscape:window-y="-8"
     inkscape:window-x="-8"
     inkscape:cy="362.83466"
     inkscape:cx="362.83466"
     inkscape:zoom="0.79650605"
     showgrid="false"
     id="namedview13"
     inkscape:window-height="746"
     inkscape:window-width="1304"
     inkscape:pageshadow="2"
     inkscape:pageopacity="0"
     guidetolerance="10"
     gridtolerance="10"
     objecttolerance="10"
     borderopacity="1"
     bordercolor="#666666"
     pagecolor="#ffffff"
     inkscape:document-rotation="0" />
  <g
     id="Layer1000"
     style="fill:#ffb380;fill-opacity:1">
    <path
       id="path2"
       style="fill:#ffb380;fill-opacity:1;fill-rule:evenodd;stroke:#1b1918;stroke-width:7.9999;stroke-linecap:butt;stroke-linejoin:round;stroke-dasharray:none"
       d="m 342.7201,210.7475 c -8.4525,-24.7136 -17.6819,-52.639 -27.5498,-85.8275 -46.5397,45.3807 -89.093,95.1899 -122.9143,154.702 36.0864,-39.1349 86.1199,-62.2337 150.4641,-68.8745 z m 0,0 c -64.3442,6.6408 -114.3777,29.7396 -150.4641,68.8745 -96.3321,95.254 3.1342,204.6441 -75.2316,238.4101 20.9643,31.3271 42.615,58.0335 63.5761,79.4703 163.4901,8.0809 276.6014,-34.2161 358.1454,-108.0797 l -19.1781,-11.9663 c 8.6407,-31.9335 9.2647,-74.0807 2.3644,-125.793 62.128,-89.8227 79.8123,-150.0308 72.973,-193.8953 -59.5265,16.2779 -118.0806,34.7897 -175.056,56.9265 -25.7091,-5.7813 -51.4183,-7.7668 -77.1291,-3.9471 z" />
    <path
       id="path4"
       style="fill:#ffb380;fill-opacity:1;stroke:#000000;stroke-width:7.9999;stroke-linecap:round;stroke-linejoin:round;stroke-dasharray:none"
       d="M 466.6332,424.863 C 573.6742,292.9948 603.4562,212.609 594.9052,157.7681 489.1105,186.6979 386.3892,222.6858 290.1388,273.5355" />
    <path
       id="path6"
       style="fill:#ffb380;fill-opacity:1;stroke:#000000;stroke-width:7.9999;stroke-linecap:round;stroke-linejoin:round;stroke-dasharray:none"
       d="m 192.256,279.622 c 36.0864,-39.1349 86.1199,-62.2337 150.4641,-68.8745" />
    <path
       id="path8"
       style="fill:#ffb380;fill-opacity:1;stroke:#000000;stroke-width:7.9999;stroke-linecap:round;stroke-linejoin:round;stroke-dasharray:none"
       d="m 448.091,448.9687 c 24.8714,1.5554 56.5958,18.3996 90.6549,40.454" />
  </g>
</svg>
