<?xml version="1.0" encoding="UTF-8" standalone="no"?>
<svg
   xmlns:dc="http://purl.org/dc/elements/1.1/"
   xmlns:cc="http://creativecommons.org/ns#"
   xmlns:rdf="http://www.w3.org/1999/02/22-rdf-syntax-ns#"
   xmlns:svg="http://www.w3.org/2000/svg"
   xmlns="http://www.w3.org/2000/svg"
   xmlns:sodipodi="http://sodipodi.sourceforge.net/DTD/sodipodi-0.dtd"
   xmlns:inkscape="http://www.inkscape.org/namespaces/inkscape"
   version="1.1"
   width=""
   height=""
   id="svg4"
   viewBox="0 0 725.66931 725.66931"
   sodipodi:docname="eevee.svg"
   inkscape:version="1.0 (4035a4fb49, 2020-05-01)">
  <metadata
     id="metadata10">
    <rdf:RDF>
      <cc:Work
         rdf:about="">
        <dc:format>image/svg+xml</dc:format>
        <dc:type
           rdf:resource="http://purl.org/dc/dcmitype/StillImage" />
        <dc:title />
      </cc:Work>
    </rdf:RDF>
  </metadata>
  <defs
     id="defs8" />
  <sodipodi:namedview
     inkscape:document-rotation="0"
     pagecolor="#ffffff"
     bordercolor="#666666"
     borderopacity="1"
     objecttolerance="10"
     gridtolerance="10"
     guidetolerance="10"
     inkscape:pageopacity="0"
     inkscape:pageshadow="2"
     inkscape:window-width="1304"
     inkscape:window-height="746"
     id="namedview6"
     showgrid="false"
     inkscape:zoom="0.79650605"
     inkscape:cx="362.83466"
     inkscape:cy="362.83466"
     inkscape:window-x="-8"
     inkscape:window-y="-8"
     inkscape:window-maximized="1"
     inkscape:current-layer="svg4" />
  <path
     d="M 140.44586,207.972 V 63.01802 h 97.77715 v 17.005767 h -78.54557 v 45.146203 h 68.01893 v 17.00576 H 159.67744 V 207.972 Z m 192.07915,-34.01154 18.42163,2.42937 c -2.86774,10.69612 -8.23224,19.03032 -16.05995,24.93515 -7.82744,5.90465 -17.81439,8.87402 -29.9943,8.87402 -15.31781,0 -27.46408,-4.72392 -36.43873,-14.17157 -8.97491,-9.41394 -13.46219,-22.67433 -13.46219,-39.71401 0,-17.61304 4.52118,-31.31216 13.597,-41.02982 9.07592,-9.75121 20.85121,-14.61004 35.32525,-14.61004 14.00216,0 25.43966,4.75756 34.31331,14.3064 8.87347,9.54884 13.32712,22.97824 13.32712,40.28764 0,1.04582 -0.0339,2.63183 -0.10118,4.72374 h -78.24205 c 0.6746,11.50603 3.91377,20.34632 9.78433,26.45361 5.83692,6.10701 13.15857,9.17766 21.89714,9.17766 6.5117,0 12.07873,-1.72092 16.66719,-5.16247 4.62245,-3.44183 8.26623,-8.94157 10.96543,-16.49968 z m -58.30197,-28.54552 h 58.50441 c -0.77604,-8.84038 -3.03654,-15.45367 -6.71414,-19.87377 -5.63457,-6.84965 -12.98986,-10.29121 -21.99814,-10.29121 -8.16524,0 -15.01419,2.73301 -20.58122,8.19911 -5.53331,5.46638 -8.60367,12.78821 -9.21091,21.96587 z M 373.2484,207.972 V 102.90057 h 15.99268 v 16.09485 c 4.08248,-7.45701 7.86134,-12.38339 11.33659,-14.74521 3.47498,-2.39573 7.28775,-3.57665 11.4375,-3.57665 6.00573,0 12.11264,1.88946 18.32072,5.63484 l -6.34298,16.43222 c -4.31883,-2.42946 -8.6374,-3.64401 -12.95614,-3.64401 -3.88013,0 -7.3551,1.18091 -10.42546,3.5091 -3.07046,2.32818 -5.26333,5.56728 -6.57934,9.71765 -1.99052,6.30966 -2.96891,13.22667 -2.96891,20.75096 V 207.972 Z m 136.24057,-13.15912 c -6.61287,5.63483 -12.98976,9.58247 -19.09667,11.91066 -6.10691,2.32819 -12.65234,3.47546 -19.6701,3.47546 -11.53894,0 -20.41241,-2.80064 -26.6205,-8.43547 -6.20808,-5.60119 -9.31217,-12.78794 -9.31217,-21.52705 0,-5.12883 1.18084,-9.81884 3.50888,-14.07031 2.36168,-4.25155 5.43213,-7.62574 9.211,-10.19002 3.8125,-2.56428 8.0637,-4.52156 12.82105,-5.83729 3.50888,-0.91091 8.80584,-1.78819 15.85751,-2.66546 14.37305,-1.68727 25.00096,-3.74546 31.78264,-6.10729 0.0675,-2.42946 0.10127,-3.98155 0.10127,-4.62273 0,-7.22066 -1.6869,-12.31576 -5.06097,-15.28495 -4.55482,-4.01519 -11.3366,-6.00601 -20.31115,-6.00601 -8.40105,0 -14.60922,1.48455 -18.59044,4.42028 -4.01521,2.93546 -6.95049,8.13157 -8.87374,15.62222 l -17.4095,-2.42946 c 1.5859,-7.45675 4.18366,-13.49667 7.82762,-18.0855 3.64378,-4.58883 8.90711,-8.09793 15.79006,-10.59484 6.84922,-2.4631 14.84547,-3.71156 23.88766,-3.71156 8.97456,0 16.29621,1.0461 21.93078,3.17183 5.60057,2.12573 9.7506,4.75756 12.38226,7.96302 2.63166,3.20546 4.48737,7.25429 5.56703,12.14703 0.57351,3.03664 0.87722,8.50274 0.87722,16.36458 v 23.61915 c 0,16.49976 0.37116,26.92588 1.11348,31.34589 0.7085,4.42028 2.19296,8.63784 4.35246,12.68694 h -18.62434 c -1.78807,-3.74537 -2.93527,-8.13184 -3.44134,-13.15912 z m -1.41709,-39.47791 c -6.47816,2.63182 -16.19512,4.85874 -29.15099,6.68092 -7.35537,1.046 -12.55115,2.22692 -15.58761,3.54301 -3.03673,1.31573 -5.36477,3.2391 -7.01803,5.73601 -1.65327,2.53064 -2.49658,5.33102 -2.49658,8.43521 0,4.69028 1.78816,8.63792 5.39822,11.77611 3.61006,3.13792 8.87365,4.72365 15.79024,4.72365 6.84904,0 12.95595,-1.48455 18.32045,-4.48756 5.33086,-2.96946 9.27853,-7.05219 11.77511,-12.21457 1.92316,-4.01519 2.86792,-9.92002 2.86792,-17.71431 z M 553.04646,207.972 V 63.01802 h 17.81466 V 207.972 Z M 83.443266,434.14235 V 289.18828 H 188.1031 v 17.00577 h -85.42853 v 44.53892 h 79.96277 v 17.00586 h -79.96277 v 49.39766 h 88.87014 v 17.00586 z m 204.056614,-34.01163 18.42172,2.42937 c -2.86774,10.69612 -8.23233,19.03041 -16.06004,24.93524 -7.82744,5.90456 -17.81439,8.87393 -29.9943,8.87393 -15.31781,0 -27.46408,-4.72392 -36.43873,-14.17149 -8.97491,-9.41402 -13.46219,-22.67432 -13.46219,-39.71409 0,-17.61304 4.52118,-31.31216 13.59709,-41.02973 9.07583,-9.7513 20.85112,-14.61013 35.32517,-14.61013 14.00216,0 25.43966,4.75765 34.3134,14.3064 8.87338,9.54884 13.32702,22.97824 13.32702,40.28773 0,1.04573 -0.0339,2.63183 -0.10118,4.72365 h -78.24196 c 0.67451,11.50603 3.91368,20.34641 9.78424,26.4537 5.83692,6.10701 13.15857,9.17756 21.89714,9.17756 6.51179,0 12.07873,-1.72091 16.66728,-5.16237 4.62236,-3.44183 8.26614,-8.94157 10.96534,-16.49977 z M 229.19792,371.5852 h 58.50441 c -0.77605,-8.84029 -3.03655,-15.45367 -6.71415,-19.87368 -5.63457,-6.84974 -12.98986,-10.2913 -21.99814,-10.2913 -8.16523,0 -15.01419,2.7331 -20.58113,8.1992 -5.53331,5.46629 -8.60376,12.78812 -9.21099,21.96578 z m 127.94025,62.55715 -39.64399,-105.07152 h 19.06286 l 22.47048,62.92806 c 2.42922,6.7821 4.68999,13.83421 6.74805,21.15614 1.58563,-5.53365 3.77886,-12.18067 6.6466,-19.97496 l 23.3477,-64.10924 h 18.28708 l -39.77916,105.07152 z m 144.16902,-34.01163 18.42172,2.42937 c -2.86774,10.69612 -8.23233,19.03041 -16.06004,24.93524 -7.82735,5.90456 -17.81439,8.87393 -29.9943,8.87393 -15.31781,0 -27.46408,-4.72392 -36.43873,-14.17149 -8.97483,-9.41402 -13.46219,-22.67432 -13.46219,-39.71409 0,-17.61304 4.52127,-31.31216 13.59709,-41.02973 9.07582,-9.7513 20.85112,-14.61013 35.32516,-14.61013 14.00216,0 25.43966,4.75765 34.3134,14.3064 8.87338,9.54884 13.32711,22.97824 13.32711,40.28773 0,1.04573 -0.0339,2.63183 -0.10126,4.72365 h -78.24196 c 0.67451,11.50603 3.91368,20.34641 9.78424,26.4537 5.83692,6.10701 13.15857,9.17756 21.89714,9.17756 6.51179,0 12.07873,-1.72091 16.66728,-5.16237 4.62236,-3.44183 8.26614,-8.94157 10.96534,-16.49977 z M 443.00522,371.5852 h 58.50441 c -0.77604,-8.84029 -3.03645,-15.45367 -6.71414,-19.87368 -5.63448,-6.84974 -12.98986,-10.2913 -21.99814,-10.2913 -8.16515,0 -15.01419,2.7331 -20.58113,8.1992 -5.53331,5.46629 -8.60376,12.78812 -9.211,21.96578 z m 170.89078,28.54552 18.42163,2.42937 c -2.86774,10.69612 -8.23224,19.03041 -16.05995,24.93524 -7.82744,5.90456 -17.81439,8.87393 -29.9943,8.87393 -15.3179,0 -27.46408,-4.72392 -36.43873,-14.17149 -8.97491,-9.41402 -13.46219,-22.67432 -13.46219,-39.71409 0,-17.61304 4.52118,-31.31216 13.597,-41.02973 9.07592,-9.7513 20.85121,-14.61013 35.32526,-14.61013 14.00216,0 25.43966,4.75765 34.31331,14.3064 8.87347,9.54884 13.32711,22.97824 13.32711,40.28773 0,1.04573 -0.0339,2.63183 -0.10118,4.72365 h -78.24205 c 0.6746,11.50603 3.91377,20.34641 9.78433,26.4537 5.83692,6.10701 13.15857,9.17756 21.89714,9.17756 6.5117,0 12.07864,-1.72091 16.66719,-5.16237 4.62245,-3.44183 8.26623,-8.94157 10.96543,-16.49977 z M 555.59404,371.5852 h 58.50441 c -0.77605,-8.84029 -3.03655,-15.45367 -6.71415,-19.87368 -5.63457,-6.84974 -12.98986,-10.2913 -21.99814,-10.2913 -8.16523,0 -15.01419,2.7331 -20.58122,8.1992 -5.53331,5.46629 -8.60367,12.78812 -9.2109,21.96578 z M 67.871931,589.75881 c 0,-24.02406 6.478156,-42.85192 19.400383,-56.44986 12.922226,-13.59794 29.589506,-20.37978 50.035556,-20.37978 13.39465,0 25.43966,3.20546 36.20265,9.58248 10.72909,6.37728 18.92796,15.28494 24.56244,26.72342 5.63457,11.40458 8.46859,24.36152 8.46859,38.83673 0,14.67758 -2.96919,27.83679 -8.90729,39.41009 -5.93819,11.6073 -14.33914,20.38005 -25.2034,26.31861 -10.8978,5.97211 -22.63919,8.94148 -35.22426,8.94148 -13.66436,0 -25.84445,-3.30665 -36.60717,-9.88639 -10.72936,-6.57938 -18.894326,-15.55485 -24.427631,-26.95943 -5.533306,-11.37093 -8.299868,-23.41678 -8.299868,-36.13735 z m 19.838904,0.33754 c 0,17.44432 4.68972,31.17708 14.069435,41.19828 9.37944,10.02157 21.15473,15.04885 35.32516,15.04885 14.44068,0 26.28324,-5.06119 35.62905,-15.18367 9.31217,-10.12248 13.96825,-24.49642 13.96825,-43.12192 0,-11.77575 -1.9907,-22.06705 -5.972,-30.8398 -3.98131,-8.77275 -9.81823,-15.58849 -17.47714,-20.41368 -7.69263,-4.82519 -16.29603,-7.25456 -25.84454,-7.25456 -13.5631,0 -25.23704,4.65637 -35.02155,13.96912 -9.784593,9.31275 -14.676665,24.83397 -14.676665,46.59738 z M 228.97821,660.31261 V 555.24109 h 15.99258 v 14.91376 c 7.69264,-11.4383 18.82679,-17.14068 33.36837,-17.14068 6.34326,0 12.14628,1.14728 17.4435,3.40783 5.29696,2.26064 9.27827,5.26374 11.90993,8.94157 2.63166,3.67791 4.48755,8.06429 5.5333,13.12548 0.64115,3.30674 0.9784,9.07666 0.9784,17.3095 v 64.51406 H 296.3899 v -63.83924 c 0,-7.25429 -0.67478,-12.68676 -2.05806,-16.26341 -1.38328,-3.57664 -3.8464,-6.44456 -7.35529,-8.6042 -3.50888,-2.12582 -7.65899,-3.20546 -12.38235,-3.20546 -7.55773,0 -14.06943,2.39573 -19.5691,7.22083 -5.4994,4.79129 -8.23223,13.93522 -8.23223,27.36434 v 57.32714 z m 99.22797,2.42937 42.10694,-149.81281 h 14.33941 L 342.5456,662.74198 Z m 65.96096,-72.98317 c 0,-24.02406 6.47807,-42.85192 19.4003,-56.44986 12.92223,-13.59794 29.5895,-20.37978 50.03555,-20.37978 13.39466,0 25.43966,3.20546 36.20266,9.58248 10.72908,6.37728 18.92795,15.28494 24.56252,26.72342 5.63449,11.40458 8.46859,24.36152 8.46859,38.83673 0,14.67758 -2.96928,27.83679 -8.90738,39.41009 -5.9381,11.6073 -14.33914,20.38005 -25.20331,26.31861 -10.89789,5.97211 -22.63928,8.94148 -35.22425,8.94148 -13.66437,0 -25.84455,-3.30665 -36.60727,-9.88639 -10.72936,-6.57938 -18.89432,-15.55485 -24.42763,-26.95943 -5.5333,-11.37093 -8.29978,-23.41678 -8.29978,-36.13735 z m 19.83882,0.33754 c 0,17.44432 4.68972,31.17708 14.06943,41.19828 9.37944,10.02157 21.15482,15.04885 35.32516,15.04885 14.44068,0 26.28325,-5.06119 35.62914,-15.18367 9.31217,-10.12248 13.96817,-24.49642 13.96817,-43.12192 0,-11.77575 -1.9907,-22.06705 -5.97201,-30.8398 -3.98131,-8.77275 -9.81823,-15.58849 -17.47714,-20.41368 -7.69254,-4.82519 -16.29602,-7.25456 -25.84454,-7.25456 -13.5631,0 -25.23695,4.65637 -35.02154,13.96912 -9.78451,9.31275 -14.67667,24.83397 -14.67667,46.59738 z m 145.51857,70.21626 v -91.30476 h -15.78997 v -13.76676 h 15.78997 v -11.13485 c 0,-7.05183 0.60724,-12.28184 1.85571,-15.68976 1.7208,-4.58883 4.68999,-8.3342 9.00855,-11.20212 4.28483,-2.86819 10.3242,-4.28519 18.08437,-4.28519 5.02725,0 10.56055,0.60727 16.63355,1.78819 l -2.66529,15.58858 c -3.71133,-0.64091 -7.18657,-0.97855 -10.49301,-0.97855 -5.3985,0 -9.211,1.14728 -11.4715,3.44183 -2.22677,2.29428 -3.34034,6.57947 -3.34034,12.85548 v 9.61639 h 20.44632 v 13.76676 h -20.2437 v 91.30476 z m 52.59994,0 v -91.30476 h -15.78996 v -13.76676 h 15.78996 v -11.13485 c 0,-7.05183 0.60724,-12.28184 1.85562,-15.68976 1.72081,-4.58883 4.68999,-8.3342 9.00855,-11.20212 4.28493,-2.86819 10.32429,-4.28519 18.08438,-4.28519 5.02733,0 10.56055,0.60727 16.63355,1.78819 l -2.6653,15.58858 c -3.71132,-0.64091 -7.18648,-0.97855 -10.49301,-0.97855 -5.3984,0 -9.2109,1.14728 -11.4714,3.44183 -2.22687,2.29428 -3.34044,6.57947 -3.34044,12.85548 v 9.61639 h 20.44641 v 13.76676 h -20.2437 v 91.30476 z"
     style="fill:#ffffff;fill-rule:evenodd;stroke:#ffffff;stroke-width:4;stroke-linecap:butt;stroke-linejoin:miter;stroke-dasharray:none"
     id="path2" />
</svg>
