<svg xmlns="http://www.w3.org/2000/svg" viewBox="0 0 725.669 725.669"><g fill-rule="evenodd"><path d="M202.533 120.615c2.648-2.934 4.938-3.605 8.91-3.854 3.35-4.793 10.572-8.53 15.613-10.978 1.847-.896 3.672-1.838 5.517-2.739 4.992-2.437 9.593-4.193 15.068-5.043a2.008 2.008 0 011.19-.912c.228-.078.468-.117.713-.112 9.414-4.956 25.267-5.384 34.997-1.658 6.01 1.233 12.772 2.972 17.07 7.646 1.912 2.079 3.24 4.552 4.389 7.113.959 2.139 1.821 4.342 2.676 6.542l.277-.365 1.07 3.798.384.96-.078.104c.866 2.933 1.892 5.835 2.883 8.725 1.232 3.589 2.441 7.186 3.432 10.85 2.281 8.443 3.408 17.312.363 25.51l.635-.106-2.285 3.724-.445.82-.064.01-.123.2a34.435 34.435 0 014.31 1.69c1.836.86 3.581 1.863 5.372 2.808 3.163 1.67 5.89 2.718 9.484 3.062l2.774.11c6.221-.155 12.251-.964 18.49-.54 6.04.412 12.359.815 18.365-.141 2.07-.93 4.088-1.934 6.048-3.081 1.197-.701 2.382-1.49 3.622-2.108 1.642-.817 3.29-1.227 5.093-1.521 3.019-.493 6.213-.707 9.282-.91l.091-.336c.856-3.14.79-2.54-.824-4.637-.005 0-.01-.003-.016-.004l-.002.002c-.9.52-1.915.25-2.566-.442-.092-.1-.184-.199-.278-.297a45.432 45.432 0 00-1.602-1.579c-3.894-3.693-3.98-8.792-1.219-13.066 1.16-3.773 2.58-7.282 4.227-10.87 1.343-2.926 2.717-5.809 3.938-8.79.711-3.073 1.85-6.008 3.036-8.924 1.099-2.7 2.27-5.429 3.058-8.239 1.96-6.988 1.694-10.827 8.73-14.36 5.312-5.544 8.632-5.98 15.732-8.436l.235-.081.248-.022c2.383-.21 4.746-.503 7.115-.834 1.957-.273 3.912-.567 5.878-.766 5.544-.561 10.495-.089 15.965.928l.043.008c7.216 1.505 14.511 2.773 21.346 5.64 2.626 1.1 5.005 2.456 7.514 3.772 3.118 1.635 5.86 2.691 9.336 3.293 2.755.02 5.527.242 7.914 1.753 1.453.92 2.738 2.256 4.042 3.381 2.715 2.342 5.622 4.52 8.414 6.776 7.194 5.812 10.755 10.967 12.9 20.007 8.301 7.1 6.318 23.311 2.062 32.1-2.254 4.654-5.6 8.686-8.108 13.198-2.6 4.68-3.844 9.162-2.924 14.508 2.246 6.009 4.144 12.056 4.54 18.5.208 3.367.015 6.714-.326 10.065-.436 4.275-1.074 8.552-1.662 12.81-1.467 10.61-3.203 29.797-10.603 37.93-.077.915-.13 1.824-.173 2.747-.042.886-.094 1.685-.734 2.384-.474.517-.927.636-1.527.884a6.18 6.18 0 00-.463.216c.363 1.355.782 2.707 1.376 3.966.775 1.642 1.682 3.239 2.471 4.89 1.473 3.082 3.098 7.366 3.849 10.694 2.345 10.4 1.865 18.058-3.816 26.946l1.054 4.657c1.591 4.677 9.147 12.472 12.41 16.494a25.355 25.355 0 012.464 3.653c4.085 7.346 4.59 16.454 4.52 24.683-.041 4.864-.315 9.728-.312 14.591.002 3.838.153 8.174 1.258 11.869.137.46.493 1.625.85 2.485.177-.025.368-.026.577.001 1.689.222 1.913 1.79 2.006 3.124.123 1.755.154 3.55.203 5.309l.002.059-.313 10.106-.055.214c-.246.97-.504 2.312-1.01 3.174-.24.406-.57.8-.881 1.185l-.046.23-.816 5.503-5.932 1.089-2.922.774-2.532.671-1.54.408.06-1.8-2.716-2.554c-.698 1.045-1.337 2.086-1.903 3.212l1.214.46-2.23 1.88-1.302 1.095c-.973.798-2.128 1.67-3.334 2.198l-2.094.496a3.466 3.466 0 01-1.764-.466c-1.432-.824-.931-1.322-2.759-.632l-.953.36-.855-.553c-.18-.116-.485-.314-.701-.397a2.013 2.013 0 01-1.64-1.581 2.038 2.038 0 01.457-1.734c.017-.075.03-.162.041-.255-.726-.665-1.285-1.463-1.525-2.475-.296-1.251-.013-2.465.29-3.68.336-1.344.634-2.594.77-3.982.234-2.362.322-4.716.2-7.06-.65 3.734-1.352 7.487-1.914 11.23-.337 2.253-.467 4.662-.597 6.936-.213 3.7-.347 7.41-.458 11.115-.291 9.675-.413 19.366-.469 29.045-.058 10.148-.041 20.306.125 30.453.057 3.486.128 6.974.257 10.458l3.01-4.308.334 5.809c.276 4.807.152 9.637-.03 14.445-.304 8-.902 16.483.199 24.425 1.14 8.229 5.176 29.263.154 36.653l.002.05-.348.42c-.052.065-.106.129-.16.192-1.178 1.42-1.902 2.935-2.17 4.766-.352 2.4.104 5.093.46 7.477.502 3.363.904 6.544.661 9.96l-.049.688-.46.513c-.675.756-1.38 1.357-2.391 1.595-.432.101-.737.122-1.064.183l-.92.291-1.476.627-.122-.19c-1.121.26-2.29.452-3.38.618a74.1 74.1 0 01-6.677.704c-3.268.197-9.7.428-12.76-1.636-.352.133-.74.169-1.125.088-1.847-.387-1.613-1.758-1.568-2.917.045-1.15.043-2.307.032-3.457-.037-3.958 1.072-7.554 4.265-10.066 1.031-.812 2.157-1.414 3.347-1.956.35-.16.775-.33 1.182-.514a86.47 86.47 0 00-.004-.51c-.703-.3-1.227-.956-1.576-1.691-.483-1.015-.803-2.274-1.063-3.365-.527-2.206-.674-4.167-.733-6.416-.07-2.63-.272-4.6-.968-7.018l-.56-.222.146-1.107-1.174-3.642 1.574.625.595-4.505c.81-10.294.828-20.871.745-31.195-.078-9.77-.333-19.538-.608-29.304-.342-12.162-.7-24.305-.725-36.475-.015-7.41.065-14.859.454-22.26.164-3.11.382-6.229.733-9.324.273-2.4.62-4.878 1.214-7.222 1.641-6.482 2.686-13.401 3.575-20.025 1.167-8.697 2.025-17.464 2.637-26.217.727-10.408 1.159-21.027.826-31.458-.13-4.093-.377-8.253-.948-12.31-.277-1.974-.67-4.305-1.331-6.344l-.47.138-.274-2.039-.832-1.84.561-.165-.606-4.5-1.52-.269-1.987.08.022-.46c-3.984-.855-8.15-2.22-11.891-3.566-3.554-1.278-7.196-2.733-10.551-4.472-1.787-.926-4.824-2.563-5.893-4.551l-.144-.016-.392-.317a2.616 2.616 0 01-.091-.074c-1.052-.851-2.27-1.71-3.55-2.178-.824-.302-1.635-.396-2.48-.592-1.448-.337-2.537-.94-3.65-1.928-1.484-1.32-2.832-3.153-3.984-4.857a628.127 628.127 0 01-9.598-1.328c-7.878-1.138-15.828-2.398-23.756-3.102-10.53-.934-26.6 1.074-36.03-3.926l-22.587 3.607c-4.543.934-9.107 1.417-13.729 1.731-7.325.499-14.529.677-21.813 1.792-9.401 1.44-18.129 4.246-26.766 8.214-1.181.543-2.503 1.186-3.554 1.96-.49.362-.899.805-1.383 1.156-1.137.824-2.868 1.015-4.34 1.137a6.96 6.96 0 00-.542.64c-.264.36-.373.603-.787.89-.543.374-.961.36-1.547.467-.952.172-1.94.47-2.862.755-3.935 1.215-7.675 1.736-11.773 1.893-2.622.1-5.567.006-8.124.584-2.373.537-4.197 1.656-5.94 3.34-2.81 2.715-5.148 6.632-7 10.09-1.03 10.998-1.88 22.045-2.296 33.084-.287 7.596-.372 15.228-.026 22.823.24 5.273.703 10.507 1.448 15.732.59 4.135 1.36 8.222 2.12 12.326.814 4.39 1.561 8.756 2.069 13.195.658 5.77.928 11.555.945 17.326l2.358 118.356.051.007-.016 1.75.046 2.324-.067-.009-.244 26.762-2.242-.275a17.485 17.485 0 00-1.861-.141c-.439-.007-.852.006-1.288-.08-.672-.132-1.38-.54-2.033-.967l-3.407 7.788-1.563-.276c-1.036-.184-2.296-.364-3.503-.685l-2.135-.8c-.527-.283-.996-.625-1.37-1.046-.794-.893-1.14-1.986-1.39-3.13a40.414 40.414 0 01-.293-1.476c-.425.207-.834.372-1.187.444-.726.147-1.406.048-2.124-.074-1.052-.177-2.09-.36-3.148-.507l-1.633-.227-1.701-27.53-2.404 2.303 2.114-7.002-.036-.573.267-.256c.179-.777.276-1.663.358-2.408.19-1.715.299-3.45.387-5.172.264-5.129.329-10.295.356-15.43.073-14.19-.234-28.421-.654-42.605-.405-13.685-.936-27.383-1.686-41.054-.28-5.124-.589-10.252-.992-15.367-.22-2.788-.428-5.768-.865-8.55a155.452 155.452 0 01-1.997-2.489c-.153-.192-.443-.593-.635-.745-.203-.16-.612-.346-.843-.468a62.866 62.866 0 01-2.895-1.621c-1.12-.665-2.322-1.104-3.47-1.827-1.579-.995-2.876-2.236-3.99-3.683-.61.18-1.218.439-1.5.82-.404.545-.738 1.305-1.13 1.902-.859 1.31-1.951 2.39-3.175 3.36l-.953.758-1.114-.49c-3.686-1.625-7.291-3.762-9.09-7.533-1.145-2.402-1.408-5.108-1.557-7.731-.193-3.404-.262-6.743-.622-10.145-1.09-10.288-1.08-20.416.226-30.686.829-6.518 1.41-12.987 2.026-19.52.346-3.685.716-7.537 1.913-11.057.982-2.889 2.483-5.438 4.207-7.94 2.612-3.793 5.61-7.457 8.492-11.05l.517-.644 6.99-.821 2.606-1.89c-.281-1.79-1.11-3.755-1.728-5.345-1.123-2.889-2.107-5.663-2.435-8.772-.35-3.319-.276-6.911-.191-10.249.08-3.126.232-6.245.355-9.368-2.441-3.337-3.578-6.03-4.187-10.23-.357-2.462-.677-4.175-1.638-6.23l-.505.089-.303-1.642-1.214-2.187.784-.138-2.621-14.19c-3.175-3.2-3.63-7.018-4.337-11.097l-1.095.854.389-4.3-.229-.94.338-.263.153-1.695c.311-4.443.188-8.995-.018-13.44-.239-5.143-.625-10.281-.97-15.418-.429-6.407-.83-12.872-.763-19.295.055-5.234.404-11.058 1.928-16.102l2.382-29.543-.156-.107.26-1.193.27-3.336.4.275 5.312-24.29zm308.887 30.018l-.358-.252c-.41.315-.857.599-1.233.833-1.116.697-2.047 1.574-3.011 2.457l-.317.29 3.313 6.415c1.26-.579 2.22-1.398 3.263-3.273zm-291.728 123.84c-1.098.808-2.075 1.757-2.79 2.902-1.87 2.997-2.114 7.843-2.336 11.283-.337 5.241-1.196 9.567-2.778 14.546-.735 2.31-1.45 4.53-2.058 6.796.998-.08 2.202.06 3.014.11.907.057 1.813.106 2.72.142.302-2.55 1.38-5.072 3.436-6.604.642-1.807 1.423-3.429 2.136-5.214.24-.6.43-1.182.581-1.759l-1.9 1.394 2.444-6.171.013-.632.327-.24c.5-1.322 1.058-3.064.997-4.363-.031-.654-.204-1.048-.636-1.53-.468-.523-1.02-.98-1.5-1.503-.774-.845-1.332-1.754-1.675-2.852-.59-1.883-.437-4.13.006-6.305zm178.943-94.713c.135.15.273.292.4.423.301.31.614.61.934.903.167-.349.35-.68.518-.977l.788-7.572-.993-.061c-.174 1.535-.328 3.363-.794 4.834-.26.823-.567 1.63-.853 2.45zm78.99-18.168l-3.448-.22.068.5-2.708-.67-1.467-.093-.042-.31a31.452 31.452 0 01-1.087-.34 12.551 12.551 0 012.146 2.217h.006l.076.109c.172.23.342.472.51.727.108.156.216.316.316.482l.197.3c.335.178.653.363.898.503.434.247 1.003.627 1.455.819.61.258 1.693.466 2.348.642 4.505 1.206 9.509 2.29 14.198 2.249 2.871-.026 5.212-.53 7.973-1.182 1.766-.417 3.428-.752 5.17-.926l.036-4.027 1.295-.486c1.57-.59 2.776-.91 3.786-1.312l-4.915-5.257c-.456.15-.944.197-1.469.077-1.348-.306-1.978-1.457-2.319-2.68l-.067-.018-.015-.095c-.38-.15-.757-.31-1.117-.458l-.167-.068c.778 2.122 1.211 4.38.52 6.18-.408 1.065-1.132 1.848-2.096 2.435-.227.139-.516.27-.784.403l-.032.705-.791.103-3.484 5.001.197-4.236c-.11.034-.218.068-.323.098-1.563.463-3.089.795-4.719.924-2.408.19-3.846.182-6.214-.4-.292-.073-.662-.167-1.02-.237-.393.135-.821.156-1.235.064a2.519 2.519 0 01-.596-.21l-.379-.019-.062-.278a2.065 2.065 0 01-.639-1.017zm-41.527-18.146a14.22 14.22 0 013.96.837c3.042 1.113 5.853 3.322 8.504 5.157 3.746 2.594 7.45 4.745 11.54 6.624-2.167-1.405-4.247-2.928-6.42-4.324a45.44 45.44 0 00-1.769-1.083l-.454.326-.96-1.104-2.54-1.348.833-.599c-1.29-1.449-2.537-2.773-4.048-4.147l-.3-.027-.388-.587-4.408-3.897 2.353.213c-1.477-3.332-1.858-6.468-2.573-10.575l-.399-2.289 2.323-.073c2.415-.076 4.744.066 7.14.345 1.113.13 2.246.294 3.375.397.008-.06.019-.119.03-.18.14-.702.48-1.25.8-1.875.432-.845.757-1.717 1.035-2.625.117-.386.16-1.087.222-1.507.155-1.03.397-2.01.828-2.963a8.712 8.712 0 011.2-1.937c-2.511-.185-4.676-.711-7.165-1.777-.947-.406-1.684-.69-2.411-1.085-1.616.901-3.288-.666-4.337-1.762-1.092-1.14-2.775-3.052-1.398-4.665.156-.183.323-.328.497-.44-1.627-.162-3.603-.244-4.316-.282-.978-.052-1.958-.107-2.936-.136l-.158-.005c-.271.449-.663.83-1.166 1.182-1.481 1.038-3.92 1.782-5.753 2.29-1.329 1.157-2.313 2.535-2.582 4.33-.301 2.01.33 4.224 1.015 6.097.943 2.58 2.18 5.072 3.235 7.61 1.244 2.99 2.309 6.127 2.477 9.387l.157 3.078-1.332-.503c2.297 1.851 4.494 3.275 6.289 3.922z" stroke="#000"/><path d="M205.792 336.571c-1.963 3.765-1.383 4.357-4.348 5.972-1.036 9.925 1.964-3.025 2.06 12.193l2.357 51.143 1.307 23.296c1.358 3.052 1.522-2.879.876 4.483-.499 5.679 1.85 2.363-1.928 4.809 2.534 14.966 6.366 121.356 2.997 132.516l2.602-2.493 6.404 3.695 6.71 2.047 2.774-.082 8.892 1.21-2.393-120.082c-.119-39.873-11.878-33.738-4.213-115.119l-.905-4.801-7.95 2.55c.07 15.053.08 17-8.041 24.87-4.046-5.303-2.401-18.793-7.2-26.207z" fill="#edd9b4" stroke="#edd9b4" stroke-linecap="round" stroke-linejoin="round"/><path d="M280.651 158.94c-2.011 4.625-2.135 3.361-6.163 6.724-.122.102-.45.368-.563.471-6.576 5.96.238 6.13-6.412 11.726-3.534 2.975-7.688 4.18-11.54 7.078-4.466 3.36-7.132 4.945-3.665 11.784-12.022.948-12.16.772-16.071-7.268 2.145-3.64.67-3.552 5.55-4.704-6.301-1.187-8.878-1.583-16.693-1.38-6.285.161-11.843.068-17.042-2.712l-5.77-.775c-4.543-2.688-6.59-2.974-10.968-4.421 1.462 4.194 2.983 7.155 4.464 11.028 2.237 1.623 6.363 9.658 8.935 12.588 3.286 3.743 10.11 9.073 11.477 11.587l8.812.1c13.79 1.93.42 7.824 22.533 8.167l3.286-.346 2.239.468 5.328-.011 8.642-1.921c4.336-1.835 7.965-3.476 10.618-5.263 4.264-7.647 5.595-2.742 10.95-11.235 7.371-11.696 12.698-9.122 17.831-19.363 3.433-6.847-.288-11.205 7.181-12.45 8.329-15.313-1.6-34.272-5.499-48.108-9.271 12.237 7.297 13.988-.286 29.692-7.813 2.46-11.048.172-12.516-6.682-2.116 2.834-4.245 4.536-7.544 8.138-2.93 3.198-5.737 4.454-7.114 7.089z" fill="#302f36" stroke="#302f36" stroke-linecap="round" stroke-linejoin="round"/><path d="M494.079 268.291c-1.048.879-.97.977-2.843 1.998-3.577 1.951 5.704-1.255-2.463.66l3.129 14.06c6.063 3.134 2.97 2.286 5.942 7.23 2.364 3.933 1.566 2.172 4.658 5.499-2.061 12.984-9.035 16.656-8.319 31.884l-.085 5.617c4.02 6.58-.726 48.026-.863 55.123-.362 18.782 4.152 40.23 1.028 58.62-2.374 13.98-8.702 105.384-2.788 113.868l.907-22.556c-.874 1.46-3.323-.605 2.942 4.95.456.405 1.07.837 1.624 1.229 0-8.598 1.604-12.425 1.465-21.119-1.303-9.361-1.206-82.951.702-95.677.867-5.779 4.357-23.991 3.884-25.33l1.221 8.18c.892-1.377.85-.834 1.551-3.487.755-2.86.094-.397-.159-2.865l.546-16.68c.817-11.313.501-23.251.429-34.636-.055-8.765-.375-8.219 1.996-14.706 1.716-4.692.764-10.583 5.308-9.018l-1.264-5.588c5.482-8.23 6.467-15.193 4.003-26.116-.68-3.017-2.523-7.804-3.7-10.268-2.434-5.093-2.861-4.723-4.35-10.656-2.913-3.285-6.507-9.405-8.858-12.53z" fill="#f4ebe2" stroke="#f4ebe2" stroke-linecap="round" stroke-linejoin="round"/><path d="M482.936 339.995c6.663 14.75 1.678 76.813-4.018 99.312-3.621 14.302-2.082 58.134-1.615 74.729.498 17.709 1.197 43.729-.147 60.767l2.806-1.113c.237.395.466.951.624 1.233.153.271.442.86.626 1.174l3.042 4.04c3.773-1.463 5.169-4.804 6.252-9.206 2.17-8.821-1.137 7.609.532-2.89.01-.067.343-4.43.437-5.192-5.914-8.483.414-99.886 2.788-113.867 3.124-18.39-1.39-39.839-1.028-58.62.137-7.097 4.884-48.544.863-55.123-3.638 4.04-3.225 2.411-11.162 4.756z" fill="#e8d6b9" stroke="#e8d6b9" stroke-linecap="round" stroke-linejoin="round"/><path d="M248.64 107.493c-10.383 3.697-14.383 10.367-25.145 11.019.349 3.253 3.315.624-3.168 4.71-2.239 1.412-3.378 1.757-7.013 2.196-3.065 6.447-2.884 4.472-6.825 8.724-3.459 3.733-4.75 5.575-6.914 9.887-6.512 12.978-.186 17.347 3.613 23.901 3.77.802 4.724 1.454 9.528 1.696 2.494-13.125 10.907-21.687 24.287-26.692 6.087-2.277 5.222-.865 10.376-.653 12.384.51-3.67-3.423 21.064.371 10.364 1.59 4.173-1.822 10.595 3.51 2.052-2.215 3.027-3.165 5.063-5.449.693-.777 1.176-1.421 2.152-2.434 6.418-6.661-3.84 3.618 1.592-1.565l1.723-1.509c4.004-6.924 4.523-10.614 4.645-19.51-3.084-.896-1.485-.319-3.942-2.164-.352-.264-3.519-3.307-4.04-3.784-2.425-2.215-2.967-3.4-7.125-3.807-.487.124-1.106.115-1.497.181-.38.064-.992.121-1.446.21-.435.084-.914.137-1.377.245l-2.494.682c-8.213 2.956 6.181-3.237-2.191 1.038-5.159 2.634-12.941 16.688-28.69 10.92 3.014-6.235-1.819-1.864 5.791-5.131 3.366-1.445 2.896-.296 6.548-2.389-1.856-.136-2.624.033-3.854-1.118-1.088-1.02-.31-.35-1.256-3.085z" fill="#2f2f34" stroke="#2f2f34" stroke-linecap="round" stroke-linejoin="round"/><path d="M382.484 231.405c2.762.392 1.211-.13 3.432 1.004-.157 5.23-9.672 37.617 2.402 46.461 4.01 2.937-4.314-2.062 2.228.853 3.516 1.566 9.316 7.457 23.766 14.013l22.075 11.856c3.572 1.534 2.577 1.849 4.95 5.015 6.462-2.085-.218-3.767 13.103 5.052 4.822 3.193 2.631.193 4.15 5.157-4.611-.778-3.624-1.304-9.645-1.959.313.273.84.209 1 .74 1.098 3.622 20.219 10.65 28.771 12.162.168-3.397-.347-2.11 1.317-4.171l-6.244-.503c-2.457-3.872-3.857-4.836-4.635-10.815.25 1.1 6.645.744-6.18 2.824-.604-3.792-1.44-5.325-1.7-5.599-.354-.374.671-1.29-3.14-1.677l-5.287-.005c-2.552-.806-2.667-1.63-4.31-3.268l.096-5.005c-.18-.272-.457-1.053-.529-.826-.07.227-.42-.7-.519-.834l-3.15-3.4c-2.414-3.37-1.142-1.238-2.14-5.289l-9.13 4.995-4.589-7.196c-2.49-.908-2.405-1.3-5.337-2.85l-.292-4.613c-3.577-1.87-2.808.53-3.644-5.093-4.394-3.065-3.8-.752-7.08-4.934-2 7.62 3.046 6.315-3.339 14.6-6.8-1.433-4.367 2.183-4.974-3.766l-4.031-4.599c-.218-.563-.397-1.137-.58-1.629-.189-.51-.396-1.129-.557-1.705l2.765-.412v-.668c-5.58-4.371-2.888.457-3.405-4.99 2.036-9.634 4.152-9.949 6.551-16.847-2.848-3.081-4.391-6.038-4.51-10.81 1.727 1.093 14.221 4.773 16.262 4.969 13.506 1.298 6.623 3.433 16.347 5.841-1.68-7.453-2.317-5.045-6.517-10.515l3.15-.893c-1.603-2.161.833-1.6-4.309-2.548-4.529-2.553-7.323-5.748-13.354-6.954l-.533 4.303c-.035-.201-.522.61-.752.939-8.686-1.565-3.856-2.774-11.598-2.018-.39.038-2.194.483-3.851.498-3.972-5.393-4.606-4.81-9.216-8.676z" fill="#826559" stroke="#826559" stroke-linecap="round" stroke-linejoin="round"/><path d="M359.685 213.49c-7.724-.677-5.859-2.022-8.263-2.535l-1.593-.037c-.19-.001-.706.114-.883.122l-2.856.174.605-7.438c8.452.99 11.294.147 15.438 5.488-1.46 1.449-1.253-1.308-2.448 4.226zm-10.007-15.9l-21.207-.526-1.375 7.148 8.75.344c-4.548 5.212-6.935-2.773-12.695 6.663 3.845 2.599 1.935.802 4.6 4.383l8.64 1.164c.53 8.455 1.167 20.423 1.481 29.935 1.673 2.975 2.913 13.215 4.535 18.56 1.965 6.476 4.006 13.354 5.81 18.994l-2.523-52.965c1.057-10.287 4.009-11.191 6.034-16.092 6.573.336 1.289-.495 3.774 2.887l5.466-2.26c1.305 2.879 1.087 3.8 2.37 6.891 7.513 18.118-.988 27.221.432 61.627.415 7.5-.374 2.98 1.909 4.401l3.057-12.097c-.418-9.617.98-14.172 6.344-19.418l.076-10.73c-6.599-1.84 1.694-6.327-2.052-17.869-1.581-4.874-7.936-10.347-10.17-14.321l1.666-5.905-1.262-3.365c2.425-2.16-3.595-1.434 4.55-2.106l3.01.858 1.333-.342 3.434-1.884 1.826 6.108c-.222.03-.613-.213-.669-.067-.072.19-.525-.495-.614-.635-.134-.209-.359-.808-.56-1.201 1.713-4.008-.549-1.917 2.71-3.747l1.533 2.982 4.593-.769.757-9.481 1.434-1.397c.11-.164.49-.59.616-.808l2.413-7.489-2.443-3.765-13.44.128c.4 3.489-.17 9.14 1.582 11.906 3.32 5.237 4.954-.192 5.672 5.521-7.162 3.803-30.672 4.232-31.397-1.261z" fill="#3a322e" stroke="#3a322e" stroke-linecap="round" stroke-linejoin="round"/><path d="M467.195 189.135c-1.046-20.205 9.18-7.368 19.383-12.342-2.15 11.502-2.98 6.592-7.828 11.271-3.571 3.448-.973 8.848-8.599 4.615.233-.325.606-.714.776-.917l5.27-7.857c-6.41-.456-1.301-.164-4.455 2.157-2.614 1.925-.272 1.766-4.547 3.073zm-32.266 17.747l1.834 2.279c2.508 1.47 2.881 1.796 5.339 2.937 4.462 2.074 2.613-.374 6.293 3.03 7.051-.858 6.027-.056 11.807.621 6.321.74 8.209-.639 13.365-1.086 7.34-.282 7.299-3.232 10.51-7.009l-3.225-1.819c-.109-.43-.471-.533-.71-.796 6.194-11.239 13.25-19.576 17.834-29.355-7.497-1.925-.209.576-3.659-3.342-20.148-.773-15.39-.852-31.128-5.969-8.171.883-6.344 5.04-9.282 12.444-5.954 15.002-5.036 14.736-15.66 19.768 1.647-1.291 6.211 5.297-3.318 8.297z" fill="#2a2d36" stroke="#2a2d36" stroke-linecap="round" stroke-linejoin="round"/><path d="M425.879 107.697c-9.671 7.876 2.525 18.342 3.09 29.355-7.72-2.913-1.992-.177-5.942-3.396-2.892-2.355-5.48-8.267-6.41-12.509-6.89-.213-1.582-.536-3.342 2.065 2.89 6.63 15.298 19.886 22.429 22.231 7.5.363 10.087 6.651 25.163 13.17 3.749 1.62 6.77 2.419 9.143 6.032 1.433 2.044-1.032.13 2.082 1.904 2.102 1.198 1.235.842 4.28 1.657 18.852 5.049 20.82.313 29.862.087l.04-4.52c4.577-1.718 6.499-1.552 8.95-6.416l-2.035-7.945-1.737-1.223c-4.52.54 1.761-1.464-2.69 1.315-4.126 2.575-5.752 6.976-6.507.799-.061-.498-.346-.724-.656-.953 3.936 3.941-1.572.381-6.18-.77 5.92 10.895.477 10.084-.465 11.437-1.726.226-3.926 1.391-7.342 1.66-2.322.184-3.356.197-5.575-.348-5.195-1.277-.11 1.283-3.071-1.673l-7.121-.454c-8.74-2.158-13.617-7.502-20.07-10.928-2.282-2.622-3.306-3.894-6.183-6.437-2.866-4.344-3.108-7.13-4.177-13.271 6.425-.202 9.85 1.146 13.826.776-.307.276.757 4.603-1.109-.376-.799-2.132.21-1.452 1.528-5.765.528-1.726-.31-6.63 7.02-8.757-4.685-.49-7.485.522-13.069-1.87-2.612-1.118-2.49-1.048-3.418-1.79-10.63-8.497 3.93 7.468-2.243-2.75-1.428-2.363 5.52-3.193-6.992-3.854-9.933-.525.898.25-11.079 3.517z" fill="#2c2e39" stroke="#2c2e39" stroke-linecap="round" stroke-linejoin="round"/><path d="M309.447 284.746c-1.943-5.476-1.844 1.159-3.226-7.093 3.384-1.968 3.057-1.746 8.8-.92-1.417 3.9-2.52 5.239-5.574 8.013zm-5.042-11.728c5.73-6.898 3.8-5.244 7.087-4.977 4.874.395 4.029 2.601 4.602 6.362-5.81 1.085-7.838.077-11.69-1.385zM277.56 248.98c-1.055 2.563-2.309 3.897-5.058 6.457-3.869 3.603-3.456 2.63-6.43 7.17 13.148-2.317 15.344-10.597 29.688-12.13 8.073-2.1.81-5.172 15.406-4.876-5.444 8.597-.084 12.75-7.307 19.697-13.217 12.714-5.113 10.63-12.81 16.982l-2.743 7.668c.198.336.878.098 1.046.524l3.252.705c9.493-.66-4.42-3.404 9.088-1.57 2.492.339-1.819 2.089 5.694-.188 10.245-3.105 10.83-14.294 18.084-10.212 1.832-8.598 7.233-15.09 6.246-22.396-.491-3.639-2.152-7.27-3.167-12.491-.558-2.869-1.207-9.174-1.808-13.015-.195-.122-.571-.475-.634-.272-.14.454-.477-.216-1.314-.571l-2.315-.97c-3.938-1.62-4.943-1.606-8.324-3.335-1.707 10.528-5.392 7.558-16.443 15.931l-13.964 7.648c-4.268-2.158-3.152-3.97-6.187-.756z" fill="#826658" stroke="#826658" stroke-linecap="round" stroke-linejoin="round"/><path d="M308.46 226.613c-15.471 5.973-16.8 11.51-24.637 15.575-4.355 2.26-8.905 3.24-12.684 5.855-4.12 2.852-4.99 5.2-9.028 8.37-11.989 4.38-12.528 10.213-19.196 12.025l-1.54-.055c-1.302 6.27.389 1.416-2.505 6.814 5.167-1.894 9.863-6.18 14.485-10.818 5.18-6.603 6.109-3.43 12.455-7.666 4.436-2.962 6.22-5.722 11.75-7.734 3.036-3.214 1.92-1.402 6.188.756l13.964-7.648c11.052-8.373 14.736-5.403 16.443-15.93 3.381 1.727 4.386 1.714 8.324 3.333l2.315.971c.837.355 1.175 1.025 1.315.571.062-.203.438.15.633.271.6 3.842 1.25 10.147 1.808 13.016 1.016 5.22 2.676 8.852 3.168 12.49.986 7.307-4.415 13.799-6.247 22.397-7.254-4.082-7.839 7.107-18.084 10.212-7.513 2.277-3.202.527-5.694.188-13.508-1.834.405.91-9.088 1.57l-3.252-.705c-.168-.426-.848-.188-1.046-.524l-3.276 1.051-.835 3.22-.015 7.247c-3.165.93-5.614 1.096-9.402 2.45-5.448 1.947-5.834 1.7-7.632 6.873 5.07-4.277 14.809-7.72 22.782-6.393l1.841-3.338c4.483-6.354 16.5-6.678 24.774-6.29 2.392-5.745-.802-6.459 6.462-7.927 3.111-.628 7.877 1.544 11.682-11.146l1.838-3.998c1.672-4.973.122-6.725.907-12.806l.44-12.189c-.315-9.512-.952-21.48-1.481-29.935l-8.64-1.164c-10.048 3.019-4.55 1.863-9.988 6.565-2.324 2.01-5.928 3.654-9.304 4.446z" fill="#765c56" stroke="#765c56" stroke-linecap="round" stroke-linejoin="round"/><path d="M426.005 215.713c.184.35.43.822.546 1.052 2.183 4.342 3.41 5.628 2.037 8.905l-2.115 3.58c-3.695-.303-9.123-1.9-11.529-4.112-.22-.203-.59-.542-.77-.76-.166-.205-.475-.598-.595-.815-3.06-5.493 1.594.29.994-9.753 2.397.595 4.705 1.164 6.998 1.48 4.717.653-1.035-1.195 4.434.423zm-28.493 5.816l-10.303-3.219c1.191 4.1.52 2.717 4.9 4.89 2.369 1.174 4.121 1.682 6.493 2.803 3.934 1.86 10.21 4.448 13.12 6.57 6.031 1.207 8.825 4.402 13.354 6.955 3.695-11.771 8.279-3.52 20.301-5.945-.078.28-1.658 6.529-1.663 6.564.149-.348.419-.828.55-.996 4.745-6.051 14.63-1.746 17.77 9.063 1.329 4.575.369 3.92 2.762 7.626l-5.966 1.736c1.405 2.865 1.276 2.384 2.046 5.77.69.237 8.037 4.16 8.707 4.659 4.69 3.5 2.691 4.298 5.565 7.177 3.21-1.09 4.291-2.345 6.065-4.053l-2.5-2.074c-.2-.175-.713-.643-.895-.805a47.296 47.296 0 01-.913-.838c-4.142-.014-.275.431-1.89-2.118l1.425-9.278-2.766-5.601c-1.452-3.36-.132-.35-1.585-3.55l-2.938-7.744c-.048-.425-.266-.55-.473-.767-7.91-.176-3.575-1.048-7.33-2.202-8.093-2.485 2.613.69-6.034-1.018-.296-3.487 1.142-9.909 3.984-10.47-9.244-3.16-13.43-2.774-19.334-8.81l4.422-.882c.28-.021 3.385.17 4.01.156-3.68-3.404-1.832-.956-6.294-3.03-2.458-1.141-2.831-1.467-5.339-2.937-.717 1 .345 4.718-8.866.34-2.486-1.181-18.863-10.972-22.196-7.552l-1.35 11.739c.745 2.955 5.306 5.581 5.054 10.336-3.394 1.382-8.843-1.145-11.893-2.495z" fill="#4a3d39" stroke="#4a3d39" stroke-linecap="round" stroke-linejoin="round"/><path d="M398.102 270.33c7.838-.892 6.944-1.401 10.489 4.848l-7.084.142v.669l6.963.935c-.683 4.275-1.642 4.6-4.56 7.41.607 5.948-1.825 2.333 4.974 3.766 6.385-8.285 1.34-6.98 3.34-14.6 3.28 4.182 2.685 1.869 7.08 4.934-.138-1.11-.99-5.674-1.003-6.128-.107-3.83-1.002-2.115 1.323-3.93 5.436-2.072 2.003-.094 3.039-3.447l-4.838.894-2.463-5.062-4.53.999-2.742-6.479c5.009-2.27 10.203-4.102 14.862-1.22 6.239 3.86 3.466 7.774 5.688 14.345 5.085-.732 5.509 1.502 10.168 3.782l-.539.23 1.215-6.013c11.85-.941 14.204 2.53 14.892 12.333l-5.319-2.292c-6.838 4.87 2.15 2.667-7.712 4.39l10.814 7.64-2.706 6.197 3.952.804-.589 6.188c-2.391 2.235-.566.697-4.183 1.875l-.096 5.005c12.505-.23 11.807-.454 9.593-11.672l13.136 12.648 4.925-.488c-2.075-7.646-5.716-17.033-12.345-19.6 1.466-7.399 5.505 7.64-4.717-16.058-.147-.342-.362-1.27-.42-1.036-.056.228-.332-.831-.405-1.005a843.154 843.154 0 00-1.164-2.684l-5.992-4.962c-4.594-2.117-5.994-4.92-9.904-8.77l.217-7.172c-4.941-1.562-6.481-3.686-12.076-5.67l-3.15.893c4.2 5.47 4.837 3.062 6.517 10.515-9.724-2.408-2.841-4.543-16.347-5.841-2.04-.196-14.535-3.876-16.263-4.969.12 4.772 1.663 7.728 4.511 10.81-2.399 6.898-4.515 7.213-6.55 16.846z" fill="#937364" stroke="#937364" stroke-linecap="round" stroke-linejoin="round"/><path d="M430.53 92.147c-7.535 2.607-10.102 2.792-15.177 8.178-3.56 7.301-5.378 15.404-3.807 22.887h1.73c1.76-2.601-3.549-2.278 3.34-2.065.932 4.242 3.52 10.154 6.41 12.51 3.95 3.218-1.777.482 5.943 3.395-.565-11.012-12.761-21.478-3.09-29.355 0-7.88 17.792-6.257 26.273-6.18 3.363.516-.393-1.832 4.125 3.327l4.31 6.358c2.656 2.57 9.794 4.207 14.339 6.03 9.494 3.809 18.286 9.848 27.547 14.867 1.572-3.356.13-2.01 1.257-4.425.032-.067 1.06-1.698 1.337-2.367l.715-2.196c.086-.257.268-.82.291-1.246-9.792-1.056.416 1.255-4.474-3.729-1.553-3.517-23.78-14.456-27.282-15.655-16.234-5.562-23.12-3.86-41.188-3.851l8.29-3.148c3.287-.865 6.272-1.11 10.2-.85 7.245.48 14.14 2.126 20.702 3.87 18.295 4.863 25.934 13.118 33.939 15.297-1.437-4.37 1.286.014-1.442-3.095-.603-.687-1.866-1.53-2.579-2.102-2.462-1.968-2.995-2.271-4.865-4.407-7.87-1.324-11.028-4.527-17.454-7.222-6.599-2.768-13.485-3.962-20.978-5.525-13.272-2.465-16.519-.347-28.413.7z" fill="#3d444a" stroke="#3d444a" stroke-linecap="round" stroke-linejoin="round"/><path d="M206.943 313.014c-1.315 7.645-2.32 8.349-1.588 17.169-.268.285-.641.879-.733.917l-1.628-1.75c-5.894 1.588-1.717 1.168-3.142-2.212l-3.48 2.524c-2.51 7.553-1.989 5.599-6.854 11.308-7.86 9.225-12.885 24.105-11.866 35.562 2.725 10.399-4.225-8.269 2.304 3.416 2.978 5.331 1.705 8.316 1.937 16.723.299 10.877 4.791 21.05-1.64 19.097l.034 8.282c8.19-1.371.707.338 4.813-.246 4.23-.603-2.04 1.744 4.9-1.294-4.136-13.45-.268-24.488-3.11-40.488-1.23-6.926-.225-14.338.945-20.953 1.43-8.083 4.881-10.964 5.516-17.283.906-4.893-1.412-4.794 4.318-7.598 2.64-1.292-.852-.656 3.93-.714 3.494-.043 3.72.841 4.193 1.097 4.8 7.414 3.155 20.904 7.2 26.206 8.122-7.87 8.111-9.816 8.042-24.87l7.95-2.55c2.88-9.629-10.73-12.975-8.396-30.41-3.65 2.122-3.162 7.61-3.177 7.47-.023-.216-.016.77-.137 1.131-2.535-1.707 2.098-1-4.656-1.425-4.552-.287-1.946-.142-5.675.891z" fill="#e4c6a5" stroke="#e4c6a5" stroke-linecap="round" stroke-linejoin="round"/><path d="M267.147 310.788l-.448.683-3.631 1.1c-1.882.775-2.173-.414-2.498 5.251 4.466 2.766 3.889.882 8.952 2.321 6.322-.532 2.033-.774 9.347-4.135 27.808-12.778 43.491-7.91 62.787-11.89l23.32-3.724c-8.62-1.028-8.483-.688-17.57.016 1.704-10.764-1.647-13.218-4.392-21.584l-4.14-16.319c-.113-.386-.336-.937-.434-1.246l-1.007-2.37c-.785 6.08.765 7.832-.907 12.805l-1.838 3.998c-3.805 12.69-8.57 10.518-11.682 11.147-7.264 1.467-4.07 2.18-6.462 7.926-8.274-.388-20.29-.064-24.774 6.29l-1.841 3.338c-7.973-1.328-17.712 2.116-22.782 6.393z" fill="#65534b" stroke="#65534b" stroke-linecap="round" stroke-linejoin="round"/><path d="M403.498 170.654l-1.049 10.087 3.86 1.996c-4-10.729-1.272-1.774 2.575-5.5l1.376 6.178-3.005 2.053c3.098 3.352 5.468 7.534 9.368 9.621 3.82 2.242 6.086 4.209 10.526 6.784 1.165-12.409-.825-.357 4.19-7.176-4.167-8.773-5.638-9.52-1.367-19.437 1.725-4.007.09 2.016 1.62-4.632l.944-5.358c.133-.351.263-.784.435-1.095 1.639-2.968 6.626-3.998 10.892-4.39l-.042-1.22c-.796-.971.128-.57-2.784-2.71l-8.34-5.41c-10.121-7.236-1.08-6.456-11.165-9.228-.383-.053-.92-.19-1.132-.245l-4.312-1.312-11.866 27.91c-.004.011-.694 2.939-.724 3.084z" fill="#2c2e39" stroke="#2c2e39" stroke-linecap="round" stroke-linejoin="round"/><path d="M425.879 107.697c11.977-3.267 1.146-4.042 11.08-3.517 12.51.661 5.563 1.49 6.99 3.854 6.174 10.218-8.387-5.747 2.244 2.75.928.742.806.672 3.418 1.79 5.584 2.392 8.384 1.38 13.068 1.87-7.329 2.128-6.491 7.031-7.019 8.757-1.318 4.313-2.327 3.633-1.528 5.765 1.866 4.98.802.652 1.11.376-3.977.37-7.402-.978-13.827-.776 1.07 6.141 1.311 8.927 4.177 13.27 6.044.548 1.814-.63 6.584 1.778-.662-7.404-1.773-5.688-4.674-11.24 6.34-.237 6.032-.261 10.83 1.486l1.152-6.662c.068-.249.172-.815.393-1.158 6.478.925 5.032 2.747 9.397 3.214 2.292.245.793-1.583 5.646.286 9.054 3.488 2.702.972 3.236 3.859l2.07 1.522c14.567 11.25 15.401 10.58 14.728 25.096.942-1.353 6.384-.542.465-11.436 4.608 1.15 10.116 4.71 6.18.769.31.229.595.455.656.953.755 6.177 2.38 1.776 6.506-.8 4.452-2.778-1.83-.773 2.691-1.314-1.375-9.076-6.53-10.007-8.98-16.09-9.26-5.019-18.052-11.058-27.546-14.867-4.545-1.823-11.683-3.46-14.339-6.03l-4.31-6.358c-4.518-5.16-.762-2.811-4.125-3.327-8.48-.077-26.273-1.7-26.273 6.18z" fill="#2f303c" stroke="#2f303c" stroke-linecap="round" stroke-linejoin="round"/><path d="M248.58 99.9c5.077 6.228-.912-7.168 1.048 3.17l-21.767 8.4c-7.44 5.066-2.747-.17-4.366 7.042 10.762-.652 14.762-7.322 25.145-11.019 15.389-2.454 15.036-3.003 30.466-1.553 4.158.407 4.7 1.592 7.124 3.807.522.477 3.69 3.52 4.041 3.784 2.457 1.845.858 1.268 3.942 2.164 3.208.877 2.304-3.563 3.234 4.302.243 2.05-.386 4.71-.937 6.68-1.315 4.702-2.906 8.581-6.942 8.528l-1.723 1.508c-5.432 5.184 4.826-5.095-1.592 1.566-.976 1.013-1.46 1.657-2.152 2.434-2.036 2.284-3.01 3.234-5.063 5.448-1.833 4.662-.908 3.119-4.56 6.377-5.775-2.332 3.747-6.54-20.146-5.28-10.2.536-17.83 4.411-23.005 9.654 2.471.04 1.33.185 3.76-.505 1.112-.315 2.035-.766 3.363-1.286 2.449-.958 4.712-1.828 7.042-2.532 7.713-2.33 9.431-2.475 18.067-1.948l7.83 8.794c9.67-6.803 15.46-14.134 23.821-20.311 7.068-5.222 9.454-28.095 2.64-33.058-.22-.161-.635-.475-.884-.648-5.249-3.655-6.316-3.564-11.737-4.044l-1.26-4.114c-10.349-4.041-27.349-2.867-35.388 2.64z" fill="#677597" stroke="#677597" stroke-linecap="round" stroke-linejoin="round"/><path d="M295.483 265.91c-3.406-.716-7.228.52-4.383-5.428 1.05-2.194 2.5-2.828 5.48-3.872zm.278-15.435c-6.637 2.827-3.8-2.134-8.644 4.683-2.697 3.794-1.803 4.152-1.823 9.784-.563.274-3.985 1.626-4.579 2.007-4.642 2.98 1.586-3.68-2.833 2.707-4.378-4.274-.212-5.805-15.755-5.9-1.83 7.084-3.414 2.69-4.635 15.434 7.166-.953 2.691 1.561 6.658-2.09.788-6.168.83-8.7 7.782-7.61 1.628 5.96 1.54 6.612-2.343 11.095l-.065 4.793c-.306.2-.816.298-1.026.386l-5.014 2.59c-6.13 6.636 1.667-7.057-1.264 2.849-.084.285.06 2.163.171 2.363l6.258 3.852 1.346-4.434c4.042.925.818-.791 3.985 1.316 4.663 3.101-2.306.654 3.589 2.921l6.627-3.002.835-3.22-2.717-2.151c.106-8.474 1.368-8.221 8.737-6.569 7.696-6.351-.408-4.268 12.809-16.982 7.223-6.948 1.863-11.1 7.307-19.697-14.597-.296-7.333 2.776-15.406 4.875z" fill="#a17969" stroke="#a17969" stroke-linecap="round" stroke-linejoin="round"/><path d="M253.355 264.38c8.299-2.378 2.23-.702 4.57.914l-17.423 41.784c-3.687 8.926-.226 10.592-9.918 12.734-3.363-5.422-3.619-5.427-4.002-13.35-3.195 6.517 2.31 13.634 7.727 17.533 4.61-2.286 7.675-4.896 7.725-10.377 17.067 1.065 7.336.144 15.45-5.53 2.865 1.999 2.338 2.213 5.584 4.484l3.63-1.101c-.456-5.834-1.538-3.99-1.672-5.179-.344-3.048-.573-.552 1.297-4.545l-4.784.263c-3.32-4.971-3.22-6.601.852-8.444-.11-.2-.255-2.077-.17-2.363 2.93-9.906-4.867 3.787 1.263-2.849l5.014-2.59c.21-.088.72-.186 1.026-.386l.065-4.793c-3.985-1.341-3.31-1.782-5.439-3.484-3.967 3.65.508 1.136-6.658 2.09 1.221-12.746 2.804-8.35 4.635-15.435 15.543.095 11.377 1.626 15.755 5.9 4.419-6.387-1.809.273 2.833-2.707.594-.381 4.016-1.733 4.579-2.007.02-5.632-.873-5.99 1.823-9.784 4.843-6.817 2.007-1.856 8.644-4.683-14.344 1.534-16.54 9.814-29.688 12.131 2.974-4.54 2.561-3.567 6.43-7.17 2.75-2.56 4.003-3.894 5.058-6.457-5.53 2.013-7.315 4.772-11.751 7.734-6.346 4.237-7.276 1.063-12.455 7.666z" fill="#947365" stroke="#947365" stroke-linecap="round" stroke-linejoin="round"/><path d="M368.736 276.647l-3.057 12.097c1.276 2.243.04 2.45.556 5.85.582 3.837-2.128-.84 2.051 5.022l-3.31.778c8.69 5.083 24.903 3.048 35.838 4.02 10.168.902 22.75 3.09 34.343 4.554 6.938 10.494 6.495 3.982 13.788 9.889 6.021.655 5.034 1.181 9.646 1.96-1.52-4.965.671-1.965-4.15-5.158-13.322-8.819-6.642-7.137-13.104-5.052-2.373-3.166-1.378-3.481-4.95-5.015-6.074.155-11.901-1.793-15.54-3.034-.078-.027-.416-.105-.488-.136l-4.189-3.104c-4.953-2.62-14.61-1.82-19.66-6.467-8.289-7.628 4.877-3.647-20.867-3.578.784-4.331 2.773-9.08 2.794-14.05.015-3.764-2.034-7.368-1.997-11.75-.524 7.907-2.564 7.984-3.1 15.708-5.875.014-2.789.742-4.603-2.534z" fill="#69554d" stroke="#69554d" stroke-linecap="round" stroke-linejoin="round"/><path d="M512.648 403.928c5.324 24.029 3.52 6.281-3.679 22.1l-3.62 8.977c-.002 4.105-1.78 1.491.877 3.211 5.708-2.156 2.403 4.626 10.273-2.014-6.392-2.42-1.507 2.825-5.059-3.697 2.63-2.404 2.092-3.756 4.834-7.21 2.984-3.757 2.894-5.027 7.977-4.818-1.645-17.933 9.084-38.495 2.347-57.034-3.946 2.981-2.782.587-3.812 10.006-2.554-5.065-.996-9.773-3.963-15.734-3.057-6.144-1.781-5.607-2.165-13.04l-5.821.045c3.772 5.238 3.768 22.556 4.58 28.95 1.996 15.729-1.053 17.59-2.77 30.258z" fill="#715c54" stroke="#715c54" stroke-linecap="round" stroke-linejoin="round"/><path d="M337.873 246.701l-.44 12.19 1.007 2.37c.098.309.32.86.433 1.246l4.14 16.319c2.746 8.366 6.097 10.82 4.394 21.584 9.086-.704 8.948-1.044 17.569-.016l3.31-.778c-4.18-5.862-1.47-1.185-2.05-5.022-.516-3.4.72-3.607-.557-5.85-2.283-1.42-1.494 3.099-1.91-4.401-.215.443-.427.638-.513 1.386l-2.258 7.177c-2.261-7.035-1.856-43.38-3.891-52.066l-.863-2.72c-.11-.358-.283-.908-.508-1.325.347 5.624.028 8.884-.46 14.62-1.114 13.059-.573 10.211-5.086 13.87l-.65-34.973c.904-5.132 1.851-1.892 2.285-9.823 1.448-.279 2.251 1.69 3.677-2.404-2.485-3.382 2.799-2.55-3.774-2.887-2.025 4.9-4.977 5.805-6.034 16.092l2.522 52.965c-1.803-5.64-3.844-12.518-5.809-18.995-1.622-5.344-2.862-15.584-4.534-18.559z" fill="#4b3d36" stroke="#4b3d36" stroke-linecap="round" stroke-linejoin="round"/><path d="M282.211 209.477c.489.159 1.109.1 1.31.812l3.897 5.265c1.123 2.355.26 1.54 1.346 3.137 2.047 3.01 4.67 2.163 6.883 7.978-3.057 6.279-21.377 8.987-26.821 15.328l-9.929 5.492c-2.098.32-9.926-1.003-13.89-1.263l-.037 15.73c11.075-4.734-1.615-7.899 10.735-5.64 3.732-2.951-5.63-2.29 2.294-1.507 6.127.606-.092-.943 4.112 1.604 4.039-3.17 4.908-5.518 9.028-8.37 3.779-2.616 8.329-3.596 12.684-5.855 7.838-4.066 9.166-9.602 24.638-15.575-.26-.325-.71-1.229-.803-.955l-1.935-3.353c-.008-.037.619-4.404.826-6.299l-1.178-9.415-9.25-.703c-3.995-1.45-3.997-2.567-10.126.967z" fill="#3d3530" stroke="#3d3530" stroke-linecap="round" stroke-linejoin="round"/><path d="M190 422.51l1.24 3.717c2.881 4.355 5.797 4.957 7.634 6.048 5.599 3.324 2.65.674 7.242 6.192 3.777-2.446 1.429.87 1.928-4.809.646-7.362.482-1.431-.876-4.483-.294-.327-.647-1.33-.769-1.072-1.56 3.332.618-.481-4.168-5.641-11.534-12.437-1.418-9.12-5.29-23.537-.953-10.356-1.43-18.867-1.102-30.166.194-6.702 2.96-18.113 1.573-21.414-1.25-2.98 4.436-4.486-4.061-3.56-.635 6.32-4.086 9.201-5.516 17.284-1.17 6.615-2.176 14.027-.945 20.953 2.842 16-1.026 27.037 3.11 40.488z" fill="#65534b" stroke="#65534b" stroke-linecap="round" stroke-linejoin="round"/><path d="M277.648 211.86c4.909-1.606 1.466.438 4.563-2.383l3.784-2.622c6.13-3.534 6.131-2.417 10.126-.967l9.25.704 1.178 9.414c13.63-5.704 9.066-4.298 13.727-13.887l2.308-3.917-1.348-14.762c-1.585-2.032-2.779-3.19-4.867-4.772-4.419-3.347-4.948-.577-4.774-6.57l2.015-3.286c-7.47 1.245-3.748 5.603-7.18 12.45-5.134 10.241-10.461 7.667-17.833 19.363-5.354 8.493-6.685 3.588-10.95 11.235z" fill="#36312c" stroke="#36312c" stroke-linecap="round" stroke-linejoin="round"/><path d="M379.305 235.617l-3.756 24.693-.469-3.08c-5.364 5.245-6.762 9.8-6.343 19.417 1.814 3.276-1.272 2.548 4.603 2.534.536-7.724 2.576-7.801 3.1-15.708-.037 4.382 2.012 7.986 1.997 11.75-.021 4.97-2.01 9.719-2.794 14.05 25.744-.07 12.578-4.05 20.866 3.578 5.05 4.648 14.708 3.847 19.661 6.467l4.189 3.104c.071.03.41.11.487.136 3.64 1.241 9.467 3.189 15.54 3.034l-22.074-11.856c-14.45-6.556-20.25-12.447-23.766-14.013-6.542-2.915 1.781 2.084-2.228-.853-12.074-8.844-2.559-41.23-2.402-46.461-2.22-1.134-.67-.612-3.432-1.005z" fill="#715c54" stroke="#715c54" stroke-linecap="round" stroke-linejoin="round"/><path d="M226.787 214.538l1.789 4.447 1.181 9.333c.933 1.118.912.538 1.913 2.811.184.419.946 2.994 1.016 3.532.724 5.515.402 3.167-.602 7.843l1.844.576c3.953 4.885 4.9 15.694 5.152 21.973-6.207 2.212-9.61 3.24-11.77 6.356l5.462 3.585 6.098.203c2.894-5.399 1.203-.544 2.505-6.814l1.54.055c6.668-1.812 7.207-7.644 19.196-12.025-4.204-2.547 2.015-.998-4.112-1.604-7.923-.783 1.438-1.444-2.294 1.507-12.35-2.259.34.906-10.735 5.64l.037-15.73c3.964.26 11.792 1.582 13.89 1.263l9.929-5.492c-9.268 1.56-3.743.498-5.19-1.05-1.82.345-6.29 1.226-8.402 1.2-5.195-.066-.708-.53-5.454-1.897-9.092-5.884-9.95-5.695-11.116-16.952 5.264-1.79 6.151-.642 8.87-4.365-22.111-.343-8.741-6.237-22.532-8.167z" fill="#453935" stroke="#453935" stroke-linecap="round" stroke-linejoin="round"/><path d="M513.55 198.023c6.306 4.981-3.652 32.833-5.522 41.52l-1.95 6.355 5.776 26.426c7.06-7.007 8.812-24.75 10.55-37.324 2.605-18.85 3.653-24.133-2.508-40.565-3.74-1.623-.133-1.301-3.497.933-3.422 2.273-1.806 1.63-2.85 2.655z" fill="#f8f2e6" stroke="#f8f2e6" stroke-linecap="round" stroke-linejoin="round"/><path d="M506.158 389.495c5.288-12.314-.288-30.6 2.71-44.15 3.191-3.173 1.773-.834 2.874-6.119 5.463 2.32.609-.206 4.598 2.66l6.107 7.57c1.431 3.553 3.382 10.641 4.151 13.987 6.737 18.539-3.992 39.101-2.347 57.034l1.319 2.603 4.75 9.31 4.59-.842.612-4.125s-6.733-1.345-3.873-8.544c1.325-3.335.31-.87 2.386-2.772.686 1.14 1.271.949 1.696 3.655.436 2.78.085 4.137-.06 6.91 1.3-1.711 1.045-.94 1.82-3.99l.306-9.825c-.389-13.784-.306.457-3.553-10.398-4.24-14.178 4.013-39.836-7.563-54.104-3.467-4.273-11.162-12.25-12.79-17.22-4.544-1.566-3.592 4.325-5.308 9.018-2.371 6.487-2.051 5.94-1.996 14.706.072 11.385.388 23.323-.429 34.636z" fill="#e8d6b9" stroke="#e8d6b9" stroke-linecap="round" stroke-linejoin="round"/><path d="M454.88 163.984c-6.554 4.071-5.243 5.84-7.726 12.889l-5.194 15.78c-2.758 1.988-8.254 1.266-9.463-1.423-1.195-2.658 1.605-6.574 2.946-9.237l8.42-22.208c-4.266.392-9.253 1.422-10.892 4.39-.172.311-.302.744-.435 1.095l-.944 5.358c-1.53 6.648.105.625-1.62 4.632-4.27 9.917-2.8 10.664 1.368 19.437-5.016 6.82-3.026-5.233-4.19 7.176 4.83 3.709 1.643 3.463 7.779 5.01 9.53-3.001 4.965-9.59 3.318-8.298 10.624-5.032 9.706-4.766 15.66-19.768 2.938-7.404 1.11-11.561 9.282-12.444 2.132-1.912-2.446-2.15 6.821-1.728-2.373-3.613-5.394-4.412-9.143-6.032-15.076-6.519-17.662-12.807-25.163-13.17 2.011 6.098 4.522 6.006 10.933 9.321 5.256 2.719 5.51 3.659 12.651 6.162-2.468 2.909 3.006 2.254-4.408 3.058z" fill="#343a4a" stroke="#343a4a" stroke-linecap="round" stroke-linejoin="round"/><path d="M191.24 426.227L190 422.51c-6.94 3.038-.67.692-4.9 1.294-4.106.584 3.377-1.125-4.813.246-1.957 3.737.68.807-3.732 2.252l-.24-11.825c6.56 2.063 1.019-.172 3.938 1.291 6.431 1.953 1.939-8.22 1.64-19.097-.232-8.407 1.041-11.392-1.937-16.723-6.529-11.685.42 6.983-2.304-3.416-1.019-11.457 4.006-26.337 11.866-35.562 4.865-5.71 4.343-3.755 6.854-11.308l-6.692.787c-16.747 20.871-12.095 16.191-16.21 48.558-1.3 10.216-1.3 20.045-.222 30.22 1.44 13.609-1.487 18.68 10.077 23.775 4.993-3.965 2.076-5.592 7.914-6.775z" fill="#efe2c7" stroke="#efe2c7" stroke-linecap="round" stroke-linejoin="round"/><path d="M355.502 218.085c-1.426 4.093-2.229 2.125-3.677 2.404-.433 7.93-1.381 4.691-2.285 9.823l.65 34.973c4.513-3.659 3.972-.811 5.085-13.87.489-5.736.808-8.996.46-14.62.226.416.4.967.51 1.324l.862 2.72c2.035 8.688 1.63 45.032 3.89 52.066l2.259-7.176c.086-.748.298-.943.514-1.386-1.42-34.406 7.08-43.51-.432-61.627-1.283-3.092-1.065-4.013-2.37-6.89z" fill="#6a564e" stroke="#6a564e" stroke-linecap="round" stroke-linejoin="round"/><path d="M506.234 168.293c-9.042.226-11.01 4.962-29.862-.087-3.045-.815-2.178-.459-4.28-1.657-3.114-1.774-.65.14-2.082-1.904-9.267-.422-4.689-.184-6.82 1.728 15.736 5.117 10.979 5.196 31.127 5.969l11.714-.211 10.674-2.468c-2.209 6.748-3.807 4.105-4.307 8.966l-13.102 21.115 4.45 1.03 2.451-.194c1.266-.748.605-.659 3.172-1.501.119-.04 3.978-1 4.18-1.056 1.044-1.026-.572-.382 2.85-2.655 3.364-2.234-.242-2.556 3.497-.933-2.3-12.75 6.884-20.265 11.17-29.117 3.984-8.224 5.887-23.69-1.803-29.894 1.248 3.807 3.174 7.8 2.911 12.297-.334 5.713-2.864 6.739-5.58 9.73-9.168 10.098-5.971 7.627-20.36 10.842z" fill="#f7ebf3" stroke="#f7ebf3" stroke-linecap="round" stroke-linejoin="round"/><path d="M496.496 619.248c-2.792-4.345-2.218-7.474-.982-14.855 1.202-7.177 2.591-10.863 2.905-18.262-14.693.931-12.752-.447-22.205-4.204 2.158 6.69.676 8.866 2.017 14.482 2.422 10.148 2.634-5.312 2.706 7.236-2.329 1.531-8.887 2.304-8.801 11.314.076 7.942-.682 2.335 1.41 4.347 3.194 3.071 18.717 1.28 22.95-.058z" fill="#45454a" stroke="#45454a" stroke-linecap="round" stroke-linejoin="round"/><path d="M208.984 271.73l-4.982 9.08c-2.873 5.617-3.114 7.52-7.739 10.653-.194 5.16-.754 14.813-.201 20.04.648 6.14 4.087 10.819 4.265 15.148 3.672 1.338 3.77-2.734 2.667 2.699l1.628 1.75c.092-.038.465-.632.733-.918-.732-8.82.273-9.523 1.588-17.168 1.986-9.7 4.865-12.89 5.61-24.486.657-10.21 1.687-14.16 10.427-18.237l1.847-.601c-2.043-2.041-.35-.144-1.42-2.998-3.176-2.719-2.105-.456-2.875-5.928l-1.756 1.513c-1.866 5.644.005 2.165-3.58 5.556-.426.401-2.322 1.961-2.549 2.116-3.07 2.095.801.002-3.663 1.78z" fill="#f1dac4" stroke="#f1dac4" stroke-linecap="round" stroke-linejoin="round"/><path d="M377.491 207.673c6.479.089 9.19-.658 11.971 2.966 2.682 3.493.52.9 1.327 4.426l-8.161.358zm7.75-12.918c4.135 1.82 1.479-1.31 3.461 2.563l-1.95 8.824-2.268-1.906-4.592.77-4.243.764c.2.393.425.992.559 1.201.09.14.542.825.614.635.056-.146.448.097.67.067l-1.827-6.108-3.434 1.884c2.895 2.446 3.24-3.534 2.198 3.135-1.355.236-.622 1.086-2.475-.06-2.14-1.325-.538-.64-1.057-2.733l-3.009-.858-.703 6.986c-.568-.215.95 1.645-2.585-1.515l-1.665 5.905c2.233 3.974 8.588 9.447 10.17 14.321 3.745 11.542-4.548 16.03 2.052 17.87l1.787-27.054 4.474-2.242c5.11-.274 1.903-.706 5.79 1.106l10.304 3.22 6.171.496c-5.8-8.649-5.865-1.291-9.35-15.534 5.585-5.152-2.274 2.088 4.735-1.453 1.474-4.628.502-7.155 2.315-9.528 1.969-2.58 4.549-1.418 6.927-3.27l-5.597-5.63c-5.664 1.69-4.573 1.271-6.016 6.329-1.803 6.318.64 5.478-5.106 7.428l-1.585-12.92-.302-2.386-2.413 7.488c-.126.217-.506.644-.616.808z" fill="#695954" stroke="#695954" stroke-linecap="round" stroke-linejoin="round"/><path d="M498.413 525.354c.139 8.694-1.465 12.521-1.465 21.118-.554-.391-1.168-.823-1.624-1.227-6.265-5.556-3.816-3.492-2.942-4.951l-.907 22.555c-.095.762-.427 5.125-.437 5.191-1.669 10.5 1.639-5.93-.532 2.89-1.083 4.403-2.48 7.744-6.252 9.207l-3.042-4.04c-.184-.314-.473-.903-.626-1.174-.158-.282-.387-.838-.624-1.233l-2.806 1.113-.942 7.124c9.453 3.757 7.512 5.135 22.205 4.204 4.59.684 2.905 2.187 3.168 8.236 5.041-5.785 1.061-27.318-.105-35.736-1.671-12.053.558-26.083-.185-39.032-1.645 2.354-2.845 4.106-2.884 5.755z" fill="#f6ebe7" stroke="#f6ebe7" stroke-linecap="round" stroke-linejoin="round"/><path d="M259.036 169.509l-4.474 2.35c-5.32 2.445-5.664 3.212-12.256 1.822-8.867 8.912-22.625 7.132-34.254 6.978 5.199 2.78 10.757 2.873 17.042 2.711 7.815-.202 10.392.194 16.694 1.382-4.882 1.151-3.406 1.064-5.552 4.703 3.912 8.04 4.05 8.216 16.072 7.268-3.467-6.839-.8-8.425 3.664-11.784 3.853-2.898 8.007-4.103 11.541-7.078 6.65-5.596-.164-5.766 6.412-11.726.113-.103.441-.369.563-.47 4.028-3.364 4.152-2.1 6.163-6.724-9.677 2.217-2.923 4.73-21.615 10.568z" fill="#3e4655" stroke="#3e4655" stroke-linecap="round" stroke-linejoin="round"/><path d="M224.169 292.303c-.134 6.35-1.835 7.28-3.581 12.643-2.333 17.436 11.276 20.782 8.397 30.412l.904 4.801c11.722-22.083 17.334-12.031 34.211-17.241 6.037-1.864 2.311.309 5.422-2.775-5.063-1.44-4.487.445-8.952-2.32.325-5.666.616-4.477 2.498-5.251-3.246-2.271-2.719-2.485-5.584-4.483-8.114 5.673 1.617 6.594-15.45 5.529-.05 5.48-3.114 8.091-7.725 10.377-5.417-3.899-10.922-11.016-7.727-17.533l1.29-2.397 4.658-12.985c.152-1.063 1.02-4.757.996-4.926-.798-5.716 2.758-.628-2.299-4.678-.922 4.526-3.644 8.323-7.058 10.827z" fill="#826658" stroke="#826658" stroke-linecap="round" stroke-linejoin="round"/><path d="M490.78 261.39c-.868 4.509.996 3.639-6.08 5.411-2.495.625-4.73.71-7.795.61.3.284.724.673.913.84.182.16.696.63.896.804l2.499 2.074c-1.774 1.708-2.855 2.962-6.065 4.053 3.728 8.903 10.195 21.531 12.535 30.8 1.925 6.134-2.14 13.612-7.721 15.013-5.504-3.58-1.415-4.353-8.756-8.331l-2.078-.88c5.44-.77.752.31 2.138-2.263l-13.136-12.648c2.214 11.218 2.912 11.443-9.593 11.672 1.643 1.637 1.758 2.462 4.31 3.268l5.286.005c3.812.387 2.787 1.303 3.14 1.677.261.274 1.097 1.807 1.701 5.598 12.825-2.08 6.43-1.723 6.18-2.823.778 5.979 2.178 6.943 4.635 10.814l6.244.504c.523-.824-.337-2.195 2.99-3.938 4.078-2.137.666-1.72 3.214.692 1.264-.748 2.255-.986 3.456-1.81 1.109-7.37 5.216-7.387 2.492-18.233-1.383-5.505-4.687-9.119-6.516-15.87l-7.443-10.776 3.421-1.7c4.305-2.257 1.338.476 5.769-6.849l6.662-.813 5.644-2.313c-1.742-3.703 1.714-2-3.504-3.222-1.177-2.675.564-1.366-2.467 2.183-1.462-8.28.148-1.283-2.97-3.55z" fill="#8e6d64" stroke="#8e6d64" stroke-linecap="round" stroke-linejoin="round"/><path d="M336.65 180.538c5.108 6.82 13.628 10.197 18.123 15.653-2.799 1.682-.095 1.272-5.095 1.399.725 5.493 24.235 5.064 31.397 1.261-.718-5.713-2.351-.284-5.671-5.52-1.754-2.766-1.183-8.418-1.582-11.907l.28-1.637c-6.207 1.03-12.792.633-19.084.205-6.546-.445-10.898.365-18.369.546z" fill="#796965" stroke="#796965" stroke-linecap="round" stroke-linejoin="round"/><path d="M209.113 570.982l1.868 30.223c5.826.811 3.5 1.182 7.668-.993 1.361 6.995.425 7.015 7.555 8.278l3.786-8.653c.312.26.639.573.98.798 3.028 1.994 1.449 1.045 5.28 1.516l.245-26.792-8.892-1.21c1.897 8.82 6.027 3.134 3.837 18.077 1.526-5.52-1.778-9.572-6.4-11.735l-1.92 7.516c-.255 5.05 1.96 8.684-1.065 16.8l-1.011-23.664c-8.192.959-2.68-.534-5.66 2.417.003.002 6.902 2.782 3.621 5.328l-1.672 1.25c-3.352 2.676-5.578 5.784-2.072 3.417-3.25-3.353-2.608-11.59-1.083-16.175 4.25-1.91 7.402.206 10.652-3.148l-6.711-2.047-5.383.346-1.02-4.04z" fill="#2f2f34" stroke="#2f2f34" stroke-linecap="round" stroke-linejoin="round"/><path d="M305.378 138.654c2.643 5.757 2.152 6.418-3.09 8.08 0-.001-4.035-.875-1.488-6.09 1.856-3.799 2.332-1.673 4.578-1.99zm-41.82 11.987c1.872 3.664 1.01-.67 1.513 3.732.331 2.897 3.223-1.124-.67 5.086l-6.496 1.8c4.148 3.674-4.966 3.416 7.67 2.71-4.312.578-4.283 1.727-6.539 5.54 18.692-5.837 11.938-8.352 21.615-10.568 1.377-2.635 4.184-3.89 7.114-7.089 3.3-3.602 5.428-5.304 7.544-8.138 1.468 6.854 4.703 9.142 12.516 6.682 7.583-15.704-8.985-17.455.286-29.692-6.085-15.21-6.432-19.828-24.141-23.444l1.26 4.114c5.42.48 6.487.388 11.736 4.044.249.173.664.487.884.648 6.814 4.963 4.428 27.836-2.64 33.058-8.361 6.177-14.151 13.508-23.821 20.311z" fill="#869acc" stroke="#869acc" stroke-linecap="round" stroke-linejoin="round"/><path d="M451.775 148.274c6.453 3.426 11.33 8.77 20.07 10.928-1.146-8.384.679-.908-3.415-6.077-4.164-5.257-2.686-.661-2.849-8.786 5.22.39 15.928 3.986 20.041 7.434 8.766 7.347 1.571 5.6.882 6.086-.115.766 3.482 2.51-7.538 1.797 2.96 2.957-2.124.396 3.071 1.673 2.219.546 3.253.532 5.575.349 3.416-.27 5.616-1.435 7.342-1.66.673-14.517-.161-13.847-14.728-25.097l-2.07-1.522c-3.452 1.72-.154.277-3.56-.454-.202-.043-3.807-1.123-8.166-.722 3.541 4.37 4.006 2.916 7.066 8.058-8.043-.707-14.324-3.62-19.345-3.939l3.62 6.016c2.73 3.808 3.256 4.39 4.314 7.183-4.882-2.057-7.527-3.265-10.31-1.267z" fill="#484a55" stroke="#484a55" stroke-linecap="round" stroke-linejoin="round"/><path d="M501.6 118.136c6.293.6 9.29 6.134 12.577 10.866 2.102 3.026 6.822 9.99 6.548 13.052-4.557 3.533-.081.687-4.85 1.749l.55 11.885c5.174-1.664 3.226-1.214 7.72-3.662 2.881-7.15 2.51-15.183-2.912-22.186-1.663-2.148-5.067-6.612-6.927-8.65-3.535-3.873-5.037-2.96-8.046-7.391-8.005-2.179-15.644-10.434-33.94-15.297-6.561-1.744-13.456-3.39-20.701-3.87-3.928-.26-6.913-.015-10.2.85l-8.29 3.148c18.068-.009 24.954-1.711 41.188 3.85 3.503 1.2 25.729 12.139 27.282 15.656z" fill="#94aad1" stroke="#94aad1" stroke-linecap="round" stroke-linejoin="round"/><path d="M193.351 343.786c8.497-.927 2.81.579 4.061 3.559 1.386 3.3-1.38 14.712-1.573 21.414-.327 11.299.149 19.81 1.103 30.166l8.919 6.954-2.357-51.143c-.096-15.218-3.096-2.268-2.06-12.193 2.965-1.615 2.385-2.207 4.348-5.972-.474-.256-.699-1.14-4.193-1.097-4.782.058-1.29-.578-3.93.714-5.73 2.804-3.412 2.705-4.318 7.598z" fill="#d3ba99" stroke="#d3ba99" stroke-linecap="round" stroke-linejoin="round"/><path d="M419.303 278.434c.836 5.622.067 3.222 3.644 5.093l7.44-1.321c.616 7.025 1.36 4.755-1.81 8.784l4.588 7.195 9.13-4.994c.998 4.05-.274 1.92 2.14 5.29 3.897-.373 3.09.804 3.551-2.288l1.466-1.52 2.707-6.197-10.814-7.64c-.402-6.29-2.076-1.318-2.537-8.648-4.66-2.28-5.083-4.514-10.168-3.782l-1.208 3.815c-7.964-.65-4.46.612-7.808-3.845-2.325 1.815-1.43.1-1.323 3.93.012.454.865 5.018 1.002 6.128z" fill="#a37b6d" stroke="#a37b6d" stroke-linecap="round" stroke-linejoin="round"/><path d="M181.766 240.287c.226-.25.5-1.05.57-.833l5.453-9.537c6.475-8.412 13.077-7.768 23.978-10.608 5.716-1.489 3.694-4.053 11.085-.356l2.647-2.66c.149-.181.527-.688.652-.847.13-.165.405-.62.636-.908l-1.785-3.772-8.812-.1c-7.175.088-3.14-.798-9.69-2.303-.91 2.377-.452 2.985-1.067 4.466-2.35 5.659-3.686 4.31-10.81 8.71-.097.136-2.215 3.686-2.705 4.276-4.723-2.587-5.358-3.655-6.078-8.836l-1.025-35.165c-1.326-7.772.72-3.4-2.89-5.56-4.806 15.487 1.13 45.693-.159 64.033z" fill="#d7c6b8" stroke="#d7c6b8" stroke-linecap="round" stroke-linejoin="round"/><path d="M212.716 169.626c1.473 1.997-.475.868 3.14 1.476 1.273.213 3.443.133 4.756.153-.432-4.409-1.92-5.53 1.202-9.491 2.774-3.521 4.64-4.897 9.513-4.852 5.176-5.243 12.805-9.118 23.005-9.655 23.893-1.26 14.37 2.949 20.147 5.281 3.651-3.258 2.726-1.715 4.559-6.377-6.422-5.33-.231-1.919-10.595-3.509-24.734-3.794-8.68.139-21.064-.37-5.154-.213-4.289-1.625-10.376.652-13.38 5.005-21.793 13.567-24.287 26.692z" fill="#484a55" stroke="#484a55" stroke-linecap="round" stroke-linejoin="round"/><path d="M483.817 218.576c2.349 7.199 3.004 15.051 5.356 22.108 3.164 9.494 5.467 13.55-.51 21.418l2.118-.713c3.118 2.267 1.508-4.73 2.97 3.55 3.03-3.55 1.29-4.858 2.467-2.183 5.218 1.222 1.762-.48 3.504 3.222 2.351 3.124 5.945 9.244 8.859 12.529 3.925-2.754 2.613.61 3.273-6.183l-5.776-26.426h-1.664l-2.842 2.637-4.734-.119c-1.159-5.807-1.343-3.937-4.048-8.503-8.888-15.005 4.924-22.073-5.423-24.052-.981 3.534 2.098 2.737-3.55 2.715z" fill="#555557" stroke="#555557" stroke-linecap="round" stroke-linejoin="round"/><path d="M238.87 275.197l-6.098-.203c1.205 5.104 2.244.02-1.545 6.481 5.057 4.051 1.5-1.037 2.3 4.68.023.168-.845 3.862-.997 4.925l6.235-7.844c3.725-6.161 3.47-8.622 9.24-10.144l-2.195 11.936c-1.226 4.757-.881 3.283-4.161 7.538-5.918 7.677-5.576 12.141-13.778 11.5l-1.289 2.396c.383 7.923.639 7.928 4.002 13.35 9.692-2.143 6.231-3.808 9.918-12.734l17.423-41.784c-2.34-1.616 3.729-3.292-4.57-.915-4.622 4.638-9.318 8.924-14.485 10.818z" fill="#b89686" stroke="#b89686" stroke-linecap="round" stroke-linejoin="round"/><path d="M425.076 239.528c5.142.948 2.706.387 4.308 2.548 5.595 1.984 7.136 4.108 12.077 5.67l9.658 5.271c4.766 2.864 1.527 3.109 7.711 4.56l5.966-1.737c-2.393-3.706-1.433-3.051-2.762-7.626-3.14-10.81-13.025-15.114-17.77-9.063-.132.168-.401.648-.55.996.005-.035 1.585-6.283 1.663-6.564-12.022 2.426-16.606-5.826-20.3 5.945z" fill="#3c312f" stroke="#3c312f" stroke-linecap="round" stroke-linejoin="round"/><path d="M181.925 176.254c3.61 2.16 1.564-2.212 2.89 5.56l1.025 35.165c.72 5.18 1.355 6.249 6.078 8.836.49-.59 2.608-4.14 2.706-4.275-3.951-1.786-2.62.537-3.353-5.651l-.833-27.845c.255-.13.71-.57.799-.313l1.559-.563c3.955-1.152-2.169.853 2.982-.677-1.481-3.873-3.002-6.834-4.464-11.028-.993-4.138-.408-2.888-1.29-5.523-1.548-4.625-.42.245-1.508-3.927-1.424-5.467-.912-8.69.14-13.91.115-5.174 2.66 4.267-.15-2.667-.137-.336-.32-.883-.496-1.206-2.42-4.48.2-.298-3.592-2.901z" fill="#eadac4" stroke="#eadac4" stroke-linecap="round" stroke-linejoin="round"/><path d="M401.243 130.81c1.032 1.505 2.77-2.835.665 5.252-.556 2.14-1.697 3.746-2.554 5.402-3.06 5.913-2.827 7.297-6.361 9.264-2.106 3.1-2.782 7.374.763 10.736 4.225 4.006-.195.6 4.294 2.045 6.13-9.045 7.257-24.95 16.075-30.591-1.106-7.134.109-.468-1.137-3.744-1.25-3.29-1.095 2.002-1.442-5.962-1.57-7.483.247-15.586 3.807-22.887-6.454 3.131-5.986 6.064-8.004 13.257-1.579 5.631-4.736 11.171-6.106 17.228z" fill="#94aad1" stroke="#94aad1" stroke-linecap="round" stroke-linejoin="round"/><path d="M194.624 221.54c7.123-4.402 8.459-3.052 10.809-8.71.615-1.482.158-2.09 1.066-4.467 6.551 1.505 2.516 2.391 9.69 2.303-1.366-2.514-8.19-7.844-11.476-11.587-2.572-2.93-6.698-10.965-8.935-12.588-5.15 1.53.973-.475-2.982.677l-1.56.563c-.088-.257-.543.184-.798.313l.833 27.845c.734 6.189-.598 3.865 3.353 5.65z" fill="#f6e8d5" stroke="#f6e8d5" stroke-linecap="round" stroke-linejoin="round"/><path d="M457.14 268.65c.015.033 1.026 2.36 1.164 2.684.073.174.35 1.232.406 1.005.057-.234.272.694.419 1.036 5.69 4.224 10.199 11.29 14.368 16.886 4.15 5.57 7.9 14.238 12.766 20.459l1.42-4.738c-2.34-9.269-8.807-21.897-12.535-30.8-2.874-2.88-.874-3.676-5.566-7.177-.669-.5-8.016-4.422-8.706-4.659-2.52-1.347-3.368-1.724-5.92-2.987.413 4.643.83 4.315 2.184 8.29z" fill="#ebe3d8" stroke="#ebe3d8" stroke-linecap="round" stroke-linejoin="round"/><path d="M397.512 221.53c3.05 1.35 8.499 3.876 11.892 2.494.253-4.755-4.308-7.381-5.052-10.336l1.35-11.74c3.332-3.42 19.709 6.372 22.195 7.553 9.211 4.378 8.149.66 8.866-.34l-1.834-2.279c-6.136-1.546-2.949-1.3-7.78-5.009-4.44-2.575-6.707-4.542-10.526-6.784-.626 4.047 1.391 1.617-1.259 3.524-2.293-2.648-3.504-2.995-7.054-6.372-2.378 1.852-4.958.69-6.928 3.27-1.812 2.373-.84 4.9-2.315 9.528-7.008 3.54.851-3.7-4.735 1.453 3.485 14.243 3.551 6.885 9.351 15.534z" fill="#65534b" stroke="#65534b" stroke-linecap="round" stroke-linejoin="round"/><path d="M506.158 389.495l-.546 16.68c4.4-.727 4.138-.67 7.036-2.247 1.716-12.668 4.765-14.53 2.769-30.258-.812-6.394-.808-23.712-4.58-28.95l-1.969.626c-2.998 13.55 2.578 31.835-2.71 44.149z" fill="#d9c5a6" stroke="#d9c5a6" stroke-linecap="round" stroke-linejoin="round"/><path d="M206.943 313.014c3.73-1.033 1.123-1.178 5.675-.891 6.754.424 2.12-.282 4.656 1.425.12-.36.114-1.347.137-1.131.014.14-.473-5.348 3.177-7.47 1.747-5.364 3.447-6.295 3.58-12.644 5.313-13.415-7.18-4.726-1.188-22.012-8.74 4.078-9.77 8.028-10.426 18.237-.746 11.596-3.625 14.786-5.611 24.486z" fill="#ead3ad" stroke="#ead3ad" stroke-linecap="round" stroke-linejoin="round"/><path d="M277.648 211.86c-2.653 1.787-6.282 3.428-10.618 5.263-.322 6.178-1.123 14.082 6.55 10.737 5.926-2.582 4.36-10.737 11.345-3.263.692 7.79-2.192 4.254-8.458 8.551-6.178 4.237-5.453 5.592-12.83 7.798 1.446 1.55-4.079 2.611 5.189 1.05 5.444-6.34 23.764-9.048 26.82-15.327-2.212-5.815-4.835-4.969-6.882-7.978-1.086-1.597-.223-.782-1.346-3.137l-3.897-5.265c-.201-.713-.821-.653-1.31-.812-3.097 2.821.346.777-4.563 2.383z" fill="#564a45" stroke="#564a45" stroke-linecap="round" stroke-linejoin="round"/><path d="M479.127 228.084c-1.832 12.056.241 20.601 1.697 33.297 8.111.481 1.718 2.51 7.84.72 5.976-7.867 3.673-11.923.509-21.417-2.352-7.057-3.007-14.91-5.356-22.108l-.703.36c-4.937 1.735-4.731 4.613-3.987 9.148z" fill="#f9f5f8" stroke="#f9f5f8" stroke-linecap="round" stroke-linejoin="round"/><path d="M181.766 240.287l-.234 2.588c10.459-8.157 5.02-11.322 11.68-14.382 4.085-1.877 13.321-.103 5.896 7.614-4.57 4.75-1.602-1.61-4.859 8.083 2.953-2.825 3.426-4.907 6.233-6.908.656-.467 2.18-1.936 4.52-1.609 5.98.837 1.343-1.416 4.933 3.138.366-.31.938-1.215 1.118-.907.196.337 7.67-7.753 9.676-12.622.693-1.681 1.127-3.937 2.123-6.33-7.39-3.696-5.369-1.132-11.085.357-10.901 2.84-17.503 2.196-23.978 10.609l-5.452 9.536c-.07-.217-.345.583-.57.833z" fill="#c9b696" stroke="#c9b696" stroke-linecap="round" stroke-linejoin="round"/><path d="M468.678 238.353c-5.948-13.64 6.265-11.482 10.004-20.935l-7.369 2.576c.744-2.95.298-1.638 2.254-5.33-5.156.447-7.044 1.824-13.365 1.085-5.78-.676-4.756-1.479-11.807-.621-.624.013-3.73-.177-4.01-.156l-4.421.882c5.903 6.036 10.09 5.65 19.334 8.81-2.842.561-4.28 6.983-3.984 10.47 8.647 1.707-2.059-1.467 6.034 1.018 3.755 1.154-.58 2.026 7.33 2.202z" fill="#53453e" stroke="#53453e" stroke-linecap="round" stroke-linejoin="round"/><path d="M231.327 156.912c-.839 1.691-.924 2.06-2.263 4.497-.735 2.84-1.744 5.147-1.543 8.043l1.53 5.753-3.912 1.792c-10.455 2.115-15.488-1.489-25.177-.905l2.32 3.792 5.77.775c11.629.154 25.387 1.934 34.254-6.978-7.583-2.885-4.81-3.135-13.423-2.93 3.507-1.959 2.755-2.608 4.271-5.612.17-.338.266-.795.442-1.122 4.75-8.856 18.886-10.7 29.08-10.25 2.45 3.584.699.179 1.725 5.692 3.893-6.21 1.001-2.189.67-5.086-.504-4.402.36-.068-1.512-3.732-8.636-.527-10.354-.383-18.067 1.948-2.33.703-4.593 1.574-7.042 2.532-1.328.52-2.251.97-3.364 1.286-2.43.69-1.288.545-3.76.505z" fill="#a3bae5" stroke="#a3bae5" stroke-linecap="round" stroke-linejoin="round"/><path d="M188.657 152.103c-1.053 5.22-1.565 8.443-.14 13.91 1.086 4.172-.04-.698 1.507 3.927.882 2.635.297 1.385 1.29 5.523 4.378 1.447 6.425 1.733 10.968 4.421l-2.32-3.792c9.689-.584 14.722 3.02 25.177.905-3.233-4.272 2.52-1.416-6.23-3.165-1.745-.349-4.72-.485-6.94-.91-3.734-.712-8.078-1.118-8.781-4.992-5.152-.941-7.178-3.1-9.246-9.173-1.416-4.159-.293-9.572 1.814-13.544-2.884-1.547-2.69 2.873-1.95-3.898-4.137 4.614-3.206 4.39-5.15 10.788z" fill="#677597" stroke="#677597" stroke-linecap="round" stroke-linejoin="round"/><path d="M471.266 309.52c-1.386 2.574 3.303 1.494-2.138 2.264l2.078.88c7.341 3.978 3.252 4.751 8.756 8.331 5.581-1.4 9.646-8.879 7.721-15.013l-1.42 4.738c-4.867-6.221-8.616-14.888-12.766-20.459-4.17-5.595-8.678-12.662-14.368-16.886 10.222 23.699 6.183 8.66 4.717 16.059 6.63 2.566 10.27 11.953 12.344 19.6z" fill="#c19987" stroke="#c19987" stroke-linecap="round" stroke-linejoin="round"/><path d="M212.585 118.72c-6.33 6.427-2.028-.913-8.85 9.468-4.033 3.372-8.394 7.583-9.929 13.127-.74 6.771-.934 2.351 1.95 3.898 2.746-6.873 3.55-5.852 7.46-11.303.786-1.095 3.339-4.896 3.948-5.525 4.08-4.206 2.476-2.195 6.15-2.967 3.634-.44 4.774-.784 7.013-2.195 6.483-4.087 3.517-1.458 3.168-4.711 1.619-7.212-3.073-1.976 4.366-7.041l21.767-8.401c-1.96-10.338 4.03 3.058-1.047-3.17-8.629 1.21-14.167 4.553-20.645 7.698-5.666 2.75-12.753 6.57-15.351 11.122z" fill="#5c6779" stroke="#5c6779" stroke-linecap="round" stroke-linejoin="round"/><path d="M443.863 159.785l-8.42 22.208c-1.341 2.663-4.141 6.58-2.946 9.237 1.21 2.69 6.705 3.411 9.463 1.424l5.194-15.781c2.483-7.049 1.172-8.818 7.726-12.89-2.797-2.592-7.308-4.132-11.059-5.417z" fill="#3e4655" stroke="#3e4655" stroke-linecap="round" stroke-linejoin="round"/><path d="M487.367 215.861c10.347 1.98-3.465 9.047 5.423 24.052 2.705 4.566 2.89 2.696 4.048 8.503l4.734.12c-2.702-4.862-9.39-17.197-9.244-23.558.188-8.17-.547-1.379 1.538-4.309 4.808 3.405 1.251-.105 4.194 6.04 10.258-3.644-.922-1.61 6.173-6.176 2.152 4.676-1.703 3.59 4.394 1.414l.146-1.205-6.856-4.888c-.53-7.154-.703-5.712-2.39-11.265l-8.776 2.938z" fill="#756865" stroke="#756865" stroke-linecap="round" stroke-linejoin="round"/><path d="M524.145 152.025c-2.488 6.24-3.824 7.404-8.921 5.332-2.451 4.864-4.373 4.699-8.95 6.417l-.04 4.519c14.389-3.215 11.192-.744 20.36-10.841 2.716-2.992 5.245-4.018 5.58-9.731.263-4.498-1.663-8.49-2.911-12.297l-.297-.394c-3.032-3.117-2.914-3.57-5.226-6.412-1.968-2.42-2.922-2.82-5.17-5.326-2.962-3.298-6.771-10.325-12.31-9.493 3.008 4.432 4.511 3.518 8.046 7.39 1.86 2.039 5.264 6.503 6.927 8.651 5.422 7.003 5.793 15.035 2.912 22.186z" fill="#464a57" stroke="#464a57" stroke-linecap="round" stroke-linejoin="round"/><path d="M485.669 288.43c1.829 6.75 5.134 10.364 6.516 15.87 2.724 10.846-1.383 10.863-2.492 18.232.97 2.383.006 1.231 1.086 3.021 1.877 3.111.86 1.824 3.404 4.069-.716-15.228 6.258-18.9 8.319-31.884-3.092-3.327-2.294-1.566-4.658-5.5-2.972-4.943.121-4.095-5.942-7.23-4.364 1.08-2.665.536-6.233 3.422z" fill="#ead3b2" stroke="#ead3b2" stroke-linecap="round" stroke-linejoin="round"/><path d="M261.58 219.417c5.052 2.566 2.576.426 4.359 6.474.24.814 1.049 4.187 1.187 4.919.967 5.13.648 6.947-8.097 8.619-6.697-5.9-2.653-7.895-9.736-11.956l.09-6.977c-1.945 1.207-6.107-1.58-1.633 9.231l.958 2.003c.152.504.442 2.218.536 2.751.024.138.51 5.482.536 5.769 4.746 1.366.26 1.831 5.454 1.897 2.112.026 6.582-.855 8.403-1.2 7.376-2.207 6.652-3.562 12.83-7.799 6.266-4.297 9.15-.76 8.458-8.55-6.985-7.475-5.42.68-11.344 3.262-7.674 3.345-6.873-4.56-6.551-10.737l-8.642 1.92zM213.003 247.094c-.82 1.51-.935 2.243-2.277 4.117-1.885 2.634-.165.705-2.54 2.664-.839 3.442 1.258-1.06-1.642 2.205-2.108 2.374.256-1.531-2.257 2.318-1.988 3.046-1.733 3.736-1.573 7.695l1.642-1.898c.19-.272 1.005-1.636 1.254-1.983l10.7-8.53c-.66 5.048-1.388 6.01-3.115 9.75l5.582-1.155 1.755-1.513c2.752-.02 1.953.602 1.832-2.382-1.836-14.613.626-14.44 4.105-27.163l-2.585-.999c-8.144 3.606-4.849 9.658-10.88 16.874z" fill="#69554d" stroke="#69554d" stroke-linecap="round" stroke-linejoin="round"/><path d="M379.305 235.617l3.18-4.213 3.286-3.785c4.61 3.867 5.245 3.283 9.216 8.676 1.657-.014 3.462-.46 3.852-.498 7.741-.755 2.912.453 11.598 2.019.23-.328.717-1.14.752-.939l.533-4.304c-2.91-2.122-9.186-4.71-13.12-6.57-2.372-1.12-4.124-1.629-6.493-2.804-4.38-2.172-3.709-.788-4.9-4.889-3.888-1.812-.681-1.38-5.79-1.106.479 8.516-1.413 9.47-2.114 18.413z" fill="#8b6c5e" stroke="#8b6c5e" stroke-linecap="round" stroke-linejoin="round"/><path d="M181.532 242.875c1.466 6.021.96 10.148 4.869 13.687l1.112-.275c4.407-3.462 5.545-4.727 6.736-12.097 3.257-9.693.289-3.333 4.859-8.083 7.425-7.717-1.81-9.491-5.895-7.614-6.661 3.06-1.222 6.225-11.68 14.382z" fill="#96876b" stroke="#96876b" stroke-linecap="round" stroke-linejoin="round"/><path d="M328.944 183.202l-.473 13.862 21.207.526c5-.127 2.296.283 5.095-1.4-4.496-5.455-13.015-8.832-18.124-15.652l-2.895-.115z" fill="#272328" stroke="#272328" stroke-linecap="round" stroke-linejoin="round"/><path d="M184.418 145.329c3.791 2.603 1.172-1.579 3.593 2.9.174.324.358.87.494 1.207 2.811 6.934.266-2.507.152 2.667 1.943-6.398 1.012-6.174 5.15-10.788 1.534-5.544 5.895-9.755 9.928-13.127l-.44-5.355-13.35-2.773z" fill="#f4ebe2" stroke="#f4ebe2" stroke-linecap="round" stroke-linejoin="round"/><path d="M187.513 256.287l-1.112.275 3.11 16.831c7.135-1.255 2.645.609 6.553-3.14 1.973-1.894.537-1.33 2.154-2.519 2.836-2.084 1.31-1.07 4.496-1.64-.16-3.96-.415-4.65 1.573-7.696 2.513-3.85.149.056 2.257-2.318 2.9-3.266.803 1.237 1.642-2.205-1.27-6.404-1.946-1.103.162-9.373-4.176 1.732-2.057 1.129-4.674 2.336-.257.12-.689.283-.925.391-2.766 1.263-1.32-2.026-4.85 4.381-.323.586-1.558 3.171-1.57 3.194l-7.032 7.556c-.748-1.974-1.291-4.634-1.784-6.073z" fill="#d0c29c" stroke="#d0c29c" stroke-linecap="round" stroke-linejoin="round"/><path d="M445.592 141.837c2.877 2.543 3.901 3.815 6.183 6.437 2.783-1.998 5.428-.79 10.31 1.267-1.058-2.793-1.584-3.375-4.315-7.183l-3.62-6.016c5.022.319 11.303 3.232 19.346 3.939-3.06-5.142-3.525-3.688-7.066-8.058 4.359-.401 7.964.68 8.167.722 3.405.73.107 2.175 3.559.454-.534-2.887 5.818-.371-3.236-3.859-4.854-1.87-3.354-.041-5.646-.286-4.365-.467-2.919-2.288-9.397-3.214-.221.343-.325.91-.393 1.158l-1.152 6.662c-4.798-1.747-4.49-1.723-10.83-1.487 2.9 5.553 4.012 3.837 4.674 11.241-4.77-2.408-.54-1.23-6.584-1.777z" fill="#3b3e49" stroke="#3b3e49" stroke-linecap="round" stroke-linejoin="round"/><path d="M306.549 216.006c-.207 1.895-.833 6.263-.826 6.3l1.935 3.352c.093-.273.543.63.803.955 3.375-.792 6.979-2.435 9.303-4.446 5.439-4.702-.06-3.546 9.987-6.565-2.665-3.581-.755-1.784-4.6-4.383 5.76-9.436 8.147-1.451 12.694-6.663l-8.749-.344-3.49-.693-1.022-5.317-2.308 3.917c-4.661 9.59-.097 8.183-13.727 13.887z" fill="#2d2a2b" stroke="#2d2a2b" stroke-linecap="round" stroke-linejoin="round"/><path d="M484.077 207.654l2.364.369c2.67-1.779.394 2.56 3.297-3.92 2.837-5.658 4.228-11.376 8.133-16.646 3.154-4.256 7.152-9.705 8.16-15.326l-11.714.21c3.45 3.92-3.839 1.418 3.659 3.343-4.584 9.779-11.64 18.117-17.835 29.355.24.263.602.366.711.796z" fill="#464a57" stroke="#464a57" stroke-linecap="round" stroke-linejoin="round"/><path d="M398.05 163.509c2.28 3.138 2.711 2.646 1.552 6.904l3.896.241c.03-.145.72-3.073.724-3.084l11.866-27.91 4.312 1.311c.212.055.75.193 1.132.246-2.79-4.727-4.092-5.49-7.407-8.3-8.818 5.641-9.945 21.547-16.075 30.592z" fill="#3e4b5f" stroke="#3e4b5f" stroke-linecap="round" stroke-linejoin="round"/><path d="M502.473 132.099c2.45 6.083 7.604 7.014 8.98 16.09l1.736 1.223.291-3.944c.49-5.579-.247-.07 2.395-1.665 4.769-1.062.293 1.784 4.85-1.749.274-3.062-4.446-10.026-6.548-13.052-3.288-4.732-6.284-10.266-12.578-10.866 4.89 4.984-5.318 2.673 4.474 3.729-.023.426-.205.989-.29 1.247l-.716 2.195c-.277.67-1.305 2.3-1.337 2.367-1.127 2.415.315 1.069-1.257 4.425z" fill="#464a57" stroke="#464a57" stroke-linecap="round" stroke-linejoin="round"/><path d="M248.64 107.493c.945 2.736.169 2.066 1.256 3.084 1.23 1.152 1.998.983 3.854 1.12-3.652 2.092-3.182.943-6.548 2.388-7.61 3.267-2.777-1.104-5.791 5.13 15.749 5.77 23.531-8.285 28.69-10.919 8.372-4.275-6.022 1.918 2.19-1.038l2.495-.682c.463-.108.941-.16 1.376-.246.455-.088 1.068-.145 1.447-.209.391-.066 1.01-.057 1.497-.181-15.43-1.45-15.077-.902-30.466 1.553z" fill="#3d444a" stroke="#3d444a" stroke-linecap="round" stroke-linejoin="round"/><path d="M473.567 214.663c-1.956 3.692-1.51 2.382-2.254 5.331l7.369-2.576c-3.74 9.453-15.952 7.296-10.004 20.935.207.219.425.343.473.768l2.938 7.744c1.453 3.2.133.19 1.585 3.55l2.766 5.6c-.364-12.714-3.823-12.631-2.68-24.767 3.013-2.31 1.988-1.489 5.367-3.164-.744-4.535-.95-7.413 3.987-9.148l3.327-10.914-2.364-.368c-3.211 3.777-3.17 6.727-10.51 7.01z" fill="#756865" stroke="#756865" stroke-linecap="round" stroke-linejoin="round"/><path d="M194.249 244.19c-1.191 7.37-2.329 8.635-6.736 12.097.493 1.439 1.036 4.099 1.784 6.073l7.032-7.556c.012-.023 1.247-2.608 1.57-3.194 3.53-6.407 2.084-3.118 4.85-4.38.236-.109.668-.273.925-.392 2.617-1.207.498-.604 4.674-2.336-2.108 8.27-1.432 2.969-.162 9.373 2.375-1.96.654-.03 2.54-2.664 1.342-1.874 1.457-2.606 2.277-4.117l-3.501-1.9.433-6.383c-3.59-4.554 1.047-2.3-4.934-3.138-2.34-.327-3.863 1.142-4.52 1.61-2.806 2-3.279 4.082-6.232 6.907z" fill="#e5d2b7" stroke="#e5d2b7" stroke-linecap="round" stroke-linejoin="round"/><path d="M414.125 132.918c3.315 2.81 4.617 3.572 7.407 8.3 10.085 2.77 1.044 1.99 11.166 9.227l8.34 5.41c2.91 2.14 1.987 1.739 2.783 2.71 3.751 1.286 8.262 2.825 11.059 5.419 7.414-.804 1.94-.15 4.408-3.058-7.142-2.503-7.395-3.443-12.65-6.162-6.411-3.315-8.923-3.223-10.934-9.32-7.131-2.346-19.54-15.601-22.428-22.232h-1.73c.347 7.964.192 2.672 1.442 5.962 1.246 3.276.03-3.39 1.137 3.744z" fill="#bdc3d8" stroke="#bdc3d8" stroke-linecap="round" stroke-linejoin="round"/><path d="M242.306 173.681c6.592 1.39 6.936.623 12.256-1.822.122-4.016-.854-3.542-3.52-3.027l-11.388-.025c-1.68-11.63 9.131-11.668 20.507-12.02l-2.256 4.473 6.496-1.8c-1.026-5.514.726-2.11-1.724-5.692-10.195-.451-24.332 1.393-29.081 10.249-.176.327-.272.784-.442 1.122-1.516 3.004-.764 3.653-4.271 5.611 8.613-.204 5.84.046 13.423 2.931z" fill="#eaeaf5" stroke="#eaeaf5" stroke-linecap="round" stroke-linejoin="round"/><path d="M471.845 159.202l7.12.454c11.021.714 7.424-1.03 7.54-1.797.688-.485 7.883 1.26-.883-6.086-4.113-3.448-14.82-7.044-20.04-7.434.162 8.125-1.316 3.529 2.848 8.786 4.094 5.169 2.27-2.307 3.415 6.077z" fill="#575a66" stroke="#575a66" stroke-linecap="round" stroke-linejoin="round"/><path d="M232.53 291.08l-4.659 12.985c8.202.642 7.86-3.822 13.778-11.5 3.28-4.254 2.935-2.78 4.16-7.537l2.197-11.936c-5.77 1.522-5.516 3.983-9.24 10.144z" fill="#c6a696" stroke="#c6a696" stroke-linecap="round" stroke-linejoin="round"/><path d="M476.44 256.016l-1.424 9.277c1.614 2.55-2.253 2.105 1.889 2.119 3.065.099 5.3.014 7.796-.611 7.075-1.772 5.211-.902 6.08-5.412l-2.117.713c-6.122 1.789.271-.24-7.84-.72-1.456-12.697-3.529-21.242-1.697-33.298-3.379 1.675-2.354.855-5.367 3.164-1.143 12.136 2.316 12.053 2.68 24.768z" fill="#d5d0d0" stroke="#d5d0d0" stroke-linecap="round" stroke-linejoin="round"/><path d="M249.384 220.496l-.091 6.977c7.083 4.061 3.04 6.056 9.736 11.956 8.745-1.672 9.064-3.49 8.097-8.62-.138-.732-.947-4.104-1.187-4.918-1.783-6.048.693-3.907-4.36-6.474l-2.64 11.614c-6.507-3.83-2.283.527-4.326-4.43-.977-2.37-1.432-5.07-1.553-7.546l-2.239-.468z" fill="#856d68" stroke="#856d68" stroke-linecap="round" stroke-linejoin="round"/><path d="M390.006 187.448l1.585 12.92c5.747-1.95 3.303-1.11 5.106-7.428 1.443-5.058.352-4.638 6.016-6.329l5.597 5.63c3.55 3.377 4.761 3.724 7.055 6.372 2.649-1.907.632.523 1.258-3.524-3.9-2.087-6.27-6.27-9.368-9.62l-.947-2.732-3.859-1.996c-2.315 4.041.498 1.277-2.827 2.73-.05-.054-2.394-1.993-3.238-3.329z" fill="#979599" stroke="#979599" stroke-linecap="round" stroke-linejoin="round"/><path d="M505.612 406.175c.253 2.468.914.005.16 2.865-.701 2.653-.66 2.11-1.552 3.486.945 4.263 1.086 8.65.61 13.478-.514 5.225-2.638 6.826.52 9.001l3.619-8.977c7.198-15.819 9.003 1.929 3.679-22.1-2.898 1.578-2.635 1.52-7.036 2.247z" fill="#b5977a" stroke="#b5977a" stroke-linecap="round" stroke-linejoin="round"/><path d="M226.47 231.219c-3.48 12.723-5.942 12.55-4.106 27.163 7.27-1.24 6.41-12.055 6.44-13.909l3.28-1.97c1.004-4.675 1.326-2.327.602-7.842-.07-.538-.832-3.113-1.016-3.531-1-2.274-.98-1.694-1.913-2.812z" fill="#a78b93" stroke="#a78b93" stroke-linecap="round" stroke-linejoin="round"/><path d="M506.031 172.131c-1.008 5.621-5.006 11.07-8.16 15.326-3.905 5.27-5.296 10.988-8.133 16.647 5.646 1.435 8.524-8.262 16.485-22.202 1.484-2.6 1.076-1.134 1.871-4.794 1.395 1.323 3.405 1.205 4.304 1.52.5-4.86 2.098-2.217 4.307-8.965z" fill="#6d758f" stroke="#6d758f" stroke-linecap="round" stroke-linejoin="round"/><path d="M467.195 189.135c4.275-1.307 1.933-1.148 4.547-3.073 3.154-2.32-1.955-2.613 4.455-2.157l-5.27 7.857c-.17.203-.543.592-.776.917 7.626 4.234 5.028-1.167 8.6-4.615 4.847-4.68 5.677.231 7.827-11.271-10.204 4.974-20.43-7.863-19.383 12.342z" fill="#21282f" stroke="#21282f" stroke-linecap="round" stroke-linejoin="round"/><path d="M227.603 574.15l-2.773.082c-3.25 3.355-6.403 1.238-10.653 3.148-1.524 4.584-2.166 12.822 1.084 16.175-3.506 2.367-1.28-.74 2.072-3.417l1.672-1.25c3.281-2.546-3.618-5.326-3.621-5.328 2.98-2.951-2.532-1.458 5.66-2.417.62 14.505.608 35.86 2.076 6.864l1.92-7.516c4.622 2.163 7.926 6.216 6.4 11.735 2.19-14.943-1.94-9.257-3.837-18.076z" fill="#454954" stroke="#454954" stroke-linecap="round" stroke-linejoin="round"/><path d="M189.51 273.393c4.134 7.444.567 9.92 6.753 18.07 4.626-3.134 4.866-5.036 7.74-10.653-3.221 1.524-.202.09-5.062 1.52l3.773-16.237c-3.186.57-1.66-.443-4.496 1.641-1.617 1.189-.181.625-2.154 2.518-3.908 3.75.582 1.886-6.553 3.141z" fill="#87765d" stroke="#87765d" stroke-linecap="round" stroke-linejoin="round"/><path d="M506.197 200.58c6.178 3.085 4.428 15.73 2.576 20.162l-.146 1.205c-.628 4.055-1.356 5.027-2.094 8.473-.028.127-.662 3.066-.586 3.983.623 7.548-.207 2.529 2.08 5.14 1.87-8.687 11.829-36.539 5.523-41.52-.203.056-4.062 1.016-4.181 1.055-2.567.843-1.906.754-3.172 1.502z" fill="#cbc3ba" stroke="#cbc3ba" stroke-linecap="round" stroke-linejoin="round"/><path d="M207.168 429.175l-1.307-23.296-8.92-6.954c3.872 14.418-6.244 11.1 5.29 23.537 4.786 5.16 2.607 8.973 4.169 5.642.12-.26.474.744.768 1.071z" fill="#b5977a" stroke="#b5977a" stroke-linecap="round" stroke-linejoin="round"/><path d="M426.473 229.25l2.115-3.58c1.373-3.277.145-4.563-2.038-8.905-.115-.23-.362-.702-.545-1.052-5.47-1.618.283.23-4.434-.422-2.293-.317-4.6-.886-6.998-1.481.6 10.043-4.054 4.26-.994 9.753.12.217.429.61.596.814.178.22.548.559.77.761 2.405 2.212 7.833 3.81 11.528 4.112z" fill="#555152" stroke="#555152" stroke-linecap="round" stroke-linejoin="round"/><path d="M202.714 266.093l-3.773 16.237c4.86-1.43 1.84.004 5.061-1.52l4.982-9.08 4.21-8.297c1.728-3.74 2.457-4.703 3.117-9.751l-10.701 8.53c-.25.347-1.064 1.71-1.254 1.983z" fill="#3d3530" stroke="#3d3530" stroke-linecap="round" stroke-linejoin="round"/><path d="M489.738 204.104c-2.903 6.479-.628 2.14-3.297 3.918l-3.327 10.914.703-.36c5.648.022 2.569.82 3.55-2.715l3.384-8.334 8.776-2.938c5.563-3.27 1.624-.185 4.22-3.816l-4.451-1.03 13.102-21.114c-.899-.316-2.909-.198-4.304-1.521-.795 3.66-.387 2.194-1.871 4.794-7.961 13.94-10.839 23.637-16.485 22.202z" fill="#ccd3e9" stroke="#ccd3e9" stroke-linecap="round" stroke-linejoin="round"/><path d="M374.103 179.787l-.281 1.637 13.439-.128 2.443 3.766.302 2.386 6.378-7.306c1.344-4.324 1.286-2.568 1.9-7.95-17.482 1.167-11.363 1.883-24.181 7.595z" fill="#796459" stroke="#796459" stroke-linecap="round" stroke-linejoin="round"/><path d="M251.043 168.832c2.402-4.946 2.543-3.91 6.862-7.572l2.256-4.474c-11.376.354-22.186.39-20.507 12.021z" fill="#f9f5f8" stroke="#f9f5f8" stroke-linecap="round" stroke-linejoin="round"/><path d="M415.362 260.761l3.83-4.97c5.45 2.787 5.993 4.252 3.47 9.138-1.035 3.353 2.399 1.375-3.038 3.447 3.348 4.457-.156 3.195 7.808 3.845l1.208-3.815c-2.221-6.571.55-10.486-5.688-14.345-4.659-2.882-9.853-1.05-14.862 1.22l2.742 6.478z" fill="#b2887b" stroke="#b2887b" stroke-linecap="round" stroke-linejoin="round"/><path d="M268.65 297.418c-1.397 4.019-.217 1.726-2.327 4.329-1.87 3.993-1.64 1.497-1.297 4.545.134 1.188 1.216-.655 1.673 5.179l.448-.683c1.798-5.173 2.184-4.926 7.632-6.873 3.788-1.354 6.237-1.52 9.402-2.45l.015-7.246-6.627 3.002c-5.895-2.267 1.074.18-3.589-2.921-3.167-2.107.057-.391-3.985-1.316z" fill="#896b5d" stroke="#896b5d" stroke-linecap="round" stroke-linejoin="round"/><path d="M222.364 258.382c.121 2.984.92 2.362-1.832 2.382.77 5.472-.301 3.21 2.874 5.928-.99-6.712-.662-1.372 1.633-3.43 11.657 3.81 8.806-11.769 8.889-20.182l-1.844-.577-3.28 1.97c-.03 1.854.83 12.67-6.44 13.91z" fill="#a37b6d" stroke="#a37b6d" stroke-linecap="round" stroke-linejoin="round"/><path d="M508.868 345.346l1.969-.626 5.82-.045c.385 7.433-.891 6.896 2.166 13.04 2.967 5.961 1.409 10.67 3.963 15.734 1.03-9.42-.134-7.025 3.812-10.006-.77-3.346-2.72-10.434-4.15-13.986l-6.108-7.572c-3.99-2.865.865-.34-4.598-2.659-1.1 5.285.317 2.946-2.874 6.12z" fill="#4d423c" stroke="#4d423c" stroke-linecap="round" stroke-linejoin="round"/><path d="M195.756 145.213c-2.107 3.972-3.23 9.385-1.814 13.544 2.068 6.073 4.094 8.232 9.246 9.173-3.8-6.554-10.125-10.923-3.613-23.901 2.164-4.312 3.455-6.154 6.914-9.887 3.94-4.252 3.76-2.277 6.825-8.724-3.674.772-2.07-1.24-6.15 2.967-.61.629-3.162 4.43-3.947 5.525-3.91 5.45-4.715 4.43-7.46 11.303z" fill="#a3bae5" stroke="#a3bae5" stroke-linecap="round" stroke-linejoin="round"/><path d="M223.406 266.692c1.072 2.854-.622.957 1.42 2.998.105 2.642-.497 1.814 2.484 1.72 2.16-3.116 5.563-4.145 11.77-6.356-.252-6.28-1.199-17.089-5.152-21.974-.084 8.413 2.768 23.992-8.889 20.181-2.295 2.059-2.623-3.28-1.633 3.43z" fill="#6a564e" stroke="#6a564e" stroke-linecap="round" stroke-linejoin="round"/><path d="M222.852 218.953c-.996 2.392-1.43 4.648-2.123 6.33-2.007 4.868-9.48 12.958-9.676 12.621-.18-.308-.752.597-1.118.907l-.433 6.383 3.501 1.9c6.032-7.216 2.737-13.268 10.881-16.874.464-2.03.572-3.967 1.287-6.316 1.858-6.092-1.303-2.818 3.405-4.919l-1.79-4.447c-.23.289-.505.743-.635.908-.125.159-.503.666-.652.847z" fill="#ac9189" stroke="#ac9189" stroke-linecap="round" stroke-linejoin="round"/><path d="M499.527 204.589c1.687 5.553 1.86 4.11 2.39 11.265l6.856 4.888c1.852-4.433 3.602-17.077-2.575-20.162l-2.451.194c-2.596 3.63 1.343.545-4.22 3.815z" fill="#867776" stroke="#867776" stroke-linecap="round" stroke-linejoin="round"/><path d="M501.572 248.535l2.842-2.637.127-6.933c-3.02-3.62-5.779-5.372-6.481-12.256-2.943-6.145.614-2.635-4.194-6.04-2.086 2.93-1.35-3.862-1.538 4.31-.146 6.36 6.542 18.695 9.244 23.556z" fill="#e3dde3" stroke="#e3dde3" stroke-linecap="round" stroke-linejoin="round"/><path d="M224.169 292.303c3.414-2.504 6.136-6.301 7.058-10.828 3.789-6.461 2.75-1.377 1.545-6.48l-5.462-3.586c-2.981.095-2.379.923-2.483-1.72l-1.847.602c-5.992 17.286 6.5 8.597 1.189 22.012z" fill="#dfb99a" stroke="#dfb99a" stroke-linecap="round" stroke-linejoin="round"/><path d="M486.237 324.342l-4.428 7.293 1.127 8.36c7.937-2.345 7.524-.716 11.162-4.756l.085-5.617c-2.543-2.245-1.527-.958-3.404-4.069-1.08-1.79-.117-.638-1.086-3.021-1.201.824-2.192 1.062-3.456 1.81z" fill="#e1c59b" stroke="#e1c59b" stroke-linecap="round" stroke-linejoin="round"/><path d="M506.26 113.799c5.539-.832 9.348 6.195 12.31 9.493 2.248 2.505 3.202 2.906 5.17 5.326 2.312 2.843 2.195 3.294 5.226 6.412-2.175-9.529-5.908-14.197-12.313-19.373-3.167-2.56-6.167-4.835-8.464-6.817-3.619-3.123-4.185-4.614-10.815-4.645 1.87 2.136 2.403 2.44 4.865 4.407.713.571 1.976 1.415 2.58 2.102 2.727 3.109.004-1.275 1.44 3.095z" fill="#b6b6b9" stroke="#b6b6b9" stroke-linecap="round" stroke-linejoin="round"/><path d="M485.669 288.43c3.568-2.886 1.87-2.343 6.233-3.422l-3.129-14.06c8.167-1.914-1.115 1.292 2.463-.658 1.873-1.022 1.794-1.12 2.842-1.999l-6.662.813c-4.43 7.325-1.464 4.592-5.769 6.85l-3.421 1.699z" fill="#d3ba99" stroke="#d3ba99" stroke-linecap="round" stroke-linejoin="round"/><path d="M322.584 198.202l1.023 5.317 3.49.693 1.374-7.148.473-13.862-7.708.238z" fill="#3a3b47" stroke="#3a3b47" stroke-linecap="round" stroke-linejoin="round"/><path d="M496.496 619.248c2.096-.89 2.18.036 3.572-1.52.692-9.729-4.108-16.595 1.52-23.361-.264-6.049 1.422-7.552-3.17-8.236-.313 7.399-1.702 11.085-2.904 18.262-1.236 7.381-1.81 10.51.982 14.855z" fill="#8c94ad" stroke="#8c94ad" stroke-linecap="round" stroke-linejoin="round"/><path d="M249.78 240.25c-.026-.287-.512-5.631-.536-5.769-.094-.533-.384-2.247-.536-2.75l-.958-2.004c-4.474-10.81-.312-8.024 1.634-9.23l1.437-1.91-3.286.346c-2.72 3.723-3.607 2.575-8.871 4.365 1.166 11.257 2.024 11.068 11.116 16.952z" fill="#53453e" stroke="#53453e" stroke-linecap="round" stroke-linejoin="round"/><path d="M498.06 226.709c.702 6.884 3.46 8.636 6.48 12.256l-.126 6.933h1.664l1.95-6.356c-2.288-2.61-1.458 2.409-2.081-5.139-.076-.917.558-3.856.586-3.983.738-3.446 1.466-4.418 2.094-8.473-6.097 2.175-2.241 3.262-4.394-1.414-7.095 4.566 4.085 2.532-6.173 6.176z" fill="#867776" stroke="#867776" stroke-linecap="round" stroke-linejoin="round"/><path d="M375.156 246.5l-.076 10.73.47 3.08 3.755-24.693c.701-8.943 2.593-9.897 2.113-18.413l-4.474 2.242z" fill="#c9b3a9" stroke="#c9b3a9" stroke-linecap="round" stroke-linejoin="round"/><path d="M516.5 436.202c1.102-2.83 2.413-4.762 4.285-7.417l5.088 4.784c.17-5.128.43-4-2.174-7.597.164-5.815-.32-.65 1.87-2.892l-1.318-2.603c-5.083-.21-4.993 1.06-7.977 4.818-2.742 3.454-2.203 4.806-4.834 7.21 3.552 6.522-1.332 1.277 5.06 3.697z" fill="#433631" stroke="#433631" stroke-linecap="round" stroke-linejoin="round"/><path d="M220.612 171.255c-1.313-.02-3.483.06-4.756-.153-3.615-.608-1.667.521-3.14-1.476-4.804-.242-5.758-.894-9.528-1.696.703 3.874 5.047 4.28 8.78 4.993 2.22.423 5.197.56 6.94.909 8.751 1.75 2.998-1.107 6.23 3.165l3.914-1.792-1.531-5.753c-.201-2.896.808-5.203 1.543-8.043-2.299 1.862-1.17.4-3.042 2.704-.025.03-1.625 2.886-1.694 2.998-2.745 4.495.597 1.7-3.716 4.144z" fill="#7790cd" stroke="#7790cd" stroke-linecap="round" stroke-linejoin="round"/><path d="M346.09 211.214l2.856-.173c.177-.01.692-.124.883-.123l1.593.037c2.404.513.54 1.858 8.263 2.535 1.195-5.534.989-2.777 2.448-4.226-4.144-5.341-6.986-4.498-15.438-5.488z" fill="#272328" stroke="#272328" stroke-linecap="round" stroke-linejoin="round"/><path d="M321.236 183.44l7.708-.238 4.81-2.78c-9.481-.889-12.62-6.208-22.16-8.324-.173 5.993.356 3.223 4.775 6.57 2.088 1.581 3.281 2.74 4.867 4.772z" fill="#977b74" stroke="#977b74" stroke-linecap="round" stroke-linejoin="round"/><path d="M438.27 272.418c5.2-1.886 4.214-2.578 9.28-1.561 1.963 2.688 2.574-4.316 1.507 5.59l5.319 2.291c-.688-9.804-3.043-13.274-14.892-12.333z" fill="#b89686" stroke="#b89686" stroke-linecap="round" stroke-linejoin="round"/><path d="M451.147 263.688l5.993 4.962c-1.354-3.976-1.771-3.648-2.185-8.29 2.553 1.262 3.402 1.64 5.92 2.986-.77-3.386-.64-2.905-2.045-5.77-6.184-1.45-2.945-1.695-7.71-4.558l-3.49 1.46c2.37 2.98 2.891 3.52 3.517 9.21z" fill="#c9b3a9" stroke="#c9b3a9" stroke-linecap="round" stroke-linejoin="round"/><path d="M438.27 272.418l.538-.23c.461 7.33 2.135 2.358 2.537 8.649 9.861-1.724.874.48 7.712-4.39 1.067-9.906.456-2.902-1.507-5.59-5.066-1.017-4.08-.325-9.28 1.561z" fill="#4b3d36" stroke="#4b3d36" stroke-linecap="round" stroke-linejoin="round"/><path d="M451.147 263.688c-.626-5.69-1.147-6.23-3.518-9.21l3.49-1.46-9.658-5.272-.217 7.172c3.91 3.85 5.31 6.653 9.903 8.77z" fill="#ac9189" stroke="#ac9189" stroke-linecap="round" stroke-linejoin="round"/><path d="M264.15 277.1c2.129 1.703 1.454 2.144 5.439 3.485 3.882-4.483 3.97-5.135 2.343-11.094-6.953-1.09-6.994 1.44-7.782 7.61z" fill="#453935" stroke="#453935" stroke-linecap="round" stroke-linejoin="round"/><path d="M377.491 207.673l5.137 7.75 8.16-.358c-.806-3.526 1.356-.933-1.326-4.426-2.78-3.624-5.492-2.877-11.97-2.966z" fill="#4d423c" stroke="#4d423c" stroke-linecap="round" stroke-linejoin="round"/><path d="M261.58 219.417l-3.192-.373-5.328.011c.121 2.476.576 5.175 1.553 7.546 2.043 4.957-2.181.6 4.326 4.43z" fill="#9a8777" stroke="#9a8777" stroke-linecap="round" stroke-linejoin="round"/><path d="M220.612 171.255c4.313-2.444.97.351 3.716-4.144.069-.112 1.669-2.968 1.693-2.998 1.873-2.304.744-.842 3.043-2.704 1.34-2.437 1.424-2.806 2.263-4.497-4.874-.045-6.739 1.33-9.513 4.852-3.122 3.962-1.634 5.082-1.202 9.491z" fill="#686976" stroke="#686976" stroke-linecap="round" stroke-linejoin="round"/><path d="M398.284 172.192c-.614 5.382-.556 3.626-1.9 7.95.844 1.336 3.187 3.275 3.238 3.33 3.325-1.454.512 1.31 2.827-2.731l1.05-10.087-3.897-.24z" fill="#94aad1" stroke="#94aad1" stroke-linecap="round" stroke-linejoin="round"/><path d="M289.568 135.205c4.036.053 5.627-3.826 6.942-8.529.55-1.969 1.18-4.63.937-6.68-.93-7.864-.026-3.424-3.234-4.3-.122 8.895-.641 12.585-4.645 19.51z" fill="#ccd3e9" stroke="#ccd3e9" stroke-linecap="round" stroke-linejoin="round"/><path d="M285.03 290.998l3.277-1.05 2.744-7.669c-7.37-1.652-8.631-1.905-8.736 6.569z" fill="#4a3d39" stroke="#4a3d39" stroke-linecap="round" stroke-linejoin="round"/><path d="M316.094 274.403c-.573-3.76.272-5.967-4.602-6.363-3.287-.266-1.357-1.92-7.088 4.978 3.851 1.462 5.88 2.47 11.69 1.385z" fill="#b2887b" stroke="#b2887b" stroke-linecap="round" stroke-linejoin="round"/><path d="M415.362 260.761l2.463 5.062 4.838-.894c2.522-4.886 1.979-6.351-3.471-9.138z" fill="#433631" stroke="#433631" stroke-linecap="round" stroke-linejoin="round"/><path d="M251.043 168.832c2.665-.515 3.64-.99 3.519 3.027l4.474-2.35c2.256-3.813 2.227-4.962 6.539-5.54-12.636.706-3.522.964-7.67-2.71-4.319 3.663-4.46 2.627-6.862 7.573z" fill="#a3bae5" stroke="#a3bae5" stroke-linecap="round" stroke-linejoin="round"/><path d="M266.323 301.747c2.11-2.603.93-.31 2.327-4.329l-6.259-3.852c-4.072 1.842-4.172 3.473-.852 8.444z" fill="#4b3d36" stroke="#4b3d36" stroke-linecap="round" stroke-linejoin="round"/><path d="M513.19 149.412l2.034 7.945c5.097 2.072 6.433.908 8.921-5.331-4.494 2.448-2.546 1.997-7.72 3.662l-.55-11.885c-2.642 1.596-1.906-3.914-2.395 1.665z" fill="#5e6b93" stroke="#5e6b93" stroke-linecap="round" stroke-linejoin="round"/><path d="M428.576 290.99c3.172-4.029 2.427-1.76 1.81-8.784l-7.44 1.321.293 4.612c2.932 1.55 2.847 1.942 5.337 2.85z" fill="#4a3d39" stroke="#4a3d39" stroke-linecap="round" stroke-linejoin="round"/><path d="M392.993 150.728c3.534-1.967 3.302-3.351 6.36-9.264.858-1.656 1.999-3.262 2.555-5.402 2.105-8.087.367-3.747-.665-5.252-3.039 7.46-5.758 11.686-8.25 19.918z" fill="#5c6779" stroke="#5c6779" stroke-linecap="round" stroke-linejoin="round"/><path d="M403.91 284.334c2.918-2.81 3.877-3.135 4.56-7.41l-6.963-.935-2.765.412c.16.576.368 1.195.557 1.705.183.492.362 1.066.58 1.629zM444.434 298.48l3.151 3.4c.1.133.448 1.06.52.834.07-.227.347.554.528.826 3.617-1.178 1.792.36 4.183-1.875l.589-6.188-3.952-.804-1.466 1.52c-.462 3.092.345 1.915-3.553 2.287z" fill="#453935" stroke="#453935" stroke-linecap="round" stroke-linejoin="round"/><path d="M223.884 230.22l2.585.999 3.288-2.901-1.181-9.333c-4.708 2.1-1.547-1.173-3.405 4.92-.715 2.348-.823 4.285-1.287 6.316z" fill="#e6d9d7" stroke="#e6d9d7" stroke-linecap="round" stroke-linejoin="round"/><path d="M309.447 284.746c3.055-2.774 4.157-4.112 5.575-8.014-5.744-.825-5.417-1.047-8.8.921 1.381 8.252 1.281 1.617 3.225 7.093z" fill="#3d3530" stroke="#3d3530" stroke-linecap="round" stroke-linejoin="round"/><path d="M302.289 146.733c5.241-1.661 5.732-2.322 3.09-8.079-2.247.317-2.723-1.809-4.579 1.99-2.547 5.215 1.488 6.089 1.489 6.09z" fill="#d9e2f1" stroke="#d9e2f1" stroke-linecap="round" stroke-linejoin="round"/><path d="M401.507 275.32l7.084-.142c-3.545-6.25-2.651-5.74-10.489-4.848.517 5.448-2.174.62 3.405 4.99z" fill="#b89686" stroke="#b89686" stroke-linecap="round" stroke-linejoin="round"/><path d="M535.522 427.423l.149-.752c.145-2.772.496-4.13.06-6.909-.425-2.706-1.01-2.514-1.696-3.655-2.075 1.903-1.061-.563-2.386 2.772-2.86 7.2 3.872 8.544 3.873 8.544z" fill="#333235" stroke="#333235" stroke-linecap="round" stroke-linejoin="round"/><path d="M180.287 424.05l-.034-8.282c-2.92-1.463 2.622.772-3.938-1.291l.24 11.825c4.411-1.445 1.775 1.485 3.732-2.252z" fill="#3a322e" stroke="#3a322e" stroke-linecap="round" stroke-linejoin="round"/><path d="M295.483 265.91l1.096-9.3c-2.98 1.044-4.429 1.678-5.48 3.872-2.844 5.947.978 4.712 4.384 5.429z" fill="#3c312f" stroke="#3c312f" stroke-linecap="round" stroke-linejoin="round"/><path d="M208.984 271.73c4.464-1.78.593.314 3.663-1.78.227-.156 2.123-1.716 2.548-2.117 3.587-3.391 1.716.088 3.582-5.556l-5.582 1.156z" fill="#c9b3a9" stroke="#c9b3a9" stroke-linecap="round" stroke-linejoin="round"/><path d="M480.033 327.588c-1.664 2.06-1.15.773-1.317 4.17l3.093-.123 4.428-7.293c-2.548-2.411.864-2.829-3.214-.692-3.327 1.743-2.467 3.115-2.99 3.938z" fill="#533f38" stroke="#533f38" stroke-linecap="round" stroke-linejoin="round"/><path d="M384.484 204.236l2.269 1.907 1.95-8.825c-1.983-3.873.673-.743-3.462-2.563z" fill="#90898b" stroke="#90898b" stroke-linecap="round" stroke-linejoin="round"/><path d="M525.873 433.57l4.447-1.18-4.75-9.31c-2.192 2.243-1.707-2.923-1.871 2.892 2.605 3.596 2.344 2.469 2.174 7.597z" fill="#a89578" stroke="#a89578" stroke-linecap="round" stroke-linejoin="round"/><path d="M203.295 122.833l.44 5.355c6.822-10.38 2.52-3.04 8.85-9.468-4.9.218-6.618.79-9.29 4.113z" fill="#979599" stroke="#979599" stroke-linecap="round" stroke-linejoin="round"/><path d="M406.308 182.737l.947 2.731 3.005-2.053-1.376-6.178c-3.847 3.726-6.576-5.229-2.576 5.5z" fill="#5c6779" stroke="#5c6779" stroke-linecap="round" stroke-linejoin="round"/><path d="M364.6 208.404c3.536 3.16 2.017 1.3 2.585 1.515l.703-6.986c-8.145.672-2.124-.054-4.55 2.106z" fill="#979599" stroke="#979599" stroke-linecap="round" stroke-linejoin="round"/><path d="M218.119 572.185l-6.404-3.695 1.021 4.041z" fill="#796965" stroke="#796965" stroke-linecap="round" stroke-linejoin="round"/><path d="M372.23 203.449l-1.333.342c.52 2.093-1.084 1.407 1.057 2.732 1.853 1.147 1.12.297 2.474.06 1.044-6.668.698-.688-2.197-3.134z" fill="#979599" stroke="#979599" stroke-linecap="round" stroke-linejoin="round"/><path d="M202.994 329.35c1.102-5.433 1.005-1.361-2.667-2.7l-.475.488c1.425 3.38-2.752 3.8 3.142 2.212z" fill="#69554d" stroke="#69554d" stroke-linecap="round" stroke-linejoin="round"/><path d="M375.649 205.77l4.243-.765-1.533-2.981c-3.26 1.83-.998-.262-2.71 3.746z" fill="#979599" stroke="#979599" stroke-linecap="round" stroke-linejoin="round"/></g></svg>