<svg xmlns="http://www.w3.org/2000/svg" viewBox="0 0 725.669 725.669">
    <path fill="#ffd5d5" fill-rule="evenodd" stroke="#000" stroke-width=".567" d="M365.841 717.451c-31.06.504-60.918-33.83-76.338-110.303-125.9 141.295-265.174 124.515-126.723-9.813-.343-148.35-68.315-385.091 113.71-455.768l12.415-4.405c24.438-7.88 50.63-11.789 77.685-11.789s53.246 3.91 77.684 11.79l12.415 4.404c182.026 70.677 114.053 307.417 113.71 455.768 138.451 134.328-.823 151.108-126.723 9.813-15.42 76.473-46.775 110.806-77.835 110.303zM194.062 24.55c-9.082 1.507-15.221 10.092-13.713 19.175 1.509 9.082 10.094 15.221 19.176 13.713 9.082-1.509 15.221-10.094 13.713-19.176-1.509-9.082-10.094-15.221-19.176-13.713z"/>
    <path fill="#ffd5d5" fill-rule="evenodd" stroke="#000" stroke-width=".567" d="M206.49 27.434c-1.92-1.524-3.99-2.48-6.241-2.753 32.859-64.15 83.389 91.123 88.656 112.481l-12.415 4.405c-2.5-22.875-45.614-160.128-70-114.133z"/>
    <path fill="#ffe6d5" fill-rule="evenodd" stroke="#000" stroke-width=".567" d="M366.59 218.864c70.701 0 128.016 35.615 128.016 79.548 0 43.934-57.315 79.549-128.017 79.549-70.701 0-128.016-35.615-128.016-79.549 0-43.933 57.315-79.548 128.016-79.548z"/>
    <path fill-rule="evenodd" stroke="#000" stroke-width=".567" d="M366.59 281.389c8.009 0 14.502 6.493 14.502 14.502 0 8.01-6.493 14.502-14.502 14.502-8.01 0-14.502-6.493-14.502-14.502 0-8.01 6.492-14.502 14.502-14.502z"/>
    <path fill="#ffd5d5" fill-rule="evenodd" stroke="#000" stroke-width=".567" d="M539.117 24.55c9.082 1.507 15.222 10.092 13.713 19.175-1.508 9.082-10.093 15.221-19.175 13.713-9.083-1.509-15.222-10.094-13.714-19.176 1.51-9.082 10.094-15.221 19.176-13.713z"/>
    <path fill="#ffd5d5" fill-rule="evenodd" stroke="#000" stroke-width=".567" d="M526.69 27.434c1.92-1.524 3.99-2.48 6.24-2.753-32.858-64.15-83.388 91.123-88.656 112.481l12.415 4.405c2.501-22.875 45.615-160.128 70-114.133z"/>
</svg>
