<svg xmlns="http://www.w3.org/2000/svg" viewBox="0 0 725.669 725.669">
    <path fill="#ffd5d5" fill-rule="evenodd" stroke="#000" stroke-width=".234" d="M479.599 267.426c-9.839-8.198-9.93-26.956 5.826-54.994-77.342 10.27-116.336-32.44-36.948-37.158 39.803-46.436 82.258-138.679 158.135-111.789l5.063 1.964c9.755 4.113 18.988 9.938 27.44 17.216 8.452 7.279 15.583 15.546 21.097 24.582l2.694 4.716c37.85 71.048-47.073 126.719-87.09 172.97 7.114 79.21-40.91 46.984-42.228-31.025-25.39 19.741-44.422 22.032-53.99 13.518zM612.343 4.755a6.872 6.872 0 1 0-7.142 11.743 6.872 6.872 0 0 0 7.142-11.743z"/>
    <path fill="#ffd5d5" fill-rule="evenodd" stroke="#000" stroke-width=".234" d="M615.449 9c-.19-.993-.58-1.85-1.21-2.54 27.523-11.2 1.537 50.9-2.563 58.99l-5.064-1.965c5.373-7.818 28.829-62.294 8.837-54.486z"/>
    <path fill="#ffe6d5" fill-rule="evenodd" stroke="#000" stroke-width=".234" d="M613.964 111.871c22.087 19.02 30.41 45.566 18.591 59.29-11.819 13.725-39.305 9.432-61.392-9.588-22.087-19.02-30.41-45.566-18.591-59.29 11.82-13.725 39.305-9.432 61.392 9.588z"/>
    <path fill-rule="evenodd" stroke="#000" stroke-width=".234" d="M597.143 131.404a5.979 5.979 0 1 1-7.802 9.06 5.979 5.979 0 0 1 7.802-9.06z"/>
    <path fill="#ffd5d5" fill-rule="evenodd" stroke="#000" stroke-width=".234" d="M720.136 97.582a6.872 6.872 0 1 1-10.554 8.805 6.872 6.872 0 0 1 10.554-8.805z"/>
    <path fill="#ffd5d5" fill-rule="evenodd" stroke="#000" stroke-width=".234" d="M715.478 95.14c1.01.04 1.913.299 2.69.82 6.993-28.88-50.564 6.032-57.956 11.287l2.694 4.716c6.935-6.473 57.327-37.752 52.572-16.823z"/>
</svg>
