<svg xmlns="http://www.w3.org/2000/svg" xmlns:xlink="http://www.w3.org/1999/xlink" viewBox="0 0 725.669 725.669"><defs><linearGradient id="c"><stop offset="0" stop-color="#ff8080"/><stop offset="1" stop-color="#ff8080" stop-opacity="0"/></linearGradient><linearGradient id="b"><stop offset="0" stop-color="#ff8080"/><stop offset="1" stop-color="#ff8080" stop-opacity="0"/></linearGradient><linearGradient id="a"><stop offset="0" stop-color="#ff8080"/><stop offset="1" stop-color="#ff8080" stop-opacity="0"/></linearGradient><linearGradient gradientUnits="userSpaceOnUse" y2="572.5" x2="-80.351" y1="170.746" x1="315.126" id="e" xlink:href="#a"/><linearGradient gradientUnits="userSpaceOnUse" y2="824.491" x2="-128.92" y1="239.436" x1="471.435" id="d" xlink:href="#b"/><linearGradient gradientUnits="userSpaceOnUse" y2="811.961" x2="143.001" y1="401.418" x1="543.553" id="f" xlink:href="#c"/></defs><path d="M694.724-.285l24.745 59.963-239.48 213.612-24.744-59.963z" fill="#ffb380" fill-rule="evenodd" stroke="#000" stroke-width=".567"/><path d="M669.444 29.904l-.115-.28c1.707-1.496 3.139-2.678 4.295-3.548 1.162-.88 2.81-2.017 4.943-3.415 1.64-1.069 2.879-1.92 3.726-2.557a39.618 39.618 0 002.522-2.075c1.699-1.516 2.987-2.887 3.865-4.11.872-1.218 1.211-2.061 1.018-2.53-.172-.418-.582-.499-1.231-.246-.65.25-1.29.66-1.936 1.236-.496.442-1.079 1.06-1.741 1.85-.663.788-1.184 1.35-1.562 1.688-.482.43-.91.734-1.28.912-.376.184-.595.2-.661.04-.083-.202.123-.638.611-1.302.49-.66 1.232-1.438 2.223-2.322 1.52-1.355 2.965-2.325 4.326-2.904 1.36-.579 2.204-.471 2.532.322.406.984-.099 2.429-1.524 4.335-1.04 1.399-2.284 2.743-3.722 4.025a33.756 33.756 0 01-3.123 2.467c-1.102.771-2.442 1.56-4.018 2.371-2.5 1.284-4.237 2.252-5.222 2.922-.985.67-2.296 1.712-3.926 3.121zm-2.56 2.14c.092.224-.044.603-.414 1.145-.37.54-.868 1.09-1.493 1.647-.62.553-1.175.94-1.673 1.17-.498.23-.788.233-.878.014-.092-.22.045-.597.414-1.138.37-.542.861-1.084 1.48-1.637.626-.558 1.187-.954 1.684-1.186.498-.232.788-.236.88-.015zM490.674 256.038l-.115-.28c1.707-1.496 3.138-2.68 4.295-3.55 1.162-.878 2.81-2.015 4.943-3.414 1.639-1.069 2.878-1.92 3.726-2.557a39.528 39.528 0 002.522-2.075c1.699-1.516 2.987-2.886 3.865-4.11.872-1.218 1.211-2.061 1.018-2.53-.173-.418-.582-.5-1.231-.246-.65.25-1.29.66-1.937 1.237-.495.442-1.078 1.059-1.74 1.848-.663.789-1.184 1.351-1.562 1.689-.482.43-.91.735-1.28.912-.376.185-.596.2-.662.04-.082-.202.124-.638.612-1.301.489-.662 1.232-1.439 2.223-2.323 1.52-1.355 2.965-2.325 4.326-2.904 1.36-.578 2.204-.471 2.532.322.406.985-.099 2.43-1.524 4.335-1.041 1.399-2.284 2.743-3.722 4.025a33.755 33.755 0 01-3.123 2.467c-1.102.772-2.442 1.56-4.018 2.371-2.501 1.284-4.238 2.252-5.223 2.922-.984.67-2.295 1.712-3.925 3.122zm-2.56 2.14c.091.223-.044.602-.414 1.144-.37.541-.868 1.09-1.493 1.648-.62.552-1.175.94-1.673 1.17-.498.229-.788.232-.879.013-.09-.22.046-.597.415-1.138.37-.542.86-1.084 1.48-1.637.626-.557 1.187-.954 1.684-1.185.498-.233.788-.237.88-.016zM565.652 155.743l-.344-.833c5.078-4.45 9.336-7.968 12.776-10.556 3.455-2.613 8.357-5.997 14.702-10.157 4.875-3.179 8.562-5.708 11.081-7.606a117.395 117.395 0 007.502-6.171c5.054-4.509 8.885-8.586 11.498-12.225 2.593-3.622 3.601-6.13 3.025-7.525-.512-1.242-1.731-1.483-3.66-.732-1.933.745-3.837 1.964-5.76 3.68-1.473 1.313-3.207 3.15-5.178 5.497-1.97 2.347-3.519 4.018-4.644 5.022-1.433 1.278-2.71 2.187-3.807 2.716-1.117.547-1.771.59-1.967.116-.247-.599.366-1.895 1.818-3.87 1.455-1.968 3.665-4.278 6.611-6.907 4.522-4.033 8.819-6.916 12.867-8.638 4.047-1.722 6.558-1.403 7.531.956 1.209 2.929-.293 7.226-4.531 12.895-3.098 4.162-6.795 8.159-11.07 11.973-2.926 2.61-6.01 5.04-9.29 7.336-3.278 2.296-7.265 4.642-11.952 7.054-7.438 3.817-12.604 6.696-15.533 8.689-2.928 1.993-6.828 5.092-11.675 9.286zm-7.618 6.365c.275.664-.128 1.792-1.227 3.402-1.099 1.61-2.581 3.242-4.443 4.903-1.841 1.642-3.493 2.796-4.975 3.478-1.482.682-2.345.693-2.613.043-.271-.657.134-1.778 1.233-3.388 1.099-1.61 2.56-3.224 4.402-4.866 1.862-1.661 3.53-2.84 5.01-3.53 1.479-.69 2.342-.7 2.613-.042z" fill="#ffe680" fill-rule="evenodd"/><path d="M479.99 273.29l-24.745-59.963C257.35 413.652 119.009 571.033 13.183 704.964 179.597 529.436 341.94 365.818 479.99 273.29z" fill="url(#d)" fill-rule="evenodd"/><path d="M719.469 59.678L479.989 273.29 694.724-.285z" fill-opacity=".502" fill-rule="evenodd"/><path d="M464.86 12.684l16.635 40.31L320.501 196.6l-16.635-40.311z" fill="#ffb380" fill-rule="evenodd" stroke="#000" stroke-width=".567"/><path d="M447.866 32.979l-.078-.188c1.148-1.006 2.11-1.801 2.887-2.386.782-.59 1.89-1.355 3.323-2.296 1.102-.718 1.936-1.29 2.505-1.719.57-.429 1.136-.895 1.696-1.395 1.142-1.019 2.008-1.94 2.598-2.763.586-.818.815-1.385.684-1.7-.115-.281-.391-.336-.827-.166-.437.168-.867.444-1.302.831-.333.298-.725.713-1.17 1.243-.445.53-.796.909-1.05 1.136-.324.288-.612.493-.86.613-.253.124-.4.134-.445.027-.056-.136.083-.429.41-.875.33-.445.83-.967 1.495-1.561 1.022-.912 1.993-1.564 2.908-1.953.915-.389 1.482-.317 1.702.217.274.661-.066 1.633-1.024 2.914-.7.94-1.535 1.844-2.502 2.706-.66.59-1.358 1.14-2.1 1.658-.74.519-1.641 1.05-2.7 1.594-1.682.863-2.85 1.514-3.512 1.965-.661.45-1.543 1.15-2.638 2.098zm-1.722 1.438c.062.15-.029.406-.278.77a6.205 6.205 0 01-1.004 1.108c-.416.371-.79.632-1.124.786-.335.154-.53.157-.59.01-.062-.149.03-.402.278-.766.248-.364.579-.728.995-1.1.42-.375.798-.642 1.132-.797.335-.157.53-.159.591-.01zM327.685 185l-.078-.187c1.147-1.006 2.11-1.801 2.887-2.386.781-.59 1.89-1.355 3.323-2.296 1.102-.718 1.935-1.29 2.505-1.719.57-.429 1.136-.896 1.695-1.395 1.143-1.019 2.009-1.94 2.6-2.763.585-.818.813-1.386.683-1.7-.116-.281-.391-.336-.827-.166-.437.168-.867.444-1.302.831a12.27 12.27 0 00-1.17 1.243c-.446.53-.796.909-1.05 1.135-.324.29-.612.494-.86.614-.253.124-.401.134-.445.026-.056-.135.083-.428.41-.874.33-.445.829-.967 1.495-1.562 1.022-.91 1.993-1.563 2.908-1.952.915-.389 1.482-.317 1.702.216.273.662-.066 1.633-1.024 2.915-.7.94-1.536 1.844-2.502 2.706-.661.59-1.358 1.139-2.1 1.658-.74.519-1.642 1.05-2.7 1.594-1.682.863-2.85 1.514-3.512 1.965-.662.45-1.543 1.15-2.638 2.098zm-1.722 1.44c.062.15-.03.405-.278.769a6.211 6.211 0 01-1.004 1.108c-.416.371-.79.632-1.124.786-.335.154-.53.156-.591.01-.061-.149.03-.402.279-.766a6.14 6.14 0 01.995-1.1c.42-.375.797-.641 1.132-.797.334-.156.53-.159.59-.01zM378.09 117.576l-.232-.56c3.414-2.991 6.277-5.357 8.589-7.096 2.323-1.757 5.619-4.032 9.884-6.829 3.277-2.136 5.755-3.837 7.45-5.113a78.952 78.952 0 005.042-4.148c3.398-3.031 5.974-5.772 7.73-8.219 1.743-2.435 2.421-4.12 2.034-5.059-.344-.834-1.164-.997-2.46-.492-1.3.501-2.58 1.32-3.873 2.474-.99.883-2.156 2.117-3.48 3.695-1.325 1.578-2.367 2.702-3.123 3.377-.963.859-1.821 1.47-2.56 1.826-.75.367-1.19.397-1.322.078-.166-.403.246-1.274 1.223-2.602.978-1.323 2.463-2.876 4.444-4.643 3.04-2.711 5.928-4.65 8.65-5.807 2.72-1.158 4.409-.944 5.063.642.813 1.97-.197 4.858-3.046 8.67-2.083 2.797-4.568 5.484-7.443 8.048a67.484 67.484 0 01-6.244 4.932c-2.205 1.543-4.885 3.12-8.035 4.742-5 2.566-8.474 4.502-10.443 5.841-1.968 1.34-4.59 3.423-7.849 6.243zm-5.122 4.28c.185.446-.086 1.204-.825 2.286-.738 1.083-1.735 2.18-2.987 3.296-1.237 1.104-2.348 1.88-3.344 2.339-.996.458-1.576.465-1.757.029-.182-.443.09-1.196.829-2.278.739-1.083 1.722-2.167 2.96-3.271 1.251-1.117 2.373-1.91 3.367-2.373.995-.464 1.575-.471 1.757-.029z" fill="#ffe680" fill-rule="evenodd"/><path d="M320.501 196.6l-16.635-40.312C170.83 290.96 77.826 396.762 6.683 486.799 118.557 368.798 227.695 258.803 320.5 196.6z" fill="url(#e)" fill-rule="evenodd"/><path d="M481.495 52.995L320.501 196.599l144.36-183.915z" fill-opacity=".502" fill-rule="evenodd"/><path d="M694.137 241.96l16.635 40.311-160.994 143.605-16.635-40.312z" opacity=".998" fill="#ffb380" fill-rule="evenodd" stroke="#000" stroke-width=".567"/><path d="M677.142 262.256l-.078-.189c1.148-1.005 2.11-1.8 2.888-2.385.781-.591 1.89-1.356 3.323-2.296 1.102-.719 1.935-1.29 2.505-1.72.57-.428 1.136-.895 1.695-1.394 1.143-1.019 2.008-1.94 2.599-2.763.586-.818.814-1.386.684-1.7-.116-.281-.391-.336-.828-.166-.436.168-.866.443-1.301.831-.334.297-.725.712-1.17 1.243-.446.53-.796.908-1.05 1.135-.324.289-.612.494-.86.614-.254.124-.401.133-.446.026-.055-.135.084-.428.412-.875.328-.444.828-.967 1.494-1.56 1.022-.912 1.993-1.564 2.908-1.953.914-.39 1.482-.317 1.702.216.273.662-.066 1.633-1.024 2.915-.7.94-1.536 1.844-2.502 2.706a22.69 22.69 0 01-2.1 1.658c-.74.519-1.642 1.049-2.701 1.594-1.681.863-2.849 1.514-3.511 1.964-.662.45-1.543 1.151-2.639 2.099zm-1.721 1.438c.062.15-.03.406-.278.77a6.205 6.205 0 01-1.004 1.107c-.416.372-.79.633-1.125.787-.334.154-.53.156-.59.01-.061-.149.03-.402.279-.766a6.15 6.15 0 01.995-1.1c.42-.375.797-.641 1.131-.797.335-.156.53-.159.592-.01zM556.961 414.277l-.078-.188c1.148-1.005 2.11-1.8 2.888-2.386.78-.59 1.889-1.355 3.323-2.295 1.102-.719 1.935-1.29 2.504-1.72.57-.428 1.136-.895 1.696-1.394 1.142-1.019 2.008-1.94 2.599-2.763.586-.819.814-1.386.684-1.701-.116-.28-.392-.335-.828-.165-.437.168-.867.443-1.302.831-.333.297-.724.712-1.17 1.243-.445.53-.796.908-1.05 1.135-.324.289-.612.494-.86.613-.253.124-.4.134-.445.027-.056-.135.083-.429.411-.875.329-.444.829-.967 1.495-1.56 1.021-.912 1.993-1.564 2.908-1.953.914-.39 1.482-.317 1.702.216.273.662-.066 1.633-1.024 2.914-.7.94-1.536 1.844-2.503 2.706-.66.59-1.358 1.14-2.099 1.659-.741.518-1.642 1.049-2.701 1.594-1.682.863-2.85 1.513-3.511 1.964-.662.45-1.544 1.15-2.639 2.098zm-1.722 1.439c.062.15-.029.405-.277.77a6.212 6.212 0 01-1.004 1.107c-.417.372-.79.632-1.125.787-.335.154-.53.156-.59.01-.062-.149.03-.402.278-.766a6.14 6.14 0 01.995-1.1c.42-.375.798-.641 1.132-.797.335-.157.53-.159.591-.01zM607.366 346.853l-.231-.56c3.414-2.992 6.276-5.357 8.589-7.097 2.323-1.756 5.618-4.03 9.884-6.828 3.276-2.137 5.755-3.837 7.45-5.113a78.883 78.883 0 005.042-4.149c3.398-3.03 5.973-5.772 7.73-8.218 1.743-2.435 2.42-4.121 2.034-5.059-.345-.835-1.164-.997-2.461-.492-1.3.5-2.58 1.32-3.873 2.474-.99.883-2.155 2.117-3.48 3.695-1.325 1.578-2.366 2.702-3.123 3.377-.962.858-1.82 1.47-2.558 1.825-.752.368-1.191.397-1.323.078-.166-.402.246-1.273 1.222-2.602.979-1.322 2.464-2.875 4.445-4.642 3.04-2.712 5.928-4.65 8.65-5.808 2.72-1.157 4.408-.943 5.063.643.812 1.969-.198 4.858-3.047 8.669-2.082 2.798-4.567 5.485-7.442 8.049a67.489 67.489 0 01-6.245 4.932c-2.204 1.543-4.884 3.12-8.035 4.742-5 2.566-8.473 4.502-10.442 5.841-1.969 1.34-4.59 3.423-7.85 6.243zm-5.121 4.279c.184.446-.086 1.205-.825 2.287-.739 1.082-1.735 2.18-2.987 3.296-1.238 1.104-2.348 1.88-3.344 2.338-.997.459-1.577.466-1.757.03-.183-.443.09-1.197.829-2.279.739-1.082 1.721-2.167 2.959-3.27 1.252-1.117 2.374-1.91 3.368-2.374.994-.463 1.575-.47 1.757-.028z" fill="#ffe680" fill-rule="evenodd"/><path d="M549.778 425.876l-16.635-40.311c-133.038 134.672-226.04 240.474-297.184 330.511 111.875-118.002 221.013-227.997 313.819-290.2z" fill="url(#f)" fill-rule="evenodd"/><path d="M710.772 282.272L549.778 425.875l144.36-183.916z" fill-opacity=".498" fill-rule="evenodd"/></svg>